<?xml version="1.0" encoding="UTF-8" standalone="no"?>
<!DOCTYPE svg PUBLIC "-//W3C//DTD SVG 1.1//EN" "http://www.w3.org/Graphics/SVG/1.1/DTD/svg11.dtd">
<svg width="100%" height="100%" viewBox="0 0 823 842" version="1.1" xmlns="http://www.w3.org/2000/svg" xmlns:xlink="http://www.w3.org/1999/xlink" xml:space="preserve" xmlns:serif="http://www.serif.com/" style="fill-rule:evenodd;clip-rule:evenodd;stroke-linecap:square;stroke-miterlimit:10;">
    <path id="path81" d="M385.463,325.588C363.388,275.621 308.503,200.867 390.549,167.997C475.004,134.162 531.381,200.782 517.7,270.822C513.746,291.062 477.11,328.935 520.243,334.529C545.232,337.77 560.965,299.881 588.904,299.881C631.993,299.881 689.109,307.027 726.227,282.558C757.465,261.964 772.21,221.298 813.961,214.939C821.626,257.376 759.057,274.487 770.73,315.529C778.12,341.514 778.245,411.615 721.141,394.883C661.948,377.54 606.542,393.08 562.202,434.001C517.823,474.958 526.488,516.686 506.256,562.532C478.427,625.591 420.58,609.067 362.576,620.651C301.901,632.768 263.378,683.31 199.822,696.652C146.297,707.888 40.272,721.571 14.182,664.24C-13.394,603.641 47.591,635.088 85.387,632.945C98.892,632.179 112.532,632.602 126.075,631.827C124.042,592.354 106.931,538.508 168.035,534.032C231.108,529.411 254.056,540.395 292.643,489.884C315.886,459.458 347.165,402.422 277.384,410.53C247.49,414.004 244.71,442.842 212.538,426.177C198.152,418.726 188.391,392.558 190.286,379.235C192.775,361.734 212.605,354.283 197.915,336.205C182.772,317.572 150.744,308.574 142.605,285.352C135.759,265.821 145.261,254.136 151.505,236.175C162.003,205.969 164.719,184.175 168.67,152.909C171.035,134.199 176.462,118.707 194.736,134.467C206.955,145.006 196.072,193.089 197.915,207.674C199.95,223.762 211.781,239.931 229.703,246.233C262.089,257.62 236.657,289.462 249.411,306.587C255.225,314.395 308.002,332.621 321.887,336.764C343.096,343.093 387.875,357.794 385.463,325.588Z" style="fill:rgb(255,255,0);fill-opacity:0.65;fill-rule:nonzero;stroke:black;stroke-width:1.59px;"/>
    <path id="path83" d="M447.767,274.175C470.154,285.849 480.622,327.514 479.554,347.941C478.607,366.041 476.513,397.359 457.303,363.588C443.915,340.052 414.707,386.812 414.707,351.294C414.707,328.349 402.909,257.322 447.767,274.175Z" style="fill-opacity:0.65;fill-rule:nonzero;"/>
    <path id="path85" d="M421.068,220.527C431.106,276.948 388.302,225.424 421.068,220.527Z" style="fill-opacity:0.65;fill-rule:nonzero;"/>
    <path id="path87" d="M451.581,217.174C459.092,274.589 418.166,220.623 451.581,217.174Z" style="fill-opacity:0.65;fill-rule:nonzero;"/>
</svg>
