<?xml version="1.0" encoding="UTF-8" standalone="no"?>
<!DOCTYPE svg PUBLIC "-//W3C//DTD SVG 1.1//EN" "http://www.w3.org/Graphics/SVG/1.1/DTD/svg11.dtd">
<svg width="100%" height="100%" viewBox="0 0 1200 842" version="1.1" xmlns="http://www.w3.org/2000/svg" xmlns:xlink="http://www.w3.org/1999/xlink" xml:space="preserve" xmlns:serif="http://www.serif.com/" style="fill-rule:evenodd;clip-rule:evenodd;stroke-linejoin:round;stroke-miterlimit:2;">
    <g transform="matrix(2.64055,0,0,1.30769,-483.92,-132.488)">
        <path d="M180.352,83.674L596.179,83.674C641.927,83.674 641.297,76.386 641.297,121.089L641.297,756.954C641.297,761.325 281.794,759.108 248.238,759.108C206.438,759.108 180.352,775.54 180.352,731.886L180.352,83.674Z" style="fill:rgb(51,102,155);"/>
    </g>
    <g transform="matrix(1.84983,0,0,1.39923,-344.487,-228.854)">
        <path d="M355.527,257.553C472.908,261.714 554.078,348.22 563.484,462.496C573.178,580.272 465.796,665.702 358.807,673.753C310.728,677.371 258.886,656.486 222.58,625.833C168.728,580.365 180.351,537.922 180.351,471.099C180.351,414.067 165.892,361.123 208.214,318.684C247.492,279.299 300.353,258.85 355.527,257.553Z" style="fill:rgb(255,255,242);"/>
    </g>
    <g transform="matrix(1.03826,0,0,1.01639,-254.037,-27.476)">
        <g>
            <g transform="matrix(1.84983,0,0,1.30769,-162.852,-132.488)">
                <path d="M448.189,294.276C460.287,314.678 472.384,335.081 484.481,355.483C499.865,381.427 485.35,368.032 478.429,389.315C500.367,394.78 469.998,402.982 483.181,414.586C491.677,397.955 500.173,381.323 508.669,364.691C517.03,381.059 525.391,397.426 533.752,413.794C544.982,435.779 546.763,433.415 525.757,447.285C518.945,451.782 519.499,468.559 516.661,475.93C514.641,481.176 506.033,477.194 504.499,484.575C502.434,494.511 500.369,504.445 498.304,514.38C503.135,509.375 511.455,507.801 516.661,503.148C520.837,523.668 525.013,544.187 529.188,564.707C523.062,566.363 524.078,568.629 519.901,570.754C531.036,576.486 524.942,582.485 516.233,588.039C543.542,588.73 527.433,554.494 531.133,544.838C534.34,536.468 559.916,528.377 530.488,517.838C550,499.981 569.511,482.123 589.023,464.266C594.062,489.25 599.101,514.235 604.14,539.219C587.634,537.823 594.601,541.226 586.216,548.506C589.599,549.514 592.982,550.522 596.364,551.529C572.892,593.894 556.523,634.928 545.821,686.529C575.952,686.529 612.649,692.585 641.294,683.939C641.294,705.638 655.442,759.326 628.757,759.326L193.525,759.326C208.142,748.021 222.758,736.717 237.375,725.412C206.837,702.634 303.554,691.891 309.734,691.07C311.543,659.489 283.921,665.706 330.037,656.939C328.331,639.67 307.214,618.158 298.502,599.699C296.592,595.653 271.783,590.133 288.998,579.179C303.843,569.734 276.828,570.096 270.855,571.404C275.462,542.675 280.07,513.947 284.677,485.218C303.613,501.13 322.55,517.042 341.486,532.954C342.638,523.091 343.791,513.227 344.943,503.364C353.366,509.196 361.789,515.028 370.213,520.86C374.528,500.622 360.588,501.631 358.524,490.415C355.362,473.238 358.157,453.363 335.221,454.761C345.157,431.578 355.094,408.395 365.03,385.212C377.733,400.152 404.452,421.079 405.639,439.86C405.856,439.788 405.928,439.86 405.856,440.077C410.935,425.579 430.914,416.273 415.256,404.251C402.898,394.762 446.786,383.41 404.774,375.276C419.247,348.276 433.718,321.276 448.189,294.276Z"/>
            </g>
            <g>
                <g transform="matrix(1.84983,0,0,1.30769,-162.852,-132.488)">
                    <path d="M339.113,547.643C337.085,551.506 340.061,553.684 335.008,556.069C332.671,550.504 336.906,551.847 339.113,547.643Z" style="fill:rgb(255,255,206);"/>
                </g>
                <g transform="matrix(1.84983,0,0,1.30769,-162.852,-132.488)">
                    <path d="M355.744,599.915C361.065,600.549 363.892,598.081 365.68,604.017C361.983,607.279 355.217,609.619 350.561,611.365C343.71,601.035 339.629,589.925 346.241,579.83C349.308,586.313 353.884,593.015 355.744,599.915Z" style="fill:rgb(255,255,206);"/>
                </g>
                <g transform="matrix(1.84983,0,0,1.30769,-162.852,-132.488)">
                    <path d="M393.76,550.667C395.656,558.454 397.255,565.436 396.137,573.776C390.064,564.34 391.977,556.956 393.76,550.667Z" style="fill:rgb(255,255,206);"/>
                </g>
                <g transform="matrix(1.84983,0,0,1.30769,-162.852,-132.488)">
                    <path d="M397.648,593.868C397.244,592.553 393.064,590.167 397.214,584.798C397.359,587.821 397.504,590.844 397.648,593.868Z" style="fill:rgb(255,255,206);"/>
                </g>
                <g transform="matrix(1.84983,0,0,1.30769,-162.852,-132.488)">
                    <path d="M377.129,459.512C372.516,473.784 371.171,468.202 371.297,454.977C373.241,456.489 375.185,458 377.129,459.512Z" style="fill:rgb(255,255,242);"/>
                </g>
                <g transform="matrix(1.84983,0,0,1.30769,-162.852,-132.488)">
                    <path d="M416.438,496.016C422.848,502.738 425.724,509.817 424.43,519.348C410.025,519.617 409.319,507.218 416.438,496.016Z" style="fill:rgb(255,255,242);"/>
                </g>
                <g transform="matrix(1.84983,0,0,1.30769,-162.852,-132.488)">
                    <path d="M404.775,507.038C405.567,512.21 406.216,517.406 406.937,522.589C394.347,522.519 394.469,509.838 399.376,499.257C401.176,501.85 402.976,504.444 404.775,507.038Z" style="fill:rgb(255,255,242);"/>
                </g>
                <g transform="matrix(1.84983,0,0,1.30769,-162.852,-132.488)">
                    <path d="M469.793,626.698C471.736,630.874 473.68,635.05 475.623,639.225C468.938,639.632 461.31,637.71 456.398,635.123C460.19,631.368 465.453,628.662 469.793,626.698Z" style="fill:rgb(255,255,242);"/>
                </g>
                <g transform="matrix(1.84983,0,0,1.30769,-162.852,-132.488)">
                    <path d="M426.158,628.643C429.902,630.803 433.646,632.963 437.39,635.123C432.687,638.672 425.578,641.651 420.111,642.465C420.574,636.855 423.654,632.294 426.158,628.643Z" style="fill:rgb(255,255,242);"/>
                </g>
            </g>
        </g>
        <g>
            <g transform="matrix(1.84983,0,0,1.30769,-162.852,-132.488)">
                <path d="M452.941,383.268C453.806,385.355 454.671,387.442 455.537,389.53C452.441,389.819 449.346,390.107 446.25,390.395C445.978,380.787 451.204,385.184 452.941,383.268Z" style="fill:rgb(255,255,242);"/>
            </g>
            <g transform="matrix(1.84983,0,0,1.30769,-162.852,-132.488)">
                <path d="M476.057,430.356C477.386,435.446 482.655,434.07 480.375,441.155C478.432,441.372 476.488,441.589 474.545,441.805C475.049,437.989 475.553,434.172 476.057,430.356Z" style="fill:rgb(255,255,242);"/>
            </g>
        </g>
    </g>
    <g transform="matrix(1.84983,0,0,1.30769,-513.895,-151.076)">
        <path d="M441.498,167.915C452.281,177.666 448.629,192.949 447.328,204.204C472.305,213.999 455.813,175.538 471.716,174.238C493.972,172.419 516.227,170.599 538.483,168.78C523.643,175.689 516.637,190.113 527.034,204.204C505.128,195.566 490.822,212.952 496.36,234.011C469.631,226.793 480.888,258.677 467.415,263.172C453.55,267.798 427.461,240.556 426.593,272.026C413.864,256.082 390.236,258.983 388.792,281.747C377.294,271.239 361.006,262.301 350.562,278.94C360.64,258.645 370.717,238.349 380.794,218.053C387.733,204.078 421.768,235.734 428.755,209.387C421.086,204.032 424.375,206.261 420.329,198.803C405.41,202.409 394.64,189.751 404.993,176.553C420.553,196.398 440.01,196.576 441.498,167.915Z"/>
    </g>
    <g transform="matrix(1.84983,0,0,1.30769,116.376,-216.017)">
        <path d="M328.096,305.292C328.874,316.199 326.815,322.757 320.321,330.563C334.155,343.523 330.982,319.77 344.298,318.684C356.433,317.694 378.736,332.589 390.306,337.26C378.136,337.026 370.262,344.035 371.513,356.268C360.033,344.03 345.296,349.88 342.353,365.772C326.723,353.346 325.402,376.974 314.382,375.059C300.428,372.635 298.285,348.955 285.329,367.715C281.538,352.453 266.894,348.42 257.897,361.666C254.561,349.728 245.702,342.05 233.92,347.41C242.281,341.162 264.232,317.502 274.096,317.387C288.724,317.215 292.481,341.28 306.711,327.971C302.802,321.713 305.29,324.624 304.768,318.467C293.637,313.812 291.775,306.622 301.961,299.026C305.157,317.752 318.302,322.737 328.096,305.292Z"/>
    </g>
    <g transform="matrix(1.84983,0,0,1.30769,442.154,-235.59)">
        <path d="M241.264,449.364C239.641,454.463 241.098,457.893 237.16,461.891C238.24,462.827 239.32,463.762 240.4,464.698C249.191,453.605 260.916,456.861 272.369,465.132C266.413,469.808 267.196,469.545 262.865,474.853C250.733,473.356 257.634,471.302 248.392,479.388C236.138,480.228 230.736,476.451 219.663,480.466C209.777,473.139 217.202,475.139 206.056,477.443C199.433,472.374 200.581,473.012 193.96,470.318C205.836,456.761 219.049,455.26 230.464,460.597C226.193,453.964 228.987,452.756 228.087,446.124C231.782,459.919 233.873,452.951 241.264,449.364Z"/>
    </g>
    <g transform="matrix(1.84983,0,0,1.30769,464.731,-173.674)">
        <path d="M241.049,529.069C241.568,532.099 243.393,533.35 242.561,536.411C247.662,531.801 252.301,533.005 260.489,528.636C257.31,533.119 258.399,530.815 258.329,535.761C252.631,540.759 244.669,548.077 238.89,550.234C232.472,551.286 230.404,550.083 223.769,552.179C230.6,542.714 229.454,540.548 238.673,537.706C235.22,536.124 235.902,533.51 233.921,531.226C239.856,537.029 238.16,532.044 241.049,529.069Z"/>
    </g>
</svg>
