<?xml version="1.0" encoding="UTF-8" standalone="no"?>
<!DOCTYPE svg PUBLIC "-//W3C//DTD SVG 1.1//EN" "http://www.w3.org/Graphics/SVG/1.1/DTD/svg11.dtd">
<svg width="100%" height="100%" viewBox="0 0 110 150" version="1.1" xmlns="http://www.w3.org/2000/svg" xmlns:xlink="http://www.w3.org/1999/xlink" xml:space="preserve" xmlns:serif="http://www.serif.com/" style="fill-rule:evenodd;clip-rule:evenodd;stroke-linejoin:round;stroke-miterlimit:2;">
    <g id="layer2" transform="matrix(0.625866,0,0,0.625866,-43.8038,-143.526)">
        <g id="g3097">
            <path id="path4037" d="M187.917,451.559C187.018,450.629 185.806,449.196 184.323,447.332C182.74,445.342 180.91,442.994 179.035,440.641C177.161,438.288 175.233,435.941 173.456,433.95C172.568,432.954 171.715,432.049 170.923,431.28C170.132,430.511 169.413,429.867 168.767,429.415C167.826,428.685 166.946,428.083 166.149,427.566C165.351,427.049 164.63,426.622 163.993,426.283C162.718,425.605 161.787,425.243 161.254,425.068C161.042,426.46 160.824,427.872 160.638,429.312C161.011,429.486 162.091,430.003 163.565,430.972C164.443,431.549 165.384,432.248 166.269,433.06C166.711,433.466 167.146,433.898 167.535,434.36C167.924,434.823 168.28,435.314 168.579,435.832C168.878,436.35 169.106,436.916 169.263,437.492C169.421,438.069 169.508,438.657 169.486,439.272C169.464,439.887 169.331,440.521 169.092,441.154C168.854,441.788 168.507,442.422 168.014,443.054C167.264,443.944 166.309,444.815 165.242,445.621C164.175,446.426 162.99,447.164 161.768,447.829C160.546,448.494 159.286,449.089 158.071,449.557C156.857,450.025 155.694,450.369 154.649,450.584C153.317,450.456 152.105,450.285 151.004,450.053C149.902,449.821 148.916,449.539 148.026,449.215C147.136,448.89 146.345,448.525 145.647,448.12C144.949,447.714 144.341,447.259 143.816,446.785C143.291,446.31 142.843,445.806 142.481,445.279C142.119,444.752 141.844,444.212 141.625,443.653C141.407,443.094 141.243,442.528 141.146,441.959C141.05,441.389 141.021,440.807 141.026,440.247C141.038,439.162 141.205,438.107 141.454,437.133C141.704,436.158 142.027,435.264 142.361,434.497C143.029,432.964 143.72,431.945 143.799,431.828C143.605,430.793 143.392,429.76 143.148,428.747C142.701,429.167 142.064,429.806 141.3,430.681C140.536,431.556 139.644,432.665 138.682,434.052C137.948,435.126 137.098,436.664 136.218,438.416C135.337,440.169 134.418,442.137 133.514,444.098C132.609,446.059 131.718,448.013 130.912,449.711C130.331,450.936 129.864,451.794 129.389,452.672C145.704,473.909 164.676,472.639 187.917,451.559Z" style="fill:rgb(46,190,234);fill-rule:nonzero;"/>
            <g id="path4045" transform="matrix(1,0,0,1,0,200)">
                <path d="M152.375,77.531C149.807,77.849 147.659,78.186 145.875,78.531C144.091,78.876 142.674,79.211 141.563,79.531C140.004,79.981 139.037,80.379 138.469,80.656C137.9,80.933 137.781,81.063 137.781,81.063L137.719,80.969C135.395,82.463 133.234,83.803 131.25,84.969C129.266,86.134 127.445,87.123 125.781,88C124.117,88.877 122.614,89.652 121.25,90.281C119.886,90.911 118.676,91.391 117.594,91.813C116.306,92.314 115.206,92.695 114.281,92.969C113.357,93.243 112.624,93.418 112.031,93.531C111.741,93.587 111.471,93.628 111.25,93.656C111.525,94.409 111.892,95.605 112.188,97.125C112.335,97.885 112.478,98.74 112.563,99.656C112.647,100.573 112.679,101.544 112.656,102.594C112.634,103.644 112.55,104.746 112.375,105.906C112.2,107.066 111.935,108.285 111.562,109.531C111.19,110.778 110.709,112.066 110.094,113.375C109.478,114.684 108.715,115.995 107.812,117.344C107.671,117.639 107.567,118.127 107.5,118.688C107.433,119.248 107.423,119.893 107.437,120.625C107.467,122.089 107.652,123.828 107.875,125.563C108.098,127.297 108.356,129.018 108.562,130.531C108.769,132.044 108.914,133.344 108.875,134.25C108.839,135.087 108.695,135.856 108.5,136.563C108.305,137.269 108.069,137.904 107.719,138.5C107.369,139.096 106.94,139.651 106.437,140.156C105.935,140.661 105.339,141.128 104.687,141.563L103.969,142.031L103.656,141.25C103.183,140.048 102.89,138.793 102.687,137.531C102.485,136.27 102.382,134.988 102.312,133.844C102.243,132.7 102.215,131.654 102.156,130.813C102.119,130.282 102.064,129.859 102,129.531C101.757,129.291 100.869,128.444 99.625,127.406C99.003,126.888 98.279,126.315 97.5,125.75C96.721,125.185 95.904,124.634 95.031,124.125C94.08,123.571 93.103,123.086 92.156,122.75C91.209,122.414 90.292,122.218 89.469,122.219C89.057,122.219 88.65,122.251 88.281,122.344C87.913,122.437 87.575,122.601 87.25,122.813C86.925,123.024 86.626,123.301 86.344,123.656C86.062,124.011 85.801,124.445 85.562,124.969C85.072,126.047 84.749,127.21 84.562,128.438C84.376,129.665 84.312,130.948 84.406,132.25C84.501,133.552 84.74,134.883 85.094,136.188C85.448,137.492 85.94,138.767 86.531,140C87.072,141.127 87.691,142.215 88.406,143.219C89.121,144.223 89.912,145.139 90.781,145.969C91.651,146.799 92.591,147.552 93.594,148.156C94.597,148.761 95.665,149.204 96.781,149.531C97.117,148.876 97.777,147.849 98.562,146.781C99.348,145.713 100.263,144.626 101.062,143.906C101.062,143.906 99.975,146.379 98.031,150.156C97.883,150.64 97.51,151.372 97,152.281C96.49,153.19 95.813,154.279 95.031,155.5C93.468,157.941 91.487,160.899 89.375,163.906C85.15,169.92 80.525,176.14 78.406,178.969C78.678,179.254 79.331,179.961 80.375,180.938C81.419,181.914 82.875,183.166 84.687,184.656C86.5,186.147 88.671,187.86 91.25,189.688C93.829,191.515 96.813,193.481 100.156,195.469C101.828,196.463 103.575,197.468 105.437,198.469C107.299,199.47 109.26,200.452 111.312,201.438C113.365,202.423 115.508,203.395 117.75,204.344C119.992,205.292 122.349,206.236 124.781,207.125C127.213,208.014 129.723,208.848 132.344,209.656C134.965,210.464 137.659,211.233 140.469,211.938C143.279,212.642 146.22,213.296 149.219,213.875C152.217,214.454 155.282,214.944 158.469,215.375C160.394,214.788 162.687,213.93 165.219,212.875C167.751,211.82 170.532,210.572 173.437,209.188C176.342,207.803 179.393,206.294 182.437,204.719C185.482,203.144 188.517,201.501 191.469,199.875C197.405,196.605 202.944,193.373 207.094,190.75C209.168,189.438 210.889,188.273 212.156,187.344C213.216,186.566 213.723,186.053 214,185.75C213.303,184.976 212.267,183.824 211,182.344C209.733,180.863 208.228,179.074 206.656,177.031C205.085,174.988 203.424,172.711 201.812,170.25C200.201,167.789 198.636,165.14 197.25,162.406C196.53,160.985 195.852,159.554 195.25,158.094C194.648,156.633 194.13,155.137 193.687,153.656C193.245,152.176 192.898,150.7 192.656,149.219C192.414,147.738 192.282,146.243 192.281,144.781C192.28,143.319 192.403,141.888 192.687,140.469C192.972,139.049 193.425,137.661 194.031,136.313C194.334,135.638 194.672,134.963 195.062,134.313C195.453,133.662 195.893,133.03 196.375,132.406C196.857,131.782 197.39,131.187 197.969,130.594C198.547,130 199.164,129.403 199.844,128.844C199.886,129.402 199.746,129.885 199.531,130.344C199.317,130.803 199.031,131.248 198.719,131.781C199.053,132.004 199.48,132.305 199.906,132.719C200.332,133.132 200.741,133.632 201.031,134.219C201.251,134.663 201.396,135.208 201.375,135.75C201.354,136.292 201.186,136.854 200.812,137.375C200.439,137.896 199.875,138.388 199.125,138.844C198.375,139.3 197.43,139.715 196.219,140.125C196.768,139.524 197.413,139.018 198.031,138.469C198.649,137.919 199.235,137.323 199.687,136.563C199.923,136.234 200.024,135.961 200.031,135.688C200.038,135.414 199.956,135.134 199.812,134.844C199.601,134.416 199.229,134.012 198.844,133.656C198.459,133.301 198.049,132.999 197.781,132.813C197.041,133.71 196.434,134.641 195.906,135.594C195.379,136.547 194.926,137.53 194.594,138.531C194.261,139.533 194.032,140.551 193.875,141.594C193.718,142.637 193.655,143.704 193.656,144.781C193.657,145.78 193.719,146.793 193.844,147.813C193.969,148.832 194.141,149.842 194.375,150.875C195.161,150.574 195.983,150.176 196.812,149.688C197.642,149.2 198.493,148.632 199.312,147.969C200.131,147.306 200.933,146.544 201.687,145.719C202.442,144.893 203.145,144.007 203.781,143.031C204.463,141.985 205.042,140.858 205.531,139.656C206.021,138.454 206.42,137.192 206.656,135.844C206.892,134.495 206.985,133.048 206.906,131.563C206.828,130.077 206.578,128.55 206.125,126.938C205.899,126.135 205.639,125.439 205.375,124.844C205.111,124.249 204.853,123.758 204.562,123.344C204.272,122.929 203.964,122.573 203.656,122.313C203.349,122.052 203.032,121.883 202.719,121.75C202.405,121.617 202.085,121.534 201.75,121.5C201.415,121.466 201.069,121.479 200.719,121.531C200.017,121.636 199.289,121.904 198.562,122.281C197.903,122.624 197.248,123.02 196.656,123.469C196.065,123.918 195.539,124.427 195.062,124.875C194.109,125.771 193.427,126.533 193.219,126.781C192.326,131.055 191.264,136.064 190.781,137.906C190.676,138.309 190.53,138.693 190.375,139C190.22,139.308 190.06,139.534 189.844,139.75C189.627,139.966 189.371,140.155 189.094,140.25C188.816,140.346 188.5,140.362 188.219,140.313C187.937,140.263 187.699,140.154 187.469,140C187.238,139.846 187.023,139.648 186.844,139.406C186.484,138.922 186.217,138.267 186.062,137.531C185.905,136.781 185.834,135.781 185.844,134.625C185.854,133.469 185.957,132.163 186.094,130.813C186.225,129.516 186.392,128.193 186.625,126.969C186.858,125.745 187.145,124.601 187.469,123.656C187.214,123.222 186.947,122.746 186.656,121.938C186.308,120.97 185.944,119.737 185.594,118.281C185.243,116.825 184.909,115.144 184.656,113.313C184.403,111.481 184.259,109.492 184.219,107.406C184.181,105.431 184.253,103.383 184.5,101.281C184.623,100.23 184.788,99.156 185,98.094C185.212,97.032 185.469,95.967 185.781,94.906C186.093,93.846 186.451,92.795 186.875,91.75C187.299,90.705 187.765,89.673 188.312,88.656C188.86,87.64 189.505,86.662 190.187,85.688C190.87,84.713 191.609,83.731 192.437,82.813C190.174,82.805 187.836,82.723 185.531,82.563C181.904,82.31 178.372,81.92 175.375,81.438C173.877,81.196 172.528,80.929 171.344,80.656C170.159,80.384 169.173,80.098 168.406,79.813C167.026,79.298 165.321,78.897 163.562,78.594C161.804,78.29 159.967,78.085 158.312,77.938C155.002,77.643 152.375,77.594 152.375,77.594L152.375,77.531L152.375,77.531ZM139.156,213C139.616,214.011 140.295,215.594 141.063,217.563C141.83,219.531 142.668,221.891 143.438,224.469C143.822,225.758 144.204,227.093 144.531,228.469C144.859,229.845 145.143,231.268 145.375,232.688C145.607,234.107 145.777,235.549 145.875,236.969C145.973,238.389 145.98,239.779 145.906,241.156C145.524,240.113 145.328,238.754 145.094,237.438C144.977,236.779 144.835,236.128 144.688,235.531C144.54,234.935 144.378,234.385 144.156,233.938C143.782,234.673 143.344,235.659 143,236.75C142.828,237.295 142.671,237.878 142.563,238.469C142.455,239.06 142.413,239.642 142.406,240.25C142.401,240.738 142.423,241.239 142.5,241.719C142.577,242.199 142.695,242.662 142.875,243.125C143.055,243.588 143.29,244.062 143.594,244.5C143.898,244.938 144.27,245.344 144.719,245.75C145.163,246.151 145.695,246.548 146.313,246.906C146.93,247.264 147.657,247.608 148.469,247.906C149.281,248.204 150.161,248.467 151.188,248.688C152.214,248.908 153.363,249.061 154.625,249.188C156.335,248.666 157.844,248.116 159.188,247.531C160.531,246.946 161.713,246.358 162.719,245.75C163.725,245.142 164.553,244.529 165.25,243.938C165.947,243.346 166.52,242.754 166.938,242.219C167.358,241.679 167.674,241.156 167.875,240.656C168.076,240.157 168.141,239.687 168.156,239.219C168.172,238.75 168.104,238.291 167.969,237.844C167.834,237.396 167.658,236.967 167.406,236.531C166.903,235.661 166.156,234.839 165.344,234.094C164.531,233.349 163.645,232.672 162.813,232.125C161.793,231.454 161.024,231.035 160.469,230.75C160.155,232.153 159.915,233.57 159.625,234.969C159.335,236.367 158.991,237.758 158.531,239.063C158.501,237.258 158.63,235.12 158.844,232.875C159.058,230.63 159.358,228.266 159.688,226.031C160.346,221.561 161.1,217.545 161.438,215.813C160.479,216.157 159.56,216.466 158.719,216.719L158.563,216.781L158.438,216.781C155.01,216.321 151.683,215.757 148.469,215.125C145.254,214.493 142.158,213.777 139.156,213Z" style="fill:rgb(255,242,171);fill-rule:nonzero;"/>
            </g>
            <g id="path3061" transform="matrix(1,0,0,1,0,200)">
                <path d="M110.233,151.381C112.506,154.159 138.896,170.953 169.327,159.841C165.485,163.049 157.059,164.928 147.734,164.96C129.541,165.023 107.67,157.907 110.233,151.381Z" style="fill:rgb(255,224,127);fill-rule:nonzero;"/>
            </g>
            <path id="path4073" d="M139.965,305.599C139.225,305.627 138.467,305.757 137.724,305.976C136.98,306.195 136.252,306.501 135.533,306.9C134.894,307.255 134.264,307.678 133.668,308.166C133.072,308.655 132.507,309.214 131.973,309.826C131.44,310.438 130.936,311.104 130.485,311.829C130.033,312.553 129.636,313.331 129.287,314.156C128.937,314.981 128.654,315.826 128.448,316.655C128.242,317.483 128.106,318.309 128.037,319.119C127.969,319.929 127.975,320.71 128.037,321.481C128.1,322.251 128.226,322.996 128.414,323.705C128.602,324.415 128.847,325.1 129.15,325.725C129.452,326.35 129.799,326.913 130.211,327.436C130.622,327.959 131.099,328.437 131.614,328.839C132.129,329.241 132.695,329.569 133.308,329.832C133.922,330.095 134.545,330.284 135.191,330.38C135.836,330.476 136.499,330.494 137.159,330.431C137.819,330.368 138.486,330.216 139.144,330.003C139.802,329.79 140.456,329.502 141.095,329.147C141.734,328.793 142.345,328.368 142.943,327.881C143.541,327.394 144.119,326.848 144.654,326.238C145.19,325.628 145.69,324.958 146.143,324.236C146.596,323.513 147.009,322.734 147.358,321.908C147.708,321.083 147.975,320.257 148.18,319.427C148.384,318.597 148.524,317.775 148.591,316.963C148.657,316.151 148.655,315.356 148.591,314.584C148.526,313.812 148.402,313.052 148.214,312.342C148.026,311.632 147.781,310.965 147.478,310.34C147.176,309.715 146.811,309.134 146.4,308.611C145.989,308.089 145.529,307.627 145.014,307.225C144.499,306.823 143.933,306.479 143.32,306.215C142.783,305.985 142.22,305.821 141.66,305.719C141.099,305.617 140.541,305.578 139.965,305.599L139.965,305.599Z" style="fill:white;fill-rule:nonzero;"/>
            <path id="path4069" d="M155.436,305.514C154.856,305.502 154.272,305.561 153.69,305.702C153.109,305.843 152.522,306.072 151.945,306.387C151.368,306.701 150.801,307.111 150.233,307.619C149.666,308.127 149.108,308.728 148.556,309.45C148.968,310.239 149.294,311.087 149.532,311.983C149.742,312.774 149.872,313.613 149.942,314.464C150.013,315.316 150.016,316.194 149.942,317.083C149.869,317.971 149.721,318.867 149.498,319.769C149.274,320.671 148.986,321.564 148.608,322.456C148.528,322.643 148.453,322.821 148.368,323.004C148.72,323.851 149.119,324.656 149.566,325.4C150.013,326.143 150.496,326.824 151.021,327.453C151.546,328.082 152.112,328.661 152.698,329.165C153.283,329.668 153.9,330.098 154.529,330.465C155.169,330.839 155.82,331.148 156.48,331.372C157.139,331.596 157.803,331.734 158.465,331.8C159.127,331.866 159.786,331.85 160.433,331.749C161.08,331.647 161.718,331.461 162.333,331.184C162.947,330.906 163.51,330.563 164.027,330.14C164.544,329.717 165.017,329.219 165.43,328.668C165.843,328.118 166.205,327.513 166.508,326.854C166.812,326.196 167.056,325.48 167.244,324.732C167.433,323.985 167.556,323.201 167.621,322.388C167.685,321.574 167.687,320.745 167.621,319.889C167.554,319.033 167.415,318.162 167.21,317.288C167.005,316.414 166.738,315.521 166.388,314.652C166.042,313.793 165.599,312.938 165.071,312.103C164.543,311.267 163.927,310.451 163.257,309.707C162.586,308.962 161.858,308.291 161.083,307.704C160.309,307.117 159.492,306.613 158.653,306.25C158.129,306.023 157.599,305.844 157.062,305.719C156.524,305.595 155.978,305.525 155.436,305.514L155.436,305.514Z" style="fill:white;fill-rule:nonzero;"/>
            <g id="path3021" transform="matrix(1,0,0,1,0,200)">
                <path d="M138.036,212.054C138.036,212.054 158.393,216.161 158.929,216.25C159.464,216.339 162.589,214.732 162.589,214.732L161.741,218.304C158.555,220.138 146.523,218.371 139.018,214.554C138.036,212.946 138.036,212.054 138.036,212.054Z" style="fill:rgb(255,224,127);fill-rule:nonzero;"/>
            </g>
            <g id="path3023" transform="matrix(1,0,0,1,0,200)">
                <path d="M146.696,204.598C146.696,204.598 151.116,199.821 158.884,204.732C154.196,203.884 151.741,203.795 146.696,204.598Z" style="fill:rgb(255,224,127);fill-rule:nonzero;"/>
            </g>
            <g id="path3025" transform="matrix(1,0,0,1,0,200)">
                <path d="M155.089,202.902C155.089,202.902 157.098,201.741 158.795,201.607C155.491,201.473 153.839,201.518 153.214,202.232C154.152,202.857 155.089,202.902 155.089,202.902Z" style="fill:rgb(255,224,127);fill-rule:nonzero;"/>
            </g>
            <g id="path3027" transform="matrix(1,0,0,1,0,200)">
                <path d="M136.518,202.589C136.518,202.589 151.071,186.161 168.036,195.357C160.893,195.089 154.107,191.964 136.518,202.589Z" style="fill:rgb(255,224,127);fill-rule:nonzero;"/>
            </g>
            <g id="path3029" transform="matrix(1,0,0,1,0,200)">
                <path d="M101.583,171.9C101.583,171.9 101.268,164.261 107.834,162.619C103.667,162.809 98.869,164.955 101.583,171.9Z" style="fill:rgb(255,224,127);fill-rule:nonzero;"/>
            </g>
            <g id="path3031" transform="matrix(1,0,0,1,0,200)">
                <path d="M182.711,168.301C182.711,168.301 186.184,171.521 184.669,175.878C186.563,173.226 188.33,170.511 182.711,168.301Z" style="fill:rgb(255,224,127);fill-rule:nonzero;"/>
            </g>
            <g id="path3033" transform="matrix(1,0,0,1,0,200)">
                <path d="M160.235,229.921C160.235,229.921 166.296,232.699 167.938,236.55C165.349,234.845 162.066,233.204 159.541,233.519C159.857,230.868 160.235,229.921 160.235,229.921Z" style="fill:rgb(255,224,127);fill-rule:nonzero;"/>
            </g>
            <g id="path3035" transform="matrix(1,0,0,1,0,200)">
                <path d="M145.273,236.613C145.273,236.613 141.8,238.823 142.558,243.431C141.295,240.338 141.358,236.36 144.515,232.825C145.146,233.961 145.273,236.613 145.273,236.613Z" style="fill:rgb(255,224,127);fill-rule:nonzero;"/>
            </g>
            <g id="path3037" transform="matrix(1,0,0,1,0,200)">
                <path d="M145.651,247.598C145.651,247.598 156.321,254.733 167.622,242.421C160.804,245.01 159.794,249.303 145.651,247.598Z" style="fill:rgb(255,224,127);fill-rule:nonzero;"/>
            </g>
            <g id="path3039" transform="matrix(1,0,0,1,0,200)">
                <path d="M160.93,224.302C160.93,224.302 165.728,225.249 169.516,229.416C164.655,229.731 163.14,231.436 163.14,231.436L159.794,230.11L160.93,224.302Z" style="fill:rgb(0,166,223);fill-rule:nonzero;"/>
            </g>
            <g id="path3041" transform="matrix(1,0,0,1,0,200)">
                <path d="M137.455,234.911C137.455,234.911 139.688,232.589 143.348,234.464C143.884,233.125 144.643,232.098 144.643,232.098L143.438,227.768C143.438,227.768 137.857,233.437 137.455,234.911Z" style="fill:rgb(0,166,223);fill-rule:nonzero;"/>
            </g>
            <g id="path3043" transform="matrix(1,0,0,1,0,200)">
                <path d="M98.237,136.734C98.237,136.734 91.545,131.557 91.356,136.166C89.272,133.641 89.588,132.125 90.535,131.746C91.482,131.368 94.891,128.969 98.237,136.734Z" style="fill:rgb(255,224,127);fill-rule:nonzero;"/>
            </g>
            <g id="path3045" transform="matrix(1,0,0,1,0,200)">
                <path d="M98.427,148.477C95.586,147.656 85.989,140.901 83.969,132.441C84.032,137.492 85.674,144.878 97.227,150.687C97.922,149.487 98.427,148.477 98.427,148.477Z" style="fill:rgb(255,224,127);fill-rule:nonzero;"/>
            </g>
            <g id="path3047" transform="matrix(1,0,0,1,0,200)">
                <path d="M197.098,139.464C197.098,139.464 204.196,135.714 197.946,132.098C195.714,134.196 193.08,141.295 193.08,141.295C192.785,140.768 196.245,134.656 198.158,135.052C199.856,135.403 199.343,136.289 197.098,139.464Z" style="fill:rgb(255,224,127);fill-rule:nonzero;"/>
            </g>
            <g id="path3049" transform="matrix(1,0,0,1,0,200)">
                <path d="M193.884,151.696C193.884,151.696 207.813,144.688 207.321,136.161C202.902,143.839 199.598,147.143 193.571,149.777C193.616,150.58 193.884,151.696 193.884,151.696Z" style="fill:rgb(255,224,127);fill-rule:nonzero;"/>
            </g>
            <g id="path3051" transform="matrix(1,0,0,1,0,200)">
                <path d="M129.11,127.58C129.11,127.58 133.024,134.524 142.305,129.347C138.959,133.325 132.456,137.302 129.11,127.58Z" style="fill:rgb(255,224,127);fill-rule:nonzero;"/>
            </g>
            <path id="path3053" d="M166.044,328.653C166.044,328.653 162.129,335.598 152.849,330.421C156.195,334.398 162.698,338.376 166.044,328.653Z" style="fill:rgb(255,224,127);fill-rule:nonzero;"/>
            <g id="path3055" transform="matrix(1,0,0,1,0,200)">
                <path d="M122.418,128.716C122.418,128.716 121.534,132.63 127.09,132.82C124.079,134.9 119.777,134.234 122.418,128.716Z" style="fill:rgb(255,224,127);fill-rule:nonzero;"/>
            </g>
            <g id="path3057" transform="matrix(1,0,0,1,0,200)">
                <path d="M168.254,133.041C168.254,133.041 172.168,132.757 173.399,128.842C173.904,130.263 174.251,134.651 168.254,133.041Z" style="fill:rgb(255,224,127);fill-rule:nonzero;"/>
            </g>
            <path id="path3059" d="M168.712,335.979C168.712,335.979 171.425,338.082 174.746,335.671C174.305,337.113 171.592,340.718 168.712,335.979Z" style="fill:rgb(255,224,127);fill-rule:nonzero;"/>
            <g id="path3065" transform="matrix(1,0,0,1,0,200)">
                <path d="M143.694,165.334C143.694,165.334 146.851,168.996 146.472,170.322C147.735,168.806 147.419,166.597 146.725,165.208C144.957,165.208 143.694,165.334 143.694,165.334Z" style="fill:rgb(255,224,127);fill-rule:nonzero;"/>
            </g>
            <g id="path3067" transform="matrix(1,0,0,1,0,200)">
                <path d="M110.991,94.434C110.991,94.434 122.228,93.929 138.265,82.186C145.781,78.145 162.828,79.214 167.525,81.561C171.411,83.503 186.509,85.46 192.434,84.08C193.823,82.312 193.57,81.933 193.57,81.933C193.57,81.933 179.176,82.438 168.948,79.282C163.771,77.766 150.892,74.105 137.633,80.166C126.9,87.615 113.768,92.666 110.485,93.298C110.927,94.181 110.991,94.434 110.991,94.434Z" style="fill:rgb(255,224,127);fill-rule:nonzero;"/>
            </g>
            <g id="path3069" transform="matrix(1,0,0,1,0,200)">
                <path d="M151.295,93.795C151.295,93.795 161.563,98.839 162.902,103.348C159.198,99.39 153.473,95.379 151.295,93.795Z" style="fill:rgb(255,224,127);fill-rule:nonzero;"/>
            </g>
            <path id="path3071" d="M141.92,297.098C139.018,297.098 128.438,304.732 127.098,309.241C130.936,304.613 139.473,298.548 141.92,297.098Z" style="fill:rgb(255,224,127);fill-rule:nonzero;"/>
            <g id="path4089" transform="matrix(1,0,0,1,0,200)">
                <path d="M154.156,117.684C153.819,117.684 153.479,117.749 153.188,117.872C152.896,117.994 152.657,118.183 152.438,118.403C152.218,118.622 151.776,119.241 151.654,119.532C151.531,119.823 151.466,120.163 151.466,120.5C151.466,120.837 151.531,121.147 151.654,121.438C151.776,121.729 152.218,121.968 152.438,122.188C152.657,122.407 153.023,122.786 153.314,122.908C153.605,123.031 153.945,123.096 154.283,123.096C154.62,123.096 154.929,123.031 155.22,122.908C155.511,122.786 155.656,122.407 155.875,122.188C156.094,121.968 156.473,121.697 156.596,121.406C156.718,121.115 156.783,120.806 156.783,120.469C156.783,120.132 156.718,119.791 156.596,119.5C156.473,119.209 156.094,118.622 155.875,118.403C155.656,118.183 155.385,117.994 155.094,117.872C154.803,117.749 154.493,117.684 154.156,117.684ZM142.53,118.028C142.193,118.028 141.853,118.093 141.562,118.216C141.271,118.338 140.874,118.749 140.654,118.968C140.435,119.188 140.277,119.427 140.154,119.718C140.032,120.009 139.967,120.318 139.967,120.656C139.967,120.993 140.032,121.333 140.154,121.624C140.277,121.915 140.435,122.186 140.654,122.406C140.874,122.625 141.397,123.099 141.688,123.221C141.979,123.344 142.319,123.409 142.657,123.409C142.994,123.409 143.303,123.344 143.594,123.221C143.885,123.099 144.377,122.688 144.596,122.469C144.816,122.249 145.005,121.979 145.128,121.688C145.25,121.396 145.315,121.056 145.315,120.719C145.315,120.382 145.25,120.072 145.128,119.781C145.005,119.49 144.816,119.251 144.596,119.031C144.377,118.812 143.759,118.338 143.468,118.216C143.177,118.093 142.867,118.028 142.53,118.028Z" style="fill:rgb(168,103,36);fill-rule:nonzero;"/>
            </g>
            <g id="path3073" transform="matrix(1,0,0,1,0,200)">
                <path d="M140.19,119.404C140.19,119.404 141.863,123.034 145.241,122.118C143.82,123.35 142.4,124.802 139.875,122.118C139.306,120.729 140.19,119.404 140.19,119.404Z" style="fill:rgb(119,84,37);fill-rule:nonzero;"/>
            </g>
            <path id="path3075" d="M151.839,319.088C151.839,319.088 153.512,322.718 156.889,321.803C155.469,323.034 154.048,324.486 151.523,321.803C150.955,320.414 151.839,319.088 151.839,319.088Z" style="fill:rgb(119,84,37);fill-rule:nonzero;"/>
            <g id="path4061" transform="matrix(1,0,0,1,0,200)">
                <path d="M226.219,31.531C221.614,32.275 218.072,32.885 214.844,33.438C211.616,33.99 208.716,34.464 205.469,34.875C202.222,35.286 198.63,35.651 193.969,35.969C189.308,36.287 183.564,36.57 176.094,36.844C172.339,36.982 168.424,37.222 164.469,37.594C160.514,37.965 156.516,38.466 152.531,39.094C148.547,39.722 144.593,40.468 140.75,41.375C138.829,41.829 136.917,42.347 135.063,42.875C133.208,43.403 131.422,43.958 129.656,44.563C127.89,45.168 126.153,45.816 124.5,46.5C122.847,47.184 121.27,47.89 119.75,48.656C118.23,49.422 116.774,50.244 115.406,51.094C114.038,51.944 112.758,52.845 111.563,53.781C110.367,54.717 109.254,55.694 108.25,56.719C107.246,57.743 106.354,58.823 105.563,59.938C104.771,61.052 104.06,62.198 103.5,63.406C102.94,64.614 102.528,65.853 102.219,67.156C101.919,66.827 101.721,66.628 101.594,66.344C101.466,66.059 101.403,65.698 101.375,65.094C100.924,65 100.372,64.831 99.813,64.5C99.362,64.234 98.909,63.854 98.5,63.344C98.091,62.834 97.729,62.18 97.438,61.406C97.107,62.742 96.906,64.083 96.906,65.313C96.906,66.285 96.996,67.179 97.125,67.875C97.224,68.393 97.195,68.784 97.094,69.125C96.992,69.466 96.8,69.758 96.594,70.188C95.846,69.681 95.035,69.362 94.188,69.156C93.34,68.951 92.463,68.864 91.594,68.875C90.725,68.886 89.875,68.982 89.063,69.125C88.25,69.268 87.46,69.466 86.781,69.656C87.607,69.917 89.151,70.386 90.531,71.031C91.221,71.354 91.873,71.717 92.375,72.125C92.626,72.329 92.837,72.526 93,72.75C93.163,72.974 93.296,73.225 93.344,73.469C93.09,73.393 92.734,73.383 92.313,73.438C91.891,73.492 91.386,73.597 90.844,73.813C90.301,74.028 89.714,74.338 89.094,74.719C88.473,75.099 87.812,75.556 87.156,76.094C86.501,76.631 85.847,77.249 85.188,77.938C84.528,78.626 83.884,79.415 83.25,80.25C82.616,81.085 81.983,81.962 81.406,82.938C80.829,83.913 80.302,84.951 79.813,86.063C79.333,87.152 78.9,88.317 78.531,89.531C78.163,90.746 77.853,92.04 77.625,93.375C77.397,94.71 77.247,96.08 77.188,97.531C77.128,98.983 77.144,100.499 77.281,102.063C77.418,103.626 77.669,105.235 78.031,106.906C78.394,108.578 78.883,110.319 79.5,112.094C80.117,113.869 80.851,115.688 81.75,117.563C82.649,119.437 83.727,121.374 84.938,123.344C85.225,122.915 85.532,122.532 85.875,122.219C86.218,121.906 86.582,121.64 86.969,121.438C87.355,121.235 87.771,121.099 88.188,121C88.604,120.901 89.034,120.844 89.469,120.844C89.985,120.844 90.506,120.927 91.031,121.031C91.557,121.135 92.068,121.281 92.594,121.469C93.646,121.844 94.713,122.352 95.719,122.938C97.358,123.892 98.876,125.015 100.125,126.031C99.804,125.495 99.486,125.009 99.156,124.438C98.826,123.863 98.359,122.831 98.094,121.75C97.961,121.21 97.904,120.645 97.906,120.125C97.908,119.605 98.002,119.119 98.219,118.719C98.219,119.145 98.448,119.949 98.844,120.844C99.239,121.739 99.771,122.758 100.344,123.75C101.489,125.734 102.698,127.537 103.125,128.563C103.369,129.149 103.438,129.836 103.5,130.719C103.562,131.601 103.619,132.661 103.688,133.781C103.747,134.749 103.834,135.761 104,136.781C104.166,137.802 104.415,138.807 104.719,139.781C105.164,139.428 105.539,139.075 105.875,138.688C106.211,138.3 106.489,137.887 106.719,137.438C106.949,136.988 107.122,136.508 107.25,135.969C107.378,135.43 107.471,134.845 107.5,134.188C107.53,133.503 107.391,132.253 107.188,130.75C106.984,129.247 106.726,127.476 106.5,125.719C106.274,123.962 106.094,122.209 106.063,120.656C106.047,119.88 106.049,119.148 106.125,118.5C106.202,117.852 106.355,117.281 106.594,116.781L106.625,116.719L106.656,116.687C107.705,115.131 108.532,113.584 109.188,112.094C109.843,110.603 110.319,109.169 110.656,107.781C110.993,106.394 111.188,105.061 111.281,103.812C111.375,102.564 111.356,101.384 111.281,100.312C111.206,99.241 111.075,98.265 110.906,97.406C110.738,96.547 110.531,95.797 110.344,95.187C109.969,93.969 109.625,93.281 109.625,93.281C109.579,93.131 109.463,92.921 109.344,92.687C109.48,92.546 109.904,92.438 110.281,92.375C110.281,92.375 110.661,92.395 111.75,92.187C112.294,92.084 113.021,91.914 113.906,91.656C114.791,91.398 115.839,91.051 117.094,90.562C118.349,90.074 119.81,89.475 121.469,88.687C123.128,87.9 124.997,86.905 127.094,85.75C129.191,84.595 131.526,83.279 134.094,81.687C136.662,80.096 139.459,78.253 142.531,76.156C145.618,74.05 148.447,72.204 151.031,70.562C153.616,68.921 155.946,67.483 158.063,66.25C160.179,65.016 162.067,63.978 163.75,63.094C165.433,62.21 166.905,61.467 168.188,60.875C168.799,60.594 170.068,60.142 171.469,59.812C172.169,59.648 172.904,59.516 173.625,59.469C174.346,59.422 175.033,59.436 175.656,59.594C175.656,59.594 175.26,59.656 174.156,60C173.053,60.344 171.301,60.962 168.781,62.125C167.522,62.706 166.071,63.439 164.406,64.312C162.742,65.186 160.852,66.214 158.75,67.437C156.648,68.661 154.322,70.056 151.75,71.687C149.178,73.319 146.387,75.183 143.313,77.281C143.004,77.492 142.71,77.701 142.406,77.906C144.076,77.482 146.215,77.045 148.969,76.625C151.723,76.205 155.071,75.794 159.156,75.469L159.281,75.437C161.594,75.255 163.839,75.043 166,74.781C168.162,74.519 170.248,74.219 172.219,73.906C176.162,73.281 179.68,72.588 182.625,71.937C185.57,71.286 187.932,70.693 189.563,70.25C191.193,69.807 192.094,69.5 192.094,69.5C192.022,69.714 191.858,69.944 191.594,70.156C191.33,70.368 190.964,70.573 190.531,70.781C189.666,71.198 188.484,71.603 187.094,72C185.703,72.397 184.094,72.789 182.375,73.156C180.656,73.523 178.82,73.86 176.969,74.187C169.564,75.496 161.892,76.439 160.25,76.719C161.718,76.884 163.243,77.113 164.719,77.406C166.195,77.699 167.639,78.07 168.875,78.531C169.551,78.783 170.457,79.052 171.594,79.312C172.731,79.573 174.085,79.821 175.563,80.062C178.517,80.546 182.04,80.97 185.625,81.219C187.418,81.343 189.217,81.408 191,81.437C192.783,81.467 194.534,81.457 196.188,81.375C197.841,81.293 199.409,81.15 200.813,80.937C202.216,80.725 203.467,80.453 204.5,80.094C204.396,80.327 204.203,80.543 203.938,80.75C203.672,80.957 203.327,81.165 202.938,81.344C202.159,81.701 201.174,81.984 200.125,82.219C199.076,82.453 197.956,82.618 196.938,82.719C195.919,82.819 195,82.858 194.313,82.812C193.431,83.706 192.632,84.637 191.906,85.594C191.181,86.551 190.55,87.524 189.969,88.531C189.388,89.538 188.856,90.583 188.406,91.625C187.956,92.667 187.55,93.718 187.219,94.781C186.888,95.844 186.631,96.899 186.406,97.969C186.182,99.038 186.006,100.126 185.875,101.187C185.614,103.311 185.524,105.4 185.563,107.406C185.602,109.433 185.788,111.376 186.031,113.156C186.275,114.936 186.598,116.557 186.938,117.969C187.278,119.381 187.61,120.557 187.938,121.469C188.265,122.38 188.608,123.046 188.75,123.25L188.938,123.531L188.813,123.875C188.507,124.716 188.237,125.83 188,127.062C187.763,128.295 187.57,129.624 187.438,130.937C187.305,132.251 187.224,133.578 187.219,134.687C187.214,135.797 187.288,136.686 187.406,137.25C187.528,137.828 187.733,138.253 187.938,138.531C188.143,138.809 188.349,138.948 188.469,138.969C188.588,138.99 188.656,138.999 188.844,138.812C189.031,138.626 189.3,138.209 189.469,137.562C190.2,134.77 193.063,120.875 193.063,120.875C193.283,121.229 193.461,121.749 193.594,122.344C193.727,122.939 193.8,123.584 193.75,124.187C194.285,123.664 194.919,123.113 195.625,122.562C196.331,122.012 197.122,121.486 197.938,121.062C198.556,120.741 199.207,120.481 199.875,120.312C200.544,120.144 201.228,120.053 201.906,120.125C202.359,120.173 202.807,120.312 203.25,120.5C203.602,120.649 203.924,120.849 204.25,121.094C204.576,121.338 204.89,121.624 205.188,121.969C205.782,122.658 206.321,123.535 206.781,124.656C207.56,121.179 210.548,107.936 211.656,103.625C211.84,104.332 211.849,105.36 211.75,106.562C211.651,107.765 211.427,109.144 211.188,110.5C210.709,113.211 210.103,115.879 209.906,117.156C210.596,116.027 211.448,114.684 212.469,113.187C213.49,111.691 214.696,110.041 216.031,108.344C217.19,106.871 218.441,105.369 219.813,103.875C221.184,102.381 222.652,100.9 224.219,99.5C225.785,98.1 227.444,96.753 229.188,95.562C230.059,94.967 230.962,94.428 231.875,93.906C232.788,93.385 233.705,92.902 234.656,92.469C233.462,92.255 232.635,92.072 230.5,91.75C228.848,91.5 227.162,91.277 225.813,91.156C225.315,91.149 224.683,91.1 224.094,90.937C223.799,90.856 223.505,90.743 223.25,90.594C222.995,90.445 222.768,90.268 222.594,90.031C223.635,88.956 224.795,87.558 225.938,86.031C227.08,84.504 228.204,82.834 229.25,81.187C230.64,79.001 231.727,77.035 232.563,75.344C231.737,75.961 229.53,77.469 227.25,78.844C226.11,79.531 224.956,80.202 223.938,80.687C222.919,81.173 222.042,81.478 221.469,81.5C222.745,80.649 225.811,78.599 228.813,76.469C229.126,76.16 230,75.046 231.063,73.406C231.594,72.586 232.163,71.64 232.75,70.594C233.337,69.547 233.913,68.39 234.469,67.187C235.025,65.985 235.563,64.724 236,63.437C236.437,62.15 236.8,60.864 237.031,59.562C237.263,58.261 237.375,56.932 237.313,55.687C237.282,55.065 237.215,54.47 237.094,53.875C236.973,53.28 236.784,52.683 236.563,52.125C233.985,53.95 231.647,55.56 229.531,56.906C227.415,58.253 225.516,59.338 223.875,60.187C223.655,60.3 222.135,61.019 220.469,61.469C219.636,61.694 218.779,61.851 218.031,61.844C217.657,61.84 217.297,61.82 217,61.719C216.703,61.617 216.464,61.444 216.281,61.219C216.862,61.298 217.711,61.201 218.813,60.875C219.914,60.549 221.26,59.984 222.844,59.187L222.813,59.156C222.813,59.156 223.528,58.114 224.469,56.344C224.939,55.458 225.446,54.381 225.969,53.187C226.492,51.994 227.015,50.663 227.469,49.25C227.914,47.866 228.303,46.404 228.563,44.906C228.822,43.409 228.97,41.874 228.938,40.344C228.921,39.578 228.859,38.821 228.75,38.062C228.641,37.304 228.466,36.555 228.25,35.812C228.034,35.07 227.774,34.34 227.438,33.625C227.101,32.909 226.689,32.21 226.219,31.531L226.219,31.531ZM155.406,90.406C154.057,92.026 153.317,93.006 153.031,93.375C153.795,93.695 155.092,94.318 156.625,95.344C157.391,95.857 158.189,96.459 159.031,97.188C159.873,97.916 160.754,98.748 161.594,99.719C161.173,98.608 160.709,97.586 160.219,96.625C159.728,95.664 159.19,94.79 158.656,94C158.123,93.21 157.579,92.507 157.031,91.906C156.483,91.306 155.942,90.797 155.406,90.406ZM135.563,94.719C135.366,94.892 134.815,95.386 134.094,96.125C133.373,96.864 132.472,97.844 131.531,99.063C130.697,100.143 129.913,101.34 129.281,102.594C128.965,103.221 128.659,103.889 128.438,104.531C128.215,105.174 128.068,105.798 127.969,106.438C128.849,105.381 130.065,103.999 131.531,102.5C132.715,101.29 133.978,100.045 135.313,99C135.98,98.478 136.695,98.006 137.375,97.594C138.055,97.181 138.731,96.851 139.406,96.594C138.344,95.929 137.465,95.476 136.813,95.188C136.16,94.899 135.74,94.767 135.563,94.719Z" style="fill:rgb(168,103,36);fill-rule:nonzero;"/>
            </g>
            <g id="path3081" transform="matrix(1,0,0,1,0,200)">
                <path d="M151.83,93.437C151.83,93.437 159.777,96.83 162.054,100.58C162.009,99.152 157.857,94.286 152.634,92.634C152.232,93.08 151.83,93.437 151.83,93.437Z" style="fill:rgb(119,84,37);fill-rule:nonzero;"/>
            </g>
            <g id="path3083" transform="matrix(1,0,0,1,0,200)">
                <path d="M127.232,107.902C127.232,107.902 136.563,97.054 141.027,96.652C139.241,95.937 138.884,95.893 138.884,95.893C138.884,95.893 131.563,98.884 127.232,107.902Z" style="fill:rgb(119,84,37);fill-rule:nonzero;"/>
            </g>
            <g id="path3085" transform="matrix(1,0,0,1,0,200)">
                <path d="M84.853,124.486C84.853,124.486 61.998,88.626 91.924,72.589C91.04,71.706 85.042,69.559 84.537,69.622C87.441,68.738 91.861,67.223 96.47,69.37C96.217,67.349 96.28,60.91 97.543,59.205C98.111,61.667 98.616,64.129 102.152,64.698C105.182,57.942 117.304,40.138 167.938,36.603C218.572,33.067 220.466,33.193 226.148,30.668C228.8,33.193 233.977,40.896 223.623,59.331C230.315,55.796 237.054,51.161 237.054,51.161C237.054,51.161 241.429,57.946 230.536,75.625C233.482,74.554 234.286,73.393 234.286,73.393C234.286,73.393 227.5,86.161 223.661,90C229.732,91.161 236.429,92.232 236.429,92.232C236.429,92.232 219.643,100.446 208.304,120.357C213.75,108.75 220.357,97.857 230.625,93.125C226.607,92.232 222.946,94.018 219.821,89.643C223.482,86.786 227.589,83.125 228.839,79.732C224.911,82.589 219.196,82.589 218.75,82.679C219.375,81.161 236.875,69.107 235.714,55.089C227.857,61.607 222.411,66.518 212.143,61.339C217.679,59.018 230.625,51.339 225.446,33.571C180.361,43.624 114.066,35.149 104.286,69.464C100.536,68.393 99.107,66.429 99.107,66.429C99.107,66.429 98.036,71.429 99.464,72.679C97.321,70.536 93.75,70.893 93.75,70.893C93.75,70.893 95.714,73.75 96.071,74.821C91.786,75.714 70.536,85.893 86.607,122.321C85.714,123.571 84.853,124.486 84.853,124.486Z" style="fill:rgb(188,116,35);fill-rule:nonzero;"/>
            </g>
            <g id="path3087" transform="matrix(1,0,0,1,0,200)">
                <path d="M158.468,77.261C158.468,77.261 166.423,78.019 170.337,79.913C174.251,81.807 194.833,83.701 203.419,80.797C176.236,81.712 163.615,74.716 159.857,75.746C158.72,77.261 158.468,77.261 158.468,77.261Z" style="fill:rgb(119,84,37);fill-rule:nonzero;"/>
            </g>
            <g id="path3089" transform="matrix(1,0,0,1,0,200)">
                <path d="M140.537,78.524C140.537,78.524 156.826,76.63 160.109,76.125C163.392,75.62 187.383,72.211 190.54,70.317C185.489,70.948 149.755,75.367 143.694,75.999C140.79,78.272 140.537,78.524 140.537,78.524Z" style="fill:rgb(119,84,37);fill-rule:nonzero;"/>
            </g>
            <g id="path3091" transform="matrix(1,0,0,1,0,200)">
                <path d="M193.57,82.06C193.57,82.06 179.05,94.56 188.141,123.728C187.131,128.527 184.605,138.754 188.772,139.638C188.267,134.714 187.636,127.516 190.161,123.602C187.888,117.036 181.954,99.106 193.57,82.06Z" style="fill:rgb(119,84,37);fill-rule:nonzero;"/>
            </g>
            <g id="path3093" transform="matrix(1,0,0,1,0,200)">
                <path d="M109.854,92.792C109.854,92.792 115.852,102.263 107.392,116.72C106.761,120.509 106.319,121.582 107.076,124.36C107.834,127.138 110.359,137.239 104.361,141.027C105.624,135.598 105.813,129.158 104.551,117.794C104.93,113.501 106.824,113.248 107.455,111.733C108.086,110.218 112.379,97.212 106.192,91.656C112.632,90.898 133.845,83.449 141.548,77.388C131.446,84.459 116.041,93.424 109.854,92.792Z" style="fill:rgb(119,84,37);fill-rule:nonzero;"/>
            </g>
            <path id="path2999" d="M226.863,230.033L226.452,230.102C207.482,233.148 206.184,234.37 176.053,235.475C160.928,236.03 143.523,238.353 129.197,243.262C116.214,247.71 105.68,254.301 101.85,263.798C101.506,263.748 101.021,263.628 100.498,263.319C99.536,262.75 98.466,261.594 98.205,258.784L97.982,256.268L96.904,258.561C95.877,260.761 95.535,263.22 95.535,265.321C95.535,266.371 95.61,267.333 95.757,268.128C95.768,268.186 95.798,268.208 95.809,268.264C91.379,266.422 86.131,268.376 84.308,268.983L82.101,269.719L84.36,270.301C86.972,270.973 89.181,271.767 90.829,272.423C90.66,272.48 90.506,272.491 90.332,272.56C89.077,273.06 87.694,273.894 86.294,275.041C83.494,277.337 80.606,280.882 78.558,285.532C74.488,294.775 73.846,308.373 84.172,324.756C82.172,329.514 82.836,335.498 85.284,340.603C87.537,345.3 91.329,349.298 96.134,350.802C92.153,358.389 84.772,369.148 76.984,378.543L76.522,379.005L76.967,379.484C76.967,379.484 97.492,401.732 137.445,412.547C137.925,413.557 140.77,419.744 142.751,427.265C142.125,427.799 140.056,429.674 137.548,433.289C134.564,437.589 131.036,444.265 128.803,453.825C131.141,449.963 135.741,438.355 138.678,434.059C140.602,431.285 142.249,429.594 143.144,428.754C143.388,429.767 143.601,430.799 143.795,431.834C143.636,432.068 141.067,435.912 141.022,440.254C140.999,442.492 141.712,444.894 143.812,446.791C145.912,448.688 149.316,450.08 154.644,450.59C158.826,449.729 165.008,446.619 168.01,443.06C169.979,440.531 169.772,437.909 168.575,435.839C167.377,433.768 165.317,432.133 163.56,430.978C162.086,430.009 161.007,429.493 160.634,429.318C160.819,427.878 161.037,426.466 161.25,425.074C162.316,425.424 164.999,426.503 168.763,429.421C173.931,433.04 184.531,448.245 188.152,451.857C181.406,439.337 174.679,432.279 169.601,428.343C165.387,425.076 162.396,424.009 161.456,423.722C162.161,419.283 162.785,416.076 162.944,415.268C170.974,412.196 182.131,406.595 192.14,401.081C198.097,397.8 203.633,394.553 207.816,391.908C209.907,390.586 211.658,389.412 212.967,388.452C214.276,387.491 215.116,386.855 215.534,386.158L215.79,385.713L215.448,385.337C213.015,382.626 204.118,372.927 198.472,361.789C196.89,358.668 195.582,355.432 194.724,352.223C198.224,350.931 202.174,348.003 204.923,343.786C207.736,339.472 209.25,333.782 207.61,327.237C207.621,327.187 208.41,323.713 209.014,321.042C212.07,316.663 214.345,312.729 217.091,309.2C222.081,302.855 229.142,295.789 237.302,292.822L239.664,291.966L237.199,291.504C237.199,291.504 234.047,290.913 230.713,290.409C229.046,290.157 227.321,289.936 225.922,289.81C225.431,289.766 225.041,289.756 224.638,289.742C226.571,287.535 228.619,284.759 230.422,281.921C232.548,278.576 234.289,275.38 234.957,273.45L235.728,271.191L233.879,272.697C233.305,273.161 232.623,273.687 231.911,274.22C235.072,269.811 240.031,260.916 237.73,250.809L237.507,249.799L236.669,250.398C232.053,253.704 228.223,256.199 225.117,257.962C226.145,256.135 227.651,253.174 228.779,249.662C230.663,243.802 231.506,236.351 227.102,230.358L226.863,230.033L226.863,230.033ZM226.23,231.522C229.989,236.953 229.258,243.714 227.479,249.252C225.662,254.904 222.807,259.16 222.807,259.16L222.841,259.194C219.674,260.787 217.432,261.372 216.27,261.214C217.732,263.017 223.445,260.43 223.885,260.204C227.166,258.506 231.412,255.795 236.566,252.144C240.109,261.079 230.068,275.228 228.814,276.462C225.812,278.593 222.749,280.659 221.472,281.51C223.764,281.421 230.911,276.584 232.562,275.349C231.726,277.041 230.648,279.015 229.259,281.202C227.166,284.495 224.684,287.883 222.602,290.033C223.298,290.981 224.808,291.148 225.802,291.162C227.151,291.283 228.856,291.512 230.508,291.761C232.643,292.084 233.472,292.249 234.666,292.463C227.056,295.929 220.647,302.452 216.013,308.344C213.343,311.739 211.282,314.899 209.903,317.157C210.297,314.603 212.382,306.45 211.649,303.621C210.54,307.932 207.568,321.193 206.789,324.67C205.867,322.428 204.655,321.091 203.246,320.494C202.804,320.307 202.347,320.183 201.894,320.135C200.538,319.992 199.16,320.417 197.924,321.059C196.293,321.907 194.818,323.162 193.748,324.208C193.848,323.001 193.487,321.578 193.047,320.871C193.047,320.871 190.184,334.781 189.453,337.574C189.284,338.22 189.042,338.619 188.854,338.806C188.666,338.993 188.58,338.998 188.46,338.977C188.222,338.935 187.643,338.421 187.399,337.266C187.162,336.138 187.168,333.578 187.434,330.951C187.699,328.324 188.208,325.547 188.82,323.866L188.94,323.541L188.751,323.25C188.61,323.045 188.275,322.398 187.947,321.487C187.619,320.576 187.26,319.374 186.92,317.962C186.24,315.138 185.646,311.457 185.568,307.403C185.414,299.377 187.261,289.956 194.313,282.811C197.064,282.994 203.663,281.958 204.496,280.09C200.364,281.529 192.789,281.718 185.62,281.219C178.45,280.721 171.568,279.54 168.866,278.533C166.394,277.611 163.193,277.065 160.258,276.736C163.54,276.176 190.945,272.933 192.088,269.514C192.088,269.514 177.78,273.992 159.282,275.452L159.162,275.469C150.992,276.12 145.73,277.05 142.391,277.899C142.695,277.694 142.989,277.494 143.298,277.283C155.596,268.889 163.741,264.464 168.78,262.138C171.3,260.975 173.033,260.343 174.136,259.999C175.24,259.655 175.66,259.605 175.66,259.605C173.167,258.973 169.422,260.327 168.198,260.889C163.067,263.257 154.873,267.728 142.528,276.154C130.238,284.543 122.117,288.608 117.098,290.563C114.588,291.541 112.847,291.981 111.758,292.189C110.669,292.397 110.287,292.377 110.287,292.377C109.909,292.44 109.475,292.558 109.339,292.699C109.459,292.932 109.59,293.151 109.636,293.301C109.636,293.301 115.034,304.224 106.641,316.678L106.607,316.729L106.59,316.781C106.112,317.781 106.028,319.096 106.06,320.648C106.091,322.201 106.261,323.974 106.487,325.731C106.94,329.245 107.557,332.816 107.497,334.185C107.383,336.814 106.49,338.387 104.708,339.798C104.101,337.85 103.799,335.71 103.681,333.774C103.612,332.654 103.572,331.611 103.51,330.728C103.448,329.846 103.377,329.141 103.133,328.555C102.706,327.529 101.489,325.73 100.344,323.746C99.771,322.754 99.233,321.749 98.838,320.854C98.442,319.959 98.205,319.158 98.205,318.732C97.339,320.334 98.502,323.282 99.163,324.43C99.493,325.002 99.8,325.503 100.121,326.039C98.872,325.023 97.345,323.897 95.706,322.942C93.695,321.77 91.526,320.853 89.46,320.854C87.719,320.855 86.074,321.62 84.925,323.335C75.24,307.577 75.97,294.796 79.808,286.079C81.766,281.632 84.544,278.252 87.166,276.102C88.477,275.028 89.761,274.258 90.846,273.826C91.931,273.394 92.819,273.315 93.327,273.467C92.943,271.517 88.441,270.172 86.79,269.651C89.503,268.89 93.605,268.172 96.596,270.198C97.009,269.34 97.307,268.924 97.109,267.888C96.98,267.191 96.904,266.293 96.904,265.321C96.904,264.091 97.104,262.755 97.434,261.419C98.017,262.966 98.912,263.967 99.813,264.499C100.373,264.83 100.92,265.005 101.371,265.098C101.427,266.307 101.609,266.511 102.209,267.169C104.681,256.746 115.513,249.404 129.642,244.562C143.765,239.723 161.068,237.397 176.087,236.844L176.105,236.844C205.984,235.748 207.812,234.498 226.23,231.522L226.23,231.522ZM152.385,277.523L152.385,277.608C152.385,277.608 162.864,277.757 168.386,279.816C171.454,280.96 178.28,282.067 185.534,282.571C187.839,282.731 190.167,282.82 192.431,282.828C185.802,290.179 184.047,299.518 184.199,307.42C184.28,311.591 184.901,315.375 185.602,318.287C185.953,319.743 186.315,320.982 186.664,321.949C186.954,322.758 187.213,323.244 187.468,323.678C186.82,325.567 186.344,328.221 186.082,330.814C185.808,333.515 185.749,336.039 186.065,337.539C186.374,339.011 187.094,340.112 188.221,340.312C188.784,340.412 189.397,340.195 189.83,339.764C190.262,339.333 190.56,338.722 190.771,337.916C191.253,336.073 192.326,331.066 193.218,326.792C193.635,326.297 195.919,323.645 198.557,322.274C200.01,321.52 201.461,321.213 202.716,321.744C203.97,322.275 205.219,323.719 206.121,326.929C207.935,333.378 206.504,338.85 203.777,343.033C201.233,346.934 197.525,349.685 194.382,350.888C193.913,348.821 193.647,346.777 193.646,344.778C193.643,340.468 194.825,336.406 197.787,332.816C198.323,333.19 199.384,333.997 199.807,334.853C200.094,335.434 200.158,335.907 199.687,336.564C198.782,338.086 197.312,338.922 196.213,340.124C198.635,339.304 200.052,338.41 200.799,337.368C201.547,336.327 201.478,335.125 201.039,334.237C200.459,333.063 199.38,332.218 198.711,331.772C199.337,330.706 199.924,329.962 199.841,328.846C194.404,333.323 192.272,338.947 192.277,344.795C192.281,350.644 194.375,356.72 197.257,362.405C202.8,373.34 211.207,382.67 213.994,385.765C213.717,386.068 213.222,386.579 212.162,387.356C210.896,388.286 209.154,389.45 207.08,390.762C202.93,393.385 197.409,396.613 191.472,399.883C179.666,406.387 166.18,413.041 158.478,415.388C107.486,408.493 80.582,381.27 78.404,378.988C82.642,373.33 96.829,354.038 98.016,350.169C99.961,346.391 101.063,343.906 101.063,343.906C99.464,345.345 97.456,348.242 96.784,349.553C92.321,348.243 88.678,344.512 86.516,340.004C84.151,335.071 83.597,329.275 85.558,324.961C86.51,322.866 87.814,322.224 89.46,322.223C91.106,322.222 93.119,323.014 95.021,324.123C98.514,326.157 101.5,329.049 101.987,329.53C102.05,329.858 102.103,330.3 102.141,330.831C102.2,331.673 102.242,332.716 102.312,333.86C102.452,336.148 102.717,338.849 103.664,341.253L103.972,342.04L104.691,341.561C107.297,339.824 108.721,337.601 108.866,334.254C108.945,332.442 108.303,329.03 107.857,325.56C107.633,323.825 107.458,322.095 107.429,320.631C107.399,319.167 107.54,317.953 107.822,317.363C115.045,306.569 112.347,296.674 111.245,293.661C111.466,293.633 111.725,293.596 112.015,293.541C113.2,293.315 115.019,292.833 117.594,291.83C121.924,290.143 128.424,286.957 137.719,280.98L137.788,281.065C137.788,281.065 137.904,280.949 138.472,280.672C139.041,280.395 140.012,279.992 141.57,279.542C143.793,278.901 147.249,278.159 152.386,277.523L152.385,277.523ZM155.192,288.544L154.816,288.989C152.655,291.542 151.376,293.233 151.376,293.233L150.794,293.986L151.684,294.294C151.684,294.294 158.859,296.722 162.944,303.946C164.218,298.313 157.646,290.073 155.688,288.852L155.192,288.544ZM155.415,290.409C157.556,291.972 159.911,295.292 161.592,299.736C158.234,295.853 154.546,294.01 153.019,293.37C153.305,293.001 154.065,292.029 155.415,290.409ZM135.204,293.182L134.947,293.421C134.947,293.421 132.645,295.381 130.446,298.23C128.247,301.079 126.065,304.838 126.493,308.584L126.681,310.261L127.708,308.926C127.708,308.926 129.77,306.239 132.5,303.45C135.229,300.66 138.717,297.821 141.074,297.443L142.699,297.186L141.364,296.211C138.144,293.896 135.546,293.267 135.546,293.267L135.204,293.182ZM135.546,294.722C135.901,294.818 137.272,295.258 139.396,296.587C136.696,297.615 133.892,300.071 131.524,302.491C130.058,303.99 128.845,305.388 127.965,306.444C128.361,303.887 129.856,301.229 131.524,299.069C133.406,296.631 135.153,295.069 135.546,294.722ZM155.449,304.168C154.181,304.158 152.891,304.426 151.632,305.041C150.3,305.693 148.992,306.721 147.782,308.207C146.782,306.795 145.462,305.666 143.846,304.973C140.959,303.734 137.729,304.127 134.878,305.709C132.028,307.29 129.528,310.046 128.016,313.615C126.504,317.183 126.252,320.905 127.092,324.071C127.931,327.237 129.887,329.883 132.774,331.122C135.66,332.361 138.89,331.951 141.741,330.369C144.006,329.112 146.057,327.109 147.559,324.55C149.089,327.742 151.345,330.235 153.891,331.721C156.738,333.382 159.978,333.792 162.859,332.491C165.74,331.19 167.702,328.424 168.54,325.098C169.379,321.772 169.109,317.861 167.599,314.111C166.074,310.325 162.925,306.608 159.145,304.973C157.964,304.462 156.716,304.179 155.449,304.168ZM155.432,305.52C156.515,305.543 157.601,305.803 158.649,306.256C162.004,307.707 164.999,311.219 166.384,314.659C167.784,318.135 167.994,321.749 167.24,324.739C166.486,327.728 164.787,330.08 162.328,331.19C159.87,332.3 157.084,331.965 154.525,330.472C152.009,329.004 149.77,326.399 148.364,323.01C148.448,322.828 148.524,322.65 148.603,322.463C150.115,318.894 150.367,315.155 149.528,311.989C149.29,311.094 148.964,310.245 148.552,309.456C150.76,306.568 153.112,305.472 155.432,305.52ZM139.961,305.606C141.112,305.564 142.242,305.761 143.315,306.222C145.769,307.275 147.457,309.51 148.21,312.349C148.963,315.187 148.753,318.614 147.354,321.915C145.956,325.216 143.646,327.736 141.091,329.154C138.535,330.572 135.757,330.892 133.304,329.838C130.851,328.785 129.162,326.55 128.41,323.712C127.657,320.874 127.884,317.464 129.282,314.163C130.681,310.861 132.973,308.325 135.529,306.907C136.966,306.109 138.481,305.66 139.961,305.606ZM154.148,316.661C152.06,316.661 150.349,318.372 150.349,320.46C150.349,322.549 152.06,324.259 154.148,324.259C156.237,324.259 157.947,322.549 157.947,320.46C157.947,318.372 156.237,316.661 154.148,316.661ZM142.614,316.935C140.525,316.935 138.815,318.646 138.815,320.734C138.815,322.823 140.525,324.533 142.614,324.533C144.702,324.533 146.413,322.823 146.413,320.734C146.413,318.646 144.702,316.935 142.614,316.935ZM154.148,318.03C155.497,318.03 156.578,319.112 156.578,320.46C156.578,321.809 155.497,322.89 154.148,322.89C152.8,322.89 151.718,321.809 151.718,320.46C151.718,319.112 152.8,318.03 154.148,318.03ZM142.614,318.304C143.962,318.304 145.044,319.386 145.044,320.734C145.044,322.083 143.962,323.164 142.614,323.164C141.265,323.164 140.184,322.083 140.184,320.734C140.184,319.386 141.265,318.304 142.614,318.304ZM122.146,330.934C122.459,331.742 123.045,332.575 124.029,333.124C125.524,333.914 127.083,333.69 128.033,332.423C126.434,332.553 125.385,332.311 124.696,331.926C124.007,331.542 123.652,331.012 123.43,330.437C122.984,329.288 123.224,328.007 123.224,328.007C122.003,328.382 121.799,329.984 122.146,330.934ZM173.401,327.819C173.401,327.819 172.667,329.211 171.552,330.506C170.995,331.153 170.343,331.759 169.687,332.149C169.031,332.539 168.409,332.706 167.787,332.577C168.05,333.694 169.405,333.901 170.389,333.33C171.237,332.825 171.978,332.114 172.596,331.396C173.767,329.71 174.002,329.166 173.401,327.819ZM93.19,330.506C92.795,330.491 92.38,330.549 91.958,330.66C90.374,331.075 89.4,331.859 89.117,332.885C88.834,333.91 89.253,334.935 89.922,335.743C90.59,336.551 91.534,337.198 92.557,337.539C93.581,337.881 94.74,337.916 95.689,337.283C93.086,336.91 92.456,336.607 90.983,334.87C90.493,334.277 90.316,333.675 90.435,333.244C90.552,332.821 90.983,332.34 92.249,331.995L92.3,331.978C93.519,331.659 94.402,332.037 95.261,332.902C96.12,333.766 96.849,335.135 97.4,336.581C98.503,339.472 98.923,342.605 98.923,342.605C99.628,340.944 99.117,337.265 98.684,336.102C98.094,334.557 97.322,333.037 96.236,331.943C95.422,331.124 94.376,330.55 93.19,330.506L93.19,330.506ZM145.369,332.166C145.369,332.166 143.446,334.955 138.678,338.429C133.909,341.904 126.326,346.023 115.078,348.492C112.166,349.131 110.342,350.008 109.465,351.316C109.027,351.97 108.874,352.749 109.02,353.489C109.166,354.229 109.57,354.934 110.15,355.611C112.468,358.321 117.749,360.92 124.61,362.901C130.917,364.723 138.55,365.962 146.31,365.931C146.451,366.185 146.683,366.671 146.806,367.351C146.988,368.347 146.929,369.616 145.814,370.979C147.669,370.902 148.375,368.406 148.158,367.111C148.072,366.637 147.937,366.252 147.799,365.913C156.512,365.607 168.832,362.644 171.57,358.247C158.154,366.58 138.456,365.469 125.004,361.584C118.278,359.641 113.101,356.951 111.194,354.721C110.717,354.164 110.455,353.638 110.372,353.215C110.289,352.792 110.338,352.469 110.595,352.086C111.108,351.32 112.612,350.432 115.369,349.827C126.802,347.317 134.57,343.121 139.482,339.542C141.473,337.952 145.871,334.341 145.369,332.166ZM174.941,334.254C173.638,335.356 172.635,335.91 171.912,336.136C170.198,336.405 169.415,335.229 168.369,335.486C168.369,335.486 168.649,336.799 169.892,337.385C170.514,337.679 171.347,337.742 172.323,337.437C173.929,337.056 175.437,335.511 174.941,334.254L174.941,334.254ZM103.835,364.493C102.91,365.49 102.048,366.683 101.576,368.07C101.104,369.456 101.04,371.047 101.73,372.656C102.2,370.295 102.258,366.348 108.507,362.474C106.972,362.091 104.589,363.696 103.835,364.493ZM117.081,364.63C116.577,364.638 116.089,364.666 115.609,364.715C111.767,365.109 108.563,367.023 107.24,371.065L107.24,371.116L107.223,371.167C105.843,379.011 111.037,387.243 117.56,393.397C120.821,396.475 124.432,399.046 127.811,400.773C131.19,402.5 134.32,403.432 136.761,403.084L137.001,403.049L137.172,402.861C137.172,402.861 140.795,398.979 146.464,396.17C152.134,393.36 159.73,391.64 167.873,395.947L168.284,396.17L168.643,395.862C172.175,392.907 175.852,387.437 177.696,382.171C178.618,379.538 179.085,376.957 178.757,374.727C178.429,372.496 177.212,370.595 174.958,369.678C170.573,367.895 164.423,368.953 159.008,370.705C156.301,371.581 153.786,372.636 151.769,373.666C150.021,374.558 148.765,375.37 147.936,376.13C145.541,374.697 137.2,369.79 128.478,366.837C125.109,365.697 121.728,364.846 118.621,364.664C118.103,364.634 117.584,364.622 117.081,364.63L117.081,364.63ZM117.098,365.999C117.564,365.99 118.049,366.004 118.535,366.033C119.848,366.113 121.244,366.312 122.677,366.615C123.167,367.348 128.232,374.985 132.876,384.858C124.534,387.692 118.709,390.5 117.286,391.207C111.577,385.404 107.439,378.075 108.575,371.458C109.748,367.922 112.262,366.441 115.746,366.085C116.183,366.04 116.631,366.008 117.098,365.999L117.098,365.999ZM124.628,367.077C125.758,367.375 126.905,367.733 128.05,368.121C136.838,371.096 145.577,376.293 147.645,377.533L148.141,377.824L148.518,377.414C148.994,376.884 150.439,375.891 152.385,374.898C152.974,374.598 153.628,374.294 154.302,373.991C154.505,374.629 155.117,376.619 155.894,379.604C149.727,380.189 143.573,381.583 138.027,383.215C136.71,383.603 135.435,384.005 134.194,384.413C130.41,376.338 126.372,369.788 124.628,367.077ZM182.094,368.309C182.094,368.309 185.537,371.724 183.994,376.609C186.481,376.546 185.97,367.465 182.094,368.309ZM169.43,370.158C171.31,370.136 173.029,370.369 174.445,370.945C176.271,371.687 177.128,373.044 177.405,374.932C177.683,376.82 177.271,379.225 176.395,381.726C176.393,381.731 176.397,381.738 176.395,381.743C172.157,380.115 167.517,379.394 162.739,379.313C160.945,379.283 159.129,379.35 157.314,379.484C156.462,376.196 155.74,373.951 155.569,373.426C156.784,372.921 158.086,372.443 159.436,372.006C162.729,370.94 166.298,370.194 169.43,370.158L169.43,370.158ZM162.705,380.699C167.355,380.774 171.852,381.46 175.899,383.01C174.078,387.468 170.936,391.987 168.044,394.527C165.101,393.048 162.216,392.318 159.453,392.097C159.363,388.664 158.54,384.46 157.656,380.853C159.351,380.736 161.036,380.673 162.705,380.699ZM156.253,380.956C157.139,384.542 157.978,388.73 158.084,392.028C153.485,391.939 149.283,393.236 145.848,394.938C143.344,396.178 141.304,397.577 139.739,398.788C138.447,394.303 136.658,389.831 134.759,385.662C135.947,385.273 137.163,384.886 138.421,384.516C143.976,382.881 150.132,381.51 156.253,380.956ZM133.441,386.09C135.424,390.422 137.266,395.095 138.558,399.729C137.311,400.78 136.544,401.565 136.402,401.715C134.483,401.927 131.601,401.172 128.444,399.558C125.202,397.901 121.671,395.395 118.501,392.405C118.442,392.35 118.388,392.289 118.33,392.234C120.378,391.235 125.873,388.657 133.441,386.09ZM146.293,405.052C146.293,405.052 148.334,403.833 151.342,402.878L151.324,402.93C151.324,402.93 153.066,403.305 154.952,403.785C155.896,404.025 156.878,404.286 157.673,404.538C158.469,404.791 159.136,405.096 159.214,405.154C158.678,403.228 156.554,402.788 155.295,402.468C154.838,402.351 154.497,402.277 154.08,402.177C155.831,401.827 157.739,401.646 159.693,401.834C153.033,398.797 147.081,403.948 146.293,405.052L146.293,405.052ZM139.14,413.009C145.144,414.564 151.572,415.853 158.426,416.774L158.563,416.791L158.717,416.74C159.558,416.487 160.48,416.177 161.438,415.833C160.763,419.298 158.407,431.839 158.529,439.056C159.448,436.448 159.835,433.561 160.463,430.756C161.018,431.041 161.788,431.454 162.807,432.125C164.472,433.22 166.387,434.782 167.394,436.523C168.401,438.264 168.612,440.064 166.932,442.222C165.264,444.364 161.468,447.116 154.627,449.204C149.58,448.699 146.495,447.369 144.719,445.764C142.922,444.142 142.371,442.224 142.391,440.271C142.416,437.839 143.406,435.428 144.154,433.956C145.04,435.746 145.152,439.074 145.917,441.161C146.509,430.145 140.981,417.052 139.14,413.009Z" style="fill-rule:nonzero;"/>
            <path id="path4145" d="M133.445,386.084C129.661,387.367 126.386,388.656 123.81,389.746C121.235,390.836 119.358,391.728 118.334,392.227C118.392,392.283 118.447,392.343 118.505,392.398C120.09,393.894 121.767,395.281 123.451,396.489C125.135,397.696 126.827,398.723 128.448,399.552C130.026,400.358 131.525,400.951 132.88,401.314C133.558,401.496 134.208,401.625 134.797,401.691C135.387,401.757 135.926,401.761 136.406,401.708C136.548,401.558 137.315,400.774 138.562,399.723C137.916,397.406 137.122,395.081 136.252,392.792C135.382,390.503 134.437,388.25 133.445,386.084L133.445,386.084Z" style="fill:white;fill-rule:nonzero;"/>
            <path id="path4141" d="M156.257,380.95C153.197,381.226 150.117,381.719 147.119,382.336C144.12,382.952 141.203,383.692 138.425,384.509C137.167,384.879 135.951,385.267 134.763,385.656C135.713,387.74 136.638,389.908 137.484,392.107C138.33,394.307 139.097,396.539 139.743,398.782C140.526,398.176 141.428,397.538 142.447,396.882C143.466,396.226 144.6,395.552 145.852,394.931C146.711,394.506 147.607,394.11 148.556,393.75C149.505,393.391 150.507,393.072 151.534,392.809C152.561,392.546 153.623,392.346 154.717,392.21C155.811,392.075 156.939,392 158.088,392.022C158.035,390.373 157.789,388.505 157.455,386.597C157.121,384.689 156.7,382.742 156.257,380.95Z" style="fill:white;fill-rule:nonzero;"/>
            <path id="path4137" d="M162.709,380.693C161.04,380.666 159.356,380.729 157.661,380.847C158.103,382.65 158.531,384.615 158.859,386.546C159.186,388.476 159.412,390.374 159.458,392.09C160.839,392.201 162.25,392.448 163.685,392.843C165.119,393.238 166.577,393.781 168.048,394.52C168.771,393.886 169.509,393.129 170.239,392.279C170.969,391.428 171.691,390.491 172.378,389.489C173.065,388.487 173.716,387.431 174.312,386.34C174.908,385.25 175.448,384.118 175.903,383.003C174.892,382.616 173.852,382.294 172.789,382.011C171.725,381.727 170.626,381.496 169.52,381.309C167.309,380.934 165.034,380.73 162.709,380.693Z" style="fill:white;fill-rule:nonzero;"/>
            <path id="path4133" d="M169.435,370.151C167.869,370.169 166.184,370.374 164.489,370.699C162.793,371.023 161.087,371.466 159.44,371.999C158.091,372.436 156.788,372.914 155.573,373.42C155.744,373.945 156.466,376.19 157.318,379.478C159.133,379.344 160.949,379.276 162.743,379.307C163.938,379.327 165.113,379.39 166.286,379.495C167.459,379.599 168.633,379.743 169.777,379.94C170.92,380.137 172.043,380.395 173.148,380.693C174.254,380.991 175.34,381.33 176.4,381.737C176.402,381.732 176.398,381.725 176.4,381.72C176.838,380.469 177.163,379.242 177.341,378.092C177.519,376.942 177.548,375.87 177.409,374.926C177.34,374.454 177.232,374.029 177.084,373.625C176.936,373.221 176.741,372.847 176.502,372.513C176.264,372.179 175.988,371.884 175.647,371.623C175.305,371.362 174.905,371.124 174.449,370.938C173.741,370.65 172.946,370.45 172.104,370.322C171.263,370.195 170.374,370.14 169.435,370.151L169.435,370.151Z" style="fill:white;fill-rule:nonzero;"/>
            <path id="path4125" d="M124.632,367.071C125.504,368.426 126.953,370.742 128.653,373.728C129.504,375.221 130.402,376.882 131.34,378.673C132.278,380.465 133.252,382.388 134.198,384.406C135.44,383.999 136.714,383.596 138.032,383.209C140.804,382.393 143.723,381.644 146.725,381.018C149.728,380.392 152.815,379.89 155.898,379.598C155.121,376.612 154.509,374.622 154.306,373.984C153.632,374.288 152.978,374.591 152.39,374.891C151.417,375.388 150.572,375.89 149.908,376.329C149.244,376.768 148.76,377.142 148.522,377.407L148.146,377.818L147.649,377.527C146.615,376.907 143.901,375.297 140.359,373.471C138.588,372.558 136.611,371.589 134.523,370.664C132.436,369.74 130.251,368.858 128.055,368.115C126.91,367.727 125.762,367.368 124.632,367.071Z" style="fill:white;fill-rule:nonzero;"/>
            <path id="path4121" d="M117.102,365.992C116.635,366.001 116.187,366.033 115.75,366.078C114.879,366.167 114.064,366.33 113.32,366.574C112.576,366.819 111.906,367.156 111.301,367.584C110.695,368.012 110.164,368.534 109.709,369.176C109.254,369.817 108.873,370.568 108.579,371.452C108.437,372.279 108.376,373.122 108.391,373.967C108.407,374.812 108.489,375.663 108.648,376.517C108.807,377.371 109.045,378.23 109.332,379.084C109.62,379.939 109.958,380.788 110.359,381.634C110.761,382.48 111.227,383.321 111.728,384.15C112.23,384.979 112.768,385.794 113.354,386.597C114.527,388.203 115.863,389.75 117.29,391.201C118.002,390.847 119.816,389.966 122.493,388.822C125.17,387.677 128.709,386.268 132.88,384.851C131.719,382.383 130.525,380.053 129.389,377.938C128.254,375.822 127.177,373.925 126.223,372.307C124.315,369.072 122.926,366.975 122.681,366.609C121.248,366.306 119.853,366.106 118.539,366.027C118.053,365.997 117.568,365.984 117.102,365.993L117.102,365.992Z" style="fill:white;fill-rule:nonzero;"/>
            <g id="path3077" transform="matrix(1,0,0,1,0,200)">
                <path d="M143.915,119.656C143.915,119.968 143.637,120.224 143.3,120.224C142.962,120.224 142.684,119.968 142.684,119.656C142.684,119.344 142.962,119.088 143.3,119.088C143.637,119.088 143.915,119.344 143.915,119.656Z" style="fill:rgb(254,216,147);fill-rule:nonzero;"/>
            </g>
            <g id="path3079" transform="matrix(1,0,0,1,11.3958,199.811)">
                <path d="M143.915,119.656C143.915,119.968 143.637,120.224 143.3,120.224C142.962,120.224 142.684,119.968 142.684,119.656C142.684,119.344 142.962,119.088 143.3,119.088C143.637,119.088 143.915,119.344 143.915,119.656Z" style="fill:rgb(254,216,147);fill-rule:nonzero;"/>
            </g>
        </g>
    </g>
</svg>
