<?xml version="1.0" encoding="UTF-8" standalone="no"?>
<!DOCTYPE svg PUBLIC "-//W3C//DTD SVG 1.1//EN" "http://www.w3.org/Graphics/SVG/1.1/DTD/svg11.dtd">
<svg width="100%" height="100%" viewBox="0 0 823 842" version="1.1" xmlns="http://www.w3.org/2000/svg" xmlns:xlink="http://www.w3.org/1999/xlink" xml:space="preserve" xmlns:serif="http://www.serif.com/" style="fill-rule:evenodd;clip-rule:evenodd;stroke-linejoin:round;stroke-miterlimit:2;">
    <g transform="matrix(1,0,0,0.942647,5.15864,21.6862)">
        <path d="M392.604,-19.329C389.79,3.062 400.624,12.926 413.774,-8.528C410.833,-3.613 409.917,2.789 407.725,8.107C419.468,3.045 413.725,7.697 416.366,11.347C417.242,12.558 409.626,27.351 421.582,24.107C436.859,19.961 429.644,21.48 433.212,26.036C430.475,22.54 422.22,35.171 422.63,38.78C423.819,49.252 435.359,39.001 437.103,48.284C435.125,37.756 427.403,70.328 427.165,73.128C426.364,82.595 428.558,92.306 427.599,101.858C425.853,119.258 423.512,136.212 418.74,153.055C412.585,174.779 414.855,183.876 414.855,205.223C414.855,234.318 372.384,235.746 353.722,243.784C312.95,261.344 254.049,332.833 250.468,380.741C247.668,418.2 265.165,374.143 268.398,361.081C271.933,346.798 289.204,301.875 302.744,314.206C309.81,304.265 322.155,282.755 332.123,294.331C348.089,288.599 344.791,275.591 355.451,265.817C360.901,260.82 370.052,260.73 375.324,257.176C402.037,239.168 414.092,240.069 445.095,239.895C446.575,227.237 441.045,189.241 455.894,182.434C481.387,170.748 516.962,247.066 525.667,264.088C572.972,356.591 587.154,462.033 599.114,563.924C609.805,542.646 694.746,435.412 708.415,489.615C713.43,509.501 684.517,538.06 695.671,545.349C707.787,553.267 738.413,531.857 743.191,553.986C751.939,550.274 750.349,547.031 748.377,561.761C766.721,544.264 801.995,559.497 795.897,582.931C789.036,609.296 740.22,623.867 717.487,622.898C720.285,619.485 835.389,574.993 773.005,562.845C755.451,559.427 748.135,577.094 730.665,568.675C726.103,566.476 738.61,553.951 730.126,551.935C720.005,549.529 709.383,550.091 699.124,551.179C680.851,553.117 582.219,578.345 603.435,608.642C611.07,619.544 658.023,607.563 675.151,610.584C698.455,614.694 728.901,626.986 739.308,650.331C770.58,720.479 610.055,663.149 605.38,668.044C591.326,682.759 610.115,733.59 593.497,746.894C571.152,764.782 562.373,709.983 553.97,696.996C544.798,718.294 549.747,700.618 542.521,707.795C543.406,706.916 522.842,737.759 524.375,733.934C519.316,746.562 523.439,769.548 521.785,783.616C519.681,801.507 489.029,905.921 466.701,847.993C457.131,864.415 449.922,857.234 437.322,858.792C435.931,858.964 427.313,851.865 426.306,851.667C421.879,850.797 417.414,861.704 409.671,858.147C389.521,848.89 387.638,822.095 387.638,802.626C387.638,787.244 397.525,748.207 387.421,739.764C363.932,720.134 347.504,746.306 344.003,764.174C339.903,785.096 349.525,812.67 344.868,830.924C337.534,859.674 320.961,844.311 302.097,839.133C281.603,833.508 268.738,846.527 252.199,843.457C223.843,838.194 219.387,799.077 219.15,776.057C218.891,750.842 225.587,731.049 235.351,708.44C242.726,691.365 243.729,701.339 244.421,683.385C244.327,685.812 239.416,663.912 238.806,660.703C234.285,636.94 240.736,611.27 252.847,590.279C259.019,579.581 265.739,567.834 277.689,558.738C298.31,543.043 300.667,549.168 303.179,525.258C306.432,494.291 297.659,513.764 296.913,513.158C286.163,504.433 275.301,494.756 267.319,482.918C227.909,517.674 186.682,517.333 180.049,455.912C174.104,400.855 199.791,344.282 231.244,300.81C237.003,292.851 294.701,239.321 292.375,233.197C290.358,227.887 232.182,241.444 222.605,241.838C191.589,243.112 160.356,240.218 150.888,275.754C146.656,291.64 157.766,347.406 150.24,356.545C125.762,386.268 58.962,315.209 40.614,303.62C5.332,281.336 28.293,219.051 47.959,190.426C77.203,147.859 112.664,131.043 161.581,118.167C179.563,113.434 194.25,113.867 212.451,113.955C242.306,114.1 236.524,114.367 246.906,90.625C258.477,64.165 351.12,53.174 332.986,21.066C360.059,30.25 335.812,11.947 342.924,8.105C350.385,4.074 349.067,18.092 357.719,13.18C363.571,9.858 362.568,-6.104 364.524,-11.339C366.655,1.573 370.976,17.625 375.108,-6.155C385.025,13.127 389.545,-1.371 392.604,-19.329Z"/>
    </g>
    <g transform="matrix(1,0,0,0.942647,5.15864,21.6862)">
        <path d="M389.579,10.914C412.924,11.407 387.572,43.283 406.214,24.523C423.882,46.197 421.281,87.665 419.065,114.172C417.771,129.637 414.172,145.2 408.482,159.644C405.372,167.537 395.355,169.043 394.982,173.792C392.965,199.498 421.926,205.758 387.636,225.421C361.094,240.641 340.073,237.452 316.136,261.497C278.97,298.832 236.654,358.495 237.077,413.792C237.11,418.117 234.093,431.415 237.292,435.61C246.516,447.708 244.003,414.402 245.284,412.063C253.631,396.822 284.958,380.833 302.311,375.338C318.139,370.326 321.903,362.022 332.122,379.01C335.43,384.509 334.307,412.145 332.554,418.543C325.618,443.86 306.218,443.589 284.814,458.074C262.764,472.997 230.361,518.809 201.002,495.228C166.157,467.241 192.952,386.39 207.051,355.464C218.03,331.382 232.833,309.389 249.822,289.146C261.996,274.641 307.134,241.656 298.424,226.285C323.022,216.216 369.08,247.562 374.244,203.17C379.864,154.864 303.052,176.42 285.894,143.334C319.932,170.208 355.442,158.134 362.796,114.387C372.135,58.834 316.979,99.706 294.319,113.09C268.477,128.354 281.426,123.914 287.839,95.809C289.899,86.779 303.548,76.91 280.71,92.135C278.06,93.902 270.306,111.996 270.126,112.01C260.801,112.724 266.217,95.478 269.694,94.729C266.683,95.377 251.732,109.24 251.549,108.987C236.479,88.087 285.898,69.068 298.207,67.294C308.445,65.818 333.047,73.369 339.465,68.376C345.368,63.784 323.642,58.776 321.319,58.438C327.924,56.903 345.354,61.026 350.049,58.221C364.815,49.398 332.438,50.064 332.121,47.635C330.856,37.935 359.171,19.132 366.682,16.313C378.944,11.711 373.027,37.844 389.579,10.914Z" style="fill:rgb(128,128,128);"/>
    </g>
    <g transform="matrix(1,0,0,0.942647,5.15864,21.6862)">
        <path d="M404.917,42.669C408.48,53.808 383.243,56.002 404.917,42.669Z"/>
    </g>
    <g transform="matrix(1,0,0,0.942647,5.15864,21.6862)">
        <path d="M258.892,116.98C279.673,128.159 277.314,155.865 301.663,167.529C319.597,176.119 376.1,172.346 365.171,206.195C360.294,221.299 343.482,223.286 329.961,218.402C309.498,211.01 289.078,219.023 269.803,226.178C234.548,239.265 199.849,230.768 163.849,241.622C175.927,199.004 303.286,194.38 338.169,193.884C371.958,193.404 348.132,185.778 327.585,184.918C304.864,183.968 282.963,189.054 261.054,194.53C217.797,205.342 171.788,202.708 153.048,248.319C146.275,264.803 143.298,283.276 137.927,300.273C130.977,322.265 158.473,345.508 133.392,351.362C110.733,356.65 80.264,325.963 65.996,313.126C34.028,284.367 22.509,277.794 37.699,230.714C52.111,186.046 80.06,153.569 124.318,136.206C169.405,118.518 213.521,126.565 258.892,116.98Z" style="fill:rgb(0,128,0);"/>
    </g>
    <g transform="matrix(1,0,0,0.942647,5.15864,21.6862)">
        <path d="M239.884,131.886C249.642,132.293 273.083,132.203 272.286,147.007C272.35,145.818 232.742,141.673 239.884,131.886Z"/>
    </g>
    <g transform="matrix(1,0,0,0.942647,5.15864,21.6862)">
        <path d="M300.151,133.615C300.007,136.279 299.863,138.943 299.719,141.607C299.815,141.721 298.286,141.436 298.422,141.39C298.462,140.723 300.242,132.961 300.151,133.615Z" style="fill:white;"/>
    </g>
    <g transform="matrix(1,0,0,0.942647,5.15864,21.6862)">
        <path d="M461.296,188.265C489.09,200.249 509.623,248.958 522.318,273.918C548.136,324.677 562.565,380.753 573.052,436.451C587.189,511.53 605.194,600.988 597.168,677.013C594.583,701.504 592.141,771.844 570.49,716.543C548.946,661.515 520.211,622.534 502.505,567.094C498.179,553.547 493.646,539.935 490.24,526.119C487.012,513.022 488.831,483.238 471.449,498.469C454.265,456.91 461.95,395.353 459.566,350.928C457.68,315.745 434.272,213.812 461.296,188.265Z" style="fill:rgb(128,128,0);"/>
    </g>
    <g transform="matrix(1,0,0,0.942647,5.15864,21.6862)">
        <path d="M353.075,92.136C359.302,104.662 353.947,129.772 342.923,140.741C311.983,171.526 326.755,118.85 298.64,121.948C307.834,105.288 335.077,96.103 353.075,92.136Z" style="fill:white;"/>
    </g>
    <g transform="matrix(1,0,0,0.942647,5.15864,21.6862)">
        <path d="M417.661,244.216C427.271,256.639 432.133,240.02 439.048,245.945C452.969,257.873 448.37,286.225 449.413,304.918C451.788,347.478 454.239,389.976 456.544,432.588C457.587,451.867 458.35,471.332 460.971,490.482C463.502,508.973 475.032,502.319 477.281,506.253C499.704,545.474 496.267,600.556 520.482,640.398C524.217,646.544 532.982,650.94 537.978,660.49C543.788,671.594 546.977,685.117 544.248,697.428C528.779,693.98 538.499,716.964 523.506,723.35C512.025,704.045 493.454,699.352 479.444,719.893C472.89,699.999 450.472,692.359 437.755,711.039C426.232,687.9 412.193,703.232 399.735,714.279C386.445,726.064 396.782,733.195 372.733,731.775C340.654,729.88 358.156,702.564 329.315,695.271C323.396,693.774 318.561,702.416 313.979,702.179C311.069,702.029 303.123,697.7 301.018,697.861C288.047,698.856 270.163,702.516 260.119,695.959C239.625,682.578 257.701,630.029 244.421,626.359C250.052,595.603 273.323,565.521 302.314,552.478C313.391,547.495 355.36,550.144 359.125,546.865C371.031,536.492 324.087,536.565 316.355,538.222C325.837,526.607 358.245,529.878 361.716,525.478C373.83,510.121 318.575,524.365 311.171,528.935C303.49,502.123 341.754,512.46 359.341,504.953C370.124,500.349 367.888,496.569 378.566,488.969C390.394,480.55 400.658,477.788 411.185,467.155C426.503,451.681 461.782,388.651 438.617,369.727C447.946,359.849 448.571,351.035 432.57,347.692C446.41,336.868 427.569,326.308 422.632,320.475C415.331,311.848 423.438,308.519 410.32,301.034C400.737,295.565 383.39,297.052 372.734,297.143C396.058,276.104 371.308,273.133 354.804,280.51C361.504,264.476 399.653,243.395 417.661,244.216Z" style="fill:rgb(128,128,128);"/>
    </g>
    <g transform="matrix(1,0,0,0.942647,5.15864,21.6862)">
        <path d="M367.979,284.396C350.122,324.19 379.656,297.52 409.02,309.455C402.063,322.871 408.295,336.916 429.76,339.266C417.522,348.196 418.392,356.323 436.24,357.844C426.334,366.387 423.378,373.84 436.24,377.5C426.649,387.145 421.834,396.18 436.24,396.727C427.324,411.846 435.548,421.879 419.172,436.69C411.458,443.667 376.819,460.308 411.611,449.651C401.723,456.477 372.001,463.968 395.843,472.333L395.843,472.983C382.711,481.847 347.544,478.89 358.257,496.098C343.062,500.714 321.985,471.909 332.984,498.905C304.165,501.864 288.248,458.591 292.373,501.495C277.278,476.006 273.448,466.946 309.008,455.27C297.309,504.243 324.555,448.385 321.319,449.223C332.661,446.285 332.089,489.636 334.497,443.604C357.497,485.359 340.211,433.225 340.329,432.588C342.278,422.084 359.501,415.579 358.69,422C359.76,413.523 362.135,415.637 346.61,411.624C317.585,404.123 369.221,379.746 369.922,382.037C366.817,371.89 345.633,382.168 340.76,385.711C340.553,374.366 349.293,366.494 359.338,361.301C356.069,359.506 338.448,364.092 340.76,366.27C336.807,362.546 340.505,364.197 335.793,356.764C329.022,346.082 356.297,350.349 337.305,342.506C335.57,341.789 327.498,356.229 325.207,357.195C321.113,358.921 320.245,343.772 317.432,345.531C312.677,348.504 314.831,360.406 315.489,360.004C275.543,384.471 264.372,386.733 278.983,346.178C298.552,355.433 282.357,329.564 294.967,323.065C302.128,319.374 293.936,339.498 293.887,339.481C305.074,343.441 289.092,356.075 302.959,334.729C309.718,324.325 310.79,312.768 320.023,303.19C324.225,318.604 352.641,288.459 367.979,284.396Z" style="fill:rgb(192,220,192);"/>
    </g>
    <g transform="matrix(1,0,0,0.942647,5.15864,21.6862)">
        <path d="M690.702,482.269C716.403,484.844 687.038,533.017 678.389,545.24C667.873,560.099 619.31,569.6 601.921,580.777C601.968,580.492 601.229,580.256 601.054,580.343C603.58,573.321 606.849,565.464 609.91,558.2C612.438,552.201 614.653,544.144 619.417,539.514C622.821,536.205 625.278,532.11 628.921,528.932C635.339,523.334 638.207,538.175 643.177,532.6C651.416,523.358 646.587,508.601 657.433,498.041C665.213,490.467 680.612,485.585 690.702,482.269Z" style="fill:rgb(128,128,0);"/>
    </g>
    <g transform="matrix(1,0,0,0.942647,5.15864,21.6862)">
        <path d="M640.153,614.908C665.079,614.788 693.741,617.746 714.245,633.482C749.729,660.715 735.127,677.752 696.532,679.068C683.17,679.524 667.655,677.612 654.843,673.449C649.832,671.821 645.025,651.463 637.994,662C635.162,666.245 625.301,662.364 621.579,659.838C588.541,637.41 608.858,618.996 640.153,614.908Z" style="fill:rgb(128,128,0);"/>
    </g>
    <g transform="matrix(1,0,0,0.942647,5.15864,21.6862)">
        <path d="M467.343,632.621C484.273,666.28 416.752,680.685 417.017,682.092C416.647,680.129 464.514,644.952 467.343,632.621Z"/>
    </g>
    <g transform="matrix(1,0,0,0.942647,5.15864,21.6862)">
        <path d="M294.751,638.023C296.027,645.778 301.874,669.628 312.464,677.767C317.492,681.631 331.49,667.296 331.905,680.146C332.196,689.14 326.548,683.027 321.751,684.031C304.623,687.616 280.327,661.521 294.751,638.023Z"/>
    </g>
    <g transform="matrix(1,0,0,0.942647,5.15864,21.6862)">
        <path d="M291.728,701.316C313.686,708.12 289.602,762.679 290.864,783.511C291.783,798.681 311.874,852.741 277.47,825.745C249.309,803.648 253.083,710.583 291.728,701.316Z" style="fill:rgb(192,220,192);"/>
    </g>
    <g transform="matrix(1,0,0,0.942647,5.15864,21.6862)">
        <path d="M252.196,701.96C273.28,703.069 251.308,765.543 254.141,786.646C256.094,801.194 281.279,855.906 242.907,830.064C211.174,808.694 223.264,718.983 252.196,701.96Z" style="fill:rgb(192,220,192);"/>
    </g>
    <g transform="matrix(1,0,0,0.942647,5.15864,21.6862)">
        <path d="M330.825,701.96C356.52,712.619 336.142,765.079 334.714,786.429C333.546,803.889 343.614,867.361 310.087,830.925C286.042,804.794 292.567,712.746 330.825,701.96Z" style="fill:rgb(192,220,192);"/>
    </g>
    <g transform="matrix(1,0,0,0.942647,5.15864,21.6862)">
        <path d="M419.606,706.501C441.956,713.859 426.831,767.683 426.086,787.507C425.552,801.749 430.128,860.364 404.916,846.265C374.679,829.355 396.427,721.021 419.606,706.501Z" style="fill:rgb(192,220,192);"/>
    </g>
    <g transform="matrix(1,0,0,0.942647,5.15864,21.6862)">
        <path d="M457.194,707.58C489.661,719.657 471.465,856.899 444.661,852.746C418.017,848.617 430.274,714.742 457.194,707.58Z" style="fill:rgb(192,220,192);"/>
    </g>
    <g transform="matrix(1,0,0,0.942647,5.15864,21.6862)">
        <path d="M498.884,714.277C531.809,720.11 515.479,819.008 501.04,839.568C474.879,876.821 473.683,831.34 476.202,810.189C479.378,783.532 471.697,729.588 498.884,714.277Z" style="fill:rgb(192,220,192);"/>
    </g>
    <g transform="matrix(1,0,0,0.942647,5.15864,21.6862)">
        <path d="M600.837,604.97C592.1,562.027 706.369,542.452 735.849,552.042C735.056,556.362 734.263,560.683 733.47,565.003C736.495,563.349 739.521,561.694 742.546,560.04C742.185,562.27 741.823,564.501 741.462,566.731C752.214,558.858 803.567,556.736 793.081,578.04C781.628,601.307 756.502,609.442 733.02,616.519C707.808,624.117 687.833,615.997 662.548,611.915C643.832,608.894 605.907,626.304 600.837,604.97Z" style="fill:rgb(128,128,0);"/>
    </g>
</svg>
