<?xml version="1.0" encoding="UTF-8" standalone="no"?>
<!DOCTYPE svg PUBLIC "-//W3C//DTD SVG 1.1//EN" "http://www.w3.org/Graphics/SVG/1.1/DTD/svg11.dtd">
<svg width="100%" height="100%" viewBox="0 0 823 600" version="1.1" xmlns="http://www.w3.org/2000/svg" xmlns:xlink="http://www.w3.org/1999/xlink" xml:space="preserve" xmlns:serif="http://www.serif.com/" style="fill-rule:evenodd;clip-rule:evenodd;stroke-linejoin:round;stroke-miterlimit:2;">
    <g transform="matrix(0.402296,0,0,0.502141,246.2,103.021)">
        <path d="M1263.44,956.554C1301.07,953.366 1374.39,966.142 1406.21,941.865C1436.61,918.667 1408.47,831.112 1395.85,797.578C1380.43,756.647 1360.85,716.699 1337.96,679.213C1325.1,658.158 1310.2,638.598 1293.68,620.241C1284.78,610.366 1276.13,600.275 1267.36,590.293C1254.09,575.196 1240.82,560.099 1227.55,545.002C1215.63,531.437 1220.83,534.802 1231.9,524.121C1258.4,498.581 1309.75,502.875 1340.23,480.706C1364.99,462.695 1353.14,428.492 1345.09,404.242C1337.1,380.226 1331.53,343.841 1314.63,324.322C1295,301.662 1266.44,322.341 1247.99,303.91C1180.46,236.419 1131.21,149.872 1064.39,80.666C1000.87,14.872 921.12,-52.51 830.465,-75.818C767.154,-92.095 664.192,-134.589 599.238,-111.243C456.228,-59.842 350.832,62.172 268.758,185.218C256.491,161.908 255.62,149.578 230.094,145.906C214.089,143.603 194.631,150.463 180.198,156.597C152.478,168.379 128.677,186.836 107.838,208.115C94.163,222.078 59.486,252.724 65.435,269.411C84.178,321.986 102.92,374.561 121.663,427.136C-15.417,421.139 -118.956,312.122 -219.032,231.93C-299.296,167.614 -384.576,92.841 -477.089,188.675C-516.81,229.822 -547.647,285.749 -568.888,338.363C-583.767,375.218 -608.204,425.604 -596.322,466.236C-588.052,494.515 -565.608,500.936 -538.218,506.95C-502.67,514.755 -482.916,524.948 -450.739,540.756C-382.576,574.241 -302.078,569.776 -232.362,601.664C-138.766,644.476 -20.508,627.72 79.111,614.625C104.541,611.282 192.239,585.987 195.102,614.628C196.974,633.357 194.55,653.236 194.669,672.082C194.977,720.674 196.481,769.703 191.212,818.098C187.976,847.821 182.197,867.084 203.741,891.862C223.696,914.811 251.041,927.367 280.204,933.229C338.671,944.981 405.343,944.512 462.724,927.827C491.282,919.522 500.95,908.294 530.119,906.118C554.723,904.283 619.818,900.804 635.959,878.579C652.791,855.403 615.11,819.711 598.481,802.006C584.842,787.485 570.603,773.588 558.089,758.049C540.613,736.349 558.209,741.846 576.775,741.206C648.534,738.734 718.968,735.444 788.888,717.229C796.507,715.244 821.16,703.181 827.117,709.881C832.933,716.424 803.857,788.221 801.108,797.48C795.13,817.612 776.886,851.561 786.295,869.725C793.165,882.989 817.581,891.74 830.574,896.183C873.412,910.832 917.68,904.005 961.721,900.276C992.045,897.709 1018.94,901.079 1038.04,875.013C1044.9,865.656 1060.01,820.769 1065.42,836.038C1079.91,876.935 1083.09,920.619 1125.85,938.191C1168.93,955.901 1218.47,947.79 1263.44,956.554Z"/>
    </g>
    <g transform="matrix(0.402296,0,0,0.502141,246.2,103.021)">
        <path d="M1246.59,919.617C1279.29,919.706 1312.55,922.966 1345.09,918.43C1366.75,915.41 1373,915.279 1372.41,892.294C1371.95,874.4 1369.14,856.426 1364.96,839.05C1349.19,773.498 1312.61,708.357 1270.78,656.097C1244.09,622.747 1217.48,585.942 1183.52,559.546C1163.63,544.09 1140.34,566.991 1119.64,577.562C1104.78,585.149 1034.74,608.416 1028.86,623.912C1023.07,639.181 1064.43,710.028 1071.2,726.946C1085.42,762.505 1098.91,798.443 1111.16,834.732C1120.76,863.172 1121.36,901.842 1153.17,911.086C1183.35,919.854 1215.62,916.605 1246.59,919.617Z" style="fill:rgb(206,206,155);"/>
    </g>
    <g transform="matrix(0.402296,0,0,0.502141,246.2,103.021)">
        <path d="M366.174,906.656C393.483,908.999 444.223,909.774 454.303,882.896C465.514,853.003 448.371,800.883 439.183,772.198C435.647,761.157 427.597,726.895 416.395,723.167C392.245,715.128 369.519,704.049 348.03,690.439C306.244,663.975 270.358,629.286 234.415,595.617C229.784,658.898 233.585,725.916 232.472,790.019C231.926,821.43 229.229,862.296 255.152,883.33C283.648,906.452 331.729,904.977 366.174,906.656Z" style="fill:rgb(206,206,155);"/>
    </g>
    <g transform="matrix(0.402296,0,0,0.502141,246.2,103.021)">
        <path d="M524.287,875.337C546.751,869.722 569.214,864.107 591.678,858.491C564.94,824.025 538.2,789.559 511.462,755.094C498.506,738.395 506.439,740.436 475.252,736.236C481.895,763.815 491.47,790.769 496.424,818.748C501.238,845.939 490.926,874.296 524.287,875.337Z" style="fill:rgb(206,206,155);"/>
    </g>
    <g transform="matrix(0.402296,0,0,0.502141,246.2,103.021)">
        <path d="M879.393,869.724C926.303,868.559 986.46,881.787 1008.12,831.275C1030.44,779.243 1032.8,736.106 1010.72,685.687C999.535,660.153 998.886,639.938 969.814,650.64C940.426,661.459 891.637,672.604 875.717,697.57C853.895,731.794 843.523,794.414 829.296,835.093C818.097,867.118 852.458,862.593 879.393,869.724Z" style="fill:rgb(206,206,155);"/>
    </g>
    <g transform="matrix(0.402296,0,0,0.502141,246.2,103.021)">
        <path d="M541.133,704.267C681.74,708.962 804.871,682.735 933.393,623.912C1003.48,591.835 1070.37,553.353 1140.32,521.098C1172.14,506.423 1204.56,493.076 1237.63,481.462C1253.75,475.8 1269.91,470.44 1286.34,465.694C1308.64,459.248 1305.87,460.007 1306.21,439.881C1306.52,420.888 1295.67,393.97 1288.93,376.27C1279.31,351.032 1273.72,345.526 1247.24,347.868C1186.75,353.217 1135.89,391.814 1083.3,418.282C986.163,467.161 894.615,531.715 801.199,585.68C662.371,665.88 485.785,686.245 367.904,561.709C316.329,507.223 290.993,436.932 270.056,366.227C258.836,328.335 249.572,289.912 238.952,251.855C233.801,233.397 228.812,214.852 222.752,196.667C216.387,177.567 204.799,183.254 187.76,190.402C144.381,208.6 102.436,252.01 116.912,298.619C128.776,336.816 146.145,372.802 163.783,408.562C211.973,506.267 299.715,628.846 404.84,673.376C449.016,692.09 493.926,697.097 541.133,704.267Z" style="fill:rgb(160,160,109);"/>
    </g>
    <g transform="matrix(0.402296,0,0,0.502141,246.2,103.021)">
        <path d="M546.748,612.679C801.093,597.774 967.827,398.016 1197.56,317.841C1080.99,156.283 955.696,-10.525 753.031,-62.102C626.353,-94.341 519.158,-45.067 432.055,44.818C392.382,85.758 359.632,133.383 325.044,178.499C314.499,192.253 301.741,205.805 292.734,220.642C284.198,234.704 284.817,222.796 283.228,240.513C282.403,249.709 289.293,263.679 291.546,272.699C301.266,311.604 311.457,350.348 323.945,388.474C358.201,493.049 427.766,600.773 546.748,612.679Z" style="fill:rgb(160,160,109);"/>
    </g>
    <g transform="matrix(0.402296,0,0,0.502141,246.2,103.021)">
        <path d="M-107.08,594.105C-42.389,596.168 22.93,589.44 86.887,580.283C114.699,576.302 145.671,574.202 171.991,563.648C179.625,560.586 191.882,562.91 194.671,552.416C198.632,537.508 149.791,483.33 140.793,469.954C125.58,447.34 93.659,458.378 66.799,452.628C41.589,447.232 17.543,438.539 -6.208,428.649C-73.506,400.625 -128.753,360.135 -184.192,313.09C-237.37,267.965 -294.168,206.376 -360.448,180.465C-424.138,155.566 -462.235,223.201 -490.048,269.242C-503.532,291.564 -587.812,448.763 -540.594,468.718C-491.323,489.54 -434.886,484.562 -383.128,477.683C-356.48,474.141 -329.04,474.312 -303.101,466.776C-290.029,462.978 -277.314,458.069 -264.546,453.381C-251.903,448.74 -214.145,442.544 -213.136,466.453C-211.769,498.849 -333.511,510.798 -356.128,513.322C-364.739,514.283 -417.739,516.341 -411.857,523.904C-408.629,528.054 -369.79,524.536 -362.177,525.416C-341.933,527.755 -322.049,532.993 -302.669,539.136C-266.512,550.595 -231.845,566.397 -195.532,577.368C-166.795,586.051 -134.638,584.9 -107.08,594.105Z" style="fill:rgb(206,206,155);"/>
    </g>
    <g transform="matrix(0.402296,0,0,0.502141,246.2,103.021)">
        <path d="M-448.576,338.146C-424.041,340.943 -396.539,286.315 -408.617,269.242C-416.314,258.361 -434.679,263.557 -440.37,273.238C-450.194,289.953 -465.62,323.369 -448.576,338.146Z"/>
    </g>
</svg>
