<?xml version="1.0" encoding="utf-8"?>
<!-- Generator: Adobe Illustrator 16.0.4, SVG Export Plug-In . SVG Version: 6.00 Build 0)  -->
<!DOCTYPE svg PUBLIC "-//W3C//DTD SVG 1.1//EN" "http://www.w3.org/Graphics/SVG/1.1/DTD/svg11.dtd">
<svg version="1.1" id="Layer_1" xmlns="http://www.w3.org/2000/svg" xmlns:xlink="http://www.w3.org/1999/xlink" x="0px" y="0px"
	 width="822.05px" height="841.89px" viewBox="0 0 822.05 841.89" enable-background="new 0 0 822.05 841.89" xml:space="preserve">
<path fill-rule="evenodd" clip-rule="evenodd" fill="#E5EDF2" d="M283.471,534.617c-18.684-1.19-37.33-1.727-56.053-1.727
	c-7.379,0-26.636-2.441-32.723,1.727c-10.469,7.169,11.12,9.123-1.08,18.359c-25.818,19.546-96.666,0.773-127.873,11.234
	c-69.074,23.154,55.205,28.631,74.305,31.75c40.362,6.591,75.883,14.155,117.287,15.984c-34.118,43.684,86.09,31.209,104.113,42.121
	c2.222,1.346,3.16,12.125,10.367,16.633c7.165,4.482,19.722,4.506,27.863,5.615c21.677,2.954,43.866,2.482,65.664,1.512
	c34.455-1.534,68.612-6.629,103.033-8.531c14.286-0.79,118.562-9.312,65.447-30.996c32.539-32.978,110.469,1.321,139.105-32.186
	c16.144-18.89-18.132-21.507-34.777-24.84c-28.859-5.778-51.668-14.98-70.199-26.133c-69.281-41.693-200.088-20.523-283.392-20.523
	C350.863,534.617,317.167,534.617,283.471,534.617z"/>
<path d="M195.342,537.425c27.304-3.33,59.312-1.839,88.129,0c0-1.872,0-3.743,0-5.615
	C266.996,530.756,190.173,526.479,195.342,537.425z"/>
<path d="M202.471,549.738c-2.263-4.309-5.255-9.536-9.072-11.447c2.193,3.139,0.697-7.226,0.648-6.48
	C183.831,541.607,196.409,551.42,202.471,549.738z"/>
<path d="M132.703,560.539c20.654-1.646,54.53,3.865,69.768-10.801C187.513,550.345,130.967,552.309,132.703,560.539z"/>
<path d="M44.791,580.195c11.242-23.159,64.694-17.195,87.912-19.656c-0.289-1.872-0.577-3.745-0.865-5.617
	c-20.977,2.372-42.253,1.926-63.071,5.832C56.75,563.008,27.574,582.931,44.791,580.195z"/>
<path d="M124.279,590.992c-29.431-1.732-58.062-4.286-85.105-9.934C50.352,597.625,124.785,602.667,124.279,590.992z"/>
<path d="M217.807,607.195c-31.851,2.568-61.802-13.414-93.527-16.203c-0.145,1.872-0.289,3.745-0.434,5.617
	c32.119,2.764,61.649,18.073,93.961,16.633C223.199,610.252,218.657,609.979,217.807,607.195z"/>
<path d="M260.357,611.945c-11.704-5.91-28.646-4.114-42.551-4.75c0,2.016,0,4.031,0,6.047c13.092,0.445,26.374,1.124,39.527,1.727
	c-1.008-1.008-2.016-2.016-3.023-3.023c2.61,0,1.57,2.615,5.184,2.16C257.925,607.892,260.978,609.153,260.357,611.945z"/>
<path d="M253.447,629.441c2.681-4.854,4.618-12.125,6.91-17.496C252.044,613.834,241.125,634.955,253.447,629.441z"/>
<path d="M350.861,645.21c-34.7-3.242-71.871-2.919-103.031-14.473C260.481,656.23,352.684,653.055,350.861,645.21z"/>
<path d="M365.334,654.714c-4.469-4.136-7.85-8.052-14.473-9.504C354.45,656.704,364.036,658.52,365.334,654.714z"/>
<path d="M365.119,665.298c-0.45-3.071-1.095-6.845,0.215-10.584c-2.016,0-4.031,0-6.047,0c0.478,8.432,0.095,8.654,3.887,15.984
	C368.806,669.671,364.415,667.034,365.119,665.298z"/>
<path d="M523.23,670.05c-50.115,6.158-109.815,13.741-158.111-4.752c-0.72,1.728-1.44,3.454-2.16,5.182
	C385.685,679.824,525.569,688.605,523.23,670.05z"/>
<path d="M585.869,665.082c-20.883,1.607-41.76,3.312-62.639,4.969c0.145,1.872,0.289,3.745,0.434,5.617
	C538.93,674.453,586.844,674.952,585.869,665.082z"/>
<path d="M646.998,654.714c-13.311,9.412-41.36,9.204-61.129,10.367c0.145,1.872,0.289,3.745,0.434,5.617
	c15.076-0.949,34.789,1.013,49.031-4.535C644.624,662.545,661.652,651.783,646.998,654.714z"/>
<path d="M647.432,652.554c-2.434,0.24,2.027,1.978,5.617,2.16C652.715,645.866,650.377,652.263,647.432,652.554z"/>
<path d="M631.447,636.787c3.895,9.09,12.133,14.809,21.168,13.607c-5.168-4.584-10.305-10.891-16.633-14.041
	C636.275,636.246,631.043,638.685,631.447,636.787z"/>
<path d="M731.885,614.105c-30.282,5.284-77.824-1.488-100.438,22.682c14.355,0.855,41.454-10.364,60.371-12.528
	C704.333,622.827,736.632,625.117,731.885,614.105z"/>
<path d="M777.029,598.771c-9.741,9.896-30.058,13.025-45.145,15.334c0.288,1.872,0.577,3.745,0.865,5.617
	C744.959,617.753,794.948,597.128,777.029,598.771z"/>
<path d="M777.463,596.826c-2.279,0.367,1.742,1.571,5.617,1.945C782.733,589.671,780.614,596.319,777.463,596.826z"/>
<path d="M764.072,591.425c7.065,2.985,12.294,4.674,18.574,2.809C773.447,585.611,762.009,582.747,764.072,591.425z"/>
<path d="M663.631,560.968c24.85,22.851,69.568,19.161,100.441,30.457c0.72-1.728,1.438-3.456,2.158-5.184
	c-27.665-10.911-75.955-20.89-96.551-25.273C664.59,559.226,663.499,561.326,663.631,560.968z"/>
<path d="M664.711,551.464c0.375,2.151-0.014,6.393-1.08,9.504c2.017,0,4.032,0,6.049,0
	C670.148,547.994,670.249,545.462,664.711,551.464z"/>
<path d="M644.623,547.148c9.007,2.918,17.532,3.53,23.977,0C657.966,541.453,642.189,536.98,644.623,547.148z"/>
<path d="M452.814,537.644c64.146,0.185,128.52-3.27,191.809,9.504c0.288-1.872,0.575-3.745,0.863-5.617
	C619.919,536.303,451.489,522.382,452.814,537.644z"/>
<path d="M283.471,537.425c55.921,1.618,113.029,0.219,169.344,0.219c0-2.017,0-4.034,0-6.051c-31.896,0-63.792,0-95.688,0
	C342.173,531.593,280.531,527.293,283.471,537.425z"/>
<path fill-rule="evenodd" clip-rule="evenodd" fill="#008400" d="M376.135,351.234c69.943-58.162,43.819-216.191-66.852-183.276
	c-97.095,28.877-47.083,181.545,38.123,132.085c-8.779,8.447-17.178,17.247-26.352,25.271
	C340.524,330.115,361.086,337.59,376.135,351.234z"/>
<path d="M407.238,302.851c-8.077,17.369-18.056,33.706-32.832,46.223c1.152,1.44,2.303,2.88,3.455,4.32
	C389.843,343.6,417.35,313.579,407.238,302.851z"/>
<path d="M372.463,176.058c40.654,20.494,52.305,88.047,34.775,126.793c1.728,0.863,3.456,1.727,5.184,2.59
	c10.95-24.165,9.721-54.117,2.484-79.163C410.826,212.157,387.628,161.751,372.463,176.058z"/>
<path d="M259.711,218.611c17.802-45.941,68.405-61.94,112.752-42.553c0.72-1.728,1.44-3.456,2.16-5.184
	c-28.879-13.191-62.691-12.354-89.317,5.399C276.553,182.11,242.514,219.664,259.711,218.611z"/>
<path d="M293.191,302.203c-28.269-13.164-44.637-53.086-33.48-83.592c-1.872-0.576-3.744-1.152-5.615-1.729
	c-8.273,24.088-2.564,49.89,12.635,69.875C272.972,294.964,294.638,316.898,293.191,302.203z"/>
<path d="M349.35,302.203c-10.622-4.415-39.679,0.959-56.158,0c0,1.872,0,3.744,0,5.615c18.662,1.236,38.821,4.509,55.727-5.4
	c-1.152-1.512-2.303-3.023-3.455-4.535c1.152,1.512,2.303,3.023,3.455,4.535c-0.688-2.944,2.883-2.192-0.863-5.184
	C343.255,298.398,348.644,299.339,349.35,302.203z"/>
<path d="M321.703,322.505c6.733,4.828,18.174-11.604,27.646-20.303c-1.295-1.44-2.591-2.88-3.887-4.32
	c-9.348,9.424-22.929,19.057-25.057,30.24c-0.432-1.656-0.863-3.311-1.295-4.967c0.459,2.498-2.017,3.586,1.727,5.182
	C325.356,326.941,320.229,325.281,321.703,322.505z"/>
<path d="M374.406,349.074c0.004-9.959-36.448-22.606-52.703-26.568c-0.432,1.873-0.865,3.745-1.297,5.617
	c16.838,4.24,51.752,18.156,53.785,25.057C381.942,352.693,376.878,351.909,374.406,349.074z"/>
<path fill-rule="evenodd" clip-rule="evenodd" fill="#FFFFBF" d="M375.918,351.234c-9.804-9.093-33.333-26.219-47.951-25.055
	c-39.265,3.128-69.973,80.232-74.305,113.182c-4.976,37.852,2.445,88.113,27.434,118.369c28.87,34.955,83.065,20.088,123.643,20.088
	c41.225,0,121.39,18.019,152.189-17.928c30.558-35.664,21.738-84.907,36.07-125.496c16.857-47.741,30.739-76.762-11.879-117.938
	c0.343,14.146-0.427,28.438-6.266,41.473c-3.841-11.628-8.325-11.408-17.496-17.279c3.856,72.143-64.954,100.858-129.166,94.609
	c-25.327-2.465-49.353-12.163-69.013-28.405C334.732,386.656,357.401,368.409,375.918,351.234z"/>
<path d="M322.998,327.474c13.006,3.798,36.415,12.73,50.76,25.705c1.441-1.296,2.881-2.592,4.322-3.889
	c-14.736-13.841-42.422-26.613-56.809-26.785C315.568,327.133,320.737,325.611,322.998,327.474z"/>
<path d="M273.967,542.609c-35.309-78.714-15.651-158.714,49.031-215.135c-1.152-1.439-2.303-2.879-3.455-4.318
	c-33.798,28.096-59.536,64.918-67.393,108.756C249.194,448.409,250.384,547.867,273.967,542.609z"/>
<path d="M305.287,574.794c-10.121-5.625-24.357-19.329-31.32-32.186c-1.873,0.721-3.745,1.441-5.617,2.162
	C274.092,554.858,309.603,591.727,305.287,574.794z"/>
<path d="M526.254,574.794c-73.655,0-147.311,0-220.967,0c0,2.016,0,4.031,0,6.047C336.302,580.841,521.124,594.308,526.254,574.794z
	"/>
<path d="M591.057,432.449c-8.006,37.812-10.435,139.271-64.803,142.346c0,2.016,0,4.031,0,6.047
	c37.381-2.442,50.857-50.268,58.322-80.134c4.517-18.068,7.514-36.398,9.826-54.864
	C595.706,435.432,595.789,431.689,591.057,432.449z"/>
<path d="M610.064,384.929c-1.567,17.31-7.147,34.493-19.008,47.52c1.296,1.296,2.591,2.593,3.887,3.889
	C605.178,425.494,623.507,392.421,610.064,384.929z"/>
<path d="M584.143,316.457c-3.201,5.047,27.779,47.781,25.922,68.473c1.872,0.145,3.743,0.289,5.615,0.434
	c2.074-21.955-13.917-68.108-37.584-68.906c1.656-0.648,3.312-1.295,4.969-1.943c-2.138,0.533-3.541-2.071-4.754,1.729
	C579.785,320.748,581.049,315.654,584.143,316.457z"/>
<path d="M572.049,358.578c13.443-4.504,12.107-27.28,12.094-42.121c-2.016,0-4.031,0-6.047,0c0.666,13.68-0.146,27.589-5.834,40.178
	c1.801,0.216,3.602,0.432,5.402,0.648c-1.801-0.216-3.602-0.432-5.402-0.648c2.355,2.627-0.548,2.889,4.322,3.672
	C577.774,356.914,574.176,360.319,572.049,358.578z"/>
<path d="M560.168,340.65c-0.08-0.105,7.763,11.429,11.881,17.928c1.872-0.432,3.743-0.863,5.615-1.295
	c-2.591-12.266-11.825-20.658-23.111-16.633c1.151-0.936,2.302-1.873,3.453-2.809C551.609,344.12,556.625,340.168,560.168,340.65z"
	/>
<path d="M534.029,413.441c24.499-14.643,27.74-46.896,26.139-72.791c-1.872,0-3.743,0-5.615,0
	C555.878,370.509,536.204,392.903,534.029,413.441z"/>
<path d="M344.6,397.242c52.624,54.242,126.511,47.736,189.43,16.199c-0.863-1.728-1.727-3.456-2.59-5.184
	c-33.786,17.966-73.346,29.016-111.672,23.112c-18.482-2.847-35.801-10.506-51.191-20.952
	C358.763,403.757,349.703,388.123,344.6,397.242z"/>
<path d="M344.6,383.417c-0.413,5.029-2.949,7.842,0,13.824C353.088,390.384,347.457,388.962,344.6,383.417z"/>
<path d="M373.758,353.179c-5.427-2.397-21.785,18.927-29.158,30.238c1.728,0.864,3.456,1.728,5.184,2.592
	c8.248-13.106,22.203-23.788,28.297-36.719c-0.073,1.368-0.146,2.736-0.219,4.104C377.327,345.03,376.693,350.532,373.758,353.179z"
	/>
<path fill-rule="evenodd" clip-rule="evenodd" fill="#FFFF0C" d="M297.943,302.203c-41.021,0.364-75.565-18.145-114.048-18.145
	c-9.56,0-50.557-9.244-30.673-23.977c6.118-4.533,21.298,5.237,28.943,3.887c9.736-1.72,16.566-9.086,25.271-12.959
	c4.297-1.912,25.757-8.591,24.948-11.987c-1.859-7.809,4.562-20.086,12.853-22.14c23.795-5.895,14.38,31.447,28.297,40.607
	c12.364,8.138,39.986-8.107,50.76,2.16C340.903,275.478,301.062,283.621,297.943,302.203z"/>
<path d="M209.814,283.841c12.095,16.48,62.189,21.13,88.129,21.385c0-2.016,0-4.031,0-6.047
	c-32.513,0.908-61.337-7.347-90.289-20.52C207.894,278.602,206.975,279.76,209.814,283.841z"/>
<path d="M146.527,271.314c11.123,19.424,44.362,18.268,63.287,12.527c-0.72-1.727-1.44-3.455-2.16-5.182
	C183.642,284.705,165.506,275.077,146.527,271.314z"/>
<path d="M165.75,258.355c-12.205-4.214-20.798,0.216-19.223,12.959C150.731,265.887,160.037,260.555,165.75,258.355z"/>
<path d="M205.926,248.634c-11.69,8.244-25.287,16.521-40.176,9.721c-0.576,1.871-1.151,3.742-1.727,5.613
	C177.346,269.615,209.767,263.828,205.926,248.634z"/>
<path d="M230.334,242.371c-3.234-3.496-13.912,0.962-24.408,6.264c1.008,1.584,2.017,3.168,3.025,4.752
	c9.66-3.482,19.71-7.226,26.568-13.176c-0.576,1.296-1.152,2.592-1.729,3.889C236.386,235.672,233.792,241.126,230.334,242.371z"/>
<path d="M255.822,214.291c-16.693-3.584-29.505,11.914-25.488,28.08C235.846,229.852,251.699,220.585,255.822,214.291z"/>
<path d="M272.455,253.818c-7.833-12.268-3.182-29.727-16.633-39.527C257.067,222.708,261.183,261.184,272.455,253.818z"/>
<path d="M332.934,264.187c-10.16-13.216-52.328-12.515-63.504-5.617C287.742,265.526,315.96,261.994,332.934,264.187z"/>
<path d="M305.072,290.753c9.579-5.997,26.404-11.825,27.861-26.566C325.148,271.458,296.849,284.19,305.072,290.753z"/>
<path d="M297.943,305.226c2.693-4.691,5.998-8.521,7.129-14.473c-1.873-0.432-3.745-0.865-5.617-1.297
	c-2.211,3.419-2.698,8.391-4.32,12.098C292.182,299.831,302.425,305.677,297.943,305.226z"/>
<path d="M241.783,280.818c-10.652-3.466-22.237-4.308-33.264-2.377c0.144,1.873,0.288,3.745,0.432,5.617
	C222.12,281.978,235.248,288.026,241.783,280.818z"/>
<path d="M309.391,268.074c-20.495,10.599-44.565,18.687-67.607,12.744c-0.432,1.872-0.865,3.744-1.297,5.615
	C258.296,291,309.018,286.466,309.391,268.074z"/>
<path d="M310.039,224.009c-9.469,6.592-21.088,7.055-31.537,2.162c-0.864,1.728-1.728,3.456-2.592,5.184
	C287.901,237.106,313.695,237.983,310.039,224.009z"/>
<path fill-rule="evenodd" clip-rule="evenodd" d="M306.584,338.707c-6.922,6.434-13.219,13.527-18.793,21.168
	c21.148,2.834,41.585,15.969,57.023,30.24c8.669-18.47,20.785-21.7,1.295-35.101C334.28,346.881,320.954,340.249,306.584,338.707z"
	/>
<path fill="none" stroke="#000000" stroke-width="0" stroke-linecap="square" stroke-miterlimit="10" d="M306.584,338.707
	c-6.922,6.434-13.219,13.527-18.793,21.168c21.148,2.834,41.585,15.969,57.023,30.24c8.669-18.47,20.785-21.7,1.295-35.101
	C334.28,346.881,320.954,340.249,306.584,338.707"/>
<path fill-rule="evenodd" clip-rule="evenodd" fill="#8E6626" d="M458.432,541.097c15.832-15.531,16.94-61.635,5.184-78.191
	c11.687-0.11,71.005-10.158,77.111-0.434C557.398,489.025,475.126,536.016,458.432,541.097z"/>
<path fill-rule="evenodd" clip-rule="evenodd" d="M246.318,239.13c5.642,2.243,11.136-1.634,8.209,9.072
	C251.164,245.551,248.476,241.486,246.318,239.13z"/>
<path fill="none" stroke="#000000" stroke-width="0" stroke-linecap="square" stroke-miterlimit="10" d="M246.318,239.13
	c5.642,2.243,11.136-1.634,8.209,9.072C251.164,245.551,248.476,241.486,246.318,239.13"/>
<path fill-rule="evenodd" clip-rule="evenodd" d="M496.014,521.66c-4.395,3.364-9.55,5.932-14.256,8.855
	c14.494-13.807,14.902-53.122,5.4-68.906C514.944,453.699,507.283,509.753,496.014,521.66z"/>
<path d="M479.6,528.57c6.339,2.714,10.571,3.796,17.926-4.535c-1.008-1.584-2.016-3.168-3.023-4.752
	c-3.754,3.61-9.658,6.354-14.256,8.857c1.225,1.438,2.449,2.878,3.674,4.316c-1.225-1.438-2.449-2.878-3.674-4.316
	c0.599,2.272-2.201,2.354,0.865,5.182C486.226,532.103,480.043,531.408,479.6,528.57z"/>
<path d="M486.727,518.636c-2.074,3.669-3.917,7.016-7.127,9.934c1.44,1.296,2.88,2.591,4.32,3.887
	C493.126,524.84,490.471,523.304,486.727,518.636z"/>
<path d="M488.021,468.089c1.811,16.677,0.685,33.91-1.295,50.547c1.872,0.288,3.743,0.575,5.615,0.863
	C493.743,506.702,500.522,466.816,488.021,468.089z"/>
<path d="M487.158,458.802c1.509,2.964-2.681,5.363,0.863,9.287c1.729-0.72,3.457-1.44,5.186-2.16
	c-0.697-1.036-4.227-5.515-4.322-6.48c-0.575,1.656-1.151,3.312-1.727,4.969c0.575-1.656,1.151-3.312,1.727-4.969
	c-0.042,0.029-4.028,2.059-4.535,2.377C486.9,466.437,485.478,460.391,487.158,458.802z"/>
<path d="M501.199,458.369c-4.275,0.525-9.564-0.196-14.041,0.434c0,1.872,0,3.743,0,5.615
	C499.121,465.006,501.424,462.779,501.199,458.369z"/>
<path d="M505.518,464.849c0.708,0.216-3.113-5.073-4.318-6.48C494.971,468.81,500.939,463.454,505.518,464.849z"/>
<path d="M504.869,513.667c1.713-16.171,2.726-32.654,0.648-48.818C496.924,472.401,496.569,508.647,504.869,513.667z"/>
<path d="M497.525,524.035c2.609-3.889,5.821-5.539,7.344-10.367C492.744,516.894,494.211,519.323,497.525,524.035z"/>
<path fill-rule="evenodd" clip-rule="evenodd" fill="#FFFFFF" d="M483.057,529.003c-4.974,3.596-10.543,6.497-15.771,9.719
	c16.505-14.537,16.315-59.124,6.049-76.031C503.121,454.312,495.513,515.253,483.057,529.003z"/>
<path d="M465.127,536.779c6.543,3.683,12.276,2.583,19.441-5.4c-1.008-1.585-2.016-3.169-3.023-4.754
	c-5.226,3.235-10.782,6.139-15.771,9.721c1.225,1.44,2.449,2.882,3.674,4.322c-1.225-1.44-2.449-2.882-3.674-4.322
	c0.601,2.282-2.189,2.346,0.865,5.186C471.816,540.295,465.489,539.634,465.127,536.779z"/>
<path d="M473.119,525.763c-2.535,3.859-4.301,7.76-7.992,11.016c1.44,1.296,2.88,2.593,4.32,3.889
	C478.987,532.772,476.771,530.69,473.119,525.763z"/>
<path d="M474.416,469.601c2.453,18.287,1.072,37.86-1.297,56.162c1.872,0.287,3.743,0.574,5.615,0.861
	C480.47,512.281,487.438,469.374,474.416,469.601z"/>
<path d="M473.334,459.882c2.025,5.336-4.418,11.344,6.695,7.99c-0.797-1.221-4.813-6.345-4.965-7.342
	c-0.577,1.656-1.153,3.312-1.73,4.969c0.577-1.656,1.153-3.312,1.73-4.969c0.091-0.062-4.191,2.165-4.539,2.375
	C473.112,467.576,471.591,461.393,473.334,459.882z"/>
<path d="M488.455,459.449c-4.812,0.144-10.182-0.183-15.121,0.434c0,1.872,0,3.745,0,5.617
	C484.641,466.25,490.135,464.341,488.455,459.449z"/>
<path d="M493.424,466.578c-1.397-0.605-3.211-5.814-4.969-7.129C482.689,469.57,488.918,464.626,493.424,466.578z"/>
<path d="M492.561,520.148c1.514-17.752,2.985-35.832,0.863-53.57C485.798,474.291,483.805,514.926,492.561,520.148z"/>
<path d="M484.568,531.378c3.03-4.172,6.377-5.977,7.992-11.23C481.578,522.989,480.581,526.323,484.568,531.378z"/>
<path d="M362.527,551.035c-31.192-18.597-15.074-75.735-6.264-103.031c-1.873-0.576-3.745-1.152-5.617-1.729
	C346.007,461.241,330.042,570.865,362.527,551.035z"/>
<path d="M538.135,463.121c-7.433,61.076-122.102,108.608-175.607,87.914c-0.721,1.728-1.441,3.456-2.162,5.184
	c38.022,15.139,87.005-2.951,120.529-21.817C494.16,526.936,560.771,460.501,538.135,463.121z"/>
<path d="M528.631,461.826c5.84,0.833,10.113,0.535,15.553,1.295C535.774,455.725,527.182,451.75,528.631,461.826z"/>
<path d="M456.057,465.929c24.212-1.048,48.361-3.063,72.574-4.104c0-1.872,0-3.743,0-5.615
	C511.902,456.929,461.59,454.114,456.057,465.929z"/>
<path d="M461.885,483.857c11.664,9.382,52.998,2.866,71.496,2.811c0-2.017,0-4.034,0-6.051
	C514.853,480.673,473.563,474.402,461.885,483.857z"/>
<path d="M461.021,509.992c10.261,5.957,35.332,3.027,50.977,3.027c0-2.017,0-4.034,0-6.051
	C496.354,506.968,471.288,504.042,461.021,509.992z"/>
<path fill-rule="evenodd" clip-rule="evenodd" fill="#FFFFFF" d="M339.414,630.306c24.591,5.984,50.077,9.412,75.385,9.721
	c-18.708,21.896,27.214,17.902,39.527,16.846c24.482-2.101,50.157-11.81,74.09-1.943c-42.947,0.478-90.247,18.801-131.547,0
	c4.725-4.362,4.69-8.313,11.449-11.662C385.09,641.311,361.062,639.667,339.414,630.306z"/>
<path fill-rule="evenodd" clip-rule="evenodd" fill="#FFFFFF" d="M431.432,595.531c33.925-0.767,69.115-4.343,102.598,2.59
	C499.902,596.757,465.453,598.695,431.432,595.531z"/>
<path fill-rule="evenodd" clip-rule="evenodd" d="M206.143,576.523c-15.417-0.821-52.556,8.663-17.281,13.609
	C165.155,581.768,194.494,576.121,206.143,576.523z"/>
<path fill-rule="evenodd" clip-rule="evenodd" d="M552.176,621.667c-18.582-0.971-58.624,13.53-19.873,15.336
	C504,629.42,540.727,621.802,552.176,621.667z"/>
<path fill-rule="evenodd" clip-rule="evenodd" d="M233.143,578.251c21.048-1.203,24.959,14.918,1.727,14.904
	C246.887,587.065,246.213,581.939,233.143,578.251z"/>
<path fill-rule="evenodd" clip-rule="evenodd" d="M582.846,623.394c23.149-1.904,28.9,18.859,1.945,17.062
	C598.654,634.195,597.507,626.384,582.846,623.394z"/>
<path fill-rule="evenodd" clip-rule="evenodd" d="M211.975,584.73c15.58,1.378,24.753-25.051,31.537-38.016
	C234.044,560.244,223.694,573.08,211.975,584.73z"/>
<path fill-rule="evenodd" clip-rule="evenodd" d="M558.654,630.953c17.376,3.199,28.565-29.708,35.855-43.414
	C583.949,603.176,572.043,617.651,558.654,630.953z"/>
<path fill-rule="evenodd" clip-rule="evenodd" d="M379.807,584.082c20.71-0.308,32.036-50.902,38.664-67.609
	C407.019,539.876,394.168,562.342,379.807,584.082z"/>
<path fill-rule="evenodd" clip-rule="evenodd" fill="#FFFFFF" d="M610.494,550.386c11.587,1.594,33.077,4.62,42.336,13.393
	c0.705,0.668-12.965,4.91-2.809,13.174c8.266,6.726,26.2,3.417,36.289,9.723c-24.849-5.759-87.394-3.253-39.529-25.273
	C635.379,556.154,622.758,553.541,610.494,550.386z"/>
<path fill-rule="evenodd" clip-rule="evenodd" fill="#FFFFFF" d="M642.463,617.992c22.6-6.181,47.059-12.298,70.633-11.016
	C689.384,609.858,665.875,613.078,642.463,617.992z"/>
<path fill="none" stroke="#FFFFFF" stroke-width="0" stroke-linecap="square" stroke-miterlimit="10" d="M642.463,617.992
	c22.6-6.181,47.059-12.298,70.633-11.016C689.384,609.858,665.875,613.078,642.463,617.992"/>
<path fill-rule="evenodd" clip-rule="evenodd" d="M652.615,485.802c14.452-18.588,24.663-40.39,35.639-61.127
	C684.222,437.852,663.228,500.461,652.615,485.802z"/>
<path fill-rule="evenodd" clip-rule="evenodd" d="M525.389,259.433c14.456-18.583,24.669-40.389,35.641-61.127
	C556.999,211.484,536.006,274.098,525.389,259.433z"/>
<path fill-rule="evenodd" clip-rule="evenodd" d="M128.166,498.546c14.454-18.587,24.666-40.391,35.641-61.129
	C159.774,450.595,138.782,513.208,128.166,498.546z"/>
<path fill-rule="evenodd" clip-rule="evenodd" d="M207.223,427.699c10.303-13.291,18.005-28.829,25.488-43.848
	C228.688,396.551,216.99,433.846,207.223,427.699z"/>
<path fill-rule="evenodd" clip-rule="evenodd" d="M449.143,275.203c10.303-13.291,18.005-28.829,25.488-43.848
	C470.609,244.057,458.909,281.351,449.143,275.203z"/>
<path fill-rule="evenodd" clip-rule="evenodd" d="M637.494,422.73c10.303-13.291,18.005-28.829,25.488-43.848
	C658.963,391.584,647.262,428.879,637.494,422.73z"/>
<path fill-rule="evenodd" clip-rule="evenodd" d="M601.639,282.115c17.329-21.062,29.197-47.372,41.688-71.496
	C639.031,224.765,612.217,300.795,601.639,282.115z"/>
<path fill-rule="evenodd" clip-rule="evenodd" d="M421.064,410.203c14.789-18.372,24.995-40.518,35.855-61.344
	C452.834,362.175,431.634,425.479,421.064,410.203z"/>
</svg>
