<?xml version="1.0" encoding="UTF-8" standalone="no"?>
<!DOCTYPE svg PUBLIC "-//W3C//DTD SVG 1.1//EN" "http://www.w3.org/Graphics/SVG/1.1/DTD/svg11.dtd">
<svg width="100%" height="100%" viewBox="0 0 823 842" version="1.1" xmlns="http://www.w3.org/2000/svg" xmlns:xlink="http://www.w3.org/1999/xlink" xml:space="preserve" xmlns:serif="http://www.serif.com/" style="fill-rule:evenodd;clip-rule:evenodd;stroke-linejoin:round;stroke-miterlimit:2;">
    <g transform="matrix(0.565062,0,0,0.552633,181.108,199.993)">
        <path d="M630.205,1181.94C644.64,1180.43 696.08,1183.68 704.728,1172.44C707.913,1168.3 701.917,1150.23 701.917,1144.25C701.917,1121.95 704.502,1099.1 706.452,1076.97C709.636,1040.83 713.053,1003.75 721.032,968.323C725.322,949.277 761.904,943.708 763.586,965.622C765.027,984.41 764.106,1003.12 762.829,1021.89C761.277,1044.71 739.516,1145.85 758.727,1157.97C772.457,1166.63 818.062,1155.3 833.353,1152.46C859.367,1147.63 860.74,1123.42 868.239,1101.38C869.958,1096.33 878.504,1061.62 883.141,1061.42C892.995,1060.97 898.731,1104.06 900.42,1110.66C913.407,1161.42 920.315,1160.56 969.539,1159.27C997.91,1158.52 1012.24,1161.7 1013.82,1126.65C1015.23,1095.53 1015.33,1064.17 1015.33,1033.01C1015.33,971.885 1009.96,909.16 1012.96,848.441C1033.73,882.017 1052.03,932.356 1054.43,972.859C1055.81,996.142 1044.59,1012.42 1065.45,1026.75C1073.85,1032.53 1095.69,1058.54 1103.46,1059.91C1130.67,1064.7 1123.66,1022.11 1124.7,1004.62C1125.99,983.076 1121.15,989.703 1109.73,976.1C1098.46,962.675 1079.9,950.52 1073.65,935.011C1051.16,879.228 1031.41,821.145 1007.77,765.93C980.646,702.569 891.596,646.877 834.54,610.41C763.587,565.06 688.654,526.391 610.767,494.418C566.262,476.148 546.546,460.663 514.739,420.363C504.604,407.523 489.51,425.373 476.845,410.612C468.779,401.21 462.262,392.013 454.814,382.1C421.099,337.233 383.882,295.207 352.069,248.973C296.7,168.502 244.2,85.207 185.678,7.123C167.028,-17.762 63.252,-118.726 85.887,-145.805C91.791,-152.867 121.737,-146.348 132.11,-155.524C147.319,-168.979 148.827,-201.904 140.534,-219.028C121.72,-257.874 78.679,-250.533 46.358,-239.766C46.422,-266.73 69.517,-274.664 65.907,-299.921C63.473,-316.948 36.845,-334.678 22.167,-338.693C3.403,-343.827 -20.877,-339.148 -27.513,-319.253C-33.154,-302.338 -21.058,-294.097 -9.915,-282.714C14.804,-257.464 -26.445,-253.417 -40.474,-253.805C-51.855,-254.12 -124.093,-243.007 -124.747,-245.331C-134.33,-279.349 -126.097,-264.73 -116.288,-287.069C-111.732,-297.446 -103.299,-301.451 -109.593,-313.852C-132.025,-358.053 -230.727,-304.323 -208.736,-266.118C-199.4,-249.898 -180.658,-264.268 -180.658,-238.901C-180.658,-224.751 -178.865,-226.515 -190.162,-224.645C-208.589,-221.595 -235.54,-247.787 -259.065,-245.273C-313.956,-239.406 -320.991,-150.612 -268.568,-134.79C-253.711,-130.306 -215.655,-146.543 -208.736,-142.782C-202.507,-139.397 -183.759,-61.875 -176.121,-48.175C-159.209,-17.842 -136.362,-3.774 -151.173,29.803C-160.673,51.34 -189.911,100.745 -179.793,125.058C-159.055,174.89 -40.354,159.804 -3.752,144.283C28.677,130.531 35.326,115.352 27.566,83.156C23.561,66.536 1.558,28.588 10.935,14.683C48.863,66.958 72.27,136.021 100.853,193.147C140.957,273.297 180.668,353.506 223.044,432.425C299.128,574.123 349.353,725.968 361.935,886.89C365.799,936.313 364.583,985.421 360.098,1034.74C357.946,1058.41 354.083,1082.01 349.838,1105.38C344.717,1133.57 334.243,1143.44 361.718,1154.94C389.315,1166.5 427.524,1161.8 456.325,1158.4C482.348,1155.33 481.117,1120.98 486.35,1100.08C496.65,1058.97 505.027,1017 517.668,976.533C522.851,959.945 541.215,916.528 541.215,958.17C541.215,987.23 542.868,1016.25 545.102,1045.22C547.726,1079.24 551.326,1113.32 556.441,1147.07C561.53,1180.63 601.53,1174.98 630.205,1181.94Z"/>
    </g>
    <g transform="matrix(0.565062,0,0,0.552633,181.108,199.993)">
        <path d="M630.205,1162.29C663.497,1159.89 674.392,1168.54 677.021,1134.96C680.035,1096.5 683.048,1058.03 686.062,1019.56C686.533,1013.55 641.044,1016.95 635.173,1014.55C603.199,1001.48 595.275,951.118 617.247,926.2C635.489,905.512 653.272,913.319 675.351,922.749C698.499,932.637 709.653,933.479 735.181,933.114C744.595,932.979 790.81,929.963 791.559,940.456C793.381,965.988 792.444,991.833 790.91,1017.35C788.547,1056.67 783.684,1095.84 780.326,1135.08C807.367,1134.47 826.305,1142.52 836.162,1115.96C841.87,1100.57 847.036,1085.03 851.714,1069.3C860.082,1041.17 869.267,1018.95 861.541,990.788C858.718,980.497 841.086,954.18 848.799,945.642C866.104,926.486 877.73,962.448 881.414,971.347C899.708,1015.53 914.916,1059.5 928.503,1105.37C930.272,1111.35 934.137,1136.25 939.799,1136.48C966.958,1137.58 985.428,1148.03 987.687,1118.66C989.565,1094.24 987.227,1069.61 985.959,1045.22C957.807,1099.14 901.498,1049.92 910.792,1003.53C915.25,981.282 934.059,968.483 955.502,969.836C991.33,972.096 974.961,997.672 987.037,1022.11C987.916,982.305 999.1,957.094 956.043,954.821C937.486,953.842 917.794,953.575 904.096,938.517C877.952,909.78 895.188,855.779 936.28,860.107C947.051,861.242 958.218,871.967 969.975,870.472C973.644,870.005 979.678,874.947 982.934,872.417C986.087,869.968 984.565,843.855 980.344,843.475C958.388,841.499 932.161,841.854 912.518,830.3C857.648,798.027 915.815,750.319 903.446,706.96C893.689,672.758 883.083,704.303 862.73,708.366C823.775,716.143 806.587,699.067 793.935,666.029C782.36,635.803 754.116,573.842 714.663,571.098C690.585,569.423 699.379,585.409 687.016,606.415C666.749,640.852 618.37,650.976 585.712,631.036C562.813,617.055 568.874,590.856 573.616,568.508C575.428,559.974 597.411,500.352 573.182,508.889C563.842,512.18 562.824,551.29 547.045,559.866C527.808,570.321 500.308,557.005 484.406,545.068C462.897,528.922 459.607,515.794 461.941,489.665C462.835,479.66 467.174,469.166 467.127,459.208C467.004,433.546 454.925,425.386 436.693,403.456C422.884,386.845 416.503,362.747 397.965,380.017C382.829,394.12 378.246,395.545 359.341,397.651C341.461,399.643 321.704,397.447 309.986,382.53C299.844,369.619 285.953,354.443 289.574,336.522C296.376,302.856 340.783,317.969 350.271,298.29C350.99,297.786 351.71,297.282 352.429,296.778C331.972,270.265 335.016,272.083 306.853,277.339C295.776,279.406 283.621,282.737 272.294,282.737C250.959,282.737 223.002,275.456 217.429,251.419C210.951,223.481 241.565,217.395 247.022,192.882C252.383,168.798 251.489,146.83 236.222,127.003C234.786,156.849 240.473,189.55 205.548,202.386C178.694,212.255 157.634,181.459 143.448,157.457C123.104,123.037 184.786,44.377 210.302,89.202C177.887,47.736 181.283,66.774 139.886,71.491C110.432,74.847 110.663,62.307 101.005,38.225C93.435,19.346 76.291,2.009 73.143,-17.5C69.319,-41.194 100.763,-76.044 77.463,-93.1C65.019,-56.587 26.792,-28.104 40.525,9.931C62.494,70.774 99.643,131.428 128.747,188.968C172.877,276.214 217.583,362.031 261.71,449.704C284.508,495 308.996,541.073 327.374,588.378C341.071,623.632 337.762,668.029 354.806,701.564C364.587,720.807 373.568,718.399 391.417,731.479C409.884,745.012 409.127,764.215 411.829,784.937C414.657,806.627 422.715,827.514 407.294,845.634C384.79,872.077 381.229,849.122 386.893,887.815C390.018,909.167 408.215,906.445 420.902,921.449C443.482,948.153 424.987,968.762 400.813,985.771C381.783,999.162 386.656,1023.45 383.426,1045.97C380.789,1064.36 377.653,1082.65 374.462,1100.94C370.214,1125.3 361.587,1136.91 389.905,1140.58C409.527,1143.13 438.488,1147.5 451.141,1133.35C466.811,1115.82 468.447,1066.11 472.309,1043.6C477.44,1013.7 502.29,887.367 558.924,914.758C582.46,926.142 571.658,1017.52 572.75,1043.7C604.659,1020.82 666.271,1015.33 668.652,1066.6C670.862,1114.2 618.216,1119.81 580.957,1114.56C584.251,1157.6 588.729,1152.45 630.205,1162.29Z" style="fill:rgb(255,160,0);"/>
    </g>
    <g transform="matrix(0.565062,0,0,0.552633,181.108,199.993)">
        <path d="M593.918,1093.39C612.994,1091.77 633.558,1097.53 640.359,1077.62C642.434,1071.54 638.85,1051.22 633.662,1047.38C604.086,1025.5 585.17,1076.48 593.918,1093.39Z" style="fill:rgb(170,119,51);"/>
    </g>
    <g transform="matrix(0.565062,0,0,0.552633,181.108,199.993)">
        <path d="M947.729,1045.01C972.256,1039.15 954.78,978.805 938.872,994.456C926.899,1006.24 940.895,1035.12 947.729,1045.01Z" style="fill:rgb(170,119,51);"/>
    </g>
    <g transform="matrix(0.565062,0,0,0.552633,181.108,199.993)">
        <path d="M1098.49,1020.16C1106.44,1003.45 1091.51,993.765 1079.92,981.93C1067.02,1000.35 1084.32,1014.08 1098.49,1020.16Z" style="fill:rgb(170,119,51);"/>
    </g>
    <g transform="matrix(0.565062,0,0,0.552633,181.108,199.993)">
        <path d="M686.58,997.269C694.295,980.256 694.345,968.583 683.99,954.712C673.76,941.006 650.411,925.495 637.549,940.89C629.346,950.708 632.385,974.46 639.494,984.091C651.745,1000.69 665.409,995.921 686.58,997.269Z" style="fill:rgb(170,119,51);"/>
    </g>
    <g transform="matrix(0.565062,0,0,0.552633,181.108,199.993)">
        <path d="M393.256,961.41C409.318,954.792 409.334,936.42 393.256,931.387C391.939,941.179 391.168,954.407 393.256,961.41Z" style="fill:rgb(170,119,51);"/>
    </g>
    <g transform="matrix(0.565062,0,0,0.552633,181.108,199.993)">
        <path d="M985.959,936.572C990.667,912.581 992.632,895.07 968.12,889.624C947.321,885.003 931.702,872.759 921.588,891.426C898.663,933.735 966.82,935.033 985.959,936.572Z" style="fill:rgb(170,119,51);"/>
    </g>
    <g transform="matrix(0.565062,0,0,0.552633,181.108,199.993)">
        <path d="M625.453,893.587C658.495,893.09 689.993,898.009 687.014,854.276C685.478,831.724 671.224,799.161 647.918,789.905C616.908,777.59 586.334,808.213 578.367,836.346C568.346,871.736 595.541,884.575 625.453,893.587Z"/>
    </g>
    <g transform="matrix(0.565062,0,0,0.552633,181.108,199.993)">
        <path d="M632.15,877.603C688.84,880.162 652.663,804.099 630.205,804.378C616.118,804.553 599.302,845.029 602.557,856.005C606.346,868.78 619.329,874.861 632.15,877.603Z" style="fill:rgb(170,119,51);"/>
    </g>
    <g transform="matrix(0.565062,0,0,0.552633,181.108,199.993)">
        <path d="M787.021,873.501C840.912,869.991 857.891,867.167 871.046,811.184C881.348,767.343 853.497,753.033 816.181,743.898C773.155,733.365 752.355,763.273 735.398,802.433C725.692,824.848 715.116,852.541 737.343,866.154C748.117,872.751 774.309,872.543 787.021,873.501Z"/>
    </g>
    <g transform="matrix(0.565062,0,0,0.552633,181.108,199.993)">
        <path d="M780.326,854.277C819.93,852.618 841.221,853.668 845.127,810.856C847.48,785.069 843.532,768.679 814.453,764.418C790.05,760.841 776.744,773.655 766.286,795.848C761.894,805.166 756.82,813.536 754.838,823.821C749.839,849.758 752.355,849.228 780.326,854.277Z" style="fill:rgb(170,119,51);"/>
    </g>
    <g transform="matrix(0.565062,0,0,0.552633,181.108,199.993)">
        <path d="M376.623,834.185C398.689,829.225 387.249,754.639 367.549,743.898C369.937,772.275 368.131,808.682 376.623,834.185Z" style="fill:rgb(170,119,51);"/>
    </g>
    <g transform="matrix(0.565062,0,0,0.552633,181.108,199.993)">
        <path d="M951.182,819.929C960.254,819.281 969.327,818.632 978.399,817.984C977.209,802.578 980.727,775.749 974.077,762.045C967.309,748.099 943.171,733.961 931.526,723.379C928.586,738.676 924.296,753.471 920.727,768.631C913.188,800.658 919.874,808.94 951.182,819.929Z" style="fill:rgb(170,119,51);"/>
    </g>
    <g transform="matrix(0.565062,0,0,0.552633,181.108,199.993)">
        <path d="M699.975,785.804C738.716,791.459 783.352,723.46 783.352,687.63C783.352,645.603 744.121,620.278 704.079,630.281C682.76,635.607 648.183,664.26 642.95,686.874C635.401,719.49 664.276,781.741 699.975,785.804Z"/>
    </g>
    <g transform="matrix(0.565062,0,0,0.552633,181.108,199.993)">
        <path d="M548.557,784.509C566.46,787.492 610.169,769.882 623.729,758.154C654.329,731.686 630.835,699.821 609.794,677.154C551.168,614 484.528,772.502 548.557,784.509Z"/>
    </g>
    <g transform="matrix(0.565062,0,0,0.552633,181.108,199.993)">
        <path d="M558.061,765.712C571.864,760.396 612.713,747.573 612.713,731.909C612.713,712.067 590.796,693.179 577.287,680.61C567.462,698.555 518.828,753.638 558.061,765.712Z" style="fill:rgb(170,119,51);"/>
    </g>
    <g transform="matrix(0.565062,0,0,0.552633,181.108,199.993)">
        <path d="M704.295,764.417C739.618,751.353 787.259,644.785 722.113,651.665C659.341,658.295 648.761,736.395 704.295,764.417Z" style="fill:rgb(170,119,51);"/>
    </g>
    <g transform="matrix(0.565062,0,0,0.552633,181.108,199.993)">
        <path d="M448.549,719.921C483.932,724.199 526.875,717.343 537.111,678.126C547.085,639.912 544.431,614.313 514.216,588.595C497.455,574.329 485.72,560.368 464.103,562.24C445.926,563.813 422.758,578.305 419.281,596.693C414.783,620.471 421.188,715.509 448.549,719.921Z"/>
    </g>
    <g transform="matrix(0.565062,0,0,0.552633,181.108,199.993)">
        <path d="M463.453,703.72C494.349,703.699 510.86,689.478 514.863,659.658C518.992,628.904 510.746,620.383 488.509,601.556C422.733,545.868 444.799,671.414 463.453,703.72Z" style="fill:rgb(170,119,51);"/>
    </g>
    <g transform="matrix(0.565062,0,0,0.552633,181.108,199.993)">
        <path d="M844.91,686.441C902.254,690.25 815.281,632.46 807.541,627.045C814.799,647.312 818.351,683.879 844.91,686.441Z" style="fill:rgb(170,119,51);"/>
    </g>
    <g transform="matrix(0.565062,0,0,0.552633,181.108,199.993)">
        <path d="M618.76,620.998C645.694,613.295 657.593,609.524 667.791,582.977C683.525,542.019 647.667,541.161 612.926,524.875C602.435,556.309 578.337,605.982 618.76,620.998Z" style="fill:rgb(170,119,51);"/>
    </g>
    <g transform="matrix(0.565062,0,0,0.552633,181.108,199.993)">
        <path d="M527.391,543.021C538.065,534.617 540.973,515.066 545.79,501.31C547.445,496.583 531.327,489.091 528.037,484.48C517.166,469.246 507.156,451.168 493.478,438.261C489.378,482.998 470.539,523.961 527.391,543.021Z" style="fill:rgb(170,119,51);"/>
    </g>
    <g transform="matrix(0.565062,0,0,0.552633,181.108,199.993)">
        <path d="M378.35,526.603C432.857,532.845 476.635,411.735 408.807,409.314C385.746,408.491 343.454,425.235 337.526,450.355C331.715,474.976 353.722,520.552 378.35,526.603Z"/>
    </g>
    <g transform="matrix(0.565062,0,0,0.552633,181.108,199.993)">
        <path d="M388.07,505.65C395.566,493.101 415.729,478.665 413.959,466.505C410.578,443.276 403.406,410.45 374.248,437.394C357.319,453.037 367.567,499.869 388.07,505.65Z" style="fill:rgb(170,119,51);"/>
    </g>
    <g transform="matrix(0.565062,0,0,0.552633,181.108,199.993)">
        <path d="M357.398,376.265C373.331,376.218 401.518,360.871 389.378,345.406C360.931,309.167 362.552,313.806 319.818,330.742C296.547,339.965 354.183,375.314 357.398,376.265Z" style="fill:rgb(170,119,51);"/>
    </g>
    <g transform="matrix(0.565062,0,0,0.552633,181.108,199.993)">
        <path d="M268.838,260.058C285.902,257.826 302.965,255.595 320.029,253.363C305.197,231.187 290.365,209.01 275.533,186.834C265.398,212.845 219.754,247.772 268.838,260.058Z" style="fill:rgb(170,119,51);"/>
    </g>
    <g transform="matrix(0.565062,0,0,0.552633,181.108,199.993)">
        <path d="M200.15,184.89C240.443,154.976 171.825,68.96 161.918,126.138C158.875,143.701 188.883,176.766 200.15,184.89Z" style="fill:rgb(170,119,51);"/>
    </g>
    <g transform="matrix(0.565062,0,0,0.552633,181.108,199.993)">
        <path d="M-91.666,137.585C-65.316,137.607 -37.277,133.823 -13.474,121.926C17.766,106.312 0.563,87.873 -9.586,61.122C-31.393,3.649 9.583,-19.9 35.127,-67.614C46.406,-88.682 54.245,-111.401 55.106,-135.438C56.301,-168.77 44.994,-170.975 79.191,-171.293C102.054,-171.506 127.666,-172.197 118.502,-205.637C111.877,-229.812 93.064,-230.385 73.357,-225.725C57.85,-222.058 35.132,-202.486 19.791,-220.758C11.861,-230.202 19.164,-264.336 23.895,-275.621C28.532,-286.681 50.859,-290.344 35.019,-306.184C29.17,-312.033 20.552,-321.704 11.151,-320.548C-19.091,-316.83 15.048,-298.365 19.792,-287.932C23.468,-279.846 19.097,-259.434 16.55,-250.781C8.617,-223.831 2.139,-237.55 -17.792,-219.892C-38.738,-201.335 -37.992,-167.282 -78.056,-182.523C-89.243,-186.779 -93.214,-194.928 -101.816,-201.964C-109.907,-208.583 -120.278,-213.026 -126.441,-217.948C-140.085,-228.845 -151.063,-243.133 -152.361,-265.468C-153.036,-277.076 -133.868,-306.862 -133.785,-306.724C-144.713,-324.672 -179.982,-287.47 -184.978,-280.804C-161.357,-285.828 -156.241,-264.123 -155.277,-245.704C-154.074,-222.713 -143.633,-215.756 -167.914,-206.067C-203.54,-191.851 -257.29,-258.044 -276.994,-198.94C-305.615,-113.089 -205.086,-186.834 -184.978,-170.428C-174.648,-162 -179.944,-118.085 -175.474,-103.252C-168.66,-80.641 -153.451,-60.545 -141.885,-40.07C-126.39,-12.639 -111.28,-7.418 -120.813,25.089C-124.746,38.502 -132.561,51.844 -137.673,65.014C-142.673,77.895 -158.406,105.299 -151.497,117.934C-143.049,133.384 -106.869,134.774 -91.666,137.585Z" style="fill:rgb(255,160,0);"/>
    </g>
    <g transform="matrix(0.565062,0,0,0.552633,181.108,199.993)">
        <path d="M-27.082,114.257C-17.31,108.107 -21.267,79.311 -35.289,77.972C-55.251,76.065 -38.073,111.651 -27.082,114.257Z"/>
    </g>
    <g transform="matrix(0.565062,0,0,0.552633,181.108,199.993)">
        <path d="M-137.025,108.427C-125.988,107.889 -107.171,87.204 -119.097,77.107C-129.473,68.323 -141.794,101.723 -137.025,108.427Z"/>
    </g>
    <g transform="matrix(0.565062,0,0,0.552633,181.108,199.993)">
        <path d="M136.861,52.484C149.605,48.812 162.349,45.14 175.093,41.468C152.126,10.364 129.158,-20.74 106.191,-51.844C88.965,-26.913 108.804,-10.078 119.582,10.795C126.515,24.221 127.329,42.627 136.861,52.484Z" style="fill:rgb(170,119,51);"/>
    </g>
    <g transform="matrix(0.565062,0,0,0.552633,181.108,199.993)">
        <path d="M-151.498,-101.958C-129.233,-101.652 -87.478,-162.368 -119.529,-158.55C-130.079,-157.292 -167.17,-107.913 -151.498,-101.958Z"/>
    </g>
    <g transform="matrix(0.565062,0,0,0.552633,181.108,199.993)">
        <path d="M7.91,-106.278C27.653,-113.438 -14.598,-168.804 -27.514,-157.255C-45.968,-140.752 -6.379,-106.765 7.91,-106.278Z"/>
    </g>
    <g transform="matrix(0.565062,0,0,0.552633,181.108,199.993)">
        <path d="M-65.744,-198.942C-51.829,-202.589 -49.037,-219.146 -42.418,-230.909C-76.73,-239.032 -110.154,-227.505 -65.744,-198.942Z" style="fill:rgb(170,119,51);"/>
    </g>
</svg>
