<?xml version="1.0" encoding="utf-8"?>
<!-- Generator: Adobe Illustrator 16.0.4, SVG Export Plug-In . SVG Version: 6.00 Build 0)  -->
<!DOCTYPE svg PUBLIC "-//W3C//DTD SVG 1.1//EN" "http://www.w3.org/Graphics/SVG/1.1/DTD/svg11.dtd">
<svg version="1.1" id="Layer_1" xmlns="http://www.w3.org/2000/svg" xmlns:xlink="http://www.w3.org/1999/xlink" x="0px" y="0px"
	 width="822.05px" height="841.89px" viewBox="0 0 822.05 841.89" enable-background="new 0 0 822.05 841.89" xml:space="preserve">
<path fill-rule="evenodd" clip-rule="evenodd" d="M430.958,107.443c28.286,13.652,56.229,28.134,85.537,39.527
	c40.336,15.681,39.273,7.109,10.15,31.32c-8.041,6.685-13.429,7.14-14.473,11.232c-0.047,0.186,14.499,7.91,15.338,10.367
	c2.16,6.328-7.228,9.254-7.775,7.992c7.982,18.377,26.996,34.18,20.52,56.377c-14.876-8.9-22.986,20.813-31.969,30.023
	c12.778-13.104-31.354,6.71-15.336,4.752c9-1.1,11.697,1.464,21.708-3.24c15.824-7.437,30.979-17.898,44.821-28.512
	c14.403-11.044,32.146-38.369,49.248-43.199c3.323-0.938,24.098,2.315,27.215,4.104c14.915,8.556,8.811-0.711,8.426,17.064
	c-0.362,16.744-16.006,0.456-5.188,24.406c4.425,9.795,19.137,19.275,27.001,26.354c16.844,15.16,100.648,53.867,99.577,76.895
	c-0.74,15.901-19.604,16.428-30.023,20.09c-5.487,1.929-15.528-3.75-19.01,0.971c-4.203,5.7-9.256,13.856-15.768,17.172
	c-11.518,5.866-41.024-0.462-44.497,6.479c-5.445,10.885-14.851,19.608-27.646,18.901c-5.094-0.281-16.109-6.432-19.439-5.725
	c-5.016,1.064-9.454,11.849-16.418,13.176c-12.655,2.411-25.394,1.114-34.344,4.105c-26.552,8.873-42.702,26.548-64.801,45.359
	c23.038,2.653,47.094-0.005,70.418,1.078c54.69,2.54,109.598,31.271,162.43,48.602c19.325,6.339,39.483,11.16,58.104,19.44
	c27.267,12.126,6.73,141.923,6.049,173.231c-41.17-19.584-82.086-42.126-121.609-64.801c-24.464-14.035-48.485-29.229-70.847-46.44
	c-22.975-17.685-44.621-45.386-71.712-51.839c-44.28-10.549-102.207-4.563-148.176-5.182c-47.508-0.639-103.498-9.695-150.119-3.891
	c-17.993,2.24-118.125,56.343-118.585,55.729c-9.341-12.459-26.589-28.372-20.735-40.609c4.695-9.815,38.345-23.694,48.708-29.916
	c15.948-9.575,40.322-17.163,24.84-35.1c-3.879-4.494-24.259-20.758-23.651-26.354c2.238-20.604,30.629-16.193,39.527-5.074
	c4.381,5.474,18.579,29.939,25.178,29.277c32.195-3.231,64.34-6.321,96.598-8.842c16.653-1.302-22.859-36.053-25.008-36.959
	c-0.637-0.269-31.557-6.48-31.318-6.48c-12.737,0.011-30.007,19.616-38.234-4.535c-17.786,12.626-33.094-3.716-46.223-5.402
	c-15.25-1.959-53.793,10.228-41.039-24.189c-18.183,7.048-71.051,11.789-46.227-22.68c-12.872,0.402-38.891,3.063-43.199-14.473
	c-4.074-16.585,33.205-31.465,46.656-40.178c39.077-25.312,75.929-52.423,109.62-84.67c16.809-16.089-19.327-13.337-2.915-30.889
	c1.113-1.19,41.909-7.498,42.984-7.129c35.281,12.097,29.714,103.376,84.887,70.199c-2.664-3.527-5.328-7.055-7.992-10.582
	c-23.541,34.656-19.112-36.292-17.496-47.736c0.461-3.266-8.759-0.476,1.943-16.848c6.489-9.927,21.384-17.725,30.674-24.842
	c-7.746-7.911-4.002-9.64,9.072-12.742c-12.732-16.204-38.743,32.993-56.377,40.824c-9.175,4.075-36.12,13.776-25.488-13.824
	c0.767-1.992,31.046-15.739,35.424-17.713c16.314-7.354,26.849-5.353,27.434-23.326c0.663-20.354-34.044-3.65,6.695-20.09
	C352.55,132.967,393.304,125.703,430.958,107.443z"/>
<path fill-rule="evenodd" clip-rule="evenodd" fill="#0A1E28" d="M429.231,113.49c12.257,5.399,113.107,43.146,113.613,49.465
	c0.759,9.479-42.816,20.216-48.598,19.225c-16.746-2.872-30.395-21.798-45.359-28.945c-32.367-15.458-60.024-5.892-87.914,12.529
	c-27.222,17.98-32.248,11.033-59.832-7.992C343.873,146.372,389.63,133.661,429.231,113.49z"/>
<path fill-rule="evenodd" clip-rule="evenodd" fill="#0A1E28" d="M417.565,151.291c10.243,1.1,55.701,10.783,54.434,26.137
	c-0.438,5.304-25.896,12.527-32.402,15.119c-34.645,13.803-48.521-3.667-82.727-14.904
	C371.879,159.474,394.518,151.904,417.565,151.291z"/>
<path fill-rule="evenodd" clip-rule="evenodd" fill="#7A6800" d="M351.255,183.906c39.881,8.234,50.288,30.94,89.855,14.256
	c28.998-12.227,50.57-14.958,78.408,2.16c-16.854,6.051,15.182,38.855,17.279,55.512c-17.944-4.811-17.36,17.578-25.271,29.809
	c-10.367-9.067-71.4,39.008-38.232,24.3c24.092-10.683,55.583,5.885,72.145,25.165c-14.08,0.884-1.376,70.313-6.912,90.285
	c-17.495-9.962-17.867,37.346-33.047,49.25c-9.454,7.414-48.212,9.922-52.705,4.969c22.387-11.454,42.327-55.983,50.977-80.137
	c14.18-39.597-2.687-71.064-47.089-71.064c-19.444,0-38.65,11.218-56.376,11.447c-16.819,0.217-35.479-13.429-54.432-14.471
	c-20.978-1.153-34.654,4.639-48.384,17.604c-8.46,7.989-18.182,37.438-5.401,39.42c-1.385,14.943-1.522,49.611,12.529,52.705
	c2.03,17.412,13.972,30.228,25.92,42.119c-15.958,3.42-17.145,9.794-30.889,3.674c-12.886-5.738-18.365-25.788-25.055-36.289
	c-8.957-14.06-14.671-17.364-15.984-41.039c-0.787-14.186,12.587-52.017-9.504-41.258c4.615-26.176,32.559-50.382,56.591-59.725
	c9.453-3.675,8.845-2.118,17.389,5.293c18.35,15.917,2.944-0.151,17.368,2.471c52.312,9.512-1.084-16.641-9.484-3.551
	c-12.812-9.709-25.017-39.742-39.961-20.52c-5.037-18.646-5.889-52.469,1.729-64.584c8.314-13.224,32.9-16.105,30.24-31.537
	C332.012,187.085,341.64,185.056,351.255,183.906z"/>
<path fill-rule="evenodd" clip-rule="evenodd" fill="#0A1E28" d="M289.046,192.115C297.002,205.399,278.325,208.206,289.046,192.115
	L289.046,192.115z"/>
<path fill-rule="evenodd" clip-rule="evenodd" d="M356.653,194.921c28.464,2.946,39.723,30.266,68.688,21.816
	c6.231-1.818,61.125-28.459,43.635-13.393c10.178,19.36,9.58,32.258-0.219,49.897c-7.07,12.727-15.577,10.531-26.998,15.552
	c-6.831,3.003-10.4-1.695-17.066,1.943c-4.564,2.491-9.302,15.527-13.391,16.633c-13.149,3.556-9.275-7.991-22.248-13.393
	c-9.097-3.788-26.018-1.935-36.287-9.072c-25.619-17.807-17.658-47.262,5.832-62.854c-2.197-0.522-6.711-3.076-9.072-3.674
	C350.524,191.99,352.896,197.543,356.653,194.921z"/>
<path fill-rule="evenodd" clip-rule="evenodd" fill="#C49E75" d="M366.591,203.996c6.685,1.601,12.584,5.153,17.062,10.365
	c-4.819,3.224-34.591,23.545-39.311,21.387C331.445,229.848,358.875,208.043,366.591,203.996z"/>
<path fill-rule="evenodd" clip-rule="evenodd" fill="#0A1E28" d="M275.653,204.642c-0.643,7.721-9.301,17.029-18.791,22.248
	c-2.509-3.663-4.99-11.335-5.4-15.768C259.048,209.09,267.842,205.055,275.653,204.642z"/>
<path fill-rule="evenodd" clip-rule="evenodd" fill="#C49E75" d="M460.55,205.939c4.8,3.874,17.176,22.806,10.584,28.08
	c-3.502,2.802-28.268-15.25-31.537-17.713C445.345,210.994,452.729,207.166,460.55,205.939z"/>
<path fill-rule="evenodd" clip-rule="evenodd" fill="#FFFFFF" d="M389.702,219.33c4.032,2.16,8.064,4.32,12.096,6.48
	c-18.502,12.416-16.13,48.106-41.471,36.721C322.967,245.745,375.11,226.801,389.702,219.33z"/>
<path fill-rule="evenodd" clip-rule="evenodd" fill="#FFFFFF" d="M432.903,220.41c14.139,9.219,45.763,18.4,25.703,37.154
	c-26.687,24.949-27.224-17.86-39.529-30.025C423.344,225.129,428.197,221.531,432.903,220.41z"/>
<path fill-rule="evenodd" clip-rule="evenodd" fill="#B5D3C6" d="M409.358,229.914c25.401,11.058,12.939,37.564-1.512,52.273
	C386.426,267.656,381.458,241.472,409.358,229.914z"/>
<path fill-rule="evenodd" clip-rule="evenodd" fill="#7A6800" d="M608.942,229.914c5.57,1.535,19.849,0.929,23.977,3.889
	c18.008,12.911-5.075,5.174-9.289,16.848c0.207-0.573-18.347,9.841-2.375,7.561c5.645-0.806,41.63,42.493,50.326,49.248
	c16.083,12.494,96.763,54.256,83.811,72.576c-9.485,13.417-37.148,4.758-49.684,3.887c-46.495-3.23,2.243-3.886,4.539,7.777
	c3.69,18.745-30.613,19.687-40.824,17.279c-10.792-2.544-19.753-16.173-29.594-17.711c-20.551-3.212,11.12,10.941,12.098,16.631
	c6.426,37.408-34.709,11.623-46.227,13.824c-4.543,0.868-6.92,14.723-16.197,16.85c-7.829,1.795-19.548-3.857-25.922-1.73
	c-11.256,3.756-16.583,23.878-37.582,18.793c1.203-7.927,4.709-17.484,7.559-25.055c25.885,16.305,10.01-74.917,9.287-87.697
	c-0.462-8.173,16.319,6.685,5.832-13.393c-6.297-12.054-27.013-19.822-38.879-24.625
	C546.883,283.205,575.481,254.607,608.942,229.914z"/>
<path fill-rule="evenodd" clip-rule="evenodd" fill="#7A6800" d="M225.974,231.21c19.045,24.523,28.983,56.214,55.08,77.328
	c-10.731,9.7-57.672,79.632-27.432,58.752c-2.114,27.993-0.667,52.202,7.992,78.625c5.775,17.623,18.601,8.605-7.129,14.256
	c3.272-0.719-19.019-4.907-17.062-4.752c-12.59-0.997-24.33,15.139-29.809-10.154c-16.961,19.484-21.392,0.605-32.4-1.725
	c-0.959-0.203-0.537-5.957-5.4-6.699c-4.176-0.638-12.583,8.639-17.926,8.857c-25.192,1.029-41.868-16.686-15.77-33.049
	c-16.584,1.317-29.531,13.455-46.009,14.365c-34.047,1.881-8.64-23.345,3.241-30.781c11.439-7.16,40.463-30.293,8.532-11.123
	c-12.318,7.396-32.984,14.964-47.628,11.34c-26.19-6.482-20.558-12.107-6.049-25.703c18.06-16.923,47.007-29.767,67.501-44.605
	c24.037-17.404,46.061-36.677,69.228-54.973c32.858-25.949,12.901-7.822-0.217-32.398
	C198.439,235.395,212.891,237.108,225.974,231.21z"/>
<path fill-rule="evenodd" clip-rule="evenodd" d="M441.11,232.939c14.415,0.942,19.768,21.459,3.889,21.168
	C431.338,253.857,433.064,239.278,441.11,232.939z"/>
<path fill-rule="evenodd" clip-rule="evenodd" d="M371.343,233.587c16.485,5.893,7.319,28.735-7.346,21.168
	C350.811,247.951,361.362,235.183,371.343,233.587z"/>
<path fill-rule="evenodd" clip-rule="evenodd" d="M402.229,238.337c0-0.017,1.622,7.624,0.432,10.369
	C398.889,245.61,402.187,242.538,402.229,238.337z"/>
<path fill-rule="evenodd" clip-rule="evenodd" d="M416.271,239.634C417.518,249.042,417.98,252.529,416.271,239.634L416.271,239.634
	z"/>
<path fill-rule="evenodd" clip-rule="evenodd" fill="#FFFFFF" d="M446.294,243.523C446.222,247.06,446.195,248.388,446.294,243.523
	L446.294,243.523z"/>
<path fill-rule="evenodd" clip-rule="evenodd" fill="#FFFFFF" d="M371.989,245.251C373.602,248.278,373.887,248.813,371.989,245.251
	L371.989,245.251z"/>
<path fill-rule="evenodd" clip-rule="evenodd" fill="#FFFFA8" d="M336.565,328.195c33.011-1.052,49.765,17.589,81.109,8.64
	c24.345-6.951,63.529-12.803,80.891,9.503c26.869,34.521-19.211,89.961-35.424,122.691c-8.82,2.243-20.784,15.322-30.672,20.52
	c-17.126,9.003-42.256,12.099-59.832,4.104c-2.986-1.358-6.68-11.914-10.799-14.689c-5.507-3.712-15.094-1.438-21.385-4.535
	c-19.854-9.776-24.095-23.724-33.912-45.359c-1.897-4.181-15.887-50.74-15.984-50.762
	C286.384,349.766,311.573,329.555,336.565,328.195z"/>
<path fill-rule="evenodd" clip-rule="evenodd" fill="#442300" d="M166.575,476.369c25.04,30.218,27.884,39.763,64.582,36.504
	c15.968-1.418,43.445-9.449,58.754-4.316c13.795,4.626,12.106-1.717,14.471,15.441c1.042,7.562,2.232,20.379,9.072,25.379
	c10.401,7.603,19.772,6.04,25.703-6.047c15.932,18.646,26.442,4.324,32.4-11.662c6.318-16.952-2.279-20.041,12.744-27.865
	c4.485-2.336,24.89-2.443,29.594-0.646c25.282,9.655,0.254,21.045,16.197,41.471c8.683,11.123,20.153,14.878,27.434-1.078
	c26.625,48.509,31.753-40.462,34.992-43.418c10.201-9.312,74.679-3.215,88.559-1.078c54.89,8.45,112.314,38.025,164.058,56.046
	c45.841,15.964,44.593,15.232,43.782,64.248c-0.592,35.811-1.685,71.581-3.072,107.368c-40.107-13.705-80.351-40.867-117.07-62.209
	c-29.204-16.975-56.047-34.833-82.296-56.157c-14.121-11.472-27.433-24.287-40.501-36.937c-9.417-9.115-40.697-3.82-55.188-4.105
	c-49.91-0.982-99.748-4.858-149.688-4.969c-39.794-0.088-84.705-8.386-123.553-1.08c-30.706,5.774-89.951,56.767-109.727,46.008
	c-54.696-29.756,69.54-60.689,70.631-81.213C179.496,506.451,122.789,488.663,166.575,476.369z"/>
<path fill-rule="evenodd" clip-rule="evenodd" fill="#7A6800" d="M337.214,476.156c2.664,1.296,5.328,2.593,7.992,3.889
	c-1.254,1.125-2.152,3.907-3.457,5.182C336.595,481.984,337.633,476.893,337.214,476.156z"/>
<path fill-rule="evenodd" clip-rule="evenodd" fill="#C49E75" d="M473.511,482.419c21.231,4.812,14.396,68.443-1.08,66.957
	C452.835,547.495,461.581,491.718,473.511,482.419z"/>
<path fill-rule="evenodd" clip-rule="evenodd" fill="#C49E75" d="M324.685,483.068c25.262,2.886,16.178,75.215-6.479,61.773
	C301.001,534.634,307.161,489.414,324.685,483.068z"/>
<path fill-rule="evenodd" clip-rule="evenodd" fill="#C49E75" d="M352.981,483.498c20.743,4.006,22.277,61.165,3.025,62.641
	C334.055,547.821,343.213,491.148,352.981,483.498z"/>
<path fill-rule="evenodd" clip-rule="evenodd" fill="#C49E75" d="M445.646,484.146c16.82,5.96,15.281,64.06-2.375,64.801
	C421.547,549.859,435.079,491.264,445.646,484.146z"/>
</svg>
