<?xml version="1.0" encoding="UTF-8" standalone="no"?>
<!DOCTYPE svg PUBLIC "-//W3C//DTD SVG 1.1//EN" "http://www.w3.org/Graphics/SVG/1.1/DTD/svg11.dtd">
<svg width="100%" height="100%" viewBox="0 0 823 842" version="1.1" xmlns="http://www.w3.org/2000/svg" xmlns:xlink="http://www.w3.org/1999/xlink" xml:space="preserve" xmlns:serif="http://www.serif.com/" style="fill-rule:evenodd;clip-rule:evenodd;stroke-linejoin:round;stroke-miterlimit:2;">
    <g transform="matrix(0.375689,0,0,0.550449,260.765,199.172)">
        <path d="M523.953,1158.11C547.349,1159.03 552.078,1132.12 570.05,1133.26C583.244,1134.09 629.618,1144.99 639.946,1137.38C653.418,1127.44 650.094,1093.66 650.094,1078.19C650.094,1063.84 635.291,1009.25 640.807,999.787C647.322,988.609 671.205,993.744 684.225,993.951C715.639,994.45 748.077,989.948 779.264,991.686C803.785,993.052 824.397,1037.49 836.071,1057.46C798.734,1060.49 801.935,1104.38 819.225,1127.65C828.597,1140.27 827.87,1136.84 840.823,1142.56C844.87,1144.35 851.225,1138.68 855.079,1139.75C862.552,1141.83 866.401,1152 873.009,1153.36C897.021,1158.31 914.613,1136.55 940.187,1132.84C962.213,1129.65 984.964,1132.1 1007.14,1130.25C1038.1,1127.66 996.092,1037.08 990.625,1017.28C983.634,991.954 975.403,988.737 994.397,980.559C1006.36,975.409 1032.25,981.039 1045.59,980.667C1108.53,978.912 1172.44,975.113 1233.08,956.151C1423.98,896.453 1569,700.575 1423.59,518.643C1392.87,480.208 1355.64,446.464 1310.84,425.33C1279.32,410.459 1245.22,400.446 1211.91,391.742C1190.26,386.086 1165.43,388.603 1183.18,364.959C1191.1,354.417 1211.74,326.447 1197.01,316.359C1186.04,308.849 1135.84,331.48 1123.67,335.257C1095.22,344.094 1070.65,339.251 1042.78,342.925C1031.36,344.431 1017.6,331.766 1016.86,357.398C1016.56,367.856 1047.87,398.326 1054.55,407.942C1075.19,437.64 1091.92,468.783 1107.8,501.039C1120.02,525.873 1131.63,537.459 1138.79,501.578C1141.03,490.368 1141.48,478.931 1142.36,467.558C1144,446.318 1141.39,446.4 1160.93,445.093C1191.3,443.062 1231.7,472.175 1258.13,484.62C1273.53,491.871 1296.09,499.876 1308.68,511.62C1318.69,520.957 1323.58,522.502 1323.58,537.556C1323.58,553.98 1341.81,545.281 1348.21,553.527C1360.83,569.798 1331.61,585.341 1340,601.047C1345.55,611.455 1358.43,602.263 1363.11,607.527C1369.72,614.964 1370.66,638.72 1379.85,655.047C1389.28,671.816 1363.11,668.618 1359,683.342C1356.29,693.072 1369.64,703.756 1367.43,711.854C1362.62,729.447 1343.24,711.529 1331.79,723.948C1322.72,733.78 1333.58,747.177 1330.06,757.001C1321.87,779.87 1324.86,764.798 1300.04,763.587C1281.7,762.692 1292.45,785.477 1281.24,788.536C1258.17,794.834 1253.85,747.956 1225.3,785.513C1208.44,737.787 1191.02,785.142 1171.52,777.738C1153.99,771.084 1170.24,743.374 1142.57,742.963C1132.93,742.819 1121.76,750.059 1115.14,755.49C1104.63,706.662 1105.15,685.654 1056.38,716.174C1051.78,698.531 1050.38,657.337 1031.98,650.731C1022.09,647.18 1002.49,662.738 997.85,660.446C976.904,650.091 1004.24,597.524 965.993,603.534C952.84,605.601 920.833,628.209 916.589,612.454C912.457,597.115 912.115,560.134 892.552,558.065C881.402,556.886 872.235,565.369 865.013,556.77C848.637,537.273 880.963,506.289 891.796,496.073C898.686,489.576 911.617,497.569 907.564,483.434C904.494,472.729 900.571,461.566 899.138,450.498C895.971,426.037 902.474,411.313 915.125,391.097C927.599,371.165 931.963,359.934 902.378,358.049C885.586,356.979 843.934,381.285 833.044,370.576C813.35,351.209 881.467,275.845 814.575,302.213C739.326,331.876 682.104,394.602 623.091,446.608C623.832,403.878 582.176,434.64 563.478,442.506C569.51,422.326 626.635,335.139 612.726,318.088C601.489,304.312 535.167,332.592 520.71,336.016C529.822,297.922 565.292,268.016 576.436,228.989C584.393,201.122 544.752,214.72 527.402,218.081C516.012,220.287 499.892,227.966 488.308,226.288C467.262,223.239 474.679,229.121 483.773,210.52C493.087,191.467 509.691,174.589 520.277,155.657C540.989,118.616 535.655,111.592 494.138,113.106C447.344,114.814 435.888,129.012 459.796,85.889C469.404,68.558 488.708,36.569 474.485,24.543C463.627,15.362 439.836,22.928 427.182,20.439C424.243,19.861 408.618,21.467 407.524,18.712C405.21,12.887 458.529,-18.871 465.878,-23.962C532.679,-70.245 381.651,-71.708 410.008,-118.988C421.19,-137.631 456.563,-182.467 450.509,-205.28C442.819,-234.259 369.261,-192.376 347.476,-182.6C341.871,-204.067 361.339,-296.393 342.939,-300.752C319.891,-306.212 276.76,-225.031 265.396,-208.52C246.506,-227.969 230.327,-292.998 205.781,-300.752C177.122,-309.806 186.009,-214.76 181.804,-193.184C161.356,-222.472 132.162,-252.076 93.892,-236.383C71.868,-227.352 68.301,-209.886 54.796,-194.049C44.355,-181.805 48.88,-180.33 29.848,-178.928C16.963,-177.979 3.478,-178.551 -9.354,-180.008C-53.391,-185.01 -82.298,-217.718 -122.971,-232.928C-142.98,-240.41 -163.512,-244.16 -184.856,-244.16C-206.245,-244.16 -216.306,-256.834 -234.643,-265.76C-289.392,-292.409 -322.463,-241.332 -315.858,-190.592C-313.567,-172.996 -303.538,-157.19 -302.899,-140.049C-302.462,-128.322 -306.88,-115.043 -307.328,-103.004C-308.226,-78.837 -304.186,-54.23 -297.069,-31.184C-286.819,2.01 -258.437,63.176 -220.819,73.144C-183.772,82.96 -121.917,50.311 -84.631,42.363C-30.991,30.931 23.735,21.839 78.775,26.058C118.245,29.083 184.111,39.174 214.638,66.882C236.871,87.062 241.292,144.353 249.306,175.314C275.112,275.012 298.849,375.209 321.99,475.554C344.976,575.233 367.689,674.99 391.867,774.388C400.975,811.833 405.978,851.641 428.48,883.577C448.082,911.397 464.846,934.669 477.078,967.167C484.417,986.665 518.214,1052.68 500.621,1067.39C482.316,1082.7 468.85,1052.4 456.559,1081.65C452.6,1091.07 454.78,1105.73 456.342,1115.45C460.446,1140.99 458.417,1151.38 485.721,1151.85C507.156,1152.22 505.795,1140.57 523.953,1158.11Z"/>
    </g>
    <g transform="matrix(0.375689,0,0,0.550449,260.765,199.172)">
        <path d="M490.039,1128.09C505.807,1124.82 501.597,1091.94 484.853,1087.05C480.036,1099.81 482.972,1119.06 490.039,1128.09Z" style="fill:rgb(51,204,102);"/>
    </g>
    <g transform="matrix(0.375689,0,0,0.550449,260.765,199.172)">
        <path d="M535.83,1125.28C552.824,1104.2 556.418,1108.01 571.039,1110.16C601.897,1114.7 620.56,1128.33 621.799,1090.07C622.415,1071.04 621.252,1051.46 617.695,1032.73C615.307,1020.16 600.665,988.144 603.653,976.888C608.492,958.663 718.689,970.774 746.217,969.113C762.87,968.108 807.655,959.266 816.957,979.915C825.031,997.84 835.492,1013.93 847.303,1029.59C854.139,1038.66 861.56,1050.92 869.551,1058.76C880.295,1069.29 914.186,1076.04 917.287,1088.35C924.041,1115.14 871.364,1078.39 888.992,1124.42C916.661,1103.51 955.689,1114.34 987.705,1110.59C979.53,1075.03 968.857,1039.87 957.57,1005.19C948.662,977.814 936.721,960.23 964.59,954.424C998.024,947.459 1047.38,957.476 1083.82,955.291C1175.95,949.768 1275.92,925.485 1350.58,869.105C1435.09,805.291 1484.4,701.806 1447.35,597.16C1412.61,499.027 1309.63,436.949 1213.21,414.857C1198.21,411.42 1164.18,409.938 1153.16,402.33C1129.59,386.074 1152.83,370.919 1167.2,350.922C1133.18,356.212 1101.14,371.476 1066.33,371.875C1074.21,405.692 1103.44,440.199 1121.19,469.725C1124.9,456.057 1118.62,426.612 1128.1,415.938C1140.97,401.451 1185.02,422.316 1203.16,429.331C1249.62,447.297 1301.83,470.382 1340.64,501.688C1372.59,527.458 1393.32,561.617 1403.5,601.485C1414.62,645.017 1416.89,667.289 1407.39,707.973C1386.64,796.825 1301.56,851.415 1212.34,847.508C1100.63,842.616 1019.17,729.534 927.441,677.082C899.025,660.834 869.361,646.897 838.988,634.748C823.997,628.752 807.466,622.925 798.271,624.594C803.951,623.564 775.824,636.948 777.101,636.26C764.063,643.29 731.209,679.462 718.132,671.035C699.025,658.723 728.804,634.473 738.868,625.672C745.556,619.823 754.341,616.675 762.847,614.551C773.371,611.923 776.798,596.578 783.364,587.873C793.6,574.302 835.457,553.777 835.961,542.729C836.952,520.996 845.511,506.162 858.101,489.376C861.513,484.827 873.206,481.355 875.163,476.415C878.496,468 871.26,448.194 870.736,438.294C869.784,420.29 873.647,401.758 883.589,386.562C835.308,386.395 774.666,426.565 735.411,450.283C712.539,464.102 633.508,511.144 651.174,537.655C671.41,568.022 689.345,610.352 686.814,647.703C686.231,656.307 689.971,669.864 679.472,673.842C656.089,682.7 658.213,647.347 656.79,636.26C652.208,600.562 652.212,583.466 619.852,569.944C608.621,565.251 606.352,566.849 593.719,558.284C581.91,550.278 571.082,540.409 558.941,532.471C536.281,517.656 526.437,500.477 516.821,476.2C481.891,388.023 454.125,296.865 422.86,207.499C406.435,160.55 385.502,115.261 372.534,67.099C365.375,40.509 360.282,19.979 365.839,-5.477C371.854,-33.032 378.714,-52.851 368.214,-80.643C343.388,-146.355 261.097,-185.173 194.767,-164.02C205.512,-146.083 186.901,-115.895 178.783,-130.972C169.766,-147.718 165.04,-166.517 155.672,-183.03C140.811,-209.225 109.149,-238.162 83.527,-206.356C101.903,-195.029 176.767,-150.4 167.119,-121.684C160.329,-101.476 60.479,-85.021 45.726,-101.811C38.476,-110.061 45.401,-143.569 45.67,-154.608C45.792,-159.583 19.189,-157.118 13.974,-157.108C-10.82,-157.061 -36.776,-154.942 -59.79,-166.073C-99.579,-185.317 -130.008,-213.491 -176.106,-219.315C-168.093,-209.544 -155.364,-183.724 -179.344,-183.891C-191.421,-183.975 -210.865,-215.119 -219.63,-223.42C-241.677,-244.302 -284.227,-270.511 -289.505,-222.988C-293.266,-189.125 -284.206,-165.235 -257.106,-145.445C-247.41,-138.364 -229.999,-138.157 -237.665,-124.275C-245.349,-110.361 -269.262,-119.709 -277.626,-126.652C-287.478,-79.967 -268.627,27.198 -214.771,48.741C-183.827,61.118 -110.14,24.462 -75.882,17.852C22.821,-1.195 107.601,-5.46 202.975,30.81C225.484,39.371 240.228,40.506 249.848,60.402C258.99,79.309 260.592,110.964 266.262,131.898C279.484,180.713 290.242,229.877 302.983,278.777C325.866,366.602 346.262,455.526 364.544,544.461C373.344,587.271 384.896,629.329 394.999,671.68C412.337,744.355 419.201,819.734 462.39,881.85C486.552,916.601 503.322,954.527 517.691,994.602C524.738,1014.25 526.805,1039.89 535.832,1058.11C538.25,1062.99 600.441,1117.09 551.061,1102.49C543.413,1100.23 535.134,1094.25 528.274,1090.08C525.476,1102.27 529.811,1118.07 535.83,1125.28Z" style="fill:rgb(51,204,102);"/>
    </g>
    <g transform="matrix(0.375689,0,0,0.550449,260.765,199.172)">
        <path d="M844.713,1121.83C872.098,1117.94 854.911,1088.54 836.07,1083.16C833.258,1096.64 835.912,1111.51 844.713,1121.83Z" style="fill:rgb(51,204,102);"/>
    </g>
    <g transform="matrix(0.375689,0,0,0.550449,260.765,199.172)">
        <path d="M1238.26,817.912C1246.63,817.552 1255.78,813.938 1263.97,812.082C1251.78,788.117 1239.79,797.418 1238.26,817.912Z" style="fill:rgb(114,244,51);"/>
    </g>
    <g transform="matrix(0.375689,0,0,0.550449,260.765,199.172)">
        <path d="M1192.9,815.105L1202.84,815.105C1201.98,808.292 1199.35,797.834 1196.14,791.779C1189.26,796.047 1184.04,802.844 1181.02,810.353C1184.98,811.937 1188.94,813.521 1192.9,815.105Z" style="fill:rgb(114,244,51);"/>
    </g>
    <g transform="matrix(0.375689,0,0,0.550449,260.765,199.172)">
        <path d="M1306.09,799.771C1334.27,791.569 1301.64,782.317 1306.09,799.771Z" style="fill:rgb(114,244,51);"/>
    </g>
    <g transform="matrix(0.375689,0,0,0.550449,260.765,199.172)">
        <path d="M1143.44,796.964C1145.92,791.45 1141.5,776.679 1139.12,766.507C1118.04,776.997 1125.18,791.128 1143.44,796.964Z" style="fill:rgb(114,244,51);"/>
    </g>
    <g transform="matrix(0.375689,0,0,0.550449,260.765,199.172)">
        <path d="M1354.26,763.05C1359.51,755.706 1364.77,748.362 1370.02,741.019C1348.36,732.859 1345.44,750.026 1354.26,763.05Z" style="fill:rgb(114,244,51);"/>
    </g>
    <g transform="matrix(0.375689,0,0,0.550449,260.765,199.172)">
        <path d="M1085.12,753.113C1085.12,744.738 1082.49,735.705 1081.23,727.408C1064.24,736.561 1071.57,750.179 1085.12,753.113Z" style="fill:rgb(114,244,51);"/>
    </g>
    <g transform="matrix(0.375689,0,0,0.550449,260.765,199.172)">
        <path d="M1025.94,705.376C1023.99,695.368 1022.05,685.36 1020.1,675.353C995.624,687.33 1011.01,702.868 1025.94,705.376Z" style="fill:rgb(114,244,51);"/>
    </g>
    <g transform="matrix(0.375689,0,0,0.550449,260.765,199.172)">
        <path d="M1387.09,696.74C1387.88,693.211 1388.67,689.681 1389.46,686.152C1387.38,686.369 1385.29,686.586 1383.2,686.802C1383.28,687.34 1387.43,699.977 1387.09,696.74Z" style="fill:rgb(114,244,51);"/>
    </g>
    <g transform="matrix(0.375689,0,0,0.550449,260.765,199.172)">
        <path d="M967.83,666.283C965.887,654.043 963.943,641.803 962,629.562C950.408,633.521 938.816,637.48 927.225,641.439C940.76,649.72 954.295,658.001 967.83,666.283Z" style="fill:rgb(114,244,51);"/>
    </g>
    <g transform="matrix(0.375689,0,0,0.550449,260.765,199.172)">
        <path d="M888.992,624.81C886.256,610.195 883.519,595.58 880.783,580.964C865.879,588.235 850.974,595.507 836.07,602.778C853.357,610.117 872.295,618.875 888.992,624.81Z" style="fill:rgb(114,244,51);"/>
    </g>
    <g transform="matrix(0.375689,0,0,0.550449,260.765,199.172)">
        <path d="M1370.02,587.011C1370.91,585.117 1374.76,586.659 1371.54,582.259C1368.5,584.148 1370.14,586.77 1370.02,587.011Z" style="fill:white;"/>
    </g>
    <g transform="matrix(0.375689,0,0,0.550449,260.765,199.172)">
        <path d="M588.969,515.515C595.03,497.291 592.983,471.044 594.149,450.716C570.431,462.633 548.059,462.18 556.35,486.786C560.591,499.374 577.671,510.265 588.969,515.515Z" style="fill:rgb(114,244,51);"/>
    </g>
    <g transform="matrix(0.375689,0,0,0.550449,260.765,199.172)">
        <path d="M624.605,507.306C633.292,500.035 630.324,492.828 620.287,486.786C615.697,497.181 617.909,502.249 624.605,507.306Z" style="fill:white;"/>
    </g>
    <g transform="matrix(0.375689,0,0,0.550449,260.765,199.172)">
        <path d="M649.016,483.98C680.024,457.483 714.116,435.501 749.457,415.289C762.994,407.547 798.249,396.931 807.125,385.914C814.01,377.369 805.533,348.547 811.232,326.945C774.54,342.057 741.614,366.567 712.519,393.258C693.926,410.316 619.779,463.991 649.016,483.98Z" style="fill:rgb(51,204,102);"/>
    </g>
    <g transform="matrix(0.375689,0,0,0.550449,260.765,199.172)">
        <path d="M536.908,439.912C556.215,408.267 572.522,374.902 584.217,339.691C558.729,347.322 533.24,354.954 507.752,362.586C517.471,388.361 527.189,414.136 536.908,439.912Z" style="fill:rgb(114,244,51);"/>
    </g>
    <g transform="matrix(0.375689,0,0,0.550449,260.765,199.172)">
        <path d="M497.381,326.73C517.562,298.091 538.902,269.615 549.008,235.578C521.887,241.002 498.497,244.002 472.11,250.914C480.207,275.767 488.179,303.928 497.381,326.73Z" style="fill:rgb(114,244,51);"/>
    </g>
    <g transform="matrix(0.375689,0,0,0.550449,260.765,199.172)">
        <path d="M456.342,209.875C473.756,187.284 499.553,162.196 505.59,133.627C480.745,135.933 455.99,137.473 431.07,138.811C438.276,160.629 443.421,192.472 456.342,209.875Z" style="fill:rgb(114,244,51);"/>
    </g>
    <g transform="matrix(0.375689,0,0,0.550449,260.765,199.172)">
        <path d="M419.621,105.761C430.071,94.345 438.986,80.463 444.682,66.017C459.511,28.399 435.003,41.793 398.672,42.691C399.223,63.286 409.585,90.561 419.621,105.761Z" style="fill:rgb(114,244,51);"/>
    </g>
    <g transform="matrix(0.375689,0,0,0.550449,260.765,199.172)">
        <path d="M400.615,-3.967C418.087,-14.682 440.81,-23.759 453.535,-40.254C437.623,-50.262 421.711,-60.27 405.799,-70.277C406.159,-48.292 402.057,-21.685 400.615,-3.967Z" style="fill:rgb(114,244,51);"/>
    </g>
    <g transform="matrix(0.375689,0,0,0.550449,260.765,199.172)">
        <path d="M-537.904,-5.262C-488.741,0.418 -476.73,-52.961 -479.8,-89.934C-481.963,-115.974 -490.001,-123.652 -459.496,-124.819C-437.555,-125.658 -415.476,-126.097 -394.696,-133.999C-417.991,-138.133 -441.569,-135.187 -465.004,-134.323C-474.042,-133.99 -486.051,-132.372 -494.008,-136.351C-517.712,-148.203 -509.093,-135.125 -508.96,-121.472C-508.816,-106.658 -496.64,-85.713 -497.513,-66.607C-498.548,-43.96 -516.36,-22.078 -540.281,-27.728C-549.138,-29.82 -549.618,-40.793 -554.754,-41.984C-563.799,-44.081 -569.358,-36.673 -579.16,-37.664C-598.962,-39.665 -623.581,-54.627 -624.305,-76.76C-624.816,-92.385 -607.24,-94.26 -617.393,-111.969C-620.628,-117.613 -637.685,-119.726 -643.313,-131.408C-652.899,-151.308 -639.95,-175.369 -642.665,-194.263C-645.072,-211.022 -649.278,-210.317 -643.747,-228.39C-642.523,-232.389 -635.21,-232.522 -633.378,-236.814C-631.501,-241.21 -635.96,-248.758 -634.89,-251.287C-625.025,-274.599 -606.089,-311.806 -573.329,-288.656C-564.942,-282.729 -564.199,-268.703 -559.722,-265.545C-550.823,-259.266 -533.999,-262.431 -523.218,-255.824C-510.365,-247.949 -509.577,-242.095 -504.642,-230.336C-502.942,-226.284 -507.66,-220.103 -505.939,-215.863C-503.557,-209.993 -494.876,-206.942 -493.41,-201.824C-490.678,-192.287 -486.258,-191.012 -488.226,-181.736C-490.599,-170.558 -517.715,-159.324 -526.458,-162.295C-534.98,-165.191 -533.273,-182.527 -548.491,-183.68C-572.047,-185.464 -547.22,-160.142 -544.386,-154.953C-541.664,-149.969 -553.405,-142.214 -546.978,-137.672C-533.256,-127.973 -534.111,-149.845 -528.512,-149.755C-462.354,-148.695 -396.197,-147.636 -330.039,-146.576C-314.874,-146.333 -327.26,-160.372 -340.091,-160.535C-386.158,-161.121 -432.224,-161.707 -478.291,-162.294C-461.364,-190.274 -478.101,-204.431 -488.227,-228.39C-499.943,-256.113 -499.344,-263.397 -526.674,-280.015C-540.131,-288.197 -540.754,-277.396 -550.203,-295.488C-554.689,-304.079 -566.532,-309.939 -575.707,-312.631C-594.24,-318.068 -612.778,-314.233 -626.683,-300.32C-648.106,-278.885 -665.935,-230.979 -662.539,-200.528C-660.564,-182.815 -661.956,-166.986 -661.244,-149.336C-660.181,-122.98 -644.493,-111.177 -637.914,-90.152C-629.353,-62.794 -639.111,-38.102 -606.162,-22.545C-584.108,-12.132 -558.027,-21.37 -537.904,-5.262Z"/>
    </g>
    <g transform="matrix(0.375689,0,0,0.550449,260.765,199.172)">
        <path d="M382.471,-116.934C400.034,-138.74 413.135,-164.118 422.645,-190.373C402.985,-187.849 378.064,-179.838 361.952,-167.91C357.405,-164.544 343.275,-161.051 342.942,-154.734C342.559,-147.467 377.808,-120.165 382.471,-116.934Z" style="fill:rgb(114,244,51);"/>
    </g>
    <g transform="matrix(0.375689,0,0,0.550449,260.765,199.172)">
        <path d="M72.295,-119.309C108.575,-125.446 146.663,-117.188 114.848,-151.278C101.964,-165.083 87.365,-177.867 69.055,-183.678C66.761,-167.334 53.229,-127.282 72.295,-119.309Z" style="fill:rgb(255,255,0);"/>
    </g>
    <g transform="matrix(0.375689,0,0,0.550449,260.765,199.172)">
        <path d="M-226.434,-127.518C-179.76,-126.869 -239.558,-202.32 -265.53,-182.813C-275.667,-175.199 -236.983,-138.807 -226.434,-127.518Z"/>
    </g>
    <g transform="matrix(0.375689,0,0,0.550449,260.765,199.172)">
        <path d="M75.75,-138.536C90.806,-139.948 96.121,-166.943 81.584,-169.423C69.078,-171.556 65.243,-144.864 75.75,-138.536Z"/>
    </g>
    <g transform="matrix(0.375689,0,0,0.550449,260.765,199.172)">
        <path d="M-385.193,-170.502C-325.574,-170.502 -363.25,-182.345 -393.509,-184.974C-404.342,-185.915 -420.542,-188.371 -430.984,-184.758C-466.281,-172.545 -394.339,-171.353 -385.193,-170.502Z"/>
    </g>
    <g transform="matrix(0.375689,0,0,0.550449,260.765,199.172)">
        <path d="M315.295,-172.448C324.798,-192.845 323.567,-230.011 326.311,-254.96C303.723,-239.191 292.263,-210.07 278.577,-187.134C290.926,-182.492 303.516,-178.394 315.295,-172.448Z" style="fill:rgb(114,244,51);"/>
    </g>
    <g transform="matrix(0.375689,0,0,0.550449,260.765,199.172)">
        <path d="M206.43,-190.59C217.086,-191.382 227.742,-192.174 238.399,-192.967C230.004,-210.129 220.408,-242.774 206.43,-252.582C205.873,-234.822 200.464,-204.24 206.43,-190.59Z" style="fill:rgb(114,244,51);"/>
    </g>
</svg>
