<?xml version="1.0" encoding="UTF-8" standalone="no"?>
<!DOCTYPE svg PUBLIC "-//W3C//DTD SVG 1.1//EN" "http://www.w3.org/Graphics/SVG/1.1/DTD/svg11.dtd">
<svg width="100%" height="100%" viewBox="0 0 823 842" version="1.1" xmlns="http://www.w3.org/2000/svg" xmlns:xlink="http://www.w3.org/1999/xlink" xml:space="preserve" xmlns:serif="http://www.serif.com/" style="fill-rule:evenodd;clip-rule:evenodd;stroke-linejoin:round;stroke-miterlimit:2;">
    <g transform="matrix(0.412765,0,0,0.697106,237.22,135.647)">
        <path d="M1142.52,1014.46C1170.2,1022.55 1177.84,985.959 1146.46,984.155C1079.2,980.289 1011.93,976.422 944.665,972.555C974.806,931.71 1028.94,907.359 1064,869.951C1075.22,857.986 1086.24,844.129 1093.7,829.562C1098.4,820.395 1108.35,801.191 1106.02,790.679C1101.49,770.247 1088.65,776.484 1069.08,775.995C1032.12,775.073 998.15,768.836 961.945,763.034C938.522,759.28 917.417,762.794 942.937,743.593C963.25,728.31 1062.18,715.144 1065.84,694.562C1069.49,674.072 1001.11,638.569 987,630.624C950.724,610.205 910.679,601.979 873.815,583.321C842.922,567.685 819.933,535.324 800.094,508.607C786.055,489.7 760.676,473.495 741.19,459.77C641.702,389.697 508.577,337.558 385.221,366.456C302.826,385.758 255.018,435.353 213.071,507.29C202.298,426.485 242.692,321.896 259.275,245.075C274.875,172.808 299.793,80.435 357.683,29.496C377.284,12.249 412.061,4.435 427.125,-17.159C440.008,-35.626 428.985,-36.566 453.405,-56.573C473.761,-73.252 471.174,-75.323 469.244,-92.327C469.101,-93.584 461.955,-93.753 461.685,-95.782C460.611,-103.87 462.318,-113.109 461.685,-121.704C460.129,-142.848 467.854,-127.308 452.83,-145.895C447.581,-152.389 442.283,-132.924 438.682,-154.211C435.13,-175.205 395.912,-161.369 380.254,-162.094C357.115,-163.165 335.409,-174.684 312.322,-172.679C290.713,-170.802 270.96,-164.575 250.22,-158.854C211.505,-148.175 174.443,-152.581 135.093,-148.055C109.974,-145.166 90.229,-137.14 79.364,-112.2C68.492,-87.243 75.681,-84.573 44.156,-83.147C-35.917,-79.527 -115.897,-67.573 -195.819,-60.683C-278.964,-53.516 -373.61,-41.595 -456.208,-54.311C-489.514,-59.438 -527.339,-68.69 -548.547,-35.52C-566.937,-6.757 -561.432,36.792 -555.783,68.268C-545.597,125.029 -509.845,134.998 -480.076,87.385C-464.544,62.542 -461.406,60.722 -445.732,91.488C-425.752,130.706 -416.735,174.277 -407.175,216.878C-380.485,335.821 -340.983,476.197 -245.068,560.102C-161.39,633.302 -45.869,637.211 38.756,561.508C67.276,711.537 55.911,973.075 264.232,976.86C537.114,981.819 809.431,997.918 1082.02,1011.45C1102.19,1012.45 1122.35,1013.46 1142.52,1014.46Z"/>
    </g>
    <g transform="matrix(0.412765,0,0,0.697106,237.22,135.647)">
        <path d="M1212.07,1003.22C1238.12,1003.33 1264.17,1003.43 1290.22,1003.53C1303.48,1003.58 1369.84,1013.23 1379.26,1003.87C1408.2,975.117 1314.76,976.566 1304.31,977.091C1275.74,978.525 1244.88,972.74 1216.83,977.091C1193.36,980.729 1182.04,1003.43 1212.07,1003.22Z"/>
    </g>
    <g transform="matrix(0.412765,0,0,0.697106,237.22,135.647)">
        <path d="M845.09,965.424C896.655,971.057 939.803,927.384 978.147,898.897C1010.33,874.99 1047.38,846.157 1066.06,809.905C1025.76,803.805 982.814,806.656 943.803,793.704C922.61,786.667 904.264,763.142 885.913,770.917C861.845,781.113 838.653,793.036 815.279,804.72C678.862,872.912 546.201,961.652 385.658,942.532C538.802,950.163 691.946,957.793 845.09,965.424Z" style="fill:white;"/>
    </g>
    <g transform="matrix(0.412765,0,0,0.697106,237.22,135.647)">
        <path d="M343.971,944.26C349.308,943.853 354.633,943.107 359.955,942.531C244.2,943.061 224.828,811.315 241.801,721.129C250.352,675.694 263.616,630.986 275.498,586.346C279.774,570.282 292.145,528.287 310.49,563.448C317.079,576.077 306.709,600.792 303.038,613.994C283.025,685.973 229.59,843.977 308.762,900.626C341.168,923.814 401.052,914.878 438.362,914.021C489.48,912.847 535.539,908.286 583.083,888.533C731.433,826.897 865.098,737.387 1017.89,683.976C955.421,624.704 855.735,602.276 774.242,584.402C751.765,579.472 729.359,574.122 706.31,572.739C680.703,571.203 701.911,549.12 714.414,545.742C742.751,538.087 776.068,560.057 804.053,559.564C733.101,487.377 667.001,430.284 567.317,402.748C489.332,381.206 394.21,373.733 323.669,420.893C244.65,473.72 223.025,573.664 204.868,660.217C199.243,687.031 204.063,778.354 181.973,787.014C146.163,801.052 158.926,732.637 160.588,713.139C163.136,683.256 162.562,653.636 164.908,623.93C173.322,517.409 186.356,409.663 211.672,305.657C232.931,218.316 250.541,113.324 307.469,40.3C333.514,6.89 370.326,-10.293 405.101,-33.895C412.774,-39.103 402.077,-45.569 407.043,-52.362C410.277,-56.785 422.669,-61.196 424.107,-65.323C430.313,-83.13 408.336,-91.424 428.211,-108.307C414.577,-114.864 396.954,-116.445 398.188,-133.578C367.609,-129.424 339.856,-148.998 309.196,-145.676C285.361,-143.093 261.227,-132.179 237.051,-128.61C214.002,-125.207 190.758,-123.751 167.5,-122.778C152.5,-122.151 139.472,-122.458 125.164,-117.487C115.459,-114.115 96.745,-96.86 103.133,-83.684C106.296,-77.161 142.381,-71.259 150.219,-68.778C152.006,-82.925 155.871,-105.785 173.764,-91.891C179.709,-87.274 179.262,-76.005 180.109,-69.899C181.751,-58.057 214.576,-62.218 225.123,-61.584C266.541,-59.094 280.885,-40.782 249.581,-11.755C233.529,3.124 206.976,9.505 193.85,26.042C181.609,41.463 186.211,64.962 180.243,82.851C167.934,119.742 167.384,172.08 160.366,212.11C157.375,229.172 150.587,249.851 149.678,267.208C147,318.351 122.12,374.988 104.102,422.509C82.076,480.6 68.544,521.286 75.482,585.373C80.943,635.821 89.487,684.719 97.515,734.846C111.573,822.622 138.684,936.455 244.286,940.695C277.486,942.028 311.091,938.114 343.971,944.26Z" style="fill:white;"/>
    </g>
    <g transform="matrix(0.412765,0,0,0.697106,237.22,135.647)">
        <path d="M366.436,942.532C369.575,941.847 371.305,943.653 372.698,940.803C370.946,941.141 360.859,943.748 366.436,942.532Z" style="fill:white;"/>
    </g>
    <g transform="matrix(0.412765,0,0,0.697106,237.22,135.647)">
        <path d="M-115.463,594.989C-55.063,586.226 0.009,572.862 30.123,515.501C60.136,458.332 80.499,394.403 97.85,332.427C115.371,269.844 129.229,206.402 140.85,142.474C146.559,111.07 151.934,79.6 156.914,48.073C164.329,1.133 182.346,-4.943 222.146,-32.277C206.594,-34.437 191.042,-36.597 175.49,-38.757C196.434,8.6 108.172,-3.468 76.562,-1.175C37.763,1.64 -0.998,7.259 -39.863,8.87C-104.384,11.544 -168.792,18.934 -233.181,23.882C-293.39,28.508 -390.87,23.525 -443.564,53.691C-397.986,54.981 -379.942,196.567 -372.502,229.732C-342.442,363.719 -277.382,575.312 -115.463,594.989Z" style="fill:rgb(255,255,102);"/>
    </g>
    <g transform="matrix(0.412765,0,0,0.697106,237.22,135.647)">
        <path d="M-521.326,84.577C-478.248,21.348 -405.715,3.123 -333.406,-2.902C-257.357,-9.239 -181.727,-12.417 -105.959,-20.183C-18.581,-29.14 70.083,-29.314 157.777,-38.542C108.843,-56.72 72.429,-65.613 20.617,-60.574C-34.211,-55.241 -88.48,-44.189 -143.109,-39.406C-240.138,-30.91 -338.507,-19.736 -436.005,-25.15C-466.28,-26.831 -524.132,-47.139 -532.017,-2.903C-536.316,21.218 -536.138,49.744 -527.158,72.914C-525.603,76.928 -522.54,82.869 -521.326,84.577Z" style="fill:rgb(255,255,102);"/>
    </g>
</svg>
