<?xml version="1.0" encoding="UTF-8" standalone="no"?>
<!DOCTYPE svg PUBLIC "-//W3C//DTD SVG 1.1//EN" "http://www.w3.org/Graphics/SVG/1.1/DTD/svg11.dtd">
<svg width="100%" height="100%" viewBox="0 0 823 842" version="1.1" xmlns="http://www.w3.org/2000/svg" xmlns:xlink="http://www.w3.org/1999/xlink" xml:space="preserve" xmlns:serif="http://www.serif.com/" style="fill-rule:evenodd;clip-rule:evenodd;stroke-linejoin:round;stroke-miterlimit:2;">
    <g transform="matrix(0.531802,0,0,0.552164,192.506,188.611)">
        <path d="M297.096,775.017C291.258,773.491 288.842,765.234 285,777.175C289.032,776.456 293.064,775.737 297.096,775.017Z" style="fill-rule:nonzero;"/>
    </g>
    <g transform="matrix(0.531802,0,0,0.552164,192.506,188.611)">
        <path d="M375.504,1041.78C377.592,1043.14 379.68,1044.51 381.768,1045.88C363.441,1000.11 346.642,953.896 331.768,906.891C324.648,884.393 317.823,861.768 311.96,838.905C307.7,822.292 304.433,769.982 285,777.176C294.76,825.298 307.839,872.412 322.472,919.249C333.413,954.27 347.634,1031.88 376.368,1054.31C376.08,1050.13 375.792,1045.95 375.504,1041.78Z" style="fill-rule:nonzero;"/>
    </g>
    <g transform="matrix(0.531802,0,0,0.552164,192.506,188.611)">
        <path d="M590.855,1036.38C553.58,1034.27 516.162,1034.49 478.858,1035.62C458.337,1036.25 371.408,1033.14 376.367,1054.3C447.406,1048.49 519.182,1044.77 590.422,1048.91C590.566,1044.73 590.711,1040.55 590.855,1036.38Z" style="fill-rule:nonzero;"/>
    </g>
    <g transform="matrix(0.531802,0,0,0.552164,192.506,188.611)">
        <path d="M590.422,1048.91C593.202,1043.32 601.962,1042.68 590.856,1036.38C590.711,1040.55 590.566,1044.73 590.422,1048.91Z" style="fill-rule:nonzero;"/>
    </g>
    <g transform="matrix(0.531802,0,0,0.552164,192.506,188.611)">
        <path d="M184.344,1078.07C183.641,1084.19 175.78,1087.84 188.231,1089.73C186.935,1085.84 185.639,1081.95 184.344,1078.07Z" style="fill-rule:nonzero;"/>
    </g>
    <g transform="matrix(0.531802,0,0,0.552164,192.506,188.611)">
        <path d="M377.664,1054.09C377.285,1032.97 299.81,1051.63 280.139,1055.28C264.657,1058.15 191.646,1063.74 184.344,1078.07C175.02,1096.36 221.084,1080.27 227.328,1078.71C243.385,1074.71 259.527,1071.12 275.927,1068.78C309.482,1063.99 342.978,1058.83 376.584,1054.3C375.792,1050.2 375,1046.1 374.207,1041.99C375.359,1046.03 376.512,1050.06 377.664,1054.09Z" style="fill-rule:nonzero;"/>
    </g>
    <g transform="matrix(0.531802,0,0,0.552164,192.506,188.611)">
        <path d="M175.486,1138.98C209.688,1123.16 243.586,1106.76 277.979,1091.35C294.692,1083.86 311.869,1076.91 329.063,1070.61C344.555,1064.93 382.561,1060 374.207,1041.99C337.431,1053.08 302.046,1067.66 266.855,1082.93C247.849,1091.17 163.755,1121.28 175.486,1138.98Z" style="fill-rule:nonzero;"/>
    </g>
    <g transform="matrix(0.531802,0,0,0.552164,192.506,188.611)">
        <path d="M170.303,1127.75C170.371,1133.88 163.085,1138.46 175.487,1138.98C173.758,1135.23 172.031,1131.49 170.303,1127.75Z" style="fill-rule:nonzero;"/>
    </g>
    <g transform="matrix(0.531802,0,0,0.552164,192.506,188.611)">
        <path d="M242.664,1155.83C245.109,1161.57 240.096,1168.66 251.734,1164.03C248.711,1161.3 245.688,1158.56 242.664,1155.83Z" style="fill-rule:nonzero;"/>
    </g>
    <g transform="matrix(0.531802,0,0,0.552164,192.506,188.611)">
        <path d="M372.264,1043.07C347.967,1061.66 323.445,1080.14 300.335,1100.2C292.393,1107.1 229.578,1162.94 251.734,1164.03C261.153,1164.5 307.103,1110.94 316.644,1102.69C330.521,1090.69 387.777,1057.63 372.264,1043.07Z" style="fill-rule:nonzero;"/>
    </g>
    <g transform="matrix(0.531802,0,0,0.552164,192.506,188.611)">
        <path d="M379.607,1053.01C378.317,1047.01 384.71,1041.15 372.263,1043.07C374.711,1046.38 377.16,1049.7 379.607,1053.01Z" style="fill-rule:nonzero;"/>
    </g>
    <g transform="matrix(0.531802,0,0,0.552164,192.506,188.611)">
        <path d="M165.982,787.113C160.439,784.35 159.796,775.583 153.455,786.679C157.631,786.824 161.807,786.968 165.982,787.113Z" style="fill-rule:nonzero;"/>
    </g>
    <g transform="matrix(0.531802,0,0,0.552164,192.506,188.611)">
        <path d="M167.279,987.777C165.66,952.911 163.759,917.996 164.063,883.076C164.232,863.639 175.017,783.85 153.455,786.68C152.417,820.627 150.982,854.669 151.559,888.64C151.896,908.423 144.237,992.126 167.279,987.777Z" style="fill-rule:nonzero;"/>
    </g>
    <g transform="matrix(0.531802,0,0,0.552164,192.506,188.611)">
        <path d="M154.752,988.21C160.524,990.59 161.894,999.174 167.279,987.776C163.104,987.921 158.928,988.066 154.752,988.21Z" style="fill-rule:nonzero;"/>
    </g>
    <g transform="matrix(0.531802,0,0,0.552164,192.506,188.611)">
        <path d="M323.664,997.066C326.642,991.521 335.449,991.047 324.527,984.537C324.24,988.713 323.952,992.889 323.664,997.066Z" style="fill-rule:nonzero;"/>
    </g>
    <g transform="matrix(0.531802,0,0,0.552164,192.506,188.611)">
        <path d="M161.664,994.257C215.729,990.724 269.692,993.078 323.664,997.066C328.805,976.486 263.034,980.218 244.715,980.218C217.025,980.218 189.545,979.783 161.879,981.73C162.327,983.161 161.129,991.458 161.664,994.257Z" style="fill-rule:nonzero;"/>
    </g>
    <g transform="matrix(0.531802,0,0,0.552164,192.506,188.611)">
        <path d="M-10.057,975.679C47.631,977.918 104.448,987.285 161.664,994.257C167.69,974.42 94.57,972.372 75.479,970.174C47.012,966.897 18.591,964.214 -10.057,963.152L-10.057,975.679Z" style="fill-rule:nonzero;"/>
    </g>
    <g transform="matrix(0.531802,0,0,0.552164,192.506,188.611)">
        <path d="M-10.057,963.152C-12.591,968.796 -21.336,969.82 -10.057,975.679L-10.057,963.152Z" style="fill-rule:nonzero;"/>
    </g>
    <g transform="matrix(0.531802,0,0,0.552164,192.506,188.611)">
        <path d="M-61.68,1005.92C-63.207,1011.76 -71.465,1014.18 -59.522,1018.02C-60.241,1013.99 -60.96,1009.95 -61.68,1005.92Z" style="fill-rule:nonzero;"/>
    </g>
    <g transform="matrix(0.531802,0,0,0.552164,192.506,188.611)">
        <path d="M164.471,993.828C163.098,970.967 70.799,987.083 48.91,989.289C27.982,991.398 -66.678,996.313 -59.522,1018.02C13.583,1003.51 88.116,996.843 162.527,994.258C161.735,990.226 160.944,986.193 160.152,982.16C161.592,986.049 163.031,989.938 164.471,993.828Z" style="fill-rule:nonzero;"/>
    </g>
    <g transform="matrix(0.531802,0,0,0.552164,192.506,188.611)">
        <path d="M12.191,1059.06C62.526,1036.47 112.669,1012.94 164.47,993.827C160.512,971.681 104.095,1005.32 87.574,1012.08C60.572,1023.12 34.314,1036.06 7.438,1047.39C9.023,1051.28 10.607,1055.17 12.191,1059.06Z" style="fill-rule:nonzero;"/>
    </g>
    <g transform="matrix(0.531802,0,0,0.552164,192.506,188.611)">
        <path d="M7.439,1047.39C7.141,1053.6 -0.632,1057.72 12.191,1059.06C10.607,1055.17 9.023,1051.28 7.439,1047.39Z" style="fill-rule:nonzero;"/>
    </g>
    <g transform="matrix(0.531802,0,0,0.552164,192.506,188.611)">
        <path d="M-169.68,181.882C-226.36,182.822 -240.25,282.171 -207.698,316.665C-195.023,271.738 -182.354,226.81 -169.68,181.882Z" style="fill:rgb(255,0,0);"/>
    </g>
    <g transform="matrix(0.531802,0,0,0.552164,192.506,188.611)">
        <path d="M-204.457,211.042C-194.472,195.888 -168.879,191.676 -168.602,175.616C-187.726,174.835 -204.39,189.18 -214.825,204.128C-211.369,206.433 -207.913,208.738 -204.457,211.042Z" style="fill-rule:nonzero;"/>
    </g>
    <g transform="matrix(0.531802,0,0,0.552164,192.506,188.611)">
        <path d="M-216.77,282.105C-218.886,262.501 -201.635,209.885 -214.825,204.128C-229.268,227.569 -231.985,256.52 -229.298,283.401C-225.121,282.97 -220.945,282.537 -216.77,282.105Z" style="fill-rule:nonzero;"/>
    </g>
    <g transform="matrix(0.531802,0,0,0.552164,192.506,188.611)">
        <path d="M-213.744,315.152C-210.361,314.072 -206.977,312.993 -203.594,311.914C-213.796,300.277 -212.206,278.688 -229.297,283.402C-227.138,298.357 -219.891,325.96 -201.649,318.177C-205.68,317.169 -209.712,316.16 -213.744,315.152Z" style="fill-rule:nonzero;"/>
    </g>
    <g transform="matrix(0.531802,0,0,0.552164,192.506,188.611)">
        <path d="M-170.762,188.144C-172.418,185.553 -174.073,182.962 -175.729,180.371C-188.403,225.297 -201.068,270.226 -213.745,315.152C-194.235,323.327 -187.513,268.057 -182.641,250.787C-177.043,230.939 -158.512,193.256 -168.602,175.617C-169.322,179.792 -170.042,183.968 -170.762,188.144Z" style="fill-rule:nonzero;"/>
    </g>
    <g transform="matrix(0.531802,0,0,0.552164,192.506,188.611)">
        <path d="M-204.672,267.201C-233.077,284.836 -259.151,307.717 -279.408,334.379C-251.674,342.155 -238.044,372.525 -215.904,388.811C-212.604,348.262 -208.908,307.661 -204.672,267.201Z" style="fill:rgb(255,0,0);"/>
    </g>
    <g transform="matrix(0.531802,0,0,0.552164,192.506,188.611)">
        <path d="M-278.328,328.33C-277.032,331.57 -275.736,334.81 -274.439,338.051C-263.632,323.801 -250.879,310.899 -237.395,299.17C-225.226,288.585 -195.603,276.554 -207.912,261.803C-226.465,273.529 -292.884,316.77 -280.488,340.426C-279.768,336.394 -279.048,332.361 -278.328,328.33Z" style="fill-rule:nonzero;"/>
    </g>
    <g transform="matrix(0.531802,0,0,0.552164,192.506,188.611)">
        <path d="M-222.168,388.378C-218.928,386.794 -215.689,385.209 -212.449,383.624C-235.44,366.626 -249.085,335.909 -278.328,328.329C-281.751,339.651 -224.776,399.155 -209.64,389.241C-213.816,388.954 -217.992,388.666 -222.168,388.378Z" style="fill-rule:nonzero;"/>
    </g>
    <g transform="matrix(0.531802,0,0,0.552164,192.506,188.611)">
        <path d="M-201.432,272.601C-204.6,270.657 -207.768,268.713 -210.936,266.769C-215.18,307.228 -218.861,347.831 -222.168,388.378C-201.754,394.251 -205.522,344.567 -204.025,328.329C-202.4,310.704 -190.825,270.104 -207.912,261.802C-205.752,265.402 -203.592,269.001 -201.432,272.601Z" style="fill-rule:nonzero;"/>
    </g>
    <g transform="matrix(0.531802,0,0,0.552164,192.506,188.611)">
        <path d="M-329.736,428.769C-326.88,407.378 -291.888,325.878 -268.392,338.805C-254.039,346.701 -241.517,362.299 -231.456,374.986C-224.908,383.244 -215.419,385.153 -216.875,396.154C-219.563,416.466 -217.058,437.457 -217.847,457.929C-249.612,456.741 -307.888,455.144 -329.736,428.769Z" style="fill:white;"/>
    </g>
    <g transform="matrix(0.531802,0,0,0.552164,192.506,188.611)">
        <path d="M-278.328,328.33C-305.839,344.245 -331.702,397.208 -336,428.34C-319.472,432.917 -314.55,398.864 -306.084,384.922C-296.237,368.706 -285.422,353.15 -274.225,337.834C-276.313,338.698 -278.401,339.562 -280.489,340.426C-279.768,336.394 -279.048,332.361 -278.328,328.33Z" style="fill-rule:nonzero;"/>
    </g>
    <g transform="matrix(0.531802,0,0,0.552164,192.506,188.611)">
        <path d="M-209.855,390.105C-222.884,368.73 -252.885,334.924 -278.328,328.33C-282.028,340.565 -233.909,383.518 -219.359,393.994C-220.224,391.834 -221.088,389.674 -221.953,387.514C-217.92,388.377 -213.888,389.241 -209.855,390.105Z" style="fill-rule:nonzero;"/>
    </g>
    <g transform="matrix(0.531802,0,0,0.552164,192.506,188.611)">
        <path d="M-217.848,464.195C-205.125,451.726 -205.47,389.313 -221.953,387.513C-226.379,410.519 -223.206,434.434 -224.113,457.714C-222.025,455.697 -219.936,453.68 -217.847,451.663C-217.848,455.84 -217.848,460.018 -217.848,464.195Z" style="fill-rule:nonzero;"/>
    </g>
    <g transform="matrix(0.531802,0,0,0.552164,192.506,188.611)">
        <path d="M-336,428.339C-323.048,461.259 -247.753,463.121 -217.848,464.194C-214.223,445.482 -304.16,442.8 -323.905,426.608C-326.155,432.355 -329.654,426.672 -336,428.339Z" style="fill-rule:nonzero;"/>
    </g>
    <g transform="matrix(0.531802,0,0,0.552164,192.506,188.611)">
        <path d="M-329.736,428.769C-338.363,466.893 -352.395,527.021 -313.752,546.056C-282.321,561.538 -235.864,565.906 -201.217,569.386C-206.514,546.445 -210.028,523.303 -213.401,500.024C-215.155,487.923 -216.479,475.736 -217.416,463.545C-218.218,453.117 -228.839,459.372 -237.074,456.633C-265.754,447.092 -308.216,454.749 -329.736,428.769Z" style="fill:rgb(255,0,0);"/>
    </g>
    <g transform="matrix(0.531802,0,0,0.552164,192.506,188.611)">
        <path d="M-328.871,533.962C-327.786,533.264 -332.02,499.623 -331.241,485.978C-330.309,469.656 -316.799,427.402 -335.785,427.474C-343.028,460.536 -355.316,516.068 -334.056,545.195C-332.328,541.451 -330.6,537.707 -328.871,533.962Z" style="fill-rule:nonzero;"/>
    </g>
    <g transform="matrix(0.531802,0,0,0.552164,192.506,188.611)">
        <path d="M-207.266,570.679C-205.106,568.159 -202.946,565.64 -200.786,563.12C-224.972,560.566 -248.89,555.651 -272.605,550.377C-289.534,546.611 -328.352,526.277 -334.057,545.194C-310.103,555.668 -211.865,590.542 -195.168,568.089C-199.201,568.953 -203.233,569.816 -207.266,570.679Z" style="fill-rule:nonzero;"/>
    </g>
    <g transform="matrix(0.531802,0,0,0.552164,192.506,188.611)">
        <path d="M-217.848,464.195C-219.936,462.178 -222.025,460.161 -224.114,458.144C-222.702,479.298 -217.697,575.263 -195.169,568.089C-202.406,537.393 -198.458,473.762 -217.849,451.663C-217.848,455.84 -217.848,460.018 -217.848,464.195Z" style="fill-rule:nonzero;"/>
    </g>
    <g transform="matrix(0.531802,0,0,0.552164,192.506,188.611)">
        <path d="M-323.688,430.066C-327.649,430.354 -331.61,430.641 -335.571,430.929C-315.678,461.202 -250.459,463.024 -217.848,464.195C-213.961,444.131 -258.955,448.213 -275.198,444.644C-293.607,440.6 -318.518,425.178 -335.786,427.474C-331.752,428.338 -327.72,429.202 -323.688,430.066Z" style="fill-rule:nonzero;"/>
    </g>
    <g transform="matrix(0.531802,0,0,0.552164,192.506,188.611)">
        <path d="M-295.609,701.144C-311.698,648.959 -323.525,593.589 -331.464,539.578C-313.135,547.441 -293.326,552.114 -273.901,556.427C-257.954,559.968 -220.022,559.496 -207.265,568.739C-180.845,587.88 -182.403,702.555 -171.408,739.809C-206.979,743.922 -274.522,734.837 -295.609,701.144Z" style="fill:white;"/>
    </g>
    <g transform="matrix(0.531802,0,0,0.552164,192.506,188.611)">
        <path d="M-328.871,533.962C-347.784,544.346 -325.207,605.853 -321.098,624.466C-317.44,641.034 -310.348,710.247 -289.561,699.417C-305.686,647.675 -317.881,592.404 -325.202,538.714C-328.154,540.874 -331.106,543.034 -334.057,545.194C-332.328,541.451 -330.6,537.707 -328.871,533.962Z" style="fill-rule:nonzero;"/>
    </g>
    <g transform="matrix(0.531802,0,0,0.552164,192.506,188.611)">
        <path d="M-194.953,568.521C-211.795,555.224 -246.387,556.322 -267.744,551.459C-284.991,547.531 -328.375,526.357 -334.056,545.195C-293.944,562.734 -245.072,571.514 -201.648,575.648C-203.592,573.848 -205.536,572.049 -207.48,570.25C-203.305,569.673 -199.129,569.097 -194.953,568.521Z" style="fill-rule:nonzero;"/>
    </g>
    <g transform="matrix(0.531802,0,0,0.552164,192.506,188.611)">
        <path d="M-170.762,746.074C-158.973,728.556 -178.281,677.328 -181.778,655.355C-184.762,636.599 -186.436,563.063 -207.481,570.25C-198.361,627.298 -193.123,685.994 -177.458,741.754C-175.658,739.018 -173.858,736.281 -172.058,733.545C-171.625,737.721 -171.193,741.897 -170.762,746.074Z" style="fill-rule:nonzero;"/>
    </g>
    <g transform="matrix(0.531802,0,0,0.552164,192.506,188.611)">
        <path d="M-301.656,702.875C-281.642,740.478 -208.043,750.234 -170.761,746.074C-170.145,729.22 -224.597,730.6 -243.335,724.799C-260.204,719.576 -287.239,696.618 -301.656,702.875Z" style="fill-rule:nonzero;"/>
    </g>
    <g transform="matrix(0.531802,0,0,0.552164,192.506,188.611)">
        <path d="M-295.609,701.144C-294.398,733.108 -306.455,781.54 -287.4,805.906C-275.397,821.255 -245.08,838.86 -226.92,845.218C-172.207,864.375 -167.96,778.212 -171.408,739.808C-206.979,743.922 -274.522,734.837 -295.609,701.144Z" style="fill:rgb(255,0,0);"/>
    </g>
    <g transform="matrix(0.531802,0,0,0.552164,192.506,188.611)">
        <path d="M-291.936,794.671C-284.236,783.274 -288.481,723.96 -289.344,700.714C-309.023,699.513 -305.919,785.577 -299.282,804.609C-296.833,801.296 -294.384,797.984 -291.936,794.671Z" style="fill-rule:nonzero;"/>
    </g>
    <g transform="matrix(0.531802,0,0,0.552164,192.506,188.611)">
        <path d="M-203.16,844.355C-221.486,843.748 -237.749,833.533 -252.624,823.618C-265.853,814.8 -289.69,786.256 -299.281,804.609C-271.96,825.709 -239.173,856.302 -202.728,856.882C-202.873,852.707 -203.016,848.531 -203.16,844.355Z" style="fill-rule:nonzero;"/>
    </g>
    <g transform="matrix(0.531802,0,0,0.552164,192.506,188.611)">
        <path d="M-170.762,746.074C-173.065,744.202 -175.369,742.331 -177.672,740.459C-175.722,761.318 -178.335,783.673 -183.289,803.963C-187.477,821.113 -204.245,842.243 -202.728,856.883C-170.585,849.452 -149.311,753.292 -172.056,733.545C-171.625,737.721 -171.193,741.897 -170.762,746.074Z" style="fill-rule:nonzero;"/>
    </g>
    <g transform="matrix(0.531802,0,0,0.552164,192.506,188.611)">
        <path d="M-289.344,700.714C-293.448,701.434 -297.552,702.154 -301.656,702.874C-281.642,740.477 -208.043,750.233 -170.761,746.073C-170.145,729.219 -224.597,730.599 -243.335,724.798C-260.591,719.454 -286.465,697.084 -301.87,701.577C-297.695,701.29 -293.52,701.002 -289.344,700.714Z" style="fill-rule:nonzero;"/>
    </g>
    <g transform="matrix(0.531802,0,0,0.552164,192.506,188.611)">
        <path d="M574.008,-96.327C462.313,-95.952 462.286,71.723 574.008,71.722C685.729,71.721 685.701,-95.952 574.008,-96.327Z" style="fill:white;"/>
    </g>
    <g transform="matrix(0.531802,0,0,0.552164,192.506,188.611)">
        <path d="M493.225,-12.303C493.295,-33.95 503.212,-55.619 519.685,-69.649C534.279,-82.079 576.672,-87.128 574.008,-102.59C524.256,-102.079 480.989,-63.119 480.696,-12.303L493.225,-12.303Z" style="fill-rule:nonzero;"/>
    </g>
    <g transform="matrix(0.531802,0,0,0.552164,192.506,188.611)">
        <path d="M574.008,65.457C551.453,65.243 529.823,56.159 514.175,39.862C500.923,26.061 496.413,-15.177 480.696,-12.303C480.99,38.514 524.256,77.475 574.008,77.986L574.008,65.457Z" style="fill-rule:nonzero;"/>
    </g>
    <g transform="matrix(0.531802,0,0,0.552164,192.506,188.611)">
        <path d="M654.791,-12.303C654.716,9.34 644.806,31.02 628.331,45.046C613.734,57.473 571.342,62.524 574.008,77.986C623.749,77.473 667.039,38.514 667.319,-12.303L654.791,-12.303Z" style="fill-rule:nonzero;"/>
    </g>
    <g transform="matrix(0.531802,0,0,0.552164,192.506,188.611)">
        <path d="M574.008,-90.063C596.564,-89.842 618.192,-80.767 633.839,-64.465C647.085,-50.664 651.607,-9.43 667.318,-12.303C667.039,-63.119 623.748,-102.077 574.007,-102.59C574.008,-98.415 574.008,-94.239 574.008,-90.063Z" style="fill-rule:nonzero;"/>
    </g>
    <g transform="matrix(0.531802,0,0,0.552164,192.506,188.611)">
        <path d="M505.969,649.955C433.348,727.036 340.406,796.958 230.569,802.451C127.166,807.622 16.195,773.227 -71.4,719.289C-228.895,622.31 -252.068,443.094 -210.074,272.387C-200.97,235.378 -179.41,203.311 -170.328,166.978C-156.853,113.069 -143.1,64.248 -120.432,12.971C-99.916,-33.437 -81.609,-88.756 -48.614,-127.862C-31.146,-148.565 15.668,-170.989 43.294,-157.238C70.27,-143.81 100.659,-83.422 119.542,-59.174C140.882,-31.771 162.441,-6.887 176.136,25.066C200.589,82.123 226.792,137.087 256.518,191.707C339.636,344.429 426.193,495.439 505.969,649.955Z" style="fill:rgb(158,99,0);"/>
    </g>
    <g transform="matrix(0.531802,0,0,0.552164,192.506,188.611)">
        <path d="M402.072,748.234C421.535,736.361 522.903,660.546 501.429,645.632C484.473,663.944 466.744,682.132 447.648,698.23C434.528,709.29 388.328,733.565 402.072,748.234Z" style="fill-rule:nonzero;"/>
    </g>
    <g transform="matrix(0.531802,0,0,0.552164,192.506,188.611)">
        <path d="M243.527,807.851C272.436,805.826 302.395,798.001 328.955,786.465C338.65,782.254 416.415,743.529 395.592,737.866C384.733,734.913 333.455,771.954 319.668,776.745C301.617,783.018 239.397,791.755 243.527,807.851Z" style="fill-rule:nonzero;"/>
    </g>
    <g transform="matrix(0.531802,0,0,0.552164,192.506,188.611)">
        <path d="M41.352,778.041C105.763,800.264 175.256,813.395 243.528,807.852C243.24,803.676 242.952,799.5 242.665,795.325C208.437,798.231 173.572,796.07 139.74,790.247C119.703,786.796 44.047,760.076 41.352,778.041Z" style="fill-rule:nonzero;"/>
    </g>
    <g transform="matrix(0.531802,0,0,0.552164,192.506,188.611)">
        <path d="M-136.201,678.898C-85.75,724.327 -22.984,756.831 41.352,778.041C50.615,761.006 18.44,756.734 4.414,750.828C-11.961,743.932 -27.882,736.244 -43.645,728.038C-73.814,712.331 -102.831,692.504 -127.993,669.609C-128.212,669.871 -135.954,678.469 -136.201,678.898Z" style="fill-rule:nonzero;"/>
    </g>
    <g transform="matrix(0.531802,0,0,0.552164,192.506,188.611)">
        <path d="M-220.871,543.679C-214.505,571.624 -201.722,598.203 -185.881,621.982C-180.518,630.032 -128.537,693.386 -127.992,669.828C-127.773,660.34 -173.767,619.006 -180.804,607.078C-190.579,590.51 -204.265,537.821 -220.871,543.679Z" style="fill-rule:nonzero;"/>
    </g>
    <g transform="matrix(0.531802,0,0,0.552164,192.506,188.611)">
        <path d="M-225.84,326.386C-233.38,399.445 -236.027,471.422 -220.871,543.679C-200.36,541.683 -213.583,518.022 -215.688,502.1C-218.434,481.328 -219.399,460.584 -219.908,439.651C-220.816,402.249 -217.207,364.826 -213.312,327.681C-217.488,327.25 -221.664,326.818 -225.84,326.386Z" style="fill-rule:nonzero;"/>
    </g>
    <g transform="matrix(0.531802,0,0,0.552164,192.506,188.611)">
        <path d="M-186.098,192.035C-209.005,233.054 -220.836,279.905 -225.84,326.387C-206.47,331.163 -205.86,278.857 -200.676,260.939C-194.406,239.27 -186.673,217.642 -175.297,198.083C-178.897,196.066 -182.498,194.05 -186.098,192.035Z" style="fill-rule:nonzero;"/>
    </g>
    <g transform="matrix(0.531802,0,0,0.552164,192.506,188.611)">
        <path d="M-162.121,100.017C-168.356,118.781 -190.362,192.859 -175.297,198.081C-166.23,180.901 -140.748,103.081 -162.121,100.017Z" style="fill-rule:nonzero;"/>
    </g>
    <g transform="matrix(0.531802,0,0,0.552164,192.506,188.611)">
        <path d="M-73.992,-101.727C-105.54,-35.368 -136.791,30.991 -162.121,100.017C-143.538,108.699 -120.715,28.509 -112.009,9.082C-96.186,-26.225 -79.541,-61.148 -62.977,-96.11C-62.576,-95.958 -73.616,-101.603 -73.992,-101.727Z" style="fill-rule:nonzero;"/>
    </g>
    <g transform="matrix(0.531802,0,0,0.552164,192.506,188.611)">
        <path d="M48.264,-161.125C-1.932,-179.759 -51.224,-144.376 -73.992,-101.727C-61.293,-91.109 -37.211,-133.172 -20.425,-142.766C-1.882,-153.364 22.251,-153.206 42.863,-150.975C41.351,-151.767 39.84,-152.559 38.328,-153.352C41.64,-155.943 44.952,-158.534 48.264,-161.125Z" style="fill-rule:nonzero;"/>
    </g>
    <g transform="matrix(0.531802,0,0,0.552164,192.506,188.611)">
        <path d="M170.951,-3.014C131.521,-56.697 89.196,-108.548 48.263,-161.125C29.219,-150.324 83.343,-95.838 95.458,-79.91C116.717,-51.96 138.616,-24.487 160.151,3.25C161.794,-0.439 166.754,0.399 170.951,-3.014Z" style="fill-rule:nonzero;"/>
    </g>
    <g transform="matrix(0.531802,0,0,0.552164,192.506,188.611)">
        <path d="M214.584,99.152C208.049,84.004 199.983,64.997 192.768,48.394C186.04,32.915 177.216,-8.88 159.288,1.738C173.7,36.168 188.338,70.585 203.352,104.769C207.096,102.896 210.84,101.024 214.584,99.152Z" style="fill-rule:nonzero;"/>
    </g>
    <g transform="matrix(0.531802,0,0,0.552164,192.506,188.611)">
        <path d="M510.504,654.273C511.915,614.755 460.028,550.33 440.983,514.898C415.435,467.369 389.104,420.254 362.975,373.043C336.849,325.836 311.163,278.377 284.912,231.242C272.334,208.659 259.716,185.934 247.928,162.93C239.681,146.837 220.958,92.121 203.353,104.77C298.324,289.58 405.013,468.136 500.353,652.762C500.712,650.386 501.072,648.009 501.431,645.633C504.454,648.512 507.479,651.393 510.504,654.273Z" style="fill-rule:nonzero;"/>
    </g>
    <g transform="matrix(0.531802,0,0,0.552164,192.506,188.611)">
        <path d="M43.295,772.21C-55.16,739.337 -159.033,678.452 -202.297,579.536C-237.903,498.127 -230.259,394.201 -217.201,308.456C-212.348,276.59 -204.053,245.327 -191.064,215.794C-174.421,177.952 -169.078,140.808 -156.289,101.962C-113.842,135.894 -52.292,124.655 -2.928,122.913C87.999,119.705 138.546,220.865 174.527,290.657C227.152,392.733 247.282,494.433 202.703,604.052C175.502,670.938 130.567,767.059 46.968,771.993C45.744,772.066 44.519,772.138 43.295,772.21Z" style="fill:rgb(255,0,0);"/>
    </g>
    <g transform="matrix(0.531802,0,0,0.552164,192.506,188.611)">
        <path d="M-136.201,679.113C-84.988,723.413 -23.453,756.676 41.352,778.041C50.09,761.972 -26.073,737.569 -43.968,727.931C-73.917,711.8 -102.926,692.516 -127.991,669.61C-130.729,672.777 -133.465,675.945 -136.201,679.113Z" style="fill-rule:nonzero;"/>
    </g>
    <g transform="matrix(0.531802,0,0,0.552164,192.506,188.611)">
        <path d="M-220.871,543.679C-208.988,595.844 -176.027,644.071 -136.201,679.113C-122.158,666.697 -167.434,627.967 -178.105,611.289C-188.788,594.593 -204.399,537.869 -220.871,543.679Z" style="fill-rule:nonzero;"/>
    </g>
    <g transform="matrix(0.531802,0,0,0.552164,192.506,188.611)">
        <path d="M-225.84,326.386C-233.38,399.445 -236.027,471.422 -220.871,543.679C-200.36,541.683 -213.583,518.022 -215.688,502.1C-218.434,481.328 -219.399,460.584 -219.908,439.651C-220.816,402.249 -217.207,364.826 -213.312,327.681C-217.488,327.25 -221.664,326.818 -225.84,326.386Z" style="fill-rule:nonzero;"/>
    </g>
    <g transform="matrix(0.531802,0,0,0.552164,192.506,188.611)">
        <path d="M-186.098,192.035C-209.005,233.054 -220.836,279.905 -225.84,326.387C-206.47,331.163 -205.86,278.857 -200.676,260.939C-194.406,239.27 -186.673,217.642 -175.297,198.083C-178.897,196.066 -182.498,194.05 -186.098,192.035Z" style="fill-rule:nonzero;"/>
    </g>
    <g transform="matrix(0.531802,0,0,0.552164,192.506,188.611)">
        <path d="M-152.4,97.21C-171.029,100.645 -168.869,131.634 -172.273,147.321C-175.686,163.046 -192.49,192.12 -175.296,198.081C-159.771,168.66 -160.577,134.955 -150.456,103.905C-153.696,104.841 -156.935,105.778 -160.175,106.714C-157.584,103.546 -154.992,100.378 -152.4,97.21Z" style="fill-rule:nonzero;"/>
    </g>
    <g transform="matrix(0.531802,0,0,0.552164,192.506,188.611)">
        <path d="M-72.697,120.105C-87.632,118.482 -103.039,117.059 -117.625,113.41C-132.639,109.654 -151.731,91.743 -160.176,106.715C-145.854,118.648 -71.675,147.547 -72.697,120.105Z" style="fill-rule:nonzero;"/>
    </g>
    <g transform="matrix(0.531802,0,0,0.552164,192.506,188.611)">
        <path d="M51.287,125.937C30.774,114.599 -75.965,110.349 -74.424,132.632C-51.7,135.453 -29.212,131.387 -6.601,129.501C10.768,128.053 45.851,140.599 51.287,125.937Z" style="fill-rule:nonzero;"/>
    </g>
    <g transform="matrix(0.531802,0,0,0.552164,192.506,188.611)">
        <path d="M170.52,270.226C141.179,215.39 107.499,157.019 51.288,125.937C41.379,138.19 95.255,176.46 107.665,192.358C127.888,218.265 144.248,247.35 159.72,276.273C163.319,274.257 166.919,272.242 170.52,270.226Z" style="fill-rule:nonzero;"/>
    </g>
    <g transform="matrix(0.531802,0,0,0.552164,192.506,188.611)">
        <path d="M234.672,493.57C239.277,412.609 209.97,339.507 170.52,270.226C151.87,276.108 197.307,350.821 203.784,368.722C218.407,409.136 224.534,450.226 222.145,493.136C226.32,493.281 230.496,493.425 234.672,493.57Z" style="fill-rule:nonzero;"/>
    </g>
    <g transform="matrix(0.531802,0,0,0.552164,192.506,188.611)">
        <path d="M155.832,706.978C196.172,641.628 229.897,571.399 234.672,493.57C214.698,490.367 219.428,522.646 216.095,539.037C212.179,558.294 206.457,577.164 199.463,595.521C185.395,632.447 165.547,666.858 145.031,700.498C148.631,702.658 152.232,704.818 155.832,706.978Z" style="fill-rule:nonzero;"/>
    </g>
    <g transform="matrix(0.531802,0,0,0.552164,192.506,188.611)">
        <path d="M41.352,778.041C87.68,780.739 132.605,744.347 155.832,706.979C142.474,695.469 117.522,734.786 102.478,745.318C85.274,757.363 64.434,765.461 43.294,765.948C46.015,770.084 41.143,772.137 41.352,778.041Z" style="fill-rule:nonzero;"/>
    </g>
    <g transform="matrix(0.531802,0,0,0.552164,192.506,188.611)">
        <path d="M155.398,-44.702C160.813,77.951 169.617,199.572 159.503,322.282C151.899,414.539 102.046,526.028 148.581,614.888C190.658,695.236 362.55,686.829 435.55,685.377C518.035,683.736 607.354,674.189 686.759,651.465C776.223,625.862 681.8,510.291 652.198,463.977C806.451,403.212 958.038,336.36 1111.41,273.573C1239.86,220.992 1047.95,130.493 994.774,103.905C935.255,74.146 899.708,52.454 835.799,82.521C776.737,110.308 719.567,148.354 665.697,185.013C620.201,215.975 572.784,244.1 528.104,276.273C518.814,282.962 453.286,240.502 440.3,235.233C413.742,224.458 386.458,217.793 357.789,216.765C348.816,216.443 338.951,218.33 330.142,217.305C309.157,214.863 314.771,219.642 300.98,200.455C281.241,172.993 267.145,139.154 249.789,109.951C218.932,58.03 186.611,7.008 155.398,-44.702Z" style="fill:rgb(99,66,0);"/>
    </g>
    <g transform="matrix(0.531802,0,0,0.552164,192.506,188.611)">
        <path d="M171.383,190.089C171.085,149.269 169.572,108.545 167.475,67.78C166.415,47.184 169.286,-49.855 149.137,-44.487C150.926,-3.842 153.329,36.763 155.42,77.392C156.488,98.159 151.794,194.591 171.383,190.089Z" style="fill-rule:nonzero;"/>
    </g>
    <g transform="matrix(0.531802,0,0,0.552164,192.506,188.611)">
        <path d="M161.664,366.562C167.702,307.877 171.016,249.084 171.383,190.089C150.711,185.812 157.446,253.892 156.544,272.289C155.015,303.493 152.331,334.622 149.137,365.696C153.312,365.985 157.488,366.273 161.664,366.562Z" style="fill-rule:nonzero;"/>
    </g>
    <g transform="matrix(0.531802,0,0,0.552164,192.506,188.611)">
        <path d="M137.256,508.041C137.378,459.631 156.72,414.325 161.664,366.562C142.459,361.601 140.402,413.917 136.215,431.091C130.044,456.402 124.794,481.888 124.726,508.04C128.903,508.041 133.08,508.041 137.256,508.041Z" style="fill-rule:nonzero;"/>
    </g>
    <g transform="matrix(0.531802,0,0,0.552164,192.506,188.611)">
        <path d="M164.471,626.195C148.081,607.845 142.379,585.003 139.487,561.217C137.559,545.36 145.38,503.841 124.727,508.04C125.111,551.132 123.993,601.441 155.832,634.835C158.711,631.956 161.591,629.075 164.471,626.195Z" style="fill-rule:nonzero;"/>
    </g>
    <g transform="matrix(0.531802,0,0,0.552164,192.506,188.611)">
        <path d="M311.783,673.066C284.248,669.815 255.704,667.746 228.947,660.106C210.57,654.859 164.062,623.606 155.832,634.835C195.011,675.383 257.861,679.381 310.486,685.593C310.918,681.417 311.351,677.242 311.783,673.066Z" style="fill-rule:nonzero;"/>
    </g>
    <g transform="matrix(0.531802,0,0,0.552164,192.506,188.611)">
        <path d="M558.672,668.097C477.299,681.06 393.61,683.157 311.783,673.066C305.02,696.058 413.943,692.066 435.551,691.64C457.179,691.214 566.333,690.891 558.672,668.097Z" style="fill-rule:nonzero;"/>
    </g>
    <g transform="matrix(0.531802,0,0,0.552164,192.506,188.611)">
        <path d="M719.375,603.296C750.49,667.279 550.281,649.313 560.398,680.624C594.968,675.379 762.559,669.867 731.039,598.978C727.151,600.417 723.263,601.857 719.375,603.296Z" style="fill-rule:nonzero;"/>
    </g>
    <g transform="matrix(0.531802,0,0,0.552164,192.506,188.611)">
        <path d="M650.039,458.144C642.214,477.313 680.171,522.213 690.215,541.089C698.468,556.599 713.644,609.202 731.039,598.978C712.154,550.818 686.006,503.737 657.383,460.738C656.375,463.761 655.367,466.785 654.36,469.808C652.919,465.92 651.479,462.032 650.039,458.144Z" style="fill-rule:nonzero;"/>
    </g>
    <g transform="matrix(0.531802,0,0,0.552164,192.506,188.611)">
        <path d="M1097.81,272.601C1024.67,303.73 951.513,334.806 878.264,365.697C838.895,382.301 799.285,398.587 759.528,414.243C740.584,421.702 643.359,452.36 654.36,469.808C733.078,438.827 811.728,407.432 889.672,374.555C926.733,358.922 964.065,343.861 1000.91,327.738C1019.51,319.598 1109.7,289.829 1097.81,272.601Z" style="fill-rule:nonzero;"/>
    </g>
    <g transform="matrix(0.531802,0,0,0.552164,192.506,188.611)">
        <path d="M1152.45,233.937C1149.54,248.838 1137.71,253.941 1125.67,260.722C1120.45,263.664 1114.58,265.473 1109.04,267.742C1100.17,271.375 1095.96,286.141 1104.72,283.078C1127.78,275.009 1162.27,262.58 1164.99,234.371C1160.81,234.226 1156.63,234.082 1152.45,233.937Z" style="fill-rule:nonzero;"/>
    </g>
    <g transform="matrix(0.531802,0,0,0.552164,192.506,188.611)">
        <path d="M1101.48,170.648C1114.17,180.178 1127.96,189.367 1138.31,201.538C1148.62,213.666 1149.39,236.321 1164.98,234.371C1164.93,200.524 1133.38,178.668 1108.82,160.715C1106.38,164.025 1103.93,167.337 1101.48,170.648Z" style="fill-rule:nonzero;"/>
    </g>
    <g transform="matrix(0.531802,0,0,0.552164,192.506,188.611)">
        <path d="M917.232,73.449C951.67,90.338 986.996,105.761 1021.02,123.455C1035.33,130.896 1049.95,137.83 1063.79,146.134C1069.84,149.768 1112.06,180.583 1108.82,160.715C1106.16,144.396 1034.99,116.349 1020.59,109.414C1001.29,100.12 922.857,54.046 917.232,73.449Z" style="fill-rule:nonzero;"/>
    </g>
    <g transform="matrix(0.531802,0,0,0.552164,192.506,188.611)">
        <path d="M704.473,165.681C740.409,147.362 781.354,118.453 820.032,97.64C839.082,87.389 858.413,78.141 879.323,72.369C895.146,68.001 918.048,77.776 922.848,62.218C855.157,31.175 752.651,126.345 697.129,155.745C699.577,159.058 702.024,162.369 704.473,165.681Z" style="fill-rule:nonzero;"/>
    </g>
    <g transform="matrix(0.531802,0,0,0.552164,192.506,188.611)">
        <path d="M522.602,283.833C552.815,276.671 587.19,243.856 613.75,226.484C644.221,206.555 674.963,187.026 704.473,165.68C695.409,147.913 629.586,201.238 612.456,212.445C581.989,232.378 551.244,251.902 521.736,273.249C523.895,273.033 526.055,272.817 528.215,272.601C526.344,276.345 524.473,280.089 522.602,283.833Z" style="fill-rule:nonzero;"/>
    </g>
    <g transform="matrix(0.531802,0,0,0.552164,192.506,188.611)">
        <path d="M407.039,230.265C448.175,241.853 485.049,264.108 522.601,283.833C537.236,263.68 430.988,224.23 410.064,218.169C409.056,222.201 408.047,226.233 407.039,230.265Z" style="fill-rule:nonzero;"/>
    </g>
    <g transform="matrix(0.531802,0,0,0.552164,192.506,188.611)">
        <path d="M305.52,222.273C333.717,233.006 375.022,221.558 407.04,230.265C408.048,226.233 409.057,222.201 410.065,218.169C377.036,210.047 343.978,208.503 310.272,213.2C312.432,214.352 314.592,215.505 316.752,216.657C313.008,218.529 309.264,220.401 305.52,222.273Z" style="fill-rule:nonzero;"/>
    </g>
    <g transform="matrix(0.531802,0,0,0.552164,192.506,188.611)">
        <path d="M161.664,-44.918C157.776,-43.766 153.888,-42.613 150,-41.461C175.277,0.453 201.925,41.56 226.787,83.71C240.342,106.69 254.023,129.589 267.503,152.614C276.846,168.572 300.09,229.304 316.752,216.658C299.478,185.347 175.255,-57.257 149.137,-44.487C153.312,-44.631 157.488,-44.774 161.664,-44.918Z" style="fill-rule:nonzero;"/>
    </g>
    <g transform="matrix(0.531802,0,0,0.552164,192.506,188.611)">
        <path d="M70.08,-235.864C148.455,-282.352 215.688,-309.813 308.111,-315.134C361.391,-318.201 415.498,-314.421 451.318,-270.423C488.653,-224.564 489.71,-158.038 519.359,-106.48C531.136,-86.001 544.486,-66.848 566.015,-55.72C526.54,-14.547 471.732,-11.162 429.286,-47.511C413.165,-25.196 390.886,-4.905 364.917,4.977C327.312,-124.9 209.059,-234.861 70.08,-235.864Z" style="fill:rgb(255,0,0);"/>
    </g>
    <g transform="matrix(0.531802,0,0,0.552164,192.506,188.611)">
        <path d="M149.783,-290.295C131.806,-283.733 58.721,-247.364 73.103,-230.461C90.362,-240.665 157.087,-275.835 149.783,-290.295Z" style="fill-rule:nonzero;"/>
    </g>
    <g transform="matrix(0.531802,0,0,0.552164,192.506,188.611)">
        <path d="M293.422,-320.319C270.568,-318.321 141.134,-303.083 153.672,-278.63C177.061,-286.463 200.801,-293.672 225.06,-298.288C242.874,-301.677 298.02,-301.075 293.422,-320.319Z" style="fill-rule:nonzero;"/>
    </g>
    <g transform="matrix(0.531802,0,0,0.552164,192.506,188.611)">
        <path d="M410.064,-310.383C391.367,-317.589 286.67,-335.585 294.287,-307.789C314.484,-309.731 334.841,-310.313 355.092,-309.087C372.092,-308.058 406.437,-292.53 410.064,-310.383Z" style="fill-rule:nonzero;"/>
    </g>
    <g transform="matrix(0.531802,0,0,0.552164,192.506,188.611)">
        <path d="M470.977,-252.495C456.766,-276.944 436.582,-299.374 410.065,-310.384C401.478,-295.437 425.382,-288.316 436.415,-277.552C447.638,-266.601 456.133,-241.069 470.977,-252.495Z" style="fill-rule:nonzero;"/>
    </g>
    <g transform="matrix(0.531802,0,0,0.552164,192.506,188.611)">
        <path d="M499.488,-164.149C488.742,-193.242 486.053,-224.998 470.976,-252.495C455.45,-247.213 480.785,-177.559 487.822,-159.614C487.318,-159.396 499.71,-164.287 499.488,-164.149Z" style="fill-rule:nonzero;"/>
    </g>
    <g transform="matrix(0.531802,0,0,0.552164,192.506,188.611)">
        <path d="M535.129,-92.653C524.732,-108.61 503.726,-169.332 487.822,-159.831C497.806,-134.108 509.407,-108.724 524.76,-85.743C528.216,-88.046 531.673,-90.35 535.129,-92.653Z" style="fill-rule:nonzero;"/>
    </g>
    <g transform="matrix(0.531802,0,0,0.552164,192.506,188.611)">
        <path d="M570.551,-51.399C568.117,-65.689 535.273,-95.147 524.76,-85.743C534.55,-70.895 547.448,-58.447 563.207,-50.102C562.632,-53.414 562.056,-56.726 561.48,-60.038C564.504,-57.158 567.527,-54.278 570.551,-51.399Z" style="fill-rule:nonzero;"/>
    </g>
    <g transform="matrix(0.531802,0,0,0.552164,192.506,188.611)">
        <path d="M490.199,-14.461C520.32,-16.942 549.547,-29.364 570.551,-51.399C559.832,-66.101 542.836,-42.998 528.43,-36.495C514.199,-30.071 485.452,-32.604 490.199,-14.461Z" style="fill-rule:nonzero;"/>
    </g>
    <g transform="matrix(0.531802,0,0,0.552164,192.506,188.611)">
        <path d="M434.256,-43.838C431.304,-43.478 428.351,-43.118 425.399,-42.758C443.422,-27.127 465.414,-13.04 490.2,-14.461C492.159,-31.057 469.689,-28.824 456.071,-35.848C444.223,-41.959 437.985,-52.607 424.319,-51.182C427.631,-48.734 430.943,-46.286 434.256,-43.838Z" style="fill-rule:nonzero;"/>
    </g>
    <g transform="matrix(0.531802,0,0,0.552164,192.506,188.611)">
        <path d="M358.871,6.49C373.475,14.836 436.125,-24.208 434.256,-43.838C432.415,-63.17 403.275,-27.152 398.724,-23.318C387.736,-14.061 376.399,-6.206 362.975,-0.855C365.639,0.586 368.303,2.026 370.967,3.467C366.935,4.474 362.903,5.482 358.871,6.49Z" style="fill-rule:nonzero;"/>
    </g>
    <g transform="matrix(0.531802,0,0,0.552164,192.506,188.611)">
        <path d="M235.104,-171.926C264.38,-146.919 291.639,-120.899 313.944,-89.307C325.782,-72.539 336.061,-54.274 344.184,-35.414C350.131,-21.606 352.413,12.579 370.967,3.467C350.677,-71.24 302.836,-133.68 242.879,-181.429C240.287,-178.262 237.695,-175.094 235.104,-171.926Z" style="fill-rule:nonzero;"/>
    </g>
    <g transform="matrix(0.531802,0,0,0.552164,192.506,188.611)">
        <path d="M67.055,-241.262C68.882,-225.18 136.062,-221.026 155.184,-215.45C173.773,-210.029 220.719,-170.535 235.104,-171.927C257.774,-174.12 214.794,-201.658 209.833,-204.542C195.524,-212.857 180.106,-219.972 164.473,-225.388C133.921,-235.972 102.466,-241.938 70.081,-242.126C71.089,-238.238 72.097,-234.35 73.104,-230.462C71.087,-234.062 69.071,-237.662 67.055,-241.262Z" style="fill-rule:nonzero;"/>
    </g>
    <g transform="matrix(0.531802,0,0,0.552164,192.506,188.611)">
        <path d="M436.414,-116.848C430.287,-117.548 426.633,-125.408 424.752,-112.957C428.64,-114.254 432.526,-115.551 436.414,-116.848Z" style="fill-rule:nonzero;"/>
    </g>
    <g transform="matrix(0.531802,0,0,0.552164,192.506,188.611)">
        <path d="M425.398,-52.262C428.639,-50.03 431.879,-47.799 435.121,-45.567C442.694,-67.974 443.989,-94.282 436.414,-116.848C423.841,-115.198 420.387,-48.697 433.176,-42.758C430.583,-45.926 427.991,-49.094 425.398,-52.262Z" style="fill-rule:nonzero;"/>
    </g>
    <g transform="matrix(0.531802,0,0,0.552164,192.506,188.611)">
        <path d="M450.023,-84.014C445.017,-67.804 419.76,-55.11 433.175,-42.758C446.32,-52.667 457.613,-64.831 462.12,-80.99C458.089,-81.999 454.056,-83.006 450.023,-84.014Z" style="fill-rule:nonzero;"/>
    </g>
    <g transform="matrix(0.531802,0,0,0.552164,192.506,188.611)">
        <path d="M462.121,-80.991C457.26,-84.904 458.356,-93.679 450.023,-84.014C454.056,-83.006 458.089,-81.999 462.121,-80.991Z" style="fill-rule:nonzero;"/>
    </g>
    <g transform="matrix(0.531802,0,0,0.552164,192.506,188.611)">
        <path d="M-49.367,15.128C-58.127,28.336 -96.585,79.504 -116.762,72.802C-128.385,68.941 -145.764,7.427 -150.026,-4.958C-157.812,-27.587 -163.945,-51.017 -165.794,-74.942C-126.958,-44.952 -88.208,-14.854 -49.367,15.128Z" style="fill:rgb(255,255,0);"/>
    </g>
    <g transform="matrix(0.531802,0,0,0.552164,192.506,188.611)">
        <path d="M-122.375,75.394C-94.546,86.214 -57.852,39.016 -44.184,18.585C-58.527,5.376 -67.979,32.109 -79.716,42.455C-91.491,52.834 -104.295,61.143 -118.92,66.971C-116.328,68.051 -113.736,69.131 -111.145,70.211C-114.888,71.938 -118.631,73.666 -122.375,75.394Z" style="fill-rule:nonzero;"/>
    </g>
    <g transform="matrix(0.531802,0,0,0.552164,192.506,188.611)">
        <path d="M-162.121,-79.911C-183.343,-71.457 -161.802,-20.359 -155.855,-3.015C-149.769,14.737 -129.439,82.673 -111.144,70.21C-133.239,24.427 -155.3,-24.084 -159.529,-75.376C-162.841,-73.576 -166.153,-71.776 -169.465,-69.976C-167.017,-73.287 -164.569,-76.599 -162.121,-79.911Z" style="fill-rule:nonzero;"/>
    </g>
    <g transform="matrix(0.531802,0,0,0.552164,192.506,188.611)">
        <path d="M-44.184,18.585C-49.486,-12.818 -135.951,-59.701 -162.122,-79.911C-176.856,-64.788 -129.056,-38.981 -114.925,-27.854C-94.465,-11.745 -73.63,3.88 -53.256,20.097C-53.688,17.289 -54.121,14.481 -54.553,11.673C-51.096,13.978 -47.64,16.281 -44.184,18.585Z" style="fill-rule:nonzero;"/>
    </g>
    <g transform="matrix(0.531802,0,0,0.552164,192.506,188.611)">
        <path d="M-201,-160.694C-164.175,-142.124 -127.611,-122.992 -90.408,-105.182C-46.876,-84.343 2.855,-73.92 -20.641,-12.735C-42.345,43.782 -92.298,4.046 -124.969,-22.239C-166.825,-55.913 -195.791,-106.859 -201,-160.694Z" style="fill:rgb(255,255,0);"/>
    </g>
    <g transform="matrix(0.531802,0,0,0.552164,192.506,188.611)">
        <path d="M-15.672,-76.454C-39.405,-96.892 -79.378,-105.195 -107.472,-120.411C-137.22,-136.523 -167.983,-151.073 -198.194,-166.311C-211.036,-149.356 -136.027,-120.756 -118.489,-111.987C-87.575,-96.53 -56.127,-81.578 -23.879,-69.11C-25.176,-70.55 -26.473,-71.99 -27.77,-73.43C-23.737,-74.438 -19.705,-75.446 -15.672,-76.454Z" style="fill-rule:nonzero;"/>
    </g>
    <g transform="matrix(0.531802,0,0,0.552164,192.506,188.611)">
        <path d="M-14.809,-10.575C-7.06,-31.762 -9.818,-55.124 -15.672,-76.454C-19.705,-75.446 -23.737,-74.438 -27.77,-73.431C-22.96,-55.59 -29.818,-13.792 -14.809,-10.575Z" style="fill-rule:nonzero;"/>
    </g>
    <g transform="matrix(0.531802,0,0,0.552164,192.506,188.611)">
        <path d="M-55.201,27.009C-36.248,25.361 -21.293,6.508 -14.808,-10.575C-29.866,-19.247 -38.308,8.833 -54.77,15.562C-53.186,15.634 -51.602,15.705 -50.018,15.777C-51.746,19.521 -53.473,23.265 -55.201,27.009Z" style="fill-rule:nonzero;"/>
    </g>
    <g transform="matrix(0.531802,0,0,0.552164,192.506,188.611)">
        <path d="M-149.809,-36.278C-122.855,-9.172 -89.681,10.919 -55.202,27.009C-44.416,10.122 -84.622,-1.816 -99.05,-11.223C-113.173,-20.433 -138.617,-51.426 -149.809,-36.278Z" style="fill-rule:nonzero;"/>
    </g>
    <g transform="matrix(0.531802,0,0,0.552164,192.506,188.611)">
        <path d="M-198.193,-166.311C-230.635,-147.711 -167.768,-54.506 -149.808,-36.278C-135.309,-46.503 -168.476,-80.721 -176.052,-96.758C-185.605,-116.982 -192.776,-138.769 -194.736,-161.125C-197.76,-159.109 -200.784,-157.094 -203.808,-155.078C-201.937,-158.823 -200.065,-162.567 -198.193,-166.311Z" style="fill-rule:nonzero;"/>
    </g>
    <g transform="matrix(0.531802,0,0,0.552164,192.506,188.611)">
        <path d="M69.215,-74.079C105.614,-70.466 106.635,-1.502 69.215,-1.503C31.795,-1.503 32.817,-70.465 69.215,-74.079Z"/>
    </g>
    <g transform="matrix(0.531802,0,0,0.552164,192.506,188.611)">
        <path d="M103.344,-37.79C103.312,-58.113 90.937,-78.917 69.215,-80.345C68.021,-71.09 95.466,-36.351 103.344,-37.79Z" style="fill-rule:nonzero;"/>
    </g>
    <g transform="matrix(0.531802,0,0,0.552164,192.506,188.611)">
        <path d="M69.215,4.761C90.936,3.339 103.311,-17.469 103.344,-37.79C95.465,-39.229 68.022,-4.492 69.215,4.761Z" style="fill-rule:nonzero;"/>
    </g>
    <g transform="matrix(0.531802,0,0,0.552164,192.506,188.611)">
        <path d="M35.088,-37.79C35.115,-17.47 47.496,3.339 69.215,4.761C70.409,-4.493 42.965,-39.229 35.088,-37.79Z" style="fill-rule:nonzero;"/>
    </g>
    <g transform="matrix(0.531802,0,0,0.552164,192.506,188.611)">
        <path d="M69.215,-80.344C47.496,-78.918 35.115,-58.112 35.088,-37.789C42.964,-36.351 70.409,-71.089 69.215,-80.344Z" style="fill-rule:nonzero;"/>
    </g>
    <g transform="matrix(0.531802,0,0,0.552164,192.506,188.611)">
        <path d="M-65.137,-102.59C-71.72,-158.713 -25.239,-216.446 22.558,-241.262C65.505,-263.56 117.338,-251.246 161.015,-236.295C215.562,-217.623 270.036,-187.947 307.462,-143.414C348.836,-94.184 407.184,23.824 355.198,82.09C338.832,100.433 312.863,109.944 293.313,124.426C272.353,139.953 271.165,143.164 247.198,126.803C205.335,98.225 161.911,57.126 129.046,18.371C100.546,-15.235 77.105,-53.538 45.454,-84.445C25.375,-104.052 12.994,-108.089 -14.486,-99.457C-29.685,-94.683 -59.582,-79.192 -65.137,-102.59Z" style="fill:white;"/>
    </g>
    <g transform="matrix(0.531802,0,0,0.552164,192.506,188.611)">
        <path d="M-30.793,-204.758C-56.667,-174.525 -76.036,-143.223 -71.4,-101.942C-53.475,-100.093 -59.93,-133.966 -53.472,-149.463C-46.158,-167.015 -33.684,-182.751 -21.288,-196.983C-24.457,-199.575 -27.625,-202.167 -30.793,-204.758Z" style="fill-rule:nonzero;"/>
    </g>
    <g transform="matrix(0.531802,0,0,0.552164,192.506,188.611)">
        <path d="M68.568,-260.055C29.109,-259.988 -6.526,-234.054 -30.793,-204.758C-18.665,-191.029 4.703,-223.676 19.535,-232.406C34.46,-241.192 71.428,-244.063 68.568,-260.055Z" style="fill-rule:nonzero;"/>
    </g>
    <g transform="matrix(0.531802,0,0,0.552164,192.506,188.611)">
        <path d="M231.215,-211.67C181.606,-239.039 125.652,-258.702 68.569,-260.055C65.471,-243.142 128.348,-239.613 146.76,-234.243C174.222,-226.234 200.169,-213.844 225.6,-200.872C227.471,-204.471 229.343,-208.071 231.215,-211.67Z" style="fill-rule:nonzero;"/>
    </g>
    <g transform="matrix(0.531802,0,0,0.552164,192.506,188.611)">
        <path d="M338.783,-108.637C315.044,-152.963 275.441,-188.492 231.215,-211.67C220.622,-196.671 270.378,-171.969 284.137,-158.967C298.028,-145.84 324.573,-97.747 338.783,-108.637Z" style="fill-rule:nonzero;"/>
    </g>
    <g transform="matrix(0.531802,0,0,0.552164,192.506,188.611)">
        <path d="M375.504,58.761C388.782,1.919 366.7,-59.615 338.783,-108.637C321.185,-102.707 355.422,-43.911 360.168,-24.83C364.959,-5.565 360.486,58.906 375.504,58.761Z" style="fill-rule:nonzero;"/>
    </g>
    <g transform="matrix(0.531802,0,0,0.552164,192.506,188.611)">
        <path d="M285.863,139.978C311.982,110.295 365.762,101.929 375.504,58.761C362.843,54.101 344.333,84.445 330.143,93.43C311.398,105.3 290.413,115.402 275.926,132.632C279.238,135.081 282.551,137.529 285.863,139.978Z" style="fill-rule:nonzero;"/>
    </g>
    <g transform="matrix(0.531802,0,0,0.552164,192.506,188.611)">
        <path d="M177.863,74.746C197.609,90.309 258.342,165.578 285.863,139.978C251.906,118.414 219.304,91.481 185.207,64.81C182.759,68.122 180.311,71.434 177.863,74.746Z" style="fill-rule:nonzero;"/>
    </g>
    <g transform="matrix(0.531802,0,0,0.552164,192.506,188.611)">
        <path d="M25.367,-94.815C83.192,-44.488 116.586,27.629 177.863,74.746C192.005,61.811 158.604,41.928 147.625,30.25C134.216,15.989 121.901,0.471 110.363,-15.325C87.178,-47.066 62.295,-77.462 33.576,-104.318C30.84,-101.151 28.104,-97.983 25.367,-94.815Z" style="fill-rule:nonzero;"/>
    </g>
    <g transform="matrix(0.531802,0,0,0.552164,192.506,188.611)">
        <path d="M-71.4,-101.942C-67.103,-71.535 26.059,-92.023 33.577,-104.319C15.982,-116.896 -5.178,-108.976 -23.772,-103.131C-46.388,-96.02 -53.18,-100.367 -71.4,-101.942Z" style="fill-rule:nonzero;"/>
    </g>
    <g transform="matrix(0.531802,0,0,0.552164,192.506,188.611)">
        <path d="M-43.752,-41.03C-52.464,-50.142 -65.29,-52.847 -77.449,-49.671C-70.365,-37.368 -55.742,-33.409 -43.752,-41.03Z"/>
    </g>
    <g transform="matrix(0.531802,0,0,0.552164,192.506,188.611)">
        <path d="M-59.736,-43.622C-51.696,-38.306 -45.955,-37.155 -38.351,-44.27C-43.298,-50.479 -49.551,-54.177 -57.359,-55.719C-57.076,-57.548 -59.804,-42.267 -59.736,-43.622Z" style="fill-rule:nonzero;"/>
    </g>
    <g transform="matrix(0.531802,0,0,0.552164,192.506,188.611)">
        <path d="M-72.266,-52.911C-73.418,-49.815 -74.569,-46.718 -75.721,-43.622C-64.664,-42.055 -58.017,-44.463 -57.145,-55.72C-68.74,-60.115 -78.909,-58.083 -82.633,-46.431C-79.177,-48.59 -75.721,-50.75 -72.266,-52.911Z" style="fill-rule:nonzero;"/>
    </g>
    <g transform="matrix(0.531802,0,0,0.552164,192.506,188.611)">
        <path d="M-61.248,-43.622C-67.717,-50.937 -74.487,-53.356 -82.633,-46.431C-77.983,-38.832 -72.008,-33.988 -63.408,-31.527C-62.688,-35.558 -61.968,-39.59 -61.248,-43.622Z" style="fill-rule:nonzero;"/>
    </g>
    <g transform="matrix(0.531802,0,0,0.552164,192.506,188.611)">
        <path d="M-49.152,-37.79C-48.648,-40.454 -48.144,-43.118 -47.64,-45.782C-59.536,-44.715 -60.184,-42.217 -63.408,-31.526C-51.771,-28.525 -40.274,-32.042 -38.351,-44.27C-41.952,-42.11 -45.552,-39.95 -49.152,-37.79Z" style="fill-rule:nonzero;"/>
    </g>
    <g transform="matrix(0.531802,0,0,0.552164,192.506,188.611)">
        <path d="M-30.793,361.81C-20.93,396.704 -6.278,430.013 3.768,464.843C-21.157,465.872 -46.061,468.87 -70.753,472.403C-94.463,475.795 -92.416,471.484 -98.096,448.778C-105.472,419.294 -118.15,391.479 -124.969,361.81L-30.793,361.81Z" style="fill:white;"/>
    </g>
    <g transform="matrix(0.531802,0,0,0.552164,192.506,188.611)">
        <path d="M3.768,471.105C15.68,457.214 -2.142,426.819 -7.896,410.625C-13.439,395.024 -18.822,355.616 -36.839,363.322C-27.222,398.305 -12.802,431.853 -2.28,466.57C-0.264,463.906 1.753,461.242 3.769,458.578C3.768,462.753 3.768,466.929 3.768,471.105Z" style="fill-rule:nonzero;"/>
    </g>
    <g transform="matrix(0.531802,0,0,0.552164,192.506,188.611)">
        <path d="M-98.617,475.64C-85.178,485.87 -59.115,477.173 -42.457,475.21C-26.552,473.335 6.821,477.74 3.768,458.577C-28.642,459.861 -60.529,465.532 -92.785,468.513C-90.553,470.313 -88.322,472.114 -86.09,473.913C-90.266,474.489 -94.441,475.065 -98.617,475.64Z" style="fill-rule:nonzero;"/>
    </g>
    <g transform="matrix(0.531802,0,0,0.552164,192.506,188.611)">
        <path d="M-124.969,355.546C-137.488,371.129 -119.623,401.375 -113.737,419.05C-108.531,434.683 -105.347,481.025 -86.091,473.913C-93.607,435.015 -109.945,398.964 -118.921,360.513C-120.937,363.033 -122.954,365.554 -124.97,368.074C-124.969,363.898 -124.969,359.722 -124.969,355.546Z" style="fill-rule:nonzero;"/>
    </g>
    <g transform="matrix(0.531802,0,0,0.552164,192.506,188.611)">
        <path d="M-24.744,360.298C-33.682,354.463 -116.94,346.69 -124.969,355.546C-139.522,371.599 -87.98,368.073 -80.796,368.073L-30.793,368.073C-32.809,366.489 -34.824,364.905 -36.84,363.321C-32.808,362.314 -28.776,361.306 -24.744,360.298Z" style="fill-rule:nonzero;"/>
    </g>
    <g transform="matrix(0.531802,0,0,0.552164,192.506,188.611)">
        <path d="M20.184,563.769C19.852,532.084 15.377,498.7 5.064,468.623C2.217,460.321 -28.586,467.391 -37.056,468.297C-52.419,469.941 -67.704,472.164 -83.065,473.806C-100.26,475.644 -92.301,542.879 -93,561.395C-55.257,561.201 -17.557,563.968 20.184,563.769Z" style="fill:rgb(255,0,0);"/>
    </g>
    <g transform="matrix(0.531802,0,0,0.552164,192.506,188.611)">
        <path d="M3.768,471.105C1.823,469.737 -0.121,468.37 -2.066,467.001C3.321,482.291 6.845,498.206 9.383,514.197C11.839,529.67 6.707,568.169 26.447,563.768C26.157,535.007 26.198,478.559 3.767,458.577C3.768,462.753 3.768,466.929 3.768,471.105Z" style="fill-rule:nonzero;"/>
    </g>
    <g transform="matrix(0.531802,0,0,0.552164,192.506,188.611)">
        <path d="M-86.09,474.777C-88.033,476.865 -89.977,478.953 -91.92,481.041C-71.85,479.196 6.852,477.934 3.768,458.578C-21.361,459.574 -81.302,456.957 -98.617,474.777L-86.09,474.777Z" style="fill-rule:nonzero;"/>
    </g>
    <g transform="matrix(0.531802,0,0,0.552164,192.506,188.611)">
        <path d="M-93,555.128C-90.912,557.288 -88.824,559.448 -86.736,561.608C-86.062,543.45 -76.664,470.108 -98.617,474.776C-98.309,497.151 -108.354,552.185 -93,567.655L-93,555.128Z" style="fill-rule:nonzero;"/>
    </g>
    <g transform="matrix(0.531802,0,0,0.552164,192.506,188.611)">
        <path d="M13.918,563.769C16.006,561.681 18.095,559.593 20.184,557.505C0.086,557.61 -19.999,556.661 -40.081,556.102C-47.456,555.896 -107.862,551.117 -93,567.656C-83.848,577.842 17.675,572.26 26.447,563.769L13.918,563.769Z" style="fill-rule:nonzero;"/>
    </g>
    <g transform="matrix(0.531802,0,0,0.552164,192.506,188.611)">
        <path d="M20.184,563.769C22.236,597.348 18.107,631.812 12.407,664.859C9.408,682.244 4.802,740.943 -11.784,751.691C-35.739,767.214 -122.87,733.364 -145.487,721.234C-132.454,696.318 -124.143,668.891 -115.678,642.175C-111.118,627.786 -104.388,569.835 -92.998,561.394C-75.86,548.69 -2.37,563.888 20.184,563.769Z" style="fill:white;"/>
    </g>
    <g transform="matrix(0.531802,0,0,0.552164,192.506,188.611)">
        <path d="M-11.785,757.955C10.069,740.276 14.091,692.194 18.672,665.723C21.863,647.282 39.22,558.642 13.918,563.987C17.532,622.059 9.24,696.417 -17.4,748.882C-15.528,747.73 -13.656,746.577 -11.785,745.425L-11.785,757.955Z" style="fill-rule:nonzero;"/>
    </g>
    <g transform="matrix(0.531802,0,0,0.552164,192.506,188.611)">
        <path d="M-151.105,718.425C-140.827,751.22 -41.778,758.034 -11.785,757.954C-8.471,738.3 -56.16,741.725 -73.127,737.865C-96.771,732.486 -120.873,727.279 -142.465,715.835C-141.6,718.57 -140.736,721.305 -139.871,724.04C-143.616,722.168 -147.361,720.297 -151.105,718.425Z" style="fill-rule:nonzero;"/>
    </g>
    <g transform="matrix(0.531802,0,0,0.552164,192.506,188.611)">
        <path d="M-93,555.128C-109.927,571.299 -112.657,612.165 -119.893,634.726C-128.97,663.029 -137.37,691.95 -151.106,718.425C-131.047,732.557 -116.816,666.303 -111.469,649.63C-102.264,620.927 -94.172,591.955 -86.953,562.691C-88.969,564.346 -90.984,566.001 -93,567.656L-93,555.128Z" style="fill-rule:nonzero;"/>
    </g>
    <g transform="matrix(0.531802,0,0,0.552164,192.506,188.611)">
        <path d="M26.447,563.552C17.283,555.323 -83.498,545.173 -93,555.128C-107.818,570.653 -47.606,568.413 -40.297,568.629C-20.146,569.224 0.015,570.142 20.183,570.032C18.095,568.016 16.006,566.001 13.917,563.985C18.094,563.841 22.271,563.697 26.447,563.552Z" style="fill-rule:nonzero;"/>
    </g>
    <g transform="matrix(0.531802,0,0,0.552164,192.506,188.611)">
        <path d="M2.256,862.281C-5.02,824.933 -19.98,790.231 -11.785,751.691C-55.229,751.748 -107.026,741.861 -145.488,721.234C-189.156,819.144 -88.587,891.529 2.256,862.281Z" style="fill:rgb(255,0,0);"/>
    </g>
    <g transform="matrix(0.531802,0,0,0.552164,192.506,188.611)">
        <path d="M-11.785,757.955C-13.801,755.434 -15.816,752.915 -17.832,750.394C-22.397,770.893 -17.515,870.538 8.52,861.417C4.577,842.316 -2.097,823.527 -5.521,804.394C-8.729,786.466 -1.75,758.482 -11.785,745.425L-11.785,757.955Z" style="fill-rule:nonzero;"/>
    </g>
    <g transform="matrix(0.531802,0,0,0.552164,192.506,188.611)">
        <path d="M-139.871,723.828C-142.752,724.763 -145.633,725.698 -148.514,726.633C-109.527,748.034 -56.018,758.073 -11.785,757.955C-8.54,738.713 -60.535,740.521 -77.879,736.785C-98.666,732.307 -131.862,713.648 -151.106,718.64C-147.361,720.37 -143.616,722.098 -139.871,723.828Z" style="fill-rule:nonzero;"/>
    </g>
    <g transform="matrix(0.531802,0,0,0.552164,192.506,188.611)">
        <path d="M-110.064,844.355C-127.957,833.712 -140.777,815.925 -146.675,796.078C-152.756,775.615 -136.72,722.539 -151.105,718.64C-171.779,765.614 -164.375,827.872 -116.113,855.152C-114.097,851.553 -112.081,847.954 -110.064,844.355Z" style="fill-rule:nonzero;"/>
    </g>
    <g transform="matrix(0.531802,0,0,0.552164,192.506,188.611)">
        <path d="M-4.01,863.144C-2.641,860.913 -1.273,858.682 0.095,856.451C-19.984,862.653 -41.031,861.068 -61.575,858.287C-78.221,856.033 -109.828,837.939 -116.114,855.152C-90.005,868.966 -11.661,890.433 8.519,861.418C4.343,861.993 0.167,862.569 -4.01,863.144Z" style="fill-rule:nonzero;"/>
    </g>
    <g transform="matrix(0.531802,0,0,0.552164,192.506,188.611)">
        <path d="M992.617,108.441C992.382,102.196 999.826,97.436 987,97.211C988.872,100.954 990.745,104.697 992.617,108.441Z" style="fill-rule:nonzero;"/>
    </g>
    <g transform="matrix(0.531802,0,0,0.552164,192.506,188.611)">
        <path d="M615.91,295.714C683.281,262.738 750.783,229.902 817.87,196.354C849.234,180.669 880.682,165.164 912.047,149.482C929.234,140.889 999.927,114.893 987,97.211C862.18,161.127 736.237,222.819 610.295,284.482C612.167,288.226 614.038,291.97 615.91,295.714Z" style="fill-rule:nonzero;"/>
    </g>
    <g transform="matrix(0.531802,0,0,0.552164,192.506,188.611)">
        <path d="M610.295,284.482C610.546,290.678 603.24,295.378 615.91,295.714C614.038,291.97 612.167,288.226 610.295,284.482Z" style="fill-rule:nonzero;"/>
    </g>
    <g transform="matrix(0.531802,0,0,0.552164,192.506,188.611)">
        <path d="M1085.06,158.554C1085.77,152.424 1093.62,148.771 1081.17,146.89C1082.47,150.778 1083.77,154.666 1085.06,158.554Z" style="fill-rule:nonzero;"/>
    </g>
    <g transform="matrix(0.531802,0,0,0.552164,192.506,188.611)">
        <path d="M653.711,353.601C727.271,316.225 800.94,279.139 875.902,244.633C915.119,226.58 954.761,209.579 994.668,193.113C1011.96,185.977 1091.5,164.328 1081.18,146.889C1009.77,172.716 939.7,201.638 870.721,233.4C832.652,250.929 794.681,268.757 757.192,287.497C738.088,297.047 640.216,336.87 653.711,353.601Z" style="fill-rule:nonzero;"/>
    </g>
    <g transform="matrix(0.531802,0,0,0.552164,192.506,188.611)">
        <path d="M648.098,342.371C648.347,348.565 641.037,353.264 653.711,353.601C651.84,349.857 649.969,346.114 648.098,342.371Z" style="fill-rule:nonzero;"/>
    </g>
    <g transform="matrix(0.531802,0,0,0.552164,192.506,188.611)">
        <path d="M1134.74,196.355C1135.24,190.134 1143.12,186.211 1130.42,184.689C1131.86,188.578 1133.3,192.466 1134.74,196.355Z" style="fill-rule:nonzero;"/>
    </g>
    <g transform="matrix(0.531802,0,0,0.552164,192.506,188.611)">
        <path d="M620.016,435.25C703.908,389.995 789.34,347.234 875.745,306.987C918.413,287.112 961.478,268.328 1004.65,249.586C1026.71,240.006 1049.02,231.009 1071.23,221.778C1087.55,214.997 1141.01,203.134 1130.42,184.689C1039.64,219.262 950.134,258.086 862.328,299.618C819.998,319.64 778.018,340.312 736.025,361.017C714.946,371.41 694.008,382.13 673.223,393.098C657.908,401.18 606.989,417.788 620.016,435.25Z" style="fill-rule:nonzero;"/>
    </g>
    <g transform="matrix(0.531802,0,0,0.552164,192.506,188.611)">
        <path d="M614.398,424.017C614.649,430.214 607.343,434.915 620.015,435.249C618.144,431.505 616.271,427.761 614.398,424.017Z" style="fill-rule:nonzero;"/>
    </g>
    <g transform="matrix(0.531802,0,0,0.552164,192.506,188.611)">
        <path d="M535.992,345.394C530.282,347.807 523.199,342.755 527.783,354.466C530.52,351.442 533.256,348.418 535.992,345.394Z" style="fill-rule:nonzero;"/>
    </g>
    <g transform="matrix(0.531802,0,0,0.552164,192.506,188.611)">
        <path d="M652.848,469.808C664.878,450.064 555.472,362.905 535.993,345.394C519.405,358.053 571.499,395.208 584.376,407.708C605.433,428.148 626.896,448.251 648.528,468.081C649.968,464.48 651.408,460.881 652.848,457.28L652.848,469.808Z" style="fill-rule:nonzero;"/>
    </g>
    <g transform="matrix(0.531802,0,0,0.552164,192.506,188.611)">
        <path d="M440.736,459.875C511.564,459.226 582.093,467.986 652.847,469.809C656.153,449.698 570.042,452.98 549.167,451.664C527.85,450.321 437.578,437.43 440.736,459.875Z" style="fill-rule:nonzero;"/>
    </g>
    <g transform="matrix(0.531802,0,0,0.552164,192.506,188.611)">
        <path d="M440.736,447.347C438.202,452.989 429.456,454.009 440.736,459.874L440.736,447.347Z" style="fill-rule:nonzero;"/>
    </g>
    <g transform="matrix(0.531802,0,0,0.552164,192.506,188.611)">
        <path d="M694.318,543.466C697.098,537.88 705.856,537.236 694.752,530.939C694.607,535.115 694.463,539.291 694.318,543.466Z" style="fill-rule:nonzero;"/>
    </g>
    <g transform="matrix(0.531802,0,0,0.552164,192.506,188.611)">
        <path d="M444.84,545.41C527.929,539.971 611.146,539.518 694.319,543.467C698.921,521.867 591.88,528.218 569.688,528.348C547.554,528.477 440.104,523.425 444.84,545.41Z" style="fill-rule:nonzero;"/>
    </g>
    <g transform="matrix(0.531802,0,0,0.552164,192.506,188.611)">
        <path d="M444.406,532.882C442.018,538.648 433.488,539.968 444.84,545.409C444.695,541.234 444.551,537.058 444.406,532.882Z" style="fill-rule:nonzero;"/>
    </g>
    <g transform="matrix(0.531802,0,0,0.552164,192.506,188.611)">
        <path d="M725.641,631.16C728.618,625.617 737.425,625.144 726.504,618.633C726.216,622.808 725.929,626.984 725.641,631.16Z" style="fill-rule:nonzero;"/>
    </g>
    <g transform="matrix(0.531802,0,0,0.552164,192.506,188.611)">
        <path d="M439.008,637.21C534.374,628.967 630.045,623.769 725.641,631.159C730.267,609.945 676.143,615.175 658.463,615.175C632.53,615.175 606.635,614.789 580.703,615.609C555.05,616.42 529.407,617.775 503.807,619.605C486.368,620.851 434.21,616.314 439.008,637.21Z" style="fill-rule:nonzero;"/>
    </g>
    <g transform="matrix(0.531802,0,0,0.552164,192.506,188.611)">
        <path d="M438.145,624.679C435.977,630.45 427.436,631.993 439.008,637.21C438.72,633.034 438.433,628.856 438.145,624.679Z" style="fill-rule:nonzero;"/>
    </g>
    <g transform="matrix(0.531802,0,0,0.552164,192.506,188.611)">
        <path d="M-59.521,419.914C-53.385,419.846 -48.809,427.133 -48.289,414.73C-52.033,416.458 -55.777,418.186 -59.521,419.914Z" style="fill-rule:nonzero;"/>
    </g>
    <g transform="matrix(0.531802,0,0,0.552164,192.506,188.611)">
        <path d="M-86.953,366.128C-74.817,382.36 -67.722,401.533 -59.521,419.913C-38.976,414.213 -66.947,371.49 -77.449,358.354C-80.617,360.946 -83.785,363.537 -86.953,366.128Z" style="fill-rule:nonzero;"/>
    </g>
    <g transform="matrix(0.531802,0,0,0.552164,192.506,188.611)">
        <path d="M-77.449,358.355C-83.415,359.893 -89.674,353.786 -86.953,366.128C-83.785,363.537 -80.617,360.946 -77.449,358.355Z" style="fill-rule:nonzero;"/>
    </g>
    <g transform="matrix(0.531802,0,0,0.552164,192.506,188.611)">
        <path d="M256.703,132.632C299.57,184.802 336.829,208.775 285.215,274.978C256.578,246.955 240.415,198.284 199.463,184.906C223.229,172.728 242.8,155.498 256.703,132.632Z" style="fill:rgb(255,0,0);"/>
    </g>
    <g transform="matrix(0.531802,0,0,0.552164,192.506,188.611)">
        <path d="M321.287,207.371C316.864,186.76 266.264,120.024 251.951,136.521C270.094,159.284 299.979,179.663 308.974,208.234C310.961,207.112 317.578,208.408 321.287,207.371Z" style="fill-rule:nonzero;"/>
    </g>
    <g transform="matrix(0.531802,0,0,0.552164,192.506,188.611)">
        <path d="M281.543,279.945C306.028,276.605 319.617,229.059 321.287,207.371C306.948,204.521 292.453,255.791 280.248,271.09C283.127,270.73 286.007,270.37 288.887,270.01C286.439,273.321 283.991,276.633 281.543,279.945Z" style="fill-rule:nonzero;"/>
    </g>
    <g transform="matrix(0.531802,0,0,0.552164,192.506,188.611)">
        <path d="M196.656,179.291C196.847,194.687 231.219,215.254 242.448,229.51C255.563,246.16 266.113,265.292 281.543,279.946C300.205,260.487 224.113,186.349 200.975,178.86C201.407,182.747 201.84,186.635 202.272,190.522C200.4,186.777 198.528,183.034 196.656,179.291Z" style="fill-rule:nonzero;"/>
    </g>
    <g transform="matrix(0.531802,0,0,0.552164,192.506,188.611)">
        <path d="M261.455,128.746C246.791,129.123 240.597,146.139 230.137,156.178C219.036,166.831 190.754,175.8 202.272,190.522C226.998,177.66 247.556,159.754 262.104,135.876C258.72,136.091 255.336,136.307 251.952,136.522C255.119,133.929 258.287,131.337 261.455,128.746Z" style="fill-rule:nonzero;"/>
    </g>
    <g transform="matrix(0.531802,0,0,0.552164,192.506,188.611)">
        <path d="M163.176,208.449C180.751,242.676 195.127,278.476 211.884,313.101C223.946,338.025 256.886,309.319 270.744,291.826C284.87,273.995 282.44,281.191 274.633,263.097C267.606,246.812 250.349,228.056 238.559,214.929C208.819,181.818 196.821,185.599 163.176,208.449Z" style="fill:white;"/>
    </g>
    <g transform="matrix(0.531802,0,0,0.552164,192.506,188.611)">
        <path d="M217.824,320.986C220.056,321.994 222.287,323.002 224.519,324.009C203.793,285.655 188.439,244.549 168.79,205.64C165.046,207.513 161.302,209.385 157.558,211.257C173.532,241.816 190.257,317.041 220.413,333.081C219.551,329.05 218.688,325.018 217.824,320.986Z" style="fill-rule:nonzero;"/>
    </g>
    <g transform="matrix(0.531802,0,0,0.552164,192.506,188.611)">
        <path d="M281.543,279.945C281.039,277.137 280.535,274.329 280.031,271.521C268.219,287.585 214.897,319.601 220.414,333.082C242.535,326.453 292.543,295.251 288.887,270.01C286.439,273.321 283.991,276.633 281.543,279.945Z" style="fill-rule:nonzero;"/>
    </g>
    <g transform="matrix(0.531802,0,0,0.552164,192.506,188.611)">
        <path d="M203.352,189.875C202.206,190.761 232.79,217.248 242.449,229.51C255.564,246.16 266.114,265.292 281.544,279.946C298.843,261.908 223.016,177.234 195.577,179.938C198.168,183.25 200.76,186.562 203.352,189.875Z" style="fill-rule:nonzero;"/>
    </g>
    <g transform="matrix(0.531802,0,0,0.552164,192.506,188.611)">
        <path d="M168.791,205.64C168.143,208.232 167.496,210.825 166.848,213.417C178.906,205.374 191.563,198.385 203.352,189.874C200.76,186.562 198.168,183.249 195.577,179.936C182.839,189.706 162.425,195.747 157.559,211.256C161.303,209.385 165.047,207.513 168.791,205.64Z" style="fill-rule:nonzero;"/>
    </g>
    <g transform="matrix(0.531802,0,0,0.552164,192.506,188.611)">
        <path d="M163.176,208.449C178.304,237.911 191.051,268.577 205.188,298.521C210.129,308.988 223.478,324.674 212.64,331.57C202.28,338.162 191.61,344.346 180.456,349.498C147.96,364.508 141.254,368.786 124.512,333.73C109.091,301.441 98.193,267.224 84.121,234.371C110.504,225.835 136.83,217.132 163.176,208.449Z" style="fill:rgb(255,0,0);"/>
    </g>
    <g transform="matrix(0.531802,0,0,0.552164,192.506,188.611)">
        <path d="M222.791,332.001C228.512,300.725 183.508,234.782 168.791,205.64C165.047,207.513 161.303,209.385 157.559,211.257C177.823,250.023 192.161,291.991 213.719,330.058C214.295,327.394 214.871,324.73 215.448,322.066C217.895,325.378 220.343,328.689 222.791,332.001Z" style="fill-rule:nonzero;"/>
    </g>
    <g transform="matrix(0.531802,0,0,0.552164,192.506,188.611)">
        <path d="M135.959,368.291C161.104,375.462 202.739,346.515 222.791,332.002C214.723,315.947 159.853,353.525 140.064,358.787C142.152,359.651 144.24,360.515 146.328,361.379C142.872,363.683 139.416,365.986 135.959,368.291Z" style="fill-rule:nonzero;"/>
    </g>
    <g transform="matrix(0.531802,0,0,0.552164,192.506,188.611)">
        <path d="M82.176,228.539C69.611,259.181 119.434,340.836 135.959,368.291C153.896,360.744 122.122,313.532 115.655,297.011C107.142,275.261 99.075,253.177 89.734,231.778C88.511,234.586 87.287,237.394 86.064,240.202C84.768,236.313 83.472,232.426 82.176,228.539Z" style="fill-rule:nonzero;"/>
    </g>
    <g transform="matrix(0.531802,0,0,0.552164,192.506,188.611)">
        <path d="M168.791,205.64C158.244,201.961 87.94,217.467 82.176,228.538C73.741,244.737 154.391,218.143 165.121,214.282C162.6,213.274 160.079,212.265 157.559,211.257C161.303,209.385 165.047,207.513 168.791,205.64Z" style="fill-rule:nonzero;"/>
    </g>
    <g transform="matrix(0.531802,0,0,0.552164,192.506,188.611)">
        <path d="M-15.889,252.73C-5.924,283.283 -5.746,347.388 26.879,364.834C51.802,378.161 113.115,365.656 141.145,364.834C127.449,342.534 117.654,318.384 107.879,294.201C103.835,284.195 93.851,239.352 84.121,234.371C68.685,226.468 3.17,250.174 -15.889,252.73Z" style="fill:white;"/>
    </g>
    <g transform="matrix(0.531802,0,0,0.552164,192.506,188.611)">
        <path d="M27.096,358.57C26.349,360.189 -4.24,268.28 -10.056,250.57C-37.51,255.988 5.248,358.527 26.665,371.097C26.808,366.921 26.952,362.746 27.096,358.57Z" style="fill-rule:nonzero;"/>
    </g>
    <g transform="matrix(0.531802,0,0,0.552164,192.506,188.611)">
        <path d="M135.959,368.291C137.688,365.051 139.416,361.811 141.145,358.57C103.103,359.686 65.118,361.088 27.096,358.57C22.245,379.517 68.398,372.735 84.551,372.609C101.887,372.474 139.106,378.244 146.328,361.379C142.872,363.683 139.416,365.986 135.959,368.291Z" style="fill-rule:nonzero;"/>
    </g>
    <g transform="matrix(0.531802,0,0,0.552164,192.506,188.611)">
        <path d="M85.414,240.417C83.111,239.265 80.807,238.112 78.504,236.96C97.019,281.03 111.174,327.112 135.959,368.29C153.576,360.877 120.462,308.873 113.711,292.042C106.325,273.63 100.128,238.627 82.824,228.321C83.688,232.354 84.551,236.386 85.414,240.417Z" style="fill-rule:nonzero;"/>
    </g>
    <g transform="matrix(0.531802,0,0,0.552164,192.506,188.611)">
        <path d="M-10.057,250.57C-11.785,253.378 -13.513,256.186 -15.241,258.994C4.132,256.43 91.502,249.459 82.823,228.322C58.822,234.07 -10.307,234.629 -21.722,254.89C-17.833,253.45 -13.945,252.01 -10.057,250.57Z" style="fill-rule:nonzero;"/>
    </g>
    <g transform="matrix(0.531802,0,0,0.552164,192.506,188.611)">
        <path d="M-15.889,252.73C-3.56,290.53 -4.253,335.794 26.879,364.834C3.32,367.3 -20.338,369.087 -43.969,370.883C-56.951,371.869 -106.077,382.981 -116.762,375.201C-141.746,357.009 -129.955,264.788 -91.49,261.587C-66.201,259.481 -41.191,254.438 -15.889,252.73Z" style="fill:rgb(255,0,0);"/>
    </g>
    <g transform="matrix(0.531802,0,0,0.552164,192.506,188.611)">
        <path d="M27.527,371.097C33.465,356.589 9.204,328.011 4.416,310.294C-0.926,290.528 -3.674,270.004 -10.057,250.569C-38.183,256.12 6.312,354.155 22.775,369.585C23.927,365.913 25.078,362.241 26.23,358.569C26.663,362.746 27.095,366.921 27.527,371.097Z" style="fill-rule:nonzero;"/>
    </g>
    <g transform="matrix(0.531802,0,0,0.552164,192.506,188.611)">
        <path d="M-126.48,375.417C-112.013,389.396 -68.989,378.98 -49.585,377.577C-32.425,376.336 32.707,378.945 26.231,358.569C-21.831,363.695 -71.436,369.382 -119.785,368.721C-117.841,370.665 -115.897,372.609 -113.953,374.553C-118.129,374.842 -122.305,375.13 -126.48,375.417Z" style="fill-rule:nonzero;"/>
    </g>
    <g transform="matrix(0.531802,0,0,0.552164,192.506,188.611)">
        <path d="M-99.266,255.97C-125.751,256.962 -130.339,283.982 -130.906,306.409C-131.348,323.894 -135.753,379.471 -113.953,374.554C-116.463,349.416 -118.842,324.108 -118.168,298.832C-117.579,276.7 -95.286,271.053 -99.266,255.97Z" style="fill-rule:nonzero;"/>
    </g>
    <g transform="matrix(0.531802,0,0,0.552164,192.506,188.611)">
        <path d="M-10.057,250.57C-26.556,241.299 -103.004,250.5 -98.401,268.498C-70.782,266.372 -43.479,261.029 -15.889,258.994C-17.833,257.626 -19.777,256.258 -21.721,254.89C-17.833,253.45 -13.945,252.01 -10.057,250.57Z" style="fill-rule:nonzero;"/>
    </g>
    <g transform="matrix(0.531802,0,0,0.552164,192.506,188.611)">
        <path d="M93.84,284.914C96.252,279.111 104.929,277.772 93.406,272.387C93.551,276.562 93.695,280.738 93.84,284.914Z" style="fill-rule:nonzero;"/>
    </g>
    <g transform="matrix(0.531802,0,0,0.552164,192.506,188.611)">
        <path d="M-124.752,322.714C-88.424,313.803 -52.016,304.989 -15.241,298.089C3.13,294.642 21.629,291.845 40.164,289.449C56.142,287.384 98.047,292.097 93.406,272.386C53.732,274.324 14.757,279.744 -24.204,287.288C-44.363,291.192 -132.613,302.343 -124.752,322.714Z" style="fill-rule:nonzero;"/>
    </g>
    <g transform="matrix(0.531802,0,0,0.552164,192.506,188.611)">
        <path d="M-127.344,310.617C-128.71,316.629 -137.013,319.419 -124.752,322.715C-125.616,318.682 -126.48,314.649 -127.344,310.617Z" style="fill-rule:nonzero;"/>
    </g>
    <g transform="matrix(0.531802,0,0,0.552164,192.506,188.611)">
        <path d="M37.895,343.017C40.459,337.349 49.294,336.36 37.895,330.49L37.895,343.017Z" style="fill-rule:nonzero;"/>
    </g>
    <g transform="matrix(0.531802,0,0,0.552164,192.506,188.611)">
        <path d="M-123.025,340.64C-102.701,342.202 37.895,350.218 37.895,336.753C37.895,327.28 -101.526,329.766 -122.16,328.112C-122.449,332.289 -122.737,336.464 -123.025,340.64Z" style="fill-rule:nonzero;"/>
    </g>
    <g transform="matrix(0.531802,0,0,0.552164,192.506,188.611)">
        <path d="M-122.16,328.113C-125.11,333.629 -133.852,334.094 -123.025,340.64C-122.737,336.464 -122.449,332.289 -122.16,328.113Z" style="fill-rule:nonzero;"/>
    </g>
    <g transform="matrix(0.531802,0,0,0.552164,192.506,188.611)">
        <path d="M-92.352,263.097C-100.19,211.205 -179.623,203 -205.321,243.441C-228.681,280.203 -182.275,283.073 -153.913,287.074C-139.507,289.106 -127.153,290.279 -118.058,285.347C-108.292,280.053 -106.803,266.89 -92.352,263.097Z" style="fill:white;"/>
    </g>
    <g transform="matrix(0.531802,0,0,0.552164,192.506,188.611)">
        <path d="M-123.457,231.562C-108.478,240.582 -101.758,264.399 -86.09,263.531C-87.819,244.897 -102.36,229.111 -118.274,220.33C-120.001,224.074 -121.729,227.818 -123.457,231.562Z" style="fill-rule:nonzero;"/>
    </g>
    <g transform="matrix(0.531802,0,0,0.552164,192.506,188.611)">
        <path d="M-182.641,230.05C-163.825,221.263 -122.447,234.724 -118.274,220.329C-140.926,209.282 -164.158,208.516 -187.393,218.386C-185.809,222.274 -184.225,226.162 -182.641,230.05Z" style="fill-rule:nonzero;"/>
    </g>
    <g transform="matrix(0.531802,0,0,0.552164,192.506,188.611)">
        <path d="M-211.586,264.826C-210.505,267.201 -209.424,269.577 -208.344,271.953C-204.526,255.084 -181.06,228.45 -187.393,218.387C-206.955,227.26 -224.528,255.399 -217.202,276.059C-215.33,272.314 -213.458,268.57 -211.586,264.826Z" style="fill-rule:nonzero;"/>
    </g>
    <g transform="matrix(0.531802,0,0,0.552164,192.506,188.611)">
        <path d="M-125.4,289.234C-123.312,287.506 -121.224,285.778 -119.136,284.05C-150.377,281.757 -183.112,278.818 -211.585,264.825C-213.457,268.569 -215.329,272.313 -217.2,276.057C-193.98,286.787 -135.46,307.573 -113.304,291.393C-117.336,290.674 -121.369,289.954 -125.4,289.234Z" style="fill-rule:nonzero;"/>
    </g>
    <g transform="matrix(0.531802,0,0,0.552164,192.506,188.611)">
        <path d="M-98.617,262.666C-97.033,260.794 -95.448,258.922 -93.863,257.051C-109.527,261.29 -122.387,272.96 -125.4,289.235C-114.207,292.845 -97.632,271.796 -86.089,263.532C-90.266,263.242 -94.441,262.954 -98.617,262.666Z" style="fill-rule:nonzero;"/>
    </g>
    <g transform="matrix(0.531802,0,0,0.552164,192.506,188.611)">
        <path d="M-113.521,379.089C-139.535,382.769 -173.067,381.042 -197.976,372.394C-237.114,358.806 -221.755,306.631 -214.392,270.441C-192.574,280.935 -168.545,285.482 -144.624,288.046C-126.592,289.98 -119.605,285.374 -118.552,305.833C-117.295,330.272 -115.978,354.737 -113.521,379.089Z" style="fill:rgb(255,0,0);"/>
    </g>
    <g transform="matrix(0.531802,0,0,0.552164,192.506,188.611)">
        <path d="M-226.488,365.265C-205.53,389.408 -141.885,390.033 -112.224,385.136C-113.578,367.782 -195.217,369.69 -216.984,359.001C-215.976,360.513 -214.968,362.026 -213.961,363.538C-218.137,364.114 -222.312,364.689 -226.488,365.265Z" style="fill-rule:nonzero;"/>
    </g>
    <g transform="matrix(0.531802,0,0,0.552164,192.506,188.611)">
        <path d="M-211.586,264.826C-234.72,275.907 -228.989,341.961 -226.488,365.265C-207.388,365.224 -212.256,292.87 -208.343,271.738C-211.296,273.178 -214.248,274.618 -217.2,276.058C-215.33,272.314 -213.458,268.57 -211.586,264.826Z" style="fill-rule:nonzero;"/>
    </g>
    <g transform="matrix(0.531802,0,0,0.552164,192.506,188.611)">
        <path d="M-113.09,290.097C-132.681,271.691 -184.662,278.057 -211.586,264.826C-213.458,268.57 -215.33,272.314 -217.201,276.058C-186.554,290.221 -152.93,294.323 -119.57,296.578C-121.586,294.562 -123.601,292.547 -125.617,290.531C-121.441,290.386 -117.266,290.242 -113.09,290.097Z" style="fill-rule:nonzero;"/>
    </g>
    <g transform="matrix(0.531802,0,0,0.552164,192.506,188.611)">
        <path d="M-112.225,385.136C-103.069,372.561 -109.736,349.482 -110.713,333.945C-111.634,319.295 -105.193,285.362 -125.617,290.531C-124.152,320.207 -122.775,349.952 -119.785,379.521C-118.129,377.361 -116.473,375.202 -114.816,373.042C-113.953,377.074 -113.088,381.105 -112.225,385.136Z" style="fill-rule:nonzero;"/>
    </g>
    <g transform="matrix(0.531802,0,0,0.552164,192.506,188.611)">
        <path d="M-113.521,379.089C-146.671,383.779 -190.138,379.719 -220.224,364.401C-223.128,404.316 -196.019,418.181 -159.529,421.424C-149.899,422.279 -112.468,424.944 -106.175,414.729C-104.611,412.19 -113.075,384.473 -113.521,379.089Z" style="fill:white;"/>
    </g>
    <g transform="matrix(0.531802,0,0,0.552164,192.506,188.611)">
        <path d="M-213.961,364.617C-217.129,366.346 -220.297,368.074 -223.465,369.803C-192.293,385.673 -146.585,390.809 -112.225,385.137C-113.648,366.9 -149.163,373.868 -166.01,371.746C-183.659,369.523 -211.925,355.726 -226.489,364.185C-222.312,364.329 -218.137,364.473 -213.961,364.617Z" style="fill-rule:nonzero;"/>
    </g>
    <g transform="matrix(0.531802,0,0,0.552164,192.506,188.611)">
        <path d="M-205.969,399.394C-215.6,386.489 -208.293,361.551 -226.489,364.185C-227.656,379.743 -225.446,396.87 -214.393,408.466C-216.183,410.518 -204.849,397.685 -205.969,399.394Z" style="fill-rule:nonzero;"/>
    </g>
    <g transform="matrix(0.531802,0,0,0.552164,192.506,188.611)">
        <path d="M-111.793,417.105C-110.785,414.441 -109.777,411.777 -108.77,409.113C-133.798,419.3 -207.744,398.207 -214.61,408.467C-193.923,425.77 -113.345,445.533 -100.561,412.356C-104.305,413.938 -108.049,415.521 -111.793,417.105Z" style="fill-rule:nonzero;"/>
    </g>
    <g transform="matrix(0.531802,0,0,0.552164,192.506,188.611)">
        <path d="M-112.225,385.136C-114.745,383.408 -117.266,381.68 -119.786,379.952C-118.596,392.616 -116.732,405.322 -111.794,417.104C-96.155,413.384 -103.421,381.465 -114.817,373.042C-113.953,377.074 -113.088,381.105 -112.225,385.136Z" style="fill-rule:nonzero;"/>
    </g>
</svg>
