<?xml version="1.0" encoding="UTF-8" standalone="no"?>
<svg
   xmlns:dc="http://purl.org/dc/elements/1.1/"
   xmlns:cc="http://creativecommons.org/ns#"
   xmlns:rdf="http://www.w3.org/1999/02/22-rdf-syntax-ns#"
   xmlns:svg="http://www.w3.org/2000/svg"
   xmlns="http://www.w3.org/2000/svg"
   xmlns:sodipodi="http://sodipodi.sourceforge.net/DTD/sodipodi-0.dtd"
   xmlns:inkscape="http://www.inkscape.org/namespaces/inkscape"
   inkscape:version="1.0 (4035a4f, 2020-05-01)"
   sodipodi:docname="paper.svg"
   id="svg82"
   style="fill-rule:evenodd;clip-rule:evenodd;stroke-linejoin:round;stroke-miterlimit:2;"
   xml:space="preserve"
   version="1.1"
   viewBox="0 0 2250 1500"
   height="100%"
   width="100%"><metadata
   id="metadata88"><rdf:RDF><cc:Work
       rdf:about=""><dc:format>image/svg+xml</dc:format><dc:type
         rdf:resource="http://purl.org/dc/dcmitype/StillImage" /></cc:Work></rdf:RDF></metadata><defs
   id="defs86"><filter
     id="filter374"
     style="color-interpolation-filters:sRGB;"
     inkscape:menu-tooltip="Soft, cushion-like bevel with matte highlights"
     inkscape:menu="Bevels"
     inkscape:label="Bloom"><feGaussianBlur
       id="feGaussianBlur350"
       stdDeviation="2.2"
       in="SourceAlpha"
       result="result1" /><feSpecularLighting
       id="feSpecularLighting354"
       surfaceScale="5"
       specularConstant="2"
       specularExponent="18.1"
       result="result0"><feDistantLight
         id="feDistantLight352"
         elevation="24"
         azimuth="225" /></feSpecularLighting><feComposite
       id="feComposite356"
       in2="SourceAlpha"
       operator="in"
       result="result6" /><feMorphology
       id="feMorphology358"
       operator="dilate"
       radius="5.7" /><feGaussianBlur
       id="feGaussianBlur360"
       stdDeviation="5.7"
       result="result11" /><feDiffuseLighting
       id="feDiffuseLighting364"
       in="result1"
       diffuseConstant="2"
       result="result3"
       surfaceScale="5"><feDistantLight
         id="feDistantLight362"
         azimuth="225"
         elevation="25" /></feDiffuseLighting><feBlend
       id="feBlend366"
       in2="SourceGraphic"
       in="result3"
       mode="multiply"
       result="result7" /><feComposite
       id="feComposite368"
       result="result91"
       in2="SourceAlpha"
       operator="in"
       in="result7" /><feBlend
       id="feBlend370"
       in2="result91"
       in="result6"
       mode="lighten"
       result="result9" /><feComposite
       id="feComposite372"
       in2="result9"
       in="result11" /></filter></defs><sodipodi:namedview
   inkscape:current-layer="svg82"
   inkscape:window-maximized="0"
   inkscape:window-y="23"
   inkscape:window-x="0"
   inkscape:cy="750"
   inkscape:cx="1125"
   inkscape:zoom="0.40133333"
   inkscape:snap-page="false"
   showgrid="false"
   id="namedview84"
   inkscape:window-height="740"
   inkscape:window-width="1405"
   inkscape:pageshadow="2"
   inkscape:pageopacity="0"
   guidetolerance="10"
   gridtolerance="10"
   objecttolerance="10"
   borderopacity="1"
   bordercolor="#666666"
   pagecolor="#ffffff" />
    <path
   style="clip-rule:evenodd;fill-rule:evenodd;stroke-width:0.842706;stroke-linejoin:round;stroke-miterlimit:2"
   id="path10"
   d="m 1205.2427,397.65047 c 25.3216,-2.91997 26.1399,20.07073 32.2891,36.99648 4.3256,11.90407 7.4942,19.92157 12.4089,30.07112 4.275,8.82903 -4.1689,10.81445 7.6635,20.77439 20.4946,17.25272 69.4289,13.06447 96.1427,25.51461 76.6946,35.74421 120.1614,109.13464 134.6374,190.44481 1.1975,6.72817 4.7335,17.69177 3.1012,24.42162 -2.1515,8.8678 2.368,7.51778 -9.8167,10.31304 -6.3928,1.46715 -4.9197,18.53279 -5.5046,25.04269 -3.0851,34.30741 -8.0276,68.24149 -14.0504,102.14945 -6.0835,34.25094 -14.4996,68.09739 -24.4444,101.41883 -4.2624,14.28133 -2.9966,44.61789 -11.4035,56.04079 -3.4938,4.747 -11.6479,6.3877 -13.4479,11.6251 -5.1514,14.9876 -2.6208,36.4808 -9.0852,49.1509 -9.8184,19.244 -38.6499,15.4004 -56.7343,18.408 -18.7376,3.1155 -25.8146,3.3978 -45.9755,-3.461 -21.7713,-7.4074 -35.0077,-25.1067 -56.0088,-33.3492 -32.8462,-12.8909 -55.7871,25.1396 -88.5718,19.9561 -18.2041,-2.8787 -29.0261,18.4974 -51.1733,11.9369 -10.2878,-3.048 -31.0756,-16.2558 -38.6768,-24.7873 -7.9088,-8.8762 -10.2119,-23.836 -10.8541,-35.9937 -0.6994,-13.2557 -38.3515,-4.6113 -48.073,-4.1006 -57.71523,3.0279 -72.15668,-38.21165 -82.46045,-90.39537 -10.81781,-54.79275 -12.06755,-115.5923 -9.30431,-171.30949 0.90085,-18.17127 4.91803,-39.56252 4.01465,-55.03797 -0.15169,-2.59638 -7.15373,0.77529 -6.11299,-5.46579 0.89664,-5.37731 2.18935,-10.65097 3.46689,-15.94737 2.71351,-11.24507 6.68519,-22.19098 11.03692,-32.89503 30.77815,-75.71966 90.27069,-165.71308 179.88149,-169.12351 17.2249,-0.65563 24.8194,2.54244 38.6768,-9.65825 9.8353,-8.65965 14.5915,-6.57226 10.3046,-20.27719 -4.0281,-12.87571 13.2727,-7.35008 13.8685,-18.63223 1.2092,-22.93425 8.0175,-42.36452 34.2054,-43.83083 z" /><g
   id="g80"
   transform="matrix(0.842706,0,0,0.842706,1167.1606,757.44679)">
        <g
   id="g78"
   transform="translate(-411.025,-420.945)">
            
            
            
            
            
            
            
            
            
            
            
            
            
            
            
            
            
            
            
            
            
            
            
            
            
            
            
            
            
            
            
            
            
            
        </g>
    <g
   id="g298"
   style="clip-rule:evenodd;fill-rule:evenodd;stroke-linejoin:round;stroke-miterlimit:2"
   transform="translate(-365.8531,-425.57802)"><path
     d="m 415.79,10.491 c 12.991,0.635 21.955,10.558 22.951,23.574 h -50.012 c 1.644,-14.988 11.5,-26.235 27.061,-23.574 z"
     style="fill:#800000"
     id="path12" /><path
     d="m 439.175,44.444 c 1.345,3.913 1.477,8.666 1.512,12.762 -8.477,-0.067 -79.074,-0.205 -48.061,-12.762 11.189,-4.53 34.677,-0.293 46.549,0 z"
     style="fill:#ffff99"
     id="path14" /><path
     d="m 454.544,72.559 c 1.734,18.802 -16.062,10.735 -29.443,9.516 -11.87,-1.082 -36.981,4.461 -46.762,0.865 -20.162,-7.413 0.286,-11.709 13.639,-14.057 19.277,-3.389 43.282,0.825 62.566,3.676 z"
     style="fill:#800000"
     id="path16" /><path
     d="m 487.233,281.036 c -7.482,-4.51 -21.509,-5.783 -27.492,-11.029 -29.974,-26.281 13.966,-37.865 8.438,-63.797 -3.119,-14.631 -28.798,-30.474 -39.612,-39.251 -17.251,-14.001 -40.5,9.245 -50.011,25.626 -5.473,9.426 -9.911,10.541 -8.443,22.275 1.204,9.626 28.725,13.062 8.226,24.437 -24.87,13.8 -15.492,20.244 7.361,11.354 19.173,-7.458 36.524,-12.404 49.79,5.73 5.012,6.851 -0.974,17.193 3.686,22.492 5.986,6.808 23.07,7.662 32.039,11.029 28.672,10.765 55.562,30.269 70.465,57.418 8.662,15.779 -30.477,14.572 -42.325,16.544 -28.362,4.721 -56.575,10.168 -85.077,14.056 -54.359,7.415 -109.349,11.53 -164.098,6.056 -26.195,-2.62 -52.211,-7.675 -77.396,-15.354 -21.5,-6.556 -45.437,-7.573 -40.374,-28.764 3.759,-15.731 31.452,-34.14 44.163,-42.602 20.649,-13.745 37.572,-20.478 52.065,-39.794 18.44,-24.576 32.143,-8.129 52.281,-5.622 11.479,1.429 1.506,6.374 15.154,1.08 -3.402,1.319 9.324,-14.555 12.123,-16.65 6.743,-5.048 40.931,-20.916 41.783,-28.547 1.047,-9.376 -36.309,-32.148 -44.164,-41.521 15.895,-8.307 39.142,-9.172 53.365,-20.546 22.637,-18.102 -12.168,-24.43 -26.955,-16.437 15.625,-22.849 42.619,-33.563 69.277,-34.818 43.221,-2.035 61.95,16.804 84.863,48.443 13.042,18.009 9.455,16.547 33.018,19.031 11.082,1.168 28.506,2.225 34.963,13.408 8.923,15.453 -3.293,20.987 -11.912,33.736 -11.083,16.394 16.683,22.877 -22.831,19.403 -11.231,-0.986 -26.878,42.275 -32.37,52.614 z"
     style="fill:#808080"
     id="path18" /><path
     d="m 504.987,287.739 c 2.005,-5.494 11.591,-46.627 18.293,-44.656 34.788,10.229 27.482,-13.312 35.18,-33.414 8.347,-21.799 24.748,-29.493 -1.951,-50.604 -19.169,-15.157 -57.27,-2.33 -59.32,-31.359 95.679,-2.411 175.8,66.165 213.246,149.223 11.403,25.292 18.833,51.621 25.758,78.394 8.018,30.996 2.956,31.231 -27.059,31.251 -21.33,0.014 -104.363,8.303 -119.502,-3.895 -14.027,-11.303 -0.3,-41.739 -8.877,-55.578 -14.812,-23.899 -8.329,58.406 -3.896,67.041 6.071,11.827 15.913,-0.948 17.862,21.735 1.282,14.925 1.736,29.89 1.295,44.871 -0.446,15.126 -1.839,30.207 -2.704,45.308 -1.299,22.68 -40.53,23.335 -59.965,26.279 -89.519,13.56 -180.087,11.406 -268.231,-9.735 -34.214,-8.206 -53.444,-11.542 -56.937,-48.117 -1.452,-15.207 -3.397,-32.294 1.301,-46.603 18.467,13.629 40.317,21.966 62.78,26.165 10.993,2.055 27.815,-0.646 37.669,3.026 10.42,3.883 16.739,17.533 27.494,21.41 24.99,9.009 34.736,-11.771 52.174,-30.059 12.593,-13.206 24.588,-21.794 39.403,-33.305 19.838,-15.413 23.349,-31.705 48.982,-35.466 16.435,-2.412 81.412,-1.41 85.669,-16.651 6.697,-23.971 -41.862,-64.375 -58.664,-75.261 z"
     style="fill:#c0dcc0"
     id="path20" /><path
     d="m 320.753,124.678 c -22.264,36.929 -36.439,13.323 -64.514,15.572 -17.154,1.375 -29.294,14.127 -32.797,30.925 -1.374,6.59 -5.621,22.557 -5.955,27.897 -0.834,13.327 10.378,28.16 9.959,35.9 -1.705,31.446 -66.858,56.615 -88.219,77.961 -16.088,16.078 -34.584,32.445 -18.941,50.498 9.927,11.457 37.92,15.567 52.389,18.598 -18.476,0.055 -62.635,-3.858 -78.586,-14.705 -17.934,-12.195 -9.4,-25.75 -0.648,-48.227 8.284,-21.275 20.145,-41.383 31.391,-61.201 41.375,-72.917 105.139,-146.284 195.921,-133.218 z"
     style="fill:#c0dcc0"
     id="path22" /><path
     d="m 414.06,123.381 c 16.119,11.191 48.142,25.613 60.184,40.008 16.191,19.354 -0.066,13.615 -17.573,4.977 -17.147,-8.46 -71.467,-19.717 -42.611,-44.985 z"
     id="path24" /><path
     d="m 251.911,154.522 c 12.807,-3.055 22.263,0.141 22.729,12.111 -35.607,-22.487 -17.635,10.004 -17.535,9.516 0.65,-3.168 8.099,1.654 8.227,3.459 0.487,6.868 -10.879,11.398 -11.689,17.734 -1.281,10.021 6.055,15.552 0,28.547 -43.418,4.335 -13.375,-21.408 -11.475,-32.656 2.446,-14.487 -12.245,-31.216 9.743,-38.711 z"
     style="fill:#ffffff"
     id="path26" /><path
     d="m 251.911,154.522 c 12.807,-3.055 22.263,0.141 22.729,12.111 -35.607,-22.487 -17.635,10.004 -17.535,9.516 0.65,-3.168 8.099,1.654 8.227,3.459 0.487,6.868 -10.879,11.398 -11.689,17.734 -1.281,10.021 6.055,15.552 0,28.547 -43.418,4.335 -13.375,-21.408 -11.475,-32.656 2.446,-14.487 -12.245,-31.216 9.743,-38.711 z"
     style="fill:#808080"
     id="path28" /><path
     d="m 521.224,170.959 c 15.791,-1.508 25.522,6.524 13.418,13.84 -8.697,5.256 -54.511,-3.892 -13.418,-13.84 z"
     id="path30" /><path
     d="m 293.044,174.85 c 9.236,8.146 18.473,16.293 27.709,24.439 -16.02,-1.514 -32.041,-3.027 -48.061,-4.541 4.59,-8.765 11.57,-15.97 20.352,-19.898 z"
     style="fill:#808080"
     id="path32" /><path
     d="m 414.06,175.284 c 12.115,3.854 20.403,14.061 28.795,23.355 -28.663,10.003 -67.666,4.11 -28.795,-23.355 z"
     style="fill:#808080"
     id="path34" /><path
     d="m 270.095,210.102 c 25.624,-6.214 13.446,10.995 25.545,12.977 6.328,1.037 12.315,-6.271 19.051,-7.57 -13.267,11.787 -67.238,31.465 -44.596,-5.407 z"
     style="fill:#ffffff"
     id="path36" /><path
     d="m 394.358,212.264 c 13.177,-0.032 12.302,14.28 19.701,14.922 6.361,0.552 6.256,-11.571 8.229,-11.678 5.996,-0.325 47.76,-0.83 21.861,14.057 -11.95,6.869 -51.905,0.606 -49.791,-17.301 z"
     style="fill:#ffffff"
     id="path38" /><path
     d="m 408.431,257.463 c 6.573,1.269 19.848,7.506 16.02,16.219 -2.705,6.158 -10.547,-4.319 -11.689,-4.109 -23.413,4.301 -35.523,-14.492 -4.331,-12.11 z"
     id="path40" /><path
     d="m 246.28,259.194 c 2.219,-0.471 36.808,1.711 21.867,12.326 -7.311,5.195 -40.029,0.411 -21.867,-12.326 z"
     id="path42" /><path
     d="m 92.142,382.463 c 47.164,9.401 106.984,2.377 102.832,60.337 -1.804,25.178 -2.543,50.49 -4.113,75.688 -2.724,43.721 -8.402,87.47 -9.309,131.273 -0.721,34.861 3.894,23.834 28.792,39.035 28.559,17.436 -27.479,6.591 -24.462,19.354 11.183,47.301 75.406,-60.77 79.883,-10.377 4.412,49.66 -83.759,44.19 -111.058,41.628 C 109.815,735.186 101.078,683.115 93.225,646.518 83.446,600.947 84.202,554.214 82.833,507.894 81.766,471.783 73,413.508 92.142,382.463 Z"
     style="fill:#808080"
     id="path44" /><path
     d="m 434.628,385.057 c 17.511,17.219 -85.611,52.851 -105,55.256 -40.319,5.002 -89.781,1.54 -118.201,-31.898 -17.577,-20.681 -14.783,-20.109 9.201,-16.328 25.112,3.959 49.512,8.349 75.012,9.406 47.293,1.96 92.902,-6.907 138.988,-16.436 z"
     style="fill:#808080"
     id="path46" /><path
     d="m 611.282,396.52 c 38.029,2.307 76.059,4.613 114.088,6.92 -5.589,78.683 -15.022,157.692 -37.453,233.561 -5.382,18.205 -13.679,35.845 -18.615,54.07 -3.132,11.563 1.72,32.277 -1.518,40.764 -3.164,8.294 -14.507,7.404 -18.697,18.523 -4.325,11.478 -6.073,24.238 -15.943,30.678 -9.193,5.998 -25.878,5.662 -36.369,5.297 -32.341,-1.126 -94.442,1.457 -112.143,-28.869 -8.502,-14.566 -13.646,-54.77 14.508,-46.5 3.486,1.024 21.884,41.161 27.275,23.145 -0.663,2.216 -22.53,-49.559 1.518,-33.738 16.053,10.561 -4.826,33.991 22.512,45.416 30.854,12.894 30.499,-18.938 21,-13.951 -21.937,11.518 -39.159,-23.083 -2.918,-14.49 25.811,6.12 19.407,-31.445 20.455,-49.74 2.933,-51.199 11.355,-101.956 15.152,-153.114 1.86,-25.064 -6.981,-103.312 7.148,-117.972 z"
     style="fill:#808080"
     id="path48" /><path
     d="m 364.917,447.989 c 8.435,9.139 -19.635,30.005 -31.824,7.137 10.608,-2.379 21.216,-4.758 31.824,-7.137 z"
     style="fill:#808080"
     id="path50" /><path
     d="m 204.933,516.977 c 21.414,19.199 34.379,40.996 60.616,56.552 11.489,6.812 23.234,13.186 34.964,19.573 15.284,8.323 4.336,11.219 11.365,21.844 7.944,12.009 -1.803,12.603 16.668,20.109 18.644,7.577 13.008,12.483 14.289,29.414 1.586,20.964 1.694,41.783 -17.319,52.333 -10.812,5.999 -33.655,17.364 -46.329,10.813 -20.653,-10.675 5.104,-20.627 -1.73,-42.17 -7.529,-23.733 -58.087,-40.756 -82.482,-34.383 3.043,-43.913 3.063,-92.209 9.958,-134.085 z"
     style="fill:#ffffff"
     id="path52" /><path
     d="m 237.839,532.551 c 90.921,15.554 181.402,27.762 273.641,15.352 18.299,-2.462 48.31,-15.479 65.812,-12.762 22.917,3.558 10.968,14.711 7.805,44.634 -4.529,42.859 3.141,58.879 -38.654,63.284 -15.738,1.659 -40.581,6.911 -55.312,-0.65 -56.948,-29.232 52.326,-32.291 38.965,-47.145 -8.191,-9.106 -99.812,5.153 -99.363,7.354 2.391,11.711 75.467,13.999 16.02,34.383 -22.671,7.773 -92.078,0.789 -110.844,-14.918 -11.383,-9.527 -9.708,-11.268 -10.499,-27.035 -0.598,-11.935 -18.816,-16.158 -27.603,-20.76 -21.639,-11.333 -46.059,-21.829 -59.968,-41.737 z"
     style="fill:#a6caf0"
     id="path54" /><path
     d="m 359.288,645.872 c 22.619,2.73 45.299,6.116 68.086,7.028 22.767,0.912 30.616,-6.526 29.224,19.896 -0.992,18.815 -2.391,37.281 -2.921,56.121 -0.889,31.603 -1.694,40.98 -33.662,47.9 -20.642,4.469 -35.382,16.611 -53.365,22.6 -12.571,4.186 -49.361,21.542 -59.535,18.814 -29.342,-7.866 -7.096,-43.541 9.418,-53.092 6.939,-4.013 9.668,-11.938 -0.76,-11.789 -11.613,0.166 -21.955,14.6 -27.709,22.928 -6.824,9.876 -5.293,32.194 -22.082,20.76 -24.11,-16.422 7.062,-32.363 17.537,-38.93 6.319,-3.961 36.14,-8.154 6.926,-14.273 -15.809,-3.312 -33.739,9.852 -41.566,22.061 -7.399,-23.393 11.23,-23.605 27.062,-25.301 9.259,-0.991 17.295,2.717 26.844,0.645 8.797,-1.909 17.189,-11.96 25.762,-12.756 5.475,-0.509 20.955,7.221 22.732,5.625 16.278,-14.609 1.183,-69.244 8.009,-88.237 z"
     style="fill:#808080"
     id="path56" /><path
     d="m 473.376,653.442 c 25.788,6.393 50.191,6.311 76.424,4.107 29.604,-2.486 30.949,-1.052 23.596,30.709 -25.143,-12.308 -49.086,0.88 -71.443,7.787 -0.634,0.195 -37.889,8.742 -33.984,11.027 -7.599,-4.447 2.559,-48.421 5.407,-53.63 z"
     style="fill:#808080"
     id="path58" /><path
     d="m 204.933,663.168 c -0.001,-0.714 5.396,0.115 5.846,1.734 -5.925,2.233 -6.461,2.8 -12.99,2.379 1.565,-1.979 6.242,-2.678 7.144,-4.113 z"
     style="fill:#002128"
     id="path60" /><path
     d="m 204.933,663.168 c -0.001,-0.714 5.396,0.115 5.846,1.734 -5.925,2.233 -6.461,2.8 -12.99,2.379 1.565,-1.979 6.242,-2.678 7.144,-4.113 z"
     style="fill:#808080"
     id="path62" /><path
     d="m 233.075,669.661 c 3.459,0.173 6.252,0.152 9.311,1.945 -10.245,23.596 -32.629,4.098 -9.311,-1.945 z"
     style="fill:#002128"
     id="path64" /><path
     d="m 233.075,669.661 c 3.459,0.173 6.252,0.152 9.311,1.945 -10.245,23.596 -32.629,4.098 -9.311,-1.945 z"
     style="fill:#808080"
     id="path66" /><path
     d="m 551.962,694.311 c 5.613,1.689 10.798,0.811 10.822,6.703 -14.727,1.804 -15.468,0.864 -10.822,-6.703 z"
     style="fill:#002128"
     id="path68" /><path
     d="m 551.962,694.311 c 5.613,1.689 10.798,0.811 10.822,6.703 -14.727,1.804 -15.468,0.864 -10.822,-6.703 z"
     style="fill:#808080"
     id="path70" /><path
     d="m 466.667,753.784 c 17.169,37.018 37.112,34.11 71.657,39.252 6.62,0.985 29.926,0.522 34.421,4.869 8.388,8.11 7.764,25.336 -6.275,29.842 -12.843,4.121 -54.369,-16.527 -65.596,-24.439 -16.22,-11.433 -46.011,-26.953 -34.207,-49.524 z"
     style="fill:#808080"
     id="path72" /><path
     d="m 633.36,796.604 c 7.761,6.989 7.684,18.394 -9.738,18.164 -4.112,-13.686 0.83,-13.979 9.738,-18.164 z"
     style="fill:#808080"
     id="path74" /><path
     d="m 593.745,800.284 c 25.849,-5.1 15.48,21.885 -2.168,23.355 -0.72,-7.314 -0.011,-18.138 2.168,-23.355 z"
     style="fill:#808080"
     id="path76" /></g></g>
</svg>
