<?xml version="1.0" encoding="UTF-8" standalone="no"?>
<!DOCTYPE svg PUBLIC "-//W3C//DTD SVG 1.1//EN" "http://www.w3.org/Graphics/SVG/1.1/DTD/svg11.dtd">
<svg width="100%" height="100%" viewBox="0 0 600 400" version="1.1" xmlns="http://www.w3.org/2000/svg" xmlns:xlink="http://www.w3.org/1999/xlink" xml:space="preserve" xmlns:serif="http://www.serif.com/" style="fill-rule:evenodd;clip-rule:evenodd;stroke-linejoin:round;stroke-miterlimit:2;">
    <g transform="matrix(1.12489,0,0,1.12489,-39.4637,-124.085)">
        <g transform="matrix(1,0,0,0.98255,0,8.09229)">
            <path d="M299.901,251.223C431.511,251.223 538.949,295.964 545.329,352.192L553.806,352.192L540.768,378.613C540.495,379.199 540.2,379.78 539.903,380.366L539.503,381.178L539.495,381.178C514.596,428.459 416.783,463.749 299.902,463.749C183.021,463.749 85.209,428.459 60.31,381.178L60.302,381.178L59.9,380.366C59.606,379.782 59.31,379.199 59.035,378.613L45.998,352.192L54.475,352.192C60.853,295.964 168.292,251.223 299.901,251.223Z" style="fill:rgb(12,111,117);"/>
        </g>
        <g transform="matrix(1,0,0,0.98255,0,8.09229)">
            <path d="M370.765,459.255C348.325,462.174 324.539,463.748 299.901,463.748C274.174,463.748 249.372,462.036 226.068,458.866C206.345,455.757 197.731,445.473 188.506,429.97C262.939,429.935 337.372,429.902 411.804,429.868C404.273,444.734 391.089,454.044 375.089,457.136C373.656,457.863 372.215,458.569 370.765,459.255Z" style="fill:rgb(6,75,80);"/>
        </g>
        <g transform="matrix(1,0,0,0.98255,0,8.09229)">
            <path d="M535.325,326.946C540.905,335.001 544.339,343.458 545.329,352.191L553.806,352.191L540.768,378.612C540.495,379.198 540.2,379.779 539.903,380.365L539.503,381.177L539.495,381.177C533.942,391.721 524.757,401.666 512.55,410.758L512.538,410.725C519.143,402.909 524.403,393.759 527.18,382.864L535.325,326.946Z" style="fill:rgb(6,75,80);"/>
        </g>
        <g transform="matrix(1,0,0,0.98255,0,8.09229)">
            <path d="M88.588,411.74C75.714,402.383 66.061,392.102 60.308,381.177L60.3,381.177L59.898,380.365C59.604,379.781 59.308,379.198 59.033,378.612L45.996,352.191L54.473,352.191C55.521,342.96 59.31,334.041 65.465,325.574L73.961,383.897C76.735,394.785 81.99,403.926 88.588,411.74Z" style="fill:rgb(6,75,80);"/>
        </g>
        <g transform="matrix(1,0,0,0.98255,0,8.09229)">
            <path d="M299.901,440.805C442.936,440.805 559.594,390.358 559.594,328.503C559.594,266.652 442.936,216.205 299.901,216.205C156.869,216.205 40.209,266.652 40.209,328.503C40.208,390.357 156.869,440.805 299.901,440.805Z" style="fill:rgb(52,192,202);"/>
        </g>
        <g transform="matrix(1,0,0,0.98255,0,8.09229)">
            <path d="M299.901,216.205C327.668,216.205 354.411,218.097 379.495,221.586C375.607,226.815 371.722,232.048 367.842,237.275C355.368,254.034 342.949,270.758 330.53,287.448C359.767,279.954 389.059,272.562 418.353,265.729C443.165,260.583 468.034,255.611 492.897,253.37C534.355,273.268 559.594,299.612 559.594,328.503C559.594,348.226 547.825,366.755 527.179,382.863C517.586,377.935 507.974,373.404 498.322,369.371C471.901,358.333 444.972,350.356 418.353,342.756C389.059,335.331 359.767,328.602 330.53,322.008C342.95,338.315 355.369,354.658 367.843,371.035C379.148,386.025 390.534,401.086 401.812,416.315C405.144,420.812 408.473,425.331 411.804,429.869C377.919,436.878 339.972,440.805 299.901,440.805C260.032,440.805 222.265,436.913 188.505,429.971C191.628,425.708 194.753,421.457 197.878,417.218C209.155,401.917 220.543,386.684 231.902,371.557C244.323,355.076 256.741,338.593 269.214,322.112C239.922,329.121 210.628,336.373 181.392,344.319C154.718,352.334 127.831,360.69 101.368,371.557C92.206,375.319 83.076,379.457 73.961,383.898C52.482,367.551 40.208,348.649 40.208,328.503C40.208,301.121 62.88,276.027 100.543,256.543L101.368,256.602C128.02,258.583 154.719,263.056 181.392,267.776C210.628,273.846 239.922,280.545 269.214,287.553C256.74,271.072 244.322,254.589 231.902,238.108C227.729,232.639 223.557,227.171 219.388,221.715C244.741,218.144 271.796,216.205 299.901,216.205Z" style="fill:rgb(22,149,157);"/>
        </g>
        <g transform="matrix(1,0,0,0.98255,0,8.09229)">
            <path d="M299.901,396.792C406.873,396.792 494.119,359.064 494.119,312.808C494.119,266.547 406.873,228.82 299.901,228.82C192.929,228.82 105.683,266.548 105.683,312.808C105.683,359.064 192.93,396.792 299.901,396.792Z" style="fill:rgb(86,198,210);"/>
        </g>
        <g transform="matrix(1,0,0,0.98255,0,8.09229)">
            <path d="M369.938,234.451L367.842,237.275C355.368,254.034 342.949,270.758 330.53,287.448C359.767,279.954 389.059,272.562 418.353,265.729C428.874,263.547 439.402,261.397 449.938,259.473C477.543,273.975 494.12,292.554 494.12,312.807C494.12,329.013 483.493,344.143 465.105,356.977C449.524,351.752 433.885,347.189 418.353,342.755C389.059,335.33 359.767,328.601 330.53,322.007C342.95,338.314 355.369,354.657 367.843,371.034C372.361,377.027 376.893,383.029 381.425,389.051C356.636,394.016 329.021,396.791 299.901,396.791C270.925,396.791 243.438,394.043 218.741,389.124C223.126,383.253 227.518,377.396 231.903,371.556C244.324,355.075 256.742,338.592 269.215,322.111C239.923,329.12 210.629,336.372 181.393,344.318C166.546,348.779 151.633,353.345 136.765,358.392C117.104,345.263 105.683,329.611 105.683,312.807C105.683,293.618 120.573,275.937 145.616,261.793C157.542,263.604 169.471,265.665 181.393,267.774C210.629,273.844 239.923,280.543 269.215,287.551C256.741,271.07 244.323,254.587 231.903,238.106L229.199,234.56C251.107,230.854 274.955,228.818 299.901,228.818C324.597,228.819 348.208,230.817 369.938,234.451Z" style="fill:rgb(34,176,186);"/>
        </g>
        <g transform="matrix(1,0,0,0.98255,0,8.09229)">
            <path d="M299.901,107.493C372.581,107.493 431.497,194.278 431.497,301.334L168.305,301.334C168.305,194.278 227.221,107.493 299.901,107.493Z" style="fill:rgb(228,234,241);"/>
        </g>
        <g transform="matrix(1,0,0,0.98255,0,8.09229)">
            <path d="M351.443,122.932C369.561,134.307 385.593,151.498 398.463,172.911C377.978,219.972 329.268,270.518 272.804,329.108C265.059,337.144 257.154,345.35 249.045,353.833C225.071,349.485 204.708,342.156 190.426,332.919C204.157,318.35 218.216,303.759 231.8,289.665C301.883,216.943 357.853,158.859 351.443,122.932ZM401.926,178.909C408.97,220.744 351.316,280.575 279.264,355.338L277.28,357.4C284.631,357.953 292.187,358.242 299.901,358.242C308.419,358.242 316.744,357.887 324.815,357.218C368.269,311.799 404.827,271.442 423.427,234.359C418.353,214.063 411.037,195.364 401.926,178.909Z" style="fill:rgb(244,248,253);"/>
        </g>
        <g transform="matrix(1,0,0,0.98255,0,8.09229)">
            <path d="M422.134,229.404C428.171,251.646 431.497,275.918 431.497,301.334C431.497,332.762 372.581,358.241 299.901,358.241C227.221,358.241 168.305,332.762 168.305,301.334C168.305,275.918 171.633,251.646 177.67,229.404C214.101,220.984 255.707,216.205 299.9,216.205C344.095,216.205 385.703,220.984 422.134,229.404Z" style="fill:rgb(130,203,209);"/>
        </g>
        <g transform="matrix(1,0,0,0.98255,0,8.09229)">
            <path d="M422.134,229.404C422.578,231.046 423.008,232.699 423.425,234.362C404.822,271.446 368.267,311.798 324.815,357.216C316.745,357.885 308.419,358.24 299.901,358.24C292.187,358.24 284.63,357.951 277.28,357.398L279.264,355.336C328.788,303.949 371.512,259.615 391.1,223.329C401.798,225.067 412.159,227.099 422.134,229.404ZM249.045,353.833C257.153,345.351 265.059,337.145 272.804,329.108C310.807,289.674 345.29,253.886 370.027,220.35C347.932,217.675 324.647,216.232 300.59,216.205C281.108,238.496 257.398,263.102 231.8,289.664C218.216,303.758 204.157,318.349 190.426,332.918C204.708,342.156 225.072,349.485 249.045,353.833Z" style="fill:rgb(189,228,232);"/>
        </g>
        <g transform="matrix(1,0,0,0.98255,0,8.09229)">
            <path d="M428.989,263.542C430.63,275.769 431.497,288.401 431.497,301.334C431.497,315.406 419.679,328.283 400.107,338.216C376.898,332.542 353.697,327.232 330.529,322.008C338.43,332.383 346.331,342.772 354.246,353.177C337.682,356.429 319.28,358.241 299.901,358.241C280.589,358.241 262.251,356.442 245.731,353.212C253.545,342.845 261.37,332.477 269.215,322.111C246.567,327.532 223.919,333.093 201.294,339.013C180.77,328.976 168.305,315.786 168.305,301.333C168.305,289.218 169.066,277.367 170.51,265.867C174.139,266.494 177.767,267.132 181.393,267.774C210.629,273.844 239.923,280.543 269.215,287.551C256.741,271.07 244.323,254.587 231.903,238.106C227.73,232.637 223.558,227.169 219.389,221.713C244.741,218.142 271.796,216.203 299.901,216.203C327.668,216.203 354.411,218.095 379.495,221.584C375.607,226.813 371.722,232.046 367.842,237.273C355.368,254.032 342.949,270.756 330.53,287.446C359.767,279.952 389.059,272.56 418.353,265.727C421.896,264.994 425.443,264.263 428.989,263.542Z" style="fill:rgb(124,182,187);"/>
        </g>
        <g transform="matrix(1,0,0,0.98255,0,8.09229)">
            <path d="M353.13,327.139C345.593,325.413 338.059,323.703 330.529,322.008C334.637,327.399 338.743,332.795 342.852,338.196C336.998,344.438 330.971,350.782 324.808,357.22C316.744,357.891 308.416,358.241 299.9,358.241C292.186,358.241 284.626,357.954 277.275,357.401L279.263,355.338C304.161,329.505 327.337,305.455 346.721,283.312C364.916,278.685 383.127,274.129 401.344,269.754C388.038,287.997 371.6,307.064 353.13,327.139ZM249.043,353.835C257.153,345.351 265.059,337.147 272.804,329.108C310.805,289.676 345.288,253.889 370.025,220.354C347.928,217.679 324.649,216.232 300.592,216.206C286.787,231.998 270.863,248.956 253.644,266.945C258.829,273.814 264.017,280.683 269.215,287.552C259.603,285.252 249.988,282.985 240.375,280.763L231.8,289.664C218.218,303.758 204.159,318.345 190.43,332.916C193.736,335.055 197.368,337.091 201.294,339.013C223.919,333.093 246.566,327.532 269.215,322.111C261.369,332.476 253.545,342.844 245.731,353.212C246.826,353.426 247.93,353.632 249.043,353.835Z" style="fill:rgb(149,196,200);"/>
        </g>
        <g transform="matrix(1,0,0,0.98255,0,8.09229)">
            <path d="M299.901,228.819C348.35,228.819 392.651,236.492 426.672,249.178C429.813,265.776 431.497,283.263 431.497,301.333L168.305,301.333C168.305,283.263 169.99,265.775 173.13,249.178C207.151,236.492 251.453,228.819 299.901,228.819Z" style="fill:rgb(198,232,235);"/>
        </g>
        <g transform="matrix(1,0,0,0.98255,0,8.09229)">
            <path d="M299.901,228.819C321.01,228.819 341.331,230.276 360.36,232.97C336.66,262.843 306.08,294.58 272.804,329.108C265.059,337.144 257.154,345.35 249.045,353.833C225.071,349.485 204.708,342.156 190.426,332.919C204.157,318.35 218.216,303.759 231.8,289.665C252.613,268.067 272.177,247.764 289.24,228.945C292.771,228.862 296.324,228.819 299.901,228.819ZM382.991,236.875C361.059,270.466 322.786,310.178 279.264,355.338L277.28,357.4C284.631,357.953 292.187,358.242 299.901,358.242C308.419,358.242 316.744,357.887 324.815,357.218C363.822,316.448 397.27,279.759 417.166,245.855C406.572,242.379 395.126,239.362 382.991,236.875Z" style="fill:rgb(216,239,242);"/>
        </g>
        <g transform="matrix(1,0,0,0.98255,0,8.09229)">
            <path d="M428.989,263.542C430.63,275.769 431.497,288.401 431.497,301.334L168.305,301.334C168.305,289.219 169.066,277.368 170.51,265.868C174.139,266.495 177.767,267.133 181.393,267.775C210.629,273.845 239.923,280.544 269.215,287.552C256.741,271.071 244.323,254.588 231.903,238.107L229.199,234.561C251.107,230.855 274.955,228.819 299.901,228.819C324.597,228.819 348.208,230.817 369.938,234.451L367.842,237.275C355.368,254.034 342.949,270.758 330.53,287.448C359.767,279.954 389.059,272.562 418.353,265.729C421.896,264.994 425.443,264.263 428.989,263.542Z" style="fill:rgb(164,219,223);"/>
        </g>
        <g transform="matrix(1,0,0,0.98255,0,8.09229)">
            <path d="M353.13,327.139C345.593,325.413 338.059,323.703 330.529,322.008C334.637,327.399 338.743,332.795 342.852,338.196C336.998,344.438 330.971,350.782 324.808,357.22C316.744,357.891 308.416,358.241 299.9,358.241C292.186,358.241 284.626,357.954 277.275,357.401L279.263,355.338C304.161,329.505 327.337,305.455 346.721,283.312C364.916,278.685 383.127,274.129 401.344,269.754C388.038,287.997 371.6,307.064 353.13,327.139ZM249.043,353.835C257.153,345.351 265.059,337.147 272.804,329.108C306.08,294.581 336.656,262.847 360.358,232.974C341.329,230.279 321.011,228.819 299.9,228.819C296.323,228.819 292.77,228.861 289.24,228.944C278.295,241.017 266.32,253.701 253.643,266.945C258.828,273.814 264.016,280.683 269.214,287.552C259.602,285.252 249.987,282.985 240.374,280.763L231.799,289.664C218.217,303.758 204.158,318.345 190.429,332.916C193.735,335.055 197.367,337.091 201.293,339.013C223.918,333.093 246.565,327.532 269.214,322.111C261.368,332.476 253.544,342.844 245.73,353.212C246.826,353.426 247.93,353.632 249.043,353.835Z" style="fill:rgb(202,234,238);"/>
        </g>
        <g transform="matrix(1,0,0,0.98255,0,8.09229)">
            <path d="M299.901,358.241C372.383,358.241 431.497,332.678 431.497,301.334C431.497,269.992 372.383,244.429 299.901,244.429C227.422,244.429 168.305,269.992 168.305,301.334C168.305,332.678 227.422,358.241 299.901,358.241Z" style="fill:rgb(81,143,148);"/>
        </g>
        <g transform="matrix(1,0,0,0.98255,0,8.09229)">
            <path d="M299.901,244.429C316.782,244.429 332.92,245.804 347.75,248.309C326.226,273.671 300.447,300.426 272.804,329.109C265.059,337.145 257.154,345.351 249.045,353.834C225.071,349.486 204.708,342.157 190.426,332.92C204.157,318.351 218.216,303.76 231.8,289.666C246.629,274.279 260.827,259.547 273.936,245.54C282.331,244.812 291.013,244.429 299.901,244.429ZM371.225,253.505C348.647,283.343 315.807,317.42 279.265,355.338L277.281,357.4C284.632,357.953 292.188,358.242 299.902,358.242C308.42,358.242 316.745,357.887 324.816,357.218C356.075,324.546 383.765,294.491 403.771,266.395C394.682,261.351 383.676,256.985 371.225,253.505Z" style="fill:rgb(109,167,171);"/>
        </g>
        <g transform="matrix(1,0,0,0.98255,0,8.09229)">
            <path d="M299.901,339.977C330.078,339.977 354.543,335.623 354.543,314.926C354.543,298.099 338.365,275.651 316.098,267.848C312.313,266.522 309.836,263.226 309.617,259.22C309.399,255.214 311.5,251.671 315.116,249.939C337.888,239.037 354.544,205.704 354.544,180.807C354.544,150.63 330.079,144.28 299.902,144.28C269.725,144.28 245.26,150.631 245.26,180.807C245.26,205.703 261.915,239.036 284.686,249.939C288.306,251.671 290.405,255.214 290.185,259.22C289.969,263.228 287.493,266.522 283.706,267.848C261.436,275.651 245.261,298.099 245.261,314.926C245.259,335.622 269.724,339.977 299.901,339.977Z" style="fill:rgb(186,213,50);"/>
        </g>
        <g transform="matrix(1,0,0,0.98255,0,8.09229)">
            <path d="M299.901,339.977C330.078,339.977 354.543,335.623 354.543,314.926C354.543,306.302 350.294,296.204 343.157,287.361C328.527,303.862 311.9,321.399 294.111,339.919C296.013,339.957 297.946,339.977 299.901,339.977ZM326.282,272.64C309.845,290.67 291.764,309.435 272.804,329.109L265.593,336.593C253.194,333.193 245.259,326.707 245.259,314.926C245.259,298.099 261.435,275.651 283.704,267.848C287.491,266.522 289.968,263.228 290.183,259.22C290.403,255.214 288.304,251.671 284.684,249.939C281.445,248.387 278.328,246.38 275.364,244.008C307.375,209.727 332.71,179.845 344.587,155.424C350.857,160.979 354.542,169.099 354.542,180.807C354.542,205.703 337.887,239.036 315.114,249.939C311.498,251.671 309.397,255.214 309.615,259.22C309.835,263.226 312.311,266.522 316.096,267.848C319.663,269.098 323.071,270.721 326.282,272.64Z" style="fill:rgb(210,224,96);"/>
        </g>
        <g transform="matrix(1,0,0,0.98255,0,8.09229)">
            <path d="M321.033,182.919C331.037,182.919 339.145,191.029 339.145,201.032C339.145,211.036 331.037,219.144 321.033,219.144C311.029,219.144 302.92,211.036 302.92,201.032C302.92,191.029 311.029,182.919 321.033,182.919ZM276.655,182.919C286.658,182.919 294.767,191.029 294.767,201.032C294.767,211.036 286.658,219.144 276.655,219.144C266.651,219.144 258.542,211.036 258.542,201.032C258.542,191.029 266.651,182.919 276.655,182.919Z" style="fill:rgb(230,234,209);"/>
        </g>
        <g transform="matrix(1,0,0,0.98255,0,8.09229)">
            <path d="M321.033,191.976C321.204,191.976 321.375,191.982 321.544,191.992C321.408,192.389 321.336,192.816 321.336,193.26C321.336,195.427 323.093,197.185 325.259,197.185C326.511,197.185 327.625,196.6 328.342,195.689C329.441,197.186 330.09,199.035 330.09,201.034C330.09,201.147 330.086,201.258 330.082,201.369C329.688,201.064 329.191,200.884 328.654,200.884C327.363,200.884 326.316,201.931 326.316,203.224C326.316,204.516 327.363,205.564 328.654,205.564C328.733,205.564 328.807,205.56 328.883,205.553C327.321,208.266 324.39,210.091 321.033,210.091C316.031,210.091 311.976,206.036 311.976,201.034C311.976,196.032 316.031,191.976 321.033,191.976ZM276.655,191.976C276.828,191.976 276.997,191.982 277.168,191.992C277.032,192.389 276.958,192.816 276.958,193.26C276.958,195.427 278.715,197.185 280.883,197.185C282.135,197.185 283.247,196.6 283.966,195.689C285.063,197.186 285.711,199.035 285.711,201.034C285.711,201.147 285.709,201.258 285.705,201.369C285.31,201.064 284.815,200.884 284.278,200.884C282.987,200.884 281.937,201.931 281.937,203.224C281.937,204.516 282.987,205.564 284.278,205.564C284.355,205.564 284.431,205.56 284.507,205.553C282.943,208.266 280.012,210.091 276.655,210.091C271.655,210.091 267.598,206.036 267.598,201.034C267.598,196.032 271.655,191.976 276.655,191.976Z" style="fill:rgb(42,43,28);"/>
        </g>
    </g>
</svg>
