<?xml version="1.0" encoding="UTF-8" standalone="no"?>
<!DOCTYPE svg PUBLIC "-//W3C//DTD SVG 1.1//EN" "http://www.w3.org/Graphics/SVG/1.1/DTD/svg11.dtd">
<svg width="100%" height="100%" viewBox="0 0 721 979" version="1.1" xmlns="http://www.w3.org/2000/svg" xmlns:xlink="http://www.w3.org/1999/xlink" xml:space="preserve" xmlns:serif="http://www.serif.com/" style="fill-rule:evenodd;clip-rule:evenodd;">
    <g id="g4472-7-3" transform="matrix(1,0,0,1,-27.2513,-16.925)">
        <path id="path3629-4-5-4" d="M643.73,749.97C634.637,776.878 550.79,765.079 458.11,733.757C365.426,702.435 299,663.452 308.1,636.544C317.193,609.636 434.56,618.954 531.66,630.919C666.12,647.488 652.83,723.062 643.74,749.969L643.73,749.97Z" style="fill:rgb(115,185,255);stroke:black;stroke-width:7.2px;"/>
        <g id="g16533-3-6" transform="matrix(1,0,0,1,-625.71,220)">
            <g id="path3593-1-7-8-1" transform="matrix(0.99946,-0.032894,0.032894,0.99946,884.16,-12.534)">
                <path d="M385.71,666.65C385.71,701.365 300.644,729.507 195.71,729.507C90.776,729.507 5.71,701.365 5.71,666.65C5.71,631.935 90.776,603.793 195.71,603.793C300.644,603.793 385.71,631.935 385.71,666.65Z" style="fill:rgb(115,185,255);stroke:black;stroke-width:7.2px;"/>
            </g>
            <path id="path4229-0-8-83-56" d="M1261.6,469.75C1261.09,469.752 1260.56,469.785 1260.04,469.813C1226.95,471.59 1202.92,524.747 1206.35,588.563C1206.72,595.494 1207.44,602.391 1208.44,609.157C1205.36,619.986 1204.2,633.745 1205.63,648.501C1208.84,681.54 1223.83,707.108 1239.1,705.626L1272.44,700.907C1345.18,672.598 1329.53,645.981 1326.16,582.127C1322.79,519.309 1294.06,469.597 1261.6,469.747L1261.6,469.75Z" style="fill:rgb(94,139,242);stroke:black;stroke-width:7.2px;"/>
            <path id="path3595-64-8-0-1-1" d="M1354.7,586.87C1358.07,650.726 1373.73,677.327 1300.99,705.64C1270.11,717.659 1238.3,657.126 1234.87,593.31C1231.44,529.495 1255.49,476.32 1288.58,474.54C1321.67,472.763 1351.27,523.054 1354.7,586.87L1354.7,586.87Z" style="fill:rgb(32,72,164);stroke:black;stroke-width:7.2px;"/>
        </g>
        <path id="path2816-89-7" d="M408.57,805.22C408.57,902.264 366.688,909.36 292.86,929.51C163.32,964.849 107.97,915.066 117.15,788.08C124.145,691.288 222.05,569.51 298.58,569.51C375.111,569.51 408.58,708.18 408.58,805.22L408.57,805.22Z" style="fill:rgb(115,185,255);stroke:black;stroke-width:7.2px;"/>
        <g id="g16841-6-2" transform="matrix(1,0,0,1,-8.5714,-8.5714)">
            <path id="path3760-3-4-2" d="M485.51,302.07C496.722,320.183 528.638,310.657 541.385,302.767C554.131,294.878 557.227,265.931 546.015,247.818C534.804,229.705 513.53,229.283 500.784,237.173C488.038,245.063 474.299,283.957 485.51,302.07L485.51,302.07Z" style="fill:rgb(255,170,170);stroke:black;stroke-width:7.2px;"/>
            <path id="path3760-3-3-3-92" d="M486.09,301.9C493.314,313.571 509.135,313.767 522.884,310.319C530.473,308.416 509.228,285.764 516.964,271.169C526.012,254.098 557.806,265.762 546.594,247.649C535.382,229.536 514.109,229.114 501.363,237.004C488.617,244.894 474.878,283.788 486.089,301.901L486.09,301.9Z" style="fill:rgb(255,213,213);stroke:black;stroke-width:7.2px;"/>
        </g>
        <path id="path3591-3-8" d="M528.57,366.65C528.57,484.25 465.209,537.94 391.49,578.35C352.156,599.906 297.606,598.131 256.93,579.226C173.33,540.356 80,492.876 80,366.646C80,240.406 186.13,86.646 310,86.646C433.87,86.646 528.57,249.046 528.57,366.646L528.57,366.65Z" style="fill:rgb(255,213,213);stroke:black;stroke-width:7.2px;"/>
        <path id="path3593-5-3-1" d="M242.26,822.53C347.19,822.581 504.78,890.443 497.4,924.36C490.016,958.281 352.34,961.97 249.81,956.792C145,951.502 111.41,881.702 118.95,847.822" style="fill:rgb(115,185,255);stroke:black;stroke-width:7.2px;stroke-linecap:round;stroke-linejoin:round;"/>
        <path id="path4229-3-8-24" d="M488.01,746.19C457.617,746.982 424.948,789.655 412.416,847.22C412.291,847.794 412.192,848.365 412.072,848.939C399.571,854.804 390.197,878.855 390.197,907.658C390.197,940.853 402.636,967.752 417.978,967.752L446.447,973.033C524.082,964.996 516.035,935.188 529.697,872.723C543.291,810.278 528.045,753.963 495.666,746.913C493.137,746.362 490.586,746.127 488.01,746.194L488.01,746.19Z" style="fill:rgb(94,139,242);stroke:black;stroke-width:7.2px;"/>
        <path id="path3595-64-7-6-7" d="M559.95,880.52C546.288,942.988 554.344,972.787 476.709,980.82C443.748,984.232 429.102,917.436 442.696,854.99C456.29,792.545 493.558,747.64 525.937,754.69C558.316,761.739 573.544,818.074 559.95,880.52Z" style="fill:rgb(33,73,163);stroke:black;stroke-width:7.2px;"/>
        <path id="path3629-04-8" d="M254.6,683.98C275.034,685.111 297.912,686.642 322.727,687.902C473.167,695.543 516.107,754.611 494.457,786.419C487.637,813.991 406.827,808.797 310.147,793.811C158.607,770.331 136.637,730.951 143.457,703.381" style="fill:rgb(115,185,255);stroke:black;stroke-width:7.2px;stroke-linecap:round;stroke-linejoin:round;"/>
        <path id="path4488-8-6" d="M311.44,84.746C248.016,84.746 189.61,123.982 147.13,178.809C104.644,233.635 77.817,304.209 77.817,368.339C77.817,432.357 108.366,464.821 139.723,502.999C162.991,531.325 196.336,550.474 228.817,567.468C248.597,577.817 292.005,589.656 292.005,589.656L314.438,591.812C330.229,603.413 327.619,595.593 340.746,592.232C353.873,588.871 349.024,614.45 360.38,607.062L361.005,606.656C361.005,606.656 389.965,584.268 404.411,573.031C426.758,555.648 434.225,557.028 471.349,520.75C508.472,484.472 533.599,428.403 533.599,368.34C533.599,308.572 509.691,238.06 470.099,182.15C430.507,126.24 374.951,84.744 311.439,84.744L311.44,84.746ZM311.44,91.934C371.802,91.934 405.495,137.335 444.22,192.024C482.947,246.713 513.193,316.224 513.193,374.054C513.193,431.597 497.822,471.984 461.242,507.734C424.901,543.247 398.865,559.573 362.153,575.484C349.495,580.97 335.542,584.326 321.747,584.443C309.775,584.545 297.727,581.568 286.555,577.265C236.598,558.024 184.885,528.259 148.315,495.511C111.688,462.71 120.744,439.131 120.744,376.911C120.744,314.802 136.978,242.541 178.525,188.931C220.072,135.316 250.991,91.935 311.435,91.935L311.44,91.934Z" style="fill-opacity:0.07;"/>
        <path id="path3760-8-3" d="M109.5,387.85C98.288,405.963 66.372,396.437 53.625,388.547C40.879,380.658 37.783,351.711 48.995,333.598C60.206,315.485 81.48,315.063 94.226,322.953C106.972,330.843 120.711,369.737 109.5,387.85L109.5,387.85Z" style="fill:rgb(255,213,213);stroke:black;stroke-width:7.2px;"/>
        <g id="path3785-89-7" transform="matrix(1.5923,-0.2664,-0.16478,0.80915,467.45,224.95)">
            <path d="M-94.286,90.934C-94.286,107.503 -100.042,120.934 -107.143,120.934C-114.244,120.934 -120,107.503 -120,90.934C-120,74.365 -114.244,60.934 -107.143,60.934C-100.042,60.934 -94.286,74.365 -94.286,90.934Z" style="stroke:black;stroke-width:7.2px;"/>
        </g>
        <path id="rect3809-6-2" d="M425.86,471.46C388.38,528.2 300.88,517.96 252.07,480.29" style="fill:rgb(255,213,213);stroke:black;stroke-width:7.2px;stroke-linecap:round;stroke-linejoin:round;"/>
        <path id="path16538-43-3" d="M372.75,108.88C372.75,119.48 322.698,121.002 306.08,135.144C272.29,110.904 239.41,119.484 239.41,108.884C239.41,98.284 269.259,89.691 306.08,89.691C342.901,89.691 372.75,98.284 372.75,108.884L372.75,108.88Z" style="fill:rgb(255,187,14);stroke:black;stroke-width:7.2px;stroke-linecap:round;stroke-linejoin:round;"/>
        <path id="rect3812-4-8-0-7" d="M368.54,114C388.731,96.788 433.601,156.735 442.418,98.88C423.554,124.808 385.144,76.793 352.634,97.067" style="fill:rgb(255,187,14);stroke:black;stroke-width:7.2px;stroke-linecap:round;stroke-linejoin:round;"/>
        <path id="rect3812-4-30-2" d="M333.16,112.34C348.91,90.99 379.09,102.03 374.53,43.685C362.05,73.221 344.61,70.352 317.55,97.483" style="fill:rgb(255,187,14);stroke:black;stroke-width:7.2px;stroke-linecap:round;stroke-linejoin:round;"/>
        <path id="rect3812-9-53" d="M254.59,97.302C291.201,82.65 322.825,58.025 348.012,20.525C336.564,50.134 338.278,81.937 306.326,108.129" style="fill:rgb(255,187,14);stroke:black;stroke-width:7.2px;stroke-linecap:round;stroke-linejoin:round;"/>
        <path id="rect4004-4-1" d="M316.5,544.93C344.368,553.719 365.261,543.466 384.39,528.396" style="fill:rgb(255,170,170);stroke:black;stroke-width:7.2px;stroke-linecap:round;stroke-linejoin:round;"/>
        <path id="rect4004-8-0-3" d="M228.09,488.11C256.707,482.2 253.472,483.463 262.828,460.98" style="fill:rgb(255,170,170);stroke:black;stroke-width:7.2px;stroke-linecap:round;stroke-linejoin:round;"/>
        <path id="rect4004-8-9-59-6" d="M415.36,464.51L438.214,473.791" style="fill:none;stroke:black;stroke-width:7.2px;stroke-linecap:round;stroke-linejoin:round;"/>
        <g id="path4077-4-4" transform="matrix(-3.6647,-10.921,11.267,-3.7805,-2218,116.37)">
            <path d="M-84.348,177.57C-84.342,177.576 -84.36,177.585 -84.363,177.585C-84.409,177.594 -84.427,177.53 -84.422,177.496C-84.403,177.379 -84.256,177.351 -84.162,177.384C-83.941,177.46 -83.9,177.741 -83.988,177.93C-84.156,178.291 -84.628,178.346 -84.948,178.17C-85.487,177.875 -85.558,177.15 -85.259,176.659C-84.797,175.9 -83.754,175.812 -83.051,176.273C-82.595,176.572 -82.291,177.063 -82.195,177.597" style="fill:rgb(255,170,170);fill-rule:nonzero;stroke:black;stroke-width:0.62px;stroke-linecap:round;stroke-linejoin:round;"/>
        </g>
        <g id="g17404-6-0" transform="matrix(0.97348,0.22879,-0.22879,0.97348,199.75,-87.433)">
            <path id="path4318-23-9-35" d="M453.38,710.63C419.643,710.498 392.068,724.891 386.411,748.255C379.17,778.161 412.628,799.329 448.536,832.693C483.216,864.915 531.639,824.693 538.88,794.787C542.327,791.176 541.813,780.629 537.443,768.256C538.414,768.478 539.404,768.649 540.411,768.819C556.367,771.497 557.784,762.216 558.244,754.635C558.876,744.225 552.247,735.021 536.291,732.342C526.352,730.673 526.777,735.687 520.849,739.162C511.405,727.791 498.714,718.136 482.818,714.287C472.754,711.85 462.827,710.668 453.38,710.631L453.38,710.63Z" style="fill:rgb(255,213,213);stroke:black;stroke-width:7.2px;"/>
            <path id="rect4275-92-2-85" d="M492.37,842.24C499.109,828.877 490.209,819.24 470.012,816.651" style="fill:rgb(255,213,213);stroke:black;stroke-width:7.2px;stroke-linecap:round;stroke-linejoin:round;"/>
            <path id="rect4275-0-86-2-0" d="M512.06,831.94C518.799,818.577 517.394,801.829 497.197,799.24" style="fill:rgb(255,213,213);stroke:black;stroke-width:7.2px;stroke-linecap:round;stroke-linejoin:round;"/>
            <path id="rect4275-2-7-4-9" d="M531.69,811.3C538.429,797.937 526.922,788.744 506.725,786.155" style="fill:rgb(255,213,213);stroke:black;stroke-width:7.2px;stroke-linecap:round;stroke-linejoin:round;"/>
            <path id="rect4275-4-3-7-9" d="M540.94,778.63C540.38,763.68 524.33,759.56 505.4,767.06" style="fill:none;fill-rule:nonzero;stroke:black;stroke-width:7.2px;stroke-linecap:round;stroke-linejoin:round;"/>
        </g>
        <g id="g17470-7-8">
            <path id="path3631-88-3-5-0" d="M619.55,651.33C585.813,651.198 558.238,665.591 552.581,688.955C545.88,716.631 566.7,744.752 598.3,775.236C598.844,779.289 605.282,793.714 613.322,797.892C620.149,801.439 635.965,802.574 636.393,797.271C667.057,794.77 699.688,757.628 705.049,735.485C714.31,725.782 694.996,666.125 648.987,654.985C638.922,652.549 628.996,651.366 619.549,651.329L619.55,651.33Z" style="fill:rgb(255,213,213);stroke:black;stroke-width:7.2px;"/>
            <path id="rect4275-46-95-4-2" d="M634.88,799.61C641.619,786.247 630.193,770.549 609.997,767.96" style="fill:rgb(255,213,213);stroke:black;stroke-width:7.2px;stroke-linecap:round;stroke-linejoin:round;"/>
            <path id="rect4275-46-9-9-81-4" d="M658.5,787.05C665.239,773.687 653.813,757.989 633.617,755.4" style="fill:rgb(255,213,213);stroke:black;stroke-width:7.2px;stroke-linecap:round;stroke-linejoin:round;"/>
            <path id="rect4275-46-2-7-2-9" d="M677.96,773.48C684.699,760.117 673.273,744.419 653.077,741.83" style="fill:rgb(255,213,213);stroke:black;stroke-width:7.2px;stroke-linecap:round;stroke-linejoin:round;"/>
            <path id="rect4275-46-7-9-8-01" d="M694.74,754.73C701.479,741.367 690.053,725.669 669.857,723.08" style="fill:rgb(255,213,213);stroke:black;stroke-width:7.2px;stroke-linecap:round;stroke-linejoin:round;"/>
        </g>
        <path id="rect4004-7-4-2-6-0" d="M264.45,280.79C279.225,272.394 292.341,266.338 310.006,280.382" style="fill:none;fill-rule:nonzero;stroke:black;stroke-width:7.2px;stroke-linecap:round;stroke-linejoin:round;"/>
        <path id="path4103" d="M331.03,427.47C331.03,427.47 341.069,435.6 347.03,435.47C353.892,435.321 365.03,425.47 365.03,425.47" style="fill:none;fill-rule:nonzero;stroke:black;stroke-width:6px;stroke-linecap:round;stroke-linejoin:round;"/>
        <g id="path3785-89-7-1" transform="matrix(-1.5923,-0.2664,0.16478,0.80915,222.44,224.35)">
            <path d="M-94.286,90.934C-94.286,107.503 -100.042,120.934 -107.143,120.934C-114.244,120.934 -120,107.503 -120,90.934C-120,74.365 -114.244,60.934 -107.143,60.934C-100.042,60.934 -94.286,74.365 -94.286,90.934Z" style="stroke:black;stroke-width:7.2px;"/>
        </g>
        <g id="path4105-7" transform="matrix(-0.78196,0.41056,0.35686,0.52495,450.4,12.122)">
            <path d="M247.5,397.17C247.5,407.111 242.463,415.17 236.25,415.17C230.037,415.17 225,407.111 225,397.17C225,387.229 230.037,379.17 236.25,379.17C242.463,379.17 247.5,387.229 247.5,397.17Z" style="fill:white;fill-rule:nonzero;"/>
        </g>
        <path id="rect4004-7-4-2-6-0-4" d="M416.31,279.19C401.107,271.31 390.492,266.612 374.087,279.449" style="fill:none;fill-rule:nonzero;stroke:black;stroke-width:7.2px;stroke-linecap:round;stroke-linejoin:round;"/>
        <g id="path4105" transform="matrix(0.78196,0.41056,-0.35686,0.52495,239.49,12.729)">
            <path d="M247.5,397.17C247.5,407.111 242.463,415.17 236.25,415.17C230.037,415.17 225,407.111 225,397.17C225,387.229 230.037,379.17 236.25,379.17C242.463,379.17 247.5,387.229 247.5,397.17Z" style="fill:white;fill-rule:nonzero;"/>
        </g>
    </g>
</svg>
