<?xml version="1.0" encoding="UTF-8"?>
<!DOCTYPE svg PUBLIC "-//W3C//DTD SVG 1.1//EN" "http://www.w3.org/Graphics/SVG/1.1/DTD/svg11.dtd">
<svg version="1.1" xmlns="http://www.w3.org/2000/svg" xmlns:xlink="http://www.w3.org/1999/xlink" x="0" y="0" width="440" height="510" viewBox="0, 0, 440, 510">
  <g id="Layer_1">
    <path d="M108.6,248.965 C108.6,248.965 96.645,265.18 94.065,269.955 C91.48,274.735 83.26,299.35 83.26,299.35 L70.605,279.22 C70.605,279.22 70.725,252.915 60.315,249.655 C49.905,246.39 47.89,251.33 47.89,251.33 C47.89,251.33 36.985,236.895 32.295,240.47 C27.605,244.04 24.175,250.72 24.175,250.72 C24.175,250.72 18.27,252.11 15.765,254.46 C13.26,256.815 13.59,259.965 13.59,259.965 C13.59,259.965 9.705,260.705 6.875,264.185 C4.055,267.675 6.57,273.9 6.57,273.9 C6.57,273.9 3.7,276.455 3.545,281.31 C3.395,286.17 9.56,294.66 14.215,294.445 C18.865,294.24 21.82,293.54 21.82,293.54 C21.82,293.54 29.89,302.885 32.725,303.685 C35.555,304.485 39.92,302.055 39.92,302.055 C39.92,302.055 46.855,335.88 55.95,351.32 C65.04,366.77 87.01,361.67 98.08,350.725 C107.01,341.895 132.25,310.2 132.25,310.2 C132.25,310.2 134.895,344.025 136.64,349.73 C138.395,355.43 115.225,396.03 115.225,396.03 C115.225,396.03 154.555,437.12 195.415,428.595 C215.925,424.31 226.425,413.205 226.425,413.205 L323.425,380.1 C323.425,380.1 343.63,385.53 350.55,385.97 C357.465,386.4 360.06,385.91 360.06,385.91 C360.06,385.91 345.475,401.67 341.93,409.855 C338.38,418.04 339.89,422.445 339.89,422.445 C339.89,422.445 329.385,433.555 329.675,440.07 C329.965,446.585 359.8,479.56 366.675,474.77 C373.55,469.985 367.515,443.77 367.515,443.77 C367.515,443.77 436.56,390.48 430.35,360.54 C424.155,330.605 396.325,313.21 386.765,308.04 C377.2,302.88 345.98,293.1 345.98,293.1 L324.865,271.475 C324.865,271.475 324.975,265.69 315.805,252.675 C306.645,239.66 290.68,229 290.68,229 C290.68,229 362.23,206.745 364.5,182.58 C366.77,158.415 330.09,126.865 330.09,126.865 C330.09,126.865 337.19,110.515 328.475,103.44 C322.82,98.855 314.515,104.07 314.515,104.07 C314.515,104.07 310.305,101.645 305.325,102.995 C300.345,104.335 299.34,106.805 299.34,106.805 C299.34,106.805 297.845,106.685 293.64,108.555 C289.44,110.425 289.84,115.44 289.84,115.44 C289.84,115.44 282.23,112.055 279.81,116.27 C278.545,118.465 286.465,127.345 286.465,127.345 C286.465,127.345 274.47,138.33 280.915,149.045 C284.36,154.77 303.835,152.49 303.835,152.49 L309.88,166.765 C309.88,166.765 279.05,169.65 265.255,174 C251.465,178.355 111.75,244.355 108.6,248.965" fill="#FAD9C6"/>
    <path d="M108.6,248.965 C108.6,248.965 96.645,265.18 94.065,269.955 C91.48,274.735 83.26,299.35 83.26,299.35 L70.605,279.22 C70.605,279.22 70.725,252.915 60.315,249.655 C49.905,246.39 47.89,251.33 47.89,251.33 C47.89,251.33 36.985,236.895 32.295,240.47 C27.605,244.04 24.175,250.72 24.175,250.72 C24.175,250.72 18.27,252.11 15.765,254.46 C13.26,256.815 13.59,259.965 13.59,259.965 C13.59,259.965 9.705,260.705 6.875,264.185 C4.055,267.675 6.57,273.9 6.57,273.9 C6.57,273.9 3.7,276.455 3.545,281.31 C3.395,286.17 9.56,294.66 14.215,294.445 C18.865,294.24 21.82,293.54 21.82,293.54 C21.82,293.54 29.89,302.885 32.725,303.685 C35.555,304.485 39.92,302.055 39.92,302.055 C39.92,302.055 46.855,335.88 55.95,351.32 C65.04,366.77 87.01,361.67 98.08,350.725 C107.01,341.895 132.25,310.2 132.25,310.2 C132.25,310.2 134.895,344.025 136.64,349.73 C138.395,355.43 115.225,396.03 115.225,396.03 C115.225,396.03 154.555,437.12 195.415,428.595 C215.925,424.31 226.425,413.205 226.425,413.205 L323.425,380.1 C323.425,380.1 343.63,385.53 350.55,385.97 C357.465,386.4 360.06,385.91 360.06,385.91 C360.06,385.91 345.475,401.67 341.93,409.855 C338.38,418.04 339.89,422.445 339.89,422.445 C339.89,422.445 329.385,433.555 329.675,440.07 C329.965,446.585 359.8,479.56 366.675,474.77 C373.55,469.985 367.515,443.77 367.515,443.77 C367.515,443.77 436.56,390.48 430.35,360.54 C424.155,330.605 396.325,313.21 386.765,308.04 C377.2,302.88 345.98,293.1 345.98,293.1 L324.865,271.475 C324.865,271.475 324.975,265.69 315.805,252.675 C306.645,239.66 290.68,229 290.68,229 C290.68,229 362.23,206.745 364.5,182.58 C366.77,158.415 330.09,126.865 330.09,126.865 C330.09,126.865 337.19,110.515 328.475,103.44 C322.82,98.855 314.515,104.07 314.515,104.07 C314.515,104.07 310.305,101.645 305.325,102.995 C300.345,104.335 299.34,106.805 299.34,106.805 C299.34,106.805 297.845,106.685 293.64,108.555 C289.44,110.425 289.84,115.44 289.84,115.44 C289.84,115.44 282.23,112.055 279.81,116.27 C278.545,118.465 286.465,127.345 286.465,127.345 C286.465,127.345 274.47,138.33 280.915,149.045 C284.36,154.77 303.835,152.49 303.835,152.49 L309.88,166.765 C309.88,166.765 279.05,169.65 265.255,174 C251.465,178.355 111.75,244.355 108.6,248.965 z" fill-opacity="0" stroke="#636463" stroke-width="7.085" stroke-linecap="round" stroke-linejoin="round"/>
    <path d="M303.835,152.49 C296.955,151.865 288.86,157.47 282.13,152.325 C273.92,146.05 278.88,135.225 285.905,131.005 C290.095,128.48 299.75,126.45 302.065,133.05 C303.67,137.64 297.28,140.845 293.69,142.875" fill="#FAD9C6"/>
    <g>
      <path d="M303.835,152.49 C296.955,151.865 288.86,157.47 282.13,152.325 C273.92,146.05 278.88,135.225 285.905,131.005 C290.095,128.48 299.75,126.45 302.065,133.05 C303.67,137.64 297.28,140.845 293.69,142.875 M47.485,250.605 C42.935,255.845 36.865,267.375 41.605,274.27 C45.35,279.705 52.965,276.32 55.695,271.31 M24.705,249.95 C19.96,255.6 28.4,272.005 36.35,268.265 C36.35,268.265 38.89,266.85 39.17,264.785 C39.455,262.715 36.04,253.17 36.04,253.17 M13.955,259.765 C11,262.775 16.96,272.28 19.98,274.44 C23.955,277.28 30.545,277.96 34.33,275.05 C34.255,274.125 34.2,272.935 33.725,272.12 M7.46,272.925 C10.13,277.665 13.875,284.24 19.415,285.825 C23.855,287.075 29.025,285.145 30.175,280.295 M21.21,292.455 C22.28,291.67 22.99,290.665 23.31,289.375 M287.985,115.525 C297.62,110.22 312.43,130.475 305.58,133.385 M301.36,106.155 C311.98,107.715 323.56,129.225 307.8,133.095 M310.79,104.24 C314.75,102.015 320.19,109.75 321.765,112.78 C325.235,119.45 322.145,125.015 315.6,128.27" fill-opacity="0" stroke="#636463" stroke-width="7.085" stroke-linecap="round" stroke-linejoin="round"/>
      <path d="M187.5,364.785 C187.5,364.785 157.81,347.47 132.36,354.025 C106.92,360.59 83.24,388.79 87.78,411.81 C91.165,429.005 100.53,442.385 119.7,457.93 C132.75,468.515 152.105,473.265 152.105,473.265 C152.105,473.265 134.21,494.21 143.415,503.87 C152.615,513.525 172.98,493.585 179.925,486.37 C186.88,479.155 194.615,460.635 194.695,458.1 C194.92,450.815 194.255,448.235 190.74,445.03 C186.855,441.475 182.235,438.325 182.235,438.325 C182.235,438.325 171.44,418.11 167.585,411.195 C163.725,404.28 158.815,394.62 158.815,394.62" fill="#FAD9C6"/>
      <path d="M187.5,364.785 C187.5,364.785 157.81,347.47 132.36,354.025 C106.92,360.59 83.24,388.79 87.78,411.81 C91.165,429.005 100.53,442.385 119.7,457.93 C132.75,468.515 152.105,473.265 152.105,473.265 C152.105,473.265 134.21,494.21 143.415,503.87 C152.615,513.525 172.98,493.585 179.925,486.37 C186.88,479.155 194.615,460.635 194.695,458.1 C194.92,450.815 194.255,448.235 190.74,445.03 C186.855,441.475 182.235,438.325 182.235,438.325 C182.235,438.325 171.44,418.11 167.585,411.195 C163.725,404.28 158.815,394.62 158.815,394.62" fill-opacity="0" stroke="#636463" stroke-width="7.085" stroke-linecap="round" stroke-linejoin="round"/>
    </g>
    <path d="M236.005,409.18 C236.005,409.18 251.9,410 272.22,403.91 C292.56,397.815 307.28,381.935 307.28,381.935 C307.28,381.935 310.23,386.895 315.17,386.905 C320.12,386.895 320.29,374.825 319.465,370.255 C318.645,365.675 324.255,367.375 328.9,361.615 C333.54,355.85 328.9,361.615 329.265,357.55 C329.635,353.49 336.47,350.775 341.605,348.74 C346.735,346.71 342.485,343.49 342.525,338.585 C342.555,333.67 346.46,336.045 351.43,331.13 C356.41,326.22 351.47,326.22 353.03,322.66 C354.595,319.105 368.935,293.175 368.935,293.175 C365.88,290.47 355.58,294.9 355.58,294.9 C355.58,294.9 345.475,289.67 335.28,279.025 C335.405,273.86 330.155,264.715 330.155,264.715 C330.155,264.715 261.345,288.4 237.41,297.88 C213.49,307.355 135.145,344.26 135.145,344.26 C135.145,344.26 139.39,350.785 138.11,353.205 C138.11,353.205 163.205,355.43 166.4,356.035 L167.5,359.72 L173.21,357.97 C174.855,359.475 175.345,361.965 177.575,363.125 C181.365,365.09 187.81,362.14 191.76,361.965 C191.455,363.01 191.49,363.5 191.335,364.58 C191.175,365.785 189.665,365.83 189.56,366.575 C188.455,374.25 197.475,374.805 203.615,373.09 C204.52,376.27 199.82,379.77 201.205,383.315 C202.54,386.74 207.465,385.43 210.225,384.17 C210.66,387.725 209.235,391.26 209.78,394.865 C213.32,395.49 216.68,392.68 219.9,391.915 C215.39,394.915 220.51,401.015 223.83,402.6 C222.195,407.61 231.84,407.97 235.24,408.46 C234.145,409.005 233.275,410.345 232.37,411.045 C233.385,413.79 236.69,412.5 238.645,411.165 L236.005,409.18" fill="#FFFFFE"/>
    <path d="M236.005,409.18 C236.005,409.18 251.9,410 272.22,403.91 C292.56,397.815 307.28,381.935 307.28,381.935 C307.28,381.935 310.23,386.895 315.17,386.905 C320.12,386.895 320.29,374.825 319.465,370.255 C318.645,365.675 324.255,367.375 328.9,361.615 C333.54,355.85 328.9,361.615 329.265,357.55 C329.635,353.49 336.47,350.775 341.605,348.74 C346.735,346.71 342.485,343.49 342.525,338.585 C342.555,333.67 346.46,336.045 351.43,331.13 C356.41,326.22 351.47,326.22 353.03,322.66 C354.595,319.105 368.935,293.175 368.935,293.175 C365.88,290.47 355.58,294.9 355.58,294.9 C355.58,294.9 345.475,289.67 335.28,279.025 C335.405,273.86 330.155,264.715 330.155,264.715 C330.155,264.715 261.345,288.4 237.41,297.88 C213.49,307.355 135.145,344.26 135.145,344.26 C135.145,344.26 139.39,350.785 138.11,353.205 C138.11,353.205 163.205,355.43 166.4,356.035 L167.5,359.72 L173.21,357.97 C174.855,359.475 175.345,361.965 177.575,363.125 C181.365,365.09 187.81,362.14 191.76,361.965 C191.455,363.01 191.49,363.5 191.335,364.58 C191.175,365.785 189.665,365.83 189.56,366.575 C188.455,374.25 197.475,374.805 203.615,373.09 C204.52,376.27 199.82,379.77 201.205,383.315 C202.54,386.74 207.465,385.43 210.225,384.17 C210.66,387.725 209.235,391.26 209.78,394.865 C213.32,395.49 216.68,392.68 219.9,391.915 C215.39,394.915 220.51,401.015 223.83,402.6 C222.195,407.61 231.84,407.97 235.24,408.46 C234.145,409.005 233.275,410.345 232.37,411.045 C233.385,413.79 236.69,412.5 238.645,411.165 L236.005,409.18 z" fill-opacity="0" stroke="#636463" stroke-width="7.085" stroke-linecap="round" stroke-linejoin="round"/>
    <path d="M288.13,112.53 C292.98,124.225 287.425,137.63 275.73,142.48 C264.04,147.325 250.635,141.77 245.79,130.08 C240.945,118.39 246.5,104.98 258.19,100.135 C269.885,95.285 283.285,100.835 288.13,112.53" fill="#FAD9C6"/>
    <path d="M288.13,112.53 C292.98,124.225 287.425,137.63 275.73,142.48 C264.04,147.325 250.635,141.77 245.79,130.08 C240.945,118.39 246.5,104.98 258.19,100.135 C269.885,95.285 283.285,100.835 288.13,112.53 z" fill-opacity="0" stroke="#636463" stroke-width="7.085" stroke-linecap="round" stroke-linejoin="round"/>
    <path d="M59.475,212.38 C64.32,224.075 58.77,237.48 47.075,242.325 C35.39,247.175 21.98,241.625 17.135,229.93 C12.285,218.235 17.835,204.83 29.53,199.985 C41.225,195.14 54.63,200.695 59.475,212.38" fill="#FAD9C6"/>
    <path d="M59.475,212.38 C64.32,224.075 58.77,237.48 47.075,242.325 C35.39,247.175 21.98,241.625 17.135,229.93 C12.285,218.235 17.835,204.83 29.53,199.985 C41.225,195.14 54.63,200.695 59.475,212.38 z" fill-opacity="0" stroke="#636463" stroke-width="7.085" stroke-linecap="round" stroke-linejoin="round"/>
    <path d="M262.2,105.15 C284.86,159.835 247.04,216.965 182.31,243.785 C117.585,270.615 50.44,256.975 27.78,202.29 C5.115,147.6 35.51,72.575 100.245,45.745 C164.975,18.92 239.535,50.455 262.2,105.15" fill="#FAD9C6"/>
    <path d="M262.2,105.15 C284.86,159.835 247.04,216.965 182.31,243.785 C117.585,270.615 50.44,256.975 27.78,202.29 C5.115,147.6 35.51,72.575 100.245,45.745 C164.975,18.92 239.535,50.455 262.2,105.15 z" fill-opacity="0" stroke="#636463" stroke-width="7.085" stroke-linecap="round" stroke-linejoin="round"/>
    <path d="M167.995,33.455 C167.995,33.455 148.26,27.195 134.29,23.965 C120.325,20.735 105.42,4.36 105.42,4.36 L114.355,25.915 C114.355,25.915 88.315,34.905 73.47,49.165 C58.64,63.435 53.525,88.105 53.525,88.105 L74.595,64.94 C74.595,64.94 69.32,76.145 70.52,85.58 C71.72,95.005 74.145,103.015 74.145,103.015 L89.975,69.4 C89.975,69.4 91.23,83.305 93.01,89.785 C94.795,96.26 98.885,101.775 98.885,101.775 L108.875,71.48 C108.875,71.48 108.725,84.18 110.955,89.565 C113.19,94.955 116.65,98.935 116.65,98.935 C116.65,98.935 124.995,76.5 132.485,65.31 C142.51,50.33 150.845,48.68 150.845,48.68 C150.845,48.68 156.91,63.315 156.195,68.115 C155.48,72.915 155.22,76.635 155.22,76.635 C155.22,76.635 168.885,68.265 172.435,55.065 C175.345,44.27 176.31,42.64 167.995,33.455" fill="#977B67"/>
    <path d="M167.995,33.455 C167.995,33.455 148.26,27.195 134.29,23.965 C120.325,20.735 105.42,4.36 105.42,4.36 L114.355,25.915 C114.355,25.915 88.315,34.905 73.47,49.165 C58.64,63.435 53.525,88.105 53.525,88.105 L74.595,64.94 C74.595,64.94 69.32,76.145 70.52,85.58 C71.72,95.005 74.145,103.015 74.145,103.015 L89.975,69.4 C89.975,69.4 91.23,83.305 93.01,89.785 C94.795,96.26 98.885,101.775 98.885,101.775 L108.875,71.48 C108.875,71.48 108.725,84.18 110.955,89.565 C113.19,94.955 116.65,98.935 116.65,98.935 C116.65,98.935 124.995,76.5 132.485,65.31 C142.51,50.33 150.845,48.68 150.845,48.68 C150.845,48.68 156.91,63.315 156.195,68.115 C155.48,72.915 155.22,76.635 155.22,76.635 C155.22,76.635 168.885,68.265 172.435,55.065 C175.345,44.27 176.31,42.64 167.995,33.455 z M69.81,153.52 C69.81,153.52 69.66,125.4 92.52,134.87 M209.155,95.78 C209.155,95.78 187.065,74.04 177.975,99.45" fill-opacity="0" stroke="#636463" stroke-width="7.085" stroke-linecap="round" stroke-linejoin="round"/>
    <path d="M102.655,203.395 C104.835,208.655 97.685,216.615 86.68,221.17 C75.685,225.735 65,225.17 62.82,219.905 C60.63,214.64 67.79,206.68 78.785,202.125 C89.79,197.565 100.47,198.13 102.655,203.395" fill="#F2BAAF"/>
    <path d="M256.24,139.745 C258.415,145.01 251.275,152.975 240.27,157.53 C229.27,162.09 218.58,161.52 216.4,156.255 C214.22,150.995 221.365,143.035 232.38,138.475 C243.375,133.92 254.06,134.485 256.24,139.745" fill="#F2BAAF"/>
    <path d="M87.02,171.785 C87.02,171.785 82.88,162.64 88.945,156.4 C95,150.16 105.045,157.915 105.045,157.915" fill-opacity="0" stroke="#636463" stroke-width="7.085" stroke-linecap="round" stroke-linejoin="round"/>
    <path d="M126.45,177.465 L195.775,151.21 C195.775,151.21 201.855,196.245 176.195,205.065 C144.97,215.8 126.45,177.465 126.45,177.465" fill="#EEA5A4"/>
    <path d="M126.45,177.465 L195.775,151.21 C195.775,151.21 201.855,196.245 176.195,205.065 C144.97,215.8 126.45,177.465 126.45,177.465 z M184.155,125.245 C184.155,125.245 183.3,111.815 189.39,108.97 C199.985,104.01 205.02,116.47 205.02,116.47 M210.845,286.875 C214.265,287.24 217.09,292.15 214.56,294.825 M26.18,435.665 C11.545,439.72 10.775,465.1 25.505,470.39 M39.175,438.44 C27.9,446.885 35.715,455.345 40.915,464.66 M398.18,284.025 C408.5,284.115 417.26,292.455 418.605,302.69 M411.025,271.135 C422.065,270.87 435.19,285.765 436.195,295.745" fill-opacity="0" stroke="#636463" stroke-width="7.085" stroke-linecap="round" stroke-linejoin="round"/>
  </g>
</svg>
