<?xml version="1.0" encoding="UTF-8" standalone="no"?>
<!-- Created with Inkscape (http://www.inkscape.org/) -->
<svg xmlns:dc="http://purl.org/dc/elements/1.1/" xmlns:cc="http://creativecommons.org/ns#" xmlns:rdf="http://www.w3.org/1999/02/22-rdf-syntax-ns#" xmlns:svg="http://www.w3.org/2000/svg" xmlns="http://www.w3.org/2000/svg" xmlns:xlink="http://www.w3.org/1999/xlink" xmlns:sodipodi="http://sodipodi.sourceforge.net/DTD/sodipodi-0.dtd" xmlns:inkscape="http://www.inkscape.org/namespaces/inkscape" id="svg2" sodipodi:docname="papapishu_Baby_boy_sitting.svg" inkscape:export-filename="D:\Documents and Settings\Joanna\My Documents\My Pictures\graph_vector\baby_girl_crawling_1.png" viewBox="0 0 552.73 761.76" sodipodi:version="0.32" inkscape:export-xdpi="152" version="1.0" inkscape:output_extension="org.inkscape.output.svg.inkscape" inkscape:export-ydpi="152" inkscape:version="0.48.4 r9939">
  <defs id="defs4">
    <linearGradient id="linearGradient4579" y2="546.78" gradientUnits="userSpaceOnUse" y1="270" x2="445.02" x1="450.18" inkscape:collect="always">
      <stop id="stop4575" style="stop-color:#d19b75" offset="0"/>
      <stop id="stop4577" style="stop-color:#e8cdba;stop-opacity:0" offset="1"/>
    </linearGradient>
    <linearGradient inkscape:collect="always" x1="340.77" y1="707.7" gradientTransform="translate(-4.0406,2.7098e-7)" x2="207.43" gradientUnits="userSpaceOnUse" y2="595.83" id="linearGradient5198">
      <stop offset="0" style="stop-color:#d3d7cf" id="stop5194"/>
      <stop offset="1" style="stop-color:#d3d7cf;stop-opacity:0" id="stop5196"/>
    </linearGradient>
    <filter color-interpolation-filters="sRGB" inkscape:collect="always" id="filter5188">
      <feGaussianBlur inkscape:collect="always" stdDeviation="3.052182" id="feGaussianBlur5190"/>
    </filter>
    <linearGradient inkscape:collect="always" x1="294.16" x2="294.16" gradientTransform="matrix(-1,0,0,1,675.25,-1.7678)" y1="-12.541" gradientUnits="userSpaceOnUse" xlink:href="#linearGradient4023" y2="111.56" id="linearGradient4308"/>
    <filter inkscape:collect="always" color-interpolation-filters="sRGB" id="filter4068">
      <feGaussianBlur inkscape:collect="always" stdDeviation="0.8781578" id="feGaussianBlur4070"/>
    </filter>
    <linearGradient inkscape:collect="always" id="linearGradient4023">
      <stop offset="0" style="stop-color:#ffffff" id="stop4025"/>
      <stop offset="1" style="stop-color:#ffffff;stop-opacity:0" id="stop4027"/>
    </linearGradient>
    <linearGradient inkscape:collect="always" x1="294.16" y1="-12.541" gradientTransform="translate(0.7071,-3.182)" x2="294.16" gradientUnits="userSpaceOnUse" xlink:href="#linearGradient4023" y2="111.56" id="linearGradient4032"/>
    <linearGradient inkscape:collect="always" x1="-853.12" y1="-142.6" gradientTransform="matrix(2.4991,0,0,-2.4991,2407.4,-407.61)" x2="-807.97" gradientUnits="userSpaceOnUse" y2="-148.55" id="linearGradient4035">
      <stop offset="0" style="stop-color:#919099" id="stop3948"/>
      <stop offset=".30293" style="stop-color:#f4edfd" id="stop3950"/>
      <stop offset="1" style="stop-color:#f7f2fe" id="stop3952"/>
    </linearGradient>
    <linearGradient inkscape:collect="always" x1="-848" y1="-141.36" gradientTransform="matrix(-2.4991,0,0,2.4991,-1730.6,334.17)" x2="-807.69" gradientUnits="userSpaceOnUse" y2="-148.43" id="linearGradient4038">
      <stop offset="0" style="stop-color:#919099" id="stop3916"/>
      <stop offset=".58621" style="stop-color:#f4edfd" id="stop3918"/>
      <stop offset="1" style="stop-color:#9a98a2" id="stop3920"/>
    </linearGradient>
    <linearGradient inkscape:collect="always" x1="-840.16" y1="-152.02" gradientTransform="matrix(2.4991,0,0,2.4991,2407.4,334.48)" x2="-840.16" gradientUnits="userSpaceOnUse" y2="-146.11" id="linearGradient4041">
      <stop offset="0" style="stop-color:#555753" id="stop4005"/>
      <stop offset="1" style="stop-color:#555753;stop-opacity:0" id="stop4007"/>
    </linearGradient>
    <linearGradient inkscape:collect="always" x1="-834.85" y1="-152.02" gradientTransform="matrix(2.4991,0,0,2.4991,2407.4,334.48)" x2="-834.97" gradientUnits="userSpaceOnUse" y2="-146.11" id="linearGradient4044">
      <stop offset="0" style="stop-color:#555753" id="stop3999"/>
      <stop offset="1" style="stop-color:#555753;stop-opacity:0" id="stop4001"/>
    </linearGradient>
    <linearGradient inkscape:collect="always" x1="-815.82" y1="-151.87" gradientTransform="matrix(2.4991,0,0,2.4991,2407.4,334.48)" x2="-815.78" gradientUnits="userSpaceOnUse" y2="-146.11" id="linearGradient4047">
      <stop offset="0" style="stop-color:#555753" id="stop3969"/>
      <stop offset="1" style="stop-color:#555753;stop-opacity:0" id="stop3971"/>
    </linearGradient>
    <linearGradient inkscape:collect="always" x1="-820.99" y1="-151.73" gradientTransform="matrix(2.4991,0,0,2.4991,2407.4,334.48)" x2="-820.97" gradientUnits="userSpaceOnUse" y2="-146.11" id="linearGradient4050">
      <stop offset="0" style="stop-color:#555753" id="stop3961"/>
      <stop offset="1" style="stop-color:#555753;stop-opacity:0" id="stop3963"/>
    </linearGradient>
    <linearGradient inkscape:collect="always" x1="-811.72" y1="-152.09" gradientTransform="matrix(2.4991,0,0,2.4991,2407.4,334.48)" x2="-811.76" gradientUnits="userSpaceOnUse" y2="-146.11" id="linearGradient4053">
      <stop offset="0" style="stop-color:#555753" id="stop3977"/>
      <stop offset="1" style="stop-color:#555753;stop-opacity:0" id="stop3979"/>
    </linearGradient>
    <linearGradient inkscape:collect="always" x1="-845.18" y1="-152.02" gradientTransform="matrix(2.4991,0,0,2.4991,2407.4,334.48)" x2="-845.17" gradientUnits="userSpaceOnUse" y2="-146.11" id="linearGradient4056">
      <stop offset="0" style="stop-color:#555753" id="stop4013"/>
      <stop offset="1" style="stop-color:#555753;stop-opacity:0" id="stop4015"/>
    </linearGradient>
    <linearGradient inkscape:collect="always" x1="-831.33" y1="-152.83" gradientTransform="matrix(2.4991,0,0,2.4991,2407.4,412.6)" x2="-827.93" gradientUnits="userSpaceOnUse" y2="-146.11" id="linearGradient4059">
      <stop offset="0" style="stop-color:#eeeeec" id="stop3953"/>
      <stop offset="1" style="stop-color:#555753" id="stop3955"/>
    </linearGradient>
    <linearGradient inkscape:collect="always" x1="-848" y1="-141.36" gradientTransform="matrix(2.4991,0,0,2.4991,2407.4,334.48)" x2="-807.69" gradientUnits="userSpaceOnUse" y2="-148.43" id="linearGradient4062">
      <stop offset="0" style="stop-color:#919099" id="stop3891"/>
      <stop offset=".58621" style="stop-color:#f4edfd" id="stop3897"/>
      <stop offset="1" style="stop-color:#f7f2fe" id="stop3893"/>
    </linearGradient>
    <radialGradient inkscape:collect="always" r="5.875" gradientTransform="matrix(1.5415,2.4094,-3.1784,5.3067,1141,2462.9)" cx="-804.26" cy="-130.34" gradientUnits="userSpaceOnUse" id="radialGradient3921">
      <stop offset="0" style="stop-color:#d98c01" id="stop4390"/>
      <stop offset="1" style="stop-color:#f0ba3c" id="stop4392"/>
    </radialGradient>
    <filter inkscape:collect="always" color-interpolation-filters="sRGB" height="1.11" x="-.12063" y="-.055002" width="1.2413" id="filter3861">
      <feGaussianBlur inkscape:collect="always" stdDeviation="0.59060447" id="feGaussianBlur3863"/>
    </filter>
    <linearGradient inkscape:collect="always" id="linearGradient3845">
      <stop offset="0" style="stop-color:#ffffff" id="stop3847"/>
      <stop offset="1" style="stop-color:#ffffff;stop-opacity:.34211" id="stop3849"/>
    </linearGradient>
    <radialGradient inkscape:collect="always" r="5.875" gradientTransform="matrix(1,1.3617,-0.65309,0.47962,-87.158,1032.2)" cx="-808.62" cy="-135.09" gradientUnits="userSpaceOnUse" xlink:href="#linearGradient3845" id="radialGradient3917"/>
    <linearGradient inkscape:collect="always" x1="324" y1="-84.562" x2="334.38" gradientUnits="userSpaceOnUse" y2="-184.35" id="linearGradient3915">
      <stop offset="0" style="stop-color:#bc3f00" id="stop3931"/>
      <stop offset=".40754" style="stop-color:#df9c01" id="stop3933"/>
      <stop offset="1" style="stop-color:#fed36c" id="stop3935"/>
    </linearGradient>
    <filter inkscape:collect="always" color-interpolation-filters="sRGB" id="filter4335">
      <feGaussianBlur inkscape:collect="always" stdDeviation="0.087200538" id="feGaussianBlur4337"/>
    </filter>
    <filter inkscape:collect="always" color-interpolation-filters="sRGB" id="filter4339">
      <feGaussianBlur inkscape:collect="always" stdDeviation="0.087200538" id="feGaussianBlur4341"/>
    </filter>
    <filter inkscape:collect="always" color-interpolation-filters="sRGB" id="filter4343">
      <feGaussianBlur inkscape:collect="always" stdDeviation="0.087200538" id="feGaussianBlur4345"/>
    </filter>
    <filter inkscape:collect="always" color-interpolation-filters="sRGB" id="filter4347">
      <feGaussianBlur inkscape:collect="always" stdDeviation="0.087200538" id="feGaussianBlur4349"/>
    </filter>
    <filter inkscape:collect="always" color-interpolation-filters="sRGB" id="filter4351">
      <feGaussianBlur inkscape:collect="always" stdDeviation="0.087200538" id="feGaussianBlur4353"/>
    </filter>
    <filter inkscape:collect="always" color-interpolation-filters="sRGB" id="filter4355">
      <feGaussianBlur inkscape:collect="always" stdDeviation="0.087200538" id="feGaussianBlur4357"/>
    </filter>
    <filter inkscape:collect="always" color-interpolation-filters="sRGB" id="filter4359">
      <feGaussianBlur inkscape:collect="always" stdDeviation="0.087200538" id="feGaussianBlur4361"/>
    </filter>
    <linearGradient inkscape:collect="always" x1="-999.14" y1="-58.149" x2="-947.88" gradientUnits="userSpaceOnUse" y2="-89.615" id="linearGradient3731">
      <stop offset="0" style="stop-color:#c6bba9" id="stop3735"/>
      <stop offset="1" style="stop-color:#f3f2f0;stop-opacity:.35714" id="stop3737"/>
    </linearGradient>
    <linearGradient inkscape:collect="always" x1="-891.31" y1="-76.887" gradientTransform="matrix(2.4991,0,0,2.4991,2510.5,282)" x2="-851.19" gradientUnits="userSpaceOnUse" spreadMethod="reflect" y2="-75.636" id="linearGradient4086">
      <stop offset="0" style="stop-color:#c6bba9" id="stop2920"/>
      <stop offset=".79824" style="stop-color:#f0f0f2" id="stop3739"/>
      <stop offset="1" style="stop-color:#f3f2f0" id="stop2922"/>
    </linearGradient>
    <radialGradient inkscape:collect="always" xlink:href="#linearGradient3845" id="radialGradient3439" gradientUnits="userSpaceOnUse" gradientTransform="matrix(1,1.3617,-0.65309,0.47962,-87.158,1032.2)" cx="-808.62" cy="-135.09" r="5.875"/>
  </defs>
  <sodipodi:namedview id="base" inkscape:zoom="0.76447926" height="750px" borderopacity="1.0" inkscape:current-layer="layer4" inkscape:cx="163.78947" inkscape:cy="410.70115" borderlayer="true" inkscape:grid-bbox="false" showgrid="false" width="750px" inkscape:document-units="px" bordercolor="#666666" inkscape:window-x="1016" guidetolerance="10" objecttolerance="10" inkscape:window-y="-8" inkscape:window-width="1600" inkscape:pageopacity="0.0" inkscape:pageshadow="2" pagecolor="#ffffff" gridtolerance="1" inkscape:window-height="838" inkscape:snap-grids="false" inkscape:snap-to-guides="false" inkscape:window-maximized="1">
    <inkscape:grid id="GridFromPre046Settings" type="xygrid" originx="0px" originy="0px" spacingx="2px" spacingy="2px" color="#3f3fff" empcolor="#3f3fff" opacity="0.15" empopacity="0.38" empspacing="5"/>
  </sodipodi:namedview>
  <g id="layer4" inkscape:label="najwyz" inkscape:groupmode="layer" transform="translate(-126.13 52.897)">
    <path id="path15659" sodipodi:nodetypes="cccssccsscsss" style="fill-rule:evenodd;fill:#000000" d="m325.47 354.22c-40.11 15.43-96.12 36-96.28 115.56 2.44 57.5 36.51 58.15 69.42 66.65-61.64-12.94-161.76-24.09-172.04 51.82-8.49 62.7 108.67 102.68 135.67 105.38 49.73 4.96 75.19-5.62 71.93-49.61 65.15 25.31 106.53 12.88 149.46-1.31 1.04 50.97 35 49.31 64.74 48.33 81.84-2.65 121.92-42.69 129.61-86.98 11.39-65.51-91.24-82.19-155.37-67.63 50.59-4.82 73.67-20 74.06-79.61 0.42-63.32-52.48-100.43-118.47-111.86-63.65-11.03-122.06-2.54-152.73 9.26z"/>
    <path id="path19543" sodipodi:nodetypes="ccccc" style="fill-rule:evenodd;fill:#000000" d="m272.45 531.16c7.12 27.18 18.72 49.23 8.72 95.97 98.2 57.46 178.93 41.15 254 0.97-9.88-39.09 10.73-66.74 19.39-98.88-105.2 24.36-197.57 21.47-282.11 1.94z"/>
    <path id="path12728" sodipodi:nodetypes="cccssccsscsss" style="fill-rule:evenodd;fill:#e8cdba" d="m324.14 358.9c-39.39 15.16-90.76 33.54-90.92 111.68 2.4 56.47 39.49 58.02 70 70-60.54-12.71-162.5-25.48-172.6 49.07-8.34 61.58 106.09 98.28 132.6 100.93 48.84 4.87 73.2-6.8 70-50 63.98 24.85 107.84 13.93 150 0 5.25 44.79 22.24 56.4 51.31 53.46 95.39-9.65 135.22-45.92 140.36-89.76 8.41-71.68-107.78-77.09-171.67-63.7 47.87-7.01 92.05-19.59 90-80-2.39-70.28-54.27-100.45-119.08-111.68-62.51-10.83-119.87-1.59-150 10z"/>
    <path id="path18572" sodipodi:nodetypes="ccccc" style="fill-rule:evenodd;fill:#aaffaa" transform="translate(45.835 -6.5955)" d="m233.09 541.1c6.79 25.93 17.86 46.97 8.32 91.57 93.69 54.81 170.71 39.26 242.34 0.92-9.43-37.29 10.23-63.68 18.5-94.34-100.37 23.24-188.5 20.48-269.16 1.85z"/>
    <path id="path16632" sodipodi:nodetypes="ccccccccc" style="fill-rule:evenodd;fill:#000000" d="m296.36 362.95c-46.26 14.47-65.99 49.57-90.49 80.97 18.64 33.82 60.06 42.35 100.97 51.44l-21.91 51.44c125.47 37.23 192.19 19.08 247.56-3.76l-17.14-52.47c44.62 0.38 77.1-14.65 103.94-44.75-31.07-33.08-39.11-76.24-106.69-93.35-58.24-27.58-145.64-22.13-216.24 10.48z"/>
    <path id="path16630" sodipodi:nodetypes="ccsccccsccc" style="fill-rule:evenodd;fill:#87cdde" transform="translate(45.835 -6.5955)" d="m255.29 370.91c-44.92 14.05-64.08 48.14-87.87 78.62 11.67 25.57 41.94 34.55 85.39 47.06 18.02 5.19-5.9-44.69 13.96-57.29l-22.58 110.12c121.82 36.15 183.01 20.33 236.79-1.85l-15.35-109.89c15.13 15.88 1.06 61.6 19.5 57.84 34.46-7.03 70.68-29.53 83.72-44.14-30.17-32.13-37.98-74.03-103.6-90.65-56.55-26.77-141.42-21.49-209.96 10.18z"/>
    <g id="g14672" transform="translate(2.6162 1.3081)">
      <path id="path12732" sodipodi:nodetypes="ccscscscsss" style="fill-rule:evenodd;fill:#000000" d="m320.9 684.67c21.36-19.15 18.48-53.47-15.24-91.27-21.71-23.34-53.11-77.77-76.39-59.7-14.05 10.9-6.89 20.06-2.81 26.23-5.03-4.51-11.37-13.77-24.01-2.87-13.26 11.42-6.76 18.97-2.35 24.21-4.35-3.42-11.67-9.87-23.06 0.06-11.24 9.8-2.44 21.58 1.15 24.6-4.16-1.42-7.6-6.77-16.6 3.92-8.85 10.53-15.19 14.38 19.05 45.99 38.07 35.14 114.8 51.66 140.26 28.83z"/>
      <path id="path12730" sodipodi:nodetypes="ccscscscsss" style="fill-rule:evenodd;fill:#e8cdba" d="m318.61 683.19c19.86-18.11 17.79-51.18-15.38-88.15-20.18-22.07-49.06-76.7-72.77-59.25-15.82 11.65 1.62 25.78 5.38 35.38-8.87-6.06-19.34-26.34-33.7-10.93-11.59 12.44 3.19 23.33 9.24 33.88-10.07-6.69-18.77-24.5-32.77-10.93-13.55 13.14 3.16 22.43 11.33 32.08-12.1-5.58-16.74-14.61-25.78-4.85-10.43 11.25-11.83 14.73 20 44.62 35.37 33.23 110.79 49.73 134.45 28.15z"/>
    </g>
    <g id="g14676" transform="matrix(-1 0 0 1 814.95 1.917)">
      <path id="path14678" sodipodi:nodetypes="ccscscscsss" style="fill-rule:evenodd;fill:#000000" d="m320.9 684.67c21.36-19.15 18.48-53.47-15.24-91.27-21.71-23.34-53.11-77.77-76.39-59.7-14.05 10.9-6.89 20.06-2.81 26.23-5.03-4.51-11.37-13.77-24.01-2.87-13.26 11.42-6.76 18.97-2.35 24.21-4.35-3.42-11.67-9.87-23.06 0.06-11.24 9.8-2.44 21.58 1.15 24.6-4.16-1.42-7.6-6.77-16.6 3.92-8.85 10.53-15.19 14.38 19.05 45.99 38.07 35.14 114.8 51.66 140.26 28.83z"/>
      <path id="path14680" sodipodi:nodetypes="ccscscscsss" style="fill-rule:evenodd;fill:#e8cdba" d="m318.61 683.19c19.86-18.11 17.79-51.18-15.38-88.15-20.18-22.07-49.06-76.7-72.77-59.25-15.82 11.65 1.62 25.78 5.38 35.38-8.87-6.06-19.34-26.34-33.7-10.93-11.59 12.44 3.19 23.33 9.24 33.88-10.07-6.69-18.77-24.5-32.77-10.93-13.55 13.14 3.16 22.43 11.33 32.08-12.1-5.58-16.74-14.61-25.78-4.85-10.43 11.25-11.83 14.73 20 44.62 35.37 33.23 110.79 49.73 134.45 28.15z"/>
    </g>
    <g id="layer1" inkscape:label="Layer 1" transform="matrix(.84090 0 0 .72701 184.81 -114.99)">
      <g id="g4581" transform="translate(-178.8 -110.11)">
        <path id="path3686" style="fill:#e8cdba" d="m417.99 824.32c-52.29-7.71-96.75-42.66-126.41-85.11-30.87-43.89-46.95-96.99-50.41-150.25-6.42-10.24-22.33-11.66-23.97-26.06-3.73-10.62-2.64-23.11 0.18-33.97 1.93-15.11 19.89-18.15 28.51-22.75 12.51-64.38 44.99-127.46 99.54-165.83 27-19.82 59.87-31.66 93.47-32.05 7.01-2.01 21.56 3.17 22.29-6.97-2.43-7.07-1.38-15.25 3.06-19.78-10.39-5.98-13.46-21.06 0.44-25.19 15.78-5.13 15.73 17.71 24.46 25.79 3.66 12.21-15.22 13.89-7.44 27.02 6.05 8.12 23.56 7.5 33.06 14.75 53.1 25.42 91.61 74.84 112.13 129.16 7.88 20.48 13.48 41.82 16.85 63.5 12.84-0.33 31.58 4.03 31.28 20.12 0.9 16.4-0.9 34.6-11.59 47.77-6.01 7.84-20.42 4.21-17.54 16.95-6.9 63.18-31.43 126.21-77.58 171.09-31.96 31.97-75.55 54.04-121.47 53.29-9.64 0.1-19.28-0.45-28.86-1.48z"/>
        <path id="path1912" style="fill:url(#linearGradient4579)" d="m417.99 824.32c-52.29-7.71-96.75-42.66-126.41-85.11-30.87-43.89-46.95-96.99-50.41-150.25-6.42-10.24-22.33-11.66-23.97-26.06-3.73-10.62-2.64-23.11 0.18-33.97 1.93-15.11 19.89-18.15 28.51-22.75 12.51-64.38 44.99-127.46 99.54-165.83 27-19.82 59.87-31.66 93.47-32.05 7.01-2.01 21.56 3.17 22.29-6.97-2.43-7.07-1.38-15.25 3.06-19.78-10.39-5.98-13.46-21.06 0.44-25.19 15.78-5.13 15.73 17.71 24.46 25.79 3.66 12.21-15.22 13.89-7.44 27.02 6.05 8.12 23.56 7.5 33.06 14.75 53.1 25.42 91.61 74.84 112.13 129.16 7.88 20.48 13.48 41.82 16.85 63.5 12.84-0.33 31.58 4.03 31.28 20.12 0.9 16.4-0.9 34.6-11.59 47.77-6.01 7.84-20.42 4.21-17.54 16.95-6.9 63.18-31.43 126.21-77.58 171.09-31.96 31.97-75.55 54.04-121.47 53.29-9.64 0.1-19.28-0.45-28.86-1.48z"/>
        <path id="path1882" style="fill:#000000" d="m417.99 824.32c-52.29-7.71-96.75-42.66-126.41-85.11-30.87-43.89-46.95-96.99-50.41-150.25-6.42-10.24-22.33-11.66-23.97-26.06-3.73-10.62-2.64-23.11 0.18-33.97 1.93-15.11 19.89-18.15 28.51-22.75 12.51-64.38 44.99-127.46 99.54-165.83 27-19.82 59.87-31.66 93.47-32.05 7.01-2.01 21.56 3.17 22.29-6.97-2.43-7.07-1.38-15.25 3.06-19.78-10.39-5.98-13.46-21.06 0.44-25.19 15.78-5.13 15.73 17.71 24.46 25.79 3.66 12.21-15.22 13.89-7.44 27.02 6.05 8.12 23.56 7.5 33.06 14.75 53.1 25.42 91.61 74.84 112.13 129.16 7.88 20.48 13.48 41.82 16.85 63.5 12.84-0.33 31.58 4.03 31.28 20.12 0.9 16.4-0.9 34.6-11.59 47.77-6.01 7.84-20.42 4.21-17.54 16.95-6.9 63.18-31.43 126.21-77.58 171.09-31.96 31.97-75.55 54.04-121.47 53.29-9.64 0.1-19.28-0.45-28.86-1.48zm52.1-4.77c52.81-8.11 97.4-44.24 126.21-87.91 27.13-41.13 41.71-89.63 46.2-138.45 2.11-9.66 20.51-5.97 22.6-18.82 4.95-10.72 5.68-22.89 6.32-34.48 0.16-14.23-14.28-19.39-26.21-18.84-11.09-2.47-5.78-16.69-9.81-24.65-13.83-61.63-47.46-121.12-101.01-156.41-16.2-10.54-34.07-18.59-52.83-23.31-5.48 8.93-21.2 4.34-23.53 15.3-12.32 11.94-23.03-9.74-13.59-19.53-8-1.26-17 1.08-25.31 1.98-49.63 7.38-92.55 39.38-121.28 79.48-21.3 29.51-35.81 63.61-44.63 98.77-0.54 11.53-4.47 23.78-17.97 22.31-15.98 6.78-17.96 27.31-15.03 42.27 0.56 17.13 21.2 18.46 26.26 31.72-0.68 18.34 3.43 36.68 7.34 54.58 14.13 58.47 46.61 114.29 96.8 148.75 34.52 23.94 77.89 34.66 119.47 27.24zm-30.01-61.45c-13.95-1.68-27.08-6.5-39.57-12.77-11.96-4.71-22.85-11.16-33.45-18.39-10.89-6.65-14.3-19.66-22.29-29.01-8.07-14.61-15.51-30.31-15.62-47.41-2.91-10.53 0.66-25.01-2.32-33.1-10.83-0.44-22.57 6.01-32.71 1.09-5.38-9.83 14.46 0.62 19.86-3.42 13.25-1.34 26.7-8.84 31.49-21.82 1.8-5.79 10.37-10.93 6.05-0.85-3.22 12.59-18.99 17.68-20.04 30.77 0.29 12.36 1.14 24.81 2.84 37.07 1.55 12.01 7.85 22.16 13.23 32.71 8.73 15.37 19.17 31.64 36.31 38.45 11.73 7.46 24.8 11.96 37.4 17.58 11.94 2.93 24.69 7.16 36.8 2.71 17.78-5.97 34.78-14.09 50.03-25.05 12.12-6.14 20.76-16.2 27.03-28.04 6.45-11.07 12.06-22.77 15.85-35.04 3.49-14.38 2.61-29.52 2.63-44.13-0.75-11.05-6.15-20.42-14.68-27.17-4.51-3.06-12.62-20.64-3.03-10.94 7.23 10.02 16.57 20.84 30.28 18.9 11.79 0.63 24.37 0.78 35.02-5.08 8.6 5.03-10.89 9.53-15.59 8.97-9.17 2.51-25.09-2.72-30.02 3.4 3.42 15.41 2.36 31.38 1.27 46.99-3.11 22.96-15.83 43.16-27.99 62.3-11.39 11.5-26.12 18.96-39.93 27.11-13.64 6.16-27.55 13.28-42.65 14.69-2.07 0.05-4.16-0.11-6.2-0.52zm189.85-182.61c0.48-9.64 19.35 6.84 20.07-7.5 4.16-8.73 6.77-31.55-6.39-31.22-3.75 2.04-17.81 10.73-10.73 0.64 10.63-11.05 27.95-2.82 24.5 12.71 0.31 11.22-1.92 29.78-16.97 28.17-3.63 0-7.53-0.49-10.48-2.8zm-391.83-9.42c-7.81-10.5-11.98-25.87-3.9-37.18 4.35-6.19 22.1 1.4 13.76 4.71-14.11-7.17-17.41 15.27-10.54 23.61 1.89 8.4 10.78 4.39 13.56 3.35 2.68 6.13-9.64 9.67-12.88 5.51zm219.79-52.52c-13.39-11.05 13.25-27.88 18.03-11.49 4.39 10.27-10.71 20.63-18.03 11.49zm-39-9c-13.39-11.05 13.25-27.88 18.03-11.49 4.39 10.27-10.71 20.63-18.03 11.49zm79.6-22.91c-5.76-6.06-25.99-9.28-23.25-16.03 10.01 0.82 26.14 8 28.22 16.46-1.47 1.03-3.62 0.58-4.97-0.43zm-106.67-6.27c7.29-10.57 21.27-13.07 32.36-17.72 4.82 9.7-14.84 8.05-19.55 14.74-3.74 2.19-8.39 5-12.81 2.98zm61.93-145.17c0.63-14.58 28.1-6.35 23.42-23.94-2.9-6.63-3.32-15.72 5.83-15.89 7.95-11.49-12.3-19.38-11.34-30.18-12.41-3.48-16.66 15.62-3.48 18.01 3.69 8.64-10.72 17.01-1.64 25.68-2 11.43-30.94 9.41-18.82 26.69 1.55 2.01 4.69 1.74 6.03-0.37z"/>
        <path id="path1908" style="fill:#000000" d="m440.08 758.1c-13.95-1.68-27.08-6.5-39.57-12.77-11.96-4.71-22.85-11.16-33.45-18.39-10.89-6.65-14.3-19.66-22.29-29.01-8.07-14.61-15.51-30.31-15.62-47.41-2.91-10.53 0.66-25.01-2.32-33.1-10.83-0.44-22.57 6.01-32.71 1.09-5.38-9.83 14.46 0.62 19.86-3.42 13.25-1.34 26.7-8.84 31.49-21.82 1.8-5.79 10.37-10.93 6.05-0.85-3.22 12.59-18.99 17.68-20.04 30.77 0.29 12.36 1.14 24.81 2.84 37.07 1.55 12.01 7.85 22.16 13.23 32.71 8.73 15.37 19.17 31.64 36.31 38.45 11.73 7.46 24.8 11.96 37.4 17.58 11.94 2.93 24.69 7.16 36.8 2.71 17.78-5.97 34.78-14.09 50.03-25.05 12.12-6.14 20.76-16.2 27.03-28.04 6.45-11.07 12.06-22.77 15.85-35.04 3.49-14.38 2.61-29.52 2.63-44.13-0.75-11.05-6.15-20.42-14.68-27.17-4.51-3.06-12.62-20.64-3.03-10.94 7.23 10.02 16.57 20.84 30.28 18.9 11.79 0.63 24.37 0.78 35.02-5.08 8.6 5.03-10.89 9.53-15.59 8.97-9.17 2.51-25.09-2.72-30.02 3.4 3.42 15.41 2.36 31.38 1.27 46.99-3.11 22.96-15.83 43.16-27.99 62.3-11.39 11.5-26.12 18.96-39.93 27.11-13.64 6.16-27.55 13.28-42.65 14.69-2.07 0.05-4.16-0.11-6.2-0.52z"/>
        <path id="path1906" style="fill:#000000" d="m629.93 575.49c0.48-9.64 19.35 6.84 20.07-7.5 4.16-8.73 6.77-31.55-6.39-31.22-3.75 2.04-17.81 10.73-10.73 0.64 10.63-11.05 27.95-2.82 24.5 12.71 0.31 11.22-1.92 29.78-16.97 28.17-3.63 0-7.53-0.49-10.48-2.8z"/>
        <path id="path1904" style="fill:#000000" d="m238.1 566.07c-7.81-10.5-11.98-25.87-3.9-37.18 4.35-6.19 22.1 1.4 13.76 4.71-14.11-7.17-17.41 15.27-10.54 23.61 1.89 8.4 10.78 4.39 13.56 3.35 2.68 6.13-9.64 9.67-12.88 5.51z"/>
        <path id="path1902" style="fill:#000000" d="m457.89 513.55c-13.39-11.05 13.25-27.88 18.03-11.49 4.39 10.27-10.71 20.63-18.03 11.49z"/>
        <path id="path1900" style="fill:#000000" d="m418.89 504.55c-13.39-11.05 13.25-27.88 18.03-11.49 4.39 10.27-10.71 20.63-18.03 11.49z"/>
        <path id="path1898" style="fill:#000000" d="m498.49 481.64c-5.76-6.06-25.99-9.28-23.25-16.03 10.01 0.82 26.14 8 28.22 16.46-1.47 1.03-3.62 0.58-4.97-0.43z"/>
        <path id="path1896" style="fill:#000000" d="m391.82 475.37c7.29-10.57 21.27-13.07 32.36-17.72 4.82 9.7-14.84 8.05-19.55 14.74-3.74 2.19-8.39 5-12.81 2.98z"/>
        <path id="path1892" style="fill:#947968" d="m453.75 330.2c0.63-14.58 28.1-6.35 23.42-23.94-2.9-6.63-3.32-15.72 5.83-15.89 7.95-11.49-12.3-19.38-11.34-30.18-12.41-3.48-16.66 15.62-3.48 18.01 3.69 8.64-10.72 17.01-1.64 25.68-2 11.43-30.94 9.41-18.82 26.69 1.55 2.01 4.69 1.74 6.03-0.37z"/>
      </g>
    </g>
    <g transform="matrix(0.82526837,0,0,0.82526837,117.72715,42.31419)" inkscape:label="Capa 1" id="layer1-7">
      <path d="m 257.07,603.15 c -30.079,0 -46.356,5.4856 -46.356,14.761 l 73.513,65.802 c 4.8327,9.4337 31.299,16.656 63.25,16.656 35.245,0 63.847,-8.7721 64.062,-19.625 l 1.625,-0.125 -1.6875,-1 c -43.06,-24.83 -104.06,-71.63 -154.4,-76.47 z" style="fill:url(#linearGradient5198);filter:url(#filter5188)" sodipodi:nodetypes="cccscccc" id="path2913" inkscape:connector-curvature="0"/>
      <g transform="translate(12.673,491.27)" id="g4072">
        <path d="m 303.59,-29.362 c -11.076,0 -19.993,8.9168 -19.993,19.993 l -15,188.68 c 0,5.4985 2.2109,10.45 5.7792,14.057 0.0257,0.0259 0.0522,0.0523 0.078,0.0781 5.7025,12.426 31.667,21.867 62.868,21.867 31.202,0 57.166,-9.4416 62.868,-21.867 0.0257,-0.0258 0.0525,-0.0522 0.078,-0.0781 3.5682,-3.6075 5.7792,-8.559 5.7792,-14.057 l -14.99,-188.68 c 0,-11.076 -8.9168,-19.993 -19.993,-19.993 h -67.476 z" style="fill:url(#linearGradient4086)" id="rect2904" inkscape:connector-curvature="0"/>
        <path sodipodi:cx="-973.50928" sodipodi:cy="-73.882141" transform="matrix(2.3762,0,0,1.6286,2649.2,304.72)" d="m -947.87666,-73.882141 c 0,8.689165 -11.47611,15.733126 -25.63262,15.733126 -14.1565,0 -25.63262,-7.043961 -25.63262,-15.733126 0,-8.689165 11.47612,-15.733126 25.63262,-15.733126 14.15651,0 25.63262,7.043961 25.63262,15.733126 z" sodipodi:type="arc" style="fill:url(#linearGradient3731)" sodipodi:ry="15.733126" sodipodi:rx="25.632622" id="path3723"/>
        <rect x="331.04001" y="-1.4216" width="4.9981999" height="175.83" ry="3.9704001" style="fill:#2e3436" id="rect3968"/>
        <rect x="155.28" y="-360.44" width="2.4991" height="24.990999" transform="matrix(0,1,-1,0,0,0)" style="fill:#2e3436" ry="0.56431001" id="rect3970"/>
        <rect x="20.490999" y="-360.44" width="2.4991" height="24.990999" ry="0.56431001" transform="matrix(0,1,-1,0,0,0)" style="fill:#2e3436" id="rect3972"/>
        <rect x="63.752998" y="-360.44" width="2.4991" height="24.990999" transform="matrix(0,1,-1,0,0,0)" style="fill:#2e3436" ry="0.56431001" id="rect3974"/>
        <rect x="107.02" y="-360.44" width="2.4991" height="24.990999" ry="0.56431001" transform="matrix(0,1,-1,0,0,0)" style="fill:#2e3436" id="rect3976"/>
        <rect x="128.64999" y="-360.44" width="2.4991" height="24.990999" transform="matrix(0,1,-1,0,0,0)" style="fill:#2e3436" ry="0.56431001" id="rect3978"/>
        <rect x="85.385002" y="-360.44" width="2.4991" height="24.990999" ry="0.56431001" transform="matrix(0,1,-1,0,0,0)" style="fill:#2e3436" id="rect3980"/>
        <rect x="42.122002" y="-360.44" width="2.4991" height="24.990999" transform="matrix(0,1,-1,0,0,0)" style="fill:#2e3436" ry="0.56431001" id="rect3982"/>
        <g transform="matrix(2.1455,0,0,2.4991,2190.5,470.95)" style="fill:#000000;filter:url(#filter4359)" id="flowRoot3984">
          <path d="m -846.85,-126.14 c 0.20164,0 0.3595,-0.0727 0.47361,-0.21805 0.11566,-0.14536 0.1735,-0.34622 0.1735,-0.60256 0,-0.25634 -0.0578,-0.45719 -0.1735,-0.60256 -0.11411,-0.14536 -0.27197,-0.21804 -0.47361,-0.21804 -0.20945,0 -0.36732,0.0696 -0.4736,0.20866 -0.10629,0.13756 -0.15944,0.34153 -0.15944,0.61194 0,0.27197 0.0524,0.47673 0.15709,0.61428 0.10629,0.13755 0.26494,0.20633 0.47595,0.20633 m -0.84405,1.4794 v -0.43609 c 0.0985,0.0578 0.2032,0.10238 0.31418,0.13364 0.11097,0.0297 0.22664,0.0445 0.347,0.0445 0.3001,0 0.52674,-0.11254 0.67992,-0.33762 0.15475,-0.22664 0.23212,-0.55957 0.23212,-0.99879 -0.0735,0.15631 -0.17663,0.27666 -0.30949,0.36107 -0.13286,0.0828 -0.28526,0.12426 -0.45719,0.12426 -0.33762,0 -0.59943,-0.10394 -0.78544,-0.31183 -0.18444,-0.20788 -0.27666,-0.50252 -0.27666,-0.88391 0,-0.37669 0.0946,-0.6682 0.2837,-0.87453 0.19069,-0.20788 0.45953,-0.31183 0.80653,-0.31183 0.4064,0 0.70416,0.14615 0.89329,0.43844 0.18913,0.29229 0.28369,0.75183 0.2837,1.3786 -10e-6,0.58927 -0.11411,1.0394 -0.34231,1.3505 -0.22665,0.30948 -0.55645,0.46422 -0.98942,0.46422 -0.1141,0 -0.22899,-0.0125 -0.34465,-0.0375 -0.11567,-0.0234 -0.22743,-0.0578 -0.33528,-0.10316" id="path4303" inkscape:connector-curvature="0"/>
          <path d="m -844.23,-126.35 c 0,-0.086 0.0297,-0.16021 0.0891,-0.22273 0.061,-0.0625 0.13364,-0.0938 0.21804,-0.0938 0.0875,10e-6 0.16256,0.0313 0.22508,0.0938 0.0625,0.0625 0.0938,0.13677 0.0938,0.22273 0,0.0875 -0.0313,0.16178 -0.0938,0.22274 -0.061,0.061 -0.13598,0.0914 -0.22508,0.0914 -0.0875,0 -0.16099,-0.0297 -0.22039,-0.0891 -0.0578,-0.0594 -0.0868,-0.13442 -0.0868,-0.22508 m 0.31183,-1.4302 c -0.22039,0 -0.38529,0.11879 -0.4947,0.35637 -0.10786,0.23759 -0.16178,0.59944 -0.16178,1.0856 0,0.48454 0.0539,0.84561 0.16178,1.0832 0.10941,0.23759 0.27431,0.35638 0.4947,0.35638 0.22196,0 0.38686,-0.11879 0.49471,-0.35638 0.10941,-0.23758 0.16412,-0.59865 0.16412,-1.0832 0,-0.48611 -0.0547,-0.84796 -0.16412,-1.0856 -0.10785,-0.23758 -0.27275,-0.35637 -0.49471,-0.35637 m 0,-0.37514 c 0.37357,0 0.6557,0.15318 0.8464,0.45954 0.19225,0.30636 0.28838,0.75887 0.28838,1.3575 0,0.59708 -0.0961,1.0488 -0.28838,1.3552 -0.1907,0.30635 -0.47283,0.45953 -0.8464,0.45953 -0.37357,0 -0.6557,-0.15318 -0.84639,-0.45953 -0.1907,-0.30636 -0.28604,-0.75809 -0.28604,-1.3552 0,-0.59865 0.0953,-1.0512 0.28604,-1.3575 0.19069,-0.30636 0.47282,-0.45954 0.84639,-0.45954" id="path4305" inkscape:connector-curvature="0"/>
        </g>
        <g transform="matrix(2.1455,0,0,2.4991,2184.3,448.4)" style="fill:#000000;filter:url(#filter4355)" id="flowRoot4088">
          <path d="m -847.62,-124.99 h 0.7362 v -2.6752 l -0.79247,0.17819 v -0.43141 l 0.78778,-0.17349 h 0.4736 v 3.1019 h 0.72683 v 0.39858 h -1.9319 v -0.39858" id="path4296" inkscape:connector-curvature="0"/>
          <path d="m -844.49,-124.99 h 1.6084 v 0.39858 h -2.1265 V -124.99 c 0.29229,-0.30792 0.54785,-0.57989 0.76668,-0.81591 0.21882,-0.23602 0.36966,-0.40249 0.4525,-0.4994 0.1563,-0.19069 0.26181,-0.34465 0.31652,-0.46188 0.0547,-0.11879 0.0821,-0.23993 0.0821,-0.36341 0,-0.19538 -0.0578,-0.34856 -0.1735,-0.45954 -0.1141,-0.11098 -0.27119,-0.16647 -0.47126,-0.16647 -0.14224,0 -0.29151,0.0258 -0.44782,0.0774 -0.1563,0.0516 -0.32199,0.12974 -0.49705,0.23446 v -0.47829 c 0.161,-0.0766 0.31886,-0.13442 0.47361,-0.1735 0.1563,-0.0391 0.31026,-0.0586 0.46188,-0.0586 0.34231,0 0.61741,0.0914 0.82529,0.27432 0.20945,0.18132 0.31418,0.41968 0.31418,0.7151 0,0.15005 -0.0352,0.30011 -0.10551,0.45016 -0.0688,0.15005 -0.18131,0.31574 -0.33762,0.49705 -0.0875,0.1016 -0.21492,0.24227 -0.38217,0.42202 -0.16568,0.17976 -0.4189,0.4486 -0.75964,0.80654" id="path4298" inkscape:connector-curvature="0"/>
          <path d="m -841.34,-126.35 c 0,-0.086 0.0297,-0.16021 0.0891,-0.22273 0.0609,-0.0625 0.13364,-0.0938 0.21804,-0.0938 0.0875,10e-6 0.16256,0.0313 0.22508,0.0938 0.0625,0.0625 0.0938,0.13677 0.0938,0.22273 0,0.0875 -0.0313,0.16178 -0.0938,0.22274 -0.061,0.061 -0.13598,0.0914 -0.22508,0.0914 -0.0875,0 -0.16099,-0.0297 -0.22039,-0.0891 -0.0578,-0.0594 -0.0867,-0.13442 -0.0867,-0.22508 m 0.31183,-1.4302 c -0.22039,0 -0.38529,0.11879 -0.4947,0.35637 -0.10786,0.23759 -0.16178,0.59944 -0.16178,1.0856 0,0.48454 0.0539,0.84561 0.16178,1.0832 0.10941,0.23759 0.27431,0.35638 0.4947,0.35638 0.22196,0 0.38686,-0.11879 0.49471,-0.35638 0.10941,-0.23758 0.16412,-0.59865 0.16412,-1.0832 0,-0.48611 -0.0547,-0.84796 -0.16412,-1.0856 -0.10785,-0.23758 -0.27275,-0.35637 -0.49471,-0.35637 m 0,-0.37514 c 0.37357,0 0.6557,0.15318 0.8464,0.45954 0.19225,0.30636 0.28838,0.75887 0.28838,1.3575 0,0.59708 -0.0961,1.0488 -0.28838,1.3552 -0.1907,0.30635 -0.47283,0.45953 -0.8464,0.45953 -0.37357,0 -0.6557,-0.15318 -0.84639,-0.45953 -0.1907,-0.30636 -0.28604,-0.75809 -0.28604,-1.3552 0,-0.59865 0.0953,-1.0512 0.28604,-1.3575 0.19069,-0.30636 0.47282,-0.45954 0.84639,-0.45954" id="path4300" inkscape:connector-curvature="0"/>
        </g>
        <g transform="matrix(2.1455,0,0,2.4991,2184.3,425.85)" style="fill:#000000;filter:url(#filter4351)" id="flowRoot4098">
          <path d="m -847.62,-124.99 h 0.7362 v -2.6752 l -0.79247,0.17819 v -0.43141 l 0.78778,-0.17349 h 0.4736 v 3.1019 h 0.72683 v 0.39858 h -1.9319 v -0.39858" id="path4289" inkscape:connector-curvature="0"/>
          <path d="m -844.88,-128.09 h 1.7725 v 0.39857 h -1.3411 v 0.86047 c 0.0672,-0.025 0.13442,-0.043 0.20164,-0.0539 0.0688,-0.0125 0.13754,-0.0188 0.20632,-0.0188 0.36263,0 0.65023,0.10707 0.86281,0.3212 0.21257,0.21414 0.31886,0.50409 0.31886,0.86984 0,0.36889 -0.11176,0.65962 -0.33527,0.87219 -0.22196,0.21258 -0.52598,0.31886 -0.91205,0.31886 -0.186,0 -0.35638,-0.0125 -0.51112,-0.0375 -0.15318,-0.025 -0.29073,-0.0625 -0.41265,-0.11254 v -0.48064 c 0.14381,0.0782 0.28839,0.13677 0.43375,0.17584 0.14537,0.0375 0.29386,0.0563 0.44547,0.0563 0.26103,0 0.46189,-0.0688 0.60256,-0.20632 0.14224,-0.13755 0.21336,-0.33293 0.21336,-0.58615 0,-0.25008 -0.0735,-0.44468 -0.22039,-0.5838 -0.14537,-0.13911 -0.34856,-0.20866 -0.60959,-0.20867 -0.12661,1e-5 -0.25009,0.0149 -0.37045,0.0446 -0.12035,0.0281 -0.23524,0.0711 -0.34465,0.12895 v -1.7584" id="path4291" inkscape:connector-curvature="0"/>
          <path d="m -841.34,-126.35 c 0,-0.086 0.0297,-0.16021 0.0891,-0.22273 0.0609,-0.0625 0.13364,-0.0938 0.21804,-0.0938 0.0875,10e-6 0.16256,0.0313 0.22508,0.0938 0.0625,0.0625 0.0938,0.13677 0.0938,0.22273 0,0.0875 -0.0313,0.16178 -0.0938,0.22274 -0.061,0.061 -0.13598,0.0914 -0.22508,0.0914 -0.0875,0 -0.16099,-0.0297 -0.22039,-0.0891 -0.0578,-0.0594 -0.0867,-0.13442 -0.0867,-0.22508 m 0.31183,-1.4302 c -0.22039,0 -0.38529,0.11879 -0.4947,0.35637 -0.10786,0.23759 -0.16178,0.59944 -0.16178,1.0856 0,0.48454 0.0539,0.84561 0.16178,1.0832 0.10941,0.23759 0.27431,0.35638 0.4947,0.35638 0.22196,0 0.38686,-0.11879 0.49471,-0.35638 0.10941,-0.23758 0.16412,-0.59865 0.16412,-1.0832 0,-0.48611 -0.0547,-0.84796 -0.16412,-1.0856 -0.10785,-0.23758 -0.27275,-0.35637 -0.49471,-0.35637 m 0,-0.37514 c 0.37357,0 0.6557,0.15318 0.8464,0.45954 0.19225,0.30636 0.28838,0.75887 0.28838,1.3575 0,0.59708 -0.0961,1.0488 -0.28838,1.3552 -0.1907,0.30635 -0.47283,0.45953 -0.8464,0.45953 -0.37357,0 -0.6557,-0.15318 -0.84639,-0.45953 -0.1907,-0.30636 -0.28604,-0.75809 -0.28604,-1.3552 0,-0.59865 0.0953,-1.0512 0.28604,-1.3575 0.19069,-0.30636 0.47282,-0.45954 0.84639,-0.45954" id="path4293" inkscape:connector-curvature="0"/>
        </g>
        <g transform="matrix(2.1455,0,0,2.4991,2184.3,403.3)" style="fill:#000000;filter:url(#filter4347)" id="flowRoot4108">
          <path d="m -847.62,-124.99 h 0.7362 v -2.6752 l -0.79247,0.17819 v -0.43141 l 0.78778,-0.17349 h 0.4736 v 3.1019 h 0.72683 v 0.39858 h -1.9319 v -0.39858" id="path4282" inkscape:connector-curvature="0"/>
          <path d="m -843.92,-126.25 c -0.21101,0 -0.37435,0.0594 -0.49001,0.17819 -0.11411,0.11723 -0.17116,0.28369 -0.17116,0.4994 0,0.2157 0.0578,0.38373 0.1735,0.50408 0.11723,0.11879 0.27979,0.17819 0.48767,0.17819 0.21258,0 0.37592,-0.0586 0.49002,-0.17584 0.11567,-0.1188 0.1735,-0.28761 0.1735,-0.50643 0,-0.21414 -0.0586,-0.38061 -0.17584,-0.4994 -0.11567,-0.11879 -0.27823,-0.17819 -0.48768,-0.17819 m -0.41264,-0.19695 c -0.20164,-0.0516 -0.35951,-0.1477 -0.47361,-0.28838 -0.11254,-0.14067 -0.16881,-0.31026 -0.16881,-0.50877 0,-0.27823 0.0946,-0.49862 0.2837,-0.66118 0.18912,-0.16411 0.44625,-0.24618 0.77136,-0.24618 0.32668,0 0.58458,0.0821 0.77372,0.24618 0.18912,0.16256 0.28369,0.38295 0.28369,0.66118 0,0.19851 -0.0571,0.3681 -0.17115,0.50877 -0.11255,0.14068 -0.26963,0.23681 -0.47126,0.28838 0.23445,0.0516 0.41342,0.15553 0.53691,0.31183 0.12504,0.15631 0.18756,0.35873 0.18756,0.60725 0,0.31574 -0.10082,0.5627 -0.30245,0.74089 -0.20164,0.17819 -0.48064,0.26728 -0.83702,0.26728 -0.35637,0 -0.63538,-0.0883 -0.83701,-0.26493 -0.20008,-0.17819 -0.30011,-0.42437 -0.30011,-0.73855 0,-0.25009 0.0617,-0.45328 0.18522,-0.60959 0.12505,-0.15787 0.3048,-0.26259 0.53926,-0.31418 m -0.17116,-0.75261 c 0,0.18757 0.05,0.33059 0.15006,0.42906 0.10003,0.0985 0.24461,0.14771 0.43374,0.14771 0.19069,0 0.33606,-0.0492 0.4361,-0.14771 0.10003,-0.0985 0.15005,-0.24149 0.15005,-0.42906 0,-0.19069 -0.05,-0.33605 -0.15005,-0.43609 -0.0985,-0.10003 -0.24384,-0.15005 -0.4361,-0.15005 -0.18913,0 -0.33371,0.0508 -0.43374,0.15239 -0.10004,0.10004 -0.15006,0.24463 -0.15006,0.43375" id="path4284" inkscape:connector-curvature="0"/>
          <path d="m -841.34,-126.35 c 0,-0.086 0.0297,-0.16021 0.0891,-0.22273 0.0609,-0.0625 0.13364,-0.0938 0.21804,-0.0938 0.0875,10e-6 0.16256,0.0313 0.22508,0.0938 0.0625,0.0625 0.0938,0.13677 0.0938,0.22273 0,0.0875 -0.0313,0.16178 -0.0938,0.22274 -0.061,0.061 -0.13598,0.0914 -0.22508,0.0914 -0.0875,0 -0.16099,-0.0297 -0.22039,-0.0891 -0.0578,-0.0594 -0.0867,-0.13442 -0.0867,-0.22508 m 0.31183,-1.4302 c -0.22039,0 -0.38529,0.11879 -0.4947,0.35637 -0.10786,0.23759 -0.16178,0.59944 -0.16178,1.0856 0,0.48454 0.0539,0.84561 0.16178,1.0832 0.10941,0.23759 0.27431,0.35638 0.4947,0.35638 0.22196,0 0.38686,-0.11879 0.49471,-0.35638 0.10941,-0.23758 0.16412,-0.59865 0.16412,-1.0832 0,-0.48611 -0.0547,-0.84796 -0.16412,-1.0856 -0.10785,-0.23758 -0.27275,-0.35637 -0.49471,-0.35637 m 0,-0.37514 c 0.37357,0 0.6557,0.15318 0.8464,0.45954 0.19225,0.30636 0.28838,0.75887 0.28838,1.3575 0,0.59708 -0.0961,1.0488 -0.28838,1.3552 -0.1907,0.30635 -0.47283,0.45953 -0.8464,0.45953 -0.37357,0 -0.6557,-0.15318 -0.84639,-0.45953 -0.1907,-0.30636 -0.28604,-0.75809 -0.28604,-1.3552 0,-0.59865 0.0953,-1.0512 0.28604,-1.3575 0.19069,-0.30636 0.47282,-0.45954 0.84639,-0.45954" id="path4286" inkscape:connector-curvature="0"/>
        </g>
        <g transform="matrix(2.1455,0,0,2.4991,2184.3,380.75)" style="fill:#000000;filter:url(#filter4343)" id="flowRoot4118">
          <path d="m -847.38,-124.99 h 1.6084 v 0.39858 h -2.1265 V -124.99 c 0.29229,-0.30792 0.54785,-0.57989 0.76668,-0.81591 0.21882,-0.23602 0.36966,-0.40249 0.4525,-0.4994 0.15631,-0.19069 0.26181,-0.34465 0.31652,-0.46188 0.0547,-0.11879 0.0821,-0.23993 0.0821,-0.36341 0,-0.19538 -0.0578,-0.34856 -0.1735,-0.45954 -0.1141,-0.11098 -0.27119,-0.16647 -0.47126,-0.16647 -0.14224,0 -0.29151,0.0258 -0.44782,0.0774 -0.1563,0.0516 -0.32199,0.12974 -0.49705,0.23446 v -0.47829 c 0.161,-0.0766 0.31886,-0.13442 0.47361,-0.1735 0.1563,-0.0391 0.31026,-0.0586 0.46188,-0.0586 0.34231,0 0.61741,0.0914 0.8253,0.27432 0.20944,0.18132 0.31417,0.41968 0.31417,0.7151 0,0.15005 -0.0352,0.30011 -0.10551,0.45016 -0.0688,0.15005 -0.18131,0.31574 -0.33762,0.49705 -0.0875,0.1016 -0.21492,0.24227 -0.38216,0.42202 -0.16569,0.17976 -0.4189,0.4486 -0.75965,0.80654" id="path4275" inkscape:connector-curvature="0"/>
          <path d="m -844.73,-124.99 h 0.7362 v -2.6752 l -0.79247,0.17819 v -0.43141 l 0.78778,-0.17349 h 0.4736 v 3.1019 h 0.72683 v 0.39858 h -1.9319 v -0.39858" id="path4277" inkscape:connector-curvature="0"/>
          <path d="m -841.34,-126.35 c 0,-0.086 0.0297,-0.16021 0.0891,-0.22273 0.0609,-0.0625 0.13364,-0.0938 0.21804,-0.0938 0.0875,10e-6 0.16256,0.0313 0.22508,0.0938 0.0625,0.0625 0.0938,0.13677 0.0938,0.22273 0,0.0875 -0.0313,0.16178 -0.0938,0.22274 -0.061,0.061 -0.13598,0.0914 -0.22508,0.0914 -0.0875,0 -0.16099,-0.0297 -0.22039,-0.0891 -0.0578,-0.0594 -0.0867,-0.13442 -0.0867,-0.22508 m 0.31183,-1.4302 c -0.22039,0 -0.38529,0.11879 -0.4947,0.35637 -0.10786,0.23759 -0.16178,0.59944 -0.16178,1.0856 0,0.48454 0.0539,0.84561 0.16178,1.0832 0.10941,0.23759 0.27431,0.35638 0.4947,0.35638 0.22196,0 0.38686,-0.11879 0.49471,-0.35638 0.10941,-0.23758 0.16412,-0.59865 0.16412,-1.0832 0,-0.48611 -0.0547,-0.84796 -0.16412,-1.0856 -0.10785,-0.23758 -0.27275,-0.35637 -0.49471,-0.35637 m 0,-0.37514 c 0.37357,0 0.6557,0.15318 0.8464,0.45954 0.19225,0.30636 0.28838,0.75887 0.28838,1.3575 0,0.59708 -0.0961,1.0488 -0.28838,1.3552 -0.1907,0.30635 -0.47283,0.45953 -0.8464,0.45953 -0.37357,0 -0.6557,-0.15318 -0.84639,-0.45953 -0.1907,-0.30636 -0.28604,-0.75809 -0.28604,-1.3552 0,-0.59865 0.0953,-1.0512 0.28604,-1.3575 0.19069,-0.30636 0.47282,-0.45954 0.84639,-0.45954" id="path4279" inkscape:connector-curvature="0"/>
        </g>
        <g transform="matrix(2.1455,0,0,2.4991,2184.3,358.2)" style="fill:#000000;filter:url(#filter4339)" id="flowRoot4128">
          <path d="m -847.38,-124.99 h 1.6084 v 0.39858 h -2.1265 V -124.99 c 0.29229,-0.30792 0.54785,-0.57989 0.76668,-0.81591 0.21882,-0.23602 0.36966,-0.40249 0.4525,-0.4994 0.15631,-0.19069 0.26181,-0.34465 0.31652,-0.46188 0.0547,-0.11879 0.0821,-0.23993 0.0821,-0.36341 0,-0.19538 -0.0578,-0.34856 -0.1735,-0.45954 -0.1141,-0.11098 -0.27119,-0.16647 -0.47126,-0.16647 -0.14224,0 -0.29151,0.0258 -0.44782,0.0774 -0.1563,0.0516 -0.32199,0.12974 -0.49705,0.23446 v -0.47829 c 0.161,-0.0766 0.31886,-0.13442 0.47361,-0.1735 0.1563,-0.0391 0.31026,-0.0586 0.46188,-0.0586 0.34231,0 0.61741,0.0914 0.8253,0.27432 0.20944,0.18132 0.31417,0.41968 0.31417,0.7151 0,0.15005 -0.0352,0.30011 -0.10551,0.45016 -0.0688,0.15005 -0.18131,0.31574 -0.33762,0.49705 -0.0875,0.1016 -0.21492,0.24227 -0.38216,0.42202 -0.16569,0.17976 -0.4189,0.4486 -0.75965,0.80654" id="path4268" inkscape:connector-curvature="0"/>
          <path d="m -843.64,-127.66 -1.1043,1.8499 h 1.1043 v -1.8499 m -0.0774,-0.4314 h 0.54863 v 2.2813 h 0.46657 v 0.38451 h -0.46657 v 0.83467 h -0.47126 v -0.83467 h -1.4841 v -0.44782 l 1.4068,-2.218" id="path4270" inkscape:connector-curvature="0"/>
          <path d="m -841.34,-126.35 c 0,-0.086 0.0297,-0.16021 0.0891,-0.22273 0.0609,-0.0625 0.13364,-0.0938 0.21804,-0.0938 0.0875,10e-6 0.16256,0.0313 0.22508,0.0938 0.0625,0.0625 0.0938,0.13677 0.0938,0.22273 0,0.0875 -0.0313,0.16178 -0.0938,0.22274 -0.061,0.061 -0.13598,0.0914 -0.22508,0.0914 -0.0875,0 -0.16099,-0.0297 -0.22039,-0.0891 -0.0578,-0.0594 -0.0867,-0.13442 -0.0867,-0.22508 m 0.31183,-1.4302 c -0.22039,0 -0.38529,0.11879 -0.4947,0.35637 -0.10786,0.23759 -0.16178,0.59944 -0.16178,1.0856 0,0.48454 0.0539,0.84561 0.16178,1.0832 0.10941,0.23759 0.27431,0.35638 0.4947,0.35638 0.22196,0 0.38686,-0.11879 0.49471,-0.35638 0.10941,-0.23758 0.16412,-0.59865 0.16412,-1.0832 0,-0.48611 -0.0547,-0.84796 -0.16412,-1.0856 -0.10785,-0.23758 -0.27275,-0.35637 -0.49471,-0.35637 m 0,-0.37514 c 0.37357,0 0.6557,0.15318 0.8464,0.45954 0.19225,0.30636 0.28838,0.75887 0.28838,1.3575 0,0.59708 -0.0961,1.0488 -0.28838,1.3552 -0.1907,0.30635 -0.47283,0.45953 -0.8464,0.45953 -0.37357,0 -0.6557,-0.15318 -0.84639,-0.45953 -0.1907,-0.30636 -0.28604,-0.75809 -0.28604,-1.3552 0,-0.59865 0.0953,-1.0512 0.28604,-1.3575 0.19069,-0.30636 0.47282,-0.45954 0.84639,-0.45954" id="path4272" inkscape:connector-curvature="0"/>
        </g>
        <g transform="matrix(2.1455,0,0,2.4991,2184.3,335.65)" style="fill:#000000;filter:url(#filter4335)" id="flowRoot4138">
          <path d="m -847.38,-124.99 h 1.6084 v 0.39858 h -2.1265 V -124.99 c 0.29229,-0.30792 0.54785,-0.57989 0.76668,-0.81591 0.21882,-0.23602 0.36966,-0.40249 0.4525,-0.4994 0.15631,-0.19069 0.26181,-0.34465 0.31652,-0.46188 0.0547,-0.11879 0.0821,-0.23993 0.0821,-0.36341 0,-0.19538 -0.0578,-0.34856 -0.1735,-0.45954 -0.1141,-0.11098 -0.27119,-0.16647 -0.47126,-0.16647 -0.14224,0 -0.29151,0.0258 -0.44782,0.0774 -0.1563,0.0516 -0.32199,0.12974 -0.49705,0.23446 v -0.47829 c 0.161,-0.0766 0.31886,-0.13442 0.47361,-0.1735 0.1563,-0.0391 0.31026,-0.0586 0.46188,-0.0586 0.34231,0 0.61741,0.0914 0.8253,0.27432 0.20944,0.18132 0.31417,0.41968 0.31417,0.7151 0,0.15005 -0.0352,0.30011 -0.10551,0.45016 -0.0688,0.15005 -0.18131,0.31574 -0.33762,0.49705 -0.0875,0.1016 -0.21492,0.24227 -0.38216,0.42202 -0.16569,0.17976 -0.4189,0.4486 -0.75965,0.80654" id="path4261" inkscape:connector-curvature="0"/>
          <path d="m -845.04,-128.09 h 2.2039 v 0.20163 l -1.252,3.2988 h -0.49471 l 1.2192,-3.1019 h -1.6764 v -0.39857" id="path4263" inkscape:connector-curvature="0"/>
          <path d="m -841.34,-126.35 c 0,-0.086 0.0297,-0.16021 0.0891,-0.22273 0.0609,-0.0625 0.13364,-0.0938 0.21804,-0.0938 0.0875,10e-6 0.16256,0.0313 0.22508,0.0938 0.0625,0.0625 0.0938,0.13677 0.0938,0.22273 0,0.0875 -0.0313,0.16178 -0.0938,0.22274 -0.061,0.061 -0.13598,0.0914 -0.22508,0.0914 -0.0875,0 -0.16099,-0.0297 -0.22039,-0.0891 -0.0578,-0.0594 -0.0867,-0.13442 -0.0867,-0.22508 m 0.31183,-1.4302 c -0.22039,0 -0.38529,0.11879 -0.4947,0.35637 -0.10786,0.23759 -0.16178,0.59944 -0.16178,1.0856 0,0.48454 0.0539,0.84561 0.16178,1.0832 0.10941,0.23759 0.27431,0.35638 0.4947,0.35638 0.22196,0 0.38686,-0.11879 0.49471,-0.35638 0.10941,-0.23758 0.16412,-0.59865 0.16412,-1.0832 0,-0.48611 -0.0547,-0.84796 -0.16412,-1.0856 -0.10785,-0.23758 -0.27275,-0.35637 -0.49471,-0.35637 m 0,-0.37514 c 0.37357,0 0.6557,0.15318 0.8464,0.45954 0.19225,0.30636 0.28838,0.75887 0.28838,1.3575 0,0.59708 -0.0961,1.0488 -0.28838,1.3552 -0.1907,0.30635 -0.47283,0.45953 -0.8464,0.45953 -0.37357,0 -0.6557,-0.15318 -0.84639,-0.45953 -0.1907,-0.30636 -0.28604,-0.75809 -0.28604,-1.3552 0,-0.59865 0.0953,-1.0512 0.28604,-1.3575 0.19069,-0.30636 0.47282,-0.45954 0.84639,-0.45954" id="path4265" inkscape:connector-curvature="0"/>
        </g>
        <g transform="translate(14.5,70)" id="g3906">
          <g id="g3945">
            <path d="m 327.88,-203.12 c -8.4628,0.43469 -16.562,10.219 -16.562,10.219 -2,2.625 3.5312,26.281 3.5312,26.281 1.0913,3.8196 -26.837,59.113 -31.531,68.375 l -4.9375,9.4062 c 11.633,2.6302 27.874,4.2812 45.844,4.2812 17.741,0 33.806,-1.6161 45.406,-4.1875 l -2.5938,-6.6875 c -1.3318,-4.2443 -3.2869,-9.0872 -5.5625,-14.281 -0.0785,-0.17926 -0.13946,-0.3512 -0.21875,-0.53125 -0.01,-0.002 -0.0213,0.002 -0.0312,0 -9.0345,-20.513 -22.854,-46.101 -23.188,-59.938 0,0 3.9375,-21.938 2.3125,-23.188 -3.5003,-7.6586 -8.0358,-9.9777 -12.469,-9.75 z" style="fill:url(#linearGradient3915)" id="path3025" inkscape:connector-curvature="0"/>
            <path transform="matrix(2.4991,0,0,2.4991,2365.1,206.73)" style="fill:url(#radialGradient3439);filter:url(#filter3861)" sodipodi:nodetypes="ccscc" d="m -810.81,-145.97 c 0,0.875 9.125,22.375 9.125,22.375 0,0 -2.1412,4.625 -3.2662,2 -1.125,-2.625 -8.4838,-23.75 -8.4838,-23.75 0,0 1,-2.25 2.625,-0.625 z" id="path3843" inkscape:connector-curvature="0"/>
            <path d="m -810.28,-144.94 c 4.487,5.7046 8.5882,21.34 8.5882,21.34 0.20284,2.6257 -2.3563,2.7837 -6.2844,0.15996 4.4094,-0.58298 -5.4656,-21.91 -5.4656,-21.91 0,0 1.5368,-1.215 3.1618,0.40998 z" transform="matrix(1.6352,-0.23767,-0.67735,1.3189,1564.2,-197.15)" style="fill:url(#radialGradient3917);filter:url(#filter3861)" sodipodi:nodetypes="ccccc" id="path4380" inkscape:connector-curvature="0"/>
            <path d="m 313.24,-191.18 c -3.583,8.7382 3.2924,16.393 2.5745,23.729 -0.7621,7.7876 -4.413,15.264 -9.012,24.99 -1.1592,2.9776 8.5312,0.34375 8.5312,0.34375 10.329,-22.851 3.9778,-29.019 3.2812,-51.094 -1.798,-1.0043 -3.5952,-0.008 -5.375,2.0312 z" style="opacity:0.65413998;fill:url(#radialGradient3921);filter:url(#filter3861)" sodipodi:nodetypes="cscccc" id="path4384" inkscape:connector-curvature="0"/>
          </g>
        </g>
        <rect x="288.17001" y="-54.123001" width="100.73" height="35.342999" ry="9.7193003" style="fill:url(#linearGradient4062)" id="rect3741"/>
        <rect x="336.10999" y="30.666" width="4.4177999" height="16.788" ry="2.2089" transform="scale(1,-1)" style="opacity:0.25;fill:url(#linearGradient4059)" id="rect3743"/>
        <rect x="294.35999" y="-47.453999" width="1.7494" height="16.788" ry="2.2089" style="opacity:0.25;fill:url(#linearGradient4056)" id="rect3747"/>
        <rect x="377.85999" y="-47.453999" width="1.7494" height="16.788" ry="2.2089" style="opacity:0.25;fill:url(#linearGradient4053)" id="rect3749"/>
        <rect x="354.20999" y="-47.453999" width="2.9988999" height="16.788" ry="2.2089" style="opacity:0.25;fill:url(#linearGradient4050)" id="rect3751"/>
        <rect x="367.44" y="-47.453999" width="2.4991" height="16.788" ry="2.2089" style="opacity:0.25;fill:url(#linearGradient4047)" id="rect3753"/>
        <rect x="319.23001" y="-47.453999" width="2.9988999" height="16.788" ry="2.2089" style="opacity:0.25;fill:url(#linearGradient4044)" id="rect3899"/>
        <rect x="306.51999" y="-47.453999" width="2.4991" height="16.788" ry="2.2089" style="opacity:0.25;fill:url(#linearGradient4041)" id="rect3901"/>
        <path d="m 388.21,-26.014 c -1.2017,4.0029 -4.889,6.9506 -9.2936,6.9506 0,0 -30.302,1.5619 -81.221,0 -4.1751,0 -7.6779,-2.6449 -9.0593,-6.3259 58.417,2.4991 95.2,0 95.2,0 1.5169,0 2.9682,-0.27398 4.3734,-0.62478 z" style="opacity:0.74694004;fill:url(#linearGradient4038)" sodipodi:nodetypes="cccccc" id="rect3903" inkscape:connector-curvature="0"/>
        <path d="m 344.95,-55.066 c 10.001,0.07322 21.477,0.31239 34.207,0.70287 2.6511,0 5.0565,1.0905 6.7944,2.8115 -56.853,-2.3102 -92.623,0.07797 -92.623,0.07797 -0.81794,0 -1.6382,0.10596 -2.421,0.23417 1.7672,-1.9116 4.2158,-3.1239 7.0288,-3.1239 0,0 17.011,-0.92252 47.014,-0.70287 z" style="fill:url(#linearGradient4035)" id="path3922" inkscape:connector-curvature="0"/>
        <path d="m 294.16,-18.223 6.7708,2.2929 -4.1661,8.5111 -12.798,196.72 -9.6127,-15.521 15.197,-185.12 4.6096,-6.8803 z" style="opacity:0.65413998;fill:url(#linearGradient4032);filter:url(#filter4068)" sodipodi:nodetypes="ccccccc" id="rect4019" inkscape:connector-curvature="0"/>
        <path d="m 383.86,-20.207 c -1.4679,1.6599 3.6275,1.5335 -3.0611,5.4308 0,0 -88.495,10.527 -94.68,7.4346 -6.185,-3.0925 3.0925,-15.462 3.0925,-15.462 l 94.649,2.5971 z" style="opacity:0.15;fill:#888a85" sodipodi:nodetypes="ccscc" id="path3966" inkscape:connector-curvature="0"/>
        <path d="m 381.79,-16.808 -11.271,2.2929 3.1661,8.5111 9.7984,195.22 18.113,-14.021 -15.197,-185.12 -4.6096,-6.8803 z" style="opacity:0.65413998;fill:url(#linearGradient4308)" sodipodi:nodetypes="ccccccc" id="path4064" inkscape:connector-curvature="0"/>
      </g>
    </g>
    <path id="path14684" sodipodi:nodetypes="cscscsssssc" style="fill-rule:evenodd;fill:#000000" d="m348.3 485.81c15.44-0.17 39.07 1.47 38.51 17.62-0.55 16.09-6.15 15.33-14.49 17.1 8.66 1.22 14.19 0.65 13.41 17.1-0.73 15.43-15.61 12.96-21.35 12.84 9.99 4.14 11.95 8.54 11.85 16.45-0.16 11.09-18.13 15.88-48.28 12.96-24.59-2.39-50.36-12.48-50.56-63.42-0.13-30.8 12.9-53.8 47.1-60 17.26-3.13 39.97-1.62 45.65 5.04 9.21 10.82-3.36 21.18-21.84 24.31z"/>
    <path id="path15655" sodipodi:nodetypes="cscscsssssc" style="fill-rule:evenodd;fill:#000000" d="m476.15 484.5c-15.44-0.17-39.07 1.47-38.51 17.62 0.55 16.09 6.14 15.33 14.48 17.1-8.65 1.22-14.18 0.65-13.41 17.1 0.73 15.44 15.62 12.96 21.36 12.85-10 4.13-11.96 8.53-11.85 16.44 0.15 11.09 18.12 15.88 48.27 12.96 24.6-2.39 50.36-12.47 50.57-63.41 0.12-30.81-12.9-53.81-47.1-60.01-17.27-3.13-39.97-1.62-45.65 5.05-9.22 10.81 3.36 21.18 21.84 24.3z"/>
    <path id="path14682" sodipodi:nodetypes="cscscsssssc" style="fill-rule:evenodd;fill:#e8cdba" d="m336.88 487.74c16.82-0.17 46.68-1.07 47.75 14.39 1.61 23.14-20.68 15.43-41.21 17.66 23.89 4.46 42.89-2.23 39.9 17.65-2.76 18.38-26.72 7.66-41.2 9.82 13.91 3.44 31.94 4.73 32.04 17.65 0.1 12.21-20.23 16.18-47.09 12.43-22.8-3.18-46.9-11.96-47.09-60.82-0.12-29.56 12.43-52.83 44.48-57.56 13.94-2.06 29.66-4.97 42.51 3.27 13.67 8.77-8.61 21.26-30.09 25.51z"/>
    <path id="path15657" sodipodi:nodetypes="cscscsssssc" style="fill-rule:evenodd;fill:#e8cdba" d="m487.56 486.43c-16.81-0.16-46.68-1.07-47.74 14.39-1.62 23.14 20.68 15.43 41.2 17.66-23.88 4.47-42.88-2.22-39.89 17.66 2.76 18.38 26.72 7.65 41.2 9.81-13.92 3.44-31.95 4.73-32.05 17.66-0.09 12.2 20.23 16.17 47.09 12.42 22.81-3.18 46.9-11.96 47.09-60.82 0.12-29.55-12.43-52.83-44.47-57.56-13.95-2.06-29.67-4.97-42.51 3.27-13.67 8.77 8.61 21.26 30.08 25.51z"/>
  </g>
  <metadata id="metadata38">
    <rdf:RDF>
      <cc:Work>
        <dc:format>image/svg+xml</dc:format>
        <dc:type rdf:resource="http://purl.org/dc/dcmitype/StillImage"/>
        <cc:license rdf:resource="http://creativecommons.org/licenses/publicdomain/"/>
        <dc:publisher>
          <cc:Agent rdf:about="http://openclipart.org/">
            <dc:title>Openclipart</dc:title>
          </cc:Agent>
        </dc:publisher>
        <dc:title/>
        <dc:date>2007-09-09T14:04:08</dc:date>
        <dc:description>The baby can hold something in his hands: a rattle, a bottle...</dc:description>
        <dc:source>https://openclipart.org/detail/5341/baby-boy-sitting-by-papapishu</dc:source>
        <dc:creator>
          <cc:Agent>
            <dc:title>papapishu</dc:title>
          </cc:Agent>
        </dc:creator>
        <dc:subject>
          <rdf:Bag>
            <rdf:li>baby</rdf:li>
            <rdf:li>boy</rdf:li>
            <rdf:li>child</rdf:li>
            <rdf:li>infant</rdf:li>
            <rdf:li>people</rdf:li>
            <rdf:li>remix</rdf:li>
            <rdf:li>sitting</rdf:li>
            <rdf:li>smiling</rdf:li>
            <rdf:li>worldlabel</rdf:li>
          </rdf:Bag>
        </dc:subject>
      </cc:Work>
      <cc:License rdf:about="http://creativecommons.org/licenses/publicdomain/">
        <cc:permits rdf:resource="http://creativecommons.org/ns#Reproduction"/>
        <cc:permits rdf:resource="http://creativecommons.org/ns#Distribution"/>
        <cc:permits rdf:resource="http://creativecommons.org/ns#DerivativeWorks"/>
      </cc:License>
    </rdf:RDF>
  </metadata>
</svg>
