<?xml version="1.0" encoding="UTF-8" standalone="no"?>
<!DOCTYPE svg PUBLIC "-//W3C//DTD SVG 1.1//EN" "http://www.w3.org/Graphics/SVG/1.1/DTD/svg11.dtd">
<svg width="100%" height="100%" viewBox="0 0 426 744" version="1.1" xmlns="http://www.w3.org/2000/svg" xmlns:xlink="http://www.w3.org/1999/xlink" xml:space="preserve" xmlns:serif="http://www.serif.com/" style="fill-rule:evenodd;clip-rule:evenodd;">
    <g id="najwyz" transform="matrix(6.1051e-17,0.997038,-0.986147,6.03841e-17,568.858,132.824)">
        <path id="path3351" d="M496.27,572.95C558.34,565.43 585.02,544.74 596.73,523.45C608.43,502.16 613.99,470.54 596.94,406.47C587.72,443.17 585.78,448.14 554.49,481.49C525.33,494.88 496.71,492.24 468.95,465.27L496.27,572.95Z" style="stroke:black;stroke-width:1.1px;"/>
        <path id="path4322" d="M459.42,321.06C392.32,326.67 314.54,352.99 264.55,411.17C255.07,437.65 255.96,461.14 260.95,490.71C265.87,519.85 294.13,541.68 347.35,557.92C414.95,578.55 509.96,571.79 509.96,571.79C480.28,475.14 474.3,387.93 459.42,321.06Z" style="stroke:black;stroke-width:0.92px;"/>
        <path id="path2370" d="M458.47,324.96C393.18,330.43 317.51,356.03 268.86,412.64C259.64,438.4 260.51,461.25 265.36,490.03C270.15,518.38 297.65,539.63 349.43,555.43C415.2,575.49 507.64,568.92 507.64,568.92C478.76,474.87 472.95,390.03 458.47,324.96Z" style="fill:rgb(219,149,149);stroke:black;stroke-width:0.9px;"/>
        <path id="path3343" d="M393.7,519.48C425.55,505.87 474.53,491.05 484.19,418.19C488.49,385.77 492.17,354.91 472.79,311.37C454.99,271.37 388.73,303.89 389.81,331.57C391.12,365.23 385.61,375.29 372.56,396.22C354.57,401.37 326.03,424.02 313.36,446.55C293.06,482.65 304.09,504.78 322.3,519.15C340.6,533.58 371.22,529.09 393.7,519.48Z"/>
        <g id="g2360" transform="matrix(-0.59261,-0.80549,0.80549,-0.59261,192.58,865.34)">
            <path id="path14684" d="M348.3,485.81C363.74,485.64 387.37,487.28 386.81,503.43C386.26,519.52 380.66,518.76 372.32,520.53C380.98,521.75 386.51,521.18 385.73,537.63C385,553.06 370.12,550.59 364.38,550.47C374.37,554.61 376.33,559.01 376.23,566.92C376.07,578.01 356.7,584.75 326.55,581.83C301.96,579.44 273.87,563.54 275.05,514.78C275.79,483.98 290.29,462.66 324.49,456.46C341.75,453.33 364.46,454.84 370.14,461.5C379.35,472.32 366.78,482.68 348.3,485.81Z"/>
            <path id="path14682" d="M334.95,488.7C351.77,488.54 381.63,487.63 382.7,503.09C384.31,526.23 362.02,518.52 341.49,520.75C365.37,525.22 384.38,518.53 381.39,538.41C378.63,556.79 354.67,546.06 340.18,548.22C354.1,551.67 372.13,552.96 372.23,565.88C372.33,578.08 352,582.05 325.14,578.31C302.34,575.13 278.24,566.34 278.05,517.48C277.93,487.93 290.48,464.66 322.53,459.93C336.47,457.87 352.19,454.96 365.04,463.2C378.71,471.96 356.43,484.45 334.95,488.7Z" style="fill:rgb(232,205,186);"/>
        </g>
        <path id="path14678" d="M591.07,304.14C572.25,325.8 537.79,323.2 499.64,289.89C476.06,268.42 421.78,238.09 439.6,214.61C450.35,200.45 459.58,207.51 465.8,211.52C461.24,206.55 451.91,200.31 462.67,187.55C473.95,174.17 480.15,182.52 485.44,186.87C481.97,182.56 479.25,170.87 484.91,163.06C493.75,150.86 507.28,161.13 510.34,164.69C508.87,160.55 507.65,155.04 515.16,151.78C530.03,145.34 529.57,145.3 556.76,175.85C591.2,214.55 616.99,274.3 591.07,304.14Z"/>
        <path id="path2368" d="M392.91,518.34C434.14,498.92 473.14,477.13 477.89,420.48C480.44,390.02 484.05,357.73 465.85,316.83C449.12,279.26 390.71,312.1 390.98,338.12C391.19,358.87 397.75,363.2 371.2,403.87C354.3,408.72 316.45,406.64 304.55,427.8C285.48,461.71 286.83,485.34 303.95,498.82C325.71,515.96 373.98,527.26 392.91,518.34Z" style="fill:rgb(232,205,186);"/>
        <path id="path2366" d="M494.05,496.99C441.44,466.8 432.46,447.57 424.3,404.09C420.04,381.47 427.5,327.36 458.31,311.82C497.62,292 540.56,266.55 563.32,272.11C581.18,276.47 600.78,249.51 601.09,276.8C601.34,298.55 600.28,340.95 562.57,372.35C580.86,377.04 592.12,389.22 597.76,406.06C611.45,446.95 611.1,483.9 588.6,511.57C570.17,534.23 513.37,508.07 494.05,496.99Z"/>
        <path id="path3341" d="M476,483.12C446.59,459 433.32,446.75 426.66,402.51C422.09,372.15 430.61,329.6 460.5,314.13C497.02,295.23 541.36,272.23 562.52,277.53C579.11,281.7 598.37,259.19 598.66,285.21C598.89,305.95 589.67,359.75 552.62,373.22C569.63,377.7 594.17,389.87 595.37,412.36C597.34,449.09 581.1,468.48 567.07,481.49C546.76,500.32 492.17,496.39 476,483.12Z" style="fill:rgb(232,205,186);"/>
        <path id="path14680" d="M590.53,301.86C572.63,321.91 539.55,320.2 502.22,287.43C479.93,267.49 424.99,239.19 442.19,215.3C453.67,199.35 467.98,216.64 477.62,220.29C471.46,211.5 451.08,201.24 466.33,186.71C478.64,174.99 487.01,194.47 497.63,200.4C490.84,190.41 475.6,177.09 489.03,162.94C502.02,149.25 510.89,174.06 520.64,182.13C514.93,170.09 505.96,155.5 519.55,152.26C531.05,149.52 526.75,149.91 556.98,181.41C590.59,216.43 611.85,277.96 590.53,301.86Z" style="fill:rgb(232,205,186);"/>
        <path id="path3349" d="M509.84,565.52C602.21,556.32 613.95,496.05 599.75,422.62C594.48,462.95 576.9,485.2 550.37,493.01C535.83,497.29 509.87,500.43 490.53,493.41L509.84,565.52Z" style="fill:white;"/>
        <g id="g4029" transform="matrix(0.14648,-0.70711,0.65762,0.13623,-270.28,630.46)">
            <path id="path3761" d="M461.59,126.19C460.94,126.2 460.17,126.3 459.22,126.44C450.63,127.69 447.9,128.24 445.94,129.06C444.84,129.53 443.26,130.18 442.44,130.53C438.91,132.01 435.97,134.13 431.97,138.06L427.69,142.25L421.59,139.16C414.74,135.7 412.58,135.42 408.5,137.53C403.33,140.2 400.44,144.69 400.44,150C400.44,152.63 400.02,156.09 399.53,157.69C399.05,159.28 398.09,162.51 397.38,164.88L396.09,169.16L390.5,163.78C375.98,149.8 362.52,140.06 357.69,140.06C354.65,140.06 350.54,142.22 347.62,145.34C344.59,148.59 340.43,161.06 340.41,166.94C340.4,169.5 339.97,172.24 339.44,173.06C338.67,174.25 338.45,174.02 338.44,172C338.42,168.32 333.65,164.06 329.53,164.06C325.87,164.06 322.65,166.28 310.19,177.38C302.45,184.27 302.44,184.29 302.44,189.34C302.44,192.58 303.01,195.06 304.03,196.19C306.05,198.42 305.24,199.74 301.34,200.59C295.4,201.9 288.44,209.95 288.44,215.5C288.44,218.89 293.82,224.8 297.94,225.94C301.66,226.97 308.99,231.72 314.62,236.72C316.66,238.53 320.04,240.94 322.12,242.09C324.21,243.25 328.16,245.73 330.91,247.62C337.48,252.17 341.24,252.2 346.12,247.72C350.14,244.04 351.1,240.41 352.09,224.94C352.88,212.73 357.26,209.99 365.53,216.56C367.95,218.48 370.53,220.06 371.25,220.06C372.96,220.08 369.96,224.29 362.66,232.19C357.9,237.33 357.05,238.85 356.66,242.94C356.23,247.4 356.43,247.87 359.84,250.88C361.85,252.63 364.16,254.06 364.97,254.06C365.78,254.06 367.23,254.48 368.19,254.97C369.14,255.45 371.29,256.38 372.94,257.06C374.59,257.74 376.7,258.7 377.66,259.19C378.61,259.67 380.28,260.06 381.34,260.06C383.94,260.06 386.44,261.1 386.44,262.16C386.44,262.63 385.12,264.5 383.5,266.34C381.28,268.87 380.49,270.89 380.25,274.56C379.97,278.98 379.66,279.5 376.94,280.34C365.29,283.93 339.45,295.29 335.44,298.59C334.61,299.27 331.91,300.91 329.44,302.22C326.96,303.52 323.32,305.8 321.34,307.31C319.37,308.82 317.39,310.06 316.97,310.06C316.54,310.06 314.56,311.5 312.56,313.22C310.56,314.94 306.72,318.2 304,320.47C297.3,326.05 284.14,338.29 283.12,339.88C282.67,340.58 280.86,342.61 279.12,344.38C273.96,349.62 262.04,365.23 254.44,376.66C245.99,389.36 233.58,414.31 228.41,429.06C227.73,430.99 226.59,433.91 225.88,435.56C224.06,439.73 219.84,455.26 218.38,463.06C216.71,471.95 215.98,473.06 212.06,473.06C206.42,473.06 198.28,476.09 193.78,479.84C189.87,483.11 188.58,485.13 185.25,493.06C184.67,494.44 183.8,496.36 183.31,497.31C182.83,498.27 182.44,504.04 182.44,510.16C182.44,521.01 182.52,521.46 186.34,529.5C191.56,540.48 197.89,546.01 207.16,547.69C208.66,547.96 210.15,548.66 210.5,549.22C210.85,549.78 211.46,554.81 211.84,560.41C213.07,578.08 220.96,615.28 225.88,626.56C226.59,628.21 228.44,633.16 229.97,637.56C231.5,641.96 234.94,649.93 237.59,655.25C240.25,660.57 242.44,665.22 242.44,665.56C242.44,665.9 244.01,668.65 245.94,671.66C247.86,674.67 249.44,677.44 249.44,677.84C249.44,679 263.01,699.09 267.44,704.5C272.98,711.27 274.1,712.57 277.94,716.94C289.32,729.88 311.25,749.14 322.22,755.81C323.8,756.78 327.11,758.89 329.53,760.5C337,765.45 353.49,773.49 366.44,778.5C372.24,780.74 375.7,781.82 388.44,785.19C395.05,786.94 401.53,788.03 408.72,788.66C412.68,789 416.16,789.51 416.44,789.78C417.11,790.44 458.6,789.4 464.94,788.56C476.9,786.97 506.79,778.19 514.28,774.06C515.2,773.56 518.64,771.92 521.94,770.44C536.11,764.06 560.17,747.74 573.09,735.75C581.87,727.61 600.39,708.09 600.41,706.97C600.41,706.63 602.57,703.59 605.19,700.25C618.31,683.45 634.42,653.46 641.31,633.06C643.07,627.85 644.9,622.89 645.34,622.06C646.94,619.09 652.35,596.35 653.91,586.06C654.78,580.29 655.88,574.21 656.38,572.56C656.87,570.91 657.6,566.61 657.97,562.97L658.62,556.34L663.97,555.16C671.79,553.41 682.42,545.27 682.44,541.03C682.44,540.18 683,538.91 683.69,538.22C686.47,535.44 688.71,523.66 689.12,509.78C689.58,494.55 688.85,491.98 682.75,487.47C676.09,482.54 673.25,481.67 663.69,481.62C655.33,481.58 654.44,481.38 654.44,479.69C654.42,470.21 643.24,431.5 635.97,415.75C625.81,393.74 623.78,390 613.84,374.81C601.11,355.35 583.82,335.65 565.94,320.25C558.65,313.97 536.28,298.91 532.06,297.44C530.69,296.96 533.16,295.39 541.47,291.44C547.66,288.49 553.37,286.06 554.19,286.06C555.55,286.06 558.64,284.32 568,278.31C569.93,277.08 572.41,276.06 573.5,276.06C576.69,276.06 584.95,271.46 587.81,268.06C592.15,262.9 591.43,259.65 584.5,252.91C581.24,249.74 577.3,246.84 575.75,246.47C574.2,246.1 572.26,245.23 571.44,244.53C570.61,243.83 567.25,242.3 563.97,241.16C557.38,238.85 553.52,236.06 556.91,236.06C557.96,236.06 560.08,234.85 561.62,233.38C565.54,229.63 565.5,224.49 561.53,220.69C558.83,218.1 558.16,217.94 551.53,218.25C544.98,218.56 544.44,218.41 544.44,216.56C544.44,213.37 547.08,201.61 548.31,199.31C550.43,195.35 549.61,192.05 545.53,187.97C542.18,184.62 541.06,184.06 537.22,184.06C532.58,184.06 521.5,187.25 517.78,189.62C516.6,190.38 513.11,191.86 510.03,192.94C506.95,194.02 503.24,195.85 501.78,197C500.32,198.15 498.95,198.92 498.75,198.72C498.55,198.51 499.29,196.22 500.41,193.62C501.52,191.03 502.44,188.32 502.44,187.59C502.44,185.89 506.69,176.64 508.47,174.5C509.22,173.6 510.23,170.32 510.69,167.22C511.14,164.11 511.75,159.86 512.06,157.78C512.79,152.96 511.1,148.85 506.78,145.06C501.65,140.56 495.67,140.84 485.81,146.06C481.66,148.26 477.06,150.08 475.59,150.09C474.13,150.11 471.07,150.94 468.81,151.97C462.79,154.71 453.63,155.5 450.06,153.59C448.49,152.75 446.5,152.06 445.62,152.06C443.59,152.06 444.85,150.85 449.72,148.16C451.8,147 454.57,146.06 455.91,146.06C459.22,146.06 463.4,144.18 466.69,141.19C470.58,137.65 470.47,132.46 466.47,128.62C464.52,126.75 463.56,126.14 461.59,126.19ZM338.19,178.09C338.35,178.07 338.44,178.13 338.44,178.31C338.44,179.03 337.12,181.07 335.5,182.84C332.88,185.72 327.39,187.57 328.94,185.06C329.28,184.51 330.14,184.06 330.88,184.06C331.61,184.06 333.61,182.48 335.31,180.53C336.59,179.07 337.71,178.16 338.19,178.09ZM392.22,191.72C393.87,191.69 394.92,192.61 397.84,195.66C401.9,199.89 402.31,200.06 407.91,200.06C412.41,200.06 414.8,199.48 418.28,197.44C420.76,195.98 424.25,194.44 426.06,194.03L429.38,193.31L428.75,199.22L428.12,205.12L432.81,209.59C435.38,212.05 438.35,214.06 439.44,214.06C441.81,214.06 441.83,214.1 439.94,217.72C438,221.44 438.04,226.39 440.03,230.25L441.62,233.34L436.03,238.97C430.69,244.36 430.44,244.88 430.44,249.81C430.44,254.74 430.73,255.32 436.94,262.41C440.51,266.49 443.44,270.32 443.44,270.94C443.44,272.4 417.84,272.52 416.94,271.06C416.6,270.51 413.35,270.06 409.72,270.06C403.24,270.06 403.14,270.04 404.88,268.12C406.32,266.53 406.59,264.81 406.28,258.69C405.95,252.04 405.57,250.84 403,248.16C399.96,244.99 396.81,243.65 389.59,242.53C387.21,242.16 384.15,241.3 382.78,240.59L380.28,239.28L386.38,232.81C392,226.8 392.44,225.99 392.44,221.69C392.44,218.5 391.66,215.82 390,213.19C387.11,208.61 379.71,202.06 377.44,202.06C375.79,202.06 373.44,200.23 373.44,198.97C373.44,198.13 385.58,193.13 390.28,192.03C391.05,191.85 391.67,191.73 392.22,191.72ZM450.06,196.72C450.91,196.63 452.72,196.89 454.38,197.34C456.26,197.86 459.44,198.01 461.44,197.69C465.21,197.08 469.68,198.77 474.62,202.66C475.97,203.71 478.68,205.44 480.66,206.5L484.25,208.44L478.56,212.16C475.43,214.19 471.2,217.7 469.16,219.97C464.31,225.33 464.23,228.78 468.81,233.78C472.53,237.83 475.96,238.68 493.09,239.72L501.28,240.22L502.84,244.16C504.47,248.21 504.88,253.84 503.81,257.81C503.35,259.55 502.47,260.06 500,260.06C496.25,260.06 491.76,264.18 490.56,268.69C490.03,270.7 489.07,271.7 487.41,271.94C486.09,272.13 483.89,273.14 482.56,274.19C480.14,276.09 476.54,276.39 470.94,275.19C468.7,274.71 467.35,273.42 465.59,270.06C464.3,267.59 461.61,263.61 459.59,261.22C453.37,253.82 451.54,250.7 452.66,249.31C453.21,248.62 454.24,248.06 454.94,248.06C455.64,248.06 457.61,246.48 459.31,244.53C462.84,240.51 463.37,236.24 460.97,230.5C459.51,227.01 459.53,226.93 462.97,223.91C467.83,219.64 467.78,215.02 462.84,209.25C460.88,206.95 458.8,205.06 458.22,205.06C456.5,205.06 448.47,197.22 449.75,196.78C449.83,196.75 449.94,196.73 450.06,196.72ZM509.78,278.06C511.46,278.06 512.37,278.99 513.38,281.81C514.11,283.88 514.93,286.12 515.19,286.81C515.78,288.41 513.89,288.27 509.19,286.34C505.89,284.99 505.54,284.5 506.09,282.19C506.99,278.42 507.29,278.06 509.78,278.06Z" style="fill:rgb(232,205,186);fill-rule:nonzero;"/>
            <path id="path3757" d="M420.93,728.08C409.8,726.16 405.36,725.14 402.22,723.8C397.47,721.76 392.03,720.08 390.19,720.08C389.31,720.08 387.32,719.46 385.76,718.72C384.2,717.97 378.16,715.04 372.33,712.22C366.49,709.39 360.99,707.08 360.09,707.08C359.19,707.08 355.86,704.84 352.69,702.11C349.52,699.38 344.96,695.45 342.55,693.36C340.14,691.28 336.47,686.88 334.4,683.58C332.32,680.28 329.46,676.43 328.03,675.04C326.6,673.64 325.42,672.07 325.41,671.54C325.4,671.01 322.93,665.7 319.91,659.73C316.9,653.76 314.43,647.89 314.43,646.67C314.43,645.46 313.3,642.94 311.93,641.08C310.55,639.21 309.43,636.63 309.43,635.35C309.43,634.06 308.71,631.91 307.83,630.56C306.95,629.22 305.86,626.65 305.41,624.85C304.97,623.05 303.61,619.1 302.41,616.08C301.2,613.05 299.76,608.78 299.2,606.58C298.64,604.38 297.53,600.55 296.73,598.08C295.32,593.71 294.29,589.37 292.45,580.08C291.96,577.6 291,573.55 290.32,571.08C288.57,564.69 287.96,525.33 289.56,522.34C291.78,518.18 289.61,518.84 284.75,523.8C280.01,528.63 278.1,530.05 270.96,534.06C266.99,536.29 264.87,536.59 263.92,535.07C262.53,532.82 264.83,530.03 270.23,527.43C275.74,524.78 292.43,509.95 292.43,507.7C292.43,507.14 293.61,505.45 295.05,503.94C297.72,501.16 299.51,498.43 301.39,494.25C302.03,492.84 303.12,492.06 304.18,492.26C306.51,492.7 307.09,498.29 304.98,500.03C304.13,500.74 303.43,501.86 303.43,502.52C303.43,503.19 302.26,504.82 300.83,506.15C296.89,509.84 295.43,513.43 295.43,519.47C295.43,522.49 294.98,525.24 294.43,525.58C293.17,526.35 293.07,563.73 294.32,564.51C294.81,564.81 295.46,566.52 295.78,568.32C296.36,571.63 297.6,577.98 299.26,586.08C299.77,588.55 300.91,592.55 301.8,594.95C302.7,597.36 303.43,600.44 303.43,601.8C303.43,603.16 305,607.91 306.93,612.35C308.85,616.79 310.43,621.41 310.43,622.62C310.43,623.82 311.33,625.95 312.43,627.35C313.53,628.75 314.43,630.95 314.43,632.25C314.43,633.55 315.55,636.27 316.93,638.29C318.3,640.31 319.43,642.93 319.43,644.1C319.43,645.28 321.9,651.08 324.93,656.99C327.95,662.9 330.43,668.01 330.43,668.33C330.43,668.66 331.67,670.23 333.18,671.82C334.69,673.42 337.45,677.28 339.31,680.4C341.16,683.52 344.42,687.54 346.55,689.33C348.68,691.11 352.9,694.71 355.94,697.33C359.25,700.18 362.42,702.08 363.88,702.08C365.22,702.08 366.57,702.5 366.89,703.02C367.57,704.12 384.07,712.06 385.78,712.11C386.41,712.13 387.8,712.8 388.87,713.61C389.94,714.42 391.71,715.08 392.8,715.08C395.29,715.08 401.04,716.87 404.74,718.8C407.46,720.22 411.05,720.96 425.93,723.21C434.44,724.5 462.04,723.66 467.23,721.96C469.26,721.29 472.95,719.88 475.43,718.82C482.94,715.61 483.75,715.29 488.93,713.53C491.68,712.6 495.84,710.99 498.17,709.95C500.5,708.92 502.78,708.08 503.24,708.08C503.7,708.08 505.17,706.91 506.5,705.48C507.84,704.05 510.6,702.02 512.65,700.97C516.65,698.92 517.44,698.29 527.61,688.99C534.82,682.41 543.96,671.02 547.2,664.58C548.31,662.38 550.16,659.72 551.32,658.67C552.48,657.62 553.43,656.3 553.43,655.73C553.43,655.15 554.49,653.54 555.79,652.13C557.08,650.73 559.03,647.78 560.11,645.58C566.52,632.55 571,624.19 573.07,621.39C574.37,619.64 575.43,617.54 575.43,616.72C575.43,615.9 576.48,613.96 577.76,612.4C580.59,608.96 588.02,587.74 589.98,577.46C590.77,573.34 591.9,569.07 592.48,567.98C594.33,564.52 596.99,546.86 598.27,529.58C598.63,524.63 599.32,519.97 599.8,519.23C600.3,518.44 600.23,516.99 599.63,515.73C596.21,508.63 593.43,501.59 593.43,500.01C593.43,499.01 592.98,497.92 592.43,497.58C590.88,496.62 591.25,493.08 592.97,492.42C594.9,491.68 598.43,494.78 598.43,497.22C598.43,500.16 601.78,507.08 603.2,507.08C603.91,507.08 604.74,507.86 605.05,508.83C606.87,514.52 610.74,520.08 612.89,520.08C613.5,520.08 615.53,521.35 617.39,522.9C619.72,524.85 620.58,526.25 620.13,527.4C619.25,529.7 615.13,529.51 612.93,527.08C611.93,525.98 610.66,525.08 610.1,525.08C609.54,525.08 608.25,524.32 607.23,523.4C604.45,520.88 603.67,522.59 603.05,532.58C601.96,550.04 599.65,565.03 597.12,571.08C596.31,573 595.33,576.97 594.94,579.9C593.88,587.79 585.84,610.8 582.94,614.25C581.56,615.89 580.43,618.03 580.43,619.02C580.43,620 579.42,622.08 578.2,623.64C576.97,625.2 574.94,628.53 573.68,631.03C572.42,633.53 570.75,636.7 569.95,638.08C569.16,639.45 567.37,643.22 565.97,646.44C564.58,649.67 562.2,653.79 560.68,655.61C555.89,661.36 551.43,667.73 551.43,668.83C551.43,670.38 541.94,682.42 534.43,690.41C528.35,696.87 524.94,699.64 516.97,704.58C515.19,705.68 512.2,707.93 510.33,709.58C507.12,712.4 502.77,714.36 485.93,720.59C482.08,722.02 478.25,723.61 477.43,724.14C476.6,724.66 475.48,725.24 474.93,725.43C474.38,725.62 472.35,726.32 470.43,726.99C466.15,728.48 428.11,729.31 420.93,728.08Z" style="fill-rule:nonzero;"/>
            <path id="path3755" d="M655.68,541.59C652.12,540.04 651.26,537.08 654.37,537.08C655.44,537.08 656.59,537.53 656.93,538.08C657.68,539.29 664.43,539.43 664.43,538.23C664.43,537.76 665.33,536.34 666.43,535.08C667.53,533.81 668.43,531.98 668.43,531.01C668.43,530.04 668.99,529.05 669.68,528.82C671.29,528.28 671.18,511.42 669.55,509.8C668.93,509.18 668.43,507.94 668.43,507.03C668.43,506.12 667.49,504.3 666.34,502.98C664.6,500.97 663.41,500.6 659.12,500.74C656.3,500.82 653.83,501.39 653.63,501.99C653.43,502.59 652.72,503.08 652.07,503.08C651.41,503.08 650.1,503.98 649.16,505.08C647.15,507.42 644.43,507.72 644.43,505.59C644.43,503.71 647.49,500.08 649.07,500.08C649.72,500.08 650.44,499.54 650.66,498.88C650.93,498.09 653.8,497.66 659.16,497.63C666.49,497.58 667.45,497.8 669.34,499.98C670.49,501.3 671.43,503.12 671.43,504.03C671.43,504.94 671.89,506.13 672.44,506.69C673,507.25 673.74,512.03 674.09,517.32L674.72,526.94L670.98,534.4C667.82,540.73 666.78,541.96 664.21,542.47C660.11,543.29 659.44,543.22 655.68,541.59Z" style="fill-rule:nonzero;"/>
            <path id="path3753" d="M208.86,530.11C207.71,529.65 204.72,527.21 202.19,524.68C198.81,521.3 197.43,519.02 196.91,515.98C196.08,511.05 197.21,499.08 198.51,499.08C199.01,499.08 199.43,498.48 199.43,497.76C199.43,497.03 200.56,495.46 201.94,494.26C204.06,492.41 205.66,492.08 212.44,492.08C216.83,492.08 220.43,492.47 220.43,492.96C220.43,493.45 221.33,494.08 222.43,494.37C224.92,495.02 225.08,498.08 222.62,498.08C221.62,498.08 219.94,497.42 218.87,496.61C217.79,495.79 214.74,495.13 212,495.11C207.63,495.08 206.71,495.47 203.89,498.55C200.47,502.29 198.96,508.47 200.09,514.12C200.76,517.5 208.34,525.71 212.12,527.15C213.41,527.64 217.16,527.76 220.45,527.42C225.39,526.9 226.43,527.05 226.43,528.3C226.43,530.75 213.68,532.06 208.86,530.11Z" style="fill-rule:nonzero;"/>
            <path id="path3751" d="M459.93,430.18C455.89,428.42 453.93,425.1 453.93,419.99C453.93,416 454.43,414.62 456.7,412.35C458.99,410.07 460.35,409.58 464.43,409.58C468.51,409.58 469.87,410.07 472.16,412.35C474.44,414.63 474.93,416 474.93,420.08C474.93,424.08 474.43,425.53 472.33,427.63C469.53,430.43 463.4,431.69 459.93,430.18Z" style="fill-rule:nonzero;"/>
            <path id="path3749" d="M424.93,419.18C420.89,417.42 418.93,414.1 418.93,408.99C418.93,405 419.43,403.62 421.7,401.35C423.99,399.07 425.35,398.58 429.43,398.58C433.51,398.58 434.87,399.07 437.16,401.35C439.44,403.63 439.93,405 439.93,409.08C439.93,413.08 439.43,414.53 437.33,416.63C434.53,419.43 428.4,420.69 424.93,419.18Z" style="fill-rule:nonzero;"/>
            <path id="path3747" d="M426.6,306.42C427.61,305.51 428.43,304.08 428.43,303.25C428.43,300.71 425.28,298.08 422.24,298.08C418.54,298.08 417.58,295.62 420.18,292.78C421.29,291.57 422.48,288.52 422.84,286.01C423.38,282.24 423.13,280.96 421.39,278.76C420.23,277.28 418.51,276.08 417.56,276.08C416.61,276.08 415.4,275.65 414.88,275.13C414.35,274.6 410.56,274.04 406.44,273.88C397.88,273.53 396.58,272.07 400.33,266.99C402.6,263.93 403.11,257.99 401.47,253.69C400.14,250.18 396.75,248.24 389.85,247.04C384.47,246.1 381.78,245.24 377.43,243.11C374.15,241.5 375.31,238.45 381.88,231.35C389.3,223.34 389.82,221.25 385.97,215.14C383.34,210.98 377.62,206.08 375.39,206.08C374.65,206.08 372.86,204.95 371.42,203.57L368.8,201.06L366.11,205.17L363.41,209.28L366.11,211.43C367.59,212.61 369.51,214.12 370.37,214.79C371.23,215.46 372.73,216.03 373.7,216.04C374.67,216.06 375.98,217.19 376.6,218.55C377.59,220.73 377.28,221.56 373.91,225.8C371.82,228.42 368.16,232.61 365.79,235.09C360.13,241.01 359.25,245 362.97,247.93C364.47,249.11 366.32,250.08 367.08,250.08C367.84,250.08 369.24,250.47 370.19,250.96C371.15,251.45 373.28,252.4 374.93,253.08C376.58,253.75 378.62,254.65 379.47,255.07C380.32,255.49 383.38,256.16 386.29,256.56C389.44,256.99 391.8,257.87 392.13,258.73C392.8,260.5 389.76,266.4 386.68,269.31C384.81,271.06 384.43,272.49 384.43,277.68C384.43,283.24 384.72,284.16 387.06,286C390.32,288.57 391.03,288.57 396.19,286.08C401.35,283.59 410.2,283.32 411.09,285.64C411.45,286.57 410.63,288.3 409.06,289.94C407.61,291.45 406.43,293.36 406.43,294.18C406.43,295 405.92,296.18 405.3,296.8C403.86,298.25 404.81,302.02 407.48,305.41C409.42,307.88 410.13,308.08 417.17,308.08C422.84,308.08 425.24,307.66 426.6,306.42Z" style="fill:rgb(238,196,108);fill-rule:nonzero;"/>
            <path id="path3745" d="M481.49,302.23C482.75,301.21 484.95,297.27 486.39,293.48L489.01,286.58L493.69,286.27C497.32,286.04 498.82,285.39 500.4,283.39C501.51,281.97 502.43,280.04 502.43,279.1C502.43,276.68 505.41,274.3 508.93,273.91L511.93,273.58L512.22,265.72C512.45,259.55 512.14,257.29 510.77,255.22L509.01,252.58L508.26,256.93C507.27,262.57 505.93,264.08 501.88,264.08C498.42,264.08 494.43,267.73 494.43,270.88C494.43,273.12 491.43,276.08 489.17,276.08C485.5,276.08 479.8,281.67 478.41,286.64C477.7,289.18 476.06,292.81 474.77,294.71C471.99,298.81 471.9,299.83 474.08,302.25C476.19,304.58 478.6,304.57 481.49,302.23Z" style="fill:rgb(238,196,108);fill-rule:nonzero;"/>
            <path id="path3743" d="M453.02,290.57C459.98,286.95 463.93,283.48 464.25,280.7C464.68,277.06 460.59,269.05 454.62,261.8C446.61,252.08 445.25,250.1 445.68,248.82C445.91,248.14 448.3,246.44 450.99,245.04C453.69,243.65 456.56,241.31 457.38,239.85C458.75,237.41 458.68,236.75 456.54,231.88C453.34,224.64 453.32,222.66 456.43,222.24C459.43,221.83 462.43,219.34 462.43,217.27C462.43,215.41 457.7,209.08 456.31,209.08C454.59,209.08 444.45,199.68 444.44,198.07C444.43,197.24 442.97,196.07 441.18,195.47C439.39,194.87 437.21,194.06 436.32,193.67C435.06,193.12 434.44,193.96 433.43,197.59C432.26,201.76 432.32,202.45 434.03,204.72C435.7,206.92 438.31,208.7 443.36,211.04C445.98,212.26 447.04,214.91 445.67,216.83C444.99,217.79 443.93,219.7 443.33,221.08C442.23,223.59 442.31,223.94 445.7,232.22C446.71,234.68 446.38,235.23 440.61,240.57C432.82,247.78 432.38,250.86 438.25,257.35C452.35,272.93 455.04,278.13 450.03,280.04C447.39,281.04 444.43,284.71 444.43,286.97C444.43,288.78 447.33,292.08 448.93,292.08C449.59,292.08 451.43,291.4 453.02,290.57Z" style="fill:rgb(238,196,108);fill-rule:nonzero;"/>
            <path id="path3741" d="M533.19,291.18C542.7,286.27 552.32,282.06 554.06,282.07C555.23,282.07 556.75,281.39 557.44,280.56C558.14,279.72 560.33,278.29 562.32,277.37C564.3,276.46 567,274.89 568.31,273.89C569.63,272.89 571.69,272.08 572.91,272.08C578.49,272.08 586.43,266.16 586.43,261.99C586.43,258.66 577.46,250.08 573.98,250.08C572.75,250.08 570.92,249.18 569.93,248.08C568.93,246.98 567.28,246.08 566.26,246.08C565.24,246.08 563.62,245.7 562.66,245.23C558.89,243.4 554.11,240.98 549.68,238.66L546.43,236.96L546.41,241.27C546.4,243.64 545.99,246.22 545.49,247.01C544.83,248.06 545.27,248.8 547.12,249.76C548.52,250.48 550.39,251.1 551.29,251.14C554.27,251.24 561.9,255.56 562.24,257.33C562.69,259.68 560.92,259.53 554.94,256.71C545.56,252.29 542.86,251.76 539.72,253.72C538.18,254.68 536.82,255.53 536.68,255.61C536.54,255.68 537.1,257.96 537.92,260.66C539.8,266.88 539.81,269.08 537.96,269.08C537.03,269.08 535.89,267.03 534.89,263.58C534.01,260.55 532.93,258.08 532.5,258.08C531.6,258.08 530.45,268.85 530.44,277.33C530.43,281.99 530.12,283.08 528.79,283.08C527.34,283.08 527.21,281.78 527.65,271.67L528.16,260.26L524.04,259.84C521.78,259.61 519.14,259.07 518.18,258.64C516.57,257.93 516.43,258.76 516.43,268.85C516.43,280.49 517.68,285.48 521.7,289.83C523.91,292.22 529.84,292.91 533.19,291.18Z" style="fill:rgb(210,131,130);fill-rule:nonzero;"/>
            <path id="path3733" d="M532.95,252.98C543.92,246.78 545.08,241.8 537.8,232.11C531.28,223.45 529.98,222.76 521.73,223.62C513.39,224.48 512.14,225.11 508.4,230.28C504.47,235.7 504.44,240.42 508.28,245.68C511.94,250.68 514.1,252.54 518.43,254.4C523.73,256.69 526.93,256.38 532.95,252.98Z" style="fill:rgb(219,149,149);fill-rule:nonzero;"/>
            <path id="path3731" d="M344.15,244.83C346.29,242.51 347.11,238.44 348.06,225.33L348.59,218.08L344.96,218.08C342.96,218.08 340.03,217.41 338.45,216.59L335.57,215.1L332.88,220.59C330.24,225.98 327.43,227.86 327.43,224.23C327.43,223.21 328.57,220.22 329.97,217.6C332.37,213.09 332.41,212.72 330.81,210.95C328.54,208.43 325.55,208.59 319.02,211.58C316.02,212.95 312.81,214.08 311.89,214.08C310.97,214.08 307.98,215.2 305.24,216.58C299.27,219.57 298.43,219.65 298.43,217.19C298.43,215.04 302.72,212.7 309.47,211.17C311.92,210.61 315.82,209.24 318.13,208.12C320.44,207 323.37,206.08 324.63,206.08C326.77,206.08 326.93,205.67 326.93,200.08C326.93,193.88 326.29,193.12 322.66,194.96C321.11,195.75 318.95,196.68 314.43,198.5C313.6,198.83 311.01,200.19 308.67,201.51C306.32,202.84 303.08,204.21 301.46,204.57C297.67,205.4 292.43,211.34 292.43,214.8C292.43,217.92 295.98,222.08 298.66,222.08C300.82,222.08 310.88,228.64 317.32,234.25C319.73,236.36 322.23,238.08 322.86,238.08C323.49,238.08 325.56,239.41 327.47,241.04C329.37,242.66 331.44,244.01 332.06,244.04C332.68,244.06 333.74,244.75 334.43,245.58C336.33,247.87 341.73,247.45 344.15,244.83Z" style="fill:rgb(210,131,130);fill-rule:nonzero;"/>
            <path id="path3729" d="M502.53,232.23L504.14,228.4L500.03,225.93C497.78,224.57 494.69,222.84 493.18,222.1C490,220.52 489.52,218.08 492.39,218.08C494.52,218.08 503.72,222.84 504.26,224.23C504.78,225.54 506.59,225.24 508.48,223.53C509.88,222.27 510.1,220.79 509.67,215.53C509.23,210.01 509.39,209.08 510.79,209.08C511.85,209.08 512.43,209.92 512.43,211.45C512.43,212.76 512.71,215.23 513.05,216.95C513.72,220.3 515.54,220.8 522.18,219.48C525.05,218.9 525.24,218.54 526.38,211.48C527.27,205.99 527.97,204.08 529.12,204.08C530.41,204.08 530.55,205.02 529.98,209.83C529.61,212.99 529.1,216.3 528.84,217.19C528.53,218.28 529.37,219.22 531.42,220.07C533.1,220.77 535.54,222.61 536.84,224.16C539.19,226.94 539.23,226.95 539.81,224.78C540.14,223.57 540.41,220.8 540.41,218.64C540.43,213.15 542.38,203.1 544.04,199.92C547.29,193.72 543.99,188.08 537.12,188.08C532.93,188.08 525.57,189.85 523.98,191.25C523.46,191.7 522.27,192.08 521.35,192.08C520.43,192.08 519.12,192.74 518.45,193.55C517.78,194.36 515.69,195.31 513.82,195.66C511.94,196.02 510.16,196.7 509.86,197.19C509.56,197.68 508.51,198.08 507.52,198.08C506.54,198.08 504.92,198.98 503.93,200.08C502.93,201.18 501.58,202.08 500.93,202.08C500.27,202.08 498.88,203.03 497.83,204.19C496.79,205.35 495.03,206.71 493.93,207.21C492.83,207.7 490.58,208.99 488.93,210.08C487.28,211.16 485.01,212.46 483.89,212.96C482.76,213.46 481.25,214.59 480.52,215.47C479.78,216.35 478.7,217.08 478.1,217.08C477.5,217.08 475.31,218.74 473.22,220.78C468.85,225.05 468.37,228.32 471.6,231.76C473.34,233.61 474.83,234.08 479.04,234.08C481.94,234.08 484.59,234.53 484.93,235.08C485.27,235.63 489.01,236.07 493.24,236.07L500.93,236.06L502.53,232.23Z" style="fill:rgb(210,131,130);fill-rule:nonzero;"/>
            <path id="path3727" d="M553.8,232.08C557.06,232.08 560.43,229.63 560.43,227.25C560.43,224.12 557.28,222.08 552.52,222.11C547.25,222.15 544.11,224.23 543.06,228.39C542.45,230.83 542.75,231.31 545.65,232.54C547.67,233.4 549.29,233.58 549.88,233C550.4,232.49 552.17,232.08 553.8,232.08Z" style="fill:rgb(238,196,108);fill-rule:nonzero;"/>
            <path id="path3725" d="M351.22,212.18C353.26,211.14 357.07,208.3 359.68,205.86C364.33,201.53 364.43,201.32 364.43,195.39C364.43,188.05 362.58,185.26 355.29,181.6C347.52,177.7 344.93,178.14 339.16,184.33C328.19,196.1 327.74,203.94 337.61,211.1C342.39,214.56 346,214.84 351.22,212.18Z" style="fill:rgb(219,149,149);fill-rule:nonzero;"/>
            <path id="path3723" d="M490.77,202.02C492.21,200.89 494.11,198.3 494.99,196.27C495.87,194.24 497.01,191.8 497.51,190.84C498.02,189.88 498.43,188.29 498.43,187.29C498.43,185.33 502.94,175.54 504.98,173.08C505.66,172.25 506.51,169.33 506.85,166.58C508.73,151.7 508.78,152.64 505.92,149.25C503.53,146.41 502.7,146.08 498.09,146.15C494.85,146.2 491.81,146.93 489.93,148.12C485.06,151.19 480.25,153.14 475.1,154.13C468.4,155.41 468.02,155.86 471.3,158.62C472.88,159.95 474.73,162.4 475.42,164.06C476.84,167.48 477,167.53 480.43,165.58C483.71,163.7 486.43,163.7 486.43,165.58C486.43,166.43 484.24,168.04 481.41,169.28C478.65,170.48 476.53,171.87 476.69,172.37C476.86,172.86 481.14,174.59 486.21,176.22C492.25,178.15 495.43,179.67 495.43,180.62C495.43,182.63 493.71,182.46 484.72,179.59C475.61,176.68 474.43,176.56 474.43,178.58C474.43,179.4 475.12,180.08 475.97,180.08C478.22,180.08 488.43,187.88 488.43,189.61C488.43,192.09 485.59,191.26 480,187.13C474.63,183.16 473.43,182.97 473.43,186.1C473.43,187.04 472.34,189.4 471.01,191.36C468.5,195.06 468.6,196.08 471.47,196.08C472.41,196.08 473.79,196.81 474.54,197.71C476.9,200.56 482.83,203.96 485.54,204.02C486.98,204.05 489.34,203.15 490.77,202.02Z" style="fill:rgb(210,131,130);fill-rule:nonzero;"/>
            <path id="path3721" d="M323.37,188.86C322.3,188.46 321.43,187.5 321.43,186.73C321.43,185.26 327.55,180.08 329.29,180.08C330.69,180.08 334.43,175.12 334.43,173.27C334.43,171.26 331.51,168.08 329.67,168.08C328.01,168.08 322.87,171.93 313.18,180.44C307.64,185.3 306.43,186.91 306.43,189.39C306.43,191.06 307.13,193.19 307.98,194.13C309.44,195.74 310.01,195.66 317.42,192.71C323.57,190.27 324.89,189.42 323.37,188.86Z" style="fill:rgb(238,196,108);fill-rule:nonzero;"/>
            <path id="path3719" d="M371.19,195.23C372.15,194.77 373.93,193.87 375.16,193.23C376.4,192.6 377.88,192.08 378.46,192.08C379.05,192.08 381.39,191.18 383.66,190.08C385.94,188.98 388.7,188.08 389.8,188.08C393.45,188.08 396.43,184.18 396.43,179.41C396.43,174.09 393.69,170.8 378.32,157.65C367.2,148.13 360.8,144.08 356.91,144.08C354.04,144.08 348.43,148.64 348.43,150.97C348.43,151.91 348.05,153.1 347.6,153.63C346.19,155.24 344.43,162.6 344.43,166.88C344.43,169.12 344.03,171.99 343.55,173.26C342.7,175.49 342.85,175.58 347.8,175.61C350.62,175.62 353.72,176.01 354.68,176.46C356.13,177.15 356.43,176.8 356.44,174.43C356.46,168.68 357.67,164.08 359.16,164.08C360.38,164.08 360.51,165.26 359.93,171.02C359.55,174.83 359.54,178.45 359.91,179.04C360.33,179.73 362.96,178.46 367.05,175.6C370.61,173.11 374.21,171.08 375.05,171.08C378.16,171.08 375.78,174.62 370.19,178.32L364.47,182.1L366.45,185.34C367.53,187.12 368.42,190.26 368.42,192.33C368.43,196.37 368.56,196.51 371.19,195.23Z" style="fill:rgb(210,131,130);fill-rule:nonzero;"/>
            <path id="path3717" d="M416.55,194.33C420.64,191.34 423.32,190.08 425.59,190.08C429.93,190.08 431.14,187.74 430,181.55C429.09,176.6 428.75,176.03 426.95,176.58C423.8,177.54 414.01,180 413.18,180.04C412.77,180.06 412.43,179.22 412.43,178.16C412.43,176.69 413.41,176.09 416.68,175.54C419.02,175.16 423.29,173.96 426.18,172.89C430.52,171.27 431.43,170.52 431.43,168.52C431.43,166.69 430.55,165.74 427.81,164.59C425.81,163.76 423.15,163.08 421.89,163.08C418.51,163.08 416.43,162.06 416.43,160.4C416.43,159.2 417.46,159.06 422.07,159.64C425.17,160.03 428.77,160.89 430.06,161.56C432.17,162.65 432.79,162.41 436.22,159.18L440.04,155.58L436.48,152.7C434.53,151.12 431.5,149.21 429.75,148.46C428,147.72 426.31,146.7 426.01,146.2C424.98,144.55 415.51,140.08 413.02,140.08C411.68,140.08 409.2,141.24 407.51,142.67C404.93,144.83 404.43,145.97 404.43,149.65C404.43,153.97 402.95,161.64 401.35,165.58C400.91,166.68 400.29,170.73 399.99,174.58C399.69,178.43 399.16,183.75 398.83,186.4C398.3,190.53 398.54,191.57 400.5,193.65C402.39,195.67 403.74,196.08 408.47,196.08C412.31,196.08 414.94,195.51 416.55,194.33Z" style="fill:rgb(210,131,130);fill-rule:nonzero;"/>
            <path id="path3715" d="M465.94,190.77C468.47,188.23 469.39,186.3 469.87,182.52C470.2,179.8 470.92,176.19 471.46,174.51C473.21,168.97 472.64,166.08 469.07,162.51L465.7,159.15L453.82,159.27L441.93,159.38L438.68,162.63C436.71,164.6 435.43,166.88 435.43,168.43C435.43,169.83 434.92,172.09 434.3,173.45C432.38,177.67 434.1,184.95 437.92,188.77C440.71,191.56 441.99,192.09 446.08,192.18C448.75,192.23 452.05,192.64 453.43,193.08C458.99,194.86 462.49,194.21 465.94,190.77Z" style="fill:rgb(219,149,149);fill-rule:nonzero;"/>
            <path id="path2824" d="M447.71,144.17C449.79,143.02 452.58,142.08 453.91,142.08C455.24,142.08 457.59,141.54 459.13,140.88C465.53,138.15 467.05,134.85 463.43,131.57C461.69,130 460.91,129.92 457.56,130.92C455.44,131.56 452.73,132.08 451.55,132.08C449.6,132.08 447.74,132.8 443.43,135.23C442.6,135.7 441.03,136.48 439.93,136.98C437.27,138.17 431.91,143.89 432.7,144.69C433.05,145.03 434.82,146.34 436.63,147.6C439.82,149.81 439.99,149.83 441.93,148.08C443.03,147.09 445.63,145.33 447.71,144.17Z" style="fill:rgb(238,196,108);fill-rule:nonzero;"/>
            <g id="path6529" transform="matrix(1,0,0,1,170,105.71)">
                <path d="M171.43,400.22C171.43,428.826 147.891,452.365 119.285,452.365C90.679,452.365 67.14,428.826 67.14,400.22C67.14,371.614 90.679,348.075 119.285,348.075C147.891,348.075 171.43,371.614 171.43,400.22Z" style="fill:url(#_Radial1);fill-rule:nonzero;"/>
            </g>
            <g id="path7424" transform="matrix(1,0,0,1,476.43,116.43)">
                <path d="M171.43,400.22C171.43,428.826 147.891,452.365 119.285,452.365C90.679,452.365 67.14,428.826 67.14,400.22C67.14,371.614 90.679,348.075 119.285,348.075C147.891,348.075 171.43,371.614 171.43,400.22Z" style="fill:url(#_Radial2);fill-rule:nonzero;"/>
            </g>
            <path id="path1933" d="M416.43,789.79C416.15,789.52 412.69,789.01 408.72,788.67C401.53,788.04 395.04,786.93 388.43,785.18C375.7,781.81 372.23,780.76 366.43,778.51C353.48,773.5 336.99,765.45 329.52,760.5C327.09,758.89 323.81,756.79 322.22,755.82C311.25,749.15 289.31,729.89 277.93,716.95C274.09,712.59 272.97,711.26 267.43,704.5C263,699.09 249.43,679.01 249.43,677.85C249.43,677.45 247.85,674.65 245.93,671.64C244,668.63 242.43,665.89 242.43,665.55C242.43,665.21 240.25,660.57 237.59,655.25C234.94,649.93 231.51,641.98 229.98,637.58C228.44,633.18 226.6,628.23 225.88,626.58C220.96,615.3 213.07,578.08 211.85,560.41C211.46,554.81 210.86,549.78 210.52,549.22C210.17,548.66 208.65,547.98 207.15,547.7C197.88,546.02 191.56,540.49 186.34,529.51C182.52,521.47 182.43,521.02 182.43,510.16C182.43,504.05 182.83,498.27 183.31,497.31C183.8,496.36 184.67,494.45 185.24,493.08C188.57,485.15 189.88,483.12 193.79,479.86C198.28,476.1 206.44,473.08 212.07,473.08C215.99,473.08 216.69,471.96 218.36,463.08C219.83,455.27 224.08,439.75 225.89,435.58C226.61,433.93 227.75,431 228.42,429.08C233.59,414.32 245.98,389.35 254.43,376.64C262.03,365.22 273.97,349.61 279.13,344.36C280.87,342.6 282.66,340.57 283.11,339.86C284.13,338.28 297.29,326.04 303.99,320.46C306.7,318.19 310.56,314.93 312.56,313.21C314.56,311.48 316.54,310.08 316.97,310.08C317.39,310.08 319.36,308.84 321.33,307.33C323.31,305.81 326.95,303.51 329.43,302.2C331.9,300.9 334.6,299.28 335.43,298.6C339.44,295.3 365.29,283.93 376.93,280.34C379.66,279.5 379.96,278.98 380.24,274.56C380.48,270.88 381.27,268.88 383.49,266.35C385.11,264.51 386.43,262.62 386.43,262.15C386.43,261.09 383.93,260.08 381.33,260.08C380.27,260.08 378.62,259.68 377.66,259.19C376.71,258.71 374.58,257.75 372.93,257.08C371.28,256.4 369.15,255.45 368.19,254.96C367.24,254.47 365.79,254.08 364.98,254.08C364.16,254.08 361.86,252.64 359.86,250.88C356.44,247.88 356.24,247.38 356.67,242.93C357.06,238.83 357.9,237.34 362.66,232.2C369.97,224.3 372.96,220.08 371.25,220.07C370.52,220.06 367.95,218.49 365.54,216.57C357.27,209.99 352.87,212.73 352.08,224.94C351.09,240.41 350.14,244.03 346.13,247.72C341.24,252.19 337.49,252.17 330.92,247.63C328.17,245.73 324.22,243.24 322.13,242.09C320.05,240.93 316.67,238.51 314.63,236.7C309,231.71 301.65,226.98 297.93,225.95C293.82,224.81 288.43,218.88 288.43,215.49C288.43,209.94 295.4,201.9 301.34,200.6C305.24,199.74 306.04,198.42 304.03,196.18C303.01,195.06 302.43,192.59 302.43,189.35C302.43,184.3 302.44,184.28 310.18,177.39C322.64,166.29 325.86,164.08 329.52,164.08C333.64,164.08 338.42,168.33 338.44,172.01C338.46,174.04 338.66,174.26 339.43,173.08C339.96,172.25 340.4,169.48 340.41,166.92C340.43,161.04 344.59,148.6 347.62,145.36C350.54,142.23 354.65,140.08 357.69,140.08C362.52,140.08 375.99,149.81 390.5,163.8L396.08,169.17L397.37,164.87C398.08,162.51 399.06,159.27 399.55,157.68C400.03,156.08 400.43,152.63 400.43,150C400.43,144.69 403.33,140.21 408.5,137.54C412.58,135.43 414.74,135.7 421.59,139.16L427.69,142.24L431.95,138.05C435.96,134.12 438.9,132.01 442.43,130.53C443.25,130.18 444.83,129.52 445.93,129.05C447.89,128.23 450.64,127.69 459.23,126.43C463.03,125.88 463.88,126.13 466.48,128.63C470.49,132.46 470.57,137.67 466.68,141.2C463.39,144.19 459.22,146.08 455.91,146.08C454.58,146.08 451.79,147.02 449.71,148.17C444.85,150.87 443.58,152.08 445.61,152.08C446.49,152.08 448.49,152.77 450.06,153.61C453.63,155.51 462.8,154.72 468.83,151.98C471.08,150.96 474.13,150.11 475.59,150.1C477.06,150.09 481.66,148.28 485.81,146.08C495.66,140.86 501.64,140.57 506.77,145.07C511.09,148.86 512.8,152.97 512.08,157.79C511.76,159.87 511.13,164.12 510.68,167.22C510.22,170.33 509.23,173.61 508.48,174.51C506.7,176.65 502.43,185.89 502.43,187.59C502.43,188.32 501.52,191.04 500.4,193.64C499.29,196.23 498.55,198.53 498.75,198.73C498.96,198.94 500.32,198.16 501.78,197.01C503.25,195.86 506.96,194.03 510.04,192.95C513.12,191.87 516.6,190.37 517.78,189.61C521.5,187.23 532.58,184.08 537.21,184.08C541.05,184.08 542.2,184.61 545.55,187.96C549.62,192.04 550.43,195.34 548.31,199.3C547.08,201.6 544.43,213.39 544.43,216.58C544.42,218.42 544.98,218.55 551.53,218.24C558.16,217.93 558.83,218.09 561.53,220.68C565.5,224.48 565.54,229.64 561.62,233.39C560.08,234.87 557.96,236.08 556.91,236.08C553.52,236.08 557.38,238.86 563.96,241.16C567.24,242.31 570.6,243.83 571.43,244.53C572.25,245.23 574.2,246.11 575.75,246.48C577.31,246.85 581.25,249.75 584.5,252.91C591.43,259.65 592.14,262.89 587.8,268.05C584.94,271.45 576.7,276.08 573.51,276.08C572.41,276.08 569.94,277.09 568.01,278.33C558.66,284.34 555.55,286.08 554.19,286.08C553.38,286.08 547.65,288.49 541.46,291.43C533.15,295.39 530.7,296.96 532.07,297.43C536.28,298.9 558.64,313.96 565.93,320.24C583.81,335.64 601.12,355.36 613.85,374.82C623.78,390.01 625.8,393.75 635.96,415.75C643.24,431.51 654.42,470.22 654.43,479.7C654.43,481.4 655.32,481.58 663.68,481.62C673.24,481.67 676.08,482.54 682.74,487.47C688.84,491.97 689.58,494.55 689.13,509.78C688.72,523.66 686.46,535.45 683.68,538.23C682.99,538.91 682.43,540.17 682.42,541.03C682.41,545.27 671.77,553.41 663.96,555.16L658.63,556.35L657.96,562.96C657.59,566.6 656.88,570.93 656.39,572.58C655.89,574.23 654.77,580.3 653.89,586.08C652.33,596.36 646.93,619.1 645.33,622.07C644.89,622.9 643.09,627.84 641.33,633.06C634.44,653.46 618.3,683.45 605.18,700.25C602.57,703.6 600.42,706.61 600.42,706.95C600.41,708.08 581.87,727.61 573.1,735.75C560.18,747.74 536.1,764.07 521.93,770.45C518.63,771.94 515.18,773.57 514.27,774.07C506.77,778.19 476.89,786.97 464.93,788.56C458.59,789.4 417.1,790.46 416.43,789.79ZM464.26,783.57C493.32,778.8 519.31,769.02 540.23,754.97C542.59,753.38 544.77,752.08 545.05,752.08C545.34,752.08 550.14,748.59 555.71,744.33C579.08,726.44 604.97,696.65 617.57,673.15C619.42,669.7 622.05,664.78 623.43,662.22C625.59,658.18 629.14,650.61 634.02,639.58C636.33,634.36 640.18,622.86 642.4,614.58C643.57,610.18 644.96,605.68 645.48,604.58C647.07,601.23 650.31,583.37 652.02,568.58C652.91,560.88 653.78,554.07 653.95,553.45C654.13,552.83 656.44,552.01 659.1,551.62C661.76,551.23 665.73,550.1 667.93,549.12C672.44,547.1 678.43,541.57 678.43,539.42C678.43,538.64 679.06,537.01 679.84,535.79C683.68,529.75 686.66,504.41 684.36,497.38C681.82,489.65 670.52,484.37 659.11,485.59C654.39,486.1 652.57,485.93 651.8,484.92C651.24,484.18 649.77,477.97 648.55,471.11C647.32,464.26 645.96,458.18 645.53,457.61C645.1,457.04 643.97,453.65 643.02,450.08C640.18,439.33 636.35,427.94 633.45,421.58C631.94,418.28 628.99,411.75 626.88,407.08C624.77,402.4 622.53,397.9 621.9,397.08C621.28,396.25 619.27,392.88 617.45,389.58C605.12,367.21 584.82,342.66 563.1,323.86C558.02,319.47 542.08,308.08 541.01,308.08C540.74,308.08 538.5,306.71 536.02,305.03C530.67,301.42 511.4,291.8 506.43,290.25C504.36,289.61 500.74,289.45 497.57,289.87L492.2,290.58L490.01,296.46C485.89,307.5 477.16,311.58 471.12,305.27C468.08,302.1 467.42,296.16 469.89,294.11C471.72,292.59 475.66,282.25 474.88,281C474.57,280.49 472.99,280.08 471.37,280.08C468.96,280.08 468.43,280.5 468.43,282.39C468.43,285.47 463.13,290.22 454.56,294.81C444.94,299.97 435.88,288.64 442.93,280.26C444.3,278.62 445.43,277.02 445.43,276.68C445.43,276.35 441.16,276.08 435.95,276.08L426.47,276.08L426.99,280.33C427.28,282.66 427.15,286.59 426.7,289.06C425.92,293.31 426.05,293.68 429.15,296.41C433.45,300.18 433.68,305.16 429.74,309.27C427.16,311.96 426.67,312.08 417.43,312.08C408.22,312.08 407.69,311.96 405.24,309.33C401.75,305.59 400.43,302.78 400.43,299.13C400.43,296.17 400.71,295.29 403.28,290.33C404.75,287.49 403.66,287.44 398.19,290.08C391.89,293.12 388.14,292.71 383.44,288.47C378.87,284.34 378.83,284.34 365.93,289.19C355.74,293.02 347.36,297.09 335.43,304C325.09,309.99 309.43,320.75 309.42,321.88C309.42,322.26 307.73,323.7 305.68,325.08C298.5,329.87 278.6,351.05 267.61,365.58C265.73,368.06 253.12,387.56 251.25,390.88C238.32,413.8 226.44,444.65 221.93,467.08C220.99,471.75 219.8,476.09 219.29,476.72C218.78,477.35 215.05,478.03 211.01,478.23C204.59,478.56 203.02,479.04 198.59,482.07C194.22,485.05 193.07,486.58 190.33,493.05C187.45,499.86 187.15,501.55 187.16,510.71C187.17,520.28 187.37,521.25 190.79,528.37C195.09,537.29 199.93,541.41 208.08,543.11C214.39,544.42 216.43,547.2 216.43,554.48C216.43,563.51 220.63,591.37 223.89,603.92C225.25,609.15 231.37,628.02 234.85,637.71C236.69,642.82 248.26,666.69 252.4,673.89C254.07,676.82 257.92,682.89 260.95,687.39C268.46,698.56 269.69,700.29 271.43,702.09C272.25,702.94 274.05,705.12 275.43,706.92C279.28,711.98 291.89,725.42 299.06,732.13C304.29,737.01 323.72,752.08 324.8,752.08C325.16,752.08 327.77,753.71 330.61,755.7C346.96,767.19 378.26,779.22 401.66,783.01C408.41,784.1 415.05,785.18 416.43,785.4C417.8,785.62 425.69,785.87 433.96,785.94C445.77,786.05 452.27,785.54 464.26,783.57ZM420.93,728.08C409.8,726.16 405.36,725.14 402.22,723.8C397.47,721.76 392.03,720.08 390.19,720.08C389.31,720.08 387.32,719.46 385.76,718.72C384.2,717.97 378.16,715.04 372.33,712.22C366.49,709.39 360.99,707.08 360.09,707.08C359.19,707.08 355.86,704.84 352.69,702.11C349.52,699.38 344.96,695.45 342.55,693.36C340.14,691.28 336.47,686.88 334.4,683.58C332.32,680.28 329.46,676.43 328.03,675.04C326.6,673.64 325.42,672.07 325.41,671.54C325.4,671.01 322.93,665.7 319.91,659.73C316.9,653.76 314.43,647.89 314.43,646.67C314.43,645.46 313.3,642.94 311.93,641.08C310.55,639.21 309.43,636.63 309.43,635.35C309.43,634.06 308.71,631.91 307.83,630.56C306.95,629.22 305.86,626.65 305.41,624.85C304.97,623.05 303.61,619.1 302.41,616.08C301.2,613.05 299.76,608.78 299.2,606.58C298.64,604.38 297.53,600.55 296.73,598.08C295.32,593.71 294.29,589.37 292.45,580.08C291.96,577.6 291,573.55 290.32,571.08C288.57,564.69 287.96,525.33 289.56,522.34C291.78,518.18 289.61,518.84 284.75,523.8C280.01,528.63 278.1,530.05 270.96,534.06C266.99,536.29 264.87,536.59 263.92,535.07C262.53,532.82 264.83,530.03 270.23,527.43C275.74,524.78 292.43,509.95 292.43,507.7C292.43,507.14 293.61,505.45 295.05,503.94C297.72,501.16 299.51,498.43 301.39,494.25C302.03,492.84 303.12,492.06 304.18,492.26C306.51,492.7 307.09,498.29 304.98,500.03C304.13,500.74 303.43,501.86 303.43,502.52C303.43,503.19 302.26,504.82 300.83,506.15C296.89,509.84 295.43,513.43 295.43,519.47C295.43,522.49 294.98,525.24 294.43,525.58C293.17,526.35 293.07,563.73 294.32,564.51C294.81,564.81 295.46,566.52 295.78,568.32C296.36,571.63 297.6,577.98 299.26,586.08C299.77,588.55 300.91,592.55 301.8,594.95C302.7,597.36 303.43,600.44 303.43,601.8C303.43,603.16 305,607.91 306.93,612.35C308.85,616.79 310.43,621.41 310.43,622.62C310.43,623.82 311.33,625.95 312.43,627.35C313.53,628.75 314.43,630.95 314.43,632.25C314.43,633.55 315.55,636.27 316.93,638.29C318.3,640.31 319.43,642.93 319.43,644.1C319.43,645.28 321.9,651.08 324.93,656.99C327.95,662.9 330.43,668.01 330.43,668.33C330.43,668.66 331.67,670.23 333.18,671.82C334.69,673.42 337.45,677.28 339.31,680.4C341.16,683.52 344.42,687.54 346.55,689.33C348.68,691.11 352.9,694.71 355.94,697.33C359.25,700.18 362.42,702.08 363.88,702.08C365.22,702.08 366.57,702.5 366.89,703.02C367.57,704.12 384.07,712.06 385.78,712.11C386.41,712.13 387.8,712.8 388.87,713.61C389.94,714.42 391.71,715.08 392.8,715.08C395.29,715.08 401.04,716.87 404.74,718.8C407.46,720.22 411.05,720.96 425.93,723.21C434.44,724.5 462.04,723.66 467.23,721.96C469.26,721.29 472.95,719.88 475.43,718.82C482.94,715.61 483.75,715.29 488.93,713.53C491.68,712.6 495.84,710.99 498.17,709.95C500.5,708.92 502.78,708.08 503.24,708.08C503.7,708.08 505.17,706.91 506.5,705.48C507.84,704.05 510.6,702.02 512.65,700.97C516.65,698.92 517.44,698.29 527.61,688.99C534.82,682.41 543.96,671.02 547.2,664.58C548.31,662.38 550.16,659.72 551.32,658.67C552.48,657.62 553.43,656.3 553.43,655.73C553.43,655.15 554.49,653.54 555.79,652.13C557.08,650.73 559.03,647.78 560.11,645.58C566.52,632.55 571,624.19 573.07,621.39C574.37,619.64 575.43,617.54 575.43,616.72C575.43,615.9 576.48,613.96 577.76,612.4C580.59,608.96 588.02,587.74 589.98,577.46C590.77,573.34 591.9,569.07 592.48,567.98C594.33,564.52 596.99,546.86 598.27,529.58C598.63,524.63 599.32,519.97 599.8,519.23C600.3,518.44 600.23,516.99 599.63,515.73C596.21,508.63 593.43,501.59 593.43,500.01C593.43,499.01 592.98,497.92 592.43,497.58C590.88,496.62 591.25,493.08 592.97,492.42C594.9,491.68 598.43,494.78 598.43,497.22C598.43,500.16 601.78,507.08 603.2,507.08C603.91,507.08 604.74,507.86 605.05,508.83C606.87,514.52 610.74,520.08 612.89,520.08C613.5,520.08 615.53,521.35 617.39,522.9C619.72,524.85 620.58,526.25 620.13,527.4C619.25,529.7 615.13,529.51 612.93,527.08C611.93,525.98 610.66,525.08 610.1,525.08C609.54,525.08 608.25,524.32 607.23,523.4C604.45,520.88 603.67,522.59 603.05,532.58C601.96,550.04 599.65,565.03 597.12,571.08C596.31,573 595.33,576.97 594.94,579.9C593.88,587.79 585.84,610.8 582.94,614.25C581.56,615.89 580.43,618.03 580.43,619.02C580.43,620 579.42,622.08 578.2,623.64C576.97,625.2 574.94,628.53 573.68,631.03C572.42,633.53 570.75,636.7 569.95,638.08C569.16,639.45 567.37,643.22 565.97,646.44C564.58,649.67 562.2,653.79 560.68,655.61C555.89,661.36 551.43,667.73 551.43,668.83C551.43,670.38 541.94,682.42 534.43,690.41C528.35,696.87 524.94,699.64 516.97,704.58C515.19,705.68 512.2,707.93 510.33,709.58C507.12,712.4 502.77,714.36 485.93,720.59C482.08,722.02 478.25,723.61 477.43,724.14C476.6,724.66 475.48,725.24 474.93,725.43C474.38,725.62 472.35,726.32 470.43,726.99C466.15,728.48 428.11,729.31 420.93,728.08ZM655.68,541.59C652.12,540.04 651.26,537.08 654.37,537.08C655.44,537.08 656.59,537.53 656.93,538.08C657.68,539.29 664.43,539.43 664.43,538.23C664.43,537.76 665.33,536.34 666.43,535.08C667.53,533.81 668.43,531.98 668.43,531.01C668.43,530.04 668.99,529.05 669.68,528.82C671.29,528.28 671.18,511.42 669.55,509.8C668.93,509.18 668.43,507.94 668.43,507.03C668.43,506.12 667.49,504.3 666.34,502.98C664.6,500.97 663.41,500.6 659.12,500.74C656.3,500.82 653.83,501.39 653.63,501.99C653.43,502.59 652.72,503.08 652.07,503.08C651.41,503.08 650.1,503.98 649.16,505.08C647.15,507.42 644.43,507.72 644.43,505.59C644.43,503.71 647.49,500.08 649.07,500.08C649.72,500.08 650.44,499.54 650.66,498.88C650.93,498.09 653.8,497.66 659.16,497.63C666.49,497.58 667.45,497.8 669.34,499.98C670.49,501.3 671.43,503.12 671.43,504.03C671.43,504.94 671.89,506.13 672.44,506.69C673,507.25 673.74,512.03 674.09,517.32L674.72,526.94L670.98,534.4C667.82,540.73 666.78,541.96 664.21,542.47C660.11,543.29 659.44,543.22 655.68,541.59ZM208.86,530.11C207.71,529.65 204.72,527.21 202.19,524.68C198.81,521.3 197.43,519.02 196.91,515.98C196.08,511.05 197.21,499.08 198.51,499.08C199.01,499.08 199.43,498.48 199.43,497.76C199.43,497.03 200.56,495.46 201.94,494.26C204.06,492.41 205.66,492.08 212.44,492.08C216.83,492.08 220.43,492.47 220.43,492.96C220.43,493.45 221.33,494.08 222.43,494.37C224.92,495.02 225.08,498.08 222.62,498.08C221.62,498.08 219.94,497.42 218.87,496.61C217.79,495.79 214.74,495.13 212,495.11C207.63,495.08 206.71,495.47 203.89,498.55C200.47,502.29 198.96,508.47 200.09,514.12C200.76,517.5 208.34,525.71 212.12,527.15C213.41,527.64 217.16,527.76 220.45,527.42C225.39,526.9 226.43,527.05 226.43,528.3C226.43,530.75 213.68,532.06 208.86,530.11ZM459.93,430.18C455.89,428.42 453.93,425.1 453.93,419.99C453.93,416 454.43,414.62 456.7,412.35C458.99,410.07 460.35,409.58 464.43,409.58C468.51,409.58 469.87,410.07 472.16,412.35C474.44,414.63 474.93,416 474.93,420.08C474.93,424.08 474.43,425.53 472.33,427.63C469.53,430.43 463.4,431.69 459.93,430.18ZM424.93,419.18C420.89,417.42 418.93,414.1 418.93,408.99C418.93,405 419.43,403.62 421.7,401.35C423.99,399.07 425.35,398.58 429.43,398.58C433.51,398.58 434.87,399.07 437.16,401.35C439.44,403.63 439.93,405 439.93,409.08C439.93,413.08 439.43,414.53 437.33,416.63C434.53,419.43 428.4,420.69 424.93,419.18ZM426.6,306.42C427.61,305.51 428.43,304.08 428.43,303.25C428.43,300.71 425.28,298.08 422.24,298.08C418.54,298.08 417.58,295.62 420.18,292.78C421.29,291.57 422.48,288.52 422.84,286.01C423.38,282.24 423.13,280.96 421.39,278.76C420.23,277.28 418.51,276.08 417.56,276.08C416.61,276.08 415.4,275.65 414.88,275.13C414.35,274.6 410.56,274.04 406.44,273.88C397.88,273.53 396.58,272.07 400.33,266.99C402.6,263.93 403.11,257.99 401.47,253.69C400.14,250.18 396.75,248.24 389.85,247.04C384.47,246.1 381.78,245.24 377.43,243.11C374.15,241.5 375.31,238.45 381.88,231.35C389.3,223.34 389.82,221.25 385.97,215.14C383.34,210.98 377.62,206.08 375.39,206.08C374.65,206.08 372.86,204.95 371.42,203.57L368.8,201.06L366.11,205.17L363.41,209.28L366.11,211.43C367.59,212.61 369.51,214.12 370.37,214.79C371.23,215.46 372.73,216.03 373.7,216.04C374.67,216.06 375.98,217.19 376.6,218.55C377.59,220.73 377.28,221.56 373.91,225.8C371.82,228.42 368.16,232.61 365.79,235.09C360.13,241.01 359.25,245 362.97,247.93C364.47,249.11 366.32,250.08 367.08,250.08C367.84,250.08 369.24,250.47 370.19,250.96C371.15,251.45 373.28,252.4 374.93,253.08C376.58,253.75 378.62,254.65 379.47,255.07C380.32,255.49 383.38,256.16 386.29,256.56C389.44,256.99 391.8,257.87 392.13,258.73C392.8,260.5 389.76,266.4 386.68,269.31C384.81,271.06 384.43,272.49 384.43,277.68C384.43,283.24 384.72,284.16 387.06,286C390.32,288.57 391.03,288.57 396.19,286.08C401.35,283.59 410.2,283.32 411.09,285.64C411.45,286.57 410.63,288.3 409.06,289.94C407.61,291.45 406.43,293.36 406.43,294.18C406.43,295 405.92,296.18 405.3,296.8C403.86,298.25 404.81,302.02 407.48,305.41C409.42,307.88 410.13,308.08 417.17,308.08C422.84,308.08 425.24,307.66 426.6,306.42ZM481.49,302.23C482.75,301.21 484.95,297.27 486.39,293.48L489.01,286.58L493.69,286.27C497.32,286.04 498.82,285.39 500.4,283.39C501.51,281.97 502.43,280.04 502.43,279.1C502.43,276.68 505.41,274.3 508.93,273.91L511.93,273.58L512.22,265.72C512.45,259.55 512.14,257.29 510.77,255.22L509.01,252.58L508.26,256.93C507.27,262.57 505.93,264.08 501.88,264.08C498.42,264.08 494.43,267.73 494.43,270.88C494.43,273.12 491.43,276.08 489.17,276.08C485.5,276.08 479.8,281.67 478.41,286.64C477.7,289.18 476.06,292.81 474.77,294.71C471.99,298.81 471.9,299.83 474.08,302.25C476.19,304.58 478.6,304.57 481.49,302.23ZM453.02,290.57C459.98,286.95 463.93,283.48 464.25,280.7C464.68,277.06 460.59,269.05 454.62,261.8C446.61,252.08 445.25,250.1 445.68,248.82C445.91,248.14 448.3,246.44 450.99,245.04C453.69,243.65 456.56,241.31 457.38,239.85C458.75,237.41 458.68,236.75 456.54,231.88C453.34,224.64 453.32,222.66 456.43,222.24C459.43,221.83 462.43,219.34 462.43,217.27C462.43,215.41 457.7,209.08 456.31,209.08C454.59,209.08 444.45,199.68 444.44,198.07C444.43,197.24 442.97,196.07 441.18,195.47C439.39,194.87 437.21,194.06 436.32,193.67C435.06,193.12 434.44,193.96 433.43,197.59C432.26,201.76 432.32,202.45 434.03,204.72C435.7,206.92 438.31,208.7 443.36,211.04C445.98,212.26 447.04,214.91 445.67,216.83C444.99,217.79 443.93,219.7 443.33,221.08C442.23,223.59 442.31,223.94 445.7,232.22C446.71,234.68 446.38,235.23 440.61,240.57C432.82,247.78 432.38,250.86 438.25,257.35C452.35,272.93 455.04,278.13 450.03,280.04C447.39,281.04 444.43,284.71 444.43,286.97C444.43,288.78 447.33,292.08 448.93,292.08C449.59,292.08 451.43,291.4 453.02,290.57ZM533.19,291.18C542.7,286.27 552.32,282.06 554.06,282.07C555.23,282.07 556.75,281.39 557.44,280.56C558.14,279.72 560.33,278.29 562.32,277.37C564.3,276.46 567,274.89 568.31,273.89C569.63,272.89 571.69,272.08 572.91,272.08C578.49,272.08 586.43,266.16 586.43,261.99C586.43,258.66 577.46,250.08 573.98,250.08C572.75,250.08 570.92,249.18 569.93,248.08C568.93,246.98 567.28,246.08 566.26,246.08C565.24,246.08 563.62,245.7 562.66,245.23C558.89,243.4 554.11,240.98 549.68,238.66L546.43,236.96L546.41,241.27C546.4,243.64 545.99,246.22 545.49,247.01C544.83,248.06 545.27,248.8 547.12,249.76C548.52,250.48 550.39,251.1 551.29,251.14C554.27,251.24 561.9,255.56 562.24,257.33C562.69,259.68 560.92,259.53 554.94,256.71C545.56,252.29 542.86,251.76 539.72,253.72C538.18,254.68 536.82,255.53 536.68,255.61C536.54,255.68 537.1,257.96 537.92,260.66C539.8,266.88 539.81,269.08 537.96,269.08C537.03,269.08 535.89,267.03 534.89,263.58C534.01,260.55 532.93,258.08 532.5,258.08C531.6,258.08 530.45,268.85 530.44,277.33C530.43,281.99 530.12,283.08 528.79,283.08C527.34,283.08 527.21,281.78 527.65,271.67L528.16,260.26L524.04,259.84C521.78,259.61 519.14,259.07 518.18,258.64C516.57,257.93 516.43,258.76 516.43,268.85C516.43,280.49 517.68,285.48 521.7,289.83C523.91,292.22 529.84,292.91 533.19,291.18ZM515.18,286.83C514.92,286.14 514.11,283.89 513.37,281.83C512.36,279.01 511.47,278.08 509.79,278.08C507.3,278.08 506.98,278.43 506.08,282.2C505.53,284.51 505.89,285 509.19,286.35C513.89,288.28 515.77,288.43 515.18,286.83ZM482.58,274.17C483.91,273.13 486.07,272.12 487.39,271.92C489.06,271.68 490.03,270.69 490.56,268.68C491.76,264.17 496.25,260.08 500,260.08C502.47,260.08 503.33,259.56 503.8,257.83C504.86,253.85 504.47,248.22 502.85,244.17L501.27,240.22L493.1,239.72C475.97,238.69 472.52,237.84 468.81,233.79C464.22,228.79 464.31,225.32 469.15,219.96C471.2,217.7 475.43,214.18 478.57,212.14L484.26,208.44L480.67,206.51C478.69,205.45 475.97,203.71 474.62,202.65C469.68,198.77 465.21,197.09 461.44,197.69C459.44,198.01 456.25,197.85 454.36,197.33C452.47,196.82 450.4,196.57 449.76,196.79C448.48,197.23 456.49,205.08 458.21,205.08C458.8,205.08 460.88,206.96 462.85,209.26C467.79,215.02 467.82,219.65 462.96,223.92C459.51,226.94 459.5,227 460.96,230.49C463.35,236.23 462.85,240.52 459.32,244.54C457.62,246.49 455.65,248.08 454.95,248.08C454.25,248.08 453.22,248.64 452.67,249.33C451.55,250.71 453.36,253.83 459.59,261.23C461.6,263.62 464.31,267.6 465.6,270.07C467.36,273.43 468.7,274.72 470.94,275.2C476.54,276.4 480.16,276.08 482.58,274.17ZM443.43,270.95C443.43,270.32 440.5,266.47 436.93,262.39C430.72,255.31 430.43,254.73 430.43,249.8C430.43,244.87 430.68,244.38 436.02,238.98L441.61,233.33L440.02,230.25C438.03,226.4 437.99,221.44 439.93,217.71C441.82,214.09 441.82,214.08 439.45,214.08C438.36,214.08 435.37,212.07 432.8,209.61L428.14,205.14L428.76,199.22L429.37,193.3L426.08,194.04C424.26,194.45 420.75,195.98 418.27,197.43C414.78,199.47 412.42,200.08 407.92,200.08C402.33,200.08 401.91,199.89 397.85,195.66C393.96,191.59 393.36,191.31 390.28,192.03C385.58,193.13 373.43,198.15 373.43,198.98C373.43,200.25 375.8,202.08 377.45,202.08C379.72,202.08 387.12,208.63 390.01,213.2C391.67,215.84 392.43,218.49 392.43,221.68C392.43,225.98 391.98,226.8 386.36,232.81L380.29,239.29L382.78,240.58C384.15,241.29 387.21,242.18 389.6,242.54C396.81,243.66 399.96,244.98 403,248.15C405.57,250.83 405.94,252.02 406.27,258.67C406.58,264.8 406.33,266.53 404.89,268.12C403.15,270.04 403.24,270.08 409.71,270.08C413.34,270.08 416.59,270.53 416.93,271.08C417.83,272.53 443.43,272.41 443.43,270.95ZM532.95,252.98C543.92,246.78 545.08,241.8 537.8,232.11C531.28,223.45 529.98,222.76 521.73,223.62C513.39,224.48 512.14,225.11 508.4,230.28C504.47,235.7 504.44,240.42 508.28,245.68C511.94,250.68 514.1,252.54 518.43,254.4C523.73,256.69 526.93,256.38 532.95,252.98ZM344.15,244.83C346.29,242.51 347.11,238.44 348.06,225.33L348.59,218.08L344.96,218.08C342.96,218.08 340.03,217.41 338.45,216.59L335.57,215.1L332.88,220.59C330.24,225.98 327.43,227.86 327.43,224.23C327.43,223.21 328.57,220.22 329.97,217.6C332.37,213.09 332.41,212.72 330.81,210.95C328.54,208.43 325.55,208.59 319.02,211.58C316.02,212.95 312.81,214.08 311.89,214.08C310.97,214.08 307.98,215.2 305.24,216.58C299.27,219.57 298.43,219.65 298.43,217.19C298.43,215.04 302.72,212.7 309.47,211.17C311.92,210.61 315.82,209.24 318.13,208.12C320.44,207 323.37,206.08 324.63,206.08C326.77,206.08 326.93,205.67 326.93,200.08C326.93,193.88 326.29,193.12 322.66,194.96C321.11,195.75 318.95,196.68 314.43,198.5C313.6,198.83 311.01,200.19 308.67,201.51C306.32,202.84 303.08,204.21 301.46,204.57C297.67,205.4 292.43,211.34 292.43,214.8C292.43,217.92 295.98,222.08 298.66,222.08C300.82,222.08 310.88,228.64 317.32,234.25C319.73,236.36 322.23,238.08 322.86,238.08C323.49,238.08 325.56,239.41 327.47,241.04C329.37,242.66 331.44,244.01 332.06,244.04C332.68,244.06 333.74,244.75 334.43,245.58C336.33,247.87 341.73,247.45 344.15,244.83ZM502.53,232.23L504.14,228.4L500.03,225.93C497.78,224.57 494.69,222.84 493.18,222.1C490,220.52 489.52,218.08 492.39,218.08C494.52,218.08 503.72,222.84 504.26,224.23C504.78,225.54 506.59,225.24 508.48,223.53C509.88,222.27 510.1,220.79 509.67,215.53C509.23,210.01 509.39,209.08 510.79,209.08C511.85,209.08 512.43,209.92 512.43,211.45C512.43,212.76 512.71,215.23 513.05,216.95C513.72,220.3 515.54,220.8 522.18,219.48C525.05,218.9 525.24,218.54 526.38,211.48C527.27,205.99 527.97,204.08 529.12,204.08C530.41,204.08 530.55,205.02 529.98,209.83C529.61,212.99 529.1,216.3 528.84,217.19C528.53,218.28 529.37,219.22 531.42,220.07C533.1,220.77 535.54,222.61 536.84,224.16C539.19,226.94 539.23,226.95 539.81,224.78C540.14,223.57 540.41,220.8 540.41,218.64C540.43,213.15 542.38,203.1 544.04,199.92C547.29,193.72 543.99,188.08 537.12,188.08C532.93,188.08 525.57,189.85 523.98,191.25C523.46,191.7 522.27,192.08 521.35,192.08C520.43,192.08 519.12,192.74 518.45,193.55C517.78,194.36 515.69,195.31 513.82,195.66C511.94,196.02 510.16,196.7 509.86,197.19C509.56,197.68 508.51,198.08 507.52,198.08C506.54,198.08 504.92,198.98 503.93,200.08C502.93,201.18 501.58,202.08 500.93,202.08C500.27,202.08 498.88,203.03 497.83,204.19C496.79,205.35 495.03,206.71 493.93,207.21C492.83,207.7 490.58,208.99 488.93,210.08C487.28,211.16 485.01,212.46 483.89,212.96C482.76,213.46 481.25,214.59 480.52,215.47C479.78,216.35 478.7,217.08 478.1,217.08C477.5,217.08 475.31,218.74 473.22,220.78C468.85,225.05 468.37,228.32 471.6,231.76C473.34,233.61 474.83,234.08 479.04,234.08C481.94,234.08 484.59,234.53 484.93,235.08C485.27,235.63 489.01,236.07 493.24,236.07L500.93,236.06L502.53,232.23ZM553.8,232.08C557.06,232.08 560.43,229.63 560.43,227.25C560.43,224.12 557.28,222.08 552.52,222.11C547.25,222.15 544.11,224.23 543.06,228.39C542.45,230.83 542.75,231.31 545.65,232.54C547.67,233.4 549.29,233.58 549.88,233C550.4,232.49 552.17,232.08 553.8,232.08ZM351.22,212.18C353.26,211.14 357.07,208.3 359.68,205.86C364.33,201.53 364.43,201.32 364.43,195.39C364.43,188.05 362.58,185.26 355.29,181.6C347.52,177.7 344.93,178.14 339.16,184.33C328.19,196.1 327.74,203.94 337.61,211.1C342.39,214.56 346,214.84 351.22,212.18ZM490.77,202.02C492.21,200.89 494.11,198.3 494.99,196.27C495.87,194.24 497.01,191.8 497.51,190.84C498.02,189.88 498.43,188.29 498.43,187.29C498.43,185.33 502.94,175.54 504.98,173.08C505.66,172.25 506.51,169.33 506.85,166.58C508.73,151.7 508.78,152.64 505.92,149.25C503.53,146.41 502.7,146.08 498.09,146.15C494.85,146.2 491.81,146.93 489.93,148.12C485.06,151.19 480.25,153.14 475.1,154.13C468.4,155.41 468.02,155.86 471.3,158.62C472.88,159.95 474.73,162.4 475.42,164.06C476.84,167.48 477,167.53 480.43,165.58C483.71,163.7 486.43,163.7 486.43,165.58C486.43,166.43 484.24,168.04 481.41,169.28C478.65,170.48 476.53,171.87 476.69,172.37C476.86,172.86 481.14,174.59 486.21,176.22C492.25,178.15 495.43,179.67 495.43,180.62C495.43,182.63 493.71,182.46 484.72,179.59C475.61,176.68 474.43,176.56 474.43,178.58C474.43,179.4 475.12,180.08 475.97,180.08C478.22,180.08 488.43,187.88 488.43,189.61C488.43,192.09 485.59,191.26 480,187.13C474.63,183.16 473.43,182.97 473.43,186.1C473.43,187.04 472.34,189.4 471.01,191.36C468.5,195.06 468.6,196.08 471.47,196.08C472.41,196.08 473.79,196.81 474.54,197.71C476.9,200.56 482.83,203.96 485.54,204.02C486.98,204.05 489.34,203.15 490.77,202.02ZM323.37,188.86C322.3,188.46 321.43,187.5 321.43,186.73C321.43,185.26 327.55,180.08 329.29,180.08C330.69,180.08 334.43,175.12 334.43,173.27C334.43,171.26 331.51,168.08 329.67,168.08C328.01,168.08 322.87,171.93 313.18,180.44C307.64,185.3 306.43,186.91 306.43,189.39C306.43,191.06 307.13,193.19 307.98,194.13C309.44,195.74 310.01,195.66 317.42,192.71C323.57,190.27 324.89,189.42 323.37,188.86ZM371.19,195.23C372.15,194.77 373.93,193.87 375.16,193.23C376.4,192.6 377.88,192.08 378.46,192.08C379.05,192.08 381.39,191.18 383.66,190.08C385.94,188.98 388.7,188.08 389.8,188.08C393.45,188.08 396.43,184.18 396.43,179.41C396.43,174.09 393.69,170.8 378.32,157.65C367.2,148.13 360.8,144.08 356.91,144.08C354.04,144.08 348.43,148.64 348.43,150.97C348.43,151.91 348.05,153.1 347.6,153.63C346.19,155.24 344.43,162.6 344.43,166.88C344.43,169.12 344.03,171.99 343.55,173.26C342.7,175.49 342.85,175.58 347.8,175.61C350.62,175.62 353.72,176.01 354.68,176.46C356.13,177.15 356.43,176.8 356.44,174.43C356.46,168.68 357.67,164.08 359.16,164.08C360.38,164.08 360.51,165.26 359.93,171.02C359.55,174.83 359.54,178.45 359.91,179.04C360.33,179.73 362.96,178.46 367.05,175.6C370.61,173.11 374.21,171.08 375.05,171.08C378.16,171.08 375.78,174.62 370.19,178.32L364.47,182.1L366.45,185.34C367.53,187.12 368.42,190.26 368.42,192.33C368.43,196.37 368.56,196.51 371.19,195.23ZM416.55,194.33C420.64,191.34 423.32,190.08 425.59,190.08C429.93,190.08 431.14,187.74 430,181.55C429.09,176.6 428.75,176.03 426.95,176.58C423.8,177.54 414.01,180 413.18,180.04C412.77,180.06 412.43,179.22 412.43,178.16C412.43,176.69 413.41,176.09 416.68,175.54C419.02,175.16 423.29,173.96 426.18,172.89C430.52,171.27 431.43,170.52 431.43,168.52C431.43,166.69 430.55,165.74 427.81,164.59C425.81,163.76 423.15,163.08 421.89,163.08C418.51,163.08 416.43,162.06 416.43,160.4C416.43,159.2 417.46,159.06 422.07,159.64C425.17,160.03 428.77,160.89 430.06,161.56C432.17,162.65 432.79,162.41 436.22,159.18L440.04,155.58L436.48,152.7C434.53,151.12 431.5,149.21 429.75,148.46C428,147.72 426.31,146.7 426.01,146.2C424.98,144.55 415.51,140.08 413.02,140.08C411.68,140.08 409.2,141.24 407.51,142.67C404.93,144.83 404.43,145.97 404.43,149.65C404.43,153.97 402.95,161.64 401.35,165.58C400.91,166.68 400.29,170.73 399.99,174.58C399.69,178.43 399.16,183.75 398.83,186.4C398.3,190.53 398.54,191.57 400.5,193.65C402.39,195.67 403.74,196.08 408.47,196.08C412.31,196.08 414.94,195.51 416.55,194.33ZM465.94,190.77C468.47,188.23 469.39,186.3 469.87,182.52C470.2,179.8 470.92,176.19 471.46,174.51C473.21,168.97 472.64,166.08 469.07,162.51L465.7,159.15L453.82,159.27L441.93,159.38L438.68,162.63C436.71,164.6 435.43,166.88 435.43,168.43C435.43,169.83 434.92,172.09 434.3,173.45C432.38,177.67 434.1,184.95 437.92,188.77C440.71,191.56 441.99,192.09 446.08,192.18C448.75,192.23 452.05,192.64 453.43,193.08C458.99,194.86 462.49,194.21 465.94,190.77ZM335.48,182.85C337.1,181.08 338.43,179.04 338.43,178.32C338.43,177.6 337.03,178.6 335.32,180.54C333.62,182.49 331.62,184.08 330.88,184.08C330.15,184.08 329.27,184.53 328.93,185.08C327.38,187.59 332.86,185.73 335.48,182.85ZM447.71,144.17C449.79,143.02 452.58,142.08 453.91,142.08C455.24,142.08 457.59,141.54 459.13,140.88C465.53,138.15 467.05,134.85 463.43,131.57C461.69,130 460.91,129.92 457.56,130.92C455.44,131.56 452.73,132.08 451.55,132.08C449.6,132.08 447.74,132.8 443.43,135.23C442.6,135.7 441.03,136.48 439.93,136.98C437.27,138.17 431.91,143.89 432.7,144.69C433.05,145.03 434.82,146.34 436.63,147.6C439.82,149.81 439.99,149.83 441.93,148.08C443.03,147.09 445.63,145.33 447.71,144.17Z" style="fill-rule:nonzero;"/>
        </g>
        <path id="path4330" d="M377.83,374.68C339.62,392.97 299.5,425.34 282.42,469.44C282.44,486.52 287.91,499.58 297.08,515.15C306.11,530.49 327.31,536.45 361.98,533.63C406.02,530.05 455.54,502.01 455.54,502.01C390.85,454.42 387.43,428.43 377.83,374.68Z" style="stroke:black;stroke-width:0.57px;"/>
        <path id="path4332" d="M378.09,377.1C340.92,394.89 301.88,426.39 285.26,469.3C285.28,485.92 290.61,498.62 299.53,513.77C308.32,528.69 328.94,534.5 362.68,531.75C405.52,528.27 449.74,500.95 449.74,500.95C382.25,456.62 381.2,418.46 378.09,377.1Z" style="fill:rgb(219,149,149);stroke:black;stroke-width:0.55px;"/>
    </g>
    <defs>
        <radialGradient id="_Radial1" cx="0" cy="0" r="1" gradientUnits="userSpaceOnUse" gradientTransform="matrix(52.143,0,0,52.143,119.29,400.22)"><stop offset="0" style="stop-color:rgb(218,171,155);stop-opacity:1"/><stop offset="1" style="stop-color:rgb(218,171,155);stop-opacity:0"/></radialGradient>
        <radialGradient id="_Radial2" cx="0" cy="0" r="1" gradientUnits="userSpaceOnUse" gradientTransform="matrix(52.143,0,0,52.143,119.29,400.22)"><stop offset="0" style="stop-color:rgb(218,171,155);stop-opacity:1"/><stop offset="1" style="stop-color:rgb(218,171,155);stop-opacity:0"/></radialGradient>
    </defs>
</svg>
