<?xml version="1.0" encoding="UTF-8" standalone="no"?>
<!DOCTYPE svg PUBLIC "-//W3C//DTD SVG 1.1//EN" "http://www.w3.org/Graphics/SVG/1.1/DTD/svg11.dtd">
<svg width="100%" height="100%" viewBox="0 0 823 550" version="1.1" xmlns="http://www.w3.org/2000/svg" xmlns:xlink="http://www.w3.org/1999/xlink" xml:space="preserve" xmlns:serif="http://www.serif.com/" style="fill-rule:evenodd;clip-rule:evenodd;stroke-linecap:square;stroke-miterlimit:10;">
    <g transform="matrix(2.1024,0,0,2.72233,-451.823,-885.493)">
        <path d="M379.007,417.148L288.418,417.148C277.93,417.148 266.434,423.6 269.882,437.396C273.855,453.287 300.321,447.146 311.785,447.146L372.285,447.146C385.319,447.146 379.007,427.995 379.007,417.148Z" style="fill:white;stroke:black;stroke-width:1px;"/>
    </g>
    <g transform="matrix(2.1024,0,0,2.72233,-451.823,-885.493)">
        <path d="M350.507,447.146L374.554,447.146C382.411,447.146 379.007,439.057 379.007,432.147C379.007,410.256 369.523,417.148 349.007,417.148C349.507,427.147 350.007,437.147 350.507,447.146Z" style="fill:rgb(6,21,109);stroke:black;stroke-width:1px;"/>
    </g>
    <g transform="matrix(2.1024,0,0,2.72233,-451.823,-885.493)">
        <path d="M352.757,446.396C371.085,441.356 394.899,438.902 412.007,430.646C427.355,423.24 436.932,405.826 451.757,396.148C461.93,389.507 476.067,389.039 478.382,375.148C480.765,360.852 511.036,388.405 516.257,392.398C493.61,388.898 479.213,394.283 462.227,407.872C453.036,415.226 441.854,423.001 435.257,432.896C431.558,438.444 430.493,447.116 425.507,451.271C410.687,463.622 376.614,468.268 358.007,468.896C331.856,469.779 336.008,460.174 352.757,446.396Z" style="stroke:black;stroke-width:1px;"/>
    </g>
    <g transform="matrix(2.1024,0,0,2.72233,-451.823,-885.493)">
        <path d="M344.507,461.396C369.111,455.527 406.87,441.174 432.257,447.521C440.614,449.61 464.397,437.116 475.007,435.896C484.978,434.75 510.169,441.509 510.257,426.896C524.007,433.146 537.757,439.396 551.507,445.646C516.226,446.575 476.743,448.048 444.257,462.896C410.11,478.502 373.462,490.61 337.007,501.146C339.507,487.896 342.007,474.646 344.507,461.396Z" style="stroke:black;stroke-width:1px;"/>
    </g>
    <g transform="matrix(2.1024,0,0,2.72233,-451.823,-885.493)">
        <path d="M603.257,419.398C594.868,437.464 610.983,441.708 586.007,445.646C558.967,449.911 534.098,450.398 510.67,436.173C504.64,432.512 503.708,426.051 510.257,423.146C515.598,420.776 528.747,430.309 534.34,432.173C563.661,441.948 579.148,428.15 603.257,419.398Z" style="fill:rgb(255,0,0);stroke:black;stroke-width:1px;"/>
    </g>
    <g transform="matrix(2.1024,0,0,2.72233,-451.823,-885.493)">
        <path d="M574.007,365.398C564.382,383.783 582.696,388.406 554.882,391.882C525.472,395.558 503.861,395.8 478.42,380.354C474.17,377.774 476.38,369.148 481.382,369.148C489.365,369.148 497.455,375.631 505.09,378.176C534.613,388.017 549.655,374.245 574.007,365.398Z" style="fill:rgb(255,0,0);stroke:black;stroke-width:1px;"/>
    </g>
    <g transform="matrix(2.1024,0,0,2.72233,-451.823,-885.493)">
        <path d="M256.007,472.646C262.663,501.45 293.989,504.918 318.924,502.84C332.148,501.738 355.385,504.156 351.422,488.302C348.173,475.305 342.856,458.872 347.508,445.646C327.524,448.673 250.643,436.431 256.007,472.646Z" style="fill:rgb(255,0,0);"/>
    </g>
    <g transform="matrix(2.1024,0,0,2.72233,-451.823,-885.493)">
        <path d="M256.007,472.646C262.663,501.45 293.989,504.918 318.924,502.84C332.148,501.738 355.385,504.156 351.422,488.302C348.173,475.305 342.856,458.872 347.508,445.646C327.396,448.693 251.903,436.417 256.008,471.896" style="fill:none;fill-rule:nonzero;stroke:black;stroke-width:1px;"/>
    </g>
    <g transform="matrix(2.1024,0,0,2.72233,-451.823,-885.493)">
        <path d="M227.507,451.646C223.862,434.793 247.512,428.889 258.257,427.646C269.616,426.333 286.456,436.421 283.007,450.146C280.011,462.069 270.708,481.652 266.132,458.771C260.317,429.695 244.745,453.253 232.757,465.146C229.559,461.261 227.768,456.661 227.507,451.646Z" style="stroke:black;stroke-width:1px;"/>
    </g>
    <g transform="matrix(2.1024,0,0,2.72233,-451.823,-885.493)">
        <path d="M274.757,464.396C274.383,486.403 235.158,485.916 235.007,464.396C234.851,442.206 275.019,441.895 274.757,464.396Z" style="fill:rgb(242,191,145);stroke:black;stroke-width:1px;"/>
    </g>
    <g transform="matrix(2.1024,0,0,2.72233,-451.823,-885.493)">
        <path d="M257.507,443.396C251.751,444.819 234.624,451.677 233.132,457.646C231.606,463.75 236.236,478.167 244.382,470.021C246.92,467.483 246.38,462.329 249.257,460.646C252.563,458.712 256.883,463.543 259.757,460.646C265.227,455.13 267.739,445.578 257.507,443.396Z" style="fill:white;stroke:black;stroke-width:1px;"/>
    </g>
    <g transform="matrix(2.1024,0,0,2.72233,-451.823,-885.493)">
        <path d="M265.007,477.896C263.251,488.923 246.392,489.655 246.257,477.896C246.124,466.349 263.473,466.666 265.007,477.896Z" style="stroke:black;stroke-width:1px;"/>
    </g>
    <g transform="matrix(2.1024,0,0,2.72233,-451.823,-885.493)">
        <path d="M259.757,481.646C250.277,501.911 248.712,462.275 259.757,481.646Z" style="fill:rgb(71,71,70);stroke:black;stroke-width:1px;"/>
    </g>
    <g transform="matrix(2.1024,0,0,2.72233,-451.823,-885.493)">
        <path d="M365.507,492.146C370.987,490.785 383.271,492.334 373.757,498.896C366.761,503.721 356.125,501.711 365.507,492.146Z" style="fill:rgb(242,191,145);stroke:black;stroke-width:1px;"/>
    </g>
    <g transform="matrix(2.1024,0,0,2.72233,-451.823,-885.493)">
        <path d="M258.257,488.396C256.065,493.841 245.692,497.011 245.507,488.396C245.322,479.762 256.102,482.152 258.257,488.396Z" style="stroke:black;stroke-width:1px;"/>
    </g>
    <g transform="matrix(2.1024,0,0,2.72233,-451.823,-885.493)">
        <path d="M313.007,445.646C311.048,438.147 312.257,426.07 312.257,417.148C294.838,418.981 298.007,420.377 298.007,437.617C298.007,446.56 298.298,450.402 300.736,459.791C304.361,473.749 307.987,487.707 311.612,501.665C313.086,507.339 333.682,501.766 339.257,501.146C330.507,482.646 321.757,464.146 313.007,445.646Z" style="fill:rgb(6,21,109);stroke:black;stroke-width:1px;"/>
    </g>
    <g transform="matrix(2.1024,0,0,2.72233,-451.823,-885.493)">
        <path d="M289.757,447.896C312.597,447.896 331.374,444.512 348.632,461.771C353.611,466.75 370.988,485.141 370.007,491.396C367.488,507.446 355.824,495.57 351.851,490.364C333.804,466.716 326.171,465.255 296.132,467.021C281.441,467.885 272.659,449.188 289.757,447.896Z" style="fill:rgb(255,0,0);stroke:black;stroke-width:1px;"/>
    </g>
    <g transform="matrix(2.1024,0,0,2.72233,-451.823,-885.493)">
        <path d="M235.007,417.898C232.712,427.2 218.301,428.981 217.757,417.898C217.201,406.581 233.37,407.509 235.007,417.898Z" style="fill:white;stroke:black;stroke-width:0.5px;"/>
    </g>
    <g transform="matrix(2.1024,0,0,2.72233,-451.823,-885.493)">
        <path d="M256.757,384.148C255.654,397.351 236.507,397.798 236.507,384.148C236.507,370.498 255.654,370.945 256.757,384.148Z" style="fill:white;stroke:black;stroke-width:0.5px;"/>
    </g>
    <g transform="matrix(2.1024,0,0,2.72233,-451.823,-885.493)">
        <path d="M241.007,354.148C240.882,368.932 218.507,368.947 218.507,354.148C218.507,339.153 240.88,339.167 241.007,354.148Z" style="fill:white;stroke:black;stroke-width:0.5px;"/>
    </g>
    <g transform="matrix(2.1024,0,0,2.72233,-451.823,-885.493)">
        <path d="M278.507,347.398C276.549,357.036 261.257,358.528 261.257,347.398C261.257,336.268 276.549,337.76 278.507,347.398Z" style="fill:white;stroke:black;stroke-width:0.5px;"/>
    </g>
</svg>
