<?xml version="1.0" encoding="UTF-8" standalone="no"?>
<!DOCTYPE svg PUBLIC "-//W3C//DTD SVG 1.1//EN" "http://www.w3.org/Graphics/SVG/1.1/DTD/svg11.dtd">
<svg width="100%" height="100%" viewBox="0 0 500 842" version="1.1" xmlns="http://www.w3.org/2000/svg" xmlns:xlink="http://www.w3.org/1999/xlink" xml:space="preserve" xmlns:serif="http://www.serif.com/" style="fill-rule:evenodd;clip-rule:evenodd;stroke-linejoin:round;stroke-miterlimit:2;">
    <g transform="matrix(0.399179,0,0,0.532947,94.4512,193.213)">
        <path d="M73.145,-348.901C111.98,-344.876 132.219,-306.688 157.168,-279.672C195.752,-237.891 231.896,-209.195 287.848,-194.137C310.457,-188.053 333.381,-180.627 352.217,-191.438C371.247,-202.36 380.652,-224.32 402.867,-233.018C425.357,-241.823 432.424,-207.918 445.096,-220.597C458.832,-234.34 475.045,-258.899 494.992,-264.014C527.533,-272.359 536.419,-238.075 537.221,-210.662C537.659,-195.666 535.946,-180.975 533.764,-166.166C529.33,-136.079 537.065,-130.408 556.492,-104.593C605.916,-38.915 638.413,27.837 643.598,111.611C645.842,147.87 641.952,184.398 634.203,219.827C628.737,244.819 614.083,275.982 618.113,300.394C625.122,342.852 647.619,383.096 652.672,427.619C657.517,470.308 655.312,513.759 650.727,556.355C648.81,574.167 648.069,601.957 636.905,617.048C610.412,652.86 602.53,611.832 590.251,590.048C577.699,567.781 561.447,555.693 536.896,548.146C529.017,545.724 472.347,533.371 467.994,541.451C453.136,569.033 641.014,633.096 496.937,629.363C469.974,628.665 431.198,614.134 416.371,638.867C409.259,650.73 410.028,676.157 410.322,689.627C411.34,736.188 426.98,785.067 448.985,825.924C460.722,847.716 477.888,870.403 498.232,884.891C520.492,900.743 525.144,896.049 538.951,873.443C569.334,823.697 599.824,780.157 644.573,741.576C723.072,673.896 823.628,614.382 927.75,597.936C940.656,595.898 967.696,585.604 979.914,593.077C1009.75,611.325 960.862,629.163 944.922,637.895C874.36,676.548 812.082,726.166 767.154,793.631C723.947,858.512 699.18,936.143 696.414,1014.06C694.102,1079.16 730.262,1130.64 736.697,1192.48C692.35,1186.85 653.82,1167 615.736,1144.74C593.377,1131.67 569.711,1119.88 553.747,1098.84C535.218,1074.42 528.33,1036.48 500.611,1029.4C476.893,1023.33 446.838,1028.42 421.879,1024.1C399.945,1020.31 378.412,1013.8 356.971,1007.8C318.513,997.025 279.772,985.058 243.354,968.484C32.399,872.476 -3.276,655.334 36.424,449.22C-14.877,441.986 -69.299,430.085 -112.617,400.187C-133.453,385.806 -156.783,364.021 -163.808,338.626C-174.043,301.628 -144.443,320.307 -114.343,322.21C-52.159,326.142 47.388,329.026 104.68,300.825C124.13,291.251 138.822,267.607 154.035,250.605C172.597,229.861 157.635,218.828 169.695,198.008C177.447,184.626 188.569,194.455 190.972,176.841C192.431,166.145 194.067,155.412 197.343,145.088C200.133,136.297 206.669,127.303 208.792,118.738C211.471,107.93 210.798,96.717 210.416,84.679C210.148,76.26 199.953,83.75 194.751,81.152C184.126,75.845 175.927,83.365 167.968,70.568C163.56,63.481 172.109,52.174 167.751,43.892C157.077,23.606 142.727,4.721 130.6,-14.749C75.778,-102.768 37.275,-189.932 50.248,-296.847C52.488,-315.308 55.048,-339.569 73.145,-348.901Z"/>
    </g>
    <g transform="matrix(0.399179,0,0,0.532947,94.4512,193.213)">
        <path d="M73.145,-338.534C114.066,-336.86 152.01,-264.432 180.497,-237.878C227.953,-193.64 293.227,-177.182 356.104,-170.054C363.849,-169.176 397.098,-171.548 401.897,-166.599C406.563,-161.787 397.546,-159.323 398.872,-152.992C404.629,-125.496 385.804,-106.554 417.773,-97.155C429.898,-93.591 453.237,-83.951 465.618,-87.326C485.097,-92.636 493.911,-125.038 498.448,-144.135C512.214,-202.076 441.85,-162.468 412.481,-150.184C424.75,-182.851 506.713,-305.805 525.881,-224.704C532.264,-197.7 524.138,-166.57 517.998,-140.249C514.889,-126.918 511.011,-113.753 507.195,-100.612C499.799,-75.145 534.207,-125.925 525.447,-123.184C546.741,-129.848 606.918,-6.32 612.387,9.657C633.378,70.969 640.1,133.16 628.48,197.037C606.267,319.14 539.801,409.192 473.931,510.561C454.926,539.809 445.843,525.041 423.71,503.431C405.384,485.537 388.919,465.789 373.274,445.543C358.836,426.857 347.644,400.583 331.045,384.2C299.739,353.301 321.546,393.919 334.286,413.036C387.529,492.928 459.765,561.803 538.623,616.182C506.638,625.857 458.308,617.306 424.572,614.887C390.069,612.413 345.539,613.928 313.658,598.903C303.745,594.231 301.112,573.127 295.406,570.825C278.525,564.014 288.529,588.806 294.326,596.745C315.721,626.044 375.295,621.701 408.158,625.903C392.313,688.685 404.345,759.006 432.349,816.632C445.405,843.497 491.907,923.145 528.685,903.896C550.436,892.512 565.197,846.75 578.366,827.541C601.327,794.047 628.995,766.326 660.445,740.816C714.424,697.035 769.711,662.917 833.894,636.488C870.858,621.267 939.824,592.602 978.181,604.738C846.661,672.688 726.963,783.958 696.109,934.12C688.625,970.543 686.58,1006.04 686.58,1043.11C686.58,1090.24 711.689,1134.06 723.303,1178.87C684.727,1175.01 647.899,1151.58 615.084,1132.64C592.239,1119.46 569.979,1106.75 555.688,1083.72C541.963,1061.6 533.897,1024.54 510.327,1017.3C496.917,1013.18 474.447,1019.29 459.675,1017.73C434.867,1015.11 411.821,1010.75 387.423,1004.55C299.758,982.279 210.885,951.843 141.4,891.8C53.68,816.001 27.907,682.658 28.217,571.906C28.381,513.315 42.188,454.071 65.584,400.402C76.01,376.486 88.698,353.809 102.196,331.499C112.147,315.052 124.285,299.522 136.54,284.734C146.841,272.303 176.591,249.963 180.496,234.947C183.255,224.337 167.663,213.721 178.336,203.627C189.283,193.273 201.086,206.034 210.088,212.482C233.196,229.034 250.543,253.184 274.24,269.291C297.296,284.961 322.459,298.166 341.307,271.774C360.062,245.513 372.119,215.378 381.591,184.619C392.424,149.439 398.458,113.175 402.111,76.619C404.877,48.932 395.505,0.042 411.183,-17.99C415.267,-22.687 435.933,-21.277 436.023,-31.166C436.133,-43.328 412.65,-29.109 406.648,-29.437C394.445,-30.105 386.351,-31.697 379.107,-42.073C364.251,-63.351 374.656,-29.989 374.679,-30.086C374.151,-27.834 382.855,-24.391 382.456,-22.094C381.683,-17.64 371.79,-12.31 369.061,-8.701C361.521,1.268 347.223,9.501 336.987,16.463C314.821,31.54 290.521,43.066 265.382,52.211C249.697,57.917 204.058,79.057 188.054,70.787C175.251,64.172 174.017,33.225 163.431,16.355C103.815,-78.647 53.149,-164.031 58.889,-279.782C59.89,-299.974 61.343,-321.89 73.145,-338.534Z" style="fill:rgb(153,204,204);"/>
    </g>
    <g transform="matrix(0.399179,0,0,0.532947,94.4512,193.213)">
        <path d="M86.535,-309.59C106.26,-309.662 93.559,-272.079 89.344,-271.789C78.535,-271.047 84.245,-305.236 86.535,-309.59Z"/>
    </g>
    <g transform="matrix(0.399179,0,0,0.532947,94.4512,193.213)">
        <path d="M410.32,-225.133C429.769,-220.313 429.377,-204.588 420.472,-191.113C407.937,-172.144 379.383,-176.771 358.046,-182.797C366.925,-199.259 392.095,-220.348 410.32,-225.133Z" style="fill:rgb(153,204,204);"/>
    </g>
    <g transform="matrix(0.399179,0,0,0.532947,94.4512,193.213)">
        <path d="M475.551,-162.061C498.42,-164.543 484.574,-126.563 475.551,-114.541C461.08,-95.264 449.484,-98.853 426.412,-106.981C374.723,-125.191 454.04,-156.448 475.551,-162.061Z" style="fill:white;"/>
    </g>
    <g transform="matrix(0.399179,0,0,0.532947,94.4512,193.213)">
        <path d="M418.959,-135.495C445.655,-119.009 403.456,-105.697 418.959,-135.495Z"/>
    </g>
    <g transform="matrix(0.399179,0,0,0.532947,94.4512,193.213)">
        <path d="M390.232,-11.293C406.029,24.712 380.816,4.006 362.152,12.252C371.144,4.574 381.943,-4.782 390.232,-11.293Z" style="fill:rgb(204,51,102);"/>
    </g>
    <g transform="matrix(0.399179,0,0,0.532947,94.4512,193.213)">
        <path d="M375.111,21.322C418.731,24.621 375.904,97.981 362.8,113.338C352.527,84.076 327.355,31.795 375.111,21.322Z" style="fill:rgb(255,255,153);"/>
    </g>
    <g transform="matrix(0.399179,0,0,0.532947,94.4512,193.213)">
        <path d="M346.6,23.914C344.26,30.028 338.789,35.706 335.153,41.195C328.011,32.948 336.542,26.822 346.6,23.914Z" style="fill:rgb(204,51,102);"/>
    </g>
    <g transform="matrix(0.399179,0,0,0.532947,94.4512,193.213)">
        <path d="M319.816,41.195C328.445,61.919 317.208,81.711 308.584,100.379C299.231,120.623 299.778,135.51 285.688,117.875C257.116,82.116 283.826,49.731 319.816,41.195Z" style="fill:rgb(255,255,153);"/>
    </g>
    <g transform="matrix(0.399179,0,0,0.532947,94.4512,193.213)">
        <path d="M259.336,66.898C263.963,87.483 243.871,115.715 232.119,133.642C206.641,91.736 218.125,77.821 259.336,66.898Z" style="fill:rgb(255,255,153);"/>
    </g>
    <g transform="matrix(0.399179,0,0,0.532947,94.4512,193.213)">
        <path d="M335.152,70.355C346.289,97.344 367.715,212.092 315.496,210.755C257.084,209.26 324.31,90.327 335.152,70.355Z" style="fill:rgb(255,255,153);"/>
    </g>
    <g transform="matrix(0.399179,0,0,0.532947,94.4512,193.213)">
        <path d="M389.367,94.115C385.995,124.627 380.663,155.069 371.439,184.402C368.483,193.8 357.91,229.463 347.248,204.923C335.846,178.682 376.783,113.475 389.367,94.115Z" style="fill:rgb(255,255,153);"/>
    </g>
    <g transform="matrix(0.399179,0,0,0.532947,94.4512,193.213)">
        <path d="M266.465,99.947C275.259,117.551 300.552,246.764 246.375,210.97C213.54,189.277 252.091,119.67 266.465,99.947Z" style="fill:rgb(255,255,153);"/>
    </g>
    <g transform="matrix(0.399179,0,0,0.532947,94.4512,193.213)">
        <path d="M215.273,129.755C224.766,146.322 225.986,161.928 224.992,180.732C224.18,196.077 218.897,229.735 201.232,189.371C194.75,174.557 207.373,141.168 215.273,129.755Z" style="fill:rgb(255,255,153);"/>
    </g>
    <g transform="matrix(0.399179,0,0,0.532947,94.4512,193.213)">
        <path d="M287.631,212.267C305.931,229.592 319.142,214.932 336.447,218.962C361.165,224.719 350.62,250.79 331.912,265.833C304.092,288.203 263.668,249.148 242.703,225.657C260.832,229.144 275.365,225.106 287.631,212.267Z" style="fill:rgb(204,51,102);"/>
    </g>
    <g transform="matrix(0.399179,0,0,0.532947,94.4512,193.213)">
        <path d="M392.607,288.732C421.419,303.256 453.23,309.315 485.272,310.655C500.844,311.306 516.894,310.639 532.36,308.71C541.572,307.561 570.866,305.984 551.582,316.379C526.72,329.781 377.62,310.539 392.607,288.732Z"/>
    </g>
    <g transform="matrix(0.399179,0,0,0.532947,94.4512,193.213)">
        <path d="M101.008,312.275C82.277,345.591 67.253,387.732 46.145,420.058C34.147,438.432 33.926,438.415 10.29,434.314C-4.603,431.73 -19.161,427.907 -33.451,422.759C-86.055,403.81 -133.205,383.355 -155.384,328.259C-72.449,342.954 19.187,329.61 101.008,312.275Z" style="fill:rgb(153,204,204);"/>
    </g>
    <g transform="matrix(0.399179,0,0,0.532947,94.4512,193.213)">
        <path d="M609.904,312.275C632.629,350.565 640.712,407.184 642.951,451.81C645.076,494.165 652.117,564.994 630.424,603.441C619.022,623.65 615.236,623.042 607.203,600.741C601.181,584.021 591.225,567.048 577.504,555.49C549.709,532.079 512.312,532.334 478.361,527.197C501.969,489.495 527.745,453.256 552.123,416.063C573.285,383.776 587.093,341.555 609.904,312.275Z" style="fill:rgb(153,204,204);"/>
    </g>
    <g transform="matrix(0.399179,0,0,0.532947,94.4512,193.213)">
        <path d="M376.408,327.611C411.525,349.471 453.997,361.565 495.424,357.419C500.513,356.91 537.322,346.118 535.817,355.691C534.671,362.973 504.237,366.809 498.231,367.57C482.818,369.524 355.76,354.564 376.408,327.611Z"/>
    </g>
    <g transform="matrix(0.399179,0,0,0.532947,94.4512,193.213)">
        <path d="M355.672,369.732C375.293,393.632 410.724,403.345 440.344,405.586C457.622,406.893 475.591,405.327 492.617,402.346C496.615,401.646 537.369,389.895 523.935,405.155C491.083,442.472 334.796,390.161 355.672,369.732Z"/>
    </g>
</svg>
