<?xml version="1.0" encoding="UTF-8" standalone="no"?>
<!DOCTYPE svg PUBLIC "-//W3C//DTD SVG 1.1//EN" "http://www.w3.org/Graphics/SVG/1.1/DTD/svg11.dtd">
<svg width="100%" height="100%" viewBox="0 0 492 481" version="1.1" xmlns="http://www.w3.org/2000/svg" xmlns:xlink="http://www.w3.org/1999/xlink" xml:space="preserve" xmlns:serif="http://www.serif.com/" style="fill-rule:evenodd;clip-rule:evenodd;stroke-miterlimit:10;">
    <g id="g5" transform="matrix(0.976688,-0.214664,0.214664,0.976688,-1.11363,1.12352)">
        <path id="path7" d="M28.562,76.31L37.49,90.602L46.166,103.492L46.058,105.042L49.37,109.502L50.63,109.642L65.965,132.362C65.066,133.402 64.814,134.382 65.066,135.562C65.282,136.642 66.145,137.802 67.513,139.022C67.189,139.602 67.621,140.782 68.665,142.732C69.709,144.492 71.689,147.052 73.777,150.401C75.757,153.741 78.097,157.881 80.797,162.961C80.797,163.931 81.049,164.871 81.553,165.771C82.021,166.671 82.741,167.391 83.713,168.221L89.221,177.541C88.753,179.701 88.717,181.141 88.969,182.261C89.185,183.301 89.833,183.771 90.769,183.801C90.769,184.741 90.805,185.641 91.273,186.361C91.561,187.041 92.281,187.551 93.037,188.021L101.859,200.901C101.459,202.161 101.459,203.321 101.859,203.961C102.179,204.721 103.049,204.971 104.159,205.121L110.819,213.941C110.789,215.741 111.039,216.921 111.579,217.791C112.119,218.541 112.839,218.831 113.879,218.651L118.849,224.561C118.599,226.361 118.779,227.541 119.249,228.521C119.709,229.381 120.609,229.851 121.799,229.921L126.909,237.411C126.809,239.101 127.019,240.761 127.169,242.521C127.269,244.361 127.709,246.191 128.069,247.881C128.389,249.401 128.859,250.301 129.469,251.701C129.939,253.031 130.949,254.581 131.229,255.801C131.449,256.921 131.409,257.681 130.979,258.221C129.829,258.541 129.149,259.011 129.219,259.761C129.179,260.381 130.049,261.741 130.979,262.461C131.809,263.041 133.429,263.831 134.189,263.721C134.829,263.511 135.089,262.501 135.089,261.821C135.049,261.171 134.619,260.341 133.929,259.621C134.009,258.141 133.789,256.741 133.429,255.411C132.889,253.971 132.029,253.071 131.379,251.591C130.589,250.011 130.079,248.241 129.719,246.591C129.399,244.901 129.399,243.241 129.579,241.621L131.629,244.431C131.559,245.581 131.769,246.951 132.129,248.141C132.489,249.251 132.999,250.441 133.789,251.841C134.549,253.281 135.769,255.081 136.489,256.561C137.029,257.861 137.139,258.651 137.249,259.911C137.209,261.021 136.989,262.211 136.599,263.471C135.809,263.261 135.299,263.291 135.089,263.981C134.829,264.481 134.689,266.101 135.339,267.041C135.909,268.011 137.889,269.051 138.789,269.341C139.589,269.451 140.089,268.481 140.309,267.941C140.409,267.321 140.159,266.421 139.549,265.521C140.129,265.421 140.409,264.951 140.559,264.121C140.629,263.221 140.409,262.071 140.049,260.521C141.129,261.641 142.029,263.001 142.749,264.621C143.439,266.281 143.939,267.971 144.269,270.101C142.539,269.381 141.569,269.341 141.209,269.991C140.849,270.531 141.239,272.721 142.109,273.801C142.829,274.811 144.009,275.531 145.669,276.111C145.239,277.841 145.419,279.201 146.069,280.071C146.709,280.86 147.869,280.97 149.519,281.22C151.179,281.36 153.079,281.51 155.639,281.36L161.649,289.93C161.259,290.87 161.259,291.62 161.799,292.34C162.269,292.99 163.239,293.46 164.719,293.89C165.509,295.26 166.869,297.42 168.819,300.37C170.729,303.36 173.139,306.92 176.199,311.46C175.799,312.94 175.799,313.91 176.199,314.66C176.519,315.35 177.389,315.64 178.499,315.67L187.969,329.5C187.289,330.76 187.249,331.51 187.579,332.05C187.969,332.45 188.729,332.63 190.129,332.3C191.279,334.28 192.399,335.69 193.339,336.37C194.239,337.06 195.139,336.73 195.749,336.37C196.288,335.87 196.678,335.15 196.788,333.81C196.608,334 196.858,334.25 197.148,334.71C197.548,335.15 197.978,335.65 198.838,336.37L198.448,337.77C196.218,338.31 194.379,339.18 192.939,339.97C191.279,340.76 190.279,341.55 189.629,342.78C189.019,343.93 188.979,345.44 189.519,346.74C189.879,347.78 191.139,349.26 192.329,349.66C193.479,350.05 194.879,349.84 196.538,349.15C196.068,349.8 196.068,350.45 196.538,350.8C196.938,351.17 197.868,351.38 199.198,351.45C197.728,353.68 196.828,355.56 196.898,357.07C196.858,358.58 197.868,359.59 199.098,360.38C200.248,361.14 201.868,361.39 203.958,361.43C205.788,363.01 207.478,363.91 209.178,363.98C210.828,363.98 212.448,363.3 214.038,361.79C215.658,363.87 217.018,365.24 217.998,366.29C218.928,367.29 219.618,367.58 219.898,367.55C218.678,368.77 217.738,369.89 217.098,370.75C216.298,371.61 215.728,372.34 215.938,372.91C216.118,373.49 217.018,373.77 218.498,374.06C218.278,376.04 218.718,377.37 219.398,377.92C220.078,378.45 221.238,378.27 222.858,377.37C226.168,379.57 228.758,381.44 230.628,383.53C232.498,385.47 230.848,384.83 233.838,389.22C236.608,393.65 243.378,403.15 247.768,409.81C252.198,416.329 256.228,422.449 260.148,428.309C259.608,428.459 259.398,428.679 259.108,429.109C258.818,429.469 258.568,429.969 258.748,430.759C258.888,431.479 259.398,432.449 260.258,433.679C259.828,434.359 259.578,435.049 259.648,435.589C259.648,436.089 259.758,436.699 260.398,437.029C260.908,437.379 261.808,437.459 262.958,437.529C264.438,439.759 265.618,441.379 266.918,442.389C268.218,443.249 269.218,443.539 270.228,443.399C270.988,443.249 271.638,442.609 271.888,441.599L275.988,449.159L275.738,450.309L278.798,456.029L280.098,456.289C286.328,468.669 291.508,478.679 295.788,486.849C299.968,494.839 301.948,497.469 305.618,504.599C309.218,511.659 314.658,522.739 317.498,529.399C320.168,535.949 321.238,540.199 322.108,544.088C322.898,547.938 323.118,550.528 322.608,552.258C321.388,553.778 320.448,555.208 319.798,556.728C319.078,558.168 318.798,559.568 318.648,560.938C322.718,561.878 326.927,561.878 331.427,560.938C335.787,559.928 339.777,557.878 345.217,555.068C350.617,552.118 359.147,546.898 363.867,543.838C368.507,540.739 371.567,538.509 373.187,536.859C377.037,534.159 380.277,531.559 383.057,528.789C385.677,526.019 387.987,522.709 389.427,520.369C390.827,517.879 391.227,515.799 391.587,514.249C391.837,512.699 391.767,511.619 391.227,511.149C386.727,511.439 383.197,511.399 380.357,510.899C377.477,510.359 376.537,509.749 374.237,508.239C371.967,506.649 369.407,504.379 366.567,501.579C363.577,498.729 360.917,496.249 356.337,491.349C351.557,486.199 344.717,478.719 338.597,471.799C332.367,464.779 324.948,456.039 319.948,450.129C314.908,444.259 311.378,440.019 308.928,436.989L308.818,435.589L304.858,430.219L303.458,429.939C297.878,422.229 292.728,414.959 287.478,407.58C282.288,400.2 277.178,393.14 272.278,386.12C271.998,384.79 271.558,383.78 270.988,382.81C270.338,381.84 269.588,381.05 268.578,380.44C263.178,372.62 258.208,365.32 253.388,358.37C248.528,351.35 244.058,344.83 239.848,338.68C240.278,337.81 240.318,336.7 240.098,335.47C239.888,334.1 239.198,332.34 238.188,331.15C237.008,329.93 235.388,328.99 233.188,328.34C231.208,325.43 228.868,322.04 226.308,318.19C223.648,314.27 220.548,309.55 217.598,305.16C214.608,300.7 211.588,296.45 208.528,291.98C210.078,291.44 211.158,290.76 211.628,290.08C211.988,289.28 211.838,288.1 211.338,287.63C210.758,287.02 209.318,286.77 208.528,286.87C207.668,286.98 206.948,287.23 206.368,288.02L204.818,286.37C206.948,284.96 208.138,283.99 208.528,283.06C208.748,282.08 207.918,281.22 207.018,281C206.078,280.681 204.888,280.86 203.308,281.4C206.408,279.741 208.348,278.301 209.428,276.791C210.438,275.321 209.788,273.731 209.428,272.581C208.928,271.251 208.028,269.591 206.868,269.271C205.538,268.871 203.918,269.481 202.158,270.281C200.428,270.961 198.558,271.931 196.538,273.341C190.779,265.311 186.099,258.941 182.209,253.541C178.289,248.211 175.439,244.211 173.389,241.551C175.339,237.371 176.489,234.351 176.849,232.331C177.099,230.281 176.489,229.781 175.589,229.271C174.689,228.591 172.999,228.551 171.629,228.881C170.259,229.271 168.859,230.031 167.419,231.431C165.329,228.161 163.239,225.101 161.009,221.861C158.739,218.621 156.579,215.591 154.239,212.391C154.559,210.481 154.529,208.861 154.129,207.531C153.659,206.091 152.799,204.941 151.829,204.221C150.709,203.421 149.489,202.991 147.869,202.921L134.439,182.871C134.369,180.201 134.079,178.081 133.429,176.211C132.819,174.261 131.919,172.821 130.729,171.891C129.289,170.921 127.639,170.701 125.369,170.841L123.959,168.681C124.319,167.351 124.289,165.911 123.859,164.221C123.279,162.461 122.809,160.801 121.049,158.711C119.139,156.551 116.579,154.181 112.979,151.441L107.509,142.152C108.919,141.722 110.069,141.252 110.819,140.602C111.469,139.812 112.049,139.092 111.979,138.302C111.799,137.542 111.109,136.362 110.319,136.142C109.379,135.742 107.939,136.142 107.119,136.642C106.289,137.112 105.639,138.012 105.319,139.202C104.449,138.232 102.359,135.422 99.052,130.382C95.56,125.232 89.44,115.442 85.408,109.322C81.376,103.092 77.92,98.091 75.04,93.735L75.04,92.439L71.584,87.471L70.432,86.823L65.069,79.047C61.253,73.503 57.725,68.607 54.341,63.927C50.885,59.211 47.753,54.999 44.657,51.147L44.657,49.995L43.865,48.699C44.441,48.267 44.873,47.763 45.017,47.187C45.125,46.539 45.089,45.531 44.765,44.991C44.225,44.379 43.361,43.767 42.605,43.587C41.813,43.335 41.093,43.335 40.301,43.587L38.249,39.879L36.845,39.375L33.785,35.163C34.613,34.155 35.045,33.219 35.081,32.355C35.117,31.491 34.685,30.087 33.929,29.799C33.101,29.367 31.769,29.403 30.077,29.907L26.873,26.847L25.361,26.343C19.637,18.424 15.209,12.34 11.681,7.948C8.153,3.52 5.813,0.928 4.517,0.028L0.449,3.988C0.122,5.678 -0.059,8.523 0.05,12.663C0.086,16.803 0.302,21.95 0.698,28.502L6.71,39.77L6.458,41.282C7.43,43.55 8.834,46.07 10.274,48.842C11.75,51.578 14.054,55.898 15.386,57.77C16.718,59.534 17.438,60.038 17.942,59.426L19.49,61.226L18.95,62.234L20.498,64.79L21.65,65.186C23.954,68.894 26.258,72.602 28.562,76.31ZM147.221,255.049L149.521,258.609L151.031,259.369L155.791,267.579C156.221,268.399 156.431,269.159 156.291,269.989C156.181,270.779 155.721,271.499 155.031,272.289L145.811,255.949C146.281,255.659 146.751,255.369 147.221,255.049ZM166.261,290.538C166.261,289.858 166.511,289.428 167.021,289.638C167.491,289.718 167.411,288.848 169.181,291.338C170.871,293.818 173.461,298.098 177.101,304.328L176.921,306.888C174.691,303.578 172.701,300.518 170.981,297.848C169.101,295.118 167.661,292.628 166.261,290.538ZM182.101,310.958C181.991,310.878 181.741,310.848 181.351,310.848C180.811,310.778 179.731,310.448 179.651,310.848C179.511,311.208 180.451,312.428 181.061,313.258C181.561,313.978 182.211,314.918 183.001,315.668C183.761,315.418 184.011,314.988 184.151,314.518C184.191,313.938 183.651,313.038 183.361,312.498C183.041,311.858 182.571,311.388 182.101,310.958ZM186.421,319.918L188.871,322.978L188.981,324.888C188.081,323.768 187.361,322.688 186.961,321.938C186.491,321.038 186.311,320.458 186.421,319.918ZM193.331,329.498L195.391,332.298C195.421,333.278 195.201,333.528 194.741,333.198C194.271,332.808 193.411,331.688 192.431,329.998C192.721,329.858 193.011,329.678 193.331,329.498Z" style="stroke:black;stroke-width:0.04px;"/>
        <path id="path9" d="M147.969,253.931C148.479,255.661 148.909,256.811 149.409,257.391C149.809,257.891 149.919,257.891 150.709,257.391C151.389,256.881 152.359,255.801 153.619,254.291C155.319,256.561 156.969,258.321 158.589,259.581C160.209,260.771 161.799,260.841 163.349,261.601C164.709,262.251 165.539,261.351 167.379,263.621C169.139,265.781 170.439,269.051 174.319,274.811C178.099,280.611 184.399,289 190.449,297.89C196.428,306.71 202.978,316.14 210.248,327.01C207.658,328.52 205.568,330.25 203.848,332.05C201.938,333.92 199.848,337.31 199.808,337.92C199.848,338.32 202.048,336.41 204.028,334.97C205.928,333.42 208.558,330.72 210.798,329.1C212.808,327.41 214.648,326.11 216.298,325.07C213.168,319.99 210.218,315.49 207.298,310.99C204.348,306.46 201.538,302.5 198.878,298.54L200.358,297.6C202.158,300.08 204.708,303.68 207.878,308.4C211.118,313.12 214.828,318.73 219.398,325.64C217.198,326.65 215.368,327.62 213.888,328.56C212.268,329.46 211.338,329.86 210.258,331.12C209.098,332.23 207.188,335.33 207.298,335.69C207.378,335.9 208.668,334.36 210.618,333.13C212.518,331.84 216.118,329.28 218.498,328.38C220.728,327.48 222.568,327.19 224.148,327.66C222.278,324.31 219.758,320.03 216.298,314.81C212.878,309.52 208.668,303.29 203.668,296.12L208.238,290.83C209.318,290.72 209.998,290.36 210.428,289.89C210.718,289.35 210.898,288.17 210.428,287.88C209.928,287.52 208.308,287.52 207.658,287.88C207.018,288.09 206.548,288.74 206.398,289.53L200.888,293.02L198.518,289.71C200.638,287.98 202.368,286.69 203.848,285.68C205.358,284.6 206.258,284.2 206.938,283.66C207.338,282.94 207.228,282.4 206.758,282.04C206.078,281.61 204.458,281.43 203.848,281.65C203.198,281.86 203.048,282.37 203.268,283.3L197.038,286.98L180.369,267.181C180.079,261.701 179.399,257.421 178.719,253.931C177.819,250.471 176.849,248.531 175.799,246.581C174.689,244.531 173.679,242.951 172.489,241.831C173.779,239.461 174.579,237.441 175.259,235.781C175.909,234.061 176.159,232.761 176.159,231.751C175.909,230.671 175.299,229.561 174.319,229.381C173.209,229.121 171.479,229.521 170.109,230.281C168.709,230.921 167.229,232.401 166.079,233.591C164.819,234.741 163.739,235.211 162.979,237.081C162.189,238.841 161.759,241.221 161.689,244.211C160.209,243.601 158.919,243.241 157.659,243.271C156.249,243.161 154.989,243.091 154.019,244.031C153.009,244.931 152.439,246.401 151.999,248.601C150.559,249.791 149.519,250.831 148.869,251.731C148.229,252.561 147.829,253.391 147.969,253.931ZM181.489,277.911L188.799,290.36L190.089,289.46L181.489,277.911ZM191.749,294.04L193.769,296.95L195.029,296.05L193.009,293.14L191.749,294.04ZM181.489,273.881L191.749,288.53L193.009,287.45L181.489,273.881ZM195.019,292.38L197.218,295.33L198.518,294.94L196.318,291.48L195.019,292.38ZM195.779,300.44L197.618,299.72L213.888,324.45L212.808,325.18L195.779,300.44Z" style="fill:rgb(192,192,192);stroke:black;stroke-width:0.04px;"/>
        <path id="path11" d="M85.405,160.581L92.281,155.581L88.465,149.602C87.205,149.602 86.485,149.212 85.909,148.702C85.225,147.982 85.009,147.082 85.261,146.152C85.513,145.102 86.233,143.202 87.421,143.052C88.393,142.982 89.761,143.702 91.381,145.502C92.029,145.252 92.713,145.502 93.577,146.402C94.225,147.192 95.017,148.922 96.241,150.611C97.465,152.271 99.409,155.001 101.249,156.481C103.049,157.811 104.989,157.881 107.219,159.041C109.379,160.151 112.189,161.231 114.279,163.251C116.259,165.231 117.909,168.221 119.099,170.661C120.179,172.861 120.829,174.841 120.899,177.041C121.009,179.201 121.009,183.081 119.639,183.701C118.059,184.161 113.919,182.471 112.079,180.131C110.249,177.651 109.199,172.211 108.369,169.511C107.469,166.741 107.079,165.051 106.359,163.901C105.389,162.671 104.269,162.171 103.149,162.241C101.999,162.201 101.069,162.531 99.949,163.501C102.069,163.611 103.479,164.081 104.309,165.051C105.059,165.981 105.099,168.141 104.559,169.011C103.949,169.691 101.789,170.051 100.849,169.661C99.733,169.151 98.869,167.391 98.545,166.451C98.113,165.411 98.329,164.691 98.797,163.901L94.081,157.881L88.573,161.991L91.273,167.351L93.829,165.801C93.289,164.581 93.109,163.641 93.433,163.141C93.721,162.561 94.729,162.201 95.485,162.491C96.025,162.671 97.141,163.541 97.285,164.401C97.357,165.081 97.249,166.021 96.385,167.211C95.449,168.321 94.045,169.691 92.029,171.311L92.929,173.981C95.305,174.551 97.393,175.271 99.193,176.531C100.959,177.721 103.149,179.161 103.549,181.001C103.729,182.831 103.049,184.781 100.959,187.261L103.259,190.211C103.049,188.661 103.479,187.511 104.409,186.901C105.349,186.111 107.549,185.891 108.909,186.251C110.209,186.581 111.399,187.661 112.079,189.201C112.729,190.641 112.949,193.381 112.589,195.071C112.119,196.691 111.109,198.101 109.419,199.141C110.279,200.001 110.569,200.621 110.429,201.121C110.099,201.621 108.909,202.021 108.269,201.881C107.649,201.591 107.189,200.691 106.859,199.321L104.309,201.231C104.519,202.131 104.739,202.851 104.559,203.391C104.409,203.821 103.799,204.251 103.549,204.291C103.119,204.251 102.719,204.221 102.509,203.781C102.219,203.321 101.999,202.521 101.999,201.981C102.039,201.441 102.109,200.981 102.509,200.581L93.577,187.191C92.785,187.261 92.281,186.831 91.921,186.291C91.561,185.641 91.381,184.701 91.381,183.481C90.697,183.411 90.193,183.161 89.869,182.721C89.401,182.261 89.185,181.391 89.221,180.531C89.185,179.561 89.401,178.401 89.869,177.071L84.253,167.641C83.641,167.681 83.137,167.241 82.597,166.341C82.057,165.441 81.625,164.041 81.157,162.281C78.997,158.281 77.125,154.861 75.541,152.161C73.777,149.352 72.697,147.552 71.473,145.792C70.213,143.952 68.917,142.552 68.413,141.432C67.837,140.242 67.801,139.312 68.161,138.772C67.261,138.162 66.613,137.512 66.217,136.822C65.713,136.072 65.317,135.352 65.461,134.662C65.497,133.912 65.965,133.192 66.721,132.502C67.909,133.372 68.773,134.162 69.169,135.172C69.565,136.032 69.565,137.112 69.169,138.122C69.061,138.882 69.493,140.032 70.321,141.582C71.149,142.982 72.517,144.712 74.281,147.192C75.973,149.602 78.061,152.631 80.545,156.261C80.257,154.251 80.509,152.991 81.157,152.051C81.733,151.151 83.533,150.721 84.613,150.901C85.621,150.941 86.881,151.621 87.421,152.661C87.853,153.671 87.817,155.871 87.313,157.021C86.773,158.031 85.657,158.711 84.109,158.931C84.541,159.471 84.973,160.011 85.405,160.581ZM86.916,163.681C86.196,163.901 85.512,164.151 85.26,164.581C84.828,164.901 84.828,165.371 84.864,165.981C85.764,167.461 86.484,168.471 87.168,169.151C87.816,169.871 88.464,170.091 88.716,169.941C88.86,169.621 88.464,168.401 88.212,167.391C87.853,166.311 87.42,165.121 86.916,163.681ZM94.728,186.791C94.836,186.791 94.908,186.611 95.088,186.401C95.196,186.111 95.376,185.641 95.628,185.141C96.996,186.651 98.436,188.381 99.948,190.751C101.459,192.981 102.899,195.721 104.559,198.821L103.149,199.681C101.819,197.661 100.449,195.761 99.048,193.561C97.645,191.331 96.205,189.201 94.728,186.791ZM106.609,189.201C106.139,189.351 105.379,189.601 105.309,190.501C105.099,191.331 105.129,192.701 105.709,194.061C106.249,195.321 107.649,197.661 108.519,198.021C109.159,198.281 109.809,196.731 110.029,195.721C110.099,194.531 109.879,192.841 109.519,191.761C109.129,190.641 108.299,189.891 107.869,189.491C107.329,188.991 107.009,189.021 106.609,189.201Z" style="fill:rgb(192,192,192);stroke:black;stroke-width:0.04px;"/>
        <path id="path13" d="M0.806,4.13L0.554,12.806L0.806,22.129L1.202,28.141C1.202,28.141 3.794,25.873 5.162,23.137C6.53,20.437 6.422,20.437 6.71,17.27C6.962,14.102 6.962,14.354 6.17,10.502C5.414,6.686 3.65,1.934 3.65,1.934L0.806,4.13Z" style="fill:rgb(97,97,97);"/>
        <path id="path15" d="M6.961,41.029C6.997,40.057 7.465,38.905 8.221,37.573C9.049,36.133 9.985,34.189 11.569,32.857C12.937,31.381 14.737,30.193 16.681,29.293C18.589,28.321 21.181,27.781 22.909,27.385C24.565,26.953 25.753,26.953 26.617,27.097L29.965,30.553C27.661,30.445 25.573,30.481 23.557,30.949C21.541,31.345 19.705,32.029 18.049,33.001C19.777,33.505 20.965,34.045 22.045,35.017C22.981,35.881 23.665,36.997 23.953,38.365C24.205,39.589 24.205,40.993 23.809,42.577C25.537,41.533 27.193,40.633 28.921,40.273C30.685,39.805 32.305,39.769 33.925,39.877C35.437,39.841 36.661,40.021 37.885,40.273L39.901,43.981C37.525,43.441 35.113,43.621 32.521,44.377C29.821,45.133 26.581,46.861 24.457,48.445C22.333,49.921 20.857,51.721 19.741,53.557C18.553,55.321 17.653,57.157 17.185,59.065C16.897,58.957 16.393,58.273 15.529,57.013C14.593,55.645 13.333,53.449 12.181,51.397C10.993,49.129 9.301,46.141 8.473,44.377C7.574,42.649 7.07,41.533 6.961,41.029ZM11.822,39.122C11.246,39.626 10.994,39.986 10.922,41.03C10.742,41.894 10.814,43.442 11.282,44.99C11.642,46.538 12.686,49.022 13.586,50.354C14.414,51.614 15.314,52.586 16.286,52.298C17.186,51.794 18.626,49.274 19.346,47.798C19.994,46.25 20.606,44.63 20.354,43.082C19.994,41.39 18.554,39.122 17.546,38.222C16.466,37.322 15.17,37.61 14.234,37.826C13.262,38.005 12.326,38.438 11.822,39.122Z" style="fill:rgb(192,192,192);stroke:black;stroke-width:0.04px;"/>
        <path id="path17" d="M19.49,62.377C19.886,60.721 20.57,59.281 21.398,57.769C22.226,56.185 22.874,54.961 24.458,53.413C25.97,51.721 28.022,49.921 30.218,48.697C32.306,47.617 34.754,46.933 36.734,46.645C38.57,46.249 40.01,46.033 41.198,46.141L44.114,49.994L44.114,51.002C42.53,50.678 40.838,50.858 38.642,51.398C36.374,51.866 33.674,52.658 31.226,54.206C28.742,55.61 25.754,58.67 24.206,60.47C22.514,62.198 21.794,63.638 21.65,64.79C21.434,64.934 21.038,64.862 20.75,64.43C20.317,63.998 19.994,63.314 19.49,62.377Z" style="fill:rgb(192,192,192);stroke:black;stroke-width:0.04px;"/>
        <path id="path19" d="M24.602,55.969C25.682,54.421 26.906,53.017 28.67,51.901C30.398,50.569 32.594,49.633 34.682,48.949C36.626,48.301 38.498,48.049 40.442,48.193C37.994,48.481 35.87,49.093 33.926,49.741C31.874,50.353 30.398,51.253 28.814,52.297C27.229,53.377 25.826,54.458 24.602,55.969Z" style="stroke:black;stroke-width:0.04px;"/>
        <path id="path21" d="M30.578,30.805L33.278,34.261C33.746,33.181 33.962,32.281 33.926,31.705C33.818,31.093 33.422,30.661 32.882,30.553C32.377,30.409 31.478,30.445 30.578,30.805Z" style="fill:rgb(192,192,192);stroke:black;stroke-width:0.04px;"/>
        <path id="path23" d="M41.306,44.629L43.358,47.797C43.718,47.077 43.934,46.393 43.862,45.889C43.61,45.169 43.322,44.701 42.854,44.485C42.386,44.305 41.917,44.305 41.306,44.629Z" style="fill:rgb(192,192,192);stroke:black;stroke-width:0.04px;"/>
        <path id="path25" d="M3.253,2.439L4.513,1.431C6.385,4.347 7.789,7.335 8.869,10.251C9.877,13.167 11.821,16.011 10.669,18.927C9.445,21.698 6.457,24.47 1.705,27.098C4.261,24.578 5.881,21.95 6.565,18.927C7.249,15.795 5.989,11.871 5.557,9.099C5.054,6.254 4.154,4.167 3.253,2.439Z" style="fill:rgb(33,33,33);"/>
        <path id="path27" d="M49.622,109.102L46.562,104.892C46.814,103.162 47.462,101.542 48.362,99.89C49.262,98.198 50.27,96.578 51.926,95.03C53.546,93.302 55.598,91.718 57.794,90.566C59.738,89.378 61.826,88.838 64.058,88.406C66.217,87.902 68.521,87.686 70.969,87.758L74.533,92.474L74.281,93.374C72.481,93.05 70.393,93.266 68.017,93.878C65.497,94.382 61.898,95.822 59.702,97.082C57.506,98.342 55.85,99.926 54.59,101.442C53.15,102.882 52.358,104.142 51.674,105.502C50.99,106.732 50.558,107.882 50.522,108.962C50.233,109.002 49.946,109.032 49.622,109.102Z" style="fill:rgb(192,192,192);stroke:black;stroke-width:0.04px;"/>
        <path id="path29" d="M53.33,98.414C54.338,96.758 55.706,95.534 57.434,94.31C59.198,92.978 61.286,92.042 63.41,91.358C65.353,90.71 67.225,90.458 69.169,90.602C66.721,90.89 64.598,91.502 62.654,92.15C60.602,92.762 59.126,93.662 57.542,94.706C55.958,95.75 54.554,96.938 53.33,98.414Z" style="stroke:black;stroke-width:0.04px;"/>
        <path id="path31" d="M105.709,139.852C105.919,138.952 106.359,138.232 106.859,137.692C107.289,137.082 108.159,136.462 108.909,136.542C109.599,136.572 110.819,137.042 111.179,137.802C111.319,138.412 111.249,139.632 110.569,140.352C109.849,140.932 108.909,141.362 107.359,141.502C106.829,140.962 106.289,140.422 105.709,139.852Z" style="fill:rgb(192,192,192);stroke:black;stroke-width:0.04px;"/>
        <path id="path33" d="M114.779,153.821C116.399,154.901 117.629,155.901 118.849,157.131C119.929,158.241 120.829,159.761 121.549,160.841C122.159,161.881 122.489,162.491 122.809,163.501C123.059,164.471 123.239,165.591 123.349,166.851C120.509,162.531 117.659,158.171 114.779,153.821Z" style="fill:rgb(64,64,64);stroke:black;stroke-width:0.04px;"/>
        <path id="path35" d="M125.759,171.311C127.349,171.171 128.709,171.381 129.719,171.961C130.729,172.571 131.309,173.511 131.879,174.481C132.279,175.271 132.529,175.991 132.779,176.931C133.069,177.831 133.469,178.761 133.679,179.741C133.789,180.491 133.789,181.181 133.539,181.791C130.949,178.301 128.349,174.801 125.759,171.311Z" style="fill:rgb(192,192,192);"/>
        <path id="path37" d="M126.659,172.971C127.739,172.971 128.679,173.001 129.329,173.361C129.939,173.541 130.229,173.831 130.619,174.771C130.909,175.671 131.129,177.071 131.269,178.981C129.759,177.001 128.209,174.981 126.659,172.971Z" style="fill:rgb(33,33,33);"/>
        <path id="path39" d="M109.669,165.441C109.599,166.241 111.679,171.281 112.729,173.761C113.629,176.211 114.349,178.441 115.279,180.021C116.219,181.461 117.589,182.871 117.979,182.441C118.159,181.821 117.769,179.161 116.939,176.821C115.999,174.481 114.489,170.201 113.229,168.401C111.899,166.421 109.739,164.511 109.669,165.441Z" style="fill:white;"/>
        <path id="path41" d="M106.969,160.331C108.519,160.941 112.479,162.461 114.279,164.181C115.969,165.731 116.939,168.761 117.589,170.201C118.199,171.641 118.599,173.181 118.239,172.751C117.629,172.181 116.189,168.501 114.889,166.991C113.559,165.371 112.329,164.331 110.679,163.281C108.879,162.171 105.489,160.911 104.809,160.481C104.199,159.861 105.239,159.721 106.969,160.331Z" style="fill:white;"/>
        <path id="path43" d="M99.841,164.831C99.445,164.981 99.589,165.441 99.841,166.091C100.019,166.701 100.669,168.431 101.099,168.651C101.429,168.721 101.679,167.421 101.859,166.851C101.929,166.241 102.109,165.371 101.859,165.081C101.499,164.721 100.129,164.691 99.841,164.831Z" style="fill:white;"/>
        <path id="path45" d="M92.281,175.161C93.109,175.601 95.521,177.071 96.745,178.481C97.897,179.741 99.121,181.971 99.301,182.831C99.301,183.551 98.113,183.881 97.285,183.231C96.385,182.471 95.449,180.101 94.477,178.871C93.433,177.581 91.705,176.421 91.381,175.811C90.949,175.201 91.381,174.661 92.281,175.161Z" style="fill:white;"/>
        <path id="path47" d="M110.029,188.091C110.529,188.451 111.329,189.821 111.579,190.641C111.759,191.401 111.219,192.771 111.069,192.661C110.819,192.441 110.569,190.001 110.169,189.351C109.809,188.661 108.519,188.231 108.629,188.201C108.619,187.981 109.419,187.621 110.029,188.091Z" style="fill:white;"/>
        <path id="path49" d="M102.509,192.161C102.939,193.061 104.129,195.071 104.949,196.261C105.749,197.301 107.149,198.891 107.219,198.671C107.109,198.381 105.929,196.221 105.059,194.961C104.089,193.601 102.689,191.041 102.249,190.641C101.889,190.141 101.929,191.151 102.509,192.161Z" style="fill:white;"/>
        <path id="path51" d="M82.309,157.521C81.985,157.311 81.733,156.261 81.553,155.511C81.373,154.681 81.373,153.311 81.553,152.811C81.733,152.201 82.309,151.801 82.453,152.051C82.453,152.201 81.949,153.201 82.057,153.961C82.129,154.641 82.525,155.721 82.705,156.371C82.668,156.951 82.489,157.561 82.309,157.521Z" style="fill:white;"/>
        <path id="path53" d="M89.077,158.821C89.689,158.031 91.057,157.161 91.921,156.521C92.641,155.801 93.829,155.001 93.937,155.111C93.973,155.221 93.505,155.871 92.533,156.911C91.381,157.811 88.609,160.301 87.961,160.621C87.457,160.801 88.249,159.501 89.077,158.821Z" style="fill:white;"/>
        <path id="path55" d="M98.437,177.971C98.113,178.081 99.193,179.661 99.445,180.781C99.589,181.791 99.265,183.771 99.589,184.241C99.841,184.521 101.029,183.771 101.349,183.081C101.569,182.331 101.679,180.851 101.249,180.021C100.709,179.051 98.653,177.861 98.437,177.971Z" style="fill:rgb(33,33,33);"/>
        <path id="path57" d="M88.825,148.992C89.221,149.142 89.437,148.992 89.869,148.702C90.121,148.342 90.589,147.842 90.877,147.052C90.661,147.442 90.841,148.132 91.273,149.102C91.741,150.042 93.289,152.521 93.433,152.811C93.325,152.921 91.813,150.861 91.273,150.251C90.697,149.712 90.625,149.462 90.229,149.352C89.797,149.102 89.329,149.032 88.825,148.992Z" style="fill:rgb(33,33,33);"/>
        <path id="path59" d="M95.484,155.621C95.808,156.011 98.976,160.441 99.3,161.121C99.48,161.631 97.644,159.791 96.996,158.931C96.349,157.961 95.053,155.181 95.484,155.621Z" style="fill:rgb(33,33,33);"/>
        <path id="path61" d="M103.009,165.841C102.719,165.951 102.649,167.061 102.649,167.641C102.649,168.041 102.719,168.611 103.009,168.541C103.229,168.361 103.949,167.571 104.049,167.141C103.949,166.631 103.229,165.701 103.009,165.841Z" style="fill:rgb(33,33,33);"/>
        <path id="path63" d="M82.597,162.021C82.633,161.521 82.849,161.231 83.101,160.871C83.353,160.481 83.965,159.611 84.109,160.081C84.037,160.481 83.641,162.561 83.353,163.281C82.993,163.721 82.417,163.751 82.309,163.541C82.237,163.181 82.381,162.491 82.597,162.021Z" style="fill:rgb(33,33,33);"/>
        <path id="path65" d="M91.777,178.221C91.777,178.331 92.677,178.731 92.929,179.271C93.109,179.741 92.821,181.281 93.037,181.431C93.181,181.501 93.541,180.381 93.685,179.881C93.505,179.161 93.253,178.481 92.929,178.121C92.533,177.861 91.777,177.901 91.777,178.221Z" style="fill:rgb(33,33,33);"/>
        <path id="path67" d="M93.829,181.571C93.829,181.721 94.729,182.001 94.981,182.581C95.161,183.121 94.873,184.491 95.089,184.741C95.233,184.741 95.593,183.771 95.737,183.231C95.557,182.541 95.305,181.751 94.981,181.431C94.584,181.141 93.829,181.281 93.829,181.571Z" style="fill:rgb(33,33,33);"/>
        <path id="path69" d="M105.559,204.071L111.429,211.741C110.929,209.621 110.859,208.001 111.069,206.881C111.249,205.731 111.789,205.041 112.839,204.831C113.839,204.401 115.719,203.861 116.939,204.721C118.059,205.511 119.099,208.361 119.239,209.941C119.169,211.521 117.949,213.581 116.939,214.151C115.819,214.621 114.599,213.941 112.979,212.501L113.089,214.151C113.949,214.731 114.419,215.381 114.779,215.951C115.069,216.531 115.099,217.031 114.889,217.611L119.099,223.121C118.379,221.101 117.949,219.621 117.949,218.261C117.839,216.781 118.089,215.811 118.989,215.201C119.859,214.511 122.119,214.481 123.459,214.941C124.789,215.411 126.119,216.601 126.909,218.361C127.519,220.131 127.739,223.621 127.559,225.381C127.199,226.971 126.409,227.691 125.619,228.231C124.859,228.701 123.919,228.701 122.949,228.231C127.489,235.031 131.199,240.611 134.079,244.821C136.919,249.041 138.829,251.881 139.939,253.501L138.649,254.651C138.759,255.701 138.789,256.851 139.039,257.961C139.259,259.151 139.509,260.301 139.799,261.421C139.869,262.321 140.049,263.041 139.939,263.721C139.799,264.371 139.399,264.841 138.899,265.271C139.549,266.171 139.799,267.071 139.799,267.581C139.759,268.121 139.189,268.551 138.649,268.581C138.039,268.481 136.489,268.011 136.089,267.321C135.589,266.601 135.519,265.061 135.729,264.621C135.909,264.121 136.239,263.901 136.989,264.121C137.529,263.361 137.779,262.391 137.889,261.061C137.859,259.621 137.819,257.861 137.239,256.311C136.669,254.651 135.079,253.181 134.439,251.741C133.639,250.221 133.139,249.041 132.779,247.781C132.379,246.521 132.169,245.401 132.129,244.431L129.319,240.861C128.959,241.691 128.889,242.661 128.959,244.071C128.999,245.401 129.289,247.381 129.829,248.891C130.259,250.301 130.869,251.661 131.519,252.851C132.019,253.901 132.489,254.621 132.919,255.551C133.209,256.381 133.459,257.281 133.539,258.111C133.569,258.861 133.539,259.551 133.429,260.161C133.929,260.561 134.179,260.881 134.329,261.421C134.439,261.851 134.399,262.821 134.079,262.971C133.569,262.861 132.199,262.461 131.629,261.921C130.979,261.531 130.189,260.701 130.219,260.271C130.189,259.761 130.619,259.081 131.519,258.611C132.019,258.071 132.279,257.391 132.129,256.561C131.949,255.661 131.159,254.471 130.729,253.391C130.149,252.171 129.499,251.201 129.069,249.791C128.529,248.321 128.059,247.021 127.809,244.931C127.489,242.811 127.309,240.221 127.269,237.161L121.909,229.241C121.149,229.341 120.609,229.161 120.139,228.841C119.679,228.441 119.419,227.621 119.239,226.931C119.029,226.141 119.029,225.201 119.099,224.121L113.879,217.861C113.269,218.081 112.799,218.041 112.479,217.751C112.119,217.391 111.679,216.781 111.579,216.061C111.429,215.341 111.219,214.441 111.319,213.501L104.809,204.971C105.059,204.681 105.309,204.401 105.559,204.071ZM119.749,216.851C119.319,217.641 119.279,218.831 119.639,220.421C119.929,221.821 120.649,224.231 121.659,225.131C122.559,225.891 124.679,225.851 125.259,225.021C125.649,224.021 125.289,221.061 124.719,219.661C124.029,218.111 122.589,216.781 121.799,216.351C120.829,215.811 120.149,216.171 119.749,216.851Z" style="fill:rgb(192,192,192);stroke:black;stroke-width:0.04px;"/>
        <path id="path71" d="M114.389,205.731C113.919,205.401 113.129,205.621 112.839,205.981C112.409,206.301 112.149,207.351 112.229,208.141C112.299,208.931 112.689,210.801 112.979,210.701C112.979,210.481 112.689,207.491 113.089,206.991C113.519,206.301 115.179,207.281 115.539,207.131C115.609,206.841 114.849,205.911 114.389,205.731Z" style="fill:white;"/>
        <path id="path73" d="M126.769,221.061C126.989,222.071 127.169,223.731 127.169,224.771C127.129,225.671 126.699,226.391 126.269,226.931C125.619,227.331 124.249,227.721 124.109,227.691C123.999,227.541 125.149,227.111 125.619,226.541C126.089,225.891 126.299,225.131 126.409,223.871C126.269,222.431 125.509,218.981 125.509,218.511C125.579,218.041 126.369,219.911 126.769,221.061Z" style="fill:white;"/>
        <path id="path75" d="M113.879,211.741C113.809,211.601 114.749,212.641 115.139,212.501C115.469,212.061 116.039,210.341 116.289,210.081C116.579,209.871 116.759,210.841 116.689,211.491C116.469,212.031 115.539,213.401 115.139,213.501C114.529,213.431 113.919,211.921 113.879,211.741Z" style="fill:rgb(64,64,64);"/>
        <path id="path77" d="M127.559,229.341C127.269,230.821 127.269,232.011 127.559,233.051C127.849,234.131 128.709,235.001 129.329,235.361C129.759,235.501 130.079,234.061 130.729,234.351C131.379,234.641 132.889,237.011 133.179,236.901C133.209,236.691 132.419,233.701 131.769,233.201C130.979,232.581 129.789,233.881 129.469,233.341C129.219,232.621 129.289,231.471 130.229,229.741C131.049,227.981 133.289,225.351 134.439,223.371C135.369,221.351 135.729,219.341 136.349,218.001C136.779,216.671 137.249,215.741 137.889,215.201C138.539,214.371 139.409,214.081 140.199,214.041C140.849,214.041 141.489,214.511 141.999,215.451C141.349,216.491 141.349,217.251 141.599,218.111C141.819,218.941 142.859,219.951 143.759,220.161C144.659,220.131 146.429,219.301 146.969,218.511C147.319,217.541 146.779,215.921 146.319,215.201C145.779,214.481 145.019,214.261 143.909,214.401L142.859,212.391L146.459,210.341C147.249,211.561 147.969,212.501 148.769,213.141C149.449,213.791 150.169,214.081 150.929,214.151L153.339,212.241C153.909,210.081 153.909,208.431 153.479,207.131C152.979,205.801 151.389,205.011 150.529,204.471C149.559,203.821 148.659,203.101 147.969,203.571C147.219,204.001 146.679,205.011 146.209,206.881L141.349,209.041L136.889,203.821C136.889,202.781 136.669,202.061 136.089,201.521C135.449,200.871 134.219,200.621 133.539,200.761C132.819,200.941 132.349,201.801 132.129,202.671C131.849,203.421 131.669,204.831 132.029,205.481C132.309,206.051 132.849,206.121 133.789,205.981C134.619,206.631 135.089,208.001 135.189,209.941C135.189,211.991 134.909,215.341 134.329,217.611C133.679,219.551 132.459,220.811 131.629,222.221C130.769,223.581 129.829,224.811 129.219,226.031C128.499,227.181 127.989,228.341 127.559,229.341Z" style="fill:rgb(192,192,192);stroke:black;stroke-width:0.04px;"/>
        <path id="path79" d="M134.939,202.521C134.619,202.271 132.559,202.671 132.529,203.171C132.459,203.501 133.929,204.791 134.439,204.721C134.799,204.581 135.189,202.741 134.939,202.521Z" style="fill:white;"/>
        <path id="path81" d="M143.759,215.951C143.329,215.881 143.079,217.361 143.149,217.861C143.189,218.291 143.469,218.871 144.009,218.901C144.369,218.831 145.709,218.221 145.669,217.751C145.449,217.181 144.269,215.881 143.759,215.951Z" style="fill:white;"/>
        <path id="path83" d="M148.479,210.081C148.869,210.841 149.339,211.341 150.029,211.741C150.669,212.061 151.539,212.281 152.469,212.241C152.799,211.561 153.009,210.841 152.979,210.081C152.909,209.261 152.689,208.391 152.329,207.641C151.969,206.881 151.319,206.201 150.679,205.581C151.319,206.561 151.789,207.491 152.079,208.541C152.289,209.541 152.329,210.521 152.189,211.601C151.389,211.421 150.819,211.201 150.169,210.951C149.479,210.701 149.019,210.411 148.479,210.081Z" style="fill:white;"/>
        <path id="path85" d="M142.249,210.951C144.299,209.941 145.959,209.181 147.359,208.681C148.689,208.141 149.669,207.741 150.279,207.641C150.849,208.501 151.069,208.971 151.069,209.441C150.959,209.871 150.419,209.901 150.029,209.941C149.589,209.801 149.129,209.511 148.619,208.931C147.329,209.401 146.179,209.871 145.169,210.191C144.049,210.521 143.079,210.771 142.249,210.951Z" style="fill:rgb(64,64,64);"/>
        <path id="path87" d="M196.388,274.451C196.288,275.141 196.678,276.251 197.438,277.401C198.158,278.561 199.348,279.961 200.998,281.62C202.148,281.15 203.338,280.501 204.558,279.821C205.788,278.951 207.258,278.201 208.168,277.151C208.888,276.071 208.958,274.781 208.918,273.801C208.808,272.691 207.878,271.751 207.368,271.141C206.728,270.491 206.188,270.101 205.208,270.241C204.098,270.351 202.728,271.001 201.248,271.791C199.778,272.441 198.158,273.371 196.388,274.451Z" style="fill:rgb(64,64,64);stroke:black;stroke-width:0.04px;"/>
        <path id="path89" d="M135.079,240.971C135.079,240.471 135.119,240.001 135.479,239.571C135.769,239.061 136.699,238.601 136.879,238.311C136.919,237.951 136.379,237.591 136.089,237.661C135.699,237.661 135.229,237.911 134.689,238.421C133.929,238.131 133.389,238.091 132.919,238.311C132.349,238.421 131.769,238.851 131.879,239.461C131.949,240.071 132.559,241.011 133.429,242.121C134.219,243.241 135.189,244.461 136.489,246.341C137.639,248.141 139.219,250.221 140.839,252.741C142.319,250.121 144.189,247.781 146.319,245.721C148.509,243.531 151.209,241.871 153.589,240.361C155.859,238.851 158.269,238.341 159.849,236.901C161.289,235.251 162.339,232.731 162.299,231.141C162.189,229.601 160.719,227.941 159.239,227.831C157.549,227.721 154.519,228.771 153.079,230.141C151.719,231.321 151.459,233.481 150.779,235.101C149.919,236.581 149.159,237.841 148.119,239.461C146.889,241.011 145.339,243.201 143.899,244.681C142.429,246.081 141.019,247.381 139.549,248.281C138.069,245.871 136.599,243.421 135.079,240.971Z" style="fill:rgb(192,192,192);stroke:black;stroke-width:0.04px;"/>
        <path id="path91" d="M152.579,235.361C151.719,235.931 150.199,237.801 148.869,239.461C147.429,240.971 144.589,244.431 144.659,244.571C144.769,244.611 148.039,241.041 149.629,239.711C151.139,238.271 153.009,236.941 153.589,236.261C153.979,235.501 153.369,234.781 152.579,235.361Z" style="fill:white;"/>
        <path id="path93" d="M151.679,238.421C152.579,237.701 154.239,236.441 155.279,236.151C156.219,235.821 157.409,236.041 157.189,236.511C156.829,236.901 154.709,237.911 153.589,238.561C152.359,239.101 150.569,240.071 150.279,240.111C149.849,240.001 150.819,239.061 151.679,238.421Z" style="fill:rgb(64,64,64);"/>
        <path id="path95" d="M157.549,232.691C157.769,233.381 158.019,235.071 158.449,235.251C158.839,235.281 159.959,234.131 159.999,233.451C159.929,232.691 158.589,231.431 158.089,231.041C157.509,230.641 156.399,230.501 156.399,230.891C156.319,231.221 157.079,231.861 157.549,232.691Z" style="fill:rgb(64,64,64);"/>
        <path id="path97" d="M133.789,238.961C133.499,238.851 133.289,239.061 133.289,239.461C133.289,239.711 133.499,240.861 133.789,240.971C133.969,240.941 134.369,240.181 134.439,239.821C134.369,239.351 133.969,239.061 133.789,238.961Z" style="fill:white;"/>
        <path id="path99" d="M113.199,187.081C115.029,187.691 116.219,188.561 116.619,189.821C117.009,191.081 116.729,192.481 115.749,194.421C115.929,192.881 115.829,191.511 115.429,190.321C114.929,189.061 114.309,187.981 113.199,187.081Z" style="fill:rgb(64,64,64);stroke:black;stroke-width:0.04px;"/>
        <path id="path101" d="M117.119,203.681C117.449,202.601 118.019,202.021 118.849,201.951C119.639,201.841 120.609,202.241 121.909,203.141C120.429,203.061 119.459,203.241 118.849,203.681C118.199,204.001 118.019,204.611 118.309,205.371C117.909,204.831 117.519,204.251 117.119,203.681Z" style="fill:rgb(64,64,64);stroke:black;stroke-width:0.04px;"/>
        <path id="path103" d="M119.859,206.051C121.009,206.451 121.579,206.951 121.579,207.421C121.579,207.921 120.899,208.391 119.679,208.971C119.709,208.001 119.789,207.021 119.859,206.051Z" style="fill:rgb(64,64,64);stroke:black;stroke-width:0.04px;"/>
        <path id="path105" d="M120.039,212.891C121.189,212.961 122.089,212.891 122.589,212.531C123.059,212.101 123.279,211.521 123.099,210.661C122.769,210.801 122.379,211.091 121.909,211.521C121.439,211.851 120.689,212.351 120.039,212.891Z" style="fill:rgb(64,64,64);stroke:black;stroke-width:0.04px;"/>
        <path id="path107" d="M124.969,213.581C125.149,212.821 125.509,212.601 126.189,212.531C126.879,212.421 128.069,212.711 128.929,213.401C129.759,214.041 130.439,215.121 130.979,216.491C131.339,217.791 131.449,219.481 131.309,221.421L129.939,222.971C130.329,220.421 130.009,218.361 129.249,216.821C128.349,215.231 127.019,214.151 124.969,213.581Z" style="fill:rgb(64,64,64);stroke:black;stroke-width:0.04px;"/>
        <path id="path109" d="M138.829,233.741C138.289,236.291 138.509,237.911 139.329,238.881C140.089,239.711 142.829,240.141 143.799,239.211C144.699,238.201 145.599,234.201 144.989,233.051C144.339,231.831 142.569,231.431 139.839,231.861C141.709,231.861 142.969,232.261 143.619,233.051C144.229,233.841 143.649,235.641 143.439,236.651C143.009,237.591 142.389,238.311 141.749,238.521C141.099,238.631 140.089,238.241 139.689,237.481C139.149,236.691 138.869,235.391 138.829,233.741Z" style="fill:rgb(64,64,64);stroke:black;stroke-width:0.04px;"/>
        <path id="path111" d="M175.799,267.831C176.019,268.301 172.889,264.701 170.869,263.261C168.669,261.851 166.009,261.171 163.699,259.401C161.329,257.531 158.559,254.181 157.479,252.281C156.359,250.151 156.429,246.731 157.299,247.311C158.049,247.881 160.209,253.611 162.259,255.731C164.169,257.711 166.939,257.571 169.209,259.581C171.439,261.561 175.399,267.181 175.799,267.831Z" style="fill:white;"/>
        <path id="path113" d="M173.779,272.441C174.069,273.011 180.479,282.01 184.399,287.63C188.179,293.14 194.559,303.32 196.318,305.56C197.828,307.61 196.748,304.01 194.479,300.44C192.179,296.7 186.379,288.85 182.929,284.14C179.359,279.311 173.529,271.901 173.779,272.441Z" style="fill:white;"/>
        <path id="path115" d="M174.319,257.571C174.289,256.701 173.749,253.501 172.699,251.161C171.439,248.821 168.489,244.321 167.739,244.031C166.979,243.711 167.199,247.161 168.099,249.141C168.959,250.981 171.519,253.931 172.699,255.371C173.709,256.741 174.249,258.221 174.319,257.571Z" style="fill:white;"/>
        <path id="path117" d="M166.659,238.881C166.909,237.731 168.349,234.741 169.569,233.411C170.619,232.011 172.849,230.281 173.059,230.861C173.209,231.431 171.439,235.281 170.689,236.871C169.859,238.381 168.669,239.171 168.099,239.641C167.339,239.961 166.399,239.861 166.659,238.881Z" style="fill:white;"/>
        <path id="path119" d="M170.109,238.341C170.539,236.941 173.239,232.401 173.779,232.121C174.219,231.901 173.319,235.431 172.889,236.871C172.349,238.091 171.299,239.531 170.869,239.821C170.329,240.071 169.569,239.531 170.109,238.341Z" style="fill:rgb(64,64,64);"/>
        <path id="path121" d="M166.079,241.661C166.439,241.301 166.939,241.221 167.739,241.301C168.419,241.221 170.109,241.191 170.869,241.481C171.589,241.731 172.089,242.811 171.949,242.921C171.519,242.921 170.329,241.871 169.209,242.021C168.129,242.121 166.229,242.771 165.719,243.671C165.109,244.541 164.889,245.041 165.899,247.131C166.839,249.181 170.939,254.831 171.409,255.731C171.699,256.451 168.959,253.431 167.919,251.921C166.799,250.331 165.249,247.961 164.819,246.591C164.319,245.151 164.459,244.251 164.819,243.491C164.999,242.591 165.469,241.981 166.079,241.661Z" style="fill:rgb(64,64,64);"/>
        <path id="path123" d="M162.979,247.521C163.419,248.321 165.579,251.521 168.099,255.191C170.509,258.721 176.879,267.721 177.639,268.581C178.319,269.341 174.469,262.901 172.489,259.941C170.359,256.811 167.119,252.491 165.539,250.441C163.919,248.321 162.519,246.701 162.979,247.521Z" style="fill:rgb(64,64,64);"/>
        <path id="path125" d="M154.379,248.601C154.379,249.611 154.529,251.091 155.099,252.461C155.679,253.821 157.229,255.981 157.659,256.311C157.949,256.451 157.439,254.691 157.119,253.361C156.649,251.841 155.819,249.251 155.459,248.061C154.919,246.911 154.959,246.231 154.739,246.411C154.489,246.411 154.269,247.601 154.379,248.601Z" style="fill:rgb(64,64,64);"/>
        <path id="path127" d="M151.069,251.341C150.099,252.281 149.479,253.071 149.229,253.721C148.869,254.291 148.549,255.161 149.229,255.191C149.839,255.121 150.959,254.621 152.719,253.541C152.649,252.961 152.399,252.421 152.359,251.921C152.289,251.411 152.039,250.871 151.999,250.441C151.719,250.731 151.389,251.021 151.069,251.341Z" style="fill:rgb(64,64,64);"/>
        <path id="path129" d="M205.468,282.3C205.248,282.05 204.958,282.05 204.748,282.3C204.418,282.44 204.098,283.34 204.208,283.6C204.208,283.78 205.068,283.78 205.278,283.6C205.428,283.34 205.538,282.44 205.468,282.3Z" style="fill:white;"/>
        <path id="path131" d="M208.778,288.17C208.308,288.1 207.408,288.78 207.478,289.1C207.478,289.25 209.058,289.75 209.318,289.64C209.498,289.5 208.988,288.17 208.778,288.17Z" style="fill:white;"/>
        <path id="path133" d="M197.618,288.17C198.048,287.7 201.608,285.43 202.188,285.25C202.508,285.04 200.708,286.73 199.988,287.27C199.168,287.7 197.258,288.46 197.618,288.17Z" style="fill:white;"/>
        <path id="path135" d="M202.908,294.22C203.228,294.04 206.148,291.77 206.398,291.3C206.578,290.8 204.748,290.9 204.208,291.48C203.478,291.88 202.548,294.22 202.908,294.22Z" style="fill:white;"/>
        <path id="path137" d="M198.698,308.15C199.708,309.7 201.178,312.11 203.268,315.1C205.318,318.19 207.838,321.72 210.968,326.26L212.088,325.53C210.718,323.84 208.988,321.72 206.758,318.77C204.528,315.81 201.788,312.32 198.698,308.15Z" style="fill:white;"/>
        <path id="path139" d="M191.749,330.9C192.399,331.73 192.899,332.52 193.399,333.28C193.909,334.03 194.559,334.75 194.659,335.29C194.659,335.72 194.309,336.37 193.579,335.83C192.789,335.11 191.779,333.74 190.269,331.44C189.549,331.69 188.869,331.76 188.619,331.8C188.259,331.69 188.179,331.69 188.259,331.26C188.259,330.83 188.329,330.11 188.619,329.24L179.109,314.95C177.919,315.17 176.989,314.99 176.699,314.41C176.299,313.76 176.379,312.72 176.919,311.28L164.639,293.17C163.269,292.95 162.409,292.63 162.049,292.05C161.619,291.48 161.689,290.79 162.269,289.86L155.639,280.711C152.829,280.791 150.889,280.571 149.409,280.361C147.899,280.071 147.429,279.641 147.039,279.061C146.529,278.411 146.529,277.441 147.039,276.681C147.499,275.861 148.549,274.881 150.169,273.911L146.319,275.571C145.059,275.031 144.119,274.311 143.359,273.551C142.569,272.651 141.379,271.031 141.739,270.641C141.959,270.101 144.439,270.961 145.019,271.001C145.519,271.031 145.519,271.031 145.019,271.001C145.199,269.631 145.019,268.151 144.479,266.421C143.869,264.661 142.359,261.921 141.739,260.741C140.949,259.481 140.589,259.081 140.269,259.261L139.549,255.231C139.979,255.051 141.019,256.201 142.819,259.081C144.589,261.821 148.979,270.311 150.169,271.931C151.139,273.341 150.489,271.281 149.049,268.261C147.579,265.131 145.129,260.481 141.559,253.791L142.639,251.591C145.269,256.561 147.399,260.841 149.409,264.591C151.359,268.331 152.899,271.251 154.199,273.731C155.529,273.191 156.249,272.401 156.759,271.361C157.039,270.311 156.719,268.511 156.759,267.501C156.759,266.321 156.359,265.451 156.939,264.771C157.409,264.081 158.769,263.331 160.069,263.471C161.399,263.471 163.239,263.981 164.459,265.131C165.539,266.241 166.329,268.761 166.259,270.461C165.899,272.181 164.499,274.131 163.169,275.031C161.729,275.711 159.529,274.451 158.229,274.851C156.869,275.171 155.929,275.961 155.279,277.221L163.169,288.02C162.369,285.72 162.119,283.85 162.269,281.97C162.369,280.031 163.019,278.341 164.069,277.041C164.999,275.681 166.479,274.341 168.099,274.311C169.579,274.241 172.129,275.281 173.429,276.861C174.619,278.451 175.479,281.44 175.619,283.45C175.659,285.39 175.149,287.12 173.969,288.2C172.669,289.07 170.079,288.67 168.679,288.96C167.239,289.1 166.009,289.14 165.539,289.5C164.929,289.86 164.969,290.26 165.359,290.98C167.019,293.6 168.849,296.23 170.869,299.4C172.889,302.46 175.079,305.7 177.459,309.26L177.999,304.33C177.239,302.96 176.989,301.67 177.099,300.3C177.139,298.82 177.679,296.92 178.719,296.09C179.729,295.15 181.529,294.47 183.149,295.01C184.699,295.33 186.499,297.1 187.719,298.64C188.729,300.19 189.519,302.46 189.559,304.33C189.409,306.06 188.509,307.97 187.539,309.08C186.459,310.16 185.129,310.38 183.689,310.56C182.249,310.6 180.769,310.24 179.109,309.48L178.719,311.1L182.569,317.9C183.359,316.5 184.299,315.28 185.519,314.23C186.669,313.15 189.119,311.32 189.549,311.5C189.879,311.6 188.289,313.87 187.719,314.95C187.029,315.85 186.129,316.57 185.699,317.51C185.199,318.48 184.839,319.99 184.759,320.64L189.549,327.41L189.729,323.02C189.079,321.83 188.829,320.6 188.979,319.34C189.079,317.98 189.589,316.36 190.629,315.31C191.639,314.2 193.479,313.19 195.019,313.12C196.498,312.94 197.758,313.55 199.238,314.95C200.678,316.43 202.478,319.38 203.088,321.72C203.408,324.03 202.768,326.83 201.828,328.35C200.888,329.57 198.978,329.93 197.618,329.96C196.068,329.96 194.629,329.64 193.009,328.7L191.389,329.06C191.499,329.68 191.599,330.29 191.749,330.9ZM164.999,278.521C164.709,279.311 164.599,280.391 164.819,281.62C164.859,282.84 165.139,284.71 166.079,285.83C166.939,286.87 169.499,287.59 170.689,287.84C171.839,287.77 172.599,287.48 173.239,286.58C173.779,285.68 174.219,284.57 174.139,283.09C173.959,281.51 173.279,278.991 172.489,277.761C171.519,276.471 170.039,275.931 169.029,275.751C168.059,275.501 167.269,275.781 166.659,276.321C165.939,276.761 165.249,277.621 164.999,278.521ZM178.179,301.24C178.179,302.64 179.039,304.58 179.649,305.81C180.189,306.96 180.589,307.46 181.669,308C182.679,308.47 184.729,308.72 185.879,308.36C186.959,307.89 187.829,306.42 188.079,305.05C188.109,303.46 187.789,300.94 186.959,299.58C186.059,298.17 184.729,297.13 183.509,296.84C182.209,296.45 180.559,296.62 179.649,297.38C178.719,298.1 178.179,299.76 178.179,301.24ZM192.109,317.15C191.139,318.16 190.919,319.56 191.169,321.36C191.459,323.02 192.499,325.79 193.759,327.05C194.809,328.16 196.718,328.49 197.978,328.16C199.158,327.73 200.858,326.44 201.248,324.85C201.578,323.09 200.888,320.03 200.168,318.44C199.238,316.86 197.868,315.85 196.498,315.71C195.019,315.42 193.009,316.18 192.109,317.15Z" style="fill:rgb(192,192,192);stroke:black;stroke-width:0.04px;"/>
        <path id="path141" d="M166.259,279.961C166.299,278.841 166.769,278.121 167.379,277.941C167.989,277.731 169.359,277.981 170.109,278.701C170.899,279.201 171.409,280.251 171.769,281.44C171.949,282.59 171.879,284.96 171.409,285.65C170.759,286.19 169.569,285.68 168.669,285.11C167.809,284.46 167.119,283.42 166.479,281.97C166.149,283.2 166.229,284.24 166.839,285.11C167.379,285.86 168.929,286.8 169.929,286.94C170.829,287.09 171.879,286.73 172.489,286.01C173.029,285.14 173.279,283.74 173.249,282.37C173.069,280.93 172.669,278.701 171.769,277.761C170.689,276.831 168.749,276.361 167.739,276.501C166.799,276.471 166.409,277.111 166.259,277.761C165.969,278.271 165.969,279.101 166.259,279.961Z" style="fill:rgb(64,64,64);stroke:black;stroke-width:0.04px;"/>
        <path id="path143" d="M180.189,301.96C180.229,300.44 180.549,299.58 181.309,299.22C181.989,298.86 183.859,299.15 184.579,299.94C185.199,300.73 185.449,303.11 185.339,304.15C185.159,305.12 184.619,305.77 183.859,305.81C183.069,305.77 182.029,305.27 180.729,304.15C181.199,305.66 181.809,306.71 182.569,307.28C183.289,307.75 184.079,308 184.939,307.64C185.659,307.28 186.529,306.6 186.959,305.45C187.249,304.22 187.139,302.14 186.779,300.84C186.349,299.58 185.519,298.43 184.579,297.92C183.429,297.35 181.629,297.17 180.729,297.38C179.759,297.53 179.619,298.21 179.469,299.04C179.439,299.76 179.539,300.73 180.189,301.96Z" style="fill:rgb(64,64,64);stroke:black;stroke-width:0.04px;"/>
        <path id="path145" d="M192.109,322.3C191.749,321.54 191.639,320.75 191.929,319.92C192.069,318.98 192.759,317.69 193.579,317.15C194.449,316.57 196.028,316.07 197.218,316.61C198.228,317.15 199.668,318.59 200.168,320.1C200.638,321.4 200.638,323.63 200.168,324.85C199.598,326 198.338,327.23 197.218,327.41C196.028,327.41 194.809,326.87 193.399,325.39C195.459,325.75 196.928,325.64 197.978,325.21C198.978,324.67 199.238,323.77 199.418,322.66C199.488,321.47 199.238,319.63 198.518,318.8C197.718,317.94 195.958,317.58 195.019,317.72C194.119,317.94 193.399,318.59 193.009,319.52C192.469,320.31 192.219,321.14 192.109,322.3Z" style="fill:rgb(64,64,64);stroke:black;stroke-width:0.04px;"/>
        <path id="path147" d="M163.519,266.061C164.319,267.071 164.859,268.041 164.999,268.981C165.109,269.921 164.929,270.961 164.459,271.721C163.919,272.471 163.159,272.831 162.049,273.191C160.649,272.261 159.849,271.251 159.669,270.461C159.419,269.591 160.069,268.801 160.789,268.081C161.359,267.291 162.369,266.711 163.519,266.061Z" style="fill:white;"/>
        <path id="path149" d="M152.729,275.391C150.999,276.071 150.129,276.681 149.989,277.221C149.879,277.731 150.959,278.161 151.829,278.521C152.469,278.741 153.269,278.951 154.199,278.881C153.729,277.731 153.229,276.581 152.729,275.391Z" style="fill:white;"/>
        <path id="path151" d="M146.859,269.341L148.689,272.651C148.259,273.771 147.649,274.451 146.859,274.311C145.919,274.161 143.579,272.511 143.579,272.111C143.509,271.641 146.459,272.361 147.039,271.931C147.609,271.431 147.499,270.561 146.859,269.341Z" style="fill:white;"/>
        <path id="path153" d="M159.489,268.261C159.889,268.621 162.439,267.251 162.979,266.781C163.309,266.211 162.439,265.671 162.049,265.311C161.539,264.841 161.259,263.941 160.789,264.411C160.209,264.881 159.129,267.831 159.489,268.261Z" style="fill:rgb(64,64,64);"/>
        <path id="path155" d="M159.849,271.181C160.179,271.251 161.469,273.161 161.509,273.551C161.399,273.841 159.709,273.341 159.489,273.011C159.199,272.581 159.459,271.001 159.849,271.181Z" style="fill:rgb(64,64,64);"/>
        <path id="path157" d="M157.299,273.551C156.649,273.881 154.779,275.241 154.739,275.571C154.559,275.781 155.819,275.281 156.579,275.031C157.219,274.631 158.559,273.771 158.769,273.551C158.919,273.191 157.869,273.191 157.299,273.551Z" style="fill:rgb(64,64,64);"/>
        <path id="path159" d="M208.018,344.18C206.438,342.67 205.028,341.56 203.808,340.69C202.548,339.68 201.968,339.18 200.528,339.04C198.978,339 196.098,339.5 194.659,340.15C193.119,340.62 192.069,341.23 191.389,341.99C190.489,342.6 189.949,343.39 189.909,344.36C189.879,345.37 190.239,346.74 190.989,347.64C191.569,348.36 192.719,348.79 193.759,348.94C194.769,348.94 195.709,348.68 196.858,348.04C196.718,347.53 197.008,346.85 197.578,346.38C198.118,345.88 199.088,345.19 200.348,344.72C199.088,345.55 198.368,346.45 197.798,347.28C197.328,348.14 196.998,348.94 197.218,349.66C197.358,350.16 197.688,350.38 198.338,350.59C198.798,350.74 199.418,350.74 200.168,350.59C200.598,349.91 201.108,349.41 201.828,348.94C202.508,348.43 203.408,348.11 204.378,347.82C202.508,349.08 201.108,350.13 200.168,351.5C199.158,352.64 198.838,354.3 198.518,355.35C198.078,356.28 197.578,356.89 197.978,357.72C198.338,358.59 199.378,360.03 200.528,360.5C201.578,360.82 203.478,360.35 204.018,359.92C204.348,359.38 203.158,358.41 203.088,357.54C202.908,356.53 202.658,355.31 203.448,354.45C204.168,353.58 205.568,352.97 207.658,352.61C206.108,353.11 204.918,353.84 204.378,354.63C203.808,355.35 203.738,356.21 204.018,357.36C204.168,358.41 204.598,360.24 205.458,361.21C206.328,362.11 207.768,362.62 208.958,362.87C209.888,362.98 210.758,362.69 211.688,362.29C212.658,361.9 213.458,361.36 214.458,360.68C215.538,362.22 216.588,363.52 217.738,364.71C218.888,365.93 220.008,366.72 221.228,367.62C219.968,368.74 219.038,369.6 218.278,370.36C217.448,371.01 216.548,371.51 216.838,372.01C217.158,372.48 218.058,373.17 219.938,373.67C219.538,375.14 219.578,375.97 219.758,376.59C220.008,376.94 220.398,376.91 221.228,376.77C221.838,376.66 222.888,376.48 223.968,376.22L231.848,383.93L261.158,428.779C260.618,429.179 260.258,429.609 260.078,430.079C259.718,430.369 259.638,430.799 259.858,431.379C260.108,431.989 260.618,432.669 261.518,433.569C261.158,434.649 260.978,435.439 260.978,435.949C260.898,436.309 260.978,436.239 261.338,436.309C261.588,436.339 262.268,436.449 262.988,436.489C264.578,438.579 265.868,440.159 267.018,441.239C268.068,442.319 268.818,442.679 269.578,442.719C270.258,442.609 270.768,441.999 271.238,440.879L270.518,437.959C272.708,437.889 274.008,437.569 274.548,436.849C274.978,436.019 274.438,434.329 273.608,433.579C272.748,432.749 270.768,432.129 269.758,432.279C268.788,432.349 268.068,433.069 267.738,434.289L245.208,400.78L246.498,399.88L249.058,402.61C249.058,403.77 249.308,404.67 249.808,405.17C250.248,405.6 251.148,406 251.828,405.53C252.518,404.95 253.768,402.83 253.668,402.08C253.338,401.25 252.228,400.81 250.178,400.78L248.338,397.64C249.818,395.74 250.928,394.48 251.828,393.43C252.658,392.43 253.198,391.78 253.448,391.63C255.068,393.36 257.008,394.41 259.138,394.91C261.298,395.41 264.288,395.38 266.298,394.37C268.248,393.14 269.898,390.05 270.688,388.14C271.308,386.2 271.268,384.29 270.298,382.81C269.248,381.23 266.338,379.75 264.468,378.96C262.488,378.1 260.428,377.7 258.598,378.06C256.688,378.31 254.308,379.1 253.268,380.98C252.188,382.85 251.718,385.41 252.008,389.04C250.498,390.12 249.378,391.06 248.518,391.99C247.618,392.86 247.008,393.65 246.678,394.37L235.338,378.6C236.958,379.18 238.078,379.18 238.978,378.6C239.768,377.92 240.848,376.01 240.268,374.96C239.588,373.92 236.128,372.7 235.158,372.55C234.078,372.26 233.758,372.73 234.048,373.67L229.478,367.62L235.158,363.23L236.598,365.06C236.058,366.58 236.168,367.73 236.778,368.52C237.318,369.24 239.268,369.89 240.268,369.63C241.138,369.31 242.898,367.94 242.648,366.9C242.288,365.82 240.888,364.7 238.438,363.41L237.718,361.93C238.108,361.25 238.358,360.74 238.618,360.28C238.828,359.74 239.368,359.38 238.978,359.2C238.468,359.02 237.428,359.02 235.698,359.2L223.428,340.87L225.618,339.61C226.378,340.55 227.488,341.34 229.108,341.99C230.628,342.6 233.328,343.86 234.978,343.43C236.558,342.81 238.108,340.51 238.798,338.86C239.368,337.09 239.368,334.79 238.798,333.35C238.148,331.87 236.738,330.65 235.158,330.07C233.428,329.39 230.618,329.1 229.108,329.35C227.558,329.53 226.658,330.07 225.978,331.37C225.148,332.59 224.648,334.46 224.318,336.84L221.408,337.78C220.078,335.62 218.918,333.85 218.098,332.63C217.198,331.33 216.578,330.54 216.258,330.25L214.058,331.55L219.028,339.22C216.658,340.55 214.928,341.59 213.698,342.35C212.478,343 211.758,343.36 211.688,343.43L210.788,341.99C211.078,340.04 210.898,338.82 210.248,338.32C209.558,337.7 207.438,338.39 206.938,338.86C206.428,339.25 206.718,340.3 207.118,340.87C207.438,341.38 207.938,341.7 208.768,341.99L209.128,343.43C208.778,343.68 208.418,343.93 208.018,344.18ZM214.468,346.92C215.258,345.77 216.118,344.8 217.198,344C218.248,343.21 219.358,342.6 220.688,342.17L233.688,359.92C232.178,361.21 231.098,362.15 230.018,362.87C228.968,363.55 228.068,364.02 227.458,364.13L222.708,357.18C224.688,356.86 225.618,356.24 225.798,355.34C225.908,354.26 224.288,351.96 223.428,351.49C222.418,351.02 221.298,351.46 219.938,352.79C218.678,350.99 217.708,349.55 217.018,348.76C216.228,347.89 216.118,347.89 215.718,347.64C215.218,347.31 214.928,347.03 214.468,346.92Z" style="fill:rgb(192,192,192);stroke:black;stroke-width:0.04px;"/>
        <path id="path161" d="M230.948,331.55C232.638,331.8 233.718,332.45 234.588,333.35C235.378,334.21 235.528,335.33 235.708,336.84C235.778,338.32 235.488,339.79 234.978,341.81C236.818,340.91 237.968,339.79 238.438,338.32C238.758,336.8 238.478,334.1 237.718,332.99C236.958,331.76 235.088,331.55 234.048,331.37C232.818,331.08 231.928,331.19 230.948,331.55Z" style="fill:white;"/>
        <path id="path163" d="M260.078,380.44C263.458,381.98 265.588,383.35 266.848,384.83C267.928,386.2 267.488,387.35 267.208,388.86C266.948,390.34 266.228,391.88 265.188,393.65C267.308,392.1 268.568,390.66 269.398,389.04C270.048,387.31 270.158,385.48 269.578,384.11C268.928,382.67 267.488,382.06 266.088,381.16C264.578,380.11 261.948,378.74 260.978,378.6C260.008,378.42 259.608,379.03 260.078,380.44Z" style="fill:white;"/>
        <path id="path165" d="M253.668,389.98C253.378,389.87 251.038,391.31 249.998,392.35C248.918,393.14 247.478,395.09 247.618,395.27C247.768,395.34 249.778,394.12 250.898,393.25C251.898,392.31 253.708,390.12 253.668,389.98Z" style="fill:white;"/>
        <path id="path167" d="M218.278,340.87C217.918,340.87 215.938,341.81 214.818,342.71C213.528,343.54 210.828,345.23 211.148,345.44C211.588,345.48 215.468,343.71 216.838,343.07C217.888,342.17 218.638,340.98 218.278,340.87Z" style="fill:white;"/>
        <path id="path169" d="M223.788,343.25C224.868,344.58 230.738,352.79 231.668,354.26C232.468,355.6 229.978,352.82 228.938,351.49C227.788,350.02 225.698,347.6 224.908,346.2C223.968,344.65 222.668,341.95 223.788,343.25Z" style="fill:white;"/>
        <path id="path171" d="M238.798,365.6C238.508,365.86 238.408,366.58 238.618,367.08C238.838,367.4 239.698,367.98 240.098,367.98C240.488,367.87 240.778,367.08 240.818,366.72C240.778,366.18 240.208,365.86 239.918,365.6C239.478,365.42 238.978,365.24 238.798,365.6Z" style="fill:white;"/>
        <path id="path173" d="M230.558,373.85L227.278,369.28C227.748,370.72 228.148,371.76 228.758,372.55C229.328,373.27 229.838,373.7 230.558,373.85Z" style="fill:white;"/>
        <path id="path175" d="M234.768,380.8C235.378,381.59 238.258,386.38 240.098,389.04C241.858,391.63 245.348,395.92 245.428,396.2C245.318,396.35 241.648,392.31 240.098,390.34C238.508,388.25 236.888,385.91 236.068,384.29C235.058,382.67 234.158,379.93 234.768,380.8Z" style="fill:white;"/>
        <path id="path177" d="M250.358,401.86C249.998,401.96 250.068,403.22 250.178,403.69C250.358,404.02 250.858,404.59 251.258,404.45C251.538,404.23 251.718,402.97 251.648,402.61C251.468,402.18 250.538,401.6 250.358,401.86Z" style="fill:white;"/>
        <path id="path179" d="M271.058,434.109C270.448,434.149 269.938,435.189 270.118,435.589C270.158,435.909 271.418,436.779 271.958,436.669C272.528,436.419 273.288,435.299 273.248,434.829C273.038,434.289 271.558,433.999 271.058,434.109Z" style="fill:white;"/>
        <path id="path181" d="M262.448,430.079C261.878,430.329 261.728,430.659 261.878,431.199C261.978,431.699 262.518,432.419 263.348,433.209C262.448,433.819 262.378,434.619 262.988,435.589C263.568,436.559 265.978,437.929 267.028,438.859C267.958,439.729 269.008,441.279 269.038,440.879C269.078,440.299 268.068,437.419 267.388,436.129C266.628,434.799 265.438,434.149 264.648,433.209C263.778,432.199 263.098,431.159 262.448,430.079Z" style="fill:white;"/>
        <path id="path183" d="M247.798,406.46L256.228,419.999C254.638,416.799 253.268,414.239 251.828,411.939C250.358,409.6 249.058,407.9 247.798,406.46Z" style="fill:white;"/>
        <path id="path185" d="M231.128,381.55C230.768,381.23 228.898,379.86 227.998,378.42C226.958,376.91 225.298,373.67 225.268,373.13C225.228,372.55 226.668,374.06 227.638,375.14C228.468,376.15 229.548,378.2 230.198,379.36C230.768,380.44 231.458,381.62 231.128,381.55Z" style="fill:white;"/>
        <path id="path187" d="M221.408,365.96C221.378,365.86 217.238,360.38 215.358,358.3C213.418,356.17 211.398,353.87 210.428,353.33C209.458,352.72 208.878,353.51 209.678,354.44C210.398,355.24 212.808,356.53 214.818,358.47C216.768,360.46 221.228,365.82 221.408,365.96Z" style="fill:white;"/>
        <path id="path189" d="M224.508,364.52C223.498,363.12 219.898,358.58 219.398,358.29C218.928,357.97 220.838,362.22 221.768,363.41C222.598,364.56 223.968,365.39 224.508,365.6C224.868,365.82 225.338,365.6 224.508,364.52Z" style="fill:white;"/>
        <path id="path191" d="M216.838,351.85C216.518,351.28 213.388,348.76 212.988,348.76C212.478,348.72 213.848,350.99 214.468,351.67C215.078,352.14 216.978,352.25 216.838,351.85Z" style="fill:white;"/>
        <path id="path193" d="M218.098,354.26C217.628,354.48 217.418,355.02 217.738,355.34C217.958,355.42 218.608,355.27 219.398,355.34C220.048,355.34 221.488,355.88 221.768,355.7C221.878,355.34 221.338,354.34 220.688,354.08C219.968,353.87 218.598,353.98 218.098,354.26Z" style="fill:white;"/>
        <path id="path195" d="M206.578,345.44C206.188,344.8 203.308,342.31 202.368,341.59C201.318,340.87 200.598,340.62 200.888,341.23C201.288,341.77 203.088,344.15 204.208,344.9C205.068,345.59 206.828,345.95 206.578,345.44Z" style="fill:rgb(64,64,64);"/>
        <path id="path197" d="M198.338,342.35L197.218,342.35C194.769,343.39 193.409,344.36 192.829,345.26C192.249,346.09 193.399,347.21 193.939,347.64C194.449,348 195.169,348.11 195.958,347.82C196.028,346.92 196.278,346.24 196.858,345.62C197.398,344.98 198.838,344.69 199.238,344.18C199.518,343.61 199.088,343 198.338,342.35Z" style="fill:rgb(64,64,64);"/>
        <path id="path199" d="M202.908,346.38C202.688,346.74 201.508,347.53 200.888,348.22C200.208,348.83 199.558,349.58 199.238,349.66C198.768,349.55 198.588,347.86 198.698,347.64C198.768,347.24 199.378,347.89 199.988,347.64C200.458,347.35 201.248,346.16 201.828,346.02C202.228,345.73 203.048,345.98 202.908,346.38Z" style="fill:rgb(64,64,64);"/>
        <path id="path201" d="M207.838,349.12C207.658,349.19 209.678,350.2 210.968,351.31C212.228,352.36 214.928,354.87 215.188,354.98C215.188,354.88 212.948,352.36 211.688,351.31C210.398,350.2 207.908,349.19 207.838,349.12Z" style="fill:rgb(64,64,64);"/>
        <path id="path203" d="M206.398,348.76C205.788,348.76 203.228,349.51 202.188,350.59C200.928,351.64 199.558,354.52 199.598,354.8C199.598,354.98 201.498,352.32 202.548,351.67C203.448,350.95 205.028,350.81 205.638,350.41C206.188,349.8 206.938,348.79 206.398,348.76Z" style="fill:rgb(64,64,64);"/>
        <path id="path205" d="M228.538,337.38C229.328,336.8 232.098,334.97 232.968,335.18C233.728,335.33 233.728,337.85 233.508,338.32C233.188,338.64 232.468,337.31 231.488,337.38C230.518,337.34 228.038,338.5 227.638,338.5C227.168,338.42 227.568,337.96 228.538,337.38Z" style="fill:rgb(64,64,64);"/>
        <path id="path207" d="M226.168,335.94C226.598,335.9 230.048,334.39 230.558,333.74C230.918,332.99 229.118,331.91 228.758,331.91C228.358,331.84 228.288,332.84 227.998,333.56C227.458,334.21 225.728,335.83 226.168,335.94Z" style="fill:rgb(64,64,64);"/>
        <path id="path209" d="M254.748,387.78C255.218,387.49 258.638,384.72 259.318,383.93C259.788,383.06 258.238,382.56 257.878,382.81C257.448,382.99 257.408,384.25 256.938,385.19C256.398,386.02 254.278,387.85 254.748,387.78Z" style="fill:rgb(64,64,64);"/>
        <path id="path211" d="M256.768,390.52C257.378,389.44 262.558,386.66 262.988,386.48C263.428,386.27 259.928,388.9 259.318,389.8C258.638,390.66 259.108,391.85 258.778,391.99C258.238,392.03 256.078,391.49 256.768,390.52Z" style="fill:rgb(64,64,64);"/>
        <path id="path213" d="M276.168,450.169C277.208,448.119 278.508,446.279 280.198,444.519C281.818,442.789 283.398,441.279 286.068,439.549C288.798,437.569 292.938,434.799 296.148,433.319C299.208,431.839 301.908,431.049 304.388,430.939L308.058,435.159L308.058,436.989C302.878,438.429 298.518,440.269 294.848,442.499C291.068,444.699 288.258,447.759 285.888,450.169C283.438,452.439 281.708,454.339 280.558,456.039L278.938,455.499C278.038,453.729 277.098,451.969 276.168,450.169Z" style="fill:rgb(192,192,192);stroke:black;stroke-width:0.04px;"/>
        <path id="path215" d="M282.578,447.249C285.018,444.299 287.688,441.599 290.998,439.549C294.208,437.459 297.768,435.619 301.838,434.439C297.158,436.669 293.338,438.859 290.098,441.019C286.818,443.179 284.408,445.159 282.578,447.249Z" style="stroke:black;stroke-width:0.04px;"/>
        <path id="path217" d="M319.398,560.328C320.158,557.198 321.558,554.238 324.158,551.328C326.527,548.338 329.337,546.648 334.237,542.898C339.167,539.019 347.127,533.079 353.677,528.829C360.117,524.469 366.417,520.659 372.717,517.809C378.977,514.969 384.957,513.059 391.037,511.939L389.927,517.809C389.887,516.769 387.797,516.949 383.517,518.749C379.087,520.439 371.527,523.639 364.297,528.069C356.987,532.429 346.577,540.279 340.277,545.098C333.877,549.848 329.407,553.738 326.747,556.468C324.158,559.068 323.328,560.578 324.548,560.868C323.038,560.688 321.918,560.618 321.058,560.508C320.158,560.438 319.658,560.328 319.398,560.328Z" style="fill:rgb(192,192,192);stroke:black;stroke-width:0.04px;"/>
        <path id="path219" d="M328.547,550.248C331.497,547.508 339.347,540.599 345.427,536.309C351.477,531.849 361.237,526.269 364.297,524.579C367.067,523.099 365.917,524.219 362.637,526.809C359.217,529.189 350.547,534.839 344.677,539.049C338.767,543.258 330.667,549.708 328.007,551.718C325.348,553.598 325.518,552.728 328.547,550.248Z" style="fill:white;"/>
        <path id="path221" d="M333.337,559.208C332.257,559.678 331.137,559.998 329.847,560.328C328.477,560.618 327.107,560.898 325.448,561.048C324.768,560.798 324.698,560.258 325.088,559.568C325.448,558.778 325.988,558.308 327.827,556.658C329.627,554.858 332.647,552.338 336.067,549.488C339.487,546.578 344.167,542.898 348.167,539.989C351.977,536.999 355.657,534.259 359.327,531.919C362.997,529.509 366.457,527.529 370.127,525.699C373.727,523.639 377.797,521.589 380.777,520.369C383.587,519.139 385.857,518.929 387.187,518.749C388.517,518.459 388.957,518.709 388.627,519.109C388.267,520.009 387.617,521.049 386.827,522.379C385.967,523.709 384.817,525.049 383.517,526.809C384.377,524.259 383.407,523.359 380.207,524.399C376.927,525.339 370.447,529.189 364.657,532.639C358.717,535.959 351.077,541.069 345.787,544.918C340.537,548.878 335.597,553.128 333.517,555.718C331.427,558.098 331.317,559.208 333.337,559.208Z" style="fill:rgb(97,97,97);stroke:black;stroke-width:0.04px;"/>
        <path id="path223" d="M347.987,542.718C350.647,540.669 353.637,538.479 357.487,536.139C361.347,533.689 369.947,528.649 371.247,528.249C372.357,527.779 367.897,530.879 364.657,533.219C361.267,535.339 355.727,538.549 351.477,541.459C347.047,544.378 341.107,549.128 339.207,550.428C337.437,551.398 339.017,549.598 340.637,548.228C342.047,546.858 345.147,544.698 347.987,542.718Z" style="fill:rgb(192,192,192);"/>
    </g>
</svg>
