<?xml version="1.0" encoding="UTF-8" standalone="no"?>
<!DOCTYPE svg PUBLIC "-//W3C//DTD SVG 1.1//EN" "http://www.w3.org/Graphics/SVG/1.1/DTD/svg11.dtd">
<svg width="100%" height="100%" viewBox="0 0 126 72" version="1.1" xmlns="http://www.w3.org/2000/svg" xmlns:xlink="http://www.w3.org/1999/xlink" xml:space="preserve" xmlns:serif="http://www.serif.com/" style="fill-rule:evenodd;clip-rule:evenodd;">
    <g id="Ebene-1" serif:id="Ebene 1" transform="matrix(1,0,0,1,-242.312,-255.455)">
        <g id="path5710" transform="matrix(1,0,0,1,-2.79815,-0.195015)">
            <path d="M275.898,273.03L341.432,274.292C342.862,272.868 341.893,271.234 341.432,270.125C339.43,266.789 323.55,263.712 311.758,263.686C288.573,263.634 279.433,268.358 279.433,268.358C276.708,270.357 276.328,271.686 275.898,273.03Z" style="fill:white;stroke:rgb(128,0,128);stroke-width:0.35px;"/>
        </g>
        <g id="path4169" transform="matrix(1,0,0,1,-2.79815,-0.195015)">
            <path d="M308.005,268.701C333.718,269.523 338.005,273.434 338.005,273.434C338.005,273.434 332.607,279.219 307.737,279.059C280.651,278.883 280.801,273.677 280.801,273.677C280.801,273.677 284.648,267.955 308.005,268.701Z" style="fill:url(#_Radial1);stroke:black;stroke-width:1.06px;"/>
        </g>
        <g id="path4167" transform="matrix(1,0,0,1,-2.79815,-0.195015)">
            <path d="M280.939,274.149C280.939,274.149 281.423,268.607 307.228,268.607C330.512,268.607 338.032,274.054 338.032,274.054L339.282,271.554C339.509,269.506 322.514,264.726 307.318,265.929C292.435,267.107 280.753,267.714 279.014,272.179L280.939,274.149Z" style="fill:rgb(0,18,95);stroke:black;stroke-width:1.06px;"/>
        </g>
        <g id="path4235" transform="matrix(1,0,0,1,-2.79815,-0.195015)">
            <path d="M301.507,275.115C301.241,277.594 299.152,279.434 296.879,279.191C294.607,278.947 292.955,276.707 293.22,274.227C293.22,274.227 293.22,274.227 293.22,274.227C293.486,271.748 295.575,269.908 297.848,270.151C297.848,270.151 297.848,270.151 297.848,270.151C300.121,270.395 301.772,272.635 301.507,275.115Z" style="fill:url(#_Radial2);fill-rule:nonzero;stroke:black;stroke-width:1.06px;stroke-linecap:round;stroke-linejoin:bevel;"/>
        </g>
        <g id="path4183" transform="matrix(1,0,0,1,-2.79815,-0.195015)">
            <path d="M275.772,285.151L275.898,301.945C275.898,301.945 283.466,311.459 309.107,311.542C330.945,311.612 342.189,301.188 342.189,301.188L342.063,285.909C342.063,285.909 333.129,293.008 308.349,292.98C279.307,292.947 275.772,285.151 275.772,285.151Z" style="fill:url(#_Linear3);stroke:black;stroke-width:1.06px;"/>
        </g>
        <g id="path4235-2" transform="matrix(0.985192,-0.171455,0.171455,0.985192,-2.79815,-0.195015)">
            <path d="M268.893,325.896L268.893,325.896C268.893,328.389 267.012,330.441 264.727,330.441L264.726,330.441C262.441,330.441 260.56,328.389 260.56,325.896L260.56,325.896C260.56,323.402 262.441,321.35 264.726,321.35L264.727,321.35C267.012,321.35 268.893,323.402 268.893,325.896Z" style="fill:url(#_Radial4);fill-rule:nonzero;stroke:black;stroke-width:1.06px;stroke-linecap:round;stroke-linejoin:bevel;"/>
        </g>
        <g id="path4147" transform="matrix(1,0,0,1,-2.79815,-0.195015)">
            <path d="M308.921,263.729C290.576,263.729 275.704,267.73 275.706,272.665C275.708,277.599 290.578,281.599 308.921,281.599C327.264,281.599 342.765,277.347 342.767,272.412C342.769,267.477 327.267,263.729 308.921,263.729ZM309.202,266.211C325.232,266.211 338.227,269.141 338.232,272.755C338.232,276.371 325.235,279.302 309.202,279.302C293.169,279.302 280.171,276.371 280.171,272.755C280.175,269.141 293.172,266.211 309.202,266.211Z" style="fill:url(#_Radial5);fill-rule:nonzero;stroke:black;stroke-width:1.06px;stroke-linecap:round;stroke-linejoin:bevel;"/>
        </g>
        <g id="path4210" transform="matrix(1,0,0,1,-2.79815,-0.195015)">
            <path d="M337.265,304.471L341.81,285.656L342.315,301.188C341.337,302.282 339.918,303.376 337.265,304.471ZM318.956,310.531L328.426,291.591L337.265,304.597C332.284,307.975 325.946,309.497 318.956,310.531ZM296.985,310.531L308.223,293.738L319.587,310.405C311.633,311.591 304.294,312.28 296.985,310.531ZM279.56,304.471L288.146,291.465L297.869,310.91C291.533,309.383 284.94,308.543 279.56,304.471ZM275.772,285.783L280.065,304.976C278.55,304.056 277.034,303.211 275.519,301.314L275.772,285.783Z" style="fill:url(#_Linear6);stroke:black;stroke-width:1.06px;stroke-linejoin:bevel;"/>
        </g>
        <g id="path4181-5" transform="matrix(1,0,0,1,-2.79815,-0.195015)">
            <path d="M275.519,301.496C274.194,298.087 275.014,311.282 275.014,311.282C275.014,311.282 281.821,323.028 308.097,322.772C334.76,322.513 342.063,314.312 342.063,314.312C343.126,313.533 343.22,313.09 343.263,311.913C343.284,308.314 343.824,298.597 342.631,301.37C342.631,301.37 330.069,311.722 307.15,311.534C298.718,311.863 281.307,308.386 275.519,301.496Z" style="fill:url(#_Linear7);stroke:black;stroke-width:1.06px;"/>
        </g>
        <g id="g4177" transform="matrix(0.974303,0,0,0.974303,2.99233,7.25598)">
            <path id="path4171" d="M249.821,262.541C248.12,261.851 247.349,264.474 249.286,265.041L294.783,274.825C294.64,273.974 294.873,272.871 295.229,272.02L249.821,262.541Z" style="fill:rgb(138,71,8);stroke:black;stroke-width:1px;"/>
        </g>
        <g id="path4171-7" transform="matrix(1.13567,0,0,1.07878,-46.2508,-21.9239)">
            <path d="M362.481,261.983C364.299,261.728 363.652,259.072 361.693,259.551L320.29,273.164C320.72,274.184 320.936,275.145 320.866,275.832L362.481,261.983Z" style="fill:rgb(138,71,8);stroke:black;stroke-width:1px;"/>
        </g>
        <g id="path6480" transform="matrix(1,0,0,1,-2.79815,-0.195015)">
            <path d="M274.643,301.112C279.636,306.123 284.022,306.887 288.571,308.791L288.036,319.684C283.72,318.7 279.255,316.368 274.464,311.112L274.643,301.112Z" style="fill:none;"/>
        </g>
        <g id="path6480-7" transform="matrix(1,0,0,1,-2.79815,-0.195015)">
            <path d="M318.394,310.716C332.226,309.16 337.875,304.874 342.929,302.232L343.151,313.377C338.33,316.434 330.835,320.416 318.468,321.726L318.394,310.716Z" style="fill:none;"/>
        </g>
        <g id="path6480-0" transform="matrix(1,0,0,1,-2.79815,-0.195015)">
            <path d="M275.21,273.593C280.203,278.603 285.095,277.853 289.644,279.756L288.603,291.154C284.287,290.17 279.822,288.849 275.032,283.593L275.21,273.593Z" style="fill:none;"/>
        </g>
        <g id="path6480-7-2" transform="matrix(1,0,0,1,-2.79815,-0.195015)">
            <path d="M317.184,281.11C331.016,281.07 337.17,278.552 342.224,274.142L342.446,285.287C336.362,287.839 330.129,291.063 317.763,292.373L317.184,281.11Z" style="fill:none;"/>
        </g>
        <g id="path6560" transform="matrix(1,0,0,1,-2.79815,-0.195015)">
            <path d="M299.632,276.086C299.632,276.29 299.464,276.459 299.26,276.459C299.055,276.459 298.887,276.29 298.887,276.086C298.887,276.086 298.887,276.086 298.887,276.086C298.887,275.882 299.055,275.714 299.26,275.714C299.464,275.714 299.632,275.882 299.632,276.086C299.632,276.086 299.632,276.086 299.632,276.086Z" style="fill-rule:nonzero;"/>
        </g>
        <g id="path6560-8" transform="matrix(1,0,0,1,-2.79815,-0.195015)">
            <path d="M298.999,277.007C298.999,277.211 298.831,277.379 298.626,277.379C298.422,277.379 298.254,277.211 298.254,277.007C298.254,277.007 298.254,277.007 298.254,277.007C298.254,276.803 298.422,276.635 298.626,276.635C298.831,276.635 298.999,276.803 298.999,277.007C298.999,277.007 298.999,277.007 298.999,277.007Z" style="fill-rule:nonzero;"/>
        </g>
        <g id="path6560-0" transform="matrix(1,0,0,1,-2.79815,-0.195015)">
            <path d="M300.325,277.007C300.325,277.211 300.156,277.379 299.952,277.379C299.748,277.379 299.58,277.211 299.58,277.007C299.58,277.007 299.58,277.007 299.58,277.007C299.58,276.803 299.748,276.635 299.952,276.635C300.156,276.635 300.325,276.803 300.325,277.007C300.325,277.007 300.325,277.007 300.325,277.007Z" style="fill-rule:nonzero;"/>
        </g>
        <g id="path6560-1" transform="matrix(1,0,0,1,-2.79815,-0.195015)">
            <path d="M300.514,275.934C300.514,276.138 300.346,276.306 300.142,276.306C299.937,276.306 299.769,276.138 299.769,275.934C299.769,275.934 299.769,275.934 299.769,275.934C299.769,275.729 299.937,275.561 300.142,275.561C300.346,275.561 300.514,275.729 300.514,275.934C300.514,275.934 300.514,275.934 300.514,275.934Z" style="fill-rule:nonzero;"/>
        </g>
        <g id="path6560-85" transform="matrix(1,0,0,1,-2.79815,-0.195015)">
            <path d="M299.441,277.828C299.441,278.032 299.273,278.2 299.068,278.2C298.864,278.2 298.696,278.032 298.696,277.828C298.696,277.828 298.696,277.828 298.696,277.828C298.696,277.623 298.864,277.455 299.068,277.455C299.273,277.455 299.441,277.623 299.441,277.828C299.441,277.828 299.441,277.828 299.441,277.828Z" style="fill-rule:nonzero;"/>
        </g>
        <g id="path6560-6" transform="matrix(1,0,0,1,-2.79815,-0.195015)">
            <path d="M301.145,275.113C301.145,275.317 300.977,275.485 300.773,275.485C300.569,275.485 300.4,275.317 300.4,275.113C300.4,275.113 300.4,275.113 300.4,275.113C300.4,274.909 300.569,274.74 300.773,274.74C300.977,274.74 301.145,274.909 301.145,275.113C301.145,275.113 301.145,275.113 301.145,275.113Z" style="fill-rule:nonzero;"/>
        </g>
        <g id="path6560-65" transform="matrix(1,0,0,1,-2.79815,-0.195015)">
            <path d="M298.367,278.017C298.367,278.221 298.199,278.39 297.995,278.39C297.791,278.39 297.623,278.221 297.623,278.017C297.623,278.017 297.623,278.017 297.623,278.017C297.623,277.813 297.791,277.645 297.995,277.645C298.199,277.645 298.367,277.813 298.367,278.017C298.367,278.017 298.367,278.017 298.367,278.017Z" style="fill-rule:nonzero;"/>
        </g>
        <g id="path6560-3" transform="matrix(1,0,0,1,-2.79815,-0.195015)">
            <path d="M313.772,275.807C313.772,276.012 313.604,276.18 313.4,276.18C313.196,276.18 313.027,276.012 313.027,275.807C313.027,275.807 313.027,275.807 313.027,275.807C313.027,275.603 313.196,275.435 313.4,275.435C313.604,275.435 313.772,275.603 313.772,275.807C313.772,275.807 313.772,275.807 313.772,275.807Z" style="fill-rule:nonzero;"/>
        </g>
        <g id="path6560-34" transform="matrix(1,0,0,1,-2.79815,-0.195015)">
            <path d="M314.025,277.007C314.025,277.211 313.857,277.379 313.652,277.379C313.448,277.379 313.28,277.211 313.28,277.007C313.28,277.007 313.28,277.007 313.28,277.007C313.28,276.803 313.448,276.635 313.652,276.635C313.857,276.635 314.025,276.803 314.025,277.007C314.025,277.007 314.025,277.007 314.025,277.007Z" style="fill-rule:nonzero;"/>
        </g>
        <g id="path6560-4" transform="matrix(1,0,0,1,-2.79815,-0.195015)">
            <path d="M315.224,278.396C315.224,278.6 315.056,278.768 314.852,278.768C314.648,278.768 314.479,278.6 314.479,278.396C314.479,278.396 314.479,278.396 314.479,278.396C314.479,278.192 314.648,278.023 314.852,278.023C315.056,278.023 315.224,278.192 315.224,278.396C315.224,278.396 315.224,278.396 315.224,278.396Z" style="fill-rule:nonzero;"/>
        </g>
        <g id="path6560-32" transform="matrix(1,0,0,1,-2.79815,-0.195015)">
            <path d="M316.613,278.396C316.613,278.6 316.445,278.768 316.241,278.768C316.037,278.768 315.868,278.6 315.868,278.396C315.868,278.396 315.868,278.396 315.868,278.396C315.868,278.192 316.037,278.023 316.241,278.023C316.445,278.023 316.613,278.192 316.613,278.396C316.613,278.396 316.613,278.396 316.613,278.396Z" style="fill-rule:nonzero;"/>
        </g>
        <g id="path6560-15" transform="matrix(1,0,0,1,-2.79815,-0.195015)">
            <path d="M314.404,277.891C314.404,278.095 314.235,278.263 314.031,278.263C313.827,278.263 313.659,278.095 313.659,277.891C313.659,277.891 313.659,277.891 313.659,277.891C313.659,277.687 313.827,277.518 314.031,277.518C314.235,277.518 314.404,277.687 314.404,277.891C314.404,277.891 314.404,277.891 314.404,277.891Z" style="fill-rule:nonzero;"/>
        </g>
        <g id="path6560-157" transform="matrix(1,0,0,1,-2.79815,-0.195015)">
            <path d="M315.224,277.323C315.224,277.527 315.056,277.695 314.852,277.695C314.648,277.695 314.479,277.527 314.479,277.323C314.479,277.323 314.479,277.323 314.479,277.323C314.479,277.118 314.648,276.95 314.852,276.95C315.056,276.95 315.224,277.118 315.224,277.323C315.224,277.323 315.224,277.323 315.224,277.323Z" style="fill-rule:nonzero;"/>
        </g>
        <g id="path6560-2" transform="matrix(1,0,0,1,-2.79815,-0.195015)">
            <path d="M297.294,277.954C297.294,278.158 297.126,278.326 296.922,278.326C296.717,278.326 296.549,278.158 296.549,277.954C296.549,277.954 296.549,277.954 296.549,277.954C296.549,277.75 296.717,277.582 296.922,277.582C297.126,277.582 297.294,277.75 297.294,277.954C297.294,277.954 297.294,277.954 297.294,277.954Z" style="fill-rule:nonzero;"/>
        </g>
        <g id="path6560-9" transform="matrix(1,0,0,1,-2.79815,-0.195015)">
            <path d="M297.926,277.323C297.926,277.527 297.757,277.695 297.553,277.695C297.349,277.695 297.181,277.527 297.181,277.323C297.181,277.323 297.181,277.323 297.181,277.323C297.181,277.118 297.349,276.95 297.553,276.95C297.757,276.95 297.926,277.118 297.926,277.323C297.926,277.323 297.926,277.323 297.926,277.323Z" style="fill-rule:nonzero;"/>
        </g>
        <g id="path6721" transform="matrix(1,0,0,1,-2.79815,-0.195015)">
            <path d="M275.645,272.272L275.519,284.52C275.519,284.52 277.78,293.109 307.97,292.854C334.634,292.628 342.189,285.656 342.189,285.656C342.873,285.761 342.778,284.308 342.821,283.131L342.821,272.272C342.821,272.272 342.674,281.372 307.465,281.49C277.942,281.588 275.645,272.272 275.645,272.272Z" style="fill:url(#_Linear8);stroke:black;stroke-width:1.06px;"/>
        </g>
    </g>
    <defs>
        <radialGradient id="_Radial1" cx="0" cy="0" r="1" gradientUnits="userSpaceOnUse" gradientTransform="matrix(29.2453,0,0,5.74532,303.858,274.732)"><stop offset="0" style="stop-color:rgb(232,190,138);stop-opacity:1"/><stop offset="1" style="stop-color:rgb(170,128,80);stop-opacity:1"/></radialGradient>
        <radialGradient id="_Radial2" cx="0" cy="0" r="1" gradientUnits="userSpaceOnUse" gradientTransform="matrix(0.452972,4.125,-5.04312,0.553793,297.239,271.796)"><stop offset="0" style="stop-color:rgb(255,214,214);stop-opacity:1"/><stop offset="1" style="stop-color:rgb(189,0,26);stop-opacity:1"/></radialGradient>
        <linearGradient id="_Linear3" x1="0" y1="0" x2="1" y2="0" gradientUnits="userSpaceOnUse" gradientTransform="matrix(67.4824,0,0,67.4824,275.24,298.444)"><stop offset="0" style="stop-color:rgb(255,247,168);stop-opacity:1"/><stop offset="1" style="stop-color:rgb(255,229,103);stop-opacity:1"/></linearGradient>
        <radialGradient id="_Radial4" cx="0" cy="0" r="1" gradientUnits="userSpaceOnUse" gradientTransform="matrix(-2.10185,3.66055,-2.78671,-1.6001,265.616,322.244)"><stop offset="0" style="stop-color:rgb(255,214,214);stop-opacity:1"/><stop offset="1" style="stop-color:rgb(189,0,26);stop-opacity:1"/></radialGradient>
        <radialGradient id="_Radial5" cx="0" cy="0" r="1" gradientUnits="userSpaceOnUse" gradientTransform="matrix(34.062,0,0,9.46665,309.237,272.664)"><stop offset="0" style="stop-color:rgb(0,63,255);stop-opacity:1"/><stop offset="0.83" style="stop-color:rgb(0,41,167);stop-opacity:1"/><stop offset="1" style="stop-color:rgb(0,29,114);stop-opacity:1"/></radialGradient>
        <linearGradient id="_Linear6" x1="0" y1="0" x2="1" y2="0" gradientUnits="userSpaceOnUse" gradientTransform="matrix(67.859,0,0,67.859,274.988,298.826)"><stop offset="0" style="stop-color:rgb(255,0,0);stop-opacity:1"/><stop offset="0.75" style="stop-color:rgb(186,0,0);stop-opacity:1"/><stop offset="1" style="stop-color:rgb(142,0,0);stop-opacity:1"/></linearGradient>
        <linearGradient id="_Linear7" x1="0" y1="0" x2="1" y2="0" gradientUnits="userSpaceOnUse" gradientTransform="matrix(69.7032,0,0,69.7032,274.231,311.827)"><stop offset="0" style="stop-color:rgb(0,63,255);stop-opacity:1"/><stop offset="0.83" style="stop-color:rgb(0,41,167);stop-opacity:1"/><stop offset="1" style="stop-color:rgb(0,29,114);stop-opacity:1"/></linearGradient>
        <linearGradient id="_Linear8" x1="0" y1="0" x2="1" y2="0" gradientUnits="userSpaceOnUse" gradientTransform="matrix(68.3651,0,0,68.3651,274.987,282.768)"><stop offset="0" style="stop-color:rgb(0,63,255);stop-opacity:1"/><stop offset="0.83" style="stop-color:rgb(0,41,167);stop-opacity:1"/><stop offset="1" style="stop-color:rgb(0,29,114);stop-opacity:1"/></linearGradient>
    </defs>
</svg>
