<?xml version="1.0" encoding="UTF-8" standalone="no"?>
<!DOCTYPE svg PUBLIC "-//W3C//DTD SVG 1.1//EN" "http://www.w3.org/Graphics/SVG/1.1/DTD/svg11.dtd">
<svg width="100%" height="100%" viewBox="0 0 669 420" version="1.1" xmlns="http://www.w3.org/2000/svg" xmlns:xlink="http://www.w3.org/1999/xlink" xml:space="preserve" xmlns:serif="http://www.serif.com/" style="fill-rule:evenodd;clip-rule:evenodd;stroke-linejoin:round;stroke-miterlimit:2;">
    <g transform="matrix(1.05099,0,0,1.10137,-13.2908,-17.1333)">
        <g id="Layer-1" serif:id="Layer 1">
            <g id="g3212">
                <path id="rect3171" d="M6.198,1.269C7.772,3.064 12.043,7.3 17.302,7.3C20.174,7.3 25.48,7.16 29.446,7.16C32.556,7.16 38.594,1.72 42.329,1.72C45.537,1.72 47.512,5.86 51.153,5.86C54.414,5.86 57.776,4.85 61.365,4.85C64.66,4.85 68.995,8.4 72.551,8.4C75.868,8.4 73.586,3.88 77.118,3.88C80.453,3.88 92.602,6.78 96.118,6.78C99.466,6.78 96.641,6.27 100.144,6.27C103.502,6.27 108.003,4.14 111.496,4.14C114.862,4.14 117.372,6.38 120.857,6.38C124.23,6.38 126.54,3.28 130.018,3.28C133.397,3.28 128.071,2 131.543,2C134.927,2 148.816,4.4 152.286,4.4C155.676,4.4 157.896,7.43 161.356,7.43C164.756,7.43 173.406,9.78 176.866,9.78C180.266,9.78 180.956,3.98 184.416,3.98C187.816,3.98 189.836,5.26 193.286,5.26C196.686,5.26 197.336,3.89 200.786,3.89C204.186,3.89 212.656,13.5 216.106,13.5C219.506,13.5 220.066,6.28 223.516,6.28C226.926,6.28 230.446,6.74 233.896,6.74C237.306,6.74 242.286,3.1 245.726,3.1C249.136,3.1 249.326,10.5 252.766,10.5C256.176,10.5 259.236,1.73 262.676,1.73C266.086,1.73 270.206,5.44 273.636,5.44C277.056,5.44 282.166,4.43 285.596,4.43C289.016,4.43 290.446,6.72 293.876,6.72C297.296,6.72 296.196,0.82 299.626,0.82C303.046,0.82 311.326,6.09 314.756,6.09C318.176,6.09 322.376,5.72 325.806,5.72C329.226,5.72 330.076,5.17 333.496,5.17C336.926,5.17 345.796,7.3 349.216,7.3C352.646,7.3 351.036,11.23 354.456,11.23C357.886,11.23 370.356,5.03 373.776,5.03C377.216,5.03 374.036,11.38 377.456,11.38C380.896,11.38 388.076,4.45 391.486,4.45C394.926,4.45 394.026,6.32 397.446,6.32C400.886,6.32 406.966,6.86 410.386,6.86C413.816,6.86 418.846,5.82 422.256,5.82C425.706,5.82 420.046,9.79 423.456,9.79C426.896,9.79 435.116,3.71 438.516,3.71L446.586,3.71C450.036,3.71 456.186,7.37 459.586,7.37C463.036,7.37 463.956,0 467.356,0C470.806,0 477.476,5.48 480.876,5.48C484.336,5.48 484.556,7.85 487.956,7.85C491.416,7.85 493.036,7.43 496.426,7.43C499.896,7.43 511.066,3.6 514.456,3.6C517.916,3.6 518.866,6.48 522.246,6.48C525.726,6.48 526.396,4.04 529.776,4.04C533.256,4.04 529.316,16.03 532.696,16.03C536.176,16.03 548.256,0.2 551.626,0.2C555.116,0.2 555.846,7.71 559.206,7.71C562.706,7.71 569.486,5.68 572.836,5.68C576.346,5.68 579.786,6.39 583.126,6.39C586.656,6.39 590.156,6.46 593.476,6.46C597.036,6.46 596.106,8.88 599.396,8.88C602.986,8.88 610.196,7.19 613.466,7.19C617.106,7.19 615.226,7.62 618.436,7.62C622.176,7.62 634.046,7.64 637.156,7.64C641.126,7.64 635.136,6.92 638.006,6.92C644.676,6.92 652.736,3.52 652.736,3.52C653.036,3.52 656.036,4.92 656.036,5.21C656.036,5.21 657.286,10.46 657.286,17C657.286,19.85 659.306,21.66 659.306,25.56C659.306,28.65 659.936,40.59 659.936,44.27C659.936,47.45 653.486,43.35 653.486,46.94C653.486,50.17 658.326,49.58 658.326,53.12C658.326,56.38 657.716,65.08 657.716,68.58C657.716,71.87 656.556,71.71 656.556,75.19C656.556,78.5 656.826,81.93 656.826,85.4C656.826,88.72 656.266,94.17 656.266,97.62C656.266,100.95 654.386,115.72 654.386,119.16C654.386,122.49 651.716,118.09 651.716,121.52C651.716,124.87 654.116,130.02 654.116,133.44C654.116,136.8 655.106,141.09 655.106,144.5C655.106,147.86 659.776,146.68 659.776,150.09C659.776,153.45 655.946,152.5 655.946,155.91C655.946,159.27 653.016,163.39 653.016,166.79C653.016,170.17 660.256,173.65 660.256,177.05C660.256,180.43 654.976,186.14 654.976,189.53C654.976,192.91 654.946,197.73 654.946,201.12C654.946,204.51 655.186,203.78 655.186,207.16C655.186,210.55 654.606,213.12 654.606,216.5C654.606,219.9 657.056,227.63 657.056,231.01C657.056,234.41 655.446,239.96 655.446,243.34C655.446,246.74 653.546,247.95 653.546,251.32C653.546,254.73 654.356,258.72 654.356,262.09C654.356,265.5 654.326,267.19 654.326,270.55C654.326,273.97 656.436,277.25 656.436,280.6C656.436,284.02 657.186,294.98 657.186,298.33C657.186,301.76 661.376,302.7 661.376,306.04C661.376,309.48 656.846,307.34 656.846,310.67C656.846,314.12 654.046,319.28 654.046,322.6C654.046,326.06 655.786,328.53 655.786,331.84C655.786,335.32 655.506,338.99 655.506,342.28C655.506,345.78 657.876,354.51 657.876,357.78C657.876,361.31 652.696,356.94 652.696,360.17C652.696,363.76 655.496,369.24 655.496,372.42C655.496,376.1 655.576,379.49 655.576,382.57C655.576,386.48 657.856,386.88 657.856,389.73C657.856,394.919 656.849,399.983 656.432,401.853C654.596,402.201 652.203,402.5 649.406,402.5C646.536,402.5 637.546,401.32 633.576,401.32C630.466,401.32 630.836,403.85 627.106,403.85C623.896,403.85 617.876,403.62 614.236,403.62C610.976,403.62 606.596,402.73 603.006,402.73C599.716,402.73 599.756,406.76 596.196,406.76C592.876,406.76 585.486,408.23 581.946,408.23C578.616,408.23 576.146,404.8 572.626,404.8C569.276,404.8 570.126,401.6 566.616,401.6C563.256,401.6 555.186,397.46 551.696,397.46C548.326,397.46 541.066,400.83 537.576,400.83C534.206,400.83 536.866,403.4 533.386,403.4C530.006,403.4 522.366,404.22 518.896,404.22C515.516,404.22 513.056,403.56 509.586,403.56C506.196,403.56 507.386,399.98 503.926,399.98C500.536,399.98 494.826,399.89 491.366,399.89C487.966,399.89 480.646,411.18 477.186,411.18C473.786,411.18 465.696,405.68 462.246,405.68C458.846,405.68 463.166,403.75 459.716,403.75C456.306,403.75 451.646,412.88 448.196,412.88C444.786,412.88 444.956,403.38 441.516,403.38C438.106,403.38 436.176,400.44 432.736,400.44C429.326,400.44 423.146,402.67 419.706,402.67C416.296,402.67 412.626,402.38 409.186,402.38C405.766,402.38 402.546,403.15 399.106,403.15C395.686,403.15 385.306,401.76 381.866,401.76C378.446,401.76 381.496,402.61 378.056,402.61C374.636,402.61 369.086,403.68 365.656,403.68C362.236,403.68 363.806,400.92 360.376,400.92C356.956,400.92 356.026,405.03 352.596,405.03C349.166,405.03 340.366,403.79 336.936,403.79C333.516,403.79 330.856,400.05 327.426,400.05C323.996,400.05 314.506,403.41 311.086,403.41C307.656,403.41 314.216,400.52 310.796,400.52C307.366,400.52 295.146,410.43 291.726,410.43C288.296,410.43 287.856,403.15 284.436,403.15C280.996,403.15 281.366,402.95 277.956,402.95C274.516,402.95 268.846,408.78 265.426,408.78C261.986,408.78 255.136,403.71 251.716,403.71C248.276,403.71 254.086,403.82 250.666,403.82C247.226,403.82 236.216,403.01 232.796,403.01C229.356,403.01 223.016,408.38 219.606,408.38C216.166,408.38 218.816,410.62 215.416,410.62C211.966,410.62 202.016,401.57 198.606,401.57C195.156,401.57 198.966,402.79 195.566,402.79C192.116,402.79 185.836,403 182.436,403C178.976,403 168.126,406.3 164.736,406.3C161.276,406.3 165.916,400.29 162.526,400.29C159.056,400.29 154.806,404.17 151.416,404.17C147.956,404.17 144.236,403.95 140.846,403.95C137.378,403.95 134.635,403.2 131.256,403.2C127.778,403.2 119.153,409.44 115.78,409.44C112.295,409.44 113.806,403.54 110.439,403.54C106.946,403.54 101.686,402.88 98.328,402.88C94.825,402.88 92.017,405.22 88.67,405.22C85.153,405.22 82.595,408.68 79.261,408.68C75.728,408.68 75.773,403.77 72.455,403.77C68.9,403.77 63.336,403.41 60.041,403.41C56.453,403.41 47.898,408.65 44.637,408.65C40.997,408.65 37.757,402.08 34.549,402.08C30.814,402.08 31.174,403.54 28.064,403.54C24.098,403.54 19.68,397.68 16.808,397.68C10.134,397.68 8.113,403.66 8.113,403.66C7.818,403.66 4.766,402.75 4.766,402.46C4.766,399.09 8.337,390.41 8.337,387C8.337,383.63 6.752,386.79 6.752,383.39L6.752,370.93C6.752,367.56 3.768,371.85 3.768,368.45C3.768,365.08 8.855,358.62 8.855,355.22C8.855,351.85 8.263,339.05 8.263,335.65C8.263,332.28 2.87,331.31 2.87,327.92C2.87,324.54 7.139,326.21 7.139,322.81C7.139,319.43 9.434,312.81 9.434,309.41C9.434,306.03 9.785,305.09 9.785,301.7C9.785,298.32 8.595,293.93 8.595,290.54C8.595,287.16 4.532,283.55 4.532,280.16C4.532,276.78 8.49,273.35 8.49,269.96C8.49,266.58 13.229,261.59 13.229,258.2C13.229,254.81 0,258.63 0,255.25C0,251.86 2.355,245.04 2.355,241.66C2.355,238.27 4.941,230.92 4.941,227.54C4.941,224.14 5.496,223.1 5.496,219.72C5.496,216.33 5.478,212.8 5.478,209.42C5.478,206.03 8.535,209.47 8.535,206.09C8.535,202.7 5.838,191.07 5.838,187.69C5.838,184.29 6.953,183.02 6.953,179.64C6.953,176.25 6.849,172.68 6.849,169.31C6.849,165.91 6.251,165.84 6.251,162.46C6.251,159.06 1.648,145.48 1.648,142.11C1.648,138.71 4.294,141.56 4.294,138.19C4.294,134.79 9.178,133.37 9.178,130C9.178,126.6 8.751,121.37 8.751,118C8.751,114.59 5.551,108.58 5.551,105.22C5.551,101.8 5.53,101.34 5.53,97.98C5.53,94.57 8.313,86.28 8.313,82.92C8.313,79.5 5.666,76.12 5.666,72.77C5.666,69.35 8.976,73.13 8.976,69.78C8.976,66.36 6.715,58.49 6.715,55.15C6.715,51.72 10.752,49.97 10.752,46.63C10.752,43.2 4.599,40.2 4.599,36.87C4.599,33.43 3.31,28.35 3.31,25.02C3.31,21.58 10.213,20.56 10.213,17.24C10.213,14.031 7.665,9.814 7.297,6.579L9.025,4.69L6.198,1.269C5.775,0.786 5.547,0.48 5.547,0.48L6.198,1.269ZM656.432,401.853C658.973,401.373 660.446,400.8 660.446,400.8C660.746,400.8 656.256,402.91 656.256,402.61C656.256,402.61 656.324,402.34 656.432,401.853ZM539.516,303.32C539.516,303.32 533.796,302.3 526.506,301.06C522.796,300.43 518.946,299.6 514.496,298.85C510.406,298.15 505.706,297.54 501.616,296.84C497.166,296.09 493.796,295.47 490.086,294.84C482.796,293.6 477.416,292.08 477.416,292.08C477.416,292.08 479.796,295.52 483.206,299.16C485.016,301.1 486.306,302.71 488.366,304.91C490.426,307.12 493.456,309.37 495.266,311.31C498.676,314.95 502.236,317.65 502.236,317.65C502.236,317.65 496.036,316.94 489.396,315.59C485.856,314.87 481.816,313.94 477.796,313.12C473.776,312.31 470.026,311.8 466.486,311.08C459.846,309.73 455.196,308.37 455.196,308.37C455.196,308.37 454.436,311.5 454.246,315.87C454.146,318.02 454.376,320.03 454.266,322.69C454.156,325.04 453.826,327.92 453.716,330.4C453.606,332.88 453.746,335.53 453.636,337.88C453.526,340.54 453.506,343.12 453.416,345.27C453.226,349.64 452.866,352.36 452.866,352.36C452.866,352.36 449.286,350.58 444.636,347.5C442.166,345.86 439.126,343.27 436.316,341.4C433.496,339.54 429.846,337.88 427.366,336.25C422.716,333.17 420.976,330.16 420.976,330.16C420.976,330.16 421.366,333.77 423.056,337.35C424.056,339.44 425.086,341.14 426.086,343.23C427.776,346.81 429.246,350.48 429.246,350.48C429.246,350.48 425.806,349.01 419.766,346.84C416.786,345.77 413.846,344.36 410.156,343.04C406.896,341.87 402.946,340.21 399.506,338.98C396.076,337.75 391.786,337.24 388.526,336.07C384.836,334.75 381.796,333.34 378.816,332.27C372.776,330.1 368.736,328.62 368.736,328.62C368.736,328.62 369.316,331.83 370.226,336.45C370.686,338.8 370.886,341.77 371.436,344.58C371.936,347.18 372.966,349.61 373.476,352.2C374.026,355.02 374.136,357.96 374.596,360.31C375.506,364.93 376.126,367.99 376.126,367.99C376.126,367.99 372.926,366.92 367.036,364.64C364.036,363.48 360.506,361.76 356.916,360.37C353.606,359.09 350.016,357.41 346.716,356.13C343.126,354.73 339.946,353.58 336.956,352.42C331.066,350.13 326.406,348.68 326.406,348.68C326.406,348.68 324.476,351.21 322.196,355.58C321.036,357.8 319.656,360.65 318.266,363.31C316.986,365.76 315.706,368.63 314.426,371.08C313.036,373.75 311.106,375.82 309.946,378.04C307.666,382.41 307.086,385.71 307.086,385.71C307.086,385.71 307.326,382.4 307.006,377.68C306.856,375.36 305.856,372.65 305.656,369.78C305.486,367.24 305.566,364.92 305.386,362.25C305.196,359.57 304.806,357.15 304.636,354.61C304.446,351.74 304.246,348.69 304.086,346.36C303.766,341.65 303.766,337.82 303.766,337.82C303.766,337.82 300.366,340.49 296.326,343.93C294.276,345.67 292.006,347.9 289.546,349.99C287.276,351.91 285.276,353.79 283.016,355.72C280.556,357.81 277.486,359.57 275.436,361.31C271.396,364.75 269.356,367.44 269.356,367.44C269.356,367.44 269.466,365.17 269.316,361.38C269.236,359.45 268.646,357.11 268.556,354.8C268.466,352.67 267.666,349.9 267.586,347.77C267.486,345.46 268.596,343.55 268.516,341.63C268.356,337.83 266.926,336.14 266.926,336.14C266.926,336.14 265.146,337.27 258.666,340.9C255.476,342.68 250.186,345.46 246.236,347.67C242.746,349.62 238.596,351.08 234.916,353.14C231.246,355.2 226.866,358.01 223.376,359.96C219.436,362.17 217.556,363.98 214.366,365.77C207.886,369.4 203.046,371.76 203.046,371.76C203.046,371.76 204.236,368 205.486,363.36C206.126,361.01 206.076,358.32 206.836,355.49C207.536,352.9 208.306,350.88 209.016,348.28C209.776,345.45 211.256,342.66 211.896,340.31C213.146,335.67 213.816,331.71 213.816,331.71C213.816,331.71 210.096,334.55 204.996,338.13C202.486,339.89 199.526,342.33 196.416,344.51C193.666,346.43 190.896,348.13 188.006,350.16C185.106,352.18 182.356,353.03 179.616,354.95C176.506,357.13 173.036,360.97 170.526,362.73C165.426,366.3 161.716,367.89 161.716,367.89C161.716,367.89 164.196,365.4 166.576,361.26C167.746,359.21 168.366,357.05 169.816,354.53C171.106,352.3 172.926,349.65 174.286,347.3C175.636,344.95 177.006,342.6 178.296,340.36C179.746,337.84 180.856,335.84 182.026,333.79C184.406,329.65 185.646,327.36 185.646,327.36C185.646,327.36 182.096,327.54 175.036,329.17C171.556,329.98 166.316,330.28 162.016,331.28C158.216,332.16 154.576,333.78 150.566,334.71C146.556,335.64 143.046,336.14 139.246,337.02C134.941,338.01 130.599,339.39 127.119,340.2C120.063,341.83 115.318,342.81 115.318,342.81C115.318,342.81 119.401,340.17 124.369,336.28C127.012,334.22 129.125,331.67 132.131,329.32C135.136,326.97 138.916,325.36 141.556,323.29C146.526,319.4 149.536,316.07 149.536,316.07C149.536,316.07 145.636,316.3 138.236,317.07C134.581,317.46 130.875,318.12 126.364,318.59C122.374,319 116.953,319.26 112.748,319.7C108.543,320.14 104.587,320.74 100.597,321.15C96.085,321.63 91.245,321.4 87.593,321.78C80.19,322.56 75.021,323.68 75.021,323.68C75.021,323.68 77.298,320.75 81.699,317.14C83.869,315.35 87.466,313.98 90.148,311.77C92.519,309.82 95.58,307.31 98.079,305.25C100.579,303.2 102.702,301.24 105.074,299.29C107.755,297.08 110.443,295.06 112.613,293.27C117.013,289.65 120.057,287.14 120.057,287.14C120.057,287.14 114.024,287.67 105.75,288.78C101.549,289.34 96.631,290.26 91.592,290.93C86.955,291.55 82.731,292.36 78.095,292.98C73.056,293.66 67.232,294.54 63.031,295.1C54.758,296.21 49.071,296.3 49.071,296.3C49.071,296.3 54.385,294.44 61.295,291.37C64.804,289.81 69.153,288.15 73.361,286.28C77.233,284.56 80.715,282.44 84.587,280.72C88.795,278.85 93.402,277.74 96.911,276.18C103.82,273.11 108.174,270.49 108.174,270.49C108.174,270.49 103.017,270.78 95.219,270.39C91.373,270.2 86.67,269.72 81.918,269.48C77.715,269.27 73.59,268.5 69.161,268.28C64.732,268.06 59.534,268.06 55.331,267.85C50.579,267.62 46.042,267.59 42.195,267.4C34.398,267.01 29.284,266.72 29.284,266.72C29.284,266.72 34.846,265.17 42.362,262.94C45.996,261.87 49.716,260.86 54.294,259.5C58.247,258.33 63.087,256.66 67.376,255.39C71.5,254.17 75.856,253.59 79.98,252.36C84.27,251.09 87.204,249.77 91.157,248.6C95.735,247.24 101.482,245.38 105.116,244.3C112.633,242.08 118.056,240.91 118.056,240.91C118.056,240.91 112.019,240.56 104.95,240.14C101.464,239.93 98.383,239 94.076,238.75C90.266,238.52 86.145,238.58 82.13,238.34C78.115,238.1 73.405,238.69 69.596,238.47C65.288,238.21 61.129,237.44 57.643,237.24C50.575,236.82 45.884,236.45 45.884,236.45C45.884,236.45 50.382,235.2 58.3,232.8C62.32,231.58 68,229.99 72.822,228.53C77.259,227.18 81.391,225.54 85.828,224.19C90.649,222.73 95.135,221.44 99.155,220.22C107.071,217.81 113.283,216.12 113.283,216.12C113.283,216.12 108.015,216.09 99.858,216.23C95.717,216.29 90.314,216.99 85.346,217.07C80.776,217.15 75.89,216.53 71.32,216.6C66.353,216.68 62.008,216.84 57.867,216.91C49.712,217.04 44.139,217.7 44.139,217.7C44.139,217.7 49.079,214.72 56.502,212.46C60.451,211.26 65.43,210.98 69.921,209.62C74.412,208.25 78.622,206.69 82.572,205.49C89.995,203.23 95.776,201.37 95.776,201.37C95.776,201.37 90.967,200.26 85.21,197.27C82.286,195.75 79.369,193.09 75.863,191.27C72.637,189.59 69.217,186.82 65.991,185.14C62.485,183.32 59.887,182.97 56.964,181.45C51.208,178.45 46.533,175.76 46.533,175.76C46.533,175.76 52.04,176.53 59.151,176.54C62.762,176.54 66.485,176.12 70.816,176.13C74.801,176.13 79.999,175.79 83.984,175.79C88.315,175.8 91.392,176.56 95.003,176.56C102.113,176.57 107.692,176.77 107.692,176.77C107.692,176.77 102.583,174.54 96.269,172.32C92.91,171.14 89.433,169.37 85.613,168.03C81.793,166.68 77.3,165.86 73.941,164.68C67.627,162.46 63.137,160.65 63.137,160.65C63.137,160.65 68.94,160.28 76.195,160.01C79.773,159.88 83.179,159.56 87.6,159.39C91.51,159.24 95.677,159.45 99.797,159.3C103.918,159.14 108.127,159.07 112.037,158.92C116.459,158.76 120.322,158.52 123.9,158.39C131.155,158.12 136.929,158.09 136.929,158.09C136.929,158.09 133.865,155.04 130.84,151.26C129.348,149.4 128.381,147.97 126.538,145.67C124.908,143.63 122.764,141.04 121.047,138.89C119.329,136.74 117.961,135.09 116.33,133.06C114.487,130.75 112.782,127.9 111.29,126.04C108.265,122.25 105.315,119.87 105.315,119.87C105.315,119.87 109.492,121.1 115.806,122.97C118.919,123.9 123.505,125.01 127.352,126.15C130.754,127.16 133.874,127.98 137.456,129.05C141.046,130.11 144.636,131.23 148.036,132.24C151.886,133.38 155.576,134.65 158.696,135.57C165.006,137.44 169.176,138.78 169.176,138.78C169.176,138.78 166.686,135.85 163.256,131.99C161.436,129.93 159.406,127.39 157.326,125.06C155.256,122.72 153.796,120.53 151.966,118.47C148.536,114.61 145.236,111.81 145.236,111.81C145.236,111.81 150.196,112.75 157.306,113.37C160.816,113.68 164.616,113.68 168.956,114.05C172.786,114.39 176.536,114.91 180.576,115.26C184.616,115.62 189.826,115.57 193.656,115.91C197.996,116.28 200.486,116.95 203.986,117.25C211.096,117.87 216.206,118.12 216.206,118.12C216.206,118.12 214.296,115.35 211.176,111.73C209.516,109.8 207.906,107.18 206.016,104.99C204.126,102.8 200.946,101.1 199.286,99.17C196.166,95.55 194.406,93.24 194.406,93.24C194.406,93.24 198.546,93.76 204.536,95.54C207.586,96.44 211.996,98.44 215.646,99.52C219.006,100.51 222.106,100.74 225.466,101.73C229.116,102.81 232.566,103.86 235.616,104.77C241.606,106.54 245.976,107.86 245.976,107.86C245.976,107.86 245.756,104.41 245.996,100.02C246.116,97.79 246.756,95.46 246.896,92.79C247.026,90.33 247.096,87.68 247.226,85.22C247.366,82.54 247.196,80.1 247.316,77.87C247.546,73.48 247.886,70.41 247.886,70.41C247.886,70.41 250.216,73.55 252.966,77.21C254.576,79.35 256.196,81.71 257.806,83.85C260.556,87.5 262.816,90 262.816,90C262.816,90 265.566,87.56 269.536,83.38C271.496,81.32 274.206,79.16 276.626,76.61C278.766,74.36 279.716,71.9 281.966,69.52C284.226,67.15 287.636,65.07 289.776,62.82C292.196,60.27 294.616,57.56 296.576,55.5C300.546,51.32 301.706,48.82 301.706,48.82C301.706,48.82 302.696,50.7 304.836,54.47C305.926,56.39 308.476,58.85 309.776,61.15C310.976,63.27 313.286,65.49 314.476,67.6C315.786,69.9 316.506,72.28 317.586,74.2C319.726,77.97 320.886,80.66 320.886,80.66C320.886,80.66 322.366,77.98 324.666,73.84C325.846,71.74 327.236,69.39 328.636,66.87C329.926,64.55 331.346,61.96 332.636,59.64C334.036,57.12 336.276,54.22 337.446,52.12C339.746,47.98 340.856,45.2 340.856,45.2C340.856,45.2 343.646,47.56 346.926,51.11C348.546,52.87 349.936,54.74 351.936,56.9C353.706,58.82 355.066,61.22 356.926,63.24C358.796,65.26 360.716,67.26 362.486,69.18C364.486,71.35 366.416,73.1 368.036,74.85C371.316,78.41 373.286,80.54 373.286,80.54C373.286,80.54 376.576,78.59 381.016,74.94C383.266,73.1 386.636,70.46 389.336,68.24C391.826,66.2 393.226,64.68 395.716,62.64C398.416,60.42 400.756,58.16 403.006,56.31C407.436,52.67 412.106,49.96 412.106,49.96C412.106,49.96 409.666,53.39 406.786,57.84C405.256,60.2 403.686,62.91 401.946,65.59C400.196,68.28 398.446,70.88 396.916,73.24C394.026,77.69 391.676,81.2 391.676,81.2C391.676,81.2 395.946,78.95 401.946,75.63C404.986,73.95 407.296,71.59 410.946,69.57C414.306,67.71 418.966,65.71 422.326,63.85C425.976,61.83 428.596,60.27 431.646,58.58C437.636,55.26 442.236,52.79 442.236,52.79C442.236,52.79 441.486,56.17 442.226,60.33C442.596,62.38 444.316,64.2 444.766,66.73C445.166,68.97 444.446,71.49 444.866,73.85C445.286,76.21 446.876,78.5 447.276,80.74C447.726,83.27 448.026,85.18 448.386,87.23C449.136,91.38 450.896,93.98 450.896,93.98C450.896,93.98 455.156,92.35 462.746,89.82C466.786,88.48 471.536,87.45 476.136,85.92C480.726,84.39 485.286,82.51 489.326,81.17C496.916,78.64 501.306,76.73 501.306,76.73C501.306,76.73 499.526,80.21 494.976,84.57C492.666,86.79 489.866,89.12 487.096,91.78C484.546,94.23 482.146,96.39 479.596,98.84C476.816,101.5 474.446,104.46 472.136,106.68C467.586,111.04 464.466,114.13 464.466,114.13C464.466,114.13 468.376,112.61 475.646,110.21C479.156,109.05 483.516,107.68 487.936,106.22C491.766,104.96 495.876,103.57 500.026,102.2C504.006,100.88 507.956,99.57 511.946,98.26C516.086,96.89 521.106,95.89 524.936,94.63C529.356,93.17 532.486,91.76 535.996,90.6C543.266,88.2 547.926,86.16 547.926,86.16C547.926,86.16 545.586,88.34 540.426,91.79C537.886,93.5 534.086,95.24 530.946,97.35C528.166,99.21 525.296,101.65 522.366,103.61C519.436,105.58 516.286,107.65 513.506,109.52C510.366,111.62 507.226,113.57 504.686,115.28C499.526,118.73 497.096,121.11 497.096,121.11C497.096,121.11 501.626,120.49 508.716,119.66C512.316,119.24 515.906,118.81 520.226,118.3C524.196,117.84 528.406,117.38 532.376,116.92C536.696,116.41 540.556,115.86 544.156,115.44C551.246,114.61 556.506,114.08 556.506,114.08C556.506,114.08 553.116,116.43 548.606,119.49C546.206,121.12 543.526,122.57 540.796,124.42C538.066,126.28 535.656,128.16 533.256,129.78C528.736,132.85 525.106,135.79 525.106,135.79C525.106,135.79 529.806,135.32 536.536,134.04C539.956,133.38 542.936,131.98 547.036,131.19C550.806,130.47 555.776,129.34 559.546,128.62C563.646,127.84 567.476,127.3 570.896,126.65C577.626,125.36 582.616,124.46 582.616,124.46C582.616,124.46 578.896,126.36 573.786,129.49C571.186,131.07 569.236,133.87 566.116,135.78C563.256,137.53 560.016,138.82 557.156,140.57C554.046,142.48 550.416,144.16 547.816,145.75C542.706,148.87 538.656,150.64 538.656,150.64C538.656,150.64 542.736,150.66 550.296,151C554.026,151.16 559.626,151.82 564.226,152.03C568.306,152.21 572.646,152.51 576.936,152.7C581.226,152.89 585.626,153.06 589.706,153.25C594.306,153.45 599.476,153.08 603.206,153.25C610.766,153.59 614.016,154.73 614.016,154.73C614.016,154.73 609.986,156.75 603.586,159.78C600.336,161.32 595.226,162.3 591.316,164.14C587.736,165.84 585.466,168.52 581.876,170.22C577.976,172.06 574.506,174.11 571.246,175.65C564.846,178.68 560.406,179.61 560.406,179.61C560.406,179.61 566.336,180.59 574.656,180.9C578.886,181.06 584.266,180.68 589.346,180.87C594.006,181.05 598.426,181.54 603.096,181.72C608.166,181.91 612.896,181.05 617.126,181.21C625.456,181.53 630.506,182.71 630.506,182.71C630.506,182.71 625.286,184.53 617.356,186.7C613.316,187.8 609.856,188.99 605.026,190.31C600.576,191.53 595.106,192 590.656,193.21C585.826,194.54 581.166,196.53 577.136,197.64C569.196,199.81 563.726,201.63 563.726,201.63C563.726,201.63 567.206,202.73 572.036,205.17C574.496,206.41 577.756,208.25 580.706,209.74C583.416,211.1 585.216,213.07 587.926,214.44C590.866,215.93 594.036,216.51 596.486,217.74C601.326,220.18 604.806,221.45 604.806,221.45C604.806,221.45 599.136,222.18 591.186,222.31C586.956,222.38 582.046,222.82 577.236,222.9C572.426,222.98 567.696,222.69 563.466,222.76C555.506,222.89 550.026,223.23 550.026,223.23C550.026,223.23 552.966,224.98 558.696,227.74C561.606,229.14 564.996,229.95 568.496,231.63C571.706,233.18 575.246,235.69 578.456,237.24C581.946,238.92 584.856,240.36 587.766,241.76C593.506,244.52 597.376,246.41 597.376,246.41C597.376,246.41 592.846,246.06 585.756,245.69C581.976,245.5 576.416,245.39 572.126,245.17C567.836,244.95 564.656,244.74 560.876,244.54C553.786,244.18 548.696,243.99 548.696,243.99C548.696,243.99 550.756,246.54 553.306,250.75C554.596,252.89 556.106,255.68 557.656,258.24C559.076,260.6 560.376,263.41 561.796,265.77C563.356,268.33 564.856,270.41 566.156,272.54C568.696,276.75 570.876,279.65 570.876,279.65C570.876,279.65 565.756,279.02 559.596,278.03C556.316,277.51 552.926,276.79 549.196,276.19C545.466,275.59 541.736,275.18 538.456,274.65C532.296,273.66 527.276,273.57 527.276,273.57C527.276,273.57 529.566,275.89 531.246,280.23C532.136,282.53 532.566,285.25 533.586,287.87C534.596,290.5 535.416,293.07 536.316,295.38C537.986,299.72 539.296,303.09 539.296,303.09L539.216,303.11L539.516,303.32ZM7.297,6.579L7.213,6.67C6.918,6.67 7.252,5.54 7.252,5.84C7.252,6.08 7.268,6.326 7.297,6.579Z" style="fill:url(#_Radial1);"/>
            </g>
        </g>
    </g>
    <defs>
        <radialGradient id="_Radial1" cx="0" cy="0" r="1" gradientUnits="userSpaceOnUse" gradientTransform="matrix(11.6997,406.788,-867.458,24.9551,293.359,494.882)"><stop offset="0" style="stop-color:rgb(222,170,135);stop-opacity:1"/><stop offset="0.38" style="stop-color:rgb(233,198,175);stop-opacity:1"/><stop offset="0.58" style="stop-color:rgb(222,170,135);stop-opacity:1"/><stop offset="1" style="stop-color:rgb(211,141,95);stop-opacity:1"/></radialGradient>
    </defs>
</svg>
