<?xml version="1.0" encoding="UTF-8" standalone="no"?>
<!DOCTYPE svg PUBLIC "-//W3C//DTD SVG 1.1//EN" "http://www.w3.org/Graphics/SVG/1.1/DTD/svg11.dtd">
<svg width="100%" height="100%" viewBox="0 0 634 590" version="1.1" xmlns="http://www.w3.org/2000/svg" xmlns:xlink="http://www.w3.org/1999/xlink" xml:space="preserve" xmlns:serif="http://www.serif.com/" style="fill-rule:evenodd;clip-rule:evenodd;stroke-linecap:round;">
    <g id="g10672" transform="matrix(0.67891,0.734221,-0.734221,0.67891,466.56,-397.469)">
        <path id="path3354" d="M292.94,611C287.85,618.41 281.25,634.3 282.18,658.23C283.1,682.17 311.98,717.22 310.28,749.96C308.59,782.7 271.52,834.46 272.91,863.03C274.3,891.6 288.05,908.09 318.62,921.37C349.2,934.65 427.03,940.46 456.68,934.34C486.62,928.16 501.9,914.31 511.94,896.71C521.98,879.11 521.69,849.41 516.9,828.72C512.11,808.02 492.82,781.15 488.18,758.29C483.56,735.55 504.39,712.45 504.54,689.11C504.69,666.7 498.22,660.4 493.74,655.46C489.26,650.51 481.77,646.65 477.67,659.15C473.45,672.02 468.27,690.78 448.34,692.82C428.71,694.83 420.2,685.27 413.43,658.17C400.46,650.91 381.32,651.9 370.51,649.9C367.76,657.81 358.16,662.19 347.64,660.39C336.83,658.54 326.5,648.06 322.65,638.17C318.83,628.38 317.55,616.38 314.92,611.28C312.3,606.19 298.04,603.59 292.94,611Z"/>
        <path id="path4140" d="M358.84,681.21C342.6,677.44 347.27,689.63 349.76,701.87C352.27,714.17 354.99,740.16 346.66,759.9C338.15,780.08 334.42,788.98 332.72,803.06C330.99,817.43 344.59,841.75 365.99,839.37C387.14,837.02 415.34,834.53 436.6,839.44C457.85,844.36 481.11,860.84 490.4,869.12C499.83,877.52 507.9,872.86 506.53,860.63C505.16,848.4 493.53,813.95 482.43,794.97C471.4,776.09 468.54,754.63 475.38,741.51C482.39,728.07 491.34,697.84 490.24,685.84C489.08,673.33 486.92,672.88 484.91,680.23C482.92,687.51 476.41,710.16 449.32,712.75C421.65,715.39 374.84,684.92 358.84,681.21Z" style="fill:white;"/>
        <g id="g9624" transform="matrix(0.68946,0,0,0.68946,123.13,170.79)">
            <path id="rect3273" d="M332.19,149.09C330.11,148.46 327.04,153.12 325.31,159.5C323.58,165.88 323.86,171.52 325.94,172.16L333.56,174.47C335.21,174.97 337.46,172.1 339.19,167.72L346.19,172.38L349.81,158.47L341.41,158.47C341.73,154.73 341.2,151.87 339.78,151.44L332.19,149.09Z" style="fill:rgb(140,140,140);fill-rule:nonzero;"/>
            <path id="rect3275" d="M340.69,123.03C338.59,122.54 335.51,126.08 333.78,130.97C332.05,135.86 332.34,140.2 334.44,140.69L342,142.47C343.35,142.79 345.08,141.31 346.62,139L354.06,143.94L357.69,130.03L349.88,130.03C350.15,127.25 349.62,125.14 348.22,124.81L340.69,123.03Z" style="fill:rgb(140,140,140);fill-rule:nonzero;"/>
            <path id="rect3277" d="M347.91,92.812C345.84,92.239 342.76,96.433 341.03,102.22C339.3,108 339.59,113.11 341.66,113.69L349.31,115.81C350.94,116.26 353.15,113.69 354.88,109.78L362.53,114.91L366.16,100.97L357.16,100.97C357.41,97.744 356.9,95.285 355.53,94.906L347.91,92.812Z" style="fill:rgb(140,140,140);fill-rule:nonzero;"/>
            <path id="rect3279" d="M355.78,61.344C353.7,60.709 350.63,65.335 348.91,71.719C347.18,78.102 347.45,83.771 349.53,84.406L357.16,86.719C358.75,87.205 360.92,84.582 362.62,80.469L369.78,85.25L373.41,71.312L364.97,71.312C365.42,67.252 364.9,64.145 363.41,63.688L355.78,61.344Z" style="fill:rgb(140,140,140);fill-rule:nonzero;"/>
            <path id="rect3281" d="M364.84,32.906C362.77,32.271 359.73,36.898 358,43.281C356.27,49.665 356.55,55.303 358.62,55.938L366.25,58.281C367.82,58.762 369.93,56.216 371.62,52.188L377.66,56.188L381.28,42.281L374.09,42.281C374.42,38.525 373.89,35.684 372.47,35.25L364.84,32.906Z" style="fill:rgb(140,140,140);fill-rule:nonzero;"/>
            <path id="rect3283" d="M374.59,5.031C372.5,4.51 369.38,8.279 367.66,13.469C365.93,18.658 366.25,23.229 368.34,23.75L375.88,25.625C377.22,25.96 378.96,24.415 380.5,21.969L387.34,26.531L390.97,12.625L383.78,12.625C384.09,9.587 383.55,7.261 382.12,6.906L374.59,5.031Z" style="fill:rgb(140,140,140);fill-rule:nonzero;"/>
        </g>
        <g id="g9816" transform="matrix(0.68946,0,0,0.68946,123.13,170.79)">
            <g id="rect9804" transform="matrix(0.97497,0.22234,-0.23067,0.97303,0,0)">
                <path d="M379.811,50.808C379.811,50.324 379.418,49.931 378.934,49.931L371.217,49.931C370.733,49.931 370.34,50.324 370.34,50.808C370.34,51.292 370.733,51.685 371.217,51.685L378.934,51.685C379.418,51.685 379.811,51.292 379.811,50.808Z" style="fill:white;"/>
            </g>
            <g id="rect9806" transform="matrix(0.97497,0.22234,-0.23067,0.97303,0,0)">
                <path d="M378.071,80.372C378.071,79.888 377.678,79.495 377.194,79.495L369.477,79.495C368.993,79.495 368.6,79.888 368.6,80.372C368.6,80.856 368.993,81.249 369.477,81.249L377.194,81.249C377.678,81.249 378.071,80.856 378.071,80.372Z" style="fill:white;"/>
            </g>
            <g id="rect9808" transform="matrix(0.97497,0.22234,-0.23067,0.97303,0,0)">
                <path d="M380.791,20.769C380.791,20.285 380.398,19.892 379.914,19.892L372.197,19.892C371.713,19.892 371.32,20.285 371.32,20.769C371.32,21.253 371.713,21.645 372.197,21.645L379.914,21.645C380.398,21.645 380.791,21.253 380.791,20.769Z" style="fill:white;"/>
            </g>
            <g id="rect9810" transform="matrix(0.97497,0.22234,-0.23067,0.97303,0,0)">
                <path d="M381.701,-9.578C381.701,-10.062 381.308,-10.455 380.824,-10.455L373.107,-10.455C372.623,-10.455 372.23,-10.062 372.23,-9.578C372.23,-9.094 372.623,-8.702 373.107,-8.702L380.824,-8.702C381.308,-8.702 381.701,-9.094 381.701,-9.578Z" style="fill:white;"/>
            </g>
            <g id="rect9812" transform="matrix(0.97497,0.22234,-0.23067,0.97303,0,0)">
                <path d="M383.521,-40.135C383.521,-40.619 383.128,-41.012 382.644,-41.012L374.927,-41.012C374.443,-41.012 374.05,-40.619 374.05,-40.135C374.05,-39.651 374.443,-39.259 374.927,-39.259L382.644,-39.259C383.128,-39.259 383.521,-39.651 383.521,-40.135Z" style="fill:white;"/>
            </g>
            <g id="rect9814" transform="matrix(0.97497,0.22234,-0.23067,0.97303,0,0)">
                <path d="M385.961,-70.832C385.961,-71.316 385.568,-71.709 385.084,-71.709L377.367,-71.709C376.883,-71.709 376.49,-71.316 376.49,-70.832C376.49,-70.348 376.883,-69.956 377.367,-69.956L385.084,-69.956C385.568,-69.956 385.961,-70.348 385.961,-70.832Z" style="fill:white;"/>
            </g>
        </g>
        <path id="path1732" d="M369.73,327.19C369.73,327.19 364.31,308.83 356.38,304.66C357.22,297.57 389.35,180.31 394.77,172.39C400.19,164.46 412.3,161.54 420.64,164.04C428.99,166.54 441.57,180.16 435.66,194.08C429.82,207.85 422.73,209.11 418.55,214.53C412.71,222.46 427.73,272.53 427.73,272.53C427.73,272.53 431.91,285.88 425.65,287.97C419.39,290.06 406.04,305.08 405.62,327.61C394.35,327.61 369.73,327.19 369.73,327.19Z" style="fill:rgb(255,236,145);"/>
        <path id="rect3303" d="M369.39,327.47L406.37,327.86L414.65,716.54L371.38,716.54L369.39,327.47Z" style="fill:rgb(255,236,145);fill-rule:nonzero;"/>
        <g id="rect9738" transform="matrix(1,0,0,-1,0,0)">
            <rect x="369.03" y="-332.66" width="37.433" height="5.774"/>
        </g>
        <path id="rect3271" d="M390.272,318.731C390.272,316.953 388.828,315.51 387.051,315.51C385.273,315.51 383.83,316.953 383.83,318.731L383.83,328.944C383.83,330.722 385.273,332.165 387.051,332.165C388.828,332.165 390.272,330.722 390.272,328.944L390.272,318.731Z" style="fill:rgb(171,171,171);"/>
        <rect id="rect3306" x="369.03" y="332.66" width="37.433" height="2.389" style="fill:rgb(102,102,102);"/>
        <rect id="rect3308" x="369.03" y="334.85" width="37.433" height="2.389" style="fill:rgb(221,221,221);"/>
        <g id="g8814" transform="matrix(0.68946,0,0,0.68946,123.13,170.79)">
            <rect id="rect3310" x="356.66" y="286.51" width="55.159" height="2.248" style="fill:rgb(170,170,170);"/>
            <rect id="rect3312" x="356.66" y="328.39" width="55.159" height="2.248" style="fill:rgb(170,170,170);"/>
            <rect id="rect3314" x="358.1" y="367.38" width="55.159" height="2.248" style="fill:rgb(170,170,170);"/>
            <rect id="rect3316" x="358.11" y="403.19" width="56.585" height="2.248" style="fill:rgb(170,170,170);"/>
            <rect id="rect3318" x="358.11" y="438.42" width="56.585" height="2.248" style="fill:rgb(170,170,170);"/>
            <rect id="rect3320" x="358.12" y="469.9" width="57.44" height="2.248" style="fill:rgb(170,170,170);"/>
            <rect id="rect3322" x="358.12" y="499.64" width="57.44" height="2.248" style="fill:rgb(170,170,170);"/>
            <rect id="rect3324" x="358.12" y="527.37" width="58.295" height="2.248" style="fill:rgb(170,170,170);"/>
            <rect id="rect3326" x="358.13" y="554.23" width="59.436" height="2.248" style="fill:rgb(170,170,170);"/>
            <rect id="rect3328" x="358.13" y="578.77" width="59.436" height="2.248" style="fill:rgb(170,170,170);"/>
            <rect id="rect3330" x="358.13" y="601.3" width="59.436" height="2.248" style="fill:rgb(170,170,170);"/>
            <rect id="rect3332" x="359.55" y="623.25" width="59.436" height="2.248" style="fill:rgb(170,170,170);"/>
            <rect id="rect3334" x="359.55" y="644.04" width="59.436" height="2.248" style="fill:rgb(170,170,170);"/>
            <rect id="rect3336" x="359.55" y="662.52" width="59.436" height="2.248" style="fill:rgb(170,170,170);"/>
            <rect id="rect3338" x="359.55" y="680.72" width="59.436" height="2.248" style="fill:rgb(170,170,170);"/>
            <rect id="rect3340" x="359.56" y="697.47" width="60.862" height="2.248" style="fill:rgb(170,170,170);"/>
            <rect id="rect3342" x="359.56" y="713.93" width="60.862" height="2.248" style="fill:rgb(170,170,170);"/>
            <rect id="rect3344" x="359.56" y="728.66" width="60.862" height="2.248" style="fill:rgb(170,170,170);"/>
            <rect id="rect3346" x="359.56" y="742.81" width="60.862" height="2.248" style="fill:rgb(170,170,170);"/>
            <rect id="rect3348" x="359.57" y="755.8" width="62.003" height="2.248" style="fill:rgb(170,170,170);"/>
            <rect id="rect3350" x="359.57" y="768.22" width="62.003" height="2.248" style="fill:rgb(170,170,170);"/>
            <rect id="rect3352" x="359.86" y="780.06" width="62.003" height="2.248" style="fill:rgb(170,170,170);"/>
        </g>
        <g id="g9670" transform="matrix(0.68946,0,0,0.68946,123.13,170.79)">
            <path id="rect9646" d="M432.954,830.263C432.954,820.884 425.34,813.27 415.961,813.27L368.633,813.27C359.254,813.27 351.64,820.884 351.64,830.263L351.64,832.895C351.64,842.274 359.254,849.888 368.633,849.888L415.961,849.888C425.34,849.888 432.954,842.274 432.954,832.895L432.954,830.263Z"/>
            <g id="g9662">
                <g id="path9650" transform="matrix(1,0,0,1,-1.6155,-3.231)">
                    <path d="M367.26,834.54C367.26,837.07 365.21,839.11 362.68,839.11C360.15,839.11 358.11,837.07 358.11,834.54C358.11,832.01 360.15,829.96 362.68,829.96C365.21,829.96 367.26,832.01 367.26,834.54Z" style="fill:rgb(170,170,170);fill-rule:nonzero;"/>
                </g>
                <g id="path9652" transform="matrix(1,0,0,1,10.77,-3.231)">
                    <path d="M367.26,834.54C367.26,837.07 365.21,839.11 362.68,839.11C360.15,839.11 358.11,837.07 358.11,834.54C358.11,832.01 360.15,829.96 362.68,829.96C365.21,829.96 367.26,832.01 367.26,834.54Z" style="fill:rgb(170,170,170);fill-rule:nonzero;"/>
                </g>
                <g id="path9654" transform="matrix(1,0,0,1,22.617,-3.231)">
                    <path d="M367.26,834.54C367.26,837.07 365.21,839.11 362.68,839.11C360.15,839.11 358.11,837.07 358.11,834.54C358.11,832.01 360.15,829.96 362.68,829.96C365.21,829.96 367.26,832.01 367.26,834.54Z" style="fill:rgb(170,170,170);fill-rule:nonzero;"/>
                </g>
                <g id="path9656" transform="matrix(1,0,0,1,34.464,-3.231)">
                    <path d="M367.26,834.54C367.26,837.07 365.21,839.11 362.68,839.11C360.15,839.11 358.11,837.07 358.11,834.54C358.11,832.01 360.15,829.96 362.68,829.96C365.21,829.96 367.26,832.01 367.26,834.54Z" style="fill:rgb(170,170,170);fill-rule:nonzero;"/>
                </g>
                <g id="path9658" transform="matrix(1,0,0,1,46.85,-3.231)">
                    <path d="M367.26,834.54C367.26,837.07 365.21,839.11 362.68,839.11C360.15,839.11 358.11,837.07 358.11,834.54C358.11,832.01 360.15,829.96 362.68,829.96C365.21,829.96 367.26,832.01 367.26,834.54Z" style="fill:rgb(170,170,170);fill-rule:nonzero;"/>
                </g>
                <g id="path9660" transform="matrix(1,0,0,1,59.235,-3.231)">
                    <path d="M367.26,834.54C367.26,837.07 365.21,839.11 362.68,839.11C360.15,839.11 358.11,837.07 358.11,834.54C358.11,832.01 360.15,829.96 362.68,829.96C365.21,829.96 367.26,832.01 367.26,834.54Z" style="fill:rgb(170,170,170);fill-rule:nonzero;"/>
                </g>
            </g>
        </g>
        <g id="g9680" transform="matrix(0.68946,0,0,0.68946,123.13,200.49)">
            <path id="rect9682" d="M432.954,830.263C432.954,820.884 425.34,813.27 415.961,813.27L368.633,813.27C359.254,813.27 351.64,820.884 351.64,830.263L351.64,832.895C351.64,842.274 359.254,849.888 368.633,849.888L415.961,849.888C425.34,849.888 432.954,842.274 432.954,832.895L432.954,830.263Z"/>
            <g id="g9684">
                <g id="path9686" transform="matrix(1,0,0,1,-1.6155,-3.231)">
                    <path d="M367.26,834.54C367.26,837.07 365.21,839.11 362.68,839.11C360.15,839.11 358.11,837.07 358.11,834.54C358.11,832.01 360.15,829.96 362.68,829.96C365.21,829.96 367.26,832.01 367.26,834.54Z" style="fill:rgb(170,170,170);fill-rule:nonzero;"/>
                </g>
                <g id="path9688" transform="matrix(1,0,0,1,10.77,-3.231)">
                    <path d="M367.26,834.54C367.26,837.07 365.21,839.11 362.68,839.11C360.15,839.11 358.11,837.07 358.11,834.54C358.11,832.01 360.15,829.96 362.68,829.96C365.21,829.96 367.26,832.01 367.26,834.54Z" style="fill:rgb(170,170,170);fill-rule:nonzero;"/>
                </g>
                <g id="path9690" transform="matrix(1,0,0,1,22.617,-3.231)">
                    <path d="M367.26,834.54C367.26,837.07 365.21,839.11 362.68,839.11C360.15,839.11 358.11,837.07 358.11,834.54C358.11,832.01 360.15,829.96 362.68,829.96C365.21,829.96 367.26,832.01 367.26,834.54Z" style="fill:rgb(170,170,170);fill-rule:nonzero;"/>
                </g>
                <g id="path9692" transform="matrix(1,0,0,1,34.464,-3.231)">
                    <path d="M367.26,834.54C367.26,837.07 365.21,839.11 362.68,839.11C360.15,839.11 358.11,837.07 358.11,834.54C358.11,832.01 360.15,829.96 362.68,829.96C365.21,829.96 367.26,832.01 367.26,834.54Z" style="fill:rgb(170,170,170);fill-rule:nonzero;"/>
                </g>
                <g id="path9694" transform="matrix(1,0,0,1,46.85,-3.231)">
                    <path d="M367.26,834.54C367.26,837.07 365.21,839.11 362.68,839.11C360.15,839.11 358.11,837.07 358.11,834.54C358.11,832.01 360.15,829.96 362.68,829.96C365.21,829.96 367.26,832.01 367.26,834.54Z" style="fill:rgb(170,170,170);fill-rule:nonzero;"/>
                </g>
                <g id="path9696" transform="matrix(1,0,0,1,59.235,-3.231)">
                    <path d="M367.26,834.54C367.26,837.07 365.21,839.11 362.68,839.11C360.15,839.11 358.11,837.07 358.11,834.54C358.11,832.01 360.15,829.96 362.68,829.96C365.21,829.96 367.26,832.01 367.26,834.54Z" style="fill:rgb(170,170,170);fill-rule:nonzero;"/>
                </g>
            </g>
        </g>
        <g id="g9698" transform="matrix(0.68946,0,0,0.68946,123.13,231.68)">
            <path id="rect9700" d="M432.954,830.263C432.954,820.884 425.34,813.27 415.961,813.27L368.633,813.27C359.254,813.27 351.64,820.884 351.64,830.263L351.64,832.895C351.64,842.274 359.254,849.888 368.633,849.888L415.961,849.888C425.34,849.888 432.954,842.274 432.954,832.895L432.954,830.263Z"/>
            <g id="g9702">
                <g id="path9704" transform="matrix(1,0,0,1,-1.6155,-3.231)">
                    <path d="M367.26,834.54C367.26,837.07 365.21,839.11 362.68,839.11C360.15,839.11 358.11,837.07 358.11,834.54C358.11,832.01 360.15,829.96 362.68,829.96C365.21,829.96 367.26,832.01 367.26,834.54Z" style="fill:rgb(170,170,170);fill-rule:nonzero;"/>
                </g>
                <g id="path9706" transform="matrix(1,0,0,1,10.77,-3.231)">
                    <path d="M367.26,834.54C367.26,837.07 365.21,839.11 362.68,839.11C360.15,839.11 358.11,837.07 358.11,834.54C358.11,832.01 360.15,829.96 362.68,829.96C365.21,829.96 367.26,832.01 367.26,834.54Z" style="fill:rgb(170,170,170);fill-rule:nonzero;"/>
                </g>
                <g id="path9708" transform="matrix(1,0,0,1,22.617,-3.231)">
                    <path d="M367.26,834.54C367.26,837.07 365.21,839.11 362.68,839.11C360.15,839.11 358.11,837.07 358.11,834.54C358.11,832.01 360.15,829.96 362.68,829.96C365.21,829.96 367.26,832.01 367.26,834.54Z" style="fill:rgb(170,170,170);fill-rule:nonzero;"/>
                </g>
                <g id="path9710" transform="matrix(1,0,0,1,34.464,-3.231)">
                    <path d="M367.26,834.54C367.26,837.07 365.21,839.11 362.68,839.11C360.15,839.11 358.11,837.07 358.11,834.54C358.11,832.01 360.15,829.96 362.68,829.96C365.21,829.96 367.26,832.01 367.26,834.54Z" style="fill:rgb(170,170,170);fill-rule:nonzero;"/>
                </g>
                <g id="path9712" transform="matrix(1,0,0,1,46.85,-3.231)">
                    <path d="M367.26,834.54C367.26,837.07 365.21,839.11 362.68,839.11C360.15,839.11 358.11,837.07 358.11,834.54C358.11,832.01 360.15,829.96 362.68,829.96C365.21,829.96 367.26,832.01 367.26,834.54Z" style="fill:rgb(170,170,170);fill-rule:nonzero;"/>
                </g>
                <g id="path9714" transform="matrix(1,0,0,1,59.235,-3.231)">
                    <path d="M367.26,834.54C367.26,837.07 365.21,839.11 362.68,839.11C360.15,839.11 358.11,837.07 358.11,834.54C358.11,832.01 360.15,829.96 362.68,829.96C365.21,829.96 367.26,832.01 367.26,834.54Z" style="fill:rgb(170,170,170);fill-rule:nonzero;"/>
                </g>
            </g>
        </g>
        <path id="path4900" d="M492.29,901.33C488.78,906.95 465.63,899.54 452.92,888.91C445.05,882.34 439.46,872.71 442.97,867.09C446.48,861.47 456.46,863.27 465.64,868.54C480,876.8 495.8,895.71 492.29,901.33Z" style="fill:rgb(166,166,166);fill-rule:nonzero;"/>
        <path id="path10670" d="M491.62,901.11C488.11,906.73 466.95,897.78 454.24,887.15C446.37,880.57 443.66,875.8 447.17,870.18C450.68,864.56 455.14,865.92 464.31,871.19C478.68,879.45 495.13,895.49 491.62,901.11Z" style="fill:rgb(107,106,106);fill-rule:nonzero;"/>
        <path id="path4903" d="M455.23,871.94C455.23,874.61 453.06,876.77 450.4,876.77C447.73,876.77 447.4,876.43 447.4,873.77C447.4,871.1 449.56,868.94 452.23,868.94C454.89,868.94 455.23,869.27 455.23,871.94Z" style="fill-rule:nonzero;"/>
        <path id="path4909" d="M440.47,811.03C435.36,811.03 431.27,815.14 431.27,820.25C431.27,825.37 435.35,829.45 440.47,829.45C445.59,829.45 449.69,825.36 449.69,820.25C449.69,815.14 445.58,811.03 440.47,811.03Z" style="fill-rule:nonzero;"/>
        <path id="text5709" d="M437.55,810.4L437.98,810.29L437.63,808.8L437.18,809.01L437.12,808.77L437.56,808.56L437.83,808.5L438.25,810.23L438.68,810.12L438.73,810.35L437.61,810.62L437.55,810.4M440.4,809.98L441.34,810L441.34,810.23L440.06,810.2L440.07,809.97C440.17,809.87 440.32,809.73 440.5,809.55C440.68,809.38 440.8,809.26 440.85,809.21C440.94,809.12 441,809.04 441.03,808.97C441.07,808.9 441.09,808.84 441.09,808.77C441.1,808.66 441.06,808.58 440.99,808.51C440.91,808.44 440.82,808.4 440.7,808.4C440.61,808.4 440.52,808.41 440.42,808.43C440.33,808.46 440.23,808.5 440.12,808.56L440.13,808.29C440.24,808.25 440.34,808.22 440.44,808.2C440.53,808.18 440.62,808.17 440.7,808.17C440.91,808.17 441.07,808.23 441.19,808.34C441.31,808.44 441.37,808.59 441.37,808.76C441.36,808.84 441.35,808.92 441.31,808.99C441.28,809.07 441.22,809.15 441.14,809.25L440.92,809.47C440.79,809.59 440.62,809.76 440.4,809.98M443.87,809.66C443.98,809.72 444.06,809.8 444.11,809.91C444.15,810.01 444.16,810.13 444.12,810.25C444.07,810.44 443.96,810.57 443.8,810.64C443.63,810.7 443.43,810.7 443.19,810.63C443.11,810.6 443.03,810.57 442.95,810.53C442.87,810.49 442.79,810.44 442.7,810.38L442.78,810.13C442.84,810.19 442.91,810.25 442.99,810.29C443.07,810.34 443.15,810.38 443.25,810.41C443.41,810.45 443.55,810.46 443.65,810.42C443.76,810.38 443.83,810.3 443.86,810.18C443.9,810.06 443.88,809.96 443.82,809.87C443.76,809.79 443.66,809.72 443.52,809.68L443.29,809.61L443.36,809.4L443.59,809.47C443.72,809.51 443.83,809.51 443.91,809.48C443.99,809.45 444.05,809.38 444.08,809.29C444.11,809.19 444.09,809.1 444.04,809.03C443.98,808.95 443.89,808.9 443.76,808.86C443.69,808.84 443.61,808.82 443.52,808.81C443.44,808.81 443.34,808.8 443.23,808.81L443.3,808.57C443.41,808.58 443.51,808.58 443.6,808.59C443.69,808.61 443.77,808.62 443.85,808.65C444.05,808.71 444.19,808.8 444.28,808.92C444.37,809.04 444.39,809.18 444.34,809.34C444.31,809.44 444.26,809.52 444.17,809.58C444.09,809.64 443.99,809.66 443.87,809.66M446.79,810.26L445.65,810.82L446.24,811.18L446.79,810.26M446.86,810.02L447.15,810.2L446.47,811.32L446.71,811.47L446.59,811.66L446.35,811.51L446.1,811.92L445.87,811.78L446.12,811.37L445.34,810.9L445.48,810.68L446.86,810.02M448.83,811.53L449.57,812.3L449.4,812.46L448.84,811.87L448.48,812.21C448.52,812.23 448.55,812.25 448.59,812.28C448.62,812.3 448.65,812.33 448.68,812.35C448.83,812.52 448.91,812.69 448.91,812.87C448.91,813.05 448.84,813.21 448.69,813.35C448.53,813.5 448.36,813.57 448.18,813.56C448,813.54 447.83,813.45 447.66,813.27C447.6,813.21 447.55,813.14 447.5,813.07L447.35,812.83L447.55,812.64C447.58,812.73 447.61,812.81 447.65,812.89C447.7,812.96 447.75,813.04 447.82,813.11C447.93,813.22 448.04,813.28 448.16,813.29C448.29,813.3 448.4,813.25 448.5,813.16C448.6,813.06 448.65,812.95 448.64,812.83C448.64,812.71 448.59,812.59 448.48,812.48C448.43,812.43 448.37,812.38 448.31,812.34C448.25,812.3 448.18,812.26 448.1,812.23L448.83,811.53M450.32,814.95C450.26,814.84 450.18,814.78 450.07,814.76C449.96,814.73 449.85,814.76 449.72,814.83C449.59,814.9 449.51,814.98 449.47,815.09C449.43,815.19 449.44,815.29 449.5,815.4C449.56,815.51 449.64,815.57 449.75,815.6C449.86,815.62 449.97,815.59 450.1,815.53C450.23,815.46 450.31,815.37 450.35,815.27C450.39,815.16 450.38,815.06 450.32,814.95M451.33,815.02L451.11,815.14C451.11,815.06 451.1,814.99 451.08,814.92C451.06,814.85 451.03,814.78 451,814.72C450.91,814.57 450.79,814.48 450.64,814.45C450.49,814.43 450.3,814.47 450.08,814.57C450.18,814.58 450.26,814.61 450.34,814.66C450.41,814.71 450.47,814.78 450.52,814.86C450.62,815.04 450.64,815.21 450.59,815.37C450.54,815.53 450.42,815.66 450.23,815.77C450.05,815.86 449.88,815.89 449.71,815.84C449.54,815.8 449.41,815.68 449.31,815.51C449.2,815.3 449.19,815.1 449.29,814.91C449.39,814.72 449.58,814.54 449.88,814.38C450.16,814.22 450.42,814.17 450.66,814.21C450.89,814.25 451.07,814.38 451.2,814.61C451.23,814.67 451.26,814.73 451.28,814.8C451.3,814.86 451.32,814.94 451.33,815.02M452.08,816.81L452.39,818.07L452.28,818.1L450.26,817.84L450.2,817.56L452.09,817.81L451.86,816.87L452.08,816.81M451.52,820.55C451.53,820.43 451.49,820.32 451.43,820.25C451.36,820.17 451.26,820.13 451.14,820.13C451.02,820.13 450.93,820.16 450.86,820.23C450.78,820.31 450.75,820.41 450.74,820.54C450.74,820.67 450.77,820.77 450.84,820.84C450.91,820.92 451,820.96 451.12,820.96C451.25,820.97 451.34,820.93 451.41,820.86C451.48,820.79 451.52,820.68 451.52,820.55M451.64,820.29C451.68,820.17 451.73,820.08 451.81,820.02C451.9,819.95 451.99,819.92 452.11,819.93C452.27,819.93 452.39,819.99 452.49,820.1C452.58,820.22 452.62,820.38 452.61,820.58C452.61,820.78 452.56,820.94 452.46,821.05C452.37,821.16 452.24,821.21 452.08,821.21C451.96,821.21 451.87,821.17 451.79,821.1C451.71,821.04 451.66,820.95 451.63,820.83C451.6,820.96 451.54,821.06 451.45,821.13C451.36,821.2 451.25,821.24 451.12,821.24C450.92,821.23 450.78,821.17 450.67,821.05C450.57,820.92 450.52,820.75 450.53,820.53C450.53,820.31 450.59,820.14 450.7,820.02C450.8,819.91 450.95,819.85 451.15,819.86C451.28,819.86 451.39,819.9 451.47,819.97C451.56,820.05 451.62,820.15 451.64,820.29M452.08,820.2C451.97,820.19 451.89,820.22 451.83,820.29C451.77,820.35 451.74,820.44 451.74,820.56C451.73,820.68 451.76,820.77 451.82,820.83C451.88,820.9 451.96,820.94 452.06,820.94C452.16,820.94 452.25,820.91 452.31,820.85C452.37,820.78 452.4,820.69 452.4,820.57C452.4,820.46 452.37,820.36 452.32,820.3C452.26,820.23 452.18,820.2 452.08,820.2M450.37,822.59L450.61,822.66C450.55,822.72 450.51,822.78 450.48,822.84C450.44,822.9 450.41,822.96 450.39,823.03C450.34,823.2 450.36,823.35 450.45,823.47C450.54,823.6 450.7,823.7 450.93,823.78C450.87,823.71 450.84,823.63 450.82,823.54C450.8,823.46 450.81,823.37 450.83,823.27C450.89,823.08 450.99,822.94 451.14,822.86C451.29,822.79 451.47,822.78 451.67,822.84C451.87,822.89 452.01,823 452.1,823.15C452.18,823.3 452.2,823.48 452.14,823.67C452.07,823.9 451.94,824.04 451.73,824.11C451.53,824.18 451.26,824.16 450.94,824.07C450.63,823.98 450.41,823.83 450.27,823.64C450.13,823.44 450.1,823.22 450.17,822.98C450.19,822.91 450.22,822.85 450.25,822.78C450.28,822.72 450.32,822.65 450.37,822.59M451.03,823.35C451,823.47 451.01,823.57 451.07,823.66C451.13,823.75 451.23,823.82 451.37,823.86C451.51,823.9 451.63,823.9 451.73,823.85C451.83,823.81 451.9,823.73 451.93,823.61C451.97,823.49 451.95,823.39 451.89,823.3C451.83,823.21 451.73,823.14 451.59,823.1C451.46,823.06 451.34,823.06 451.24,823.1C451.13,823.15 451.07,823.23 451.03,823.35M449.58,825.2L449.35,825.58L450.66,826.37L450.83,825.91L451.04,826.04L450.88,826.5L450.73,826.73L449.21,825.81L448.98,826.19L448.78,826.07L449.38,825.08L449.58,825.2M449.45,828.16C449.54,828.05 449.56,827.93 449.5,827.78C449.45,827.64 449.31,827.48 449.11,827.3C448.9,827.11 448.72,827 448.57,826.97C448.42,826.93 448.3,826.96 448.21,827.07C448.11,827.18 448.1,827.3 448.15,827.44C448.21,827.59 448.34,827.75 448.55,827.93C448.76,828.11 448.94,828.22 449.09,828.26C449.24,828.3 449.36,828.26 449.45,828.16M449.61,828.3C449.47,828.47 449.29,828.54 449.07,828.51C448.86,828.48 448.63,828.36 448.37,828.14C448.12,827.91 447.96,827.7 447.9,827.49C447.85,827.28 447.9,827.1 448.04,826.93C448.19,826.76 448.37,826.69 448.58,826.71C448.8,826.74 449.03,826.87 449.29,827.09C449.54,827.31 449.7,827.53 449.75,827.73C449.81,827.94 449.76,828.13 449.61,828.3" style="fill-rule:nonzero;"/>
        <g id="path6471" transform="matrix(-0.21888,-0.6538,0.6538,-0.21888,-74.635,1327.8)">
            <path d="M475.45,942.14C475.45,950.23 468.89,956.78 460.81,956.78C452.73,956.78 446.17,950.23 446.17,942.14C446.17,934.06 452.73,927.5 460.81,927.5C468.89,927.5 475.45,934.06 475.45,942.14Z" style="fill:none;fill-rule:nonzero;"/>
        </g>
        <g id="g9726" transform="matrix(-0.46929,0.50511,-0.50511,-0.46929,1132.3,1029.8)">
            <path id="path4914" d="M460.28,930.88C454.08,930.88 449.19,935.78 449.19,942C449.19,948.22 454.06,953.09 460.28,953.09C466.5,953.09 471.41,948.2 471.41,942C471.41,935.8 466.48,930.88 460.28,930.88Z" style="fill:none;fill-rule:nonzero;stroke:white;stroke-width:0.63px;"/>
            <rect id="rect7992" x="451.95" y="940.37" width="11.755" height="2.204" style="fill:white;"/>
        </g>
        <path id="rect7994" d="M370.54,831.64C368.08,831.64 366.12,833.6 366.12,836.05L366.12,862.9L423.91,862.9L423.91,836.05C423.91,833.6 421.94,831.64 419.49,831.64L415.8,831.64L415.8,838.4C415.8,838.68 415.58,838.9 415.31,838.9C415.04,838.9 414.81,838.68 414.81,838.4L414.81,831.64L407.92,831.64L407.92,838.17C407.92,838.44 407.72,838.66 407.44,838.66C407.17,838.66 406.95,838.44 406.95,838.17L406.95,831.64L399.56,831.64L399.56,838.17C399.56,838.44 399.34,838.66 399.06,838.66C398.79,838.66 398.59,838.44 398.59,838.17L398.59,831.64L391.2,831.64L391.2,838.17C391.2,838.44 390.98,838.66 390.7,838.66C390.43,838.66 390.23,838.44 390.23,838.17L390.23,831.64L382.34,831.64L382.34,838.17C382.34,838.44 382.12,838.66 381.85,838.66C381.58,838.66 381.37,838.44 381.37,838.17L381.37,831.64L374.24,831.64L374.24,838.17C374.24,838.44 374.02,838.66 373.75,838.66C373.47,838.66 373.25,838.44 373.25,838.17L373.25,831.64L370.54,831.64Z" style="fill:rgb(166,166,166);fill-rule:nonzero;"/>
        <path id="path8044" d="M372.27,301.39L373.74,849.38" style="fill:none;fill-rule:nonzero;stroke:rgb(127,126,125);stroke-width:0.69px;stroke-linecap:butt;"/>
        <path id="path8804" d="M378.17,282.21L382.1,849.13" style="fill:none;fill-rule:nonzero;stroke:rgb(128,128,128);stroke-width:0.69px;stroke-linecap:butt;"/>
        <path id="path8806" d="M383.33,262.56L390.96,849.62" style="fill:none;fill-rule:nonzero;stroke:rgb(128,128,128);stroke-width:0.69px;stroke-linecap:butt;"/>
        <path id="path8808" d="M399.07,849.13L390.22,241.66" style="fill:none;fill-rule:nonzero;stroke:rgb(128,128,128);stroke-width:0.69px;stroke-linecap:butt;"/>
        <path id="path8810" d="M394.65,221.24L407.43,848.89" style="fill:none;fill-rule:nonzero;stroke:rgb(128,128,128);stroke-width:0.69px;stroke-linecap:butt;"/>
        <path id="path8812" d="M402.02,200.42L415.3,849.13" style="fill:none;fill-rule:nonzero;stroke:rgb(128,128,128);stroke-width:0.69px;stroke-linecap:butt;"/>
        <path id="path9596" d="M465.34,825.88C460.23,825.88 456.14,829.99 456.14,835.1C456.14,840.22 460.23,844.3 465.34,844.3C470.46,844.3 474.57,840.21 474.57,835.1C474.57,829.99 470.46,825.88 465.34,825.88Z" style="fill-rule:nonzero;"/>
        <path id="text9600" d="M462.43,825.25L462.86,825.14L462.5,823.65L462.05,823.86L462,823.62L462.44,823.41L462.71,823.35L463.12,825.08L463.55,824.98L463.61,825.2L462.48,825.47L462.43,825.25M465.27,824.83L466.22,824.85L466.21,825.08L464.94,825.05L464.94,824.82C465.05,824.72 465.19,824.58 465.38,824.4C465.56,824.23 465.68,824.11 465.72,824.06C465.81,823.97 465.87,823.89 465.91,823.82C465.95,823.75 465.97,823.69 465.97,823.62C465.97,823.51 465.94,823.43 465.86,823.36C465.79,823.29 465.69,823.25 465.57,823.25C465.49,823.25 465.4,823.26 465.3,823.29C465.21,823.31 465.1,823.36 464.99,823.41L465,823.14C465.11,823.1 465.22,823.07 465.31,823.05C465.41,823.03 465.49,823.02 465.57,823.02C465.78,823.02 465.95,823.08 466.07,823.19C466.19,823.3 466.25,823.44 466.24,823.61C466.24,823.69 466.22,823.77 466.19,823.85C466.16,823.92 466.1,824 466.01,824.1C465.99,824.13 465.92,824.2 465.79,824.32C465.67,824.44 465.5,824.61 465.27,824.83M468.74,824.51C468.86,824.57 468.94,824.65 468.98,824.76C469.03,824.87 469.03,824.98 469,825.1C468.94,825.29 468.83,825.42 468.67,825.49C468.51,825.55 468.31,825.55 468.07,825.48C467.99,825.45 467.91,825.42 467.82,825.38C467.74,825.34 467.66,825.29 467.58,825.23L467.65,824.98C467.71,825.04 467.78,825.1 467.86,825.14C467.94,825.19 468.03,825.23 468.12,825.26C468.29,825.31 468.42,825.31 468.53,825.27C468.63,825.23 468.7,825.15 468.74,825.03C468.77,824.91 468.76,824.81 468.7,824.73C468.64,824.64 468.54,824.57 468.39,824.53L468.17,824.46L468.23,824.25L468.47,824.32C468.6,824.36 468.7,824.36 468.78,824.33C468.87,824.3 468.92,824.23 468.95,824.14C468.98,824.04 468.97,823.95 468.91,823.88C468.86,823.81 468.77,823.75 468.64,823.71C468.56,823.69 468.49,823.67 468.4,823.67C468.31,823.66 468.22,823.65 468.11,823.66L468.18,823.43C468.28,823.43 468.38,823.43 468.47,823.45C468.56,823.46 468.65,823.48 468.72,823.5C468.92,823.56 469.07,823.65 469.15,823.77C469.24,823.9 469.26,824.03 469.22,824.19C469.19,824.29 469.13,824.38 469.05,824.43C468.97,824.49 468.86,824.51 468.74,824.51M471.67,825.11L470.53,825.67L471.11,826.03L471.67,825.11M471.73,824.88L472.02,825.05L471.34,826.17L471.59,826.32L471.47,826.51L471.23,826.37L470.98,826.77L470.75,826.63L470.99,826.22L470.22,825.75L470.36,825.53L471.73,824.88M473.71,826.38L474.45,827.15L474.28,827.31L473.71,826.72L473.36,827.06C473.4,827.08 473.43,827.1 473.46,827.13C473.49,827.15 473.52,827.18 473.55,827.21C473.71,827.37 473.79,827.54 473.79,827.72C473.79,827.9 473.71,828.06 473.56,828.21C473.41,828.35 473.24,828.42 473.06,828.41C472.88,828.39 472.7,828.3 472.53,828.12C472.48,828.06 472.42,827.99 472.37,827.92C472.32,827.85 472.27,827.77 472.23,827.68L472.43,827.49C472.45,827.58 472.49,827.66 472.53,827.74C472.57,827.82 472.63,827.89 472.7,827.96C472.8,828.07 472.92,828.13 473.04,828.14C473.16,828.15 473.27,828.11 473.37,828.01C473.47,827.91 473.52,827.8 473.52,827.68C473.52,827.56 473.46,827.44 473.35,827.33C473.3,827.28 473.25,827.23 473.19,827.19C473.12,827.15 473.05,827.11 472.98,827.08L473.71,826.38M475.2,829.8C475.14,829.7 475.06,829.63 474.95,829.61C474.84,829.59 474.72,829.61 474.6,829.68C474.47,829.75 474.39,829.83 474.35,829.94C474.31,830.04 474.32,830.15 474.38,830.25C474.43,830.36 474.52,830.42 474.62,830.45C474.73,830.47 474.85,830.45 474.98,830.38C475.1,830.31 475.19,830.22 475.23,830.12C475.27,830.01 475.26,829.91 475.2,829.8M476.2,829.87L475.99,829.99C475.98,829.91 475.97,829.84 475.95,829.77C475.93,829.7 475.91,829.64 475.88,829.58C475.79,829.42 475.67,829.33 475.52,829.3C475.37,829.28 475.18,829.32 474.96,829.42C475.05,829.43 475.14,829.46 475.21,829.51C475.29,829.56 475.35,829.63 475.39,829.71C475.49,829.89 475.51,830.06 475.46,830.22C475.41,830.38 475.29,830.52 475.11,830.62C474.93,830.72 474.75,830.74 474.58,830.69C474.42,830.65 474.28,830.53 474.19,830.36C474.07,830.15 474.07,829.95 474.16,829.76C474.26,829.57 474.46,829.39 474.76,829.23C475.03,829.07 475.29,829.02 475.53,829.06C475.77,829.1 475.95,829.23 476.07,829.46C476.1,829.52 476.13,829.58 476.15,829.65C476.17,829.72 476.19,829.79 476.2,829.87M476.96,831.67L477.26,832.92L477.15,832.95L475.14,832.69L475.07,832.41L476.96,832.66L476.74,831.72L476.96,831.67M476.4,835.41C476.4,835.28 476.37,835.17 476.3,835.1C476.23,835.02 476.14,834.98 476.02,834.98C475.9,834.98 475.8,835.01 475.73,835.08C475.66,835.16 475.62,835.26 475.62,835.39C475.62,835.52 475.65,835.62 475.72,835.7C475.79,835.77 475.88,835.81 476,835.81C476.12,835.82 476.22,835.78 476.29,835.71C476.36,835.64 476.4,835.54 476.4,835.41M476.52,835.14C476.55,835.02 476.61,834.93 476.69,834.87C476.77,834.8 476.87,834.77 476.98,834.78C477.14,834.78 477.27,834.84 477.36,834.96C477.45,835.07 477.5,835.23 477.49,835.43C477.49,835.63 477.44,835.79 477.34,835.9C477.24,836.01 477.12,836.06 476.95,836.06C476.84,836.06 476.74,836.02 476.67,835.96C476.59,835.89 476.53,835.8 476.51,835.68C476.47,835.81 476.41,835.91 476.32,835.98C476.23,836.05 476.12,836.09 475.99,836.09C475.8,836.08 475.65,836.02 475.55,835.9C475.45,835.78 475.4,835.6 475.41,835.38C475.41,835.16 475.47,834.99 475.57,834.88C475.68,834.76 475.83,834.7 476.03,834.71C476.15,834.71 476.26,834.75 476.35,834.83C476.44,834.9 476.49,835 476.52,835.14M476.95,835.05C476.85,835.04 476.77,835.07 476.71,835.14C476.65,835.2 476.62,835.29 476.61,835.41C476.61,835.53 476.64,835.62 476.69,835.69C476.75,835.75 476.83,835.79 476.94,835.79C477.04,835.79 477.12,835.76 477.18,835.7C477.24,835.63 477.27,835.54 477.28,835.43C477.28,835.31 477.25,835.22 477.19,835.15C477.14,835.08 477.06,835.05 476.95,835.05M475.24,837.44L475.48,837.51C475.43,837.57 475.39,837.63 475.35,837.69C475.32,837.75 475.29,837.81 475.27,837.88C475.22,838.05 475.24,838.2 475.33,838.32C475.42,838.45 475.58,838.55 475.81,838.64C475.75,838.56 475.71,838.48 475.69,838.4C475.68,838.31 475.68,838.22 475.71,838.12C475.77,837.93 475.87,837.79 476.02,837.72C476.17,837.64 476.34,837.63 476.55,837.69C476.75,837.75 476.89,837.85 476.97,838C477.06,838.16 477.07,838.33 477.02,838.52C476.95,838.75 476.81,838.89 476.61,838.96C476.4,839.03 476.14,839.01 475.81,838.92C475.51,838.83 475.29,838.69 475.15,838.49C475.01,838.29 474.97,838.07 475.05,837.83C475.07,837.76 475.09,837.7 475.12,837.63C475.16,837.57 475.2,837.51 475.24,837.44M475.91,838.2C475.87,838.32 475.89,838.42 475.95,838.51C476.01,838.61 476.11,838.67 476.25,838.71C476.39,838.75 476.51,838.75 476.61,838.71C476.71,838.66 476.77,838.58 476.81,838.46C476.84,838.35 476.83,838.24 476.77,838.15C476.71,838.06 476.61,837.99 476.47,837.95C476.33,837.91 476.21,837.91 476.11,837.96C476.01,838 475.94,838.08 475.91,838.2M474.46,840.05L474.23,840.43L475.54,841.22L475.71,840.76L475.92,840.89L475.75,841.35L475.61,841.58L474.09,840.66L473.86,841.04L473.66,840.92L474.26,839.93L474.46,840.05M474.33,843.01C474.42,842.9 474.44,842.78 474.38,842.63C474.32,842.49 474.19,842.33 473.98,842.15C473.77,841.97 473.59,841.86 473.44,841.82C473.29,841.78 473.17,841.81 473.08,841.92C472.99,842.03 472.97,842.15 473.03,842.29C473.09,842.44 473.22,842.6 473.43,842.78C473.63,842.96 473.81,843.07 473.96,843.11C474.11,843.15 474.24,843.11 474.33,843.01M474.49,843.15C474.34,843.32 474.16,843.39 473.95,843.36C473.74,843.34 473.5,843.21 473.25,842.99C472.99,842.76 472.84,842.55 472.78,842.34C472.72,842.14 472.77,841.95 472.92,841.78C473.07,841.61 473.25,841.54 473.46,841.56C473.67,841.59 473.91,841.72 474.16,841.94C474.42,842.16 474.57,842.38 474.63,842.58C474.68,842.79 474.64,842.98 474.49,843.15" style="fill-rule:nonzero;"/>
        <g id="path9606" transform="matrix(-0.21888,-0.6538,0.6538,-0.21888,-49.759,1342.6)">
            <path d="M475.45,942.14C475.45,950.23 468.89,956.78 460.81,956.78C452.73,956.78 446.17,950.23 446.17,942.14C446.17,934.06 452.73,927.5 460.81,927.5C468.89,927.5 475.45,934.06 475.45,942.14Z" style="fill:none;fill-rule:nonzero;"/>
        </g>
        <g id="g9730" transform="matrix(-0.64292,0.24904,-0.24904,-0.64292,1024.4,1331)">
            <g id="path9598" transform="matrix(1,0,0,1,36.08,21.54)">
                <path d="M460.28,930.88C454.08,930.88 449.19,935.78 449.19,942C449.19,948.22 454.06,953.09 460.28,953.09C466.5,953.09 471.41,948.2 471.41,942C471.41,935.8 466.48,930.88 460.28,930.88Z" style="fill:none;fill-rule:nonzero;stroke:white;stroke-width:0.63px;"/>
            </g>
            <rect id="rect9608" x="488.03" y="961.91" width="11.755" height="2.204" style="fill:white;"/>
        </g>
        <path id="path9610" d="M488.36,842.59C483.25,842.59 479.16,846.69 479.16,851.81C479.16,856.93 483.25,861.01 488.36,861.01C493.48,861.01 497.59,856.92 497.59,851.81C497.59,846.7 493.48,842.59 488.36,842.59Z" style="fill-rule:nonzero;"/>
        <path id="text9614" d="M485.45,841.95L485.88,841.85L485.52,840.36L485.07,840.57L485.02,840.33L485.46,840.12L485.72,840.05L486.14,841.79L486.57,841.68L486.63,841.91L485.5,842.18L485.45,841.95M488.29,841.54L489.24,841.56L489.23,841.79L487.96,841.76L487.96,841.53C488.07,841.43 488.21,841.29 488.4,841.11C488.58,840.94 488.69,840.82 488.74,840.77C488.83,840.68 488.89,840.59 488.93,840.53C488.97,840.46 488.99,840.39 488.99,840.33C488.99,840.22 488.95,840.13 488.88,840.06C488.81,840 488.71,839.96 488.59,839.96C488.51,839.95 488.42,839.97 488.32,839.99C488.22,840.02 488.12,840.06 488.01,840.12L488.02,839.85C488.13,839.8 488.23,839.77 488.33,839.75C488.43,839.73 488.51,839.73 488.59,839.73C488.8,839.73 488.97,839.79 489.09,839.9C489.21,840 489.27,840.14 489.26,840.32C489.26,840.4 489.24,840.48 489.21,840.55C489.18,840.63 489.12,840.71 489.03,840.81C489.01,840.83 488.94,840.91 488.81,841.03C488.69,841.15 488.52,841.32 488.29,841.54M491.76,841.21C491.88,841.28 491.96,841.36 492,841.47C492.05,841.57 492.05,841.69 492.02,841.81C491.96,842 491.85,842.13 491.69,842.19C491.53,842.26 491.33,842.26 491.09,842.19C491.01,842.16 490.92,842.13 490.84,842.09C490.76,842.05 490.68,842 490.6,841.94L490.67,841.69C490.73,841.75 490.8,841.81 490.88,841.85C490.96,841.9 491.05,841.94 491.14,841.96C491.31,842.01 491.44,842.02 491.55,841.98C491.65,841.94 491.72,841.86 491.76,841.73C491.79,841.62 491.78,841.52 491.72,841.43C491.66,841.35 491.56,841.28 491.41,841.24L491.19,841.17L491.25,840.96L491.49,841.03C491.62,841.06 491.72,841.07 491.8,841.04C491.89,841.01 491.94,840.94 491.97,840.85C492,840.75 491.99,840.66 491.93,840.59C491.88,840.51 491.79,840.46 491.66,840.42C491.58,840.4 491.51,840.38 491.42,840.37C491.33,840.36 491.24,840.36 491.13,840.37L491.2,840.13C491.3,840.14 491.4,840.14 491.49,840.15C491.58,840.17 491.67,840.18 491.74,840.21C491.94,840.26 492.09,840.36 492.17,840.48C492.26,840.6 492.28,840.74 492.24,840.9C492.21,841 492.15,841.08 492.07,841.14C491.98,841.19 491.88,841.22 491.76,841.21M494.69,841.82L493.54,842.38L494.13,842.74L494.69,841.82M494.75,841.58L495.04,841.76L494.36,842.88L494.61,843.03L494.49,843.22L494.24,843.07L494,843.48L493.77,843.34L494.01,842.93L493.24,842.46L493.37,842.24L494.75,841.58M496.73,843.09L497.47,843.86L497.3,844.02L496.73,843.43L496.38,843.77C496.41,843.79 496.45,843.81 496.48,843.83C496.51,843.86 496.54,843.88 496.57,843.91C496.73,844.07 496.8,844.25 496.81,844.43C496.81,844.61 496.73,844.77 496.58,844.91C496.42,845.06 496.26,845.13 496.08,845.12C495.9,845.1 495.72,845.01 495.55,844.83C495.49,844.77 495.44,844.7 495.39,844.63C495.34,844.55 495.29,844.47 495.25,844.39L495.45,844.2C495.47,844.29 495.51,844.37 495.55,844.45C495.59,844.52 495.65,844.6 495.71,844.67C495.82,844.78 495.94,844.84 496.06,844.85C496.18,844.86 496.29,844.81 496.39,844.72C496.49,844.62 496.54,844.51 496.54,844.39C496.54,844.27 496.48,844.15 496.37,844.04C496.32,843.98 496.27,843.94 496.2,843.9C496.14,843.86 496.07,843.82 496,843.79L496.73,843.09M498.22,846.51C498.16,846.4 498.07,846.34 497.97,846.32C497.86,846.29 497.74,846.32 497.61,846.39C497.49,846.46 497.4,846.54 497.36,846.65C497.33,846.75 497.34,846.85 497.39,846.96C497.45,847.07 497.54,847.13 497.64,847.15C497.75,847.18 497.87,847.15 498,847.08C498.12,847.01 498.21,846.93 498.25,846.82C498.29,846.72 498.28,846.62 498.22,846.51M499.22,846.58L499.01,846.69C499,846.62 498.99,846.55 498.97,846.48C498.95,846.41 498.93,846.34 498.9,846.28C498.81,846.13 498.69,846.03 498.54,846.01C498.39,845.98 498.2,846.03 497.98,846.13C498.07,846.14 498.16,846.17 498.23,846.22C498.31,846.27 498.37,846.34 498.41,846.42C498.51,846.6 498.53,846.77 498.48,846.93C498.43,847.09 498.31,847.22 498.13,847.32C497.95,847.42 497.77,847.45 497.6,847.4C497.44,847.35 497.3,847.24 497.21,847.06C497.09,846.86 497.09,846.66 497.18,846.47C497.28,846.27 497.48,846.1 497.78,845.93C498.05,845.78 498.31,845.73 498.55,845.77C498.79,845.81 498.97,845.94 499.09,846.16C499.12,846.22 499.15,846.29 499.17,846.35C499.19,846.42 499.21,846.5 499.22,846.58M499.98,848.37L500.28,849.63L500.17,849.66L498.16,849.4L498.09,849.12L499.98,849.37L499.76,848.43L499.98,848.37M499.42,852.11C499.42,851.98 499.39,851.88 499.32,851.81C499.25,851.73 499.16,851.69 499.04,851.69C498.92,851.69 498.82,851.72 498.75,851.79C498.68,851.87 498.64,851.97 498.64,852.1C498.64,852.22 498.67,852.33 498.74,852.4C498.8,852.48 498.9,852.52 499.02,852.52C499.14,852.52 499.24,852.49 499.31,852.42C499.38,852.34 499.42,852.24 499.42,852.11M499.54,851.84C499.57,851.73 499.63,851.64 499.71,851.57C499.79,851.51 499.89,851.48 500,851.48C500.16,851.49 500.29,851.55 500.38,851.66C500.47,851.78 500.51,851.94 500.51,852.14C500.51,852.34 500.46,852.49 500.36,852.61C500.26,852.72 500.13,852.77 499.97,852.77C499.86,852.77 499.76,852.73 499.68,852.66C499.61,852.6 499.55,852.51 499.53,852.39C499.49,852.52 499.43,852.62 499.34,852.69C499.25,852.76 499.14,852.8 499.01,852.79C498.82,852.79 498.67,852.73 498.57,852.6C498.47,852.48 498.42,852.31 498.42,852.09C498.43,851.87 498.49,851.7 498.59,851.58C498.7,851.47 498.85,851.41 499.04,851.42C499.17,851.42 499.28,851.46 499.37,851.53C499.46,851.61 499.51,851.71 499.54,851.84M499.97,851.75C499.87,851.75 499.79,851.78 499.73,851.85C499.67,851.91 499.63,852 499.63,852.12C499.63,852.23 499.66,852.33 499.71,852.39C499.77,852.46 499.85,852.5 499.95,852.5C500.06,852.5 500.14,852.47 500.2,852.4C500.26,852.34 500.29,852.25 500.29,852.13C500.3,852.02 500.27,851.92 500.21,851.86C500.16,851.79 500.08,851.76 499.97,851.75M498.26,854.15L498.5,854.22C498.45,854.27 498.41,854.33 498.37,854.4C498.33,854.46 498.31,854.52 498.29,854.59C498.24,854.76 498.26,854.91 498.35,855.03C498.44,855.16 498.6,855.26 498.83,855.34C498.77,855.27 498.73,855.19 498.71,855.1C498.7,855.01 498.7,854.92 498.73,854.83C498.79,854.64 498.89,854.5 499.04,854.42C499.19,854.35 499.36,854.34 499.57,854.4C499.76,854.45 499.91,854.56 499.99,854.71C500.08,854.86 500.09,855.04 500.03,855.23C499.97,855.45 499.83,855.6 499.63,855.67C499.42,855.73 499.16,855.72 498.83,855.63C498.53,855.54 498.31,855.39 498.17,855.2C498.03,855 497.99,854.78 498.07,854.53C498.08,854.47 498.11,854.4 498.14,854.34C498.18,854.28 498.22,854.21 498.26,854.15M498.93,854.91C498.89,855.02 498.91,855.13 498.97,855.22C499.03,855.31 499.13,855.38 499.27,855.42C499.41,855.46 499.52,855.46 499.63,855.41C499.73,855.37 499.79,855.29 499.83,855.17C499.86,855.05 499.85,854.95 499.79,854.86C499.73,854.76 499.63,854.7 499.49,854.66C499.35,854.62 499.23,854.62 499.13,854.66C499.03,854.71 498.96,854.79 498.93,854.91M497.48,856.76L497.25,857.14L498.56,857.93L498.72,857.47L498.94,857.59L498.77,858.06L498.63,858.29L497.11,857.37L496.88,857.75L496.68,857.63L497.28,856.64L497.48,856.76M497.35,859.72C497.44,859.61 497.46,859.49 497.4,859.34C497.34,859.2 497.21,859.04 497,858.85C496.79,858.67 496.61,858.56 496.46,858.52C496.31,858.49 496.19,858.52 496.1,858.63C496.01,858.73 495.99,858.86 496.05,859C496.11,859.15 496.24,859.31 496.45,859.49C496.65,859.67 496.83,859.78 496.98,859.82C497.13,859.86 497.25,859.82 497.35,859.72M497.51,859.86C497.36,860.03 497.18,860.1 496.97,860.07C496.76,860.04 496.52,859.92 496.27,859.69C496.01,859.47 495.86,859.26 495.8,859.05C495.74,858.84 495.79,858.66 495.94,858.49C496.09,858.32 496.27,858.24 496.48,858.27C496.69,858.3 496.93,858.43 497.18,858.65C497.44,858.87 497.59,859.09 497.65,859.29C497.7,859.5 497.66,859.69 497.51,859.86" style="fill-rule:nonzero;"/>
        <g id="path9620" transform="matrix(-0.21888,-0.6538,0.6538,-0.21888,-26.74,1359.4)">
            <path d="M475.45,942.14C475.45,950.23 468.89,956.78 460.81,956.78C452.73,956.78 446.17,950.23 446.17,942.14C446.17,934.06 452.73,927.5 460.81,927.5C468.89,927.5 475.45,934.06 475.45,942.14Z" style="fill:none;fill-rule:nonzero;"/>
        </g>
        <g id="g9734" transform="matrix(-0.68287,-0.095132,0.095132,-0.68287,756.17,1576.7)">
            <g id="path9612" transform="matrix(1,0,0,1,69.467,45.773)">
                <path d="M460.28,930.88C454.08,930.88 449.19,935.78 449.19,942C449.19,948.22 454.06,953.09 460.28,953.09C466.5,953.09 471.41,948.2 471.41,942C471.41,935.8 466.48,930.88 460.28,930.88Z" style="fill:none;fill-rule:nonzero;stroke:white;stroke-width:0.63px;"/>
            </g>
            <rect id="rect9622" x="521.42" y="986.14" width="11.755" height="2.204" style="fill:white;"/>
        </g>
        <g id="g9740" transform="matrix(0.68946,0,0,0.68946,123.13,170.79)">
            <path id="path3257" d="M367.97,182.67C367.97,187.69 363.9,191.75 358.89,191.75C353.88,191.75 349.81,187.69 349.81,182.67C349.81,177.66 353.88,173.6 358.89,173.6C363.9,173.6 367.97,177.66 367.97,182.67Z" style="fill:rgb(140,140,140);fill-rule:nonzero;"/>
            <g id="path3259" transform="matrix(1,0,0,1,7.2625,-28.445)">
                <path d="M367.97,182.67C367.97,187.69 363.9,191.75 358.89,191.75C353.88,191.75 349.81,187.69 349.81,182.67C349.81,177.66 353.88,173.6 358.89,173.6C363.9,173.6 367.97,177.66 367.97,182.67Z" style="fill:rgb(140,140,140);fill-rule:nonzero;"/>
            </g>
            <g id="path3261" transform="matrix(1,0,0,1,17.551,-58.705)">
                <path d="M367.97,182.67C367.97,187.69 363.9,191.75 358.89,191.75C353.88,191.75 349.81,187.69 349.81,182.67C349.81,177.66 353.88,173.6 358.89,173.6C363.9,173.6 367.97,177.66 367.97,182.67Z" style="fill:rgb(140,140,140);fill-rule:nonzero;"/>
            </g>
            <g id="path3263" transform="matrix(1,0,0,1,24.208,-87.756)">
                <path d="M367.97,182.67C367.97,187.69 363.9,191.75 358.89,191.75C353.88,191.75 349.81,187.69 349.81,182.67C349.81,177.66 353.88,173.6 358.89,173.6C363.9,173.6 367.97,177.66 367.97,182.67Z" style="fill:rgb(140,140,140);fill-rule:nonzero;"/>
            </g>
            <g id="path3265" transform="matrix(1,0,0,1,32.076,-117.41)">
                <path d="M367.97,182.67C367.97,187.69 363.9,191.75 358.89,191.75C353.88,191.75 349.81,187.69 349.81,182.67C349.81,177.66 353.88,173.6 358.89,173.6C363.9,173.6 367.97,177.66 367.97,182.67Z" style="fill:rgb(140,140,140);fill-rule:nonzero;"/>
            </g>
            <g id="path3267" transform="matrix(1,0,0,1,41.154,-147.07)">
                <path d="M367.97,182.67C367.97,187.69 363.9,191.75 358.89,191.75C353.88,191.75 349.81,187.69 349.81,182.67C349.81,177.66 353.88,173.6 358.89,173.6C363.9,173.6 367.97,177.66 367.97,182.67Z" style="fill:rgb(140,140,140);fill-rule:nonzero;"/>
            </g>
            <path id="path3269" d="M406.7,158.47C406.7,162.48 403.45,165.73 399.44,165.73C395.43,165.73 392.18,162.48 392.18,158.47C392.18,154.45 395.43,151.2 399.44,151.2C403.45,151.2 406.7,154.45 406.7,158.47Z" style="fill:rgb(140,140,140);fill-rule:nonzero;"/>
        </g>
        <path id="path9749" d="M370.56,291.75C368.71,291.75 367.12,292.78 366.28,294.29C367.14,293.55 368.25,293.08 369.48,293.08C372.19,293.08 374.39,295.28 374.39,298C374.39,298.86 374.15,299.67 373.75,300.37C374.8,299.47 375.47,298.15 375.47,296.67C375.47,293.95 373.27,291.75 370.56,291.75Z" style="fill:white;fill-rule:nonzero;"/>
        <path id="path9754" d="M375.82,271.76C373.97,271.76 372.38,272.8 371.54,274.31C372.4,273.56 373.51,273.09 374.74,273.09C377.45,273.09 379.65,275.3 379.65,278.01C379.65,278.87 379.41,279.68 379.01,280.38C380.06,279.48 380.73,278.17 380.73,276.68C380.73,273.97 378.53,271.76 375.82,271.76Z" style="fill:white;fill-rule:nonzero;"/>
        <path id="path9756" d="M382.88,251.02C381.03,251.02 379.44,252.06 378.6,253.57C379.46,252.82 380.57,252.35 381.8,252.35C384.51,252.35 386.71,254.56 386.71,257.27C386.71,258.14 386.47,258.94 386.08,259.65C387.12,258.74 387.8,257.43 387.8,255.94C387.8,253.23 385.59,251.02 382.88,251.02Z" style="fill:white;fill-rule:nonzero;"/>
        <path id="path9758" d="M387.39,231.19C385.54,231.19 383.95,232.22 383.11,233.73C383.97,232.99 385.08,232.52 386.31,232.52C389.02,232.52 391.22,234.72 391.22,237.43C391.22,238.3 390.98,239.1 390.59,239.81C391.63,238.91 392.31,237.59 392.31,236.1C392.31,233.39 390.1,231.19 387.39,231.19Z" style="fill:white;fill-rule:nonzero;"/>
        <path id="path9760" d="M392.8,210.45C390.95,210.45 389.36,211.48 388.52,212.99C389.38,212.25 390.49,211.78 391.72,211.78C394.43,211.78 396.63,213.98 396.63,216.7C396.63,217.56 396.39,218.36 396,219.07C397.04,218.17 397.72,216.85 397.72,215.36C397.72,212.65 395.51,210.45 392.8,210.45Z" style="fill:white;fill-rule:nonzero;"/>
        <path id="path9762" d="M399.11,190.01C397.26,190.01 395.67,191.05 394.83,192.56C395.69,191.81 396.8,191.34 398.03,191.34C400.74,191.34 402.94,193.54 402.94,196.26C402.94,197.12 402.7,197.93 402.31,198.63C403.35,197.73 404.03,196.41 404.03,194.93C404.03,192.21 401.82,190.01 399.11,190.01Z" style="fill:white;fill-rule:nonzero;"/>
        <path id="path9764" d="M398.43,276.12C396.96,276.12 395.7,276.94 395.04,278.13C395.72,277.54 396.6,277.17 397.57,277.17C399.72,277.17 401.46,278.92 401.46,281.06C401.46,281.75 401.26,282.38 400.95,282.94C401.78,282.23 402.31,281.18 402.31,280.01C402.31,277.86 400.57,276.12 398.43,276.12Z" style="fill:white;fill-rule:nonzero;"/>
        <path id="rect9766" d="M387.09,316.41C386.14,316.41 385.34,317.21 384.95,318.34C385.32,318.02 385.73,317.79 386.2,317.79C387.54,317.79 388.61,319.32 388.61,321.22L388.61,329.61C388.61,330.15 388.5,330.65 388.34,331.11C389.03,330.5 389.52,329.47 389.52,328.23L389.52,319.84C389.52,317.94 388.43,316.41 387.09,316.41Z" style="fill:white;fill-rule:nonzero;"/>
        <g id="path9771" transform="matrix(0.79978,0,0,0.43092,80.742,225.4)">
            <path d="M385.58,212.98C385.58,213.94 384.36,214.72 382.86,214.72C381.35,214.72 380.13,213.94 380.13,212.98C380.13,212.02 381.35,211.24 382.86,211.24C384.36,211.24 385.58,212.02 385.58,212.98Z" style="fill-rule:nonzero;"/>
        </g>
        <path id="path9775" d="M347.98,286.72C349.12,284 349.57,278.38 351.09,275.75C351.72,274.84 353.85,275.27 356.33,276.35C354.9,276.4 354.28,276.08 352.58,275.82C351.52,275.68 351.18,276.85 350.18,279.58C349.16,282.35 349.16,286.7 347.98,286.72Z" style="fill:white;fill-rule:nonzero;"/>
        <path id="path9794" d="M353.42,265.85C354.56,263.12 355.23,259.9 356.75,257.27C357.37,256.36 359.51,256.79 361.98,257.87C360.55,257.92 359.93,257.6 358.23,257.34C357.17,257.2 356.83,258.37 355.83,261.1C354.81,263.87 354.59,265.83 353.42,265.85Z" style="fill:white;fill-rule:nonzero;"/>
        <path id="path9796" d="M358.63,245.63C359.77,242.91 360.44,239.68 361.96,237.05C362.59,236.14 364.73,236.57 367.2,237.65C365.77,237.7 365.15,237.38 363.45,237.12C362.39,236.98 362.05,238.15 361.05,240.88C360.03,243.65 359.81,245.61 358.63,245.63Z" style="fill:white;fill-rule:nonzero;"/>
        <path id="path9798" d="M364.07,224.11C365.21,221.38 365.88,218.15 367.4,215.53C368.03,214.61 370.16,215.04 372.64,216.12C371.21,216.18 370.58,215.85 368.88,215.59C367.83,215.46 367.49,216.63 366.48,219.36C365.46,222.13 365.24,224.08 364.07,224.11Z" style="fill:white;fill-rule:nonzero;"/>
        <path id="path9800" d="M370.59,204.54C371.73,201.81 372.4,198.58 373.92,195.96C374.55,195.05 376.68,195.48 379.16,196.55C377.73,196.61 377.1,196.29 375.41,196.03C374.35,195.89 374.01,197.06 373,199.79C371.99,202.56 371.77,204.52 370.59,204.54Z" style="fill:white;fill-rule:nonzero;"/>
        <path id="path9802" d="M377.11,184.76C378.25,182.03 378.92,178.8 380.45,176.17C381.07,175.26 383.21,175.69 385.68,176.77C384.25,176.83 383.63,176.5 381.93,176.24C380.87,176.1 380.53,177.27 379.53,180.01C378.51,182.78 378.29,184.73 377.11,184.76Z" style="fill:white;fill-rule:nonzero;"/>
        <path id="path9824" d="M370.48,832.09C369.11,832.09 367.97,832.85 367.32,833.94C367.89,833.6 368.51,833.35 369.22,833.35L371.53,833.35L371.53,838.89C371.53,839.13 371.72,839.31 371.95,839.31C372.18,839.31 372.37,839.13 372.37,838.89L372.37,833.35L372.79,833.35L372.79,832.09L370.48,832.09Z" style="fill:white;fill-rule:nonzero;"/>
        <path id="path9839" d="M375.01,832.09L375.01,833.35L379.8,833.35L379.8,838.89C379.8,839.13 379.97,839.31 380.2,839.31C380.44,839.31 380.63,839.13 380.63,838.89L380.63,833.35L381.06,833.35L381.06,832.09L375.01,832.09Z" style="fill:white;fill-rule:nonzero;"/>
        <path id="path9837" d="M383.08,832.09L383.08,833.35L388.51,833.35L388.51,838.89C388.51,839.13 388.68,839.31 388.91,839.31C389.14,839.31 389.33,839.13 389.33,838.89L389.33,833.35L389.77,833.35L389.77,832.09L383.08,832.09Z" style="fill:white;fill-rule:nonzero;"/>
        <path id="path9835" d="M391.78,832.09L391.78,833.35L396.79,833.35L396.79,838.89C396.79,839.13 396.96,839.31 397.19,839.31C397.43,839.31 397.62,839.13 397.62,838.89L397.62,833.35L398.05,833.35L398.05,832.09L391.78,832.09Z" style="fill:white;fill-rule:nonzero;"/>
        <path id="path9833" d="M400.26,832.09L400.26,833.35L405.27,833.35L405.27,838.89C405.27,839.13 405.46,839.31 405.69,839.31C405.92,839.31 406.09,839.13 406.09,838.89L406.09,833.35L406.53,833.35L406.53,832.09L400.26,832.09Z" style="fill:white;fill-rule:nonzero;"/>
        <path id="path9831" d="M408.31,832.09L408.31,833.35L412.9,833.35L412.9,839.09C412.9,839.33 413.09,839.52 413.32,839.52C413.56,839.52 413.75,839.33 413.75,839.09L413.75,833.35L414.17,833.35L414.17,832.09L408.31,832.09Z" style="fill:white;fill-rule:nonzero;"/>
        <path id="path9829" d="M416,832.09L416,833.35L417.87,833.35C419.95,833.35 421.62,835.02 421.62,837.1L421.62,844.05L422.88,858.63L422.88,835.84C422.88,833.76 421.21,832.09 419.13,832.09L416,832.09Z" style="fill:white;fill-rule:nonzero;"/>
        <g id="g9895" transform="matrix(0.68946,0,0,0.68946,336.04,187.76)">
            <g id="path9849" transform="matrix(0.50771,0,0,0.50771,-133.02,541.81)">
                <path d="M367.26,834.54C367.26,837.07 365.21,839.11 362.68,839.11C360.15,839.11 358.11,837.07 358.11,834.54C358.11,832.01 360.15,829.96 362.68,829.96C365.21,829.96 367.26,832.01 367.26,834.54Z" style="fill:rgb(120,120,120);fill-rule:nonzero;"/>
            </g>
            <g id="path9851" transform="matrix(0.50771,0,0,0.50771,-126.73,541.81)">
                <path d="M367.26,834.54C367.26,837.07 365.21,839.11 362.68,839.11C360.15,839.11 358.11,837.07 358.11,834.54C358.11,832.01 360.15,829.96 362.68,829.96C365.21,829.96 367.26,832.01 367.26,834.54Z" style="fill:rgb(120,120,120);fill-rule:nonzero;"/>
            </g>
            <g id="path9853" transform="matrix(0.50771,0,0,0.50771,-120.72,541.81)">
                <path d="M367.26,834.54C367.26,837.07 365.21,839.11 362.68,839.11C360.15,839.11 358.11,837.07 358.11,834.54C358.11,832.01 360.15,829.96 362.68,829.96C365.21,829.96 367.26,832.01 367.26,834.54Z" style="fill:rgb(120,120,120);fill-rule:nonzero;"/>
            </g>
            <g id="path9855" transform="matrix(0.50771,0,0,0.50771,-114.7,541.81)">
                <path d="M367.26,834.54C367.26,837.07 365.21,839.11 362.68,839.11C360.15,839.11 358.11,837.07 358.11,834.54C358.11,832.01 360.15,829.96 362.68,829.96C365.21,829.96 367.26,832.01 367.26,834.54Z" style="fill:rgb(120,120,120);fill-rule:nonzero;"/>
            </g>
            <g id="path9857" transform="matrix(0.50771,0,0,0.50771,-108.41,541.81)">
                <path d="M367.26,834.54C367.26,837.07 365.21,839.11 362.68,839.11C360.15,839.11 358.11,837.07 358.11,834.54C358.11,832.01 360.15,829.96 362.68,829.96C365.21,829.96 367.26,832.01 367.26,834.54Z" style="fill:rgb(120,120,120);fill-rule:nonzero;"/>
            </g>
            <g id="path9859" transform="matrix(0.50771,0,0,0.50771,-102.12,541.81)">
                <path d="M367.26,834.54C367.26,837.07 365.21,839.11 362.68,839.11C360.15,839.11 358.11,837.07 358.11,834.54C358.11,832.01 360.15,829.96 362.68,829.96C365.21,829.96 367.26,832.01 367.26,834.54Z" style="fill:rgb(120,120,120);fill-rule:nonzero;"/>
            </g>
            <g id="path9871" transform="matrix(0.50771,0,0,0.50771,-96.61,541.81)">
                <path d="M367.26,834.54C367.26,837.07 365.21,839.11 362.68,839.11C360.15,839.11 358.11,837.07 358.11,834.54C358.11,832.01 360.15,829.96 362.68,829.96C365.21,829.96 367.26,832.01 367.26,834.54Z" style="fill:rgb(120,120,120);fill-rule:nonzero;"/>
            </g>
            <g id="path9873" transform="matrix(0.50771,0,0,0.50771,-90.322,541.81)">
                <path d="M367.26,834.54C367.26,837.07 365.21,839.11 362.68,839.11C360.15,839.11 358.11,837.07 358.11,834.54C358.11,832.01 360.15,829.96 362.68,829.96C365.21,829.96 367.26,832.01 367.26,834.54Z" style="fill:rgb(120,120,120);fill-rule:nonzero;"/>
            </g>
            <g id="path9875" transform="matrix(0.50771,0,0,0.50771,-84.307,541.81)">
                <path d="M367.26,834.54C367.26,837.07 365.21,839.11 362.68,839.11C360.15,839.11 358.11,837.07 358.11,834.54C358.11,832.01 360.15,829.96 362.68,829.96C365.21,829.96 367.26,832.01 367.26,834.54Z" style="fill:rgb(120,120,120);fill-rule:nonzero;"/>
            </g>
            <g id="path9877" transform="matrix(0.50771,0,0,0.50771,-78.292,541.81)">
                <path d="M367.26,834.54C367.26,837.07 365.21,839.11 362.68,839.11C360.15,839.11 358.11,837.07 358.11,834.54C358.11,832.01 360.15,829.96 362.68,829.96C365.21,829.96 367.26,832.01 367.26,834.54Z" style="fill:rgb(120,120,120);fill-rule:nonzero;"/>
            </g>
            <g id="path9879" transform="matrix(0.50771,0,0,0.50771,-72.004,541.81)">
                <path d="M367.26,834.54C367.26,837.07 365.21,839.11 362.68,839.11C360.15,839.11 358.11,837.07 358.11,834.54C358.11,832.01 360.15,829.96 362.68,829.96C365.21,829.96 367.26,832.01 367.26,834.54Z" style="fill:rgb(120,120,120);fill-rule:nonzero;"/>
            </g>
            <g id="path9881" transform="matrix(0.50771,0,0,0.50771,-65.716,541.81)">
                <path d="M367.26,834.54C367.26,837.07 365.21,839.11 362.68,839.11C360.15,839.11 358.11,837.07 358.11,834.54C358.11,832.01 360.15,829.96 362.68,829.96C365.21,829.96 367.26,832.01 367.26,834.54Z" style="fill:rgb(120,120,120);fill-rule:nonzero;"/>
            </g>
        </g>
    </g>
</svg>
