<?xml version="1.0" encoding="UTF-8" standalone="no"?>
<!DOCTYPE svg PUBLIC "-//W3C//DTD SVG 1.1//EN" "http://www.w3.org/Graphics/SVG/1.1/DTD/svg11.dtd">
<svg width="100%" height="100%" viewBox="0 0 823 842" version="1.1" xmlns="http://www.w3.org/2000/svg" xmlns:xlink="http://www.w3.org/1999/xlink" xml:space="preserve" xmlns:serif="http://www.serif.com/" style="fill-rule:evenodd;clip-rule:evenodd;stroke-linecap:square;stroke-miterlimit:10;">
    <g transform="matrix(1.98428,0,0,3.19297,-401.423,-943.839)">
        <path d="M213.25,492.89C233.098,485.004 247.206,501.438 268.75,492.89C301.264,479.991 330.628,463.077 367.75,456.89C392.325,452.794 611.511,421.777 575.5,493.64C593.28,495.72 627.058,514.147 610.375,536.39C588.428,565.653 537.21,552.911 507.25,550.64C478.667,548.473 253.153,582.255 283,501.89C252.944,529.07 237.521,494.224 207.25,497.39C208.587,494.763 210.698,494.476 213.25,492.89Z" style="fill:rgb(128,130,133);stroke:black;stroke-width:2px;"/>
    </g>
    <g transform="matrix(1.98428,0,0,3.0295,-401.423,-852.892)">
        <path d="M318.25,471.89C356.932,475.598 388.723,491.751 428.5,490.64C463.625,489.659 518.226,494.748 547.75,473.39" style="fill:none;fill-rule:nonzero;stroke:black;stroke-width:2px;"/>
    </g>
    <g transform="matrix(1.98428,0,0,3.0295,-401.423,-852.892)">
        <path d="M286,498.14C306.823,486.064 327.32,498.599 347.896,505.298C377.174,514.83 405.723,521.26 436.633,522.257C475.899,523.524 548.598,530.452 575.5,493.64" style="fill:none;fill-rule:nonzero;stroke:black;stroke-width:2px;"/>
    </g>
    <g transform="matrix(1.98428,0,0,3.0295,-401.423,-852.892)">
        <path d="M343,505.64C338.13,506.543 333.888,507.116 329.5,509.39C341.06,519.724 363.968,519.565 379.75,516.89C367.5,513.14 355.25,509.39 343,505.64Z" style="fill:none;fill-rule:nonzero;stroke:black;stroke-width:2px;"/>
    </g>
    <g transform="matrix(2.07696,0,0,3.0295,-443.96,-852.892)">
        <path d="M409.75,490.64C429.75,490.39 449.75,490.14 469.75,489.89C395.141,472.448 407.104,424.161 432.625,368.015C444.97,340.856 440.147,275.738 397,286.64C344.667,299.864 380.793,356.326 383.875,387.14C387.156,419.95 343.426,482.068 409.75,490.64Z" style="fill:rgb(109,111,113);stroke:black;stroke-width:2px;"/>
    </g>
    <g transform="matrix(1.98428,0,0,3.0295,-401.423,-852.892)">
        <path d="M415.75,450.14C451.593,459.042 495.845,460.54 527.5,480.89" style="fill:none;fill-rule:nonzero;stroke:black;stroke-width:2px;"/>
    </g>
    <g transform="matrix(1.98428,0,0,3.0295,-401.423,-864.892)">
        <path d="M230.5,490.64L226.75,501.14" style="fill:none;fill-rule:nonzero;stroke:black;stroke-width:2px;"/>
    </g>
    <g transform="matrix(1.98428,0,0,3.0295,-401.423,-864.892)">
        <path d="M240.25,495.14C235.796,499.052 235.132,503.304 238.75,507.89" style="fill:none;fill-rule:nonzero;stroke:black;stroke-width:2px;"/>
    </g>
    <g transform="matrix(1.98428,0,0,3.0295,-401.423,-864.892)">
        <path d="M249.25,498.89C248.019,503.274 248.532,507.838 250.75,511.64" style="fill:none;fill-rule:nonzero;stroke:black;stroke-width:2px;"/>
    </g>
    <g transform="matrix(1.98428,0,0,3.0295,-401.423,-864.892)">
        <path d="M259.75,498.14C258.295,503.81 260.122,508.897 265,511.64" style="fill:none;fill-rule:nonzero;stroke:black;stroke-width:2px;"/>
    </g>
    <g transform="matrix(1.98428,0,0,3.0295,-401.423,-852.892)">
        <path d="M271.75,489.14C271.63,495.978 274.81,501.604 280.75,504.14" style="fill:none;fill-rule:nonzero;stroke:black;stroke-width:2px;"/>
    </g>
    <g transform="matrix(1.98428,0,0,3.0295,-401.423,-852.892)">
        <path d="M286.75,480.89C284.863,485.973 286.122,490.674 290.5,493.64" style="fill:none;fill-rule:nonzero;stroke:black;stroke-width:2px;"/>
    </g>
    <g transform="matrix(1.98428,0,0,3.0295,-401.423,-852.892)">
        <path d="M303.25,473.39C299.861,480.151 300.134,486.927 304.75,492.14" style="fill:none;fill-rule:nonzero;stroke:black;stroke-width:2px;"/>
    </g>
    <g transform="matrix(1.98428,0,0,3.0295,-401.423,-852.892)">
        <path d="M326.5,474.14C321.373,481.515 320.062,490.139 323.5,497.39" style="fill:none;fill-rule:nonzero;stroke:black;stroke-width:2px;"/>
    </g>
    <g transform="matrix(1.98428,0,0,3.0295,-401.423,-852.892)">
        <path d="M351.25,478.64C344.196,485.799 342.337,494.788 346,504.14" style="fill:none;fill-rule:nonzero;stroke:black;stroke-width:2px;"/>
    </g>
    <g transform="matrix(1.98428,0,0,3.0295,-401.423,-852.892)">
        <path d="M374.5,486.89C365.585,493.99 364.211,503.078 370.75,512.39" style="fill:none;fill-rule:nonzero;stroke:black;stroke-width:2px;"/>
    </g>
    <g transform="matrix(1.98428,0,0,3.0295,-401.423,-852.892)">
        <path d="M394,491.39C387.308,499.185 386.28,507.987 391.75,516.14" style="fill:none;fill-rule:nonzero;stroke:black;stroke-width:2px;"/>
    </g>
    <g transform="matrix(1.98428,0,0,3.0295,-401.423,-852.892)">
        <path d="M421,490.64C417.605,501.284 417.703,512.497 423.25,522.14" style="fill:none;fill-rule:nonzero;stroke:black;stroke-width:2px;"/>
    </g>
    <g transform="matrix(1.98428,0,0,3.0295,-401.423,-852.892)">
        <path d="M444.25,489.89C453.349,498.749 457.433,511.744 452.5,523.64" style="fill:none;fill-rule:nonzero;stroke:black;stroke-width:2px;"/>
    </g>
    <g transform="matrix(1.98428,0,0,3.0295,-401.423,-852.892)">
        <path d="M513.25,483.89C526.297,490.552 531.159,504.291 525.25,517.64" style="fill:none;fill-rule:nonzero;stroke:black;stroke-width:2px;"/>
    </g>
    <g transform="matrix(1.98428,0,0,3.0295,-401.423,-852.892)">
        <path d="M541,479.39C555.063,481.576 565.633,492.559 562,507.14" style="fill:none;fill-rule:nonzero;stroke:black;stroke-width:2px;"/>
    </g>
    <g transform="matrix(1.98428,0,0,3.0295,-401.423,-852.892)">
        <path d="M547,474.89C546.677,464.74 551.99,458.075 562,456.14" style="fill:none;fill-rule:nonzero;stroke:black;stroke-width:2px;"/>
    </g>
    <g transform="matrix(1.98428,0,0,3.0295,-401.423,-852.892)">
        <path d="M520.75,475.64C518.352,464.152 522.606,453.063 533.5,448.64" style="fill:none;fill-rule:nonzero;stroke:black;stroke-width:2px;"/>
    </g>
    <g transform="matrix(1.98428,0,0,3.0295,-401.423,-852.892)">
        <path d="M503.5,469.64C499.686,459.883 501.141,450.864 508.75,444.89" style="fill:none;fill-rule:nonzero;stroke:black;stroke-width:2px;"/>
    </g>
    <g transform="matrix(1.98428,0,0,3.0295,-401.423,-852.892)">
        <path d="M481.75,463.64C475.826,457.552 475.77,450.797 481.75,444.89" style="fill:none;fill-rule:nonzero;stroke:black;stroke-width:2px;"/>
    </g>
    <g transform="matrix(1.98428,0,0,3.0295,-401.423,-852.892)">
        <path d="M481,466.64C484.378,475.464 486.136,481.586 478.75,488.39C490.502,495.82 496.599,509.041 490.75,522.14" style="fill:none;fill-rule:nonzero;stroke:black;stroke-width:2px;"/>
    </g>
    <g transform="matrix(1.98428,0,0,3.0295,-401.423,-852.892)">
        <path d="M449.5,456.14C452.895,465.58 450.803,473.851 442.75,478.64" style="fill:none;fill-rule:nonzero;stroke:black;stroke-width:2px;"/>
    </g>
    <g transform="matrix(2.87656,0,0,3.17252,-723.161,-924.776)">
        <path d="M349.75,462.14C357.899,466.126 361.781,472.954 360.25,481.64" style="fill:none;fill-rule:nonzero;stroke:black;stroke-width:2px;"/>
    </g>
    <g transform="matrix(1.98428,0,0,3.0295,-401.423,-852.892)">
        <path d="M325,498.14C305.423,507.234 300.358,526.904 308.5,546.14" style="fill:none;fill-rule:nonzero;stroke:black;stroke-width:2px;"/>
    </g>
    <g transform="matrix(1.98428,0,0,3.0295,-401.423,-852.892)">
        <path d="M351.25,518.39C341.235,529.164 341.379,544.31 351.25,555.14" style="fill:none;fill-rule:nonzero;stroke:black;stroke-width:2px;"/>
    </g>
    <g transform="matrix(1.98428,0,0,3.0295,-401.423,-852.892)">
        <path d="M379.75,519.14C372.653,531.107 373.94,545.662 386.5,552.89" style="fill:none;fill-rule:nonzero;stroke:black;stroke-width:2px;"/>
    </g>
    <g transform="matrix(1.98428,0,0,3.0295,-401.423,-852.892)">
        <path d="M413.5,521.39L415.75,550.64" style="fill:none;fill-rule:nonzero;stroke:black;stroke-width:2px;"/>
    </g>
    <g transform="matrix(1.98428,0,0,3.0295,-401.423,-852.892)">
        <path d="M461.5,523.64C468.151,531.273 469.573,540.202 465.25,549.14" style="fill:none;fill-rule:nonzero;stroke:black;stroke-width:2px;"/>
    </g>
    <g transform="matrix(1.98428,0,0,3.0295,-401.423,-852.892)">
        <path d="M507.25,521.39C520.981,526.123 525.808,540.199 519.25,552.89" style="fill:none;fill-rule:nonzero;stroke:black;stroke-width:2px;"/>
    </g>
    <g transform="matrix(1.98428,0,0,3.0295,-401.423,-852.892)">
        <path d="M543.25,514.64C559.32,521.034 568.067,536.85 563.5,553.64" style="fill:none;fill-rule:nonzero;stroke:black;stroke-width:2px;"/>
    </g>
    <g transform="matrix(1.98428,0,0,3.0295,-401.423,-852.892)">
        <path d="M565,505.64C589.001,500.26 604.704,520.294 606.25,542.39" style="fill:none;fill-rule:nonzero;stroke:black;stroke-width:2px;"/>
    </g>
    <g transform="matrix(1.98428,0,0,3.0295,-401.423,-852.892)">
        <path d="M380.5,301.64C394.07,320.353 416.033,328.236 427,302.39" style="fill:none;fill-rule:nonzero;stroke:black;stroke-width:2px;"/>
    </g>
    <g transform="matrix(1.98428,0,0,3.0295,-401.423,-852.892)">
        <path d="M389.5,313.64C382.4,335.327 380.899,360.928 385,383.39" style="fill:none;fill-rule:nonzero;stroke:black;stroke-width:2px;"/>
    </g>
    <g transform="matrix(1.98428,0,0,3.0295,-401.423,-852.892)">
        <path d="M419.5,314.39C424.817,338.366 426.718,365.052 423.25,389.39" style="fill:none;fill-rule:nonzero;stroke:black;stroke-width:2px;"/>
    </g>
    <g transform="matrix(1.98428,0,0,3.0295,-401.423,-852.892)">
        <path d="M387.25,324.14C397.948,330.923 411.026,330.72 421,322.64" style="fill:none;fill-rule:nonzero;stroke:black;stroke-width:2px;"/>
    </g>
    <g transform="matrix(1.98428,0,0,3.0295,-401.423,-852.892)">
        <path d="M387.25,330.89C397.948,337.673 411.026,337.47 421,329.39" style="fill:none;fill-rule:nonzero;stroke:black;stroke-width:2px;"/>
    </g>
    <g transform="matrix(1.98428,0,0,3.0295,-401.423,-852.892)">
        <path d="M385,338.39C396.878,345.381 411.199,344.838 422.5,336.89" style="fill:none;fill-rule:nonzero;stroke:black;stroke-width:2px;"/>
    </g>
    <g transform="matrix(1.98428,0,0,3.0295,-401.423,-852.892)">
        <path d="M384.25,345.89C396.143,352.735 410.6,352.418 421.75,344.39" style="fill:none;fill-rule:nonzero;stroke:black;stroke-width:2px;"/>
    </g>
    <g transform="matrix(1.98428,0,0,3.0295,-401.423,-852.892)">
        <path d="M384.25,351.14C396.143,357.985 410.6,357.668 421.75,349.64" style="fill:none;fill-rule:nonzero;stroke:black;stroke-width:2px;"/>
    </g>
    <g transform="matrix(1.98428,0,0,3.0295,-401.423,-852.892)">
        <path d="M385,358.64C397.227,365.375 411.703,365.261 423.25,357.14" style="fill:none;fill-rule:nonzero;stroke:black;stroke-width:2px;"/>
    </g>
    <g transform="matrix(1.98428,0,0,3.0295,-401.423,-852.892)">
        <path d="M385,366.14C396.893,372.985 411.35,372.668 422.5,364.64" style="fill:none;fill-rule:nonzero;stroke:black;stroke-width:2px;"/>
    </g>
    <g transform="matrix(1.98428,0,0,3.0295,-401.423,-852.892)">
        <path d="M385,371.39C396.893,378.235 411.35,377.918 422.5,369.89" style="fill:none;fill-rule:nonzero;stroke:black;stroke-width:2px;"/>
    </g>
    <g transform="matrix(1.98428,0,0,3.0295,-401.423,-852.892)">
        <path d="M385,378.14C397.17,385.145 411.612,384.364 423.25,376.64" style="fill:none;fill-rule:nonzero;stroke:black;stroke-width:2px;"/>
    </g>
    <g transform="matrix(1.98428,0,0,3.0295,-401.423,-852.892)">
        <path d="M384.25,385.64C396.477,392.375 410.953,392.261 422.5,384.14" style="fill:none;fill-rule:nonzero;stroke:black;stroke-width:2px;"/>
    </g>
    <g transform="matrix(1.98428,0,0,3.0295,-401.423,-852.892)">
        <path d="M384.25,390.89C396.477,397.625 410.953,397.511 422.5,389.39" style="fill:none;fill-rule:nonzero;stroke:black;stroke-width:2px;"/>
    </g>
    <g transform="matrix(1.98428,0,0,3.0295,-401.423,-852.892)">
        <path d="M383.5,396.14C392.054,405.97 404.938,409.509 417.25,405.14" style="fill:none;fill-rule:nonzero;stroke:black;stroke-width:2px;"/>
    </g>
    <g transform="matrix(1.98428,0,0,3.0295,-401.423,-852.892)">
        <path d="M380.5,402.89C389.438,412.434 402.59,417.022 415,411.89" style="fill:none;fill-rule:nonzero;stroke:black;stroke-width:2px;"/>
    </g>
    <g transform="matrix(1.98428,0,0,3.0295,-401.423,-852.892)">
        <path d="M379,408.14C387.888,417.932 400.963,421.622 413.5,417.14" style="fill:none;fill-rule:nonzero;stroke:black;stroke-width:2px;"/>
    </g>
    <g transform="matrix(1.98428,0,0,3.0295,-401.423,-852.892)">
        <path d="M376,413.39C384.938,422.934 398.09,427.522 410.5,422.39" style="fill:none;fill-rule:nonzero;stroke:black;stroke-width:2px;"/>
    </g>
    <g transform="matrix(1.98428,0,0,3.0295,-401.423,-852.892)">
        <path d="M373.75,420.14C382.249,429.95 395.304,434.059 407.5,429.14" style="fill:none;fill-rule:nonzero;stroke:black;stroke-width:2px;"/>
    </g>
    <g transform="matrix(1.98428,0,0,3.0295,-401.423,-852.892)">
        <path d="M372.25,424.64C382.021,435.363 396.06,440.647 409.75,434.39" style="fill:none;fill-rule:nonzero;stroke:black;stroke-width:2px;"/>
    </g>
    <g transform="matrix(1.98428,0,0,3.0295,-401.423,-852.892)">
        <path d="M371.5,434.39C381.927,443.519 396.964,446.947 409.75,440.39" style="fill:none;fill-rule:nonzero;stroke:black;stroke-width:2px;"/>
    </g>
    <g transform="matrix(1.98428,0,0,3.0295,-401.423,-852.892)">
        <path d="M369.25,441.89C380.239,450.77 395.135,453.207 408.25,447.89" style="fill:none;fill-rule:nonzero;stroke:black;stroke-width:2px;"/>
    </g>
    <g transform="matrix(1.98428,0,0,3.0295,-401.423,-852.892)">
        <path d="M372.25,459.89C385.392,465.087 400.606,463.873 410.5,453.14" style="fill:none;fill-rule:nonzero;stroke:black;stroke-width:2px;"/>
    </g>
    <g transform="matrix(1.98428,0,0,3.0295,-401.423,-852.892)">
        <path d="M376,469.64C389.636,472.549 403.929,468.715 413.5,458.39" style="fill:none;fill-rule:nonzero;stroke:black;stroke-width:2px;"/>
    </g>
    <g transform="matrix(1.98428,0,0,3.0295,-401.423,-852.892)">
        <path d="M382,475.64C395.481,479.212 410.04,475.454 418.75,464.39" style="fill:none;fill-rule:nonzero;stroke:black;stroke-width:2px;"/>
    </g>
    <g transform="matrix(1.98428,0,0,3.0295,-401.423,-852.892)">
        <path d="M389.5,483.14C403.214,486.735 418.12,483.17 427,471.89" style="fill:none;fill-rule:nonzero;stroke:black;stroke-width:2px;"/>
    </g>
    <g transform="matrix(1.98428,0,0,3.0295,-401.423,-852.892)">
        <path d="M368.5,447.14C379.52,456.271 394.217,458.199 407.5,453.14" style="fill:none;fill-rule:nonzero;stroke:black;stroke-width:2px;"/>
    </g>
    <g transform="matrix(1.98428,0,0,3.0295,-401.423,-852.892)">
        <path d="M396.25,300.89C387.32,302.901 387.157,298.516 396.25,300.89Z" style="fill:rgb(214,215,217);stroke:black;stroke-width:2px;"/>
    </g>
    <g transform="matrix(1.98428,0,0,3.0295,-401.423,-852.892)">
        <path d="M418,300.89C409.468,303.104 410.138,299.828 418,300.89Z" style="fill:rgb(214,215,217);stroke:black;stroke-width:2px;"/>
    </g>
    <g transform="matrix(1.98428,0,0,3.0295,-401.423,-852.892)">
        <path d="M391,309.89C398.36,302.462 407.305,303.249 414.25,311.39" style="fill:none;fill-rule:nonzero;stroke:black;stroke-width:2px;"/>
    </g>
</svg>
