<?xml version="1.0" encoding="UTF-8" standalone="no"?>
<!-- Created with Inkscape (http://www.inkscape.org/) -->

<svg
   xmlns:dc="http://purl.org/dc/elements/1.1/"
   xmlns:cc="http://creativecommons.org/ns#"
   xmlns:rdf="http://www.w3.org/1999/02/22-rdf-syntax-ns#"
   xmlns:svg="http://www.w3.org/2000/svg"
   xmlns="http://www.w3.org/2000/svg"
   xmlns:sodipodi="http://sodipodi.sourceforge.net/DTD/sodipodi-0.dtd"
   xmlns:inkscape="http://www.inkscape.org/namespaces/inkscape"
   id="svg3486"
   version="1.1"
   inkscape:version="0.91 r"
   width="792.12714"
   height="725.42853"
   viewBox="0 0 792.12715 725.42852"
   sodipodi:docname="monster_07.svg">
  <metadata
     id="metadata3492">
    <rdf:RDF>
      <cc:Work
         rdf:about="">
        <dc:format>image/svg+xml</dc:format>
        <dc:type
           rdf:resource="http://purl.org/dc/dcmitype/StillImage" />
        <dc:title></dc:title>
      </cc:Work>
    </rdf:RDF>
  </metadata>
  <defs
     id="defs3490" />
  <sodipodi:namedview
     pagecolor="#ffffff"
     bordercolor="#666666"
     borderopacity="1"
     objecttolerance="10"
     gridtolerance="10"
     guidetolerance="10"
     inkscape:pageopacity="0"
     inkscape:pageshadow="2"
     inkscape:window-width="1366"
     inkscape:window-height="744"
     id="namedview3488"
     showgrid="false"
     fit-margin-top="0"
     fit-margin-left="0"
     fit-margin-right="0"
     fit-margin-bottom="0"
     inkscape:zoom="0.77057901"
     inkscape:cx="396.06357"
     inkscape:cy="362.71426"
     inkscape:window-x="0"
     inkscape:window-y="24"
     inkscape:window-maximized="1"
     inkscape:current-layer="svg3486" />
  <path
     style="fill:#000000"
     d="m 617.53823,725.42856 c -36.0635,-10.3889 -75.59234,-17.73119 -112.71914,-11.44276 -30.49101,-20.84884 -68.3962,-9.73696 -104.2307,-18.61153 -26.7134,-7.87241 -44.39489,-12.54553 -66.06839,10.41915 -31.22161,15.04807 -69.26652,1.51512 -102.26701,8.11618 -35.9272,30.01303 6.0885,-37.81736 -4.9174,-18.82513 -35.8713,16.66441 -10.816,-13.49304 -8.5218,-12.94291 -45.3803,22.69202 13.3954,-37.54781 34.64,-22.50849 14.95139,5.43883 64.46429,9.4681 28.65799,-10.11638 -21.15739,-33.60531 -6.8714,-77.71282 1.9655,-113.69052 2.5572,-19.42154 47.65471,-51.79291 4.1276,-45.34364 -38.53199,0.20687 -23.01038,25.50654 -81.89479,57.64388 -37.79563,14.01076 -82.025,13.00595 -102.58029,-24.08818 C 73.539896,499.18571 68.125996,457.20971 76.929396,421.1546 c 3.4594,-42.04621 34.083904,-83.7815 13.1091,-125.69268 -9.8123,-45.81675 -60.4425,-40.06259 -85.1349997,-69.99459 -19.6260003,-35.81386 23.6539997,-79.14482 59.2038997,-60.8276 33.456,12.59891 22.2266,51.06084 11.2635,71.95181 28.510904,27.57365 45.141994,66.80438 40.152704,106.7551 -1.9224,34.6299 -22.855804,65.28559 -26.115904,99.69392 6.5102,29.4706 16.858804,63.63914 42.167294,84.39625 30.4697,30.55838 78.9955,7.13567 104.2512,-18.95322 19.9554,-35.04939 62.42109,-36.04028 92.3612,-33.25062 21.6943,-15.6069 50.696,-14.77131 42.1966,-51.83789 3.1181,-42.0092 -43.1719,-52.16713 -74.76681,-59.30879 -42.28099,-10.28201 -64.81289,-52.13908 -65.18849,-93.17537 -8.8016,-37.68118 25.0076,-67.80753 57.35769,-79.07915 38.97781,-5.18841 96.52611,-47.68923 41.11411,-78.72398 -30.06401,-3.01581 -75.0289,-10.7722 -75.9416,-49.385575 1.1035,-35.28197 34.36079,-39.22846 64.19319,-34.34422 34.75271,7.96145 33.58131,51.90233 21.59231,73.207055 41.303,16.49 37.0997,77.2646 -6.5388,87.38208 -27.17311,13.92453 -55.09711,23.74953 -78.4605,42.3451 -16.0293,30.29866 -2.9071,68.39421 16.38019,93.37979 22.965,35.38265 67.41311,17.75671 97.27191,39.35451 32.3929,18.85878 14.9759,69.40638 23.8026,88.14143 29.7951,-6.57713 27.2864,-59.91099 33.1433,-88.25863 -6.3949,-46.06257 -26.3657,-93.70204 -8.4821,-139.80685 20.3241,-35.3714 49.2671,-72.44673 92.54,-78.32536 34.0207,-11.0729 61.12558,-49.060365 55.53782,-80.403295 -19.2392,-26.42624 8.46868,-62.0557596 36.42578,-65.2068796 26.6054,-7.74729 49.0831,24.0599896 38.2365,48.0954996 -7.2829,25.61661 -40.3697,23.61267 -58.6645,32.94279 -9.7415,29.616995 -19.8678,70.424345 -55.7166,77.249655 -35.0195,7.88703 -69.9206,26.62559 -83.1032,62.04573 -11.9746,36.91334 -8.3346,76.32651 1.2754,113.25161 3.614,37.52851 6.5509,77.24743 -10.7085,112.04031 24.7714,6.91909 60.069,15.26264 86.3881,28.07451 27.6416,-35.83755 57.8347,-78.50894 48.91,-126.60096 -16.3088,-38.13078 9.6111,-68.34422 44.0267,-82.02246 24.9062,-17.73192 51.2612,-48.18294 37.7454,-79.49679 4.3591,-38.36655 69.1199,-54.22639 82.7628,-15.82871 14.4905,36.13496 -31.5518,69.294 -63.3295,53.09295 -10.6883,33.65283 -45.4878,48.87871 -70.1273,70.81466 -38.2231,22.12734 -8.1408,73.01839 -20.5683,107.73318 -1.102,31.78227 -39.989,63.69926 -31.4833,89.79305 25.6903,14.73923 10.5344,68.50204 43.1321,31.6669 32.2375,-21.96755 71.7048,-14.73866 107.0198,-21.74908 34.8214,-4.94634 62.5624,-33.86697 78.9188,-63.20118 7.9348,-28.58707 -9.9932,-82.91091 -46.4871,-70.63532 -43.7508,10.21987 -72.9039,-52.8631 -32.3201,-75.36478 30.9721,-22.37512 87.8958,2.30728 72.7693,44.87957 -25.432,29.48257 27.1879,48.01705 22.8277,80.81931 3.0249,37.98472 -25.5841,73.64452 -58.4221,89.45033 -41.7286,24.56318 -95.4157,6.0508 -137.2467,31.62579 -25.065,20.99402 -30.8378,50.11146 -32.49,80.83047 -4.1372,24.2815 -35.5368,65.36306 10.4253,53.95774 20.1158,-5.64312 67.0455,12.87956 59.3398,26.82184 -25.0161,-14.38902 -20.8673,-4.11062 -4.7578,11.8479 -41.32103,-16.50563 -5.75647,10.86863 -11.17906,12.1071 z m -10.58246,-11.22085 c -28.2089,-18.83133 2.19697,15.51816 0,0 z m -383.98268,-0.90678 c 22.6476,-7.86987 -4.6723,-7.96055 0,0 z m 363.186,-1.87314 c 19.7532,-14.8932 -45.5174,-12.8936 -11.1224,-15.21474 21.7398,10.98762 42.7556,-9.50042 7.6309,-7.21183 -29.923,-5.00048 62.4632,1.89183 14.9685,-8.37024 -31.2195,1.65222 -73.916,0.30714 -44.4452,-38.76508 13.7328,-42.04275 17.2182,-89.72136 2.5803,-132.03352 -24.4032,-32.83146 -68.4648,-43.04293 -105.942,-54.38791 -38.1846,-4.87428 -79.2459,1.00198 -113.9634,17.95512 -33.65301,27.95708 -56.55011,68.02963 -58.86171,112.17682 -9.6187,22.38314 4.4035,87.19304 31.0443,66.0087 -10.3748,39.43202 -63.44099,-4.39079 -82.13809,19.61262 -5.7449,16.05306 58.55869,-8.66092 29.8185,6.08588 -24.166,-5.75629 -33.467,23.45085 -5.2206,10.73897 37.67619,-3.92599 -46.361,13.33795 -4.6359,21.03958 32.84069,-9.81498 77.0263,13.57706 99.8208,-19.76187 -4.6315,-19.27955 31.7039,-47.77936 7.8712,-18.8989 12.3403,25.33245 69.0426,20.36328 99.1576,25.8361 22.5301,5.82281 29.1165,-3.08055 31.2796,-23.87095 -13.8228,41.19303 38.5822,39.53102 66.0553,32.52769 12.808,-2.46001 25.1222,6.88656 36.1023,6.53356 z m -97.4139,-74.77368 c -31.4154,-24.7982 -71.679,2.36529 -101.7456,-23.54356 -27.8256,-14.903 -89.26281,2.91014 -81.81611,-48.65445 7.2383,-42.02484 58.76391,-32.70525 85.01661,-15.12258 35.9927,23.97563 83.033,-3.62842 118.8744,18.9264 25.1252,19.4061 22.1074,79.35265 -20.3293,68.39419 z m 11.0359,-3.78037 c 34.7214,-1.97842 24.7873,-56.18299 -0.4337,-65.82924 -31.9992,-20.21068 -44.6331,20.48543 -61.6827,35.84153 -7.9139,-14.46131 -9.9156,-54.94538 -24.3064,-21.69618 -31.4595,40.62252 -19.1615,-55.86413 -62.6018,-42.02326 -38.83811,-16.06604 -62.06321,52.29642 -20.6322,59.56249 15.0199,-13.35644 28.6885,-55.46847 32.5165,-13.11226 11.6505,30.09395 58.2738,41.89195 89.5035,32.34395 13.6884,-5.74826 23.2511,-50.53422 30.7979,-10.72477 4.5905,8.35916 1.1429,30.95894 16.8389,25.63774 z m -15.9577,-9.42709 c -2.799,-17.43667 -11.0184,-42.27448 -19.3815,-11.69902 -17.1803,11.12738 33.8722,27.99155 19.3815,11.69902 z m -121.8905,-22.81496 c -1.3393,-13.44647 -6.2196,-45.44635 -15.9061,-15.32149 -24.3569,21.38884 1.6246,15.52558 15.9061,15.32149 z m 79.8385,-7.11368 c 9.6771,-15.59409 38.4066,-38.31231 2.9393,-29.65463 -31.2116,-12.53247 -7.0607,30.55743 -2.9393,29.65463 z m -36.0858,-10.41643 c 30.2946,-19.89 -6.0068,-24.47712 -20.9101,-30.77369 5.1935,6.44542 10.8434,51.85184 20.9101,30.77369 z m 211.4244,121.5055 c -8.8506,-12.55613 -25.2912,-1.8151 0,0 z m 9.5287,-11.99554 c -15.12616,-14.87894 -16.97275,0.83326 0,0 z m -406.18715,-0.17693 c 18.94154,-19.62976 -24.94281,9.53991 0,0 z m -9.79825,-12.14848 c 23.4398,-2.65252 5.6608,-12.21447 -2.5972,1.21534 z m 359.3629,-112.90575 c 15.3389,-37.71561 57.3972,-46.71082 93.8462,-48.30381 54.4612,3.8927 112.7524,-30.8625 124.5243,-86.05501 14.7769,-38.98941 -49.9809,-62.99952 -23.463,-94.75731 11.6983,-28.37467 -13.733,-53.19195 -42.3339,-49.57962 -41.0119,-4.12809 -56.91362,59.41015 -15.69812,72.04555 26.1868,6.55533 49.08623,-8.16776 63.99922,29.12743 26.7364,35.16456 -1.5393,76.56839 -31.5148,98.26205 -30.1651,26.42474 -71.92,20.23512 -108.6164,24.79887 -21.9615,7.13128 -61.4919,15.00877 -62.4031,43.27215 0.4035,3.25797 -1.0745,21.95601 1.6596,11.1897 z m 148.3165,-209.38813 c -31.426,-1.01128 -36.2654,-54.65525 -4.8617,-59.43534 30.2037,-5.07099 59.1789,27.92843 34.1369,52.3581 -8.1344,6.89697 -19.7473,6.0275 -29.2752,7.07724 z m 19.2893,-6.32283 c 37.6148,-17.95546 -1.1834,-65.17588 -31.8358,-45.72631 -30.51567,34.14629 17.43923,57.45976 31.8358,45.72631 z m -569.5127,203.21206 c 40.0055,-4.71594 73.348,-27.02275 95.44479,-59.70932 9.4824,-16.95414 83.46141,0.93212 37.6884,-17.18311 -43.61149,-6.39341 -60.83899,43.88199 -96.24939,58.20019 -38.1791,23.13471 -83.7834,1.90593 -101.41749,-36.66768 C 90.602896,471.17205 76.872896,438.9544 93.476296,409.02423 106.8916,372.27091 119.1752,332.61503 107.1903,293.54668 c 0.2422,-28.61624 -49.449904,-46.44335 -30.220204,-72.78039 20.5614,-28.48557 -13.6426,-68.97575 -44.9505,-53.24246 -27.5142997,8.95592 -35.2727997,47.90661 -14.3688,67.02906 26.814,13.31266 59.2671,18.24434 70.4902,48.33131 25.839204,36.52201 7.1387,78.55537 -3.936,116.21819 -8.0604,38.62136 -16.3784,86.93656 17.218804,116.40081 16.4176,21.85749 36.33079,44.124 66.68549,39.37828 z M 33.820396,237.94894 c -46.8804,-13.03944 -14.4865,-84.40609 25.5418,-64.61592 38.4424,14.18286 16.0557,72.74362 -20.7285,65.45556 z m 16.8531,-2.88096 c 41.5674,-9.31687 22.7305,-74.98878 -14.8837,-58.6789 -16.1198,7.78966 -30.8721997,33.0273 -14.4023,47.82728 6.8192,9.17266 18.0749,13.9621 29.286,10.85162 z m -12.9477,-4.06761 c -47.6225997,-12.1875 3.9257,-75.46593 27.5379,-34.14487 10.2061,18.0393 -8.8627,39.09952 -27.5379,34.14487 z m 6.6353,-16.07144 c 8.1591,-17.47994 -15.6764,5.95998 0,0 z m -9.8617,-6.97378 c 4.6064,-20.27786 -17.7008,11.29993 0,0 z M 539.10129,479.79379 c 17.816,-35.85555 41.666,-71.80387 37.6419,-113.92283 -10.4144,-38.70793 4.3936,-73.50133 40.3232,-91.10792 23.4945,-10.98043 40.526,-39.66515 51.498,-55.88085 31.6657,20.56353 77.904,-20.90112 54.9732,-53.87618 -25.5323,-31.02526 -87.446,5.36022 -66.0048,42.20065 -1.4989,23.36753 -24.8585,50.3642 -46.7324,63.51573 -39.8802,14.25118 -53.088,50.99955 -38.7617,89.59089 3.188,44.97629 -25.3539,82.83404 -50.4582,116.92142 5.3864,0.71961 15.9649,14.82544 17.5208,2.55909 z m 141.0295,-260.40001 c -44.1719,-9.66075 -18.083,-70.76308 20.0388,-63.06823 43.9297,4.00731 23.5493,71.83201 -15.636,63.81542 z m 18.7998,-5.48255 c 52.2728,-18.91854 -2.199,-82.83906 -32.0411,-38.47498 -19.7304,20.88738 7.3686,50.58265 32.0411,38.47498 z m -11.5693,-7.27426 c -46.2119,-16.61396 26.6995,-64.72509 27.2369,-16.3611 -0.7496,12.42411 -16.1335,20.01159 -27.2369,16.3611 z m 7.6273,-18.71167 c 16.95421,-26.93702 -35.67696,5.93902 0,0 z m -316.3662,267.41625 c 12.5545,-26.08771 11.2266,-69.85993 -16.1391,-89.61473 -35.0456,-15.51479 -79.79031,-6.96211 -102.6008,-46.08225 -14.9429,-28.91663 -31.1044,-75.59512 0.9756,-98.58786 31.66889,-22.05687 75.2176,-27.92151 100.2649,-58.37405 16.0775,-27.89866 -16.224,-51.93283 -28.2527,-64.997715 26.7188,-25.21207 0.3923,-74.52202 -34.69481,-65.92462 -14.7938,1.76763 -21.324,4.1529 -33.6056,12.94632 -28.92329,42.24289 32.3505,66.828725 66.66821,66.235705 21.023,10.73978 40.7597,43.47658 12.8971,59.16858 -34.79031,24.54625 -88.6365,26.0447 -107.8815,69.71442 -7.237,35.38225 -0.4713,79.69694 28.79189,104.17077 28.1985,28.91537 80.78271,14.85019 102.82981,51.27296 12.3949,16.0003 -1.0946,50.54436 10.747,60.07247 z M 301.13508,100.20858 c -32.953,2.27499 -56.25909,-45.432285 -19.894,-59.453305 33.5324,-18.9477 77.62751,17.68849 50.67831,51.64618 -7.33,9.590415 -20.06571,8.569845 -30.78431,7.807125 z m 16.2222,-2.939695 c 34.58961,-13.47944 16.00041,-70.86726 -22.0301,-56.7336 -40.60309,3.53376 -32.8325,60.547765 8.152,56.82296 l 5.3704,0.46632 8.5082,-0.55568 z m -23.7757,-9.4659 c -48.38579,-14.41903 14.0251,-67.58837 22.6547,-20.69086 5.05861,13.32208 -11.4639,22.8351 -22.6547,20.69086 z m 4.3066,-12.76735 c 8.4656,-8.45289 -11.589,1.16711 0,0 z m -7.1314,-5.8333 c 13.1689,-14.74191 -18.9016,-5.83519 0,0 z M 425.96599,449.53625 c 21.7314,-43.31008 17.4541,-94.24179 7.6276,-140.19242 -7.1379,-34.89716 -7.1815,-76.34906 13.7057,-106.67539 19.7765,-36.76966 64.2342,-38.96015 97.2042,-56.58409 28.4106,-19.19954 16.5201,-74.509515 54.8486,-74.537125 11.4764,-2.9576 -31.19006,9.18664 -32.8346,-28.80723 -2.1647,-15.59293 25.22812,-40.2666996 -4.8e-4,-17.37534 -16.4914,25.64751 15.53268,54.84495 -7.71072,81.249005 -11.9307,32.1062 -46.0977,44.70431 -76.7999,51.71277 -39.347,25.35452 -74.4932,68.80426 -68.9517,118.3813 0.538,42.59212 23.9291,83.4808 11.2821,126.47024 -0.2327,11.80714 -32.2464,56.62106 1.6292,46.35828 z m 182.808,-385.090015 c 32.5352,-13.2621 19.9145,-67.6849696 -16.9969,-49.00917 -33.2795,15.38056 -24.6485,65.42111 16.9969,49.00917 z m -20.7811,-8.38178 c -41.5854,-25.61281 44.5019,-59.8040996 23.874,-7.76298 -5.7806,6.18587 -15.7539,8.68931 -23.874,7.76298 z m 7.7625,-9.49329 c -1.1773,-6.99032 -7.2301,4.30829 0,0 z m -0.7587,-8.74684 c 8.388,-15.8384 -16.0303,1.59343 0,0 z m 30.3793,23.79281 c 19.3583,-11.30541 3.43345,-66.8579296 5.68115,-21.3578 1.3219,7.52557 -25.01072,32.852 -5.68115,21.3578 z m 4.3639,-43.0156 c -1.1389,-20.5739896 -49.64244,-14.0003296 -46.42919,-4.4552 14.2367,-9.7494396 37.56929,-4.6458796 46.42919,4.4552 z m 89.7426,120.753395 c -5.2082,-5.68555 5.5708,1.43873 0,0 z"
     id="path3496"
     inkscape:connector-curvature="0"
     sodipodi:nodetypes="ccccccccccccccccccccccccccccccccccccccccccccccccccccccccccccccccccccccccccccccccccccccccccccccccccccccccccccccccccccccccccccccccccccccccccccccccccccccccccccccccccccccccccccccccccccccccccccccccccccccccccccccccccccccccccccccccccccccccccccccccccccccccccccccccccccc" />
  <path
     style="fill:#000000;fill-opacity:1;fill-rule:evenodd;stroke:#000000;stroke-width:1px;stroke-linecap:butt;stroke-linejoin:miter;stroke-opacity:1"
     d="m 728.28888,348.10174 c -7.99092,1.86677 -20.94757,-11.83993 -22.46551,-15.0276 -1.51794,-3.18768 -0.45538,-17.00092 1.82153,-20.34039 2.27691,-3.33947 18.54541,-3.23455 20.94757,-2.5805 5.32076,1.4487 15.29794,11.76354 15.63477,15.33119 0.23816,2.52258 1.51237,11.53148 -1.97332,14.42042 -4.80455,3.982 -10.77771,7.45228 -13.96504,8.19688 z"
     id="path3501"
     inkscape:connector-curvature="0"
     sodipodi:nodetypes="sssssss" />
  <path
     style="fill:#ffffff;fill-opacity:1;fill-rule:evenodd;stroke:#000000;stroke-width:1px;stroke-linecap:butt;stroke-linejoin:miter;stroke-opacity:1"
     d="m 725.40479,315.01066 c 0,0 -15.33118,0.91076 -13.81324,8.19687 1.02586,4.92413 11.38454,4.25022 14.11683,2.73228 2.73229,-1.51793 2.42871,-2.4287 3.18768,-4.25023 0.75897,-1.82152 -3.49127,-6.67892 -3.49127,-6.67892 z"
     id="path4303"
     inkscape:connector-curvature="0"
     sodipodi:nodetypes="csssc" />
  <path
     style="opacity:1;fill:#6bf611;fill-opacity:1;fill-rule:nonzero;stroke:#000000;stroke-width:3.47061682;stroke-linecap:round;stroke-linejoin:round;stroke-miterlimit:4;stroke-dasharray:none;stroke-dashoffset:0;stroke-opacity:1"
     d="m 566.43735,705.8302 c -7.75171,-2.43383 -13.3636,-2.71481 -20.64397,-1.03359 -14.79702,3.41697 -39.36343,2.90799 -48.74012,-1.00985 -10.04062,-4.19525 -16.3791,-11.44587 -15.10724,-22.34045 0.52807,-4.52318 2.21182,-8.22395 1.14422,-8.22395 -1.06756,0 -1.94102,2.78197 -1.94102,6.18215 0,3.40019 0.24299,9.58221 -3.17053,12.99573 -5.27954,5.27955 -10.58081,5.34811 -18.20559,3.9177 -4.92982,-0.92485 -23.72204,-1.63803 -41.76048,-3.4401 -37.62874,-3.75919 -46.93508,-7.59824 -57.07119,-15.75218 -6.98203,-5.61666 -7.10352,-6.03818 -3.03588,-10.53288 6.24048,-6.89564 5.5204,-12.28544 -0.86884,-6.50327 -6.77189,6.12848 -2.02008,13.3414 -2.02008,20.72013 0,7.4818 -21.73639,22.404 -33.96866,25.60641 -11.88384,3.11119 -87.62475,2.33129 -88.72714,-0.9759 -0.45738,-1.37212 6.76145,-8.47904 13.47083,-11.62154 14.83484,-6.94827 15.75378,-5.94444 2.07709,-2.87149 -13.88303,3.11931 -19.60162,-2.2507 -13.79426,-8.66777 2.85073,-3.15001 10.50213,-4.19959 16.42696,-4.19959 5.5058,0 6.09415,-0.98201 8.12404,-3.45705 2.99358,-3.65004 5.14004,-3.32483 -0.31295,-1.86287 -22.24642,5.96433 -46.78157,4.57143 -33.62091,-2.47195 3.81486,-2.04165 13.82848,-8.67971 28.60528,-7.28202 33.09202,3.13009 43.57132,6.71308 49.89543,-0.63914 7.42199,-8.62858 7.25127,-7.52396 -1.45754,-5.7822 -4.55067,0.91013 -9.09976,-3.4386 -11.62746,-5.52529 -5.9363,-4.90059 -12.40931,-20.95412 -14.3438,-35.5736 -1.57773,-11.92346 -0.82203,-18.38657 6.53913,-55.92591 6.38624,-32.56755 35.75451,-78.27161 60.57932,-89.19009 23.25508,-10.22808 47.85342,-17.42928 78.764,-17.47333 26.61815,-0.0379 31.24968,3.84813 53.43147,11.24462 34.06846,11.3601 54.23148,18.86364 68.46597,31.66167 17.23434,15.49515 21.70203,29.30319 21.64591,73.89629 -0.0469,37.20372 -4.25354,61.62033 -15.39553,83.09602 -11.69819,22.54776 -2.31453,23.47843 37.34783,25.23114 26.35301,1.16457 30.82146,8.79973 15.06748,9.12239 -18.02569,0.36919 -23.24245,2.15401 -6.0001,3.51971 17.09783,1.35426 7.90426,10.6827 -10.30521,8.64065 -6.18705,-0.69383 -22.35846,-2.77986 -6.08437,1.21873 11.00205,2.70324 16.9047,11.85329 7.65323,11.46128 -3.11682,-0.13212 -15.18023,-4.32025 -21.03532,-6.15861 z m -49.22568,-74.85246 c 5.47957,-5.47957 6.44835,-8.74994 7.09346,-23.94597 0.97659,-23.00469 -4.91411,-34.32673 -22.35623,-42.96913 -11.20529,-5.55211 -21.61583,-3.97737 -59.19963,-5.19883 l -33.24679,-1.0805 -20.64398,-10.27898 c -30.07062,-14.97265 -52.3645,-17.59255 -69.81729,-8.20468 -12.95593,6.96901 -19.22231,34.07041 -11.38296,49.23004 4.92877,9.5312 14.57522,13.36819 45.15601,17.96135 13.71417,2.05984 27.34339,3.96687 31.40031,6.09311 4.05693,2.12624 11.50247,7.0717 15.43251,9.13464 4.90237,2.57333 18.69682,2.3809 41.28795,3.36792 28.29355,1.23617 34.42807,3.71313 41.73213,8.33171 11.54017,7.29722 25.69575,6.40809 34.54451,-2.44068 z"
     id="path4307"
     inkscape:connector-curvature="0"
     sodipodi:nodetypes="ssssssssssssssssssssssssssssssssssssssscssssscsssssssss" />
  <path
     style="opacity:1;fill:#6bf611;fill-opacity:1;fill-rule:nonzero;stroke:#000000;stroke-width:3.47061682;stroke-linecap:round;stroke-linejoin:round;stroke-miterlimit:4;stroke-dasharray:none;stroke-dashoffset:0;stroke-opacity:1"
     d=""
     id="path4309"
     inkscape:connector-curvature="0" />
  <path
     style="opacity:1;fill:#6bf611;fill-opacity:1;fill-rule:nonzero;stroke:#000000;stroke-width:1.73530841;stroke-linecap:round;stroke-linejoin:round;stroke-miterlimit:4;stroke-dasharray:none;stroke-dashoffset:0;stroke-opacity:1"
     d="m 148.67739,553.7177 c -12.13509,-3.07646 -26.71935,-12.02626 -39.26658,-26.82812 -4.64928,-5.48472 -9.24518,-13.16231 -12.574464,-16.79894 -23.5354,-25.70812 -27.02052,-65.74866 -7.38819,-131.60934 13.762674,-46.16972 13.483004,-65.56407 0.31183,-92.32636 -11.11023,-22.57468 -19.00803,-29.71988 -44.33247,-40.26271 -25.27342,-10.52159 -28.41649,-12.22407 -32.19342,-17.43796 -4.9947997,-6.89513 -6.7443097,-14.19595 -6.0752697,-25.35254 0.99343,-16.56588 9.6593297,-28.78561 24.6777097,-34.79788 19.08536,-7.6404 37.45331,-0.66661 46.63402,17.70562 4.62668,9.2588 5.10566,20.30399 1.24909,28.80411 -3.10427,6.84201 -4.02053,5.97022 -1.72874,-1.64482 5.35598,-17.79659 -1.29641,-32.68956 -17.93764,-40.15769 -23.16508,-10.39587 -47.45791,5.86437 -49.23488,32.95503 -0.69254,10.55811 0.99282,16.17159 6.77772,22.57479 5.40208,5.97945 11.08228,8.9201 20.34269,10.53142 12.28084,2.13688 22.5397,-1.24178 30.72129,-10.11775 l 12.93258,-22.99797 -8.79329,24.83002 c -3.17279,8.95916 6.09887,10.0913 19.09296,30.47294 5.22567,8.19663 9.202604,14.47036 10.503194,17.14193 1.30058,2.67158 5.73183,12.3907 7.48585,21.07331 2.77137,13.71854 1.60977,18.92795 1.10102,32.64649 -0.8906,24.01549 -2.92423,38.92956 -20.836584,88.50665 -2.80299,7.75802 -4.52736,8.69987 -4.04079,21.99933 0.46846,12.80455 1.08131,16.19259 5.05219,27.93008 6.93985,20.51354 17.480354,41.13712 25.568754,50.02795 18.21858,20.026 45.02119,29.52801 68.08333,24.13677 10.35979,-2.42182 25.73449,-9.75311 35.35663,-16.85949 3.93012,-2.90257 14.13872,-15.11481 23.98447,-24.54094 14.71131,-14.08433 19.26539,-17.81086 26.9559,-21.61189 7.89258,-3.90091 11.88532,-4.54028 19.77295,-4.90008 8.13113,-0.37091 23.22535,-1.66073 29.68848,1.23972 4.08855,1.83484 -2.45902,7.91642 -2.86202,8.3199 -0.40299,0.40348 -12.60341,0.27199 -23.4015,0.63542 -23.73262,0.79877 -25.71554,1.88851 -34.10682,12.39349 -7.48043,9.3647 -16.04572,19.75282 -25.74181,28.00971 -9.6961,8.25689 -20.57508,14.60801 -30.45361,18.63544 -19.86443,8.09866 -43.77151,10.60326 -55.32458,7.67436 z"
     id="path4313"
     inkscape:connector-curvature="0"
     sodipodi:nodetypes="ssssssssssssssssscsssssssssssssssssssss" />
  <path
     style="opacity:1;fill:#6bf611;fill-opacity:1;fill-rule:nonzero;stroke:#000000;stroke-width:1.22704828;stroke-linecap:round;stroke-linejoin:round;stroke-miterlimit:4;stroke-dasharray:none;stroke-dashoffset:0;stroke-opacity:1"
     d="m 374.78112,451.01018 c -1.26079,-2.34586 -1.43389,-5.68874 -1.88639,-23.37288 -0.395,-15.43652 0.18046,-21.9884 -0.76702,-24.60892 -3.81063,-10.53938 -13.32234,-20.95005 -24.30081,-26.59749 -8.49542,-4.37013 -16.45379,-6.9815 -35.18297,-11.54454 -26.30212,-6.40806 -36.46896,-9.73581 -48.53797,-20.3896 -15.41898,-13.61093 -22.79154,-30.24359 -27.60607,-52.70005 -1.54953,-7.2275 -1.90773,-11.75328 -1.95743,-24.73184 -0.0371,-9.69993 -0.0534,-18.65534 0.63149,-22.32558 2.89244,-15.49992 18.62583,-32.88397 41.24078,-44.17545 3.93619,-1.96531 15.76446,-5.59365 25.76028,-9.63721 33.36771,-13.49806 48.85536,-22.58663 53.45367,-31.36805 2.35271,-4.49296 3.13766,-10.57903 2.05122,-15.90407 -2.12263,-10.40391 -11.17448,-23.31539 -20.79232,-29.65799 -3.92695,-2.58967 -5.47009,-3.05786 -11.8156,-3.58487 -29.43059,-2.44431 -55.90828,-15.599375 -64.32387,-31.958395 -2.56278,-4.98177 -3.78269,-10.95228 -3.12877,-15.31294 0.52325,-3.48924 0.811,-3.87515 2.88985,-3.87563 2.23796,-5.1e-4 2.29962,0.13119 2.01107,4.29544 -0.62111,8.96357 4.66049,20.5184 12.61196,27.59183 6.88437,6.12417 13.2598,8.54839 24.8626,9.453875 22.31527,1.74149 30.1084,-1.683205 37.36499,-16.420015 2.38967,-4.85299 2.739,-6.44095 2.739,-12.4508 0,-3.78862 -0.3205,-8.14421 -0.71224,-9.6791 -0.57404,-2.24924 -0.45551,-2.79069 0.61092,-2.79069 2.04996,0 3.3365,6.38979 2.93909,14.59749 -0.39505,8.159 -2.74648,14.48937 -7.64746,20.58797 l -2.77665,3.45518 10.34861,10.554695 c 16.26481,16.58868 22.18457,27.2027 22.01551,39.47338 -0.11535,8.37292 -3.64397,15.21577 -11.45028,22.20493 -12.19557,10.91897 -21.43991,16.1315 -55.40264,31.23943 -34.89154,15.52111 -44.94082,22.59616 -51.45186,36.22396 -3.36152,7.03576 -4.37022,12.80709 -4.24892,24.31055 0.1289,12.22515 2.70634,23.97502 8.47614,38.64043 7.16785,18.21896 14.29678,29.3341 23.40341,36.48968 11.26645,8.85269 22.70254,13.08802 51.15583,18.94543 10.46865,2.15509 21.03443,2.71588 26.10324,4.39466 8.9898,2.97742 13.78224,5.17155 19.45107,11.14721 17.27634,18.21147 20.02665,48.98009 10.10775,77.51112 -1.02617,2.9517 -1.56361,7.64363 -1.93641,7.64363 -0.37281,0 -3.47788,-4.13989 -4.3028,-5.67478 z"
     id="path4317"
     inkscape:connector-curvature="0"
     sodipodi:nodetypes="ssssssssssssssssssssssssssscssssssssssssss" />
  <path
     style="opacity:1;fill:#6bf611;fill-opacity:1;fill-rule:nonzero;stroke:#000000;stroke-width:2.45409656;stroke-linecap:round;stroke-linejoin:round;stroke-miterlimit:4;stroke-dasharray:none;stroke-dashoffset:0;stroke-opacity:1"
     d="m 414.07732,450.57929 c -4.39431,-2.49616 -3.92053,-8.25496 3.57411,-26.77688 3.7022,-9.14946 7.66725,-20.98083 8.81122,-26.29195 3.31567,-15.39369 1.23892,-44.84852 -5.13119,-72.77632 -7.16186,-31.39899 -9.31165,-56.99051 -6.25672,-74.48118 4.2653,-24.42047 16.59541,-50.13949 38.58775,-71.16979 16.42003,-15.70175 24.87367,-20.92742 42.69596,-26.39282 32.05868,-9.83114 48.62449,-20.625 62.23955,-45.58077 9.58289,-17.564975 11.20985,-20.339265 6.88352,-42.952275 -4.10965,-21.48047 -3.83356,-32.00575 1.71409,-38.27581 3.09898,-3.50253 4.52802,-2.94103 3.42641,0.11382 -5.51389,15.29034 -6.09461,23.70999 0.48307,33.64529 2.10223,3.17533 7.02072,7.26067 10.92999,9.07854 l 18.56822,1.86317 -16.80999,5.0471 c -6.57274,1.97343 -10.04343,13.36399 -14.78623,27.922225 -14.6653,45.0158 -12.9012,32.13053 -18.56529,37.75425 -5.55431,5.51473 -13.23971,7.9345 -40.77386,18.05981 -40.28274,14.81344 -53.87798,25.01428 -67.35723,50.5398 -10.22281,19.35884 -13.13743,32.76953 -13.01263,59.87337 0.0777,16.88037 1.23757,28.18965 4.75541,46.36851 6.23898,32.24072 10.3225,74.12964 6.13717,96.42769 -2.1784,11.60577 -12.38354,33.96256 -14.47949,35.99618 -1.49779,1.45326 -9.35217,3.30412 -11.63384,2.00804 z"
     id="path4319"
     inkscape:connector-curvature="0"
     sodipodi:nodetypes="ssssssssssssscssssssssss" />
  <path
     style="opacity:1;fill:#6bf611;fill-opacity:1;fill-rule:nonzero;stroke:#000000;stroke-width:0.8676542;stroke-linecap:round;stroke-linejoin:round;stroke-miterlimit:4;stroke-dasharray:none;stroke-dashoffset:0;stroke-opacity:1"
     d="m 528.58267,480.83778 c -3.11367,-1.99649 -6.84956,-3.45218 -7.00328,-3.6059 -0.15373,-0.15373 4.1052,-5.11651 8.1656,-10.65736 22.17811,-30.26441 33.86644,-51.99722 39.19605,-72.87953 3.94902,-15.47293 4.43092,-29.9905 1.32998,-40.06638 -4.98811,-16.20785 -4.45902,-33.99711 1.42221,-47.8178 6.1033,-14.34255 18.3166,-25.90288 35.00771,-33.13607 18.3486,-7.95148 40.40862,-31.58844 47.79458,-51.21115 0.82818,-2.20028 1.95418,-6.21342 2.50222,-8.9181 l 0.99643,-4.91761 -1.53072,-3.2357 c -2.40498,-5.08369 -3.01518,-8.42838 -2.68596,-14.72242 0.26918,-5.14626 0.55192,-6.23984 2.85333,-11.03611 2.15162,-4.4841 3.43843,-6.1977 8.15841,-10.8643 4.82807,-4.77345 6.48266,-5.97242 11.95158,-8.66051 3.49124,-1.71601 7.98709,-3.53906 9.99077,-4.05122 20.25737,-5.17804 38.05794,4.42576 41.91161,22.61222 1.0997,5.18975 1.09573,7.32046 -0.0234,12.60386 -1.802,8.50698 -7.41053,17.58636 -14.41075,23.32892 -12.97635,10.64502 -29.40261,13.28115 -42.27317,6.78412 l -3.55051,-1.7923 -6.41741,9.56264 c -16.99663,25.32679 -29.66222,38.43522 -44.45438,46.00865 -8.99784,4.60681 -17.19027,10.3864 -23.08957,16.28922 -14.18301,14.19147 -20.93066,30.87314 -20.93066,51.74513 0,8.47406 0.64203,14.32026 2.2545,20.52894 1.26422,4.86777 1.24624,19.79135 -0.0338,28.0299 -3.17231,20.41804 -8.06109,32.73443 -30.20691,76.10075 -3.83706,7.5138 -4.39894,19.25506 -4.7736,20.34038 -0.99204,2.87372 -5.55293,-2.13166 -12.15086,-6.36227 z M 698.24269,220.02379 c 16.88366,-4.39763 29.612,-24.96913 26.47388,-42.78695 -2.07758,-11.79623 -9.63191,-18.65962 -23.10919,-20.99559 -13.12636,-2.27514 -23.74135,0.97544 -32.80527,10.04582 -4.83005,4.83349 -7.87433,9.71915 -9.998,16.04543 -5.03096,14.98698 -0.21634,28.0337 12.68997,34.38746 7.45151,3.66837 19.592,5.16789 26.74861,3.30383 z"
     id="path4321"
     inkscape:connector-curvature="0"
     sodipodi:nodetypes="ssssssssscsssssssssscssssssssssssssss" />
  <path
     style="opacity:1;fill:#6bf611;fill-opacity:1;fill-rule:nonzero;stroke:#000000;stroke-width:1.22704828;stroke-linecap:round;stroke-linejoin:round;stroke-miterlimit:4;stroke-dasharray:none;stroke-dashoffset:0;stroke-opacity:1"
     d=""
     id="path4327"
     inkscape:connector-curvature="0" />
  <path
     style="opacity:1;fill:#6bf611;fill-opacity:1;fill-rule:nonzero;stroke:#000000;stroke-width:1.22704828;stroke-linecap:round;stroke-linejoin:round;stroke-miterlimit:4;stroke-dasharray:none;stroke-dashoffset:0;stroke-opacity:1"
     d="m 568.8084,559.79193 c 0.77187,-8.19377 0.61278,-10.07497 2.69124,-14.32064 5.82099,-11.89054 19.64833,-20.0938 48.81418,-28.9597 l 11.7166,-3.56163 26.54329,-2.77004 c 46.40374,-4.84266 59.73479,-5.50213 80.18606,-20.98004 27.46691,-20.78751 42.8607,-45.28874 42.8607,-68.21842 0,-9.38081 -1.79095,-16.88273 -5.62646,-23.5681 -1.59769,-2.78482 -5.98845,-8.54094 -8.22665,-12.79138 -5.28396,-10.03449 -10.41927,-16.59706 -17.4949,-19.26069 -4.17545,-1.57185 -7.97918,-2.08383 -20.17256,-2.71518 -8.26476,-0.42794 -17.04922,-1.15042 -19.52102,-1.60552 -23.06507,-4.24665 -33.91202,-28.4595 -22.95483,-51.24044 3.91378,-8.13707 9.84509,-14.19459 17.33788,-17.7068 5.37301,-2.51859 6.64523,-2.75313 16.64219,-3.06809 6.2432,-0.19669 12.74993,0.0719 15.37392,0.63466 11.37641,2.43981 22.40387,10.70533 27.1067,20.31758 1.94063,3.9665 3.8606,6.55661 4.14705,12.54783 0.41262,8.63041 -0.98586,12.2287 -5.46109,19.55361 -2.9347,4.80342 -3.90515,5.04316 -3.90515,11.99542 0,9.5913 2.97894,12.35655 14.6215,28.53858 13.36535,18.57658 16.72018,29.16866 16.72018,38.31485 0,4.03612 -2.69444,19.01454 -5.58099,26.81985 -10.25161,27.72064 -25.26994,49.50556 -65.04311,63.64054 -17.51814,6.22577 -32.26801,7.61051 -52.77676,7.62366 -12.60202,0.008 -22.77931,1.02912 -35.0249,3.51384 -29.51716,5.98925 -49.40048,19.23484 -59.80826,39.84228 l -4.68375,13.54834 z M 736.75067,356.23455 c 8.97061,-2.02462 14.45192,-6.61698 18.31121,-15.34155 6.92176,-15.64777 -2.66081,-33.48803 -21.95662,-40.87752 -7.3875,-2.8291 -19.59358,-2.84555 -25.96777,-0.035 -14.08448,6.21023 -19.45254,26.01284 -11.49405,42.40127 5.96272,12.27867 13.37623,16.46389 27.58705,15.57398 4.48658,-0.28096 10.57066,-1.05549 13.52018,-1.72118 z"
     id="path4329"
     inkscape:connector-curvature="0"
     sodipodi:nodetypes="ssscssssssssssssssssssssssscssssssss" />
  <path
     style="opacity:1;fill:#455b37;fill-opacity:1;fill-rule:nonzero;stroke:#000000;stroke-width:0.21691355;stroke-linecap:round;stroke-linejoin:round;stroke-miterlimit:4;stroke-dasharray:none;stroke-dashoffset:0;stroke-opacity:1"
     d="m 263.16336,59.855135 c -0.004,-0.15253 -0.20076,-0.47062 -0.43702,-0.70688 -0.32721,-0.32721 -0.63461,-0.45517 -1.29025,-0.53709 -1.21454,-0.15175 -2.41774,0.0315 -3.05757,0.46572 l -0.53961,0.36619 0.10071,-0.41428 c 0.94182,-3.87423 2.73495,-7.96169 5.36475,-12.22899 1.27488,-2.0687 1.4114,-2.19205 5.22481,-4.72047 9.21322,-6.10869 15.82088,-8.48838 27.85254,-10.03086 1.0342,-0.13259 2.5028,-0.36873 3.26357,-0.52475 2.4729,-0.50717 4.36339,-0.64983 7.57946,-0.57197 3.34662,0.081 5.1136,0.34003 8.03478,1.17772 11.16713,3.20234 21.10779,12.91898 25.6915,25.11252 0.78622,2.09148 0.84217,2.41001 0.34081,1.94036 -1.01842,-0.95401 -2.65801,-0.67153 -2.87137,0.49471 -0.0392,0.2145 -0.13882,0.0809 -0.33933,-0.45538 -0.50961,-1.36288 -2.04294,-4.24744 -3.11465,-5.85939 -2.88295,-4.33622 -6.47651,-7.86105 -11.1689,-10.9553 -2.3071,-1.52135 -6.70011,-3.68349 -9.25944,-4.55729 -5.32454,-1.81791 -11.10101,-2.62125 -16.17711,-2.24979 -5.71227,0.41802 -10.10859,1.60321 -15.24424,4.10964 -1.33579,0.65192 -3.02231,1.43876 -3.74783,1.74853 -0.72551,0.30977 -2.05751,0.9732 -2.95998,1.47428 -6.69616,3.71797 -11.17389,9.21388 -12.87786,15.80614 -0.19817,0.76667 -0.36366,1.26915 -0.36777,1.11663 z"
     id="path4331"
     inkscape:connector-curvature="0" />
  <path
     style="opacity:1;fill:#455b37;fill-opacity:1;fill-rule:nonzero;stroke:#000000;stroke-width:0.4338271;stroke-linecap:round;stroke-linejoin:round;stroke-miterlimit:4;stroke-dasharray:none;stroke-dashoffset:0;stroke-opacity:1"
     d=""
     id="path4333"
     inkscape:connector-curvature="0" />
  <path
     style="opacity:1;fill:#455b37;fill-opacity:1;fill-rule:nonzero;stroke:#000000;stroke-width:0.4338271;stroke-linecap:round;stroke-linejoin:round;stroke-miterlimit:4;stroke-dasharray:none;stroke-dashoffset:0;stroke-opacity:1"
     d="m 627.85698,16.726165 c -7.21376,-5.74354 -19.95807,-8.9735296 -30.36676,-7.6962996 -4.79267,0.5881 -9.68425,2.1222096 -12.5386,3.9323796 -0.79176,0.50212 -1.5202,0.91295 -1.61876,0.91295 -0.0986,0 -0.0911,-0.44025 0.0165,-0.97832 0.83273,-4.1636296 11.33111,-9.5488196 22.95292,-9.5533096 9.73629,-0.004 17.31065,3.93842 21.44821,8.1370196 1.72265,1.74805 3.2852,7.34011 3.08104,8.58852 -0.0779,0.47627 -1.87376,-2.33019 -3.05041,-3.26704 z"
     id="path4335"
     inkscape:connector-curvature="0"
     sodipodi:nodetypes="csssccsccc" />
  <path
     style="opacity:1;fill:#455b37;fill-opacity:1;fill-rule:nonzero;stroke:#000000;stroke-width:0.4338271;stroke-linecap:round;stroke-linejoin:round;stroke-miterlimit:4;stroke-dasharray:none;stroke-dashoffset:0;stroke-opacity:1"
     d="m 618.44575,63.800325 c 0,-0.79097 1.05351,-2.37804 5.84359,-9.47205 2.53676,-3.7569 4.91645,-7.69595 5.56648,-9.03174 l 0.2711,-2.65639 0.11549,-8.42456 c 0.0391,-8.41359 1.2698,-12.14352 2.09253,-12.14352 0.504,0 1.80664,2.82056 2.34319,5.35246 0.38482,1.81591 0.66222,3.9882 0.67537,9.29565 0.0155,6.24832 0.24619,7.77309 -0.38929,10.62558 -1.32663,5.95456 -4.4857,10.78959 -7.49236,13.41974 -1.79118,1.56689 -7.10039,3.50529 -8.22898,3.50529 -0.51747,0 -0.79708,-0.16503 -0.79708,-0.47046 z"
     id="path4337"
     inkscape:connector-curvature="0"
     sodipodi:nodetypes="cssccssscsscc" />
  <path
     style="opacity:1;fill:#455b37;fill-opacity:1;fill-rule:nonzero;stroke:#000000;stroke-width:0.4338271;stroke-linecap:round;stroke-linejoin:round;stroke-miterlimit:4;stroke-dasharray:none;stroke-dashoffset:0;stroke-opacity:1"
     d="m 571.56724,24.295775 c 0.14917,-0.74583 0.0391,-1.03359 -0.582,-1.52219 l -1.59779,-0.19999 3.0335,-3.81482 c 1.38116,-1.73689 10.34406,-6.2521 10.42168,-6.17447 0.11539,0.11539 -10.85188,12.02371 -11.31992,12.49176 -0.0767,0.0767 -0.0566,-0.27446 0.0445,-0.78029 z"
     id="path4339"
     inkscape:connector-curvature="0"
     sodipodi:nodetypes="cccscscc" />
  <path
     style="opacity:1;fill:#ff000f;fill-opacity:1;fill-rule:nonzero;stroke:#000000;stroke-width:0.30676207;stroke-linecap:round;stroke-linejoin:round;stroke-miterlimit:4;stroke-dasharray:none;stroke-dashoffset:0;stroke-opacity:1"
     d="m 493.70121,633.33653 c -3.20761,-0.86486 -5.23236,-3.63848 -6.61752,-9.06508 -0.24398,-0.95582 -0.83633,-3.95046 -1.31633,-6.65474 -0.99699,-5.61692 -1.29047,-6.85797 -2.15257,-9.10292 -0.34005,-0.88551 -0.76106,-2.28623 -0.93558,-3.1127 -1.34818,-6.38481 -2.5688,-10.05793 -4.15278,-12.49666 -1.7788,-2.73867 -4.13228,-2.67675 -6.84737,0.18016 -1.32319,1.39231 -2.89043,3.67254 -6.621,9.63313 -4.96971,7.94046 -7.44651,11.2106 -10.059,13.28101 -1.7988,1.42556 -2.77383,1.88148 -5.57379,2.60625 -11.74954,3.0414 -25.72954,3.26812 -38.89315,0.63075 -15.18598,-3.04256 -27.93676,-9.2135 -36.96794,-17.89122 -4.30057,-4.13226 -6.98573,-7.75128 -9.41366,-12.68761 -1.36541,-2.77605 -1.3744,-2.80647 -1.7134,-5.79606 -0.8991,-7.92886 -2.18288,-12.68403 -3.93164,-14.563 -1.7139,-1.84149 -3.43477,-1.57525 -6.13304,0.94885 -1.94602,1.82041 -4.37399,5.09128 -9.39958,12.6628 -5.17987,7.80395 -8.19569,11.85688 -10.87614,14.61634 l -2.06549,2.12637 -2.1647,-0.53132 c -14.76125,-3.62312 -22.09259,-16.54617 -18.74768,-33.04678 0.62412,-3.07881 1.74647,-6.30165 3.30007,-9.47623 3.67846,-7.51646 8.73218,-12.82411 15.24227,-16.00816 6.67104,-3.26279 13.57813,-3.60173 21.07199,-1.03404 l 1.95777,0.67081 2.33561,-0.55325 c 3.88865,-0.92111 5.14198,-0.9485 8.03789,-0.17566 1.36055,0.3631 3.8186,1.10495 5.46232,1.64857 2.66729,0.88214 3.14877,1.11946 4.4787,2.20751 3.03954,2.48675 6.02498,6.48245 8.69339,11.63522 1.93177,3.73029 3.64531,7.8744 6.88147,16.64245 4.00842,10.86041 5.5757,14.29713 7.90948,17.3438 4.45372,5.81418 10.24371,4.03024 17.99254,-5.54362 0.47781,-0.59034 1.64756,-2.66727 2.59946,-4.61539 1.99378,-4.08042 3.4561,-6.36762 4.98616,-7.79881 2.10751,-1.97133 3.717,-1.9436 5.46119,0.0941 1.76053,2.05679 3.16816,5.70466 6.12084,15.86214 1.18408,4.07334 2.60001,8.71019 3.14652,10.30411 1.02482,2.98897 2.61962,6.65474 2.89516,6.65474 0.3046,0 4.42391,-4.43762 6.27837,-6.76352 1.03487,-1.29795 3.20839,-4.18357 4.83005,-6.41249 8.10406,-11.13873 10.60216,-14.30801 14.20781,-18.02522 4.76652,-4.91399 9.04273,-7.73889 14.0728,-9.29662 1.81461,-0.56196 2.15697,-0.59692 5.68755,-0.58074 3.06069,0.014 4.10749,0.10219 5.65005,0.47588 2.52887,0.61263 5.83291,1.92913 8.1961,3.26575 1.06261,0.60102 2.96323,1.60542 4.22359,2.23201 2.85447,1.4191 4.98905,2.88484 7.22112,4.95847 6.60829,6.13923 11.50923,15.72824 13.37809,26.1751 0.4257,2.37962 0.49893,3.50218 0.49715,7.62076 -0.002,4.37666 -0.0541,5.07238 -0.55581,7.41163 -0.61591,2.87153 -1.75202,5.93141 -2.98688,8.04454 -1.09327,1.87083 -1.68795,2.64673 -3.26861,4.26459 -3.37424,3.45368 -7.48111,5.39312 -13.24926,6.25687 -1.47585,0.221 -3.35957,0.55063 -4.18604,0.73252 -1.78036,0.3918 -2.6623,0.40167 -3.98655,0.0446 z"
     id="path4341"
     inkscape:connector-curvature="0" />
</svg>
