<svg width="450" height="540" xmlns="http://www.w3.org/2000/svg">
 <defs>
  <clipPath clipPathUnits="userSpaceOnUse" id="imagebot_5">
   <rect height="577" x="138.03" width="778" y="68.642" id="imagebot_157"/>
  </clipPath>
  <linearGradient y2="1.0582" x1="0.16551" x2="0.96113" y1="0.11726" id="imagebot_28">
   <stop offset="0" stop-color="#5acc3e" id="imagebot_156"/>
   <stop offset="1" stop-opacity="0" stop-color="#48b12e" id="imagebot_155"/>
  </linearGradient>
  <clipPath transform="matrix(1 0 0 1 -50 0)" id="imagebot_16009" clipPathUnits="userSpaceOnUse">
   <rect id="imagebot_16010" height="577" x="138.03" width="778" y="68.642"/>
  </clipPath>
 </defs>
 <g id="imagebot_2">
  <path fill-opacity="0.15686" transform="translate(-50 0) matrix(0.70806 -0.065961 0.040556 0.83536 -148.92 35.9404)" clip-path="url(#imagebot_5)" d="M464,601.34C464,606.72 443.96,611.09 419.25,611.09S374.5,606.72 374.5,601.34S394.54,591.59 419.25,591.59S464,595.96 464,601.34z" id="imagebot_154"/>
  <path fill-opacity="0.15686" transform="translate(-50 0) matrix(0.66098 -0.022185 0.017355 0.84491 -88.3346 17.3504)" clip-path="url(#imagebot_5)" d="M555.5,616.59C555.5,622.39 536.7,627.09 513.5,627.09S471.5,622.39 471.5,616.59S490.3,606.09 513.5,606.09S555.5,610.79 555.5,616.59z" id="imagebot_153"/>
  <path fill="#bb8137" transform="translate(-50 0) matrix(1 0 0 1 -239 -90.7996)" clip-path="url(#imagebot_5)" d="M466.8,225.68L456.55,228.3L636.18,228.3L639.91,225.57L466.8,225.68z" id="imagebot_152"/>
  <rect fill="#f1e2ca" x="495.75" y="305.59" width="27.5" height="27.5" transform="translate(-50 0) matrix(1 0 0 1 -239 -90.7996)" clip-path="url(#imagebot_5)" id="imagebot_151"/>
  <rect fill="#f1e2ca" x="510.5" y="243.09" width="27.5" height="27.5" transform="translate(-50 0) matrix(1 0 0 1 -239 -90.7996)" clip-path="url(#imagebot_5)" id="imagebot_150"/>
  <rect fill="#f1e2ca" x="541.5" y="280.09" width="27.5" height="27.5" transform="translate(-50 0) matrix(1 0 0 1 -239 -90.7996)" clip-path="url(#imagebot_5)" id="imagebot_149"/>
  <rect fill="#f1e2ca" x="467.75" y="248.09" width="27.5" height="27.5" transform="translate(-50 0) matrix(1 0 0 1 -239 -90.7996)" clip-path="url(#imagebot_5)" id="imagebot_148"/>
  <path transform="translate(-50 0) matrix(0.5641 0 0 0.5641 -28.4746 17.8804)" fill="#533918" clip-path="url(#imagebot_5)" d="M485.25,252.47C485.25,255.16 483.07,257.34 480.38,257.34S475.5,255.16 475.5,252.47S477.68,247.6 480.38,247.6S485.25,249.78 485.25,252.47z" id="imagebot_147"/>
  <path transform="translate(-50 0) matrix(0.5641 0 0 0.5641 13.5254 13.6304)" fill="#533918" clip-path="url(#imagebot_5)" d="M485.25,252.47C485.25,255.16 483.07,257.34 480.38,257.34S475.5,255.16 475.5,252.47S477.68,247.6 480.38,247.6S485.25,249.78 485.25,252.47z" id="imagebot_146"/>
  <path transform="translate(-50 0) matrix(0.5641 0 0 0.5641 -1.72462 76.3794)" fill="#533918" clip-path="url(#imagebot_5)" d="M485.25,252.47C485.25,255.16 483.07,257.34 480.38,257.34S475.5,255.16 475.5,252.47S477.68,247.6 480.38,247.6S485.25,249.78 485.25,252.47z" id="imagebot_145"/>
  <path transform="translate(-50 0) matrix(0.5641 0 0 0.5641 43.7754 50.1304)" fill="#533918" clip-path="url(#imagebot_5)" d="M485.25,252.47C485.25,255.16 483.07,257.34 480.38,257.34S475.5,255.16 475.5,252.47S477.68,247.6 480.38,247.6S485.25,249.78 485.25,252.47z" id="imagebot_144"/>
  <path fill="#794646" transform="translate(-50 0) matrix(1 0 0 1 -239 -90.7996)" clip-path="url(#imagebot_5)" d="M484.17,281.34C464.63,283.65 448.79,297.98 435.68,312.66C402.61,349.69 381.95,398.49 374.06,447.52C372.35,458.19 375.36,473.44 382.14,481.86C393.51,495.96 408.54,502.34 425.08,510.14C440.26,517.31 503.96,525.88 529.13,504.08C553.72,482.77 550.2,443.68 551.35,411.15C552.65,374.3 544.62,329.58 532.16,298.01C525.54,281.25 502.06,279.23 484.17,281.34z" id="imagebot_143"/>
  <path fill="#c4c4c4" transform="translate(-50 0) matrix(1 0 0 1 -239 -90.7996)" clip-path="url(#imagebot_5)" d="M575.76,493.92C581.72,494.26 591.41,493.72 592.76,499.53C594.1,505.29 585.02,508.68 580.1,511.94C570.92,518.02 560.24,521.78 549.61,524.63C540.75,527 530.61,532.1 522.33,528.16C518.99,526.57 516.01,522.39 516.49,518.72C517.46,511.4 526.16,507.08 532.66,503.57C538.5,500.41 545.56,500.34 552.04,498.88C559.92,497.1 567.7,493.46 575.76,493.92z" id="imagebot_142"/>
  <path fill="#23283a" transform="translate(-50 0) matrix(1 0 0 1 -239 -90.7996)" clip-path="url(#imagebot_5)" d="M370.38,483.52C369.28,496.62 368.93,505.86 372.4,522.92C376.02,540.72 385.16,557.36 395.54,572.27C399.64,578.17 402.45,585.65 407.13,590.17L432.88,590.47C430.47,586.99 429.79,585.11 427.78,581.71C421.47,571 417.12,560.29 414.34,547.04C412.58,536.28 418.38,522.84 427.45,518.88C439.12,513.78 448.97,517.38 461.45,520.51C470.49,522.32 478.76,528.44 481.54,538.19C485.15,549.78 485.1,560.19 483.14,571.88C480.78,581.37 475.48,585.47 472.48,597.1C471.4,601.27 474.43,611.3 474.43,611.3L495.64,604.74C497.15,599.44 496.61,593.03 499.97,588.75L521.9,560.8C530.85,549.39 532.23,531.89 531.95,517.42L531.5,494.13C515.04,494.72 495.95,498.37 479.6,496.56C479.6,496.56 439.8,496.58 421.39,490.09C404.26,484.04 375.43,460.79 375.43,460.79S371.03,475.79 370.38,483.52z" id="imagebot_141"/>
  <path fill="#f2f2f2" transform="translate(-50 0) matrix(1 0 0 1 -239 -90.7996)" clip-path="url(#imagebot_5)" d="M510.23,287.03C498.67,301.65 484.63,314.6 475.38,330.79C463.31,351.94 453.71,375.08 449.31,399.03C444.44,425.54 446.24,453.14 449.45,479.9C451.82,499.66 463.45,537.92 463.45,537.92C499.67,524.51 521.56,505.5 559.92,501.05L591.49,497.39C583.64,485.56 568.61,472.35 563.46,459.13C554.23,435.45 550.23,415.69 551.93,390.42C554.13,357.8 540.82,325.21 535.41,293.16C534.43,289.53 528.15,291 524.84,289.62L510.23,287.03z" id="imagebot_140"/>
  <path fill="#faddae" transform="translate(-50 0) matrix(1 0 0 1 -239 -90.7996)" clip-path="url(#imagebot_5)" d="M580.21,252.89C573.14,272.39 560.39,284.55 545.34,290.8C527.6,298.17 506.68,297.32 488.09,290.58C453.74,278.12 445.45,250.25 460.86,207.77S511.56,140.95 545.91,153.41S595.62,210.41 580.21,252.89z" id="imagebot_139"/>
  <path fill="none" stroke-width="1.5" stroke-linecap="round" stroke="#a95930" transform="translate(-50 0) matrix(1 0 0 1 -239 -90.7996)" clip-path="url(#imagebot_5)" d="M494.14,203.31S491.19,202.79 490.23,203.31C489.16,203.88 488.2,206.34 488.2,206.34" id="imagebot_138"/>
  <path fill="#6c421d" transform="translate(-50 0) matrix(1 0 0 1 -239 -90.7996)" clip-path="url(#imagebot_5)" d="M409.92,589.44L382.65,597.52C379.86,600.86 386.18,612.48 395.78,609.14C400.71,607.42 405.74,606.22 410.93,605.6C417.79,604.79 426.1,609.73 431.64,605.6C436.26,602.16 432.65,590.45 432.65,590.45L409.92,589.44z" id="imagebot_137"/>
  <path fill="#6c421d" transform="translate(-50 0) matrix(1 0 0 1 -239 -90.7996)" clip-path="url(#imagebot_5)" d="M473.81,610.06S472.82,618.57 475.42,620.6C479.7,623.92 486.35,620.23 491.67,621.31C496.84,622.36 501.22,627.02 506.49,626.85C511.71,626.68 517.83,624.73 520.77,620.42C522.12,618.45 521.13,613.27 521.13,613.27L494.7,604.52L473.81,610.06z" id="imagebot_136"/>
  <path fill="#f2f2f2" transform="translate(-50 0) matrix(1 0 0 1 -239 -90.7996)" clip-path="url(#imagebot_5)" d="M535.25,296.09C543.43,300.53 552.19,304.73 558.06,312.23C560.61,315.16 563.04,318.19 565.4,321.28C559.09,317.05 552.67,312.41 545.16,310.65C534.86,308.94 523.89,310.93 514.98,316.38C510.01,320.04 504.02,321.31 500.31,326.19C505.93,332.43 507.95,334.49 511.3,338.12C507.07,341.08 490.21,334.49 485.92,337.33L473.52,350.8" id="imagebot_135"/>
  <path fill="#c4c4c4" transform="translate(-50 0) matrix(1 0 0 1 -239 -90.7996)" clip-path="url(#imagebot_5)" d="M571.06,471.81C562.42,457.7 562.25,456.23 559.7,448.49C557.82,447 555.88,445.57 553.91,444.22C545.31,438.34 538.89,435.36 530.12,430.09C537.94,436.68 543.57,441.1 550.85,448.01C555.55,451.48 567.84,469.15 571.06,471.81z" id="imagebot_134"/>
  <path fill="#c4c4c4" transform="translate(-50 0) matrix(1 0 0 1 -239 -90.7996)" clip-path="url(#imagebot_5)" d="M482.73,438.15S502.24,437.9 511.64,435.62C519.46,433.71 533.98,426.43 533.98,426.43S523.04,439.43 515.34,441.72C504.86,444.84 482.73,438.15 482.73,438.15z" id="imagebot_133"/>
  <path fill="#f2f2f2" stroke-width="2" stroke-linecap="round" stroke="#979fbf" transform="translate(-50 0) matrix(1 0 0 1 -239 -90.7996)" clip-path="url(#imagebot_5)" d="M483.93,439.47S506.1,443.6 516.49,440.44C523.42,438.34 534.17,427.82 534.17,427.82S556.98,456.26 552.35,471.25C550.16,478.35 540.65,480.87 533.66,483.38C523.93,486.87 511.73,492.21 502.85,486.91C488.24,478.18 483.93,439.47 483.93,439.47L483.93,439.47z" id="imagebot_132"/>
  <path fill="#f2f2f2" stroke-dasharray="6.0000001, 6.0000001" stroke-linecap="round" stroke="#c6cbdd" transform="translate(-50 0) matrix(1 0 0 1 -239 -90.7996)" clip-path="url(#imagebot_5)" d="M488.62,443.8S508.11,447.06 517.24,444.57C523.33,442.91 532.78,434.6 532.78,434.6S552.83,457.06 548.76,468.9C546.84,474.5 538.48,476.49 532.34,478.47C523.78,481.23 513.05,485.45 505.25,481.26C492.4,474.37 488.62,443.8 488.62,443.8L488.62,443.8z" id="imagebot_131"/>
  <path transform="translate(-50 0) matrix(0.90304 -0.27879 0.27319 0.92155 -209.64 26.7104)" fill="#c4c4c4" clip-path="url(#imagebot_5)" d="M361.43,217.31C361.43,220.66 345.2,223.38 325.18,223.38S288.93,220.66 288.93,217.31C288.93,213.96 305.16,211.24 325.18,211.24S361.43,213.96 361.43,217.31z" id="imagebot_130"/>
  <path fill="#faddae" transform="translate(-50 0) matrix(1 0 0 1 -239 -90.7996)" clip-path="url(#imagebot_5)" d="M372.02,224.89L368.27,244.18L403.45,238.82L402.38,223.46L372.02,224.89z" id="imagebot_129"/>
  <path fill="#f2f2f2" transform="translate(-50 0) matrix(1 0 0 1 -239 -90.7996)" clip-path="url(#imagebot_5)" d="M350.23,238.46S362.61,275.76 371.66,293.1C380.4,309.85 403.09,340.25 403.09,340.25L453.44,303.82S428.94,280.57 422.02,265.6C414.4,249.14 415.23,216.67 415.23,216.67S403.9,226.14 392.48,230.94C380.4,236.03 363.84,234.79 350.23,238.46z" id="imagebot_128"/>
  <path fill="#faddae" transform="translate(-50 0) matrix(1 0 0 1 -239 -90.7996)" clip-path="url(#imagebot_5)" d="M360.95,203.64C361.13,204.35 362.94,215.83 366.49,220.6C368.78,223.69 372.18,226.43 375.95,227.21C386.78,229.46 398.66,228.08 406.18,219.97C409.73,216.15 409.2,209.55 408.14,204.44C407.12,199.5 403.75,191.53 403.75,191.53L370.95,199.53L360.95,203.64z" id="imagebot_115"/>
  <path transform="translate(-50 0) matrix(1 0 0 1 -239 -90.7996)" fill="#e97c44" clip-path="url(#imagebot_5)" d="M602.46,198.76C609.97,205.7 626.6,202.98 636.22,204.87C640.69,205.81 639.07,208.85 644.37,210.06C647.3,210.73 650.92,209.69 652.22,211.6C653.56,213.59 647.64,218.16 644.72,218.44C635.8,219.28 622.71,211.29 615.53,212.6C608.45,213.89 608.33,219.62 601.45,221.6C608.02,228.22 622.7,225.8 632.42,226.2C638.48,226.96 655.64,221.68 645.93,232.18C641.05,243.13 627.78,228.49 621.75,239.75C616.66,247.03 599.48,235.37 602.7,245.27C611.59,250.21 624.01,253.32 627.12,264.3C628.91,270.65 627.99,279.17 623.49,280.72C624.49,275.8 623.68,273.26 622.79,268.16C622.01,263.72 619.84,261.35 615.09,259.08C607.31,257.58 602.82,248.7 597.68,256.04C598.18,259.94 594.41,263.52 595.04,267.48C595.46,270.13 599.21,272.08 599.75,274.91C600.21,277.3 598.08,281.33 599.09,283.14C601.01,286.6 603.3,289.31 603.5,292.5C603.85,297.98 598,306.28 595.39,306.16C593.66,306.08 597.21,298.16 597.52,293.23C597.85,287.95 591.6,280.26 583.61,279.61C575.3,285.2 570.22,285.4 578.74,299.27C583.78,305.84 571.69,320.79 574.28,308.21C575.93,298.22 565.54,290.34 558.05,285.68C550.93,277.09 566.36,265.99 567.19,255.69C574.59,233.3 580.55,207.44 569.8,185.11C562.41,169.76 546.1,161.87 530.41,157.7C518.94,152.34 505.02,152.64 495.16,161.34C482.14,171.81 474.88,181.3 465.24,196.69C465.3,194 470.6,178.09 460.52,171.5C458.83,169.33 456.96,165.7 454.55,164.13C449.83,161.06 445.1,157.69 445.7,148.34C451.65,148.89 454.57,160.59 459.6,163.86C463.53,166.41 470.3,164.93 474.6,166.49C489.89,170.62 478.74,149.45 471.19,148.77C463.46,148.08 457.02,133.26 457.69,127.52C458.05,124.47 464.33,125.97 465.69,124.11C468.23,125.68 462.62,128.45 464.8,132.15C466.2,134.53 470.58,136.49 472.46,138.13C475.67,140.91 481.54,138.82 483.86,142.15C486.9,146.48 483.26,151.38 486.79,154.14C488.52,155.5 492.6,150.83 494.39,151.87C495.94,147.14 492.95,147.18 492.06,141.9C491.16,136.6 491.46,125.44 489.95,120.82C489.57,118.93 479.39,115.68 478.99,113.31C478.23,108.85 485.09,106.31 487.17,104.75C489.31,107.09 482.75,109.08 484.98,111.58C487.66,114.58 493,115.66 494.69,119.37C496.01,122.27 494.79,126.64 496.12,129.53C498.9,135.53 501.92,141.29 506.02,145.96C510.02,138.51 515.63,121.79 517.56,111.61C518.16,108.46 512.02,108.38 512.78,105.87C512.2,102.4 514.02,98.839 521.04,93.718C521.45,97.361 519.04,101.44 520.06,104.56C521.17,107.94 525.68,110.37 525.47,114.68C525.16,121.34 520.72,128.19 521.67,134.5C522.14,137.61 524.66,137.45 525.32,140.43C532.86,151.34 542.63,140.81 546.7,135.07C547.62,133.48 548.97,126.26 550.59,123.99C552.38,121.48 548.2,114.05 549.49,111.31C551.85,106.28 554.33,101.4 556.69,98.659C560.6,94.116 561.62,98.388 565.52,93.534C568.38,98.292 557.8,98.514 556.68,106.47C556.18,110 561.29,117.79 560.84,120.47C560.15,123.12 555.31,125.2 553.92,128.33C550.26,136.64 547.09,140.51 551.02,147.79C560.98,147.49 567.22,135.77 571.52,127.16C573.28,124.27 575.36,121.16 576.91,118.3C579.21,114.06 576.19,106.6 579.34,103.08C580.92,101.33 584.01,101.17 585.76,99.37C588.53,102.12 584.3,101.47 583.02,105.51C582.19,108.12 584.56,111.5 584,114.21C583.52,116.52 580.07,118.18 579.69,120.04C578.46,123.61 582.12,128.28 580.07,131.98C575.82,139.66 566.96,145.63 570.28,154.84C574.48,159.72 580.86,157.86 584.78,150.98C587.18,146.77 586.6,138.61 588.67,137.08C592.63,133.81 599.9,130.2 604.87,126.75C608.18,124.46 611,119.03 613.19,125.68C613.26,135.52 600.83,138.09 596.23,146.35C596.85,150.99 598.58,156.69 596.32,160.36C591.63,167.95 581.84,169.06 587.43,172.79C592.61,176.25 601.35,174.17 605.23,169.65C607.62,166.87 607.4,159.89 610.52,157.59C615.33,154.04 620.81,145.59 626.7,144.83C634,143.9 625.81,151.1 624.07,155.88C623.39,157.76 623.02,162.65 622.32,164.77C620.74,169.61 616.65,171.72 611.77,175.15C604.06,180.56 596.83,190.04 599.83,191.17C613.23,189.46 623.61,181.65 636.94,179.94C639.84,179.56 640.29,187.29 638.14,189.56C636.14,191.67 630.48,189.09 626.8,189.64C621.96,190.38 618.88,193.95 615.21,194.79C613.05,195.29 610.8,194.77 608.76,195.22C606.06,196.67 602.94,195.16 602.46,198.76z" id="imagebot_89"/>
  <path fill="#c4c4c4" transform="translate(-50 0) matrix(1 0 0 1 -239 -90.7996)" clip-path="url(#imagebot_5)" d="M474.34,286.46L487.47,287.47C475.48,303.8 461.63,318.92 451.4,336.42C440.88,354.43 432.47,373.77 425.74,393.52C420.42,409.09 416.14,425.18 414.24,441.52C412.29,458.23 411.86,475.36 414.38,492C415.74,500.89 422.32,517.78 422.32,517.78L407.66,509.69C403.34,490.33 396.07,471.4 394.56,451.61C392.92,430.07 391.8,407.3 399.07,386.96C406.32,366.7 423.51,351.52 436.42,334.31C448.63,318.03 474.33,286.45 474.33,286.45L474.34,286.46z" id="imagebot_127"/>
  <path fill="#f2f2f2" transform="translate(-50 0) matrix(1 0 0 1 -239 -90.7996)" clip-path="url(#imagebot_5)" d="M488.71,279.83C468.32,306.89 445.49,332.41 428.37,361.66C420.8,374.59 413.4,388.06 409.89,402.62C405.34,421.46 405,441.41 407.02,460.69C409.07,480.3 414.71,500.32 422.09,517.89C397.58,501.73 367.52,492.92 356.38,467.72C348.05,448.87 355.37,425.73 361.71,406.12C368.93,383.79 382.98,363.85 397.86,345.7C414.05,325.95 434.93,310.64 454.62,294.23C463.26,288.21 469.81,285.12 478.49,279.15L488.71,279.83z" id="imagebot_126"/>
  <path fill="#c4c4c4" transform="translate(-50 0) matrix(1 0 0 1 -239 -90.7996)" clip-path="url(#imagebot_5)" d="M434.62,329.68C437.3,324.56 436.96,323.97 439.39,321.45C441.45,318.86 443.58,317.02 444.45,312.21C440.65,309.7 435.5,309.35 432.28,306.01C437.15,302.27 438.96,302.23 442.14,300.76C444.27,299.77 448.02,298.3 448.51,298.76C449.59,299.35 452.26,294.54 452.46,298.74C448.11,300.68 440.94,303.78 436.61,305.73C439.17,308.62 442.94,309.22 446.43,310.96C448.57,312.03 451.29,313.36 448.3,315.48C444.2,320.7 437.22,327.43 434.18,333.38C432.92,334.66 433.96,330.94 434.62,329.68z" id="imagebot_125"/>
  <path fill="#f2f2f2" transform="translate(-50 0) matrix(1 0 0 1 -239 -90.7996)" clip-path="url(#imagebot_5)" d="M468.36,277.04C464.86,277.72 458.13,261.03 433.76,280.07C439.13,287.89 453.46,299.01 453.46,299.01L439.82,305.07C441.66,311.42 444.5,308.29 450.68,313.4L439.55,327.17" id="imagebot_124"/>
  <g fill="#f4cb95" transform="translate(-50 0) matrix(1 0 0 1 -236.34 -91.7726)" clip-path="url(#imagebot_5)" id="imagebot_121">
   <path d="M509.17,206.59S511.99,206.27 512.96,207.1C513.99,207.98 514.48,211.75 514.63,213.59C514.74,214.95 512.59,215.06 512.59,215.06" id="imagebot_123"/>
   <path d="M491.74,207.98S493.98,199.74 497.04,197.12C498.98,195.46 502.71,194.72 505,195.86C509.88,198.29 509.92,210.25 509.92,210.25" id="imagebot_122"/>
  </g>
  <g id="imagebot_16047" transform="rotate(148.661 86.2362 102.185) matrix(0.0609228 0 0 0.0609228 2.80764 73.0693)">
   <path fill="#7f3f00" id="imagebot_16050" d="M455.4235,66.1424C400.8073,83.1942 356.0317,125.4422 330.6112,176.0868C311.4041,214.8928 310.4055,259.1075 311.3349,301.4557C230.0295,278.9294 136.3193,323.8474 101.1478,400.2454C91.8695,420.3993 92.7834,420.4887 89.2982,440.6142C84.4607,468.5483 85.0899,477.6642 87.094,496.5832C88.5297,518.8655 94.3967,535.0943 94.3967,535.0943C113.3459,593.6213 164.1194,641.0875 224.1482,655.0976C253.5646,662.3252 284.3412,660.578 313.9894,655.5884C303.9798,704.6548 314.6404,757.1537 340.983,799.5359C381.0781,869.3678 465.2734,909.0186 544.6995,899.9118C604.2692,894.8951 659.1311,860.644 693.1304,811.8918C736.9953,751.9126 742.4419,668.4401 712.6686,601.1741C702.837,578.1798 686.551,558.9202 670.2389,540.3124C698.3342,548.7866 721.9948,567.1715 749.07,578.0993C764.0834,565.1056 780.1924,553.3348 794.5706,539.5189C798.2978,548.4638 798.4189,558.49 802.4595,567.2686C812.5463,584.0725 831.7117,596.4899 851.8111,594.3316C882.0214,593.7789 909.1381,564.8898 904.3326,534.2543C957.5545,537.0799 1010.8913,535.8545 1064.171,536.402C1433.4282,537.8922 1802.718,538.803 2171.989,539.9672C2173.2405,554.8237 2174.1406,569.8131 2171.303,584.5215C2120.8924,583.702 2070.4644,583.6778 2020.0713,584.1567C2019.5397,609.6775 2018.6481,635.2234 2020.4942,660.6871C2033.22,666.1531 2046.5019,670.2813 2059.8025,674.1552C2062.7046,684.2042 2062.1804,694.8168 2060.5415,704.966C2046.8942,708.5519 2033.9896,714.5045 2020.1772,717.2714C2019.9334,775.9445 2016.7722,834.712 2019.3045,893.3358C2063.872,893.6963 2108.5163,891.5245 2153.072,894.3038C2155.4331,852.5568 2154.4675,810.7166 2153.7583,768.9306C2173.7839,766.2359 2194.0332,769.3372 2214.179,767.3201C2216.3768,808.7135 2213.3973,850.3955 2213.5066,891.8619C2249.4805,894.7702 2285.5918,893.9508 2321.6677,892.6284C2324.0952,851.3098 2320.5576,809.8653 2323.7783,768.5279C2342.469,767.9113 2361.2241,768.7341 2379.9895,768.1487C2386.5129,809.4572 2379.2661,851.5451 2383.1008,893.1129C2427.3325,894.8683 2471.6394,893.0449 2515.9155,894.3998C2518.9604,836.037 2517.1975,777.5761 2517.2402,719.1335C2503.7121,715.0949 2490.7458,709.2843 2476.9123,706.5664C2474.4523,696.1257 2475.7228,685.3525 2477.4089,674.8395C2490.5781,671.648 2503.268,666.7573 2516.2185,662.498C2520.0098,652.6687 2516.6392,642.1109 2517.26,631.8525C2516.1614,616.0825 2517.374,600.3323 2518.8071,584.6392C2512.7566,583.7972 2506.5717,583.6146 2500.5959,583.8504C2455.5629,585.6163 2410.4802,583.5592 2365.4321,585.1096C2364.0969,571.125 2365.0993,557.014 2364.5517,542.9385C2413.5156,539.5632 2462.6494,542.7821 2511.6672,542.2545C2511.5471,534.8273 2511.029,527.3913 2511.3347,519.8619C2514.1911,514.7538 2519.9116,518.1093 2523.0154,521.2136C2532.5523,531.1618 2542.159,542.1152 2555.7508,546.5467C2587.3655,558.3853 2624.9862,540.893 2639.4822,511.1503C2654.3667,480.7674 2640.959,440.119 2611.3238,424.0635C2590.4361,414.9066 2564.8062,412.2882 2544.5762,424.4907C2531.8531,430.9717 2527.1739,449.8154 2510.8863,449.1811C2510.578,440.6115 2513.4456,432.0376 2511.6905,423.4248C1976.3255,420.4767 1440.9809,426.6233 905.645,423.0596C910.6355,381.7429 859.8901,350.7345 824.3554,369.6699C806.9033,379.2599 799.2184,398.9985 794.607,417.2595C778.8579,405.1816 763.6434,392.4894 748.9304,379.2203C722.7138,392.0199 698.2434,408.6325 670.3966,417.7196C683.6415,402.1417 697.4786,386.7755 707.0336,368.4951C737.3014,315.9238 738.3037,250.5198 719.9131,193.7953C706.0073,151.7012 676.2179,115.8037 639.2391,91.7411C586.0027,56.07 516.3781,46.8071 455.4235,66.1424zM590.3859,152.6449C626.2439,174.6199 652.1341,213.6042 655.1872,255.8765C660.0032,303.765 635.47,353.1573 594.8799,378.798C579.9318,388.5746 562.8934,394.7791 545.483,398.2297C541.5634,399.4777 534.7884,399.1193 535.1654,405.0491C534.4399,414.8453 537.4112,424.8538 533.9568,434.3351C523.2867,434.537 518.5211,423.6429 511.9,417.2101C499.84,402.6372 477.6948,400.823 461.5151,408.9893C440.4176,418.5807 429.0148,441.4299 425.8874,463.3776C421.5058,491.1517 428.0709,523.2167 450.6229,541.7512C467.7938,556.6176 496.5375,556.7806 512.5626,540.1794C518.4261,533.6704 522.907,522.349 533.3525,523.0648C537.8667,533.9764 534.2011,545.6019 534.1529,556.8309C562.5443,561.7839 591.2019,571.5905 611.9361,592.5252C660.8601,635.2117 669.2784,715.6246 629.7017,767.22C606.7762,798.2355 570.9229,820.3697 532.0989,823.183C498.9872,826.6449 465.1979,815.7154 439.0625,795.482C403.3896,767.3579 382.7678,720.5701 388.0527,675.1904C391.1049,643.3575 408.5797,614.9236 430.0853,592.0206C406.1007,571.0593 382.3817,549.755 358.4309,528.7554C338.752,553.0112 312.8469,575.4628 280.6026,578.9367C225.011,584.5783 169.5034,537.5499 167.1796,481.4017C165.339,442.546 189.2619,404.6029 224.2845,388.1577C253.5083,373.452 290.2957,373.5241 318.5865,390.5033C334.3875,399.1845 346.6038,412.8801 356.8967,427.4677C382.9083,408.6182 405.3258,385.3267 430.5816,365.4829C408.5661,341.1715 392.1224,310.8417 388.5655,277.9167C380.4269,212.3924 431.9145,147.8386 495.8062,135.9521C527.9047,129.3482 562.4468,135.5323 590.3859,152.6449z"/>
  </g>
  <path fill="#e77235" transform="translate(-50 0) matrix(1 0 0 1 -239 -90.7996)" clip-path="url(#imagebot_5)" d="M448.45,206.49C448.32,206.62 461.77,206.12 463.63,210.06C453.39,210.77 452.89,211.84 449.51,214.97C445.94,218.28 443.07,224.04 440.06,230.06C438.76,232.66 447.38,225.3 455.24,225.78C455.24,225.78 450.2,233.13 447.74,236.85C441.32,246.53 440.81,261.31 441.31,267.74C441.39,268.8 455,253.69 455.59,254.88C453.28,260.78 451.86,266.59 452.46,272.08C453.26,279.48 453.08,289.05 458.48,294.68C462.54,298.7 462.12,291.68 466.31,283.1C466.09,296.6 466.2,307.35 471.66,318.28C472.58,320.1 478.81,302.21 483.99,294.53C485.26,304.03 482.47,316.05 488.45,322.03C488.7,322.28 499.78,299.22 501.84,296.49C504.88,305.74 504.97,317.92 507.38,313.1C510.58,306.7 515.79,300.3 518.09,293.1C519.81,287.72 518.31,277.28 520.24,276.31C524.85,284.58 523.45,301.31 523.45,301.31C531.01,299.17 529.84,280.48 530.95,270.96C536.66,275.25 535.51,286.82 537.38,290.06C538.6,292.18 543.77,281.59 544.16,280.6C546.36,275.11 545.52,270.22 543.81,265.95C543.18,264.38 542.38,262.74 537.38,254.17C543.93,258.33 550.32,270.87 550.59,270.6C555.57,265.62 553.08,250.86 549.52,242.03C547.85,237.88 539.9,232.49 540.59,232.03C551.65,229.54 552.82,235.82 558.63,239.53C559.04,239.79 557.5,232.03 557.38,231.67C551.84,215.06 526.03,214.99 515.77,217.38C508.52,219.08 499.26,217.47 491.39,212.44C486.22,209.14 482.53,202.99 477.38,200.11C468.38,195.08 456.73,198.21 448.45,206.49z" id="imagebot_120"/>
  <path fill="none" stroke-dasharray="6, 6" stroke-linecap="round" stroke="#c6cbdd" transform="translate(-50 0) matrix(1 0 0 1 -239 -90.7996)" clip-path="url(#imagebot_5)" d="M362.77,404.6S365.16,407.28 369.13,408.82C373.77,410.62 387.76,412.82 387.76,412.82C384.99,424.54 379.55,429.96 374.64,436.62C367.77,443.82 360.23,441.39 352.84,441.02C355.2,425.7 357.51,414.87 362.77,404.6L362.77,404.6z" id="imagebot_119"/>
  <path fill="#c4c4c4" transform="translate(-50 0) matrix(1 0 0 1 -239 -90.7996)" clip-path="url(#imagebot_5)" d="M364,398.16S371.17,401.68 374.9,403.08C381.58,405.58 395.38,409.28 395.38,409.28S381.14,409.28 374.75,406.6C370.55,404.83 364,398.16 364,398.16z" id="imagebot_118"/>
  <path fill="none" stroke-width="2" stroke-linecap="round" stroke="#979fbf" transform="translate(-50 0) matrix(1 0 0 1 -239 -90.7996)" clip-path="url(#imagebot_5)" d="M364.19,399.76S367.04,403.14 371.78,405.09C377.32,407.37 394.01,410.14 394.01,410.14C390.7,424.94 384.21,431.78 378.35,440.19C370.16,449.28 361.16,446.2 352.34,445.75C355.15,426.39 357.91,412.73 364.19,399.76L364.19,399.76z" id="imagebot_117"/>
  <path transform="translate(-50 0) matrix(0.11693 -0.64721 -0.64528 -0.11947 396.92 585.294)" fill="#5f6b9a" clip-path="url(#imagebot_5)" d="M420.36,331.2C419.24,333.72 416.04,334.41 413.7,333.23C410.4,331.58 409.55,327.32 411.23,324.21C413.47,320.07 418.9,319.04 422.85,321.29C427.89,324.16 429.11,330.87 426.25,335.71C425.25,337.39 423.82,338.81 422.14,339.81" id="imagebot_116"/>
  <path fill="#1a1a1a" transform="translate(-50 0) matrix(1 0 0 1 -239 -90.7996)" clip-path="url(#imagebot_5)" d="M355.25,183.34S356.8,190.79 360.12,192.84C362.65,194.4 366.12,195.19 368.62,193.59C369.84,192.82 369.38,190.27 370.75,189.84C372.55,189.27 375.4,191.67 379.25,190.59C381.12,190.07 381.52,185.51 382.75,185.72C384.06,185.93 386.54,187.69 390.25,186.46C391.84,185.94 393.75,180.96 393.75,180.96C398.92,184.73 405.21,179.77 403,175.46L397.75,165.22L355.25,183.34z" opacity="0.38689" id="imagebot_114"/>
  <path fill="#faddae" transform="translate(-50 0) matrix(1 0 0 1 -239 -90.7996)" clip-path="url(#imagebot_5)" d="M356.68,179.14S357.33,189.57 361.48,191.85C363.66,193.05 367.44,192.5 368.8,190.42C370.68,187.56 365.7,176.11 365.7,176.11S368.56,187.3 371.48,188.46C374.76,189.75 382.48,187.95 381.41,184.59L377.91,173.64S381.78,184.97 383.75,185.15C387.09,185.45 391.48,184.32 392.55,181.14C393.09,179.52 389.61,172 389.69,171.85C389.69,171.85 391.24,179.34 394.82,180.57C396.74,181.22 399.41,179.58 400.18,177.71C401.86,173.62 397.01,166.67 397.01,166.67S393.9,162.61 392.02,162.74C390.28,162.87 388.42,164.58 388.42,164.58S384.87,160.58 381.11,160.41C379.36,160.33 375.94,162.56 375.94,162.56S370.53,160.29 367.56,161.66C365.82,162.47 363.44,165.78 363.44,165.78S358.23,165.7 356.47,167.65C353.68,170.75 356.68,179.14 356.68,179.14z" id="imagebot_113"/>
  <path fill="#faddae" transform="translate(-50 0) matrix(1 0 0 1 -239 -90.7996)" clip-path="url(#imagebot_5)" d="M380.77,215.78C380.68,212.08 381.48,208.4 383.09,205.07C385.18,200.74 390.32,199.76 392.2,194.89C393.34,191.92 391.62,189.58 392.38,186.49C393.42,182.23 397.18,178.75 400.95,176.49C404.03,174.65 412.06,172.26 410.95,175.42C408.62,182.03 405.22,186.13 405.23,192.21C405.24,196.35 407.79,200.48 409.16,204.53C411.82,212.35 405.74,222.04 401.66,223.28C394.99,224.89 389.21,225.82 382.44,226.98C381.7,225.66 381.94,223.97 381.62,222.48C381.3,220.98 380.82,218.03 380.77,215.78z" id="imagebot_112"/>
  <path fill="#faddae" transform="translate(-50 0) matrix(1 0 0 1 -239 -90.7996)" clip-path="url(#imagebot_5)" d="M657.33,362.66C664.33,362.16 668.8,361.48 675.62,359.62C682.41,357.77 695.1,354.04 701.97,346.95C703.88,344.98 706.49,342.31 708.65,339.45C711.09,336.22 712.95,332.73 712.58,329.72C711.88,323.97 712.48,321 714.92,315.64C716.88,311.74 717.3,304.27 713.32,302.44C709.7,300.76 706.37,301.76 708.8,297.13C710.16,292.61 704.18,286.34 700.2,290.81C694.37,292.52 696.38,283.41 692.76,281.59C688.12,281.12 681.96,282.45 679.91,287.18C678.32,292.31 683.54,297.22 680.13,302.42C678.16,306.31 676.75,313.24 670.78,311.61C666.78,309.98 665.21,304.18 666.99,300.42C669.22,296.45 674.08,294.15 674.07,289.03C674.93,285.34 672.47,280.89 668.3,281.36C663.08,281.85 661.44,287.66 659.89,291.77C658.06,297.36 659.45,303.74 656.13,308.9C653.7,313.37 651.84,318.6 647.19,321.28C642.75,323.75 640.53,328.42 637.83,332.48C635.69,335.86 638.2,339.24 639.44,342.38L647.78,363.72C650.46,362.94 654.65,363.43 657.33,362.66z" id="imagebot_111"/>
  <path fill="#f2f2f2" transform="translate(-50 0) matrix(1 0 0 1 -239 -90.7996)" clip-path="url(#imagebot_5)" d="M535.59,325.6S577.02,341.95 598.44,340.1C613.23,338.81 639.48,322.77 639.48,322.77C645.28,350.29 656.95,362.42 662.38,377.74C663.64,377.74 621.69,399.75 593.8,400.24C572.4,400.62 532.02,382.74 532.02,382.74L535.59,325.6z" id="imagebot_110"/>
  <path fill="#faddae" transform="translate(-50 0) matrix(1 0 0 1 -239 -90.7996)" clip-path="url(#imagebot_5)" d="M663.27,294.71C664.34,294.35 672.46,300.94 674.88,297.03C677.36,293.01 676.24,284.47 672.2,282.03C670.59,281.06 667.02,281.85 667.02,281.85" id="imagebot_109"/>
  <path fill="#faddae" transform="translate(-50 0) matrix(1 0 0 1 -239 -90.7996)" clip-path="url(#imagebot_5)" d="M683.84,283.05S678.33,286.06 677.61,291.1C677.15,294.36 679.38,298.96 682.6,299.62C686.42,300.4 690.01,294.05 691.09,293.33" id="imagebot_108"/>
  <path fill="#181e26" transform="translate(-50 0) matrix(1 0 0 1 -239 -90.7996)" fill-opacity="0.52968" clip-path="url(#imagebot_5)" d="M474.32,212.91C474.32,214.42 476.11,222.09 475.6,227.02C475.1,231.8 473.3,231.58 472.78,236.35C472.33,240.5 474.3,247.71 474.8,248.72S480.4,256.42 484.65,257.81C491.09,259.92 498.46,258.39 503.84,254.28C509.1,250.26 507.7,247.46 510.94,241.7C514.5,235.36 524.07,224.28 524.07,224.28S499.08,229.59 490.62,227.68C481.99,225.73 474.32,212.91 474.32,212.91z" id="imagebot_107"/>
  <g fill="#faddae" stroke-width="1.5" stroke-linecap="round" stroke="#a95930" transform="translate(-50 0) matrix(1 0 0 1 -239 -90.7996)" clip-path="url(#imagebot_5)" id="imagebot_104">
   <path d="M509.17,206.59S511.99,206.27 512.96,207.1C514.76,208.64 514.98,213.91 514.98,213.91" id="imagebot_106"/>
   <path d="M491.74,207.98S493.98,199.74 497.04,197.12C498.98,195.46 502.71,194.72 505,195.86C509.88,198.29 509.92,210.25 509.92,210.25" id="imagebot_105"/>
  </g>
  <path fill="#f4cb95" transform="translate(-50 0) matrix(1 0 0 1 -239 -90.7996)" clip-path="url(#imagebot_5)" d="M524.24,196.72C522.51,199.02 521.17,201.64 521.48,204.68C521.88,207.17 524.22,208.72 526.41,209.58C528.96,210.62 531.57,211.53 534.23,212.22C536.76,212.84 539.75,212.68 541.7,210.76C544.34,208.33 545.02,206.37 546.29,203.13C547.06,201.02 547.67,198.36 546.18,196.42C544.22,193.76 541.2,191.13 538.05,190.84C534.81,190.5 531.29,190.88 528.64,192.95C527.19,194 525.34,195.31 524.24,196.72z" id="imagebot_103"/>
  <path fill="#f4cb95" transform="translate(-50 0) matrix(1 0 0 1 -239 -90.7996)" clip-path="url(#imagebot_5)" d="M526.68,183.69C523.88,189.22 532.33,192.86 538.04,190C542.58,187.73 547.57,182.52 553.45,185.46C556.08,186.78 560.93,194.71 561.15,191.77C561.69,184.64 557.09,182.59 552.59,181.68C543.35,179.83 528.6,187.05 526.68,183.69z" id="imagebot_102"/>
  <path fill="#f9fef7" transform="translate(-50 0) matrix(1 0 0 1 -239 -90.7996)" clip-path="url(#imagebot_5)" d="M524.26,192.8C522.53,195.1 521.19,197.72 521.5,200.76C521.9,203.25 524.24,204.8 526.43,205.66C528.98,206.7 531.59,207.61 534.25,208.3C536.78,208.92 539.77,208.76 541.72,206.84C544.36,204.41 545.04,202.45 546.31,199.21C547.08,197.1 547.69,194.44 546.2,192.5C544.24,189.84 541.22,187.21 538.07,186.92C534.83,186.58 531.31,186.96 528.66,189.03C527.21,190.08 525.36,191.39 524.26,192.8z" id="imagebot_101"/>
  <path fill="#af4915" transform="translate(-50 0) matrix(1 0 0 1 -239 -90.7996)" clip-path="url(#imagebot_5)" d="M526.59,182.1C523.79,187.63 532.24,191.27 537.95,188.41C542.49,186.14 547.48,180.93 553.36,183.87C555.99,185.18 560.84,193.12 561.06,190.18C561.6,183.05 557,181 552.5,180.1C543.26,178.24 528.51,185.46 526.59,182.1z" id="imagebot_100"/>
  <path fill="#f4cb95" transform="translate(-50 0) matrix(1 0 0 1 -239 -90.7996)" clip-path="url(#imagebot_5)" d="M488.6,180.13C487.04,182.2 485.83,184.56 486.11,187.3C486.47,189.56 488.58,190.95 490.56,191.73C492.86,192.66 495.21,193.48 497.62,194.11C499.9,194.66 502.59,194.52 504.36,192.79C506.74,190.6 507.36,188.83 508.5,185.91C509.19,184 509.74,181.61 508.4,179.86C506.63,177.46 503.91,175.09 501.06,174.83C498.14,174.52 494.97,174.87 492.57,176.73C491.26,177.67 489.6,178.86 488.6,180.13z" id="imagebot_99"/>
  <path fill="#f4cb95" transform="translate(-50 0) matrix(1 0 0 1 -239 -90.7996)" clip-path="url(#imagebot_5)" d="M499.8,163.53C502.39,164.12 505.7,162.49 507.5,164.29C510.56,167.35 504.62,171.04 506.11,175.53C506.93,177.96 513.92,183.88 515.84,181.96C517.79,180.02 513.69,176.79 512.68,175.78C509.92,173.02 513.43,164.1 509.27,162.02C504.55,159.65 503.15,162.69 499.8,163.53z" id="imagebot_98"/>
  <path fill="#f9fef7" transform="translate(-50 0) matrix(1 0 0 1 -239 -90.7996)" clip-path="url(#imagebot_5)" d="M490.59,177.21C489.03,179.28 487.82,181.64 488.1,184.38C488.46,186.64 490.57,188.03 492.54,188.81C494.85,189.74 497.2,190.56 499.61,191.19C501.89,191.74 504.58,191.6 506.35,189.87C508.72,187.68 509.34,185.91 510.49,182.99C511.18,181.08 511.73,178.69 510.39,176.94C508.62,174.54 505.9,172.17 503.05,171.91C500.13,171.6 496.96,171.95 494.56,173.81C493.25,174.75 491.58,175.94 490.59,177.21z" id="imagebot_97"/>
  <path fill="#af4915" transform="translate(-50 0) matrix(1 0 0 1 -239 -90.7996)" clip-path="url(#imagebot_5)" d="M501.21,162.65C503.8,163.24 507.11,161.61 508.91,163.41C511.97,166.47 506.03,170.16 507.52,174.65C508.34,177.08 515.33,183 517.25,181.08C519.2,179.14 515.1,175.91 514.09,174.9C511.33,172.14 514.84,163.22 510.68,161.14C505.96,158.77 504.56,161.81 501.21,162.65z" id="imagebot_96"/>
  <path fill="#c01f14" transform="translate(-50 0) matrix(1 0 0 1 -239 -90.7996)" clip-path="url(#imagebot_5)" d="M500.2,175.19C501.8,176.73 501.58,179.57 498.84,182.4C496.1,185.24 492.58,185.76 490.99,184.21S489.61,180.37 492.35,177.54C495.09,174.7 498.6,173.65 500.2,175.19z" id="imagebot_95"/>
  <path fill="#c01f14" transform="translate(-50 0) matrix(1 0 0 1 -239 -90.7996)" clip-path="url(#imagebot_5)" d="M533.83,191.27C535.3,192.81 535.87,196.36 533.35,199.2S525.25,202.73 523.78,201.19C522.31,199.65 523.17,196.1 525.7,193.26S532.36,189.73 533.83,191.27z" id="imagebot_94"/>
  <path fill="#faddae" transform="translate(-50 0) matrix(1 0 0 1 -239 -90.7996)" clip-path="url(#imagebot_5)" d="M708.81,303.28S698.5,307.43 697.56,313.1C697.2,315.25 699.24,317.76 701.31,318.46C705.75,319.96 713.1,314.53 713.1,314.53" id="imagebot_93"/>
  <path fill="none" transform="translate(-50 0) matrix(1 0 0 1 -239 -90.7996)" clip-path="url(#imagebot_5)" d="M709.52,318.99C708.81,318.81 699.55,320.29 697.51,324.38C696.37,326.67 696.91,328.39 698.94,329.94C701.57,331.96 707.46,331.37 707.46,331.37C706.36,336.9 703.05,340.58 697.91,342.74" id="imagebot_92"/>
  <path fill="#eac38f" stroke-linecap="round" stroke="#eac38f" transform="translate(-50 0) matrix(1 0 0 1 -239 -90.7996)" clip-path="url(#imagebot_5)" d="M697.2,296.67C696.66,297.92 693.88,302.76 692.02,305.78C690.87,307.65 687.91,310.96 687.91,310.96S693.24,306.58 696.13,303.99C698.11,302.21 702.74,298.46 702.74,298.46" stroke-linejoin="round" id="imagebot_91"/>
  <path fill="#faddae" transform="translate(-50 0) matrix(1 0 0 1 -239 -90.7996)" clip-path="url(#imagebot_5)" d="M699.96,291.85S694.98,294.4 693.66,298.76C693.04,300.83 694.23,303.7 696.1,304.78C699.95,307 707.96,299.2 707.96,299.2" id="imagebot_90"/>
  <path transform="translate(-50 0) matrix(1.1749 0.38655 -0.25085 0.76243 -275.58 -236.825)" fill="#f4cb95" clip-path="url(#imagebot_5)" d="M507.62,209.16C507.62,210.47 506.56,211.54 505.24,211.54S502.87,210.47 502.87,209.16S503.93,206.78 505.24,206.78S507.62,207.85 507.62,209.16z" id="imagebot_88"/>
  <path fill="#a95930" transform="translate(-50 0) matrix(1 0 0 1 -239 -90.7996)" clip-path="url(#imagebot_5)" d="M503.63,209.42C503.94,209.92 504.48,210.36 505.07,210.45C505.78,210.56 506.72,210.37 507.1,209.77C507.42,209.25 507.2,208.48 506.87,207.96C506.67,207.64 506.27,207.42 505.9,207.34C505.01,207.13 504,207.18 503.2,207.66C502.44,208.09 502.26,209.15 502.68,209.88C502.84,210.4 501.62,210.07 501.4,209.7C500.87,208.82 501.68,207.45 502.49,206.81C503.29,206.18 504.53,206.24 505.53,206.42C506.44,206.59 507.5,206.94 507.97,207.74C508.45,208.56 508.49,209.82 507.92,210.57C507.23,211.49 505.72,211.97 504.63,211.59C503.78,211.29 503.16,210.29 503.1,209.35C503.16,209.03 503.54,208.33 503.52,208.66C503.52,208.66 503.5,209.2 503.63,209.42z" id="imagebot_87"/>
  <path fill="#c4c4c4" transform="translate(-50 0) matrix(1 0 0 1 -239 -90.7996)" clip-path="url(#imagebot_5)" d="M593.38,361.1C589.93,356.52 588.55,351.62 585.15,347.59C582.04,343.91 577.54,340.81 574.23,338.11C572.88,337.04 575.16,337.85 575.72,337.89C581.82,339.22 588.02,340.02 594.25,340.35C595.9,340.01 592.71,342.99 592.78,343.92C592.54,348.77 595.28,352.63 595.49,357.48C595.59,359.53 595.2,361.44 595.25,363.48C594.58,362.73 593.99,361.9 593.38,361.1z" id="imagebot_86"/>
  <path fill="#f4cb95" transform="translate(-50 0) matrix(1 0 0 1 -239 -90.7996)" clip-path="url(#imagebot_5)" d="M370.08,235.03C370.05,234.5 370.3,232.88 370.66,232.71C371.26,232.42 372.46,232.36 373.04,232.14C381.67,230.29 389.93,229.23 398.07,225.8C399.53,225.18 400.95,224.48 402.36,223.76C402.35,224.68 402.83,225.83 401.6,226.17C396.49,229.19 391.09,231.88 385.25,233.16C380.32,234.3 375.27,234.77 370.25,235.37C370.02,235.46 369.99,235.14 370.08,235.03z" id="imagebot_85"/>
  <path fill="#e66826" transform="translate(-50 0) matrix(1 0 0 1 -239 -90.7996)" clip-path="url(#imagebot_5)" d="M487.83,321.21C486.96,320.23 485.86,317.87 485.38,316C484.8,313.75 484.4,308.11 484.36,301.52C484.34,299.18 484.26,296.65 484.16,295.89L484,294.52L483.19,295.77C481.92,297.72 479.94,301.69 476.52,309.14C472.47,317.93 471.95,318.83 471.54,317.77C471.19,316.85 478.11,299.63 480.84,294.64C483.11,290.48 484.41,289.07 485.86,289.19C486.87,289.28 487.69,290.27 488.16,291.99C488.62,293.66 488.77,298.21 488.55,303.89C488.37,308.45 488.4,309.26 488.71,309.58C489.21,310.08 489.51,309.84 490.62,308.13C491.98,306.03 493.16,303.13 494.76,297.93C496.3,292.92 497.17,290.81 498.32,289.24C499.15,288.12 500.88,287.12 501.65,287.32C503.01,287.68 505.1,291.19 507.77,297.58C508.94,300.38 509.54,301.2 510.3,300.99C510.96,300.81 510.98,300.72 514.27,286.77C517.38,273.58 517.92,271.89 519.02,271.89C519.64,271.89 521.01,273.83 522.31,276.58C523.44,278.95 523.76,279.98 524.4,283.19C525.4,288.25 525.87,289.15 526.78,287.77C528.26,285.5 528.67,280.55 527.9,274.07C527.13,267.48 527.25,264.64 528.31,264.64C529.3,264.64 532.76,268.78 536.51,274.45C537.31,275.66 538.08,276.64 538.23,276.64C539.02,276.63 539.12,276.25 538.89,274.26C538.25,268.77 536.98,264.75 533.8,258.14C531.71,253.8 531.29,252.4 531.66,251.04C532,249.77 533.52,248.26 534.67,248.05C537.17,247.58 540.96,250.36 544.94,255.58C545.91,256.85 546.76,257.89 546.83,257.89S546.89,256.68 546.8,255.2C546.48,249.44 544.79,245.72 538.13,236.14C536.64,234.01 535.41,232.1 535.38,231.89C535.14,230.3 536.32,229.85 541.13,229.7C544.27,229.6 544.96,229.65 546.26,230.08C548.81,230.93 549.07,230.95 549.63,230.4C551.12,228.9 549.08,225.62 545.41,223.63C540.67,221.06 530.94,218.59 520.63,217.35C518.16,217.05 518.07,217.02 519.13,216.84C519.75,216.74 522.39,216.58 525.01,216.49C534.01,216.18 542.2,217.78 547.88,220.94C551.38,222.88 554.75,226.24 556.24,229.25C557.07,230.92 557.96,234.49 558.5,238.24L558.67,239.45L557.84,238.86C557.38,238.54 555.85,237.19 554.43,235.86C550.8,232.47 548.61,231.4 545.28,231.39C543.2,231.39 540.63,231.87 540.63,232.26C540.63,232.44 541.11,233 541.69,233.52C544.2,235.72 547.73,239.37 548.54,240.59C549.9,242.63 551.86,248.92 552.64,253.77C553.11,256.61 553.33,261.6 553.09,263.76C552.82,266.28 552.08,268.55 551.19,269.61L550.51,270.43L548.22,266.85C545.41,262.46 543.24,259.53 541.22,257.39C539.85,255.94 537.38,253.91 537.38,254.24C537.38,254.31 538.52,256.37 539.92,258.82C543.04,264.27 543.94,266.19 544.68,268.91C545.41,271.61 545.46,275.94 544.8,278.39C544.09,281.02 540.48,287.76 538.81,289.58C537.52,290.98 537,289.86 536.11,283.89C535.12,277.18 533.94,273.77 531.9,271.78L530.94,270.85L530.79,271.93C530.7,272.53 530.46,275.9 530.26,279.41C529.66,289.51 529.02,293.59 527.5,297.05C526.87,298.49 525.39,300.25 524.37,300.77L523.69,301.12L523.56,294.44C523.39,285.94 522.72,281.63 520.98,277.68C519.77,274.94 519.29,276.52 518.91,284.52C518.76,287.82 518.47,291.14 518.28,291.89C517.4,295.42 516.01,298.27 511.51,305.77C509.7,308.79 507.88,311.89 507.48,312.64C507.08,313.4 506.59,314.02 506.39,314.02C505.89,314.02 505.3,311.96 504.36,306.94C503.48,302.21 502.26,297.17 501.91,296.82S500.08,299.13 494.15,310.82C491.18,316.68 488.63,321.52 488.48,321.57C488.34,321.61 488.04,321.45 487.83,321.21z" id="imagebot_84"/>
  <path fill="#e97c44" transform="translate(-50 0) matrix(1 0 0 1 -239 -90.7996)" clip-path="url(#imagebot_5)" d="M470.53,315.53C467.59,308.73 466.35,300.68 466.33,288.07L466.32,282.95L465.48,284.82C465.02,285.85 464.13,288.18 463.5,290C462.18,293.8 461.51,295.2 460.88,295.54C459.81,296.12 457.91,294.32 456.14,291.07C454.59,288.24 453.83,284.95 453.06,277.66C452.07,268.36 452.37,264.54 454.61,257.99C455.17,256.36 455.57,254.98 455.5,254.91C455.2,254.6 453.94,255.71 448.02,261.46C444.57,264.82 441.65,267.57 441.54,267.57C441.24,267.57 441.28,260.05 441.6,257.02C442.39,249.32 444.52,242.11 447.29,237.73C447.83,236.88 449.85,233.85 451.78,231S455.19,225.76 455.06,225.68C454.76,225.5 452.93,225.74 450.7,226.25C448.68,226.71 445.94,227.78 442.58,229.43C441.28,230.06 440.18,230.49 440.14,230.37C440.02,230.01 444.51,221.66 446.12,219.24C448.08,216.3 451.35,213.09 453.41,212.08C455.24,211.18 457.61,210.64 460.75,210.41C463.69,210.2 463.96,210.03 462.84,209.07C461.28,207.73 457.84,206.9 452.83,206.66C450.97,206.58 449.3,206.42 449.11,206.32C448.73,206.12 451.09,204.04 453.52,202.41C460.97,197.45 469.9,196.45 476.58,199.82C478.06,200.57 481.18,202.81 480.99,202.99C480.93,203.05 480.22,202.98 479.42,202.82C472.69,201.5 456.36,203.28 459.64,204.97C459.95,205.13 461.5,205.62 463.08,206.07C469.8,207.95 473.22,209.27 473.02,209.9C472.96,210.06 471.27,210.6 469.26,211.1C463.48,212.52 460.35,213.76 457.33,215.83C455.18,217.3 452.83,220.06 452.83,221.12C452.83,221.73 453.93,222.23 455.7,222.42C457.9,222.67 459.8,223.07 459.96,223.32C460.03,223.44 458.11,227.01 455.69,231.24C448.35,244.09 445.9,249.48 447.17,249.97C447.86,250.23 448.65,249.89 450.21,248.68C452.16,247.16 453.35,246.57 454.46,246.57C455.79,246.57 456.13,246.84 457.72,249.18L459.16,251.3L459,254.12C458.92,255.68 458.39,259.84 457.84,263.38C457.28,266.92 456.71,271.2 456.56,272.88C456.12,278.16 456.7,283.99 457.74,284.76C458.94,285.63 460.01,284.72 463.05,280.26C465.5,276.66 466.73,275.67 467.56,276.67C468.08,277.3 469.27,280.91 469.68,283.12C470.33,286.59 470.8,291.99 471.2,300.78C471.41,305.27 471.69,310.5 471.81,312.4C471.98,314.98 471.96,316.08 471.74,316.74L471.43,317.62L470.53,315.53z" id="imagebot_83"/>
  <path fill="#c4c4c4" transform="translate(-50 0) matrix(1 0 0 1 -239 -90.7996)" clip-path="url(#imagebot_5)" d="M474.82,350.23C478.61,345.94 486.35,337.74 486.79,337.55C488.27,336.91 491.34,337.12 498.67,338.34C506.99,339.73 509.35,339.79 511.53,338.66L512.2,338.31L510.49,336.46C509.54,335.44 507.03,332.71 504.9,330.39L501.02,326.17L502.05,325.12C503.4,323.74 505.73,322.22 509.52,320.22C511.21,319.33 513.4,318.08 514.38,317.44C520.76,313.32 528.9,310.84 536.31,310.77L538.95,310.75L539.26,311.98C539.44,312.67 539.59,313.31 539.59,313.42C539.59,313.55 538.84,313.62 537.34,313.64C532.83,313.71 529.35,314.3 526.16,315.55C522.84,316.85 511.84,322.42 508.78,324.35C507.06,325.44 506.9,325.59 507.1,325.88C507.23,326.05 508.23,327.37 509.33,328.81C510.84,330.79 511.62,332.03 512.56,333.91C514,336.79 515.64,341.25 515.33,341.44C514.96,341.67 511.78,341.85 508.3,341.83C506.15,341.82 503.27,341.66 500.61,341.4C495.47,340.9 490.73,340.85 489.16,341.28C488.59,341.44 487.6,341.89 486.95,342.28C485.81,342.96 485.15,343.51 481.67,346.62C479.65,348.42 478.55,349.12 476.43,349.94C475.48,350.31 474.65,350.61 474.59,350.61S474.64,350.44 474.82,350.23z" id="imagebot_82"/>
  <path fill="#c4c4c4" transform="translate(-50 0) matrix(1 0 0 1 -239 -90.7996)" clip-path="url(#imagebot_5)" d="M444.2,296.92C437.74,294.87 430.69,289.4 425.35,282.3C418.55,273.26 414.42,262.58 412.54,249.15C411.89,244.56 411.89,232.22 412.54,228.03C413.05,224.73 414.17,220.02 414.78,218.65C415.14,217.82 415.16,218.01 415.18,222.28C415.23,233.21 416.55,246.24 418.45,254.7C419.39,258.87 420.93,263.43 422.43,266.53C425.44,272.71 433.35,283 443.14,293.47C444.33,294.74 445.64,296.14 446.05,296.59L446.8,297.4L446.19,297.38C445.85,297.37 444.96,297.16 444.2,296.92z" id="imagebot_81"/>
  <path fill="#1e212f" transform="translate(-50 0) matrix(1 0 0 1 -239 -90.7996)" clip-path="url(#imagebot_5)" d="M480.07,534.29C479.46,532.98 479.08,531.79 479.23,531.64C479.38,531.5 481.25,530.59 483.39,529.62S492.37,525.36 498.6,522.31C512.98,515.26 521.88,511.25 528.91,508.68L531.65,507.68L531.65,526.26L528.2,526.49C515.67,527.32 498.46,530.71 487.46,534.52C484.64,535.5 482.07,536.38 481.76,536.49C481.33,536.63 480.91,536.09 480.07,534.29z" id="imagebot_80"/>
  <path fill="#1e212f" transform="translate(-50 0) matrix(1 0 0 1 -239 -90.7996)" clip-path="url(#imagebot_5)" d="M412.69,528.47C400.15,514.1 386.65,504.08 373.64,499.48L369.89,498.16L369.97,493.44C370.02,490.84 370.14,488.21 370.25,487.59L370.45,486.46L373.26,488.73C378.77,493.18 386.83,498.16 400.65,505.68C404.15,507.58 407.33,509.41 407.72,509.75S410.58,511.53 413.2,512.95C415.83,514.37 418.81,516.06 419.84,516.71C421.56,517.8 422.4,518.13 422.4,517.72C422.4,517.63 421.55,515.2 420.51,512.33C418.35,506.36 415.94,498.63 415.18,495.26C414.58,492.62 413.84,487.44 414.03,487.25C414.1,487.18 415.81,487.83 417.83,488.7C422.5,490.69 426.53,491.86 432.61,492.95C437.92,493.91 448.43,495.26 450.6,495.26L451.98,495.26L453.13,500.12C453.76,502.8 455.1,508.21 456.12,512.14C457.14,516.08 457.88,519.3 457.76,519.3S455.17,518.75 452.26,518.07C446.38,516.7 440.46,515.97 437.78,516.29C432.39,516.92 428.43,518.06 425.37,519.84C423.29,521.05 419.83,524.9 417.98,528.06C417.1,529.55 416.38,530.97 416.38,531.21C416.38,532.36 415.52,531.72 412.68,528.47L412.69,528.47z" id="imagebot_79"/>
  <path fill="#1e212f" transform="translate(-50 0) matrix(1 0 0 1 -239 -90.7996)" clip-path="url(#imagebot_5)" d="M419.99,589.87L410.03,589.42L408.65,589.78L407.27,590.15L406.39,589.24C404.7,587.49 403.28,585.39 400.7,580.82C397.69,575.5 397.12,574.58 394.33,570.39C390.98,565.37 387.9,560.5 388.01,560.39C388.05,560.35 389.24,561.85 390.66,563.72C394.68,569.02 397.18,572 400.25,575.09C404.08,578.97 406.64,580.8 409.34,581.6C412.05,582.4 414.7,581.38 415.97,579.04C417.9,575.51 417.73,569.63 415.36,557.75C414.03,551.08 413.94,550.42 413.85,547.41C413.8,545.52 413.83,544.62 413.94,544.85C414.03,545.04 414.11,545.47 414.11,545.79C414.13,546.66 415.24,551.45 416.26,555.07C418.2,561.95 420.63,568.2 423.86,574.65C425.03,577 431.22,588.1 431.96,589.2C432.23,589.6 432.51,590.03 432.58,590.15C432.75,590.44 432.3,590.43 419.99,589.87z" id="imagebot_78"/>
  <path fill="#1e212f" transform="translate(-50 0) matrix(1 0 0 1 -239 -90.7996)" clip-path="url(#imagebot_5)" d="M473.63,607.98C472.8,604.51 472.44,602.05 472.41,599.73C472.38,597.77 472.43,597.33 472.88,595.84C474.02,592.01 475.47,588.66 478.11,583.74C478.99,582.09 479.72,580.66 479.73,580.56S479.86,581.13 479.98,582.05C480.45,585.39 481.38,587.34 482.98,588.31C483.78,588.8 484.01,588.85 485.28,588.85C488.34,588.84 491.79,586.91 498.19,581.59C503.57,577.12 507.15,573.09 512.81,565.17C513.16,564.68 516.06,560.35 519.27,555.54C524.36,547.89 528.27,542.36 529.82,540.6L530.29,540.07L530.17,540.86C529.96,542.31 528.89,546.4 528.16,548.57C526.89,552.36 525.38,555.54 523.46,558.45C522.91,559.28 517.3,566.55 510.98,574.59C498.29,590.75 498.37,590.62 497.5,594.25C497.25,595.27 496.93,597.02 496.77,598.14C496.47,600.37 496.28,601.45 495.87,603.41C495.6,604.67 495.58,604.7 495.12,604.6C494.81,604.53 491.26,605.39 484.57,607.16C479.03,608.62 474.41,609.85 474.3,609.89C474.18,609.93 473.92,609.2 473.63,607.98z" id="imagebot_77"/>
  <path fill="#824b4b" transform="translate(-50 0) matrix(1 0 0 1 -239 -90.7996)" clip-path="url(#imagebot_5)" d="M443.88,402.11C437.45,446.99 449.2,489.12 431.94,485.38C410.33,480.71 419.63,446.34 428.87,401.96C437.87,358.74 467.43,317.83 473.68,319.3C485.27,322.04 450.31,357.22 443.88,402.11z" id="imagebot_76"/>
  <path fill="#c4c4c4" transform="translate(-50 0) matrix(1 0 0 1 -239 -90.7996)" clip-path="url(#imagebot_5)" d="M552.93,430.07C543.93,411.45 538.78,394.02 540.52,388.12C541.32,385.46 543.09,385.12 546.76,386.93C548,387.54 549.71,388.57 550.56,389.2L552.09,390.36L551.83,391.27C551.46,392.59 551.48,408.19 551.86,412.44C552.46,419.24 553.22,424.37 554.54,430.53C555.03,432.78 555.38,434.66 555.32,434.72C555.27,434.77 554.19,432.68 552.93,430.07z" id="imagebot_75"/>
  <path fill="#f4cb95" transform="translate(-50 0) matrix(1 0 0 1 -239 -90.7996)" clip-path="url(#imagebot_5)" d="M655.15,362.34C654.33,361.01 650.7,353.96 648.8,350.01C645.75,343.64 643.26,337.02 641.37,330.26L640.74,328.01L641.61,326.76C642.08,326.07 642.68,325.24 642.93,324.92L643.39,324.33L644.09,326.8C645.82,332.89 648.26,338.99 650.77,343.51C653.94,349.2 656.8,352.96 661.74,357.95C664.82,361.06 665.32,361.66 664.87,361.76C664.58,361.82 662.77,362.04 660.85,362.26S656.94,362.71 656.43,362.78C655.66,362.9 655.45,362.83 655.15,362.34z" id="imagebot_74"/>
  <path fill="#c4c4c4" transform="translate(-50 0) matrix(1 0 0 1 -239 -90.7996)" clip-path="url(#imagebot_5)" d="M466.73,307.32C466.68,307.08 466.48,305.85 466.27,304.58C466.07,303.31 465.75,301.72 465.56,301.05C465.17,299.67 463.76,296.2 463.59,296.2C463.53,296.2 463.43,296.73 463.36,297.39C463.14,299.73 462.78,300.99 462.17,301.62C461.86,301.94 461.34,302.29 461.01,302.4C459.63,302.85 457.4,300.99 455.94,298.15C454.2,294.74 453.31,291.23 451.24,279.49C450.84,277.25 450.33,274.6 450.08,273.6C449.84,272.59 449.69,271.7 449.74,271.62C449.83,271.48 452.12,271.03 452.23,271.14C452.26,271.17 452.49,273.34 452.73,275.96S453.29,281.56 453.45,282.58C454.2,287.59 455.58,291.26 457.67,293.82C459.07,295.55 460.22,296.16 461.15,295.66C461.61,295.41 462.38,293.84 463.08,291.69C464.23,288.18 464.26,288.13 465.22,287.54C465.7,287.24 466.13,287 466.16,287C466.2,287 466.24,288.93 466.26,291.29C466.28,296.84 466.58,300.75 467.3,304.97L467.6,306.77L467.21,307.26L466.82,307.75L466.73,307.32z" id="imagebot_73"/>
  <path fill="#663b3b" transform="translate(-50 0) matrix(1 0 0 1 -239 -90.7996)" clip-path="url(#imagebot_5)" d="M471.87,322.91C469.92,321.36 468.55,318.54 467.81,314.56L467.56,313.22L468.07,312.53C468.36,312.15 468.65,311.77 468.73,311.7C468.81,311.62 469.13,312.29 469.44,313.2C470.32,315.7 471.68,318.48 471.97,318.37C472.42,318.2 473.36,316.39 475.84,310.92C478.68,304.66 482.2,297.47 483.18,295.93L483.85,294.88L484,295.49C484.08,295.83 484.21,299.48 484.3,303.62C484.44,310.92 484.6,313.25 485.08,315.3C485.24,316.03 485.25,316.37 485.11,316.56C484.96,316.77 484.84,316.24 484.6,314.3C484.24,311.31 483.67,308.93 482.92,307.28C482.46,306.27 482.31,306.09 481.94,306.09C481.32,306.09 480.74,306.9 479.99,308.84C475.76,319.63 475.08,321.13 473.72,322.54C473.26,323.02 472.79,323.42 472.69,323.42S472.22,323.19 471.87,322.91z" id="imagebot_72"/>
  <path fill="#c4c4c4" transform="translate(-50 0) matrix(1 0 0 1 -239 -90.7996)" clip-path="url(#imagebot_5)" d="M485.09,316.79C486.04,317.71 486.4,319.81 487.49,320.99C488.85,323.53 489.65,319.24 490.5,318.3C494.04,311.6 497.21,304.7 501.02,298.16C501.57,297.23 502.13,296.7 502.22,298.1C503.69,303.14 504.19,308.41 505.67,313.45C507.02,315.64 508.04,311.43 508.91,310.53C511.63,305.69 514.74,301.06 517.09,296.02C519.26,296.02 521.44,296.06 523.6,295.79C523.6,297.63 523.27,299.53 523.6,301.32C526.24,300.46 527.45,297.75 528.37,295.34C530.76,295.04 533.11,294.51 535.49,294.12C536.3,295.77 535.57,296.82 533.88,297.08C530.31,298.58 527.78,301.64 524.8,303.97C522.5,302.48 521.31,299.76 519.29,297.93C517.49,298.11 517.55,301.08 516.79,302.48C515.34,306.81 514.21,311.47 511.24,315.06C509.61,317.13 505.99,317.73 504.23,315.51C502.04,312.52 502.21,308.6 501.74,305.1C499.99,306.94 499,308.69 498.27,311C496.05,315.27 493.92,317.36 491.93,322.59C488.37,330.8 485.14,320.59 485.09,316.79z" id="imagebot_71"/>
  <path fill="#f4cb95" transform="translate(-50 0) matrix(1 0 0 1 -239 -90.7996)" clip-path="url(#imagebot_5)" d="M528.54,294.83C529.67,289.68 529.92,287.62 530.44,279.08C530.64,275.79 530.86,272.65 530.93,272.1L531.06,271.11L531.74,271.79C533.8,273.85 534.9,276.9 535.83,283.07C536.83,289.66 537.21,290.82 538.21,290.28C539.74,289.46 544,281.91 544.96,278.3C545.48,276.34 545.6,272.67 545.21,270.6C544.56,267.17 543.58,264.91 539.96,258.6C538.81,256.58 537.86,254.89 537.86,254.84C537.86,254.58 538.28,254.84 539.38,255.82C541.88,258.02 544.59,261.46 547.9,266.62C549.04,268.4 550.11,270.05 550.27,270.28L550.57,270.7L551.01,270.19C551.72,269.39 552.49,267.67 552.93,265.96C553.28,264.58 553.33,263.93 553.33,260.76C553.33,258.68 553.23,256.49 553.1,255.63C552.17,249.49 550.23,242.79 548.71,240.48C548.02,239.42 544.99,236.29 542.2,233.75C541.34,232.95 540.68,232.25 540.74,232.18C541,231.92 543.35,231.6 545.02,231.6C548.88,231.59 550.72,232.5 554.83,236.44C556.71,238.24 558.49,239.65 558.67,239.48C558.82,239.32 558.45,236.7 557.84,233.7C557.1,230.03 555.77,227.47 553.2,224.76C552.52,224.04 552.01,223.46 552.08,223.46C552.38,223.46 555.26,225.03 556.6,225.93C559.19,227.68 561.09,230 562.65,233.32C564.37,236.97 564.72,241.11 563.55,243.83C563.32,244.36 563.17,244.49 562.78,244.49C562.1,244.49 560.56,243.41 558.12,241.19C554.7,238.09 554.08,237.58 553.29,237.22C552.38,236.8 551.7,236.93 551.45,237.56C551.23,238.16 551.32,238.56 552.54,242.2C555.69,251.63 556.74,258.32 556.06,264.61C555.57,269.16 553.52,275.52 552.13,276.81C551.73,277.19 551.68,277.2 551.4,276.92C550.94,276.46 550.53,275.54 549.56,272.83C548.46,269.76 547.95,268.72 547.22,268.1C546.59,267.58 545.88,267.55 545.58,268.04C545.43,268.27 545.46,268.56 545.71,269.19C546.74,271.89 547.2,274.41 547.35,278.08C547.46,280.97 547.26,283.58 546.79,285.42C546.28,287.4 544.95,289.85 543.71,291.1C543.2,291.61 541.6,292.24 537.92,293.36C537.46,293.5 537.48,293.54 535.04,286.3C534.09,283.48 533.14,280.82 532.92,280.39C532.54,279.66 532.5,279.62 532.28,279.93C531.92,280.41 531.88,280.9 531.78,285.5C531.69,289.09 531.49,291.52 531.05,294.2C530.94,294.83 530.93,294.84 529.84,295.03C528.4,295.28 528.44,295.29 528.54,294.83z" id="imagebot_70"/>
  <path fill="#f4cb95" transform="translate(-50 0) matrix(1 0 0 1 -239 -90.7996)" clip-path="url(#imagebot_5)" d="M517.18,295.79C517.18,295.71 517.38,295.13 517.63,294.51C518.64,291.94 518.89,290.16 519.13,283.87C519.35,278.06 519.67,276.07 520.28,276.69C521.02,277.44 522.4,282.14 522.91,285.63C523.16,287.37 523.65,295.55 523.51,295.67C523.38,295.77 521.6,295.87 521.6,295.78C521.6,295.72 521.68,294.99 521.76,294.17C521.86,293.32 521.87,290.93 521.79,288.69C521.67,285.09 521.62,284.63 521.26,283.85C521.04,283.38 520.83,283.03 520.8,283.07C520.76,283.1 520.52,284.5 520.27,286.18C520.02,287.85 519.63,289.87 519.4,290.68C518.83,292.63 517.54,295.93 517.34,295.93C517.25,295.93 517.18,295.87 517.18,295.79z" id="imagebot_69"/>
  <path fill="none" stroke-width="1.5" stroke="#e97c44" transform="translate(-50 0) matrix(1 0 0 1 -239 -90.7996)" clip-path="url(#imagebot_5)" d="M460.68,230.73C459.86,232.11 455.22,235.36 456.08,237.09C457.48,239.88 465.26,234.73 464.92,234.97C460.27,238.3 452.49,255.52 469.52,244.87" id="imagebot_68"/>
  <g fill="none" stroke-width="1.5" stroke="#e66826" transform="translate(-50 0) matrix(1 0 0 1 -235.81 -90.0926)" clip-path="url(#imagebot_5)" id="imagebot_65">
   <path d="M471.64,266.27C463.23,273.84 470.18,280.88 479.06,274.22" id="imagebot_67"/>
   <path d="M481.19,270.86C472,282.16 479.23,294.83 490.74,277.58" id="imagebot_66"/>
  </g>
  <path fill="none" stroke-width="1.5" stroke="#e66826" transform="translate(-50 0) matrix(1 0 0 1 -239 -90.7996)" clip-path="url(#imagebot_5)" d="M511.24,257.78C510.79,260.15 511.99,269.34 516.72,266.97C519.84,265.41 516.62,254.98 517.43,256.72C518.79,259.66 521.17,265.5 523.26,261.32C526.5,254.83 524.03,250.84 523.44,244.34" id="imagebot_64"/>
  <path fill="#f9fef7" transform="translate(-50 0) matrix(1 0 0 1 -239 -90.7996)" clip-path="url(#imagebot_5)" d="M499.12,175.6C500.18,176.78 498.06,177.26 495.82,179.26S492.07,184.03 491.01,182.84S490.91,179.08 493.15,177.08S498.06,174.42 499.12,175.6z" opacity="0.15953" id="imagebot_63"/>
  <path fill="#f9fef7" transform="translate(-50 0) matrix(1 0 0 1 -239 -90.7996)" clip-path="url(#imagebot_5)" d="M531.63,191.57C532.8,192.64 530.74,193.33 528.71,195.54S525.46,200.66 524.29,199.59C523.12,198.52 523.81,195.86 525.84,193.64S530.46,190.5 531.63,191.57z" opacity="0.15953" id="imagebot_62"/>
  <path fill="#c4c4c4" transform="translate(-50 0) matrix(1 0 0 1 -239 -90.7996)" clip-path="url(#imagebot_5)" d="M397.48,346.04C407.7,341.74 410.58,340.25 419.52,333.9C411.12,336.95 410.18,337.98 401.25,337.82C400.93,339.26 401.73,340.74 401.23,341.52C399.87,343.63 398.6,344.59 397.48,346.04z" id="imagebot_61"/>
  <g transform="translate(-50 0) matrix(1 0 0 1 -239.74 -90.7996)" clip-path="url(#imagebot_5)" id="imagebot_56">
   <path d="M531.61,463.76C531.61,469.33 527.1,473.85 521.53,473.85C515.95,473.85 511.44,469.33 511.44,463.76S515.95,453.67 521.53,453.67C527.1,453.67 531.61,458.19 531.61,463.76z" fill="#090909" fill-opacity="0.22831" id="imagebot_60"/>
   <path d="M521.61,429.72C521.61,434.7 515.89,438.74 508.84,438.74S496.07,434.7 496.07,429.72S501.79,420.7 508.84,420.7S521.61,424.74 521.61,429.72z" transform="matrix(.87413 0 0 .87032 67.094 67.719)" fill="#090909" fill-opacity="0.22831" id="imagebot_59"/>
   <path fill="none" stroke-width="2" stroke="#232323" stroke-opacity="0.14155" d="M516.38,448.83C516.38,449.54 518.7,453.83 518.7,453.83" id="imagebot_58"/>
   <path fill="none" stroke-width="2" stroke="#090909" stroke-opacity="0.22745" d="M525.16,472.74L531.37,481.8L536.41,467.7" id="imagebot_57"/>
  </g>
  <g transform="translate(-50 0) matrix(1 0 0 1 -239.74 -91.5496)" clip-path="url(#imagebot_5)" id="imagebot_48">
   <g transform="translate(9.8995 1.4142)" stroke="#707ba7" id="imagebot_51">
    <path d="M524.28,460.97C524.28,466.54 519.77,471.06 514.2,471.06C508.62,471.06 504.11,466.54 504.11,460.97S508.62,450.88 514.2,450.88C519.77,450.88 524.28,455.4 524.28,460.97z" fill="#e5f9ff" stroke-width="2" id="imagebot_55"/>
    <path fill="#e5f9ff" stroke-width="2.293" stroke-linecap="round" transform="matrix(.87413 0 0 .87032 59.764 64.929)" d="M521.61,429.72C521.61,434.7 515.89,438.74 508.84,438.74S496.07,434.7 496.07,429.72S501.79,420.7 508.84,420.7S521.61,424.74 521.61,429.72z" stroke-linejoin="round" id="imagebot_54"/>
    <path fill="none" stroke-width="2" stroke-linecap="round" d="M508.93,446.42C508.93,447.13 511.25,451.42 511.25,451.42" stroke-linejoin="round" id="imagebot_53"/>
    <path fill="none" stroke-width="2" stroke-linecap="round" d="M517.71,470.33L523.92,479.39L528.96,465.29" stroke-linejoin="round" id="imagebot_52"/>
   </g>
   <path fill="#fff" d="M528.12,454.25C524.06,458.47 520.19,462.45 516.15,466.69C517.49,469.13 519.9,470.88 522.74,471.34C525.59,466.35 528.25,461.6 531.12,456.62C530.3,455.64 529.28,454.82 528.12,454.25z" id="imagebot_50"/>
   <path fill="#fff" d="M518.06,433.97C513.95,437.32 509.97,440.89 506.09,444.13C507.27,445.4 509.04,446.38 511.12,446.88C514.44,443.22 517.86,439.17 521.28,435.38C520.39,434.72 519.26,434.33 518.06,433.97z" id="imagebot_49"/>
  </g>
  <path fill="#f9fef7" transform="translate(-50 0) matrix(1 0 0 1 -239 -90.7996)" clip-path="url(#imagebot_5)" d="M380.78,193.83C380.78,194.68 379.11,197.1 377.16,197.1S373.75,195.46 373.75,194.6C373.75,193.75 376.53,195.58 378.22,194.96C380.05,194.28 380.78,192.98 380.78,193.83z" opacity="0.4" id="imagebot_47"/>
  <path transform="translate(-50 0) matrix(0.11693 -0.64721 -0.64528 -0.11947 395.3 585.555)" fill="#707ba7" clip-path="url(#imagebot_5)" d="M420.36,331.2C419.24,333.72 416.04,334.41 413.7,333.23C410.4,331.58 409.55,327.32 411.23,324.21C413.47,320.07 418.9,319.04 422.85,321.29C427.89,324.16 429.11,330.87 426.25,335.71C425.25,337.39 423.82,338.81 422.14,339.81" id="imagebot_46"/>
  <g transform="translate(-50 0) matrix(1 0 0 1 -247.74 -56.5496)" clip-path="url(#imagebot_5)" id="imagebot_43">
   <path transform="matrix(.11693 -.64721 -.64528 -.11947 635.92 676.1)" fill="#5f6b9a" d="M420.36,331.2C419.24,333.72 416.04,334.41 413.7,333.23C410.4,331.58 409.55,327.32 411.23,324.21C413.47,320.07 418.9,319.04 422.85,321.29C427.89,324.16 429.11,330.87 426.25,335.71C425.25,337.39 423.82,338.81 422.14,339.81" id="imagebot_45"/>
   <path transform="matrix(.11693 -.64721 -.64528 -.11947 634.29 676.35)" fill="#707ba7" d="M420.36,331.2C419.24,333.72 416.04,334.41 413.7,333.23C410.4,331.58 409.55,327.32 411.23,324.21C413.47,320.07 418.9,319.04 422.85,321.29C427.89,324.16 429.11,330.87 426.25,335.71C425.25,337.39 423.82,338.81 422.14,339.81" id="imagebot_44"/>
  </g>
  <g transform="translate(-50 0) matrix(1 0 0 1 -251.5 -21.0496)" clip-path="url(#imagebot_5)" id="imagebot_40">
   <path transform="matrix(.11693 -.64721 -.64528 -.11947 635.92 676.1)" fill="#5f6b9a" d="M420.36,331.2C419.24,333.72 416.04,334.41 413.7,333.23C410.4,331.58 409.55,327.32 411.23,324.21C413.47,320.07 418.9,319.04 422.85,321.29C427.89,324.16 429.11,330.87 426.25,335.71C425.25,337.39 423.82,338.81 422.14,339.81" id="imagebot_42"/>
   <path transform="matrix(.11693 -.64721 -.64528 -.11947 634.29 676.35)" fill="#707ba7" d="M420.36,331.2C419.24,333.72 416.04,334.41 413.7,333.23C410.4,331.58 409.55,327.32 411.23,324.21C413.47,320.07 418.9,319.04 422.85,321.29C427.89,324.16 429.11,330.87 426.25,335.71C425.25,337.39 423.82,338.81 422.14,339.81" id="imagebot_41"/>
  </g>
  <g transform="translate(-50 0) matrix(1 0 0 1 -248.5 16.2004)" clip-path="url(#imagebot_5)" id="imagebot_37">
   <path transform="matrix(.11693 -.64721 -.64528 -.11947 635.92 676.1)" fill="#5f6b9a" d="M420.36,331.2C419.24,333.72 416.04,334.41 413.7,333.23C410.4,331.58 409.55,327.32 411.23,324.21C413.47,320.07 418.9,319.04 422.85,321.29C427.89,324.16 429.11,330.87 426.25,335.71C425.25,337.39 423.82,338.81 422.14,339.81" id="imagebot_39"/>
   <path transform="matrix(.11693 -.64721 -.64528 -.11947 634.29 676.35)" fill="#707ba7" d="M420.36,331.2C419.24,333.72 416.04,334.41 413.7,333.23C410.4,331.58 409.55,327.32 411.23,324.21C413.47,320.07 418.9,319.04 422.85,321.29C427.89,324.16 429.11,330.87 426.25,335.71C425.25,337.39 423.82,338.81 422.14,339.81" id="imagebot_38"/>
  </g>
  <path fill="none" stroke-width="0.5" stroke-linecap="round" stroke="#f4cb95" transform="translate(-50 0) matrix(1 0 0 1 -239 -90.7996)" clip-path="url(#imagebot_5)" d="M375.6,164.04L378.79,175.81" id="imagebot_35"/>
  <path fill="none" stroke-width="0.5" stroke-linecap="round" stroke="#f4cb95" transform="translate(-50 0) matrix(1 0 0 1 -239 -90.7996)" clip-path="url(#imagebot_5)" d="M363.99,167.91L367.64,181.13" id="imagebot_34"/>
  <path fill="none" stroke-width="0.5" stroke-linecap="round" stroke="#f4cb95" transform="translate(-50 0) matrix(1 0 0 1 -239 -90.7996)" clip-path="url(#imagebot_5)" d="M388.85,166.24L391.31,176.31" id="imagebot_33"/>
  <path fill="#fff" transform="translate(-50 0) matrix(1 0 0 1 -239 -90.7996)" fill-opacity="0.19178" clip-path="url(#imagebot_5)" d="M356.13,177.13C355.49,174.52 354.94,171.7 355.73,169.07C356.18,167.42 357.82,166.6 359.38,166.28C360.72,165.94 362.09,165.88 363.46,165.82C364.7,164.25 365.97,162.57 367.77,161.62C370.29,160.85 373,161.56 375.42,162.41C375.94,162.8 376.38,162.31 376.84,162.08C378.57,161.13 380.57,159.94 382.59,160.72C384.85,161.44 386.79,162.93 388.42,164.62C389.57,163.71 390.9,162.73 392.43,162.81C393.33,163.1 394.64,163.94 394.98,164.6C392.72,164.66 390.84,166.04 389.29,167.56C388.9,168.17 388.29,168.03 387.68,167.9C385.66,167.41 383.55,167.73 381.68,168.6C380.27,169.25 378.77,171.21 377.61,172.22C376.25,171.62 375.36,171.19 373.52,171.2C371.75,171.2 369.75,172 368.24,172.94C367.44,173.44 366.15,174.09 365.24,175.74C363.37,174.72 362.02,174.72 360.43,175.01C358.37,175.52 357.79,176.49 356.36,178.02C356.28,177.72 356.21,177.43 356.13,177.13z" id="imagebot_32"/>
  <path fill="#f4cb95" transform="translate(-50 0) matrix(1 0 0 1 -239 -90.7996)" clip-path="url(#imagebot_5)" d="M382.33,212.01C376.95,225.83 386.25,230.06 385.06,229.48C384.07,228.99 374.18,225.25 379.31,210.89C384.24,197.1 391.84,196.49 392.94,197.07S387.64,198.36 382.33,212.01z" id="imagebot_31"/>
  <path fill="#f4cb95" transform="translate(-50 0) matrix(1 0 0 1 -239 -90.7996)" clip-path="url(#imagebot_5)" d="M401.42,222.83C403.2,219.27 404.28,216.26 404.6,213.95C404.73,213.02 404.8,210.88 404.73,209.7C404.57,206.94 403.98,204.59 402.37,200.36C400.98,196.66 400.6,195.2 400.53,193.15C400.45,191.18 400.75,189.65 401.6,187.63C402.53,185.44 403.86,183.43 406.42,180.34C406.99,179.66 408,178.38 408.68,177.51C409.36,176.63 410.15,175.62 410.44,175.27C410.95,174.64 410.97,174.63 411,174.88C411.04,175.33 409.98,177.93 408.06,182.1C406.01,186.53 405.4,188.54 405.22,191.49C405.12,193.06 405.4,194.73 406.11,196.87C406.29,197.4 406.94,199.07 407.57,200.58C408.88,203.75 409.25,204.77 409.51,205.98C409.99,208.18 409.77,211.09 408.94,213.7C408.77,214.21 408.55,214.99 408.45,215.43C408.09,216.9 407.44,218.34 406.67,219.33C405.89,220.34 404.17,221.93 402.71,222.99C402.26,223.32 402.1,223.48 402.2,223.5C402.54,223.56 402.31,223.8 401.47,224.22C400.98,224.46 400.57,224.66 400.55,224.66C400.52,224.66 400.92,223.84 401.42,222.83z" id="imagebot_30"/>
  <path fill="#fff" transform="translate(-50 0) matrix(1 0 0 1 -239 -90.7996)" fill-opacity="0.19178" clip-path="url(#imagebot_5)" d="M399.87,182.99C396.18,185.71 393.64,188.12 393.11,186.46C392.58,184.79 394.66,180.8 398.36,178.08S405.47,174.5 406,176.16C406.53,177.82 403.56,180.27 399.87,182.99z" id="imagebot_29"/>
  <path fill="url(#imagebot_28)" transform="translate(-50 0) matrix(1 0 0 1 -239 -90.7996)" clip-path="url(#imagebot_5)" d="M352.72,237.91C352.6,237.9 352.49,237.93 352.38,237.94C352.09,238.01 351.79,238.06 351.5,238.13L351.47,238.16C351.04,238.38 350.7,238.7 350.44,239.13C351.07,241.04 362.85,276.22 371.66,293.1C377.06,303.44 387.75,319 395.16,329.38C397.13,330.42 398.89,330.6 400.38,329.88C406.81,326.74 389.66,313.7 377.19,288.1C365.5,264.1 358.81,238.44 352.72,237.91z" opacity="0.3035" id="imagebot_27"/>
  <path fill="#e66826" clip-path="url(#imagebot_16009)" d="M 280.2303814697266 202.93037829875948 C 279.5803814697266 202.65037829875945 278.15038146972654 201.61037829875949 277.0503814697265 200.63037829875947 C 275.9403814697266 199.64037829875946 273.63038146972656 197.87037829875948 271.91038146972653 196.68037829875948 C 268.3403814697266 194.24037829875948 267.4603814697266 192.88037829875947 267.4403814697266 189.78037829875944 C 267.4303814697265 186.66037829875944 268.53038146972654 184.22037829875944 273.89038146972655 175.46037829875945 C 276.39038146972655 171.37037829875948 277.3403814697266 169.08037829875946 279.12038146972657 162.81037829875947 C 279.75038146972656 160.57037829875946 280.88038146972656 156.60037829875947 281.62038146972657 153.97037829875947 C 283.37038146972657 147.80037829875945 285.3003814697265 138.70037829875946 286.0503814697265 133.11037829875946 C 286.87038146972657 126.99037829875945 286.8503814697266 116.90037829875945 286.02038146972654 111.37037829875945 C 284.87038146972657 103.64037829875946 281.8603814697266 95.22037829875947 278.3203814697266 89.75037829875947 C 275.90038146972654 86.01037829875946 269.88038146972656 80.08037829875946 265.6703814697265 77.28037829875947 C 261.8403814697266 74.73037829875946 254.55038146972652 71.10037829875947 250.11038146972658 69.54037829875946 C 246.1803814697265 68.16037829875947 238.87038146972657 65.72037829875947 235.9703814697266 64.82037829875946 C 230.48038146972658 63.12037829875945 223.12038146972657 62.93037829875945 217.58038146972655 64.33037829875946 C 211.64038146972655 65.84037829875945 205.50038146972656 70.19037829875947 196.37038146972657 79.35037829875947 C 190.15038146972654 85.60037829875947 186.31038146972656 90.39037829875946 180.70038146972655 98.90037829875945 C 178.56038146972656 102.16037829875947 176.75038146972656 104.76037829875946 176.67038146972658 104.69037829875947 C 176.60038146972659 104.61037829875946 176.7203814697266 103.46037829875945 176.95038146972655 102.13037829875947 C 177.2203814697266 100.54037829875946 177.64038146972655 99.39037829875946 178.1603814697266 98.81037829875947 C 180.82038146972656 95.86037829875946 181.37038146972657 93.75037829875947 180.29038146972658 90.69037829875947 C 179.24038146972657 87.70037829875946 175.50038146972656 82.30037829875945 169.79038146972658 75.51037829875946 C 168.58038146972655 74.08037829875946 167.75038146972656 72.96037829875945 167.94038146972656 73.04037829875946 S 170.21038146972654 74.17037829875946 172.57038146972656 75.38037829875947 C 180.1603814697266 79.29037829875946 185.48038146972658 80.62037829875945 189.19038146972656 79.54037829875946 C 191.77038146972654 78.79037829875946 193.29038146972658 77.29037829875946 194.04038146972658 74.78037829875947 C 195.37038146972657 70.30037829875945 194.4103814697266 66.53037829875947 190.84038146972654 62.22037829875947 C 187.53038146972654 58.21037829875945 187.26038146972655 57.45037829875946 188.71038146972654 56.100378298759466 C 190.31038146972656 54.59037829875945 190.59038146972654 54.810378298759474 193.69038146972656 60.09037829875945 C 195.75038146972656 63.580378298759456 197.35038146972659 65.12037829875945 199.4103814697266 65.59037829875945 C 201.09038146972654 65.96037829875945 203.80038146972657 65.43037829875945 205.00038146972656 64.48037829875946 C 206.26038146972655 63.49037829875945 207.73038146972658 60.14037829875946 207.95038146972655 57.75037829875947 C 208.12038146972657 55.850378298759466 208.02038146972654 55.48037829875946 206.50038146972656 52.42037829875946 C 205.60038146972659 50.62037829875945 204.82038146972656 48.66037829875947 204.77038146972654 48.080378298759456 C 204.69038146972656 47.17037829875946 204.81038146972656 47.00037829875947 205.62038146972657 46.91037829875947 C 206.90038146972654 46.76037829875946 208.50038146972656 48.23037829875946 211.64038146972655 52.44037829875947 C 214.9703814697266 56.91037829875947 215.94038146972656 57.800378298759455 217.43038146972657 57.800378298759455 C 220.01038146972655 57.800378298759455 221.89038146972655 55.00037829875947 224.5903814697266 47.20037829875946 C 226.16038146972653 42.65037829875945 226.78038146972654 41.18037829875945 227.13038146972656 41.18037829875945 C 227.4603814697266 41.18037829875945 231.52038146972654 46.39037829875946 233.8203814697266 49.75037829875947 C 237.0803814697266 54.51037829875946 240.49038146972657 56.92037829875946 244.54038146972653 57.34037829875945 C 248.69038146972662 57.76037829875946 250.91038146972653 56.34037829875945 254.94038146972662 50.70037829875946 C 257.6803814697265 46.86037829875946 260.02038146972654 44.20037829875946 260.01038146972655 44.92037829875946 C 260.01038146972655 45.100378298759466 259.6903814697266 46.28037829875947 259.3003814697265 47.550378298759455 C 258.3503814697266 50.64037829875946 258.03038146972654 54.49037829875945 258.5903814697266 56.18037829875945 C 258.8303814697266 56.91037829875947 259.4903814697266 58.040378298759464 260.0503814697265 58.68037829875945 C 262.64038146972655 61.62037829875945 264.9803814697266 60.45037829875946 275.2903814697265 51.070378298759465 C 279.8003814697265 46.96037829875945 281.37038146972657 45.800378298759455 281.8203814697266 46.26037829875946 C 281.9603814697266 46.40037829875945 282.0703814697266 47.26037829875946 282.0703814697266 48.18037829875945 C 282.0603814697265 49.53037829875947 281.64038146972655 50.67037829875946 279.8303814697266 54.18037829875945 C 276.6103814697266 60.45037829875946 276.51038146972655 62.770378298759454 279.3303814697266 65.92037829875946 C 281.7303814697266 68.59037829875945 283.6803814697265 69.60037829875947 286.3203814697266 69.59037829875945 C 290.5603814697265 69.55037829875945 295.1003814697266 66.85037829875947 299.25038146972656 61.88037829875947 C 300.62038146972657 60.24037829875945 301.89038146972655 58.810378298759474 302.0803814697266 58.69037829875947 C 303.39038146972655 57.88037829875947 305.15038146972654 61.350378298759466 304.7903814697265 64.02037829875945 C 304.4403814697266 66.56037829875947 303.4903814697266 68.27037829875945 299.90038146972654 72.83037829875946 C 298.0503814697265 75.16037829875947 296.13038146972656 77.79037829875946 295.63038146972656 78.66037829875947 C 293.87038146972657 81.72037829875947 294.03038146972654 84.30037829875945 296.0903814697266 86.28037829875947 C 296.9803814697266 87.13037829875947 297.51038146972655 87.31037829875947 299.38038146972656 87.43037829875945 C 301.88038146972656 87.59037829875945 303.6703814697265 87.14037829875946 311.1003814697266 84.52037829875945 C 316.0503814697265 82.77037829875945 318.0703814697266 82.55037829875945 318.2903814697265 83.75037829875947 C 318.38038146972656 84.21037829875945 317.3303814697266 85.52037829875945 314.90038146972654 87.99037829875945 C 310.7903814697265 92.17037829875946 309.3203814697266 94.16037829875947 308.6103814697266 96.51037829875946 C 307.9603814697266 98.68037829875945 307.9603814697266 100.17037829875946 308.6103814697266 101.73037829875946 C 309.4703814697266 103.78037829875947 309.77038146972654 102.96037829875945 313.5703814697266 101.39037829875946 C 315.7903814697265 100.47037829875947 320.52038146972654 100.58037829875946 321.62038146972657 100.58037829875946 C 322.4903814697266 100.58037829875946 321.15038146972654 101.35037829875947 314.8403814697266 104.48037829875946 L 311.0803814697266 107.58037829875946 L 312.1103814697266 108.44037829875947 C 312.6803814697265 108.92037829875946 313.26038146972655 110.85037829875947 316.76038146972655 112.58037829875946 C 322.2303814697266 115.30037829875945 325.4203814697265 117.38037829875947 325.4203814697265 118.21037829875945 C 325.4203814697265 118.34037829875945 323.87038146972657 119.22037829875947 321.9803814697266 120.18037829875945 C 313.66038146972653 124.42037829875946 309.87038146972657 128.05037829875945 310.3203814697266 131.39037829875946 C 310.7103814697266 134.30037829875945 313.4903814697266 136.30037829875945 318.4303814697265 137.23037829875946 C 322.5803814697266 138.01037829875946 328.6003814697266 141.20037829875946 328.6003814697266 142.60037829875947 C 328.6003814697266 143.25037829875947 326.9403814697266 144.96037829875945 325.4203814697265 145.90037829875945 C 323.7903814697265 146.89037829875946 321.0403814697265 147.59037829875945 316.40038146972654 148.17037829875946 C 313.88038146972656 148.49037829875945 311.4503814697266 148.89037829875946 311.00038146972656 149.06037829875947 C 309.87038146972657 149.48037829875946 309.6803814697265 150.29037829875946 310.4403814697266 151.34037829875945 C 310.8103814697265 151.83037829875946 311.7403814697266 153.46037829875945 312.52038146972654 154.96037829875945 C 313.89038146972655 157.60037829875947 314.00038146972656 157.72037829875947 316.40038146972654 158.86037829875946 L 318.88038146972656 160.04037829875946 L 318.00038146972656 160.76037829875946 C 317.1903814697266 161.42037829875946 316.7903814697265 161.46037829875945 313.5603814697265 161.27037829875945 C 309.4603814697266 161.02037829875945 308.0703814697266 161.32037829875946 306.26038146972655 162.81037829875947 C 304.40038146972654 164.34037829875945 302.6103814697266 168.11037829875949 302.64038146972655 170.40037829875945 C 302.66038146972653 172.38037829875947 304.2003814697266 177.25037829875947 306.5603814697265 182.90037829875945 C 307.41038146972653 184.91037829875944 308.1003814697266 186.86037829875949 308.1003814697266 187.22037829875944 C 308.1003814697266 188.07037829875946 306.78038146972654 188.97037829875944 305.53038146972654 188.97037829875944 C 304.9803814697266 188.97037829875944 303.7903814697265 188.59037829875945 302.87038146972657 188.13037829875947 C 300.6903814697266 187.02037829875945 296.66038146972653 185.79037829875944 295.02038146972654 185.73037829875943 C 294.1803814697265 185.70037829875946 293.0603814697265 186.04037829875944 291.8403814697266 186.70037829875946 C 288.7203814697266 188.40037829875945 286.87038146972657 190.34037829875945 285.02038146972654 193.83037829875946 C 283.28038146972654 197.13037829875947 282.9803814697266 198.73037829875943 283.75038146972656 200.43037829875948 C 284.0603814697265 201.10037829875944 284.0503814697265 201.57037829875946 283.7103814697266 202.39037829875946 C 283.2003814697266 203.62037829875948 282.1903814697266 203.78037829875944 280.2303814697266 202.93037829875948 z" id="imagebot_26"/>
  <path fill="#f4cb95" transform="translate(-50 0) matrix(1 0 0 1 -239 -90.7996)" clip-path="url(#imagebot_5)" d="M561.01,268.35C566.14,248.05 572.66,227.45 570.98,206.24C570.54,196.15 565.91,186.62 558.71,179.61C554.19,174.99 549.72,171.39 546.05,166.9C544.72,165.28 540.21,159.76 547.2,164.07C552.36,166.58 557.19,169.69 561.34,173.85C571.35,183.23 575.26,197.47 575.39,210.83C575.99,227.81 570.72,244.17 565.83,260.19C564.68,262.76 562.3,267.48 561.01,268.35z" id="imagebot_25"/>
  <path fill="#fbe4be" transform="translate(-50 0) matrix(1 0 0 1 -239 -90.7996)" clip-path="url(#imagebot_5)" d="M465.8,196.23C467.76,192.32 474.41,182.7 478.86,177.34C484.5,170.54 493.51,162.14 498.69,158.82C500.08,157.93 503.05,156.34 503.32,156.34C503.37,156.34 501.05,158.72 498.17,161.63C492.53,167.3 489.47,170.56 485.68,174.91C479.21,182.34 474.21,189.06 470.27,195.59L469.04,197.65L467.8,197.68C467.11,197.69 466.2,197.74 465.77,197.78L464.99,197.85L465.8,196.23z" id="imagebot_24"/>
  <path fill="#fbe4be" transform="translate(-50 0) matrix(1 0 0 1 -239 -90.7996)" clip-path="url(#imagebot_5)" d="M505.47,197.11C506.7,198.31 503.39,196.59 499.3,201.14S494.64,206.66 492.9,208.59C491.75,209.87 492.48,203.23 496.58,198.68S504.24,195.91 505.47,197.11z" id="imagebot_23"/>
  <path fill="#f4cb95" transform="translate(-50 0) matrix(1 0 0 1 -239 -90.7996)" clip-path="url(#imagebot_5)" d="M688.71,329.54C686.45,332.69 688,330.46 674.98,334.84C670.07,336.49 665.5,339.09 663.93,343.91C662.01,349.83 664.48,359.23 663.23,357.64C661.74,355.74 659.67,349.77 661.31,344.44C662.92,339.23 668.16,334.66 674.9,333.14C687.51,330.29 682.92,331.75 688.71,329.54z" id="imagebot_22"/>
  <path fill="#f4cb95" transform="translate(-50 0) matrix(1 0 0 1 -239 -90.7996)" clip-path="url(#imagebot_5)" d="M668.15,324.47C668.97,325.09 661.19,326.85 657.94,331.21C652.28,338.8 655.75,342.6 654.94,341.98C654.12,341.36 650.78,337.75 656.84,330.47C659.73,326.99 667.33,323.85 668.15,324.47z" id="imagebot_21"/>
  <path fill="#f4cb95" transform="translate(-50 0) matrix(1 0 0 1 -239 -90.7996)" clip-path="url(#imagebot_5)" d="M675.99,289.51C677.58,304.6 665.52,296.44 663.35,294.55C661.52,292.96 671.52,300.29 673.7,293.37C676.49,284.49 665.59,281.16 668.09,281.23C671.72,281.33 675.28,282.76 675.99,289.51z" id="imagebot_20"/>
  <path fill="#f4cb95" transform="translate(-50 0) matrix(1 0 0 1 -239 -90.7996)" clip-path="url(#imagebot_5)" d="M680.18,296.19C685.92,301.5 693.18,290.32 692.13,293.1C687.53,305.26 676.8,300.9 677.5,292.97C678.13,285.96 681.91,284.47 682.25,284.35C682.25,284.35 676.12,292.44 680.18,296.19z" id="imagebot_19"/>
  <path fill="#f4cb95" transform="translate(-50 0) matrix(1 0 0 1 -239 -90.7996)" clip-path="url(#imagebot_5)" d="M706.11,300.45C705.11,302.54 698.24,307.9 694.5,303.55C690.52,298.93 695.95,293.65 698.49,292.29C700.53,291.2 691.96,297.47 696.23,301.82S706.97,298.65 706.11,300.45z" id="imagebot_18"/>
  <path fill="#f4cb95" transform="translate(-50 0) matrix(1 0 0 1 -239 -90.7996)" clip-path="url(#imagebot_5)" d="M700.48,313.55C702.97,319.86 711.62,313.81 712.94,314.08C716.17,314.74 701.16,322.21 698,316.2C694.03,308.62 706.57,303.47 708.08,303.47S698.36,308.18 700.48,313.55z" id="imagebot_17"/>
  <path fill="#f3d2a1" transform="translate(-50 0) matrix(1 0 0 1 -239 -90.7996)" clip-path="url(#imagebot_5)" d="M655.13,310.84C659,311.2 661.84,311.97 668.59,310.08C668.59,310.08 670.17,311.59 672.26,311.84C675.61,312.24 677.19,308.52 677.19,308.52C679.6,310.52 681.92,312.42 686.99,312.31C687.35,315.39 689.94,315.93 693.63,316.34C694.6,319.28 694.98,322.63 699.13,323.34C698.72,330.18 701.83,331.4 705.88,333.72L701.91,337.67C700.5,335.46 697.42,334.75 695.98,332.56C695.31,331.55 695.05,328.42 693.9,327.69C692.98,327.09 690.69,326.48 690.05,322.38C685.29,321.51 685.07,321.01 683.3,318.26C679.75,318.62 676.4,313.93 672.69,313.28C669,312.63 665.24,314.74 662.13,314.68C658.15,314.6 654.38,312.72 654.13,312.84C653.63,313.09 655.13,310.84 655.13,310.84z" id="imagebot_16"/>
  <path fill="#f4cb95" transform="translate(-50 0) matrix(1 0 0 1 -239 -90.7996)" clip-path="url(#imagebot_5)" d="M709.88,328.84C711.61,333.1 707.38,335.15 705.48,337.67C701.95,342.33 698.05,343.55 697.63,343.03C697.46,342.81 700.39,341.53 702.9,338.93C704.42,337.35 707,331.84 707,331.84C701.95,333.77 695.04,329.47 696.84,324.94C698.98,319.59 707.41,318.72 709.44,318.72C710.94,318.72 695.7,320.92 700.12,327.84C702.83,332.09 709.71,328.42 709.88,328.84z" id="imagebot_15"/>
  <path fill="#482c13" transform="translate(-50 0) matrix(1 0 0 1 -239 -90.7996)" clip-path="url(#imagebot_5)" d="M409.55,589.61C408,590.39 406.03,596.72 396.5,596.72S381.88,604.32 381.88,598.6C381.88,596.86 388.47,595.6 397.88,593.1C407.08,590.65 409.8,589.49 409.55,589.61z" id="imagebot_14"/>
  <path fill="#482c13" transform="translate(-50 0) matrix(1 0 0 1 -239 -90.7996)" clip-path="url(#imagebot_5)" d="M494.76,604.37C491.62,604.8 493.69,613.07 503.21,613.07S520.93,619.35 520.93,613.62C520.93,612.95 514.14,611.43 505.02,608.03C496.08,604.7 495.03,604.33 494.76,604.37z" id="imagebot_13"/>
  <path fill="#482c13" transform="translate(-50 0) matrix(1 0 0 1 -239 -90.7996)" clip-path="url(#imagebot_5)" d="M428.77,606.21C428.77,607.44 425.81,607.46 421.44,606.7C418.68,606.23 415.86,604.88 410.52,605.5C396.19,607.18 393.24,611.3 392.62,608.77C392.14,606.83 396.1,605.41 409.99,605.41S428.77,604.21 428.77,606.21z" id="imagebot_12"/>
  <path fill="#482c13" transform="translate(-50 0) matrix(1 0 0 1 -239 -90.7996)" clip-path="url(#imagebot_5)" d="M505.69,626.58C504.64,628.01 495.22,622.46 491.54,621.14C488.04,621.24 474.81,623.45 476.18,620.11C476.68,618.9 480.5,619.17 491.39,620.86S506.47,625.51 505.69,626.58z" id="imagebot_11"/>
  <path fill="#ececec" transform="translate(-50 0) matrix(1 0 0 1 -239 -90.7996)" clip-path="url(#imagebot_5)" d="M497.73,234.19C493.79,233.89 488.28,232.22 483.71,229.93C481.28,228.72 479.73,227.75 476.89,225.66C475.74,224.82 475.73,224.81 475.73,224.27C475.73,223.18 475.34,219.69 474.86,216.52C474.59,214.73 474.38,213.25 474.4,213.23C474.42,213.2 474.71,213.6 475.04,214.1C478.91,219.93 483.63,224.6 487.69,226.62C490.2,227.87 491.86,228.12 496.81,228.03C501.45,227.94 505.58,227.51 512.79,226.37C516.36,225.8 522.94,224.6 523.76,224.36C523.88,224.33 523.2,225.25 522.24,226.4C521.28,227.56 519.97,229.15 519.33,229.93L518.17,231.36L517.23,231.65C515.77,232.11 512.84,232.81 510.98,233.14C506.54,233.92 500.51,234.4 497.73,234.19z" id="imagebot_10"/>
  <path fill="#4a0903" transform="translate(-50 0) matrix(1 0 0 1 -239 -90.7996)" clip-path="url(#imagebot_5)" d="M492.7,255.08C489.74,255.06 486.88,253.97 484.29,252.61C483.53,252.21 482.81,251.74 482.09,251.28C482.2,250.44 482.45,249.61 483.03,248.96C485.07,246.24 488.48,244.57 491.88,244.66C492.66,244.69 495.55,245.69 495.28,246.72C494.86,247.41 493.81,248.05 494.62,247.2C495.28,246.75 495.85,246.1 496.69,246.03C498.36,245.75 500.15,245.9 501.71,246.58C502.82,247.11 502.95,248.52 502.88,249.6C502.71,251.14 502.34,252.62 501.01,253.38C500.62,254.11 499.17,254.24 498.38,254.4C496.52,254.82 494.61,255.03 492.7,255.08z" id="imagebot_9"/>
  <path fill="#ececec" transform="translate(-50 0) matrix(1 0 0 1 -239 -90.7996)" clip-path="url(#imagebot_5)" d="M488.6,258.61C486.72,258.37 484.58,257.82 483.54,257.29C482.06,256.53 479.87,254.73 478.14,252.85C476.66,251.25 475.12,249.26 474.82,248.58C474.27,247.35 473.45,243.92 473.03,241.06C472.8,239.54 472.75,236.27 472.94,235.64C473.03,235.34 473.08,235.52 473.27,236.7C473.9,240.67 475.46,244.11 477.98,247.13C480.95,250.68 485.16,253.32 489.35,254.27C490.54,254.54 494.67,254.58 496.16,254.33C500.59,253.6 503.41,252.38 506.82,249.72C507.45,249.23 507.98,248.85 507.98,248.88C507.98,248.92 507.81,249.31 507.6,249.77C505.88,253.58 500.43,257.17 494.65,258.32C493.32,258.58 489.75,258.75 488.6,258.61z" id="imagebot_8"/>
  <path fill="#6f391d" transform="translate(-50 0) matrix(1 0 0 1 -239 -90.7996)" clip-path="url(#imagebot_5)" d="M508.9,243.74C507.53,240.8 506.3,238.83 503.27,237.48C501.25,236.53 500.01,235.45 500.19,238.93C500.86,243.75 493.49,243.54 493.3,239.61C494.8,236.73 497.43,237.2 495.51,235.87C493.18,235.2 491.01,235.63 488.61,235.8C483.85,236.53 481.34,239.04 477.86,242.2C476.89,243.34 475.48,244.8 475.07,242.42C473.97,240.2 473.56,237.74 473.03,235.35C473.36,232.45 475.47,230.06 475.63,227.1C475.96,226.5 475.19,223.88 476.32,225.28C482.39,230 489.7,233.23 497.34,234.18C501.78,234.47 506.23,233.87 510.62,233.22C513.13,232.79 515.6,232.14 518.06,231.47C514.95,235.64 511.62,239.73 509.52,244.54C509.34,245.35 509.08,243.91 508.9,243.74z" id="imagebot_7"/>
  <path fill-opacity="0.11765" transform="translate(-50 0) matrix(1 0 0 1 -239 -90.7996)" clip-path="url(#imagebot_5)" d="M496.87,234.06C492.84,233.53 488.05,232.02 483.86,229.94C481.56,228.81 479.8,227.72 477.34,225.92C475.75,224.77 475.82,224.86 475.75,223.88C475.67,222.8 475.44,220.49 475.38,220.1C475.33,219.83 475.42,219.91 476.1,220.8C477.95,223.23 479.85,225.3 481.39,226.59C484.24,228.96 488.56,230.59 493.64,231.19C496.52,231.53 501.09,231.58 505,231.33C509.38,231.04 512.77,230.3 518.65,228.36C520.04,227.9 521.18,227.54 521.19,227.55C521.2,227.57 520.61,228.31 519.87,229.21S518.44,230.95 518.34,231.08C518.12,231.35 516.98,231.73 514.64,232.3C511.55,233.05 509.2,233.44 505.22,233.85C503.43,234.04 502.41,234.09 500.23,234.11C498.72,234.13 497.21,234.1 496.87,234.06z" id="imagebot_6"/>
  <path fill-opacity="0.11765" transform="translate(-50 0) matrix(1 0 0 1 -239 -90.7996)" clip-path="url(#imagebot_5)" d="M488.92,258.58C487.21,258.44 484.7,257.8 483.53,257.21C482.26,256.57 480.68,255.31 478.93,253.56C477.76,252.38 475.9,250.24 475.8,249.95C475.78,249.89 476.2,250.26 476.73,250.78C480.04,253.98 483.53,255.56 488.66,256.2C492.48,256.67 493.92,256.7 496.13,256.34C498.18,256.01 500.81,255.23 503,254.3C503.57,254.06 504.07,253.86 504.12,253.86S503.86,254.12 503.45,254.42C500.85,256.34 497.25,257.86 494.26,258.32C492.79,258.55 490.11,258.68 488.92,258.58z" id="imagebot_4"/>
  <title/>

  <metadata xmlns:imagebot="http://www.imagebot.com/xmlns">image/svg+xmlOpenclipartTrophy2011-02-17T05:10:10motorsports clip art by NetAlloyhttps://openclipart.org/detail/120343/trophy-by-netalloynetalloyNo.1achievementawardcupgold cupmeritmotorsportsphotorealisticprizeracingsportstrophyvictorywinner</metadata>
 </g>
 <metadata>image/svg+xmlOpenclipart</metadata>
</svg>