<!--?xml version="1.0" encoding="UTF-8" standalone="no"?-->
<!-- Created with Inkscape (http://www.inkscape.org/) -->

<svg xmlns:dc="http://purl.org/dc/elements/1.1/" xmlns:cc="http://creativecommons.org/ns#" xmlns:rdf="http://www.w3.org/1999/02/22-rdf-syntax-ns#" xmlns:svg="http://www.w3.org/2000/svg" xmlns="http://www.w3.org/2000/svg" xmlns:xlink="http://www.w3.org/1999/xlink" xmlns:sodipodi="http://sodipodi.sourceforge.net/DTD/sodipodi-0.dtd" xmlns:inkscape="http://www.inkscape.org/namespaces/inkscape" version="1.1" width="399.7" height="382.2" id="svg3216" inkscape:version="0.48.5 r10040" sodipodi:docname="unimpressed-alien.svg" style="">
    <sodipodi:namedview pagecolor="#ffffff" bordercolor="#666666" borderopacity="1" objecttolerance="10" gridtolerance="10" guidetolerance="10" inkscape:pageopacity="0" inkscape:pageshadow="2" inkscape:window-width="1134" inkscape:window-height="1103" id="namedview3056" showgrid="false" inkscape:zoom="1.22" inkscape:cx="141.1" inkscape:cy="220.9" inkscape:current-layer="svg3216" fit-margin-top="0" fit-margin-left="0" fit-margin-right="0" fit-margin-bottom="0" inkscape:window-x="781" inkscape:window-y="32" inkscape:window-maximized="0"></sodipodi:namedview>
    <defs id="defs3218">
        <linearGradient id="linearGradient4195" inkscape:collect="always">
            <stop id="stop4197" offset="0" style="stop-color:#d9f3ab;stop-opacity:1"></stop>
            <stop id="stop4199" offset="1" style="stop-color:#d4ff8b;stop-opacity:1"></stop>
        </linearGradient>
        <linearGradient inkscape:collect="always" id="linearGradient3986">
            <stop style="stop-color:#ebffc7;stop-opacity:1" offset="0" id="stop3988"></stop>
            <stop style="stop-color:#d4ff8b;stop-opacity:1" offset="1" id="stop3990"></stop>
        </linearGradient>
        <animateTransform attributeName="transform" type="translate" repeatCount="indefinite" dur="8s" keyTimes="0;           0.1;         0.12;           .32;              .34;                1" values="0,0;        0,0;          -4,0;            -4,0;             0,0;              0,0" id="animateTransform10072"></animateTransform>
        <clipPath clipPathUnits="userSpaceOnUse" id="clipPath3922">
            <path id="path3924" d="M 658.8,65.8 C 658.8,118.3 615.1,160.8 561.3,160.8 507.5,160.8 463.8,118.3 463.8,65.8 463.8,13.3 507.5,-29.2 561.3,-29.2 615.1,-29.2 658.8,13.3 658.8,65.8 z" style="fill:#000000;fill-opacity:1;fill-rule:evenodd;stroke:#00f4ff;stroke-width:22;stroke-miterlimit:4;stroke-opacity:1" inkscape:connector-curvature="0" class="MFwyvoNf_0"></path>
        </clipPath>
        <clipPath clipPathUnits="userSpaceOnUse" id="clipPath3926">
            <path id="path3928" d="M 586.9,2.67 C 586.9,55.17 543.2,97.67 489.4,97.67 435.6,97.67 391.9,55.17 391.9,2.67 391.9,-49.83 435.6,-92.33 489.4,-92.33 543.2,-92.33 586.9,-49.83 586.9,2.67 z" style="fill:#000000;fill-opacity:1;fill-rule:evenodd;stroke:#00f4ff;stroke-width:22;stroke-miterlimit:4;stroke-opacity:1" inkscape:connector-curvature="0" class="MFwyvoNf_1"></path>
        </clipPath>
        <radialGradient inkscape:collect="always" xlink:href="#linearGradient3986" id="radialGradient3992" cx="188" cy="240.1" fx="188" fy="240.1" r="132.1" gradientTransform="matrix(0.7313,0,0,0.8426,50.55,38.98)" gradientUnits="userSpaceOnUse"></radialGradient>
        <radialGradient inkscape:collect="always" xlink:href="#linearGradient3986" id="radialGradient4096" gradientUnits="userSpaceOnUse" gradientTransform="matrix(0.7313,0,0,0.8426,50.55,38.98)" cx="188" cy="240.1" fx="188" fy="240.1" r="132.1"></radialGradient>
        <radialGradient inkscape:collect="always" xlink:href="#linearGradient3986" id="radialGradient4128" gradientUnits="userSpaceOnUse" gradientTransform="matrix(0.7313,0,0,0.8426,470.6,38.98)" cx="188" cy="240.1" fx="188" fy="240.1" r="132.1"></radialGradient>
        <radialGradient inkscape:collect="always" xlink:href="#linearGradient3986" id="radialGradient4265" gradientUnits="userSpaceOnUse" gradientTransform="matrix(0.7313,0,0,0.8426,470.6,38.98)" cx="188" cy="240.1" fx="188" fy="240.1" r="132.1"></radialGradient>
        <radialGradient inkscape:collect="always" xlink:href="#linearGradient3986" id="radialGradient4297" gradientUnits="userSpaceOnUse" gradientTransform="matrix(0.7313,0,0,0.8426,890.6,38.98)" cx="188" cy="240.1" fx="188" fy="240.1" r="132.1"></radialGradient>
        <radialGradient inkscape:collect="always" xlink:href="#linearGradient3986" id="radialGradient4303" gradientUnits="userSpaceOnUse" gradientTransform="matrix(0.7313,0,0,0.8426,470.6,38.98)" cx="188" cy="240.1" fx="188" fy="240.1" r="132.1"></radialGradient>
        <radialGradient inkscape:collect="always" xlink:href="#linearGradient3986" id="radialGradient4335" gradientUnits="userSpaceOnUse" gradientTransform="matrix(0.7313,0,0,0.8426,470.6,38.98)" cx="188" cy="240.1" fx="188" fy="240.1" r="132.1"></radialGradient>
        <radialGradient inkscape:collect="always" xlink:href="#linearGradient3986" id="radialGradient4488" gradientUnits="userSpaceOnUse" gradientTransform="matrix(0.7313,0,0,0.8426,470.6,38.98)" cx="188" cy="240.1" fx="188" fy="240.1" r="132.1"></radialGradient>
        <radialGradient inkscape:collect="always" xlink:href="#linearGradient3986" id="radialGradient4523" gradientUnits="userSpaceOnUse" gradientTransform="matrix(0.7313,0,0,0.8426,890.6,25.07)" cx="188" cy="240.1" fx="188" fy="240.1" r="132.1"></radialGradient>
        <radialGradient inkscape:collect="always" xlink:href="#linearGradient3986" id="radialGradient4527" gradientUnits="userSpaceOnUse" gradientTransform="matrix(0.7313,0,0,0.8426,50.55,38.98)" cx="188" cy="240.1" fx="188" fy="240.1" r="132.1"></radialGradient>
        <radialGradient inkscape:collect="always" xlink:href="#linearGradient3986" id="radialGradient4529" gradientUnits="userSpaceOnUse" gradientTransform="matrix(0.7313,0,0,0.8426,470.6,38.98)" cx="188" cy="240.1" fx="188" fy="240.1" r="132.1"></radialGradient>
        <radialGradient inkscape:collect="always" xlink:href="#linearGradient3986-1" id="radialGradient4529-2" gradientUnits="userSpaceOnUse" gradientTransform="matrix(0.7313,0,0,0.8426,470.6,38.98)" cx="188" cy="240.1" fx="188" fy="240.1" r="132.1"></radialGradient>
        <linearGradient inkscape:collect="always" id="linearGradient3986-1">
            <stop style="stop-color:#ebffc7;stop-opacity:1" offset="0" id="stop3988-1"></stop>
            <stop style="stop-color:#d4ff8b;stop-opacity:1" offset="1" id="stop3990-1"></stop>
        </linearGradient>
        <radialGradient inkscape:collect="always" xlink:href="#linearGradient3986-1" id="radialGradient4527-5" gradientUnits="userSpaceOnUse" gradientTransform="matrix(0.7313,0,0,0.8426,50.55,38.98)" cx="188" cy="240.1" fx="188" fy="240.1" r="132.1"></radialGradient>
        <radialGradient inkscape:collect="always" xlink:href="#linearGradient4195" id="radialGradient3423" gradientUnits="userSpaceOnUse" gradientTransform="matrix(0.7313,0,0,0.8426,50.61,25.07)" cx="188" cy="240.1" fx="188" fy="240.1" r="132.1"></radialGradient>
    </defs>
    <metadata id="metadata3221">
        <rdf:rdf>
            <cc:work rdf:about="">
                <dc:format>image/svg+xml</dc:format>
                <dc:type rdf:resource="http://purl.org/dc/dcmitype/StillImage"></dc:type>
                <dc:title></dc:title>
            </cc:work>
        </rdf:rdf>
    </metadata>
    <g id="g4067">
        <path sodipodi:nodetypes="cccc" inkscape:connector-curvature="0" style="fill: rgb(175, 214, 106); fill-opacity: 1; fill-rule: nonzero; stroke: rgb(0, 0, 0); stroke-width: 4.9986px; stroke-linecap: round; stroke-linejoin: round; stroke-miterlimit: 4; stroke-opacity: 1;" id="path4032" d="M 130.6,254.2 C 127.3,263.3 140.7,341.9 73.62,346.9 39.42,351.8 1.82,346.9 2.52,379.1 202.9,387.8 196.8,318.9 190.1,309.7" class="MFwyvoNf_2"></path>
        <path sodipodi:nodetypes="cccc" id="path4032-9" d="M 190.2,312.3 C 146.8,313.4 113.2,361.9 10.22,361.4 5.056,365.6 2.079,371.8 2.281,381.1 199.4,389.7 196.8,323.2 190.2,312.3 z" style="opacity:0.1;fill:#000000;fill-opacity:1;fill-rule:nonzero;stroke:none" inkscape:connector-curvature="0" class="MFwyvoNf_3"></path>
    </g>
    <g id="g4063">
        <path sodipodi:nodetypes="cccc" inkscape:connector-curvature="0" style="fill: rgb(175, 214, 106); fill-opacity: 1; fill-rule: nonzero; stroke: rgb(0, 0, 0); stroke-width: 4.9986px; stroke-linecap: round; stroke-linejoin: round; stroke-miterlimit: 4; stroke-opacity: 1;" id="path4034" d="M 269.1,254.2 C 272.5,263.3 259.1,341.9 326.1,346.9 360.4,351.8 398,346.9 397.2,379.1 196.9,387.8 203,318.9 209.3,309.7" class="MFwyvoNf_4"></path>
        <path inkscape:connector-curvature="0" style="opacity:0.1;fill:#000000;fill-opacity:1;fill-rule:nonzero;stroke:none" d="M 210.3,312.3 C 253.7,313.4 287.3,361.9 390.3,361.4 395.5,365.6 398.5,371.8 398.3,381.1 201.1,389.7 203.7,323.2 210.3,312.3 z" id="use4059" sodipodi:nodetypes="cccc" class="MFwyvoNf_5"></path>
    </g>
    <path d="M 323.1,255 C 323.1,322.2 265.4,378.2 193.5,378.2 121.7,378.2 63.92,322.2 63.92,255 63.92,185.7 121.7,130.6 193.5,130.6 265.4,130.6 323.1,185.7 323.1,255 z" id="path4036" style="fill: rgb(193, 240, 139); fill-opacity: 1; stroke: rgb(0, 0, 0); stroke-width: 4.9999px; stroke-linecap: round; stroke-linejoin: round; stroke-miterlimit: 4;" inkscape:connector-curvature="0" class="MFwyvoNf_6"></path>
    <g id="g3938" style="fill:#c1f08b;fill-opacity:1">
        <path sodipodi:nodetypes="cccc" inkscape:connector-curvature="0" style="fill: rgb(193, 240, 139); fill-opacity: 1; fill-rule: evenodd; stroke: rgb(0, 0, 0); stroke-width: 4.9998px; stroke-linecap: round; stroke-linejoin: round; stroke-miterlimit: 4;" id="path4038" d="M 115.3,161 C 121,139 108.7,91.32 108.7,91.32 L 133.9,84.3 C 133.9,84.3 141.9,120.6 156.6,138.9" class="MFwyvoNf_7"></path>
        <path sodipodi:nodetypes="cccc" inkscape:connector-curvature="0" style="fill: rgb(193, 240, 139); fill-opacity: 1; fill-rule: evenodd; stroke: rgb(0, 0, 0); stroke-width: 4.9998px; stroke-linecap: round; stroke-linejoin: round; stroke-miterlimit: 4;" id="path4040" d="M 273.5,160.6 C 266.9,138.6 277.9,90.58 277.9,90.58 L 253.3,84.3 C 253.3,84.3 245.1,122.7 231,141.4" class="MFwyvoNf_8"></path>
    </g>
    <path d="M 314.3,220.7 C 314.5,222.7 314.5,224.6 314.5,226.3 314.5,292.6 256.6,346.2 185.2,346.2 129.6,346.2 82.12,313.4 63.82,267.6 67.02,331 123.6,382.2 192.9,382.2 264.3,382.2 322.2,328.3 322.2,262 322.2,247.6 319.4,233.6 314.3,220.7 z" id="path4042" style="opacity:0.1;fill:#000000;fill-opacity:1" inkscape:connector-curvature="0" class="MFwyvoNf_9"></path>
    <g id="g3854">
        <path sodipodi:nodetypes="cccc" d="M 157.6,333.2 C 156.5,333.7 161.4,335 152.9,348.4 142.8,364.3 151.8,374.3 166.1,373.4 185.8,371.8 190.3,350.9 187.9,342.5" id="path4046" style="fill: rgb(193, 240, 139); fill-opacity: 1; fill-rule: nonzero; stroke: rgb(0, 0, 0); stroke-width: 5.0011px; stroke-linecap: round; stroke-linejoin: round; stroke-miterlimit: 4; stroke-opacity: 1;" inkscape:connector-curvature="0" class="MFwyvoNf_10"></path>
        <path sodipodi:nodetypes="cccc" d="M 94.7,312.6 C 96.1,314.7 94.1,320.5 88.45,330.4 79.18,346.1 87.29,356.2 101.6,355.3 121.4,353.6 125.1,338.9 121.1,333.1" id="path4048" style="fill: rgb(193, 240, 139); fill-opacity: 1; fill-rule: nonzero; stroke: rgb(0, 0, 0); stroke-width: 5.0011px; stroke-linecap: round; stroke-linejoin: round; stroke-miterlimit: 4; stroke-opacity: 1;" inkscape:connector-curvature="0" class="MFwyvoNf_11"></path>
        <path sodipodi:nodetypes="cccc" d="M 242.2,331.7 C 243.3,332.3 238.5,333.5 246.9,346.9 257.1,362.9 248,372.8 233.7,372 213.8,370.3 209.4,349.5 211.9,341.1" id="use4050" style="fill: rgb(193, 240, 139); fill-opacity: 1; fill-rule: nonzero; stroke: rgb(0, 0, 0); stroke-width: 5.0011px; stroke-linecap: round; stroke-linejoin: round; stroke-miterlimit: 4; stroke-opacity: 1;" inkscape:connector-curvature="0" class="MFwyvoNf_12"></path>
        <path sodipodi:nodetypes="cccc" d="M 299.2,309.2 C 297.9,311.3 297.9,317.2 303.6,327.1 312.9,342.8 304.8,352.8 290.4,352 270.6,350.3 266.9,333.4 270.9,327.7" id="use4052" style="fill: rgb(193, 240, 139); fill-opacity: 1; fill-rule: nonzero; stroke: rgb(0, 0, 0); stroke-width: 5.0011px; stroke-linecap: round; stroke-linejoin: round; stroke-miterlimit: 4; stroke-opacity: 1;" inkscape:connector-curvature="0" class="MFwyvoNf_13"></path>
    </g>
    <g transform="matrix(3.969,0,0,3.591,-960.2,-11.31)" id="g4054" style="opacity:0.4015;fill:#61323a;fill-opacity:1">
        <path d="M 269.8,71.43 A 4.307,6.802 13.76 0 1 261.5,69.38 4.307,6.802 13.76 1 1 269.8,71.43 z" id="path4056" style="fill:#61323a;fill-opacity:1" inkscape:connector-curvature="0" class="MFwyvoNf_14"></path>
        <path d="M 293.3,81.13 A 7.82,8.276 0 0 1 277.7,81.13 7.82,8.276 0 1 1 293.3,81.13 z" id="path4058" style="fill:#61323a;fill-opacity:1" inkscape:connector-curvature="0" class="MFwyvoNf_15"></path>
        <path d="M 318.1,66.82 A 4.794,2.739 71.58 0 1 312.9,68.54 4.794,2.739 71.58 1 1 318.1,66.82 z" id="path4060" style="fill:#61323a;fill-opacity:1" inkscape:connector-curvature="0" class="MFwyvoNf_16"></path>
        <path d="M 306.5,83.71 A 3.853,4.762 0 0 1 298.8,83.71 3.853,4.762 0 1 1 306.5,83.71 z" id="path4062" style="fill:#61323a;fill-opacity:1" inkscape:connector-curvature="0" class="MFwyvoNf_17"></path>
        <path d="M 305.3,64.28 A 6.12,6.802 0 0 1 293.1,64.28 6.12,6.802 0 1 1 305.3,64.28 z" id="path4064" style="fill:#61323a;fill-opacity:1" inkscape:connector-curvature="0" class="MFwyvoNf_18"></path>
        <path d="M 273.1,78.93 A 4.38,2.546 60.07 0 1 268.7,81.47 4.38,2.546 60.07 1 1 273.1,78.93 z" id="path4066" style="fill:#61323a;fill-opacity:1" inkscape:connector-curvature="0" class="MFwyvoNf_19"></path>
    </g>
    <path d="M 211.1,57.99 C 211.1,88.89 236.1,113.8 267,113.8 297.9,113.8 322.5,88.89 322.5,57.99 322.5,27.39 297.9,2.49 267,2.49 236.1,2.49 211.1,27.39 211.1,57.99 z" id="path4072" style="fill: rgb(193, 240, 139); fill-opacity: 1; stroke: rgb(0, 0, 0); stroke-width: 4.9998px; stroke-linecap: round; stroke-linejoin: round; stroke-miterlimit: 4;" inkscape:connector-curvature="0" class="MFwyvoNf_20"></path>
    <g transform="matrix(1.101,0,0,1.101,-29.28,-722.4)" id="g4082">
        <path d="M 294,701.1 C 294,718.7 279.7,733.1 262.1,733.1 244.5,733.1 230.2,718.7 230.2,701.1 230.2,683.5 244.5,669.1 262.1,669.1 279.7,669.1 294,683.5 294,701.1 z" id="path4084" style="fill: rgb(255, 255, 255); stroke: rgb(0, 0, 0); stroke-width: 4.5395px; stroke-linecap: round; stroke-linejoin: round; stroke-miterlimit: 4;" inkscape:connector-curvature="0" class="MFwyvoNf_21"></path>
        <path d="M 250.3,703 C 250.3,708.1 254.4,712.1 259.4,712.1 264.4,712.1 268.5,708.1 268.5,703 268.5,698 264.4,693.9 259.4,693.9 254.4,693.9 250.3,698 250.3,703 z" id="path4086" style="fill:#000000;stroke:none" inkscape:connector-curvature="0" class="MFwyvoNf_22"></path>
    </g>
    <g id="g3975" style="fill:#c1f08b;fill-opacity:1">
        <g style="fill:#c1f08b;fill-opacity:1" transform="matrix(1.039,0,0,1.039,-445.2,-3.525)" id="g4201">
            <g style="fill:#c1f08b;fill-opacity:1" id="g4373" transform="translate(-140,-13.91)">
                <path inkscape:connector-curvature="0" id="path4088-6" d="M 821,80.69 C 813.7,80.7 806.2,80.66 799.1,82.73 794.5,83.8 790,85.04 785.7,86.81 796,101.5 817.4,108 833.7,99.67 840.3,96.3 846.1,91.14 849.7,84.62 846.6,83.74 843.1,82.71 839.7,82.14 833.6,80.65 827.3,80.64 821,80.69 z" style="fill:#c1f08b;fill-opacity:1;stroke:none" class="MFwyvoNf_23"></path>
                <path inkscape:connector-curvature="0" style="fill: rgb(193, 240, 139); fill-opacity: 1; stroke: rgb(0, 0, 0); stroke-width: 4.8121px; stroke-linecap: round; stroke-linejoin: round; stroke-miterlimit: 4; stroke-opacity: 1;" id="path4090" d="M 788.8,88.19 C 797.3,84.83 807.1,82.9 817.5,82.53 828.9,82.08 839.7,83.72 849,86.85" class="MFwyvoNf_24"></path>
            </g>
            <g style="fill:#c1f08b;fill-opacity:1" id="g4369" transform="translate(-140,-13.91)">
                <path inkscape:connector-curvature="0" id="path4363" d="M 817.4,27.25 C 805.8,26.74 794.6,32.62 787.6,41.76 783.6,46.86 780.8,52.91 779.6,59.28 782.2,59.76 785.4,61.12 788.2,62.07 805.8,67.73 824.9,68.88 843.1,65.05 846.8,63.74 852.7,63.79 854.7,60.71 854,51.56 849.5,42.93 842.5,37.06 835.6,30.95 826.6,27.23 817.4,27.25 z" style="fill:#c1f08b;fill-opacity:1;stroke:none" class="MFwyvoNf_25"></path>
                <path d="M 782.6,58.46 C 792.9,63 804.7,65.6 817.1,66.1 830.8,66.7 843.8,64.5 855,60.27" id="path4092" style="fill: rgb(193, 240, 139); fill-opacity: 1; stroke: rgb(0, 0, 0); stroke-width: 4.812px; stroke-linecap: round; stroke-linejoin: round; stroke-miterlimit: 4; stroke-opacity: 1;" inkscape:connector-curvature="0" class="MFwyvoNf_26"></path>
            </g>
        </g>
    </g>
    <path d="M 317,37.39 C 317.1,38.29 317.1,39.19 317.1,39.99 317.1,70.79 292.1,95.79 261.3,95.79 237.3,95.79 216.8,80.49 208.9,59.19 210.3,88.69 234.7,112.3 264.6,112.3 295.4,112.3 320.4,87.39 320.4,56.59 320.4,49.89 319.2,43.39 317,37.39 z" id="path4094" style="opacity:0.1;fill:#000000;fill-opacity:1" inkscape:connector-curvature="0" class="MFwyvoNf_27"></path>
    <path d="M 177.6,57.99 C 177.6,88.89 152.6,113.8 121.7,113.8 91.22,113.8 66.22,88.89 66.22,57.99 66.22,27.39 91.22,2.49 121.7,2.49 152.6,2.49 177.6,27.39 177.6,57.99 z" id="path4068" style="fill: rgb(193, 240, 139); fill-opacity: 1; stroke: rgb(0, 0, 0); stroke-width: 4.9998px; stroke-linecap: round; stroke-linejoin: round; stroke-miterlimit: 4;" inkscape:connector-curvature="0" class="MFwyvoNf_28"></path>
    <path d="M 174.3,37.39 C 174.4,38.29 174.4,39.19 174.4,39.99 174.4,70.79 149.4,95.79 118.6,95.79 94.62,95.79 74.12,80.49 66.22,59.19 67.62,88.69 92.02,112.3 121.9,112.3 152.7,112.3 177.7,87.39 177.7,56.59 177.7,49.89 176.5,43.39 174.3,37.39 z" id="path4070" style="opacity:0.1;fill:#000000;fill-opacity:1" inkscape:connector-curvature="0" class="MFwyvoNf_29"></path>
    <path d="M 165.8,50.3 C 165.8,70.65 149.3,87.31 128.9,87.31 108.6,87.31 92.04,70.65 92.04,50.3 92.04,29.95 108.6,13.29 128.9,13.29 149.3,13.29 165.8,29.95 165.8,50.3 z" id="path4074" style="fill: rgb(255, 255, 255); stroke: rgb(0, 0, 0); stroke-width: 5.0006px; stroke-linecap: round; stroke-linejoin: round; stroke-miterlimit: 4;" inkscape:connector-curvature="0" class="MFwyvoNf_30"></path>
    <g transform="translate(-11.18,-648.8)" id="g4076">
        <animateTransform id="animateTransform4078" values="0,0;        0,0;          -6,0;            -6,0;             0,0;              0,0" keyTimes="0;           0.1;         0.12;           .32;              .34;                1" dur="8s" repeatCount="indefinite" type="translate" attributeName="transform"></animateTransform>
        <path d="M 157.1,703 C 157.1,708.1 153,712.1 148,712.1 142.9,712.1 138.8,708.1 138.8,703 138.8,698 142.9,693.9 148,693.9 153,693.9 157.1,698 157.1,703 z" id="path4080" style="fill:#000000;stroke:none" inkscape:connector-curvature="0" class="MFwyvoNf_31"></path>
    </g>
    <g transform="matrix(1.061,0,0,1.061,-737.5,-18.76)" id="g4213" style="fill:#c1f08b;fill-opacity:1">
        <path style="fill:#c1f08b;fill-opacity:1;stroke:none" d="M 821,80.69 C 813.7,80.7 806.2,80.66 799.1,82.73 794.5,83.8 790,85.04 785.7,86.81 796,101.5 817.4,108 833.7,99.67 840.3,96.3 846.1,91.14 849.7,84.62 846.6,83.74 843.1,82.71 839.7,82.14 833.6,80.65 827.3,80.64 821,80.69 z" id="path4215" inkscape:connector-curvature="0" class="MFwyvoNf_32"></path>
        <path d="M 788.8,88.19 C 797.3,84.83 807.1,82.9 817.5,82.53 828.9,82.08 839.7,83.72 849,86.85" id="path4217" style="fill: rgb(193, 240, 139); fill-opacity: 1; stroke: rgb(0, 0, 0); stroke-width: 4.7127px; stroke-linecap: round; stroke-linejoin: round; stroke-miterlimit: 4; stroke-opacity: 1;" inkscape:connector-curvature="0" class="MFwyvoNf_33"></path>
    </g>
    <g transform="matrix(1.087,0,0,1.087,-759.4,-19.87)" id="g4219" style="fill:#c1f08b;fill-opacity:1">
        <path style="fill:#c1f08b;fill-opacity:1;stroke:none" d="M 817.4,27.25 C 805.8,26.74 794.6,32.62 787.6,41.76 783.6,46.86 780.8,52.91 779.6,59.28 782.2,59.76 785.4,61.12 788.2,62.07 805.8,67.73 824.9,68.88 843.1,65.05 846.8,63.74 852.7,63.79 854.7,60.71 854,51.56 849.5,42.93 842.5,37.06 835.6,30.95 826.6,27.23 817.4,27.25 z" id="path4221" inkscape:connector-curvature="0" class="MFwyvoNf_34"></path>
        <path inkscape:connector-curvature="0" style="fill: rgb(193, 240, 139); fill-opacity: 1; stroke: rgb(0, 0, 0); stroke-width: 4.6021px; stroke-linecap: round; stroke-linejoin: round; stroke-miterlimit: 4; stroke-opacity: 1;" id="path4223" d="M 782.6,58.46 C 792.9,63 804.7,65.6 817.1,66.1 830.8,66.7 843.8,64.5 855,60.27" class="MFwyvoNf_35"></path>
    </g>
<style data-made-with="vivus-instant">.MFwyvoNf_0{stroke-dasharray:605 607;stroke-dashoffset:606;animation:MFwyvoNf_draw 2500ms linear 0ms forwards;}.MFwyvoNf_1{stroke-dasharray:605 607;stroke-dashoffset:606;animation:MFwyvoNf_draw 2500ms linear 0ms forwards;}.MFwyvoNf_2{stroke-dasharray:435 437;stroke-dashoffset:436;animation:MFwyvoNf_draw 2500ms linear 0ms forwards;}.MFwyvoNf_3{stroke-dasharray:435 437;stroke-dashoffset:436;animation:MFwyvoNf_draw 2500ms linear 0ms forwards;}.MFwyvoNf_4{stroke-dasharray:435 437;stroke-dashoffset:436;animation:MFwyvoNf_draw 2500ms linear 0ms forwards;}.MFwyvoNf_5{stroke-dasharray:435 437;stroke-dashoffset:436;animation:MFwyvoNf_draw 2500ms linear 0ms forwards;}.MFwyvoNf_6{stroke-dasharray:797 799;stroke-dashoffset:798;animation:MFwyvoNf_draw 2500ms linear 0ms forwards;}.MFwyvoNf_7{stroke-dasharray:157 159;stroke-dashoffset:158;animation:MFwyvoNf_draw 2500ms linear 0ms forwards;}.MFwyvoNf_8{stroke-dasharray:158 160;stroke-dashoffset:159;animation:MFwyvoNf_draw 2500ms linear 0ms forwards;}.MFwyvoNf_9{stroke-dasharray:784 786;stroke-dashoffset:785;animation:MFwyvoNf_draw 2500ms linear 0ms forwards;}.MFwyvoNf_10{stroke-dasharray:98 100;stroke-dashoffset:99;animation:MFwyvoNf_draw 2500ms linear 0ms forwards;}.MFwyvoNf_11{stroke-dasharray:92 94;stroke-dashoffset:93;animation:MFwyvoNf_draw 2500ms linear 0ms forwards;}.MFwyvoNf_12{stroke-dasharray:98 100;stroke-dashoffset:99;animation:MFwyvoNf_draw 2500ms linear 0ms forwards;}.MFwyvoNf_13{stroke-dasharray:94 96;stroke-dashoffset:95;animation:MFwyvoNf_draw 2500ms linear 0ms forwards;}.MFwyvoNf_14{stroke-dasharray:36 38;stroke-dashoffset:37;animation:MFwyvoNf_draw 2500ms linear 0ms forwards;}.MFwyvoNf_15{stroke-dasharray:51 53;stroke-dashoffset:52;animation:MFwyvoNf_draw 2500ms linear 0ms forwards;}.MFwyvoNf_16{stroke-dasharray:25 27;stroke-dashoffset:26;animation:MFwyvoNf_draw 2500ms linear 0ms forwards;}.MFwyvoNf_17{stroke-dasharray:28 30;stroke-dashoffset:29;animation:MFwyvoNf_draw 2500ms linear 0ms forwards;}.MFwyvoNf_18{stroke-dasharray:41 43;stroke-dashoffset:42;animation:MFwyvoNf_draw 2500ms linear 0ms forwards;}.MFwyvoNf_19{stroke-dasharray:23 25;stroke-dashoffset:24;animation:MFwyvoNf_draw 2500ms linear 0ms forwards;}.MFwyvoNf_20{stroke-dasharray:351 353;stroke-dashoffset:352;animation:MFwyvoNf_draw 2500ms linear 0ms forwards;}.MFwyvoNf_21{stroke-dasharray:201 203;stroke-dashoffset:202;animation:MFwyvoNf_draw 2500ms linear 0ms forwards;}.MFwyvoNf_22{stroke-dasharray:58 60;stroke-dashoffset:59;animation:MFwyvoNf_draw 2500ms linear 0ms forwards;}.MFwyvoNf_23{stroke-dasharray:142 144;stroke-dashoffset:143;animation:MFwyvoNf_draw 2500ms linear 0ms forwards;}.MFwyvoNf_24{stroke-dasharray:62 64;stroke-dashoffset:63;animation:MFwyvoNf_draw 2500ms linear 0ms forwards;}.MFwyvoNf_25{stroke-dasharray:187 189;stroke-dashoffset:188;animation:MFwyvoNf_draw 2500ms linear 0ms forwards;}.MFwyvoNf_26{stroke-dasharray:75 77;stroke-dashoffset:76;animation:MFwyvoNf_draw 2500ms linear 0ms forwards;}.MFwyvoNf_27{stroke-dasharray:351 353;stroke-dashoffset:352;animation:MFwyvoNf_draw 2500ms linear 0ms forwards;}.MFwyvoNf_28{stroke-dasharray:350 352;stroke-dashoffset:351;animation:MFwyvoNf_draw 2500ms linear 0ms forwards;}.MFwyvoNf_29{stroke-dasharray:351 353;stroke-dashoffset:352;animation:MFwyvoNf_draw 2500ms linear 0ms forwards;}.MFwyvoNf_30{stroke-dasharray:233 235;stroke-dashoffset:234;animation:MFwyvoNf_draw 2500ms linear 0ms forwards;}.MFwyvoNf_31{stroke-dasharray:58 60;stroke-dashoffset:59;animation:MFwyvoNf_draw 2500ms linear 0ms forwards;}.MFwyvoNf_32{stroke-dasharray:142 144;stroke-dashoffset:143;animation:MFwyvoNf_draw 2500ms linear 0ms forwards;}.MFwyvoNf_33{stroke-dasharray:62 64;stroke-dashoffset:63;animation:MFwyvoNf_draw 2500ms linear 0ms forwards;}.MFwyvoNf_34{stroke-dasharray:187 189;stroke-dashoffset:188;animation:MFwyvoNf_draw 2500ms linear 0ms forwards;}.MFwyvoNf_35{stroke-dasharray:75 77;stroke-dashoffset:76;animation:MFwyvoNf_draw 2500ms linear 0ms forwards;}@keyframes MFwyvoNf_draw{100%{stroke-dashoffset:0;}}@keyframes MFwyvoNf_fade{0%{stroke-opacity:1;}94.02985074626866%{stroke-opacity:1;}100%{stroke-opacity:0;}}</style></svg>
