<?xml version="1.0" encoding="UTF-8" standalone="no"?>
<!DOCTYPE svg PUBLIC "-//W3C//DTD SVG 1.1//EN" "http://www.w3.org/Graphics/SVG/1.1/DTD/svg11.dtd">
<svg width="100%" height="100%" viewBox="0 0 600 430" version="1.1" xmlns="http://www.w3.org/2000/svg" xmlns:xlink="http://www.w3.org/1999/xlink" xml:space="preserve" xmlns:serif="http://www.serif.com/" style="fill-rule:evenodd;clip-rule:evenodd;stroke-linejoin:round;stroke-miterlimit:2;">
    <g transform="matrix(0.349526,0,0,0.34154,218.135,634.915)">
        <g id="g2987">
            <g id="g3903">
                <g id="g3848">
                    <g id="g3839">
                        <g id="g3814">
                            <path id="path2999" d="M-630.881,-1860.59L-636.725,-598.776L1110.68,-592.932C1109.82,-1011.06 1112.82,-1478.4 1112.65,-1860.59L-630.881,-1860.59ZM-153.069,-1645.92L45.838,-1644.12L45.838,-1268.46L-154.975,-1268.12L-153.069,-1645.92ZM-180.381,-1647.99L-182.256,-1268.06L-389.069,-1267.71L-389.069,-1646.06L-180.381,-1647.99ZM271.948,-1647.99L268.494,-1268.84L75.659,-1266.5L75.119,-1646.14L271.948,-1647.99ZM299.369,-1647.99L502.213,-1644.12L500.338,-1269.24L299.369,-1268.9L299.369,-1647.99ZM533.4,-1644.12L726.494,-1644.12L726.494,-1269.65L532.623,-1267.6L533.4,-1644.12ZM723.458,-851.318C723.458,-851.318 533.14,-851.607 532.623,-853.308L533.4,-1238.46L724.525,-1240.4L723.458,-851.318ZM502.181,-1240.03L498.306,-856.074L299.426,-856.239C299.426,-856.239 299.369,-1220.91 299.369,-1238.46C361.922,-1243.42 436.663,-1239.9 502.181,-1240.03ZM268.043,-1241.61L271.355,-857.333L73.15,-856.213L73.15,-1239.28L268.043,-1241.61ZM43.9,-1239.21L46.104,-860.119L-156.975,-860.227L-153.069,-1238.46L43.9,-1239.21ZM-182.287,-1238.84L-181.849,-859.828L-389.069,-860.119L-389.069,-1238.46L-182.287,-1238.84Z" style="fill:rgb(28,21,13);fill-rule:nonzero;"/>
                            <path id="path3782" d="M-447.91,-1702.74L-446.619,-1672.49L803.058,-1669.46L805.464,-1705.77L-447.91,-1702.74Z" style="fill:rgb(96,69,64);fill-rule:nonzero;"/>
                            <path id="path3790" d="M-455.652,-729.493L-455.652,-699.24L803.058,-696.215L805.464,-732.518L-455.652,-729.493Z" style="fill:rgb(42,28,25);fill-rule:nonzero;"/>
                            <path id="path3784" d="M-452.629,-1705.52L-452.712,-696.95L-411.048,-696.95L-404.428,-1705.52L-452.629,-1705.52Z" style="fill:rgb(69,50,40);fill-rule:nonzero;"/>
                            <path id="path3786" d="M762.541,-1705.73L761.953,-698.564L800.56,-698.564L805.019,-1705.73C804.379,-1704.28 773.556,-1709.32 763.831,-1705.73L762.541,-1705.73Z" style="fill:rgb(61,44,36);fill-rule:nonzero;"/>
                            <path id="path3788" d="M-393.831,-758.824L737.549,-758.666L738.225,-812.681L-393.207,-812.581L-393.831,-758.824Z" style="fill:rgb(208,189,190);fill-rule:nonzero;"/>
                        </g>
                    </g>
                </g>
            </g>
        </g>
    </g>
</svg>
