<?xml version="1.0" encoding="UTF-8" standalone="no"?>
<!DOCTYPE svg PUBLIC "-//W3C//DTD SVG 1.1//EN" "http://www.w3.org/Graphics/SVG/1.1/DTD/svg11.dtd">
<svg width="100%" height="100%" viewBox="0 0 453 428" version="1.1" xmlns="http://www.w3.org/2000/svg" xmlns:xlink="http://www.w3.org/1999/xlink" xml:space="preserve" xmlns:serif="http://www.serif.com/" style="fill-rule:evenodd;clip-rule:evenodd;stroke-linejoin:round;stroke-miterlimit:2;">
    <g>
        <g transform="matrix(1.13294,0,0,1.05255,-28.9117,-12.1028)">
            <path d="M26.59,427.44L425.57,427.44L425.57,14.25L26.59,14.25L26.59,427.44ZM384.08,381.13L68.08,381.13L68.08,60.55L384.08,60.55L384.08,381.13Z" style="fill:white;"/>
        </g>
        <g transform="matrix(1.13294,0,0,1.05255,-28.9117,-12.1028)">
            <rect x="29.247" y="403.69" width="21.271" height="11.88" style="fill:rgb(208,27,30);"/>
        </g>
        <g transform="matrix(1.13294,0,0,1.05255,-28.9117,-12.1028)">
            <rect x="42.542" y="391.82" width="10.634" height="5.94" style="fill:rgb(208,27,30);"/>
        </g>
        <g transform="matrix(1.13294,0,0,1.05255,-28.9117,-12.1028)">
            <rect x="26.588" y="391.82" width="10.635" height="5.94" style="fill:rgb(208,27,30);"/>
        </g>
        <g transform="matrix(1.13294,0,0,1.05255,-28.9117,-12.1028)">
            <rect x="55.835" y="403.69" width="21.271" height="11.88" style="fill:rgb(208,27,30);"/>
        </g>
        <g transform="matrix(1.13294,0,0,1.05255,-28.9117,-12.1028)">
            <rect x="69.129" y="391.82" width="10.636" height="5.94" style="fill:rgb(208,27,30);"/>
        </g>
        <g transform="matrix(1.13294,0,0,1.05255,-28.9117,-12.1028)">
            <rect x="53.176" y="391.82" width="10.636" height="5.94" style="fill:rgb(208,27,30);"/>
        </g>
        <g transform="matrix(1.13294,0,0,1.05255,-28.9117,-12.1028)">
            <rect x="82.423" y="403.69" width="21.267" height="11.88" style="fill:rgb(208,27,30);"/>
        </g>
        <g transform="matrix(1.13294,0,0,1.05255,-28.9117,-12.1028)">
            <rect x="95.718" y="391.82" width="10.632" height="5.94" style="fill:rgb(208,27,30);"/>
        </g>
        <g transform="matrix(1.13294,0,0,1.05255,-28.9117,-12.1028)">
            <rect x="79.765" y="391.82" width="10.635" height="5.94" style="fill:rgb(208,27,30);"/>
        </g>
        <g transform="matrix(1.13294,0,0,1.05255,-28.9117,-12.1028)">
            <rect x="109.01" y="403.69" width="21.27" height="11.88" style="fill:rgb(208,27,30);"/>
        </g>
        <g transform="matrix(1.13294,0,0,1.05255,-28.9117,-12.1028)">
            <rect x="122.31" y="391.82" width="10.63" height="5.94" style="fill:rgb(208,27,30);"/>
        </g>
        <g transform="matrix(1.13294,0,0,1.05255,-28.9117,-12.1028)">
            <rect x="106.35" y="391.82" width="10.64" height="5.94" style="fill:rgb(208,27,30);"/>
        </g>
        <g transform="matrix(1.13294,0,0,1.05255,-28.9117,-12.1028)">
            <rect x="135.6" y="403.69" width="21.27" height="11.88" style="fill:rgb(208,27,30);"/>
        </g>
        <g transform="matrix(1.13294,0,0,1.05255,-28.9117,-12.1028)">
            <rect x="148.89" y="391.82" width="10.64" height="5.94" style="fill:rgb(208,27,30);"/>
        </g>
        <g transform="matrix(1.13294,0,0,1.05255,-28.9117,-12.1028)">
            <rect x="132.94" y="391.82" width="10.64" height="5.94" style="fill:rgb(208,27,30);"/>
        </g>
        <g transform="matrix(1.13294,0,0,1.05255,-28.9117,-12.1028)">
            <rect x="162.19" y="403.69" width="21.27" height="11.88" style="fill:rgb(208,27,30);"/>
        </g>
        <g transform="matrix(1.13294,0,0,1.05255,-28.9117,-12.1028)">
            <rect x="175.48" y="391.82" width="10.64" height="5.94" style="fill:rgb(208,27,30);"/>
        </g>
        <g transform="matrix(1.13294,0,0,1.05255,-28.9117,-12.1028)">
            <rect x="159.53" y="391.82" width="10.63" height="5.94" style="fill:rgb(208,27,30);"/>
        </g>
        <g transform="matrix(1.13294,0,0,1.05255,-28.9117,-12.1028)">
            <rect x="188.78" y="403.69" width="21.27" height="11.88" style="fill:rgb(208,27,30);"/>
        </g>
        <g transform="matrix(1.13294,0,0,1.05255,-28.9117,-12.1028)">
            <rect x="202.07" y="391.82" width="10.64" height="5.94" style="fill:rgb(208,27,30);"/>
        </g>
        <g transform="matrix(1.13294,0,0,1.05255,-28.9117,-12.1028)">
            <rect x="186.12" y="391.82" width="10.63" height="5.94" style="fill:rgb(208,27,30);"/>
        </g>
        <g transform="matrix(1.13294,0,0,1.05255,-28.9117,-12.1028)">
            <rect x="215.36" y="403.69" width="21.28" height="11.88" style="fill:rgb(208,27,30);"/>
        </g>
        <g transform="matrix(1.13294,0,0,1.05255,-28.9117,-12.1028)">
            <rect x="228.66" y="391.82" width="10.63" height="5.94" style="fill:rgb(208,27,30);"/>
        </g>
        <g transform="matrix(1.13294,0,0,1.05255,-28.9117,-12.1028)">
            <rect x="212.71" y="391.82" width="10.63" height="5.94" style="fill:rgb(208,27,30);"/>
        </g>
        <g transform="matrix(1.13294,0,0,1.05255,-28.9117,-12.1028)">
            <rect x="241.95" y="403.69" width="21.27" height="11.88" style="fill:rgb(208,27,30);"/>
        </g>
        <g transform="matrix(1.13294,0,0,1.05255,-28.9117,-12.1028)">
            <rect x="255.25" y="391.82" width="10.63" height="5.94" style="fill:rgb(208,27,30);"/>
        </g>
        <g transform="matrix(1.13294,0,0,1.05255,-28.9117,-12.1028)">
            <rect x="239.29" y="391.82" width="10.64" height="5.94" style="fill:rgb(208,27,30);"/>
        </g>
        <g transform="matrix(1.13294,0,0,1.05255,-28.9117,-12.1028)">
            <rect x="268.54" y="403.69" width="21.27" height="11.88" style="fill:rgb(208,27,30);"/>
        </g>
        <g transform="matrix(1.13294,0,0,1.05255,-28.9117,-12.1028)">
            <rect x="281.84" y="391.82" width="10.63" height="5.94" style="fill:rgb(208,27,30);"/>
        </g>
        <g transform="matrix(1.13294,0,0,1.05255,-28.9117,-12.1028)">
            <rect x="265.88" y="391.82" width="10.64" height="5.94" style="fill:rgb(208,27,30);"/>
        </g>
        <g transform="matrix(1.13294,0,0,1.05255,-28.9117,-12.1028)">
            <rect x="295.13" y="403.69" width="21.27" height="11.88" style="fill:rgb(208,27,30);"/>
        </g>
        <g transform="matrix(1.13294,0,0,1.05255,-28.9117,-12.1028)">
            <rect x="308.42" y="391.82" width="10.64" height="5.94" style="fill:rgb(208,27,30);"/>
        </g>
        <g transform="matrix(1.13294,0,0,1.05255,-28.9117,-12.1028)">
            <rect x="292.47" y="391.82" width="10.64" height="5.94" style="fill:rgb(208,27,30);"/>
        </g>
        <g transform="matrix(1.13294,0,0,1.05255,-28.9117,-12.1028)">
            <rect x="321.72" y="403.69" width="21.27" height="11.88" style="fill:rgb(208,27,30);"/>
        </g>
        <g transform="matrix(1.13294,0,0,1.05255,-28.9117,-12.1028)">
            <rect x="335.01" y="391.82" width="10.64" height="5.94" style="fill:rgb(208,27,30);"/>
        </g>
        <g transform="matrix(1.13294,0,0,1.05255,-28.9117,-12.1028)">
            <rect x="319.06" y="391.82" width="10.63" height="5.94" style="fill:rgb(208,27,30);"/>
        </g>
        <g transform="matrix(1.13294,0,0,1.05255,-28.9117,-12.1028)">
            <rect x="348.31" y="403.69" width="21.27" height="11.88" style="fill:rgb(208,27,30);"/>
        </g>
        <g transform="matrix(1.13294,0,0,1.05255,-28.9117,-12.1028)">
            <rect x="361.6" y="391.82" width="10.64" height="5.94" style="fill:rgb(208,27,30);"/>
        </g>
        <g transform="matrix(1.13294,0,0,1.05255,-28.9117,-12.1028)">
            <rect x="345.65" y="391.82" width="10.63" height="5.94" style="fill:rgb(208,27,30);"/>
        </g>
        <g transform="matrix(1.13294,0,0,1.05255,-28.9117,-12.1028)">
            <rect x="374.89" y="403.69" width="21.27" height="11.88" style="fill:rgb(208,27,30);"/>
        </g>
        <g transform="matrix(1.13294,0,0,1.05255,-28.9117,-12.1028)">
            <rect x="388.19" y="391.82" width="10.63" height="5.94" style="fill:rgb(208,27,30);"/>
        </g>
        <g transform="matrix(1.13294,0,0,1.05255,-28.9117,-12.1028)">
            <rect x="372.24" y="391.82" width="10.63" height="5.94" style="fill:rgb(208,27,30);"/>
        </g>
        <g transform="matrix(1.13294,0,0,1.05255,-28.9117,-12.1028)">
            <rect x="401.48" y="403.69" width="21.27" height="11.88" style="fill:rgb(208,27,30);"/>
        </g>
        <g transform="matrix(1.13294,0,0,1.05255,-28.9117,-12.1028)">
            <rect x="414.78" y="391.82" width="10.63" height="5.94" style="fill:rgb(208,27,30);"/>
        </g>
        <g transform="matrix(1.13294,0,0,1.05255,-28.9117,-12.1028)">
            <rect x="398.82" y="391.82" width="10.64" height="5.94" style="fill:rgb(208,27,30);"/>
        </g>
        <g transform="matrix(1.13294,0,0,1.05255,-28.9117,-12.1028)">
            <rect x="425.41" y="391.82" width="10.64" height="5.94" style="fill:rgb(208,27,30);"/>
        </g>
        <g transform="matrix(1.13294,0,0,1.05255,-28.9117,-12.1028)">
            <rect x="15.953" y="356.2" width="10.635" height="5.94" style="fill:rgb(208,27,30);"/>
        </g>
        <g transform="matrix(1.13294,0,0,1.05255,-28.9117,-12.1028)">
            <rect x="15.953" y="385.88" width="10.635" height="5.94" style="fill:rgb(208,27,30);"/>
        </g>
        <g transform="matrix(1.13294,0,0,1.05255,-28.9117,-12.1028)">
            <rect x="29.247" y="368.07" width="21.271" height="11.88" style="fill:rgb(208,27,30);"/>
        </g>
        <g transform="matrix(1.13294,0,0,1.05255,-28.9117,-12.1028)">
            <rect x="42.542" y="356.2" width="10.634" height="5.94" style="fill:rgb(208,27,30);"/>
        </g>
        <g transform="matrix(1.13294,0,0,1.05255,-28.9117,-12.1028)">
            <rect x="26.588" y="356.2" width="10.636" height="5.94" style="fill:rgb(208,27,30);"/>
        </g>
        <g transform="matrix(1.13294,0,0,1.05255,-28.9117,-12.1028)">
            <rect x="42.542" y="385.88" width="10.634" height="5.94" style="fill:rgb(208,27,30);"/>
        </g>
        <g transform="matrix(1.13294,0,0,1.05255,-28.9117,-12.1028)">
            <rect x="26.588" y="385.88" width="10.636" height="5.94" style="fill:rgb(208,27,30);"/>
        </g>
        <g transform="matrix(1.13294,0,0,1.05255,-28.9117,-12.1028)">
            <rect x="55.835" y="368.07" width="21.271" height="11.88" style="fill:rgb(208,27,30);"/>
        </g>
        <g transform="matrix(1.13294,0,0,1.05255,-28.9117,-12.1028)">
            <rect x="69.129" y="356.2" width="10.636" height="5.94" style="fill:rgb(208,27,30);"/>
        </g>
        <g transform="matrix(1.13294,0,0,1.05255,-28.9117,-12.1028)">
            <rect x="53.176" y="356.2" width="10.636" height="5.94" style="fill:rgb(208,27,30);"/>
        </g>
        <g transform="matrix(1.13294,0,0,1.05255,-28.9117,-12.1028)">
            <rect x="69.129" y="385.88" width="10.636" height="5.94" style="fill:rgb(208,27,30);"/>
        </g>
        <g transform="matrix(1.13294,0,0,1.05255,-28.9117,-12.1028)">
            <rect x="53.176" y="385.88" width="10.636" height="5.94" style="fill:rgb(208,27,30);"/>
        </g>
        <g transform="matrix(1.13294,0,0,1.05255,-28.9117,-12.1028)">
            <rect x="95.718" y="385.88" width="10.632" height="5.94" style="fill:rgb(208,27,30);"/>
        </g>
        <g transform="matrix(1.13294,0,0,1.05255,-28.9117,-12.1028)">
            <rect x="79.765" y="385.88" width="10.635" height="5.94" style="fill:rgb(208,27,30);"/>
        </g>
        <g transform="matrix(1.13294,0,0,1.05255,-28.9117,-12.1028)">
            <rect x="122.31" y="385.88" width="10.63" height="5.94" style="fill:rgb(208,27,30);"/>
        </g>
        <g transform="matrix(1.13294,0,0,1.05255,-28.9117,-12.1028)">
            <rect x="106.35" y="385.88" width="10.64" height="5.94" style="fill:rgb(208,27,30);"/>
        </g>
        <g transform="matrix(1.13294,0,0,1.05255,-28.9117,-12.1028)">
            <rect x="148.89" y="385.88" width="10.64" height="5.94" style="fill:rgb(208,27,30);"/>
        </g>
        <g transform="matrix(1.13294,0,0,1.05255,-28.9117,-12.1028)">
            <rect x="132.94" y="385.88" width="10.64" height="5.94" style="fill:rgb(208,27,30);"/>
        </g>
        <g transform="matrix(1.13294,0,0,1.05255,-28.9117,-12.1028)">
            <rect x="175.48" y="385.88" width="10.64" height="5.94" style="fill:rgb(208,27,30);"/>
        </g>
        <g transform="matrix(1.13294,0,0,1.05255,-28.9117,-12.1028)">
            <rect x="159.53" y="385.88" width="10.63" height="5.94" style="fill:rgb(208,27,30);"/>
        </g>
        <g transform="matrix(1.13294,0,0,1.05255,-28.9117,-12.1028)">
            <rect x="202.07" y="385.88" width="10.64" height="5.94" style="fill:rgb(208,27,30);"/>
        </g>
        <g transform="matrix(1.13294,0,0,1.05255,-28.9117,-12.1028)">
            <rect x="186.12" y="385.88" width="10.63" height="5.94" style="fill:rgb(208,27,30);"/>
        </g>
        <g transform="matrix(1.13294,0,0,1.05255,-28.9117,-12.1028)">
            <rect x="228.66" y="385.88" width="10.64" height="5.94" style="fill:rgb(208,27,30);"/>
        </g>
        <g transform="matrix(1.13294,0,0,1.05255,-28.9117,-12.1028)">
            <rect x="212.71" y="385.88" width="10.63" height="5.94" style="fill:rgb(208,27,30);"/>
        </g>
        <g transform="matrix(1.13294,0,0,1.05255,-28.9117,-12.1028)">
            <rect x="255.25" y="385.88" width="10.63" height="5.94" style="fill:rgb(208,27,30);"/>
        </g>
        <g transform="matrix(1.13294,0,0,1.05255,-28.9117,-12.1028)">
            <rect x="239.3" y="385.88" width="10.63" height="5.94" style="fill:rgb(208,27,30);"/>
        </g>
        <g transform="matrix(1.13294,0,0,1.05255,-28.9117,-12.1028)">
            <rect x="281.84" y="385.88" width="10.63" height="5.94" style="fill:rgb(208,27,30);"/>
        </g>
        <g transform="matrix(1.13294,0,0,1.05255,-28.9117,-12.1028)">
            <rect x="265.88" y="385.88" width="10.64" height="5.94" style="fill:rgb(208,27,30);"/>
        </g>
        <g transform="matrix(1.13294,0,0,1.05255,-28.9117,-12.1028)">
            <rect x="308.42" y="385.88" width="10.64" height="5.94" style="fill:rgb(208,27,30);"/>
        </g>
        <g transform="matrix(1.13294,0,0,1.05255,-28.9117,-12.1028)">
            <rect x="292.47" y="385.88" width="10.64" height="5.94" style="fill:rgb(208,27,30);"/>
        </g>
        <g transform="matrix(1.13294,0,0,1.05255,-28.9117,-12.1028)">
            <rect x="335.01" y="385.88" width="10.64" height="5.94" style="fill:rgb(208,27,30);"/>
        </g>
        <g transform="matrix(1.13294,0,0,1.05255,-28.9117,-12.1028)">
            <rect x="319.06" y="385.88" width="10.63" height="5.94" style="fill:rgb(208,27,30);"/>
        </g>
        <g transform="matrix(1.13294,0,0,1.05255,-28.9117,-12.1028)">
            <rect x="361.6" y="385.88" width="10.64" height="5.94" style="fill:rgb(208,27,30);"/>
        </g>
        <g transform="matrix(1.13294,0,0,1.05255,-28.9117,-12.1028)">
            <rect x="345.65" y="385.88" width="10.63" height="5.94" style="fill:rgb(208,27,30);"/>
        </g>
        <g transform="matrix(1.13294,0,0,1.05255,-28.9117,-12.1028)">
            <rect x="374.89" y="368.07" width="21.27" height="11.88" style="fill:rgb(208,27,30);"/>
        </g>
        <g transform="matrix(1.13294,0,0,1.05255,-28.9117,-12.1028)">
            <rect x="388.19" y="356.2" width="10.63" height="5.94" style="fill:rgb(208,27,30);"/>
        </g>
        <g transform="matrix(1.13294,0,0,1.05255,-28.9117,-12.1028)">
            <rect x="372.24" y="356.2" width="10.63" height="5.94" style="fill:rgb(208,27,30);"/>
        </g>
        <g transform="matrix(1.13294,0,0,1.05255,-28.9117,-12.1028)">
            <rect x="388.19" y="385.88" width="10.63" height="5.94" style="fill:rgb(208,27,30);"/>
        </g>
        <g transform="matrix(1.13294,0,0,1.05255,-28.9117,-12.1028)">
            <rect x="372.24" y="385.88" width="10.63" height="5.94" style="fill:rgb(208,27,30);"/>
        </g>
        <g transform="matrix(1.13294,0,0,1.05255,-28.9117,-12.1028)">
            <rect x="401.48" y="368.07" width="21.27" height="11.88" style="fill:rgb(208,27,30);"/>
        </g>
        <g transform="matrix(1.13294,0,0,1.05255,-28.9117,-12.1028)">
            <rect x="414.78" y="356.2" width="10.63" height="5.94" style="fill:rgb(208,27,30);"/>
        </g>
        <g transform="matrix(1.13294,0,0,1.05255,-28.9117,-12.1028)">
            <rect x="398.82" y="356.2" width="10.64" height="5.94" style="fill:rgb(208,27,30);"/>
        </g>
        <g transform="matrix(1.13294,0,0,1.05255,-28.9117,-12.1028)">
            <rect x="414.78" y="385.88" width="10.63" height="5.94" style="fill:rgb(208,27,30);"/>
        </g>
        <g transform="matrix(1.13294,0,0,1.05255,-28.9117,-12.1028)">
            <rect x="398.82" y="385.88" width="10.64" height="5.94" style="fill:rgb(208,27,30);"/>
        </g>
        <g transform="matrix(1.13294,0,0,1.05255,-28.9117,-12.1028)">
            <rect x="425.41" y="356.2" width="10.64" height="5.94" style="fill:rgb(208,27,30);"/>
        </g>
        <g transform="matrix(1.13294,0,0,1.05255,-28.9117,-12.1028)">
            <rect x="425.41" y="385.88" width="10.64" height="5.94" style="fill:rgb(208,27,30);"/>
        </g>
        <g transform="matrix(1.13294,0,0,1.05255,-28.9117,-12.1028)">
            <rect x="15.953" y="320.58" width="10.635" height="5.94" style="fill:rgb(208,27,30);"/>
        </g>
        <g transform="matrix(1.13294,0,0,1.05255,-28.9117,-12.1028)">
            <rect x="15.953" y="350.26" width="10.635" height="5.94" style="fill:rgb(208,27,30);"/>
        </g>
        <g transform="matrix(1.13294,0,0,1.05255,-28.9117,-12.1028)">
            <rect x="29.247" y="332.45" width="21.271" height="11.88" style="fill:rgb(208,27,30);"/>
        </g>
        <g transform="matrix(1.13294,0,0,1.05255,-28.9117,-12.1028)">
            <rect x="42.542" y="320.58" width="10.634" height="5.94" style="fill:rgb(208,27,30);"/>
        </g>
        <g transform="matrix(1.13294,0,0,1.05255,-28.9117,-12.1028)">
            <rect x="26.588" y="320.58" width="10.636" height="5.94" style="fill:rgb(208,27,30);"/>
        </g>
        <g transform="matrix(1.13294,0,0,1.05255,-28.9117,-12.1028)">
            <rect x="42.542" y="350.26" width="10.634" height="5.94" style="fill:rgb(208,27,30);"/>
        </g>
        <g transform="matrix(1.13294,0,0,1.05255,-28.9117,-12.1028)">
            <rect x="26.588" y="350.26" width="10.636" height="5.94" style="fill:rgb(208,27,30);"/>
        </g>
        <g transform="matrix(1.13294,0,0,1.05255,-28.9117,-12.1028)">
            <rect x="55.835" y="332.45" width="21.271" height="11.88" style="fill:rgb(208,27,30);"/>
        </g>
        <g transform="matrix(1.13294,0,0,1.05255,-28.9117,-12.1028)">
            <rect x="53.176" y="320.58" width="10.636" height="5.94" style="fill:rgb(208,27,30);"/>
        </g>
        <g transform="matrix(1.13294,0,0,1.05255,-28.9117,-12.1028)">
            <rect x="53.176" y="350.26" width="10.636" height="5.94" style="fill:rgb(208,27,30);"/>
        </g>
        <g transform="matrix(1.13294,0,0,1.05255,-28.9117,-12.1028)">
            <rect x="374.9" y="332.45" width="21.27" height="11.88" style="fill:rgb(208,27,30);"/>
        </g>
        <g transform="matrix(1.13294,0,0,1.05255,-28.9117,-12.1028)">
            <rect x="388.19" y="320.58" width="10.63" height="5.94" style="fill:rgb(208,27,30);"/>
        </g>
        <g transform="matrix(1.13294,0,0,1.05255,-28.9117,-12.1028)">
            <rect x="388.19" y="350.26" width="10.63" height="5.94" style="fill:rgb(208,27,30);"/>
        </g>
        <g transform="matrix(1.13294,0,0,1.05255,-28.9117,-12.1028)">
            <rect x="401.48" y="332.45" width="21.27" height="11.88" style="fill:rgb(208,27,30);"/>
        </g>
        <g transform="matrix(1.13294,0,0,1.05255,-28.9117,-12.1028)">
            <rect x="414.78" y="320.58" width="10.63" height="5.94" style="fill:rgb(208,27,30);"/>
        </g>
        <g transform="matrix(1.13294,0,0,1.05255,-28.9117,-12.1028)">
            <rect x="398.82" y="320.58" width="10.64" height="5.94" style="fill:rgb(208,27,30);"/>
        </g>
        <g transform="matrix(1.13294,0,0,1.05255,-28.9117,-12.1028)">
            <rect x="414.78" y="350.26" width="10.63" height="5.94" style="fill:rgb(208,27,30);"/>
        </g>
        <g transform="matrix(1.13294,0,0,1.05255,-28.9117,-12.1028)">
            <rect x="398.82" y="350.26" width="10.64" height="5.94" style="fill:rgb(208,27,30);"/>
        </g>
        <g transform="matrix(1.13294,0,0,1.05255,-28.9117,-12.1028)">
            <rect x="425.41" y="320.58" width="10.64" height="5.94" style="fill:rgb(208,27,30);"/>
        </g>
        <g transform="matrix(1.13294,0,0,1.05255,-28.9117,-12.1028)">
            <rect x="425.41" y="350.26" width="10.64" height="5.94" style="fill:rgb(208,27,30);"/>
        </g>
        <g transform="matrix(1.13294,0,0,1.05255,-28.9117,-12.1028)">
            <rect x="15.953" y="284.96" width="10.635" height="5.94" style="fill:rgb(208,27,30);"/>
        </g>
        <g transform="matrix(1.13294,0,0,1.05255,-28.9117,-12.1028)">
            <rect x="15.953" y="314.64" width="10.635" height="5.94" style="fill:rgb(208,27,30);"/>
        </g>
        <g transform="matrix(1.13294,0,0,1.05255,-28.9117,-12.1028)">
            <rect x="29.247" y="296.83" width="21.271" height="11.88" style="fill:rgb(208,27,30);"/>
        </g>
        <g transform="matrix(1.13294,0,0,1.05255,-28.9117,-12.1028)">
            <rect x="42.542" y="284.96" width="10.635" height="5.94" style="fill:rgb(208,27,30);"/>
        </g>
        <g transform="matrix(1.13294,0,0,1.05255,-28.9117,-12.1028)">
            <rect x="26.588" y="284.96" width="10.636" height="5.94" style="fill:rgb(208,27,30);"/>
        </g>
        <g transform="matrix(1.13294,0,0,1.05255,-28.9117,-12.1028)">
            <rect x="42.542" y="314.64" width="10.635" height="5.94" style="fill:rgb(208,27,30);"/>
        </g>
        <g transform="matrix(1.13294,0,0,1.05255,-28.9117,-12.1028)">
            <rect x="26.588" y="314.64" width="10.636" height="5.94" style="fill:rgb(208,27,30);"/>
        </g>
        <g transform="matrix(1.13294,0,0,1.05255,-28.9117,-12.1028)">
            <rect x="55.835" y="296.83" width="21.271" height="11.88" style="fill:rgb(208,27,30);"/>
        </g>
        <g transform="matrix(1.13294,0,0,1.05255,-28.9117,-12.1028)">
            <rect x="53.177" y="284.96" width="10.635" height="5.94" style="fill:rgb(208,27,30);"/>
        </g>
        <g transform="matrix(1.13294,0,0,1.05255,-28.9117,-12.1028)">
            <rect x="53.177" y="314.64" width="10.635" height="5.94" style="fill:rgb(208,27,30);"/>
        </g>
        <g transform="matrix(1.13294,0,0,1.05255,-28.9117,-12.1028)">
            <rect x="374.9" y="296.83" width="21.27" height="11.88" style="fill:rgb(208,27,30);"/>
        </g>
        <g transform="matrix(1.13294,0,0,1.05255,-28.9117,-12.1028)">
            <rect x="388.19" y="284.96" width="10.63" height="5.94" style="fill:rgb(208,27,30);"/>
        </g>
        <g transform="matrix(1.13294,0,0,1.05255,-28.9117,-12.1028)">
            <rect x="388.19" y="314.64" width="10.63" height="5.94" style="fill:rgb(208,27,30);"/>
        </g>
        <g transform="matrix(1.13294,0,0,1.05255,-28.9117,-12.1028)">
            <rect x="401.48" y="296.83" width="21.27" height="11.88" style="fill:rgb(208,27,30);"/>
        </g>
        <g transform="matrix(1.13294,0,0,1.05255,-28.9117,-12.1028)">
            <rect x="414.78" y="284.96" width="10.63" height="5.94" style="fill:rgb(208,27,30);"/>
        </g>
        <g transform="matrix(1.13294,0,0,1.05255,-28.9117,-12.1028)">
            <rect x="398.82" y="284.96" width="10.64" height="5.94" style="fill:rgb(208,27,30);"/>
        </g>
        <g transform="matrix(1.13294,0,0,1.05255,-28.9117,-12.1028)">
            <rect x="414.78" y="314.64" width="10.63" height="5.94" style="fill:rgb(208,27,30);"/>
        </g>
        <g transform="matrix(1.13294,0,0,1.05255,-28.9117,-12.1028)">
            <rect x="398.82" y="314.64" width="10.64" height="5.94" style="fill:rgb(208,27,30);"/>
        </g>
        <g transform="matrix(1.13294,0,0,1.05255,-28.9117,-12.1028)">
            <rect x="425.41" y="284.96" width="10.64" height="5.94" style="fill:rgb(208,27,30);"/>
        </g>
        <g transform="matrix(1.13294,0,0,1.05255,-28.9117,-12.1028)">
            <rect x="425.41" y="314.64" width="10.64" height="5.94" style="fill:rgb(208,27,30);"/>
        </g>
        <g transform="matrix(1.13294,0,0,1.05255,-28.9117,-12.1028)">
            <rect x="15.953" y="249.34" width="10.635" height="5.94" style="fill:rgb(208,27,30);"/>
        </g>
        <g transform="matrix(1.13294,0,0,1.05255,-28.9117,-12.1028)">
            <rect x="15.953" y="279.02" width="10.635" height="5.94" style="fill:rgb(208,27,30);"/>
        </g>
        <g transform="matrix(1.13294,0,0,1.05255,-28.9117,-12.1028)">
            <rect x="29.247" y="261.21" width="21.271" height="11.88" style="fill:rgb(208,27,30);"/>
        </g>
        <g transform="matrix(1.13294,0,0,1.05255,-28.9117,-12.1028)">
            <rect x="42.542" y="249.34" width="10.635" height="5.94" style="fill:rgb(208,27,30);"/>
        </g>
        <g transform="matrix(1.13294,0,0,1.05255,-28.9117,-12.1028)">
            <rect x="26.588" y="249.34" width="10.636" height="5.94" style="fill:rgb(208,27,30);"/>
        </g>
        <g transform="matrix(1.13294,0,0,1.05255,-28.9117,-12.1028)">
            <rect x="42.542" y="279.02" width="10.635" height="5.94" style="fill:rgb(208,27,30);"/>
        </g>
        <g transform="matrix(1.13294,0,0,1.05255,-28.9117,-12.1028)">
            <rect x="26.588" y="279.02" width="10.636" height="5.94" style="fill:rgb(208,27,30);"/>
        </g>
        <g transform="matrix(1.13294,0,0,1.05255,-28.9117,-12.1028)">
            <rect x="55.835" y="261.21" width="21.271" height="11.88" style="fill:rgb(208,27,30);"/>
        </g>
        <g transform="matrix(1.13294,0,0,1.05255,-28.9117,-12.1028)">
            <rect x="53.177" y="249.34" width="10.635" height="5.94" style="fill:rgb(208,27,30);"/>
        </g>
        <g transform="matrix(1.13294,0,0,1.05255,-28.9117,-12.1028)">
            <rect x="53.177" y="279.02" width="10.635" height="5.94" style="fill:rgb(208,27,30);"/>
        </g>
        <g transform="matrix(1.13294,0,0,1.05255,-28.9117,-12.1028)">
            <rect x="374.9" y="261.21" width="21.27" height="11.88" style="fill:rgb(208,27,30);"/>
        </g>
        <g transform="matrix(1.13294,0,0,1.05255,-28.9117,-12.1028)">
            <rect x="388.19" y="249.34" width="10.63" height="5.94" style="fill:rgb(208,27,30);"/>
        </g>
        <g transform="matrix(1.13294,0,0,1.05255,-28.9117,-12.1028)">
            <rect x="388.19" y="279.02" width="10.63" height="5.94" style="fill:rgb(208,27,30);"/>
        </g>
        <g transform="matrix(1.13294,0,0,1.05255,-28.9117,-12.1028)">
            <rect x="401.48" y="261.21" width="21.27" height="11.88" style="fill:rgb(208,27,30);"/>
        </g>
        <g transform="matrix(1.13294,0,0,1.05255,-28.9117,-12.1028)">
            <rect x="414.78" y="249.34" width="10.63" height="5.94" style="fill:rgb(208,27,30);"/>
        </g>
        <g transform="matrix(1.13294,0,0,1.05255,-28.9117,-12.1028)">
            <rect x="398.82" y="249.34" width="10.64" height="5.94" style="fill:rgb(208,27,30);"/>
        </g>
        <g transform="matrix(1.13294,0,0,1.05255,-28.9117,-12.1028)">
            <rect x="414.78" y="279.02" width="10.63" height="5.94" style="fill:rgb(208,27,30);"/>
        </g>
        <g transform="matrix(1.13294,0,0,1.05255,-28.9117,-12.1028)">
            <rect x="398.82" y="279.02" width="10.64" height="5.94" style="fill:rgb(208,27,30);"/>
        </g>
        <g transform="matrix(1.13294,0,0,1.05255,-28.9117,-12.1028)">
            <rect x="425.41" y="249.34" width="10.64" height="5.94" style="fill:rgb(208,27,30);"/>
        </g>
        <g transform="matrix(1.13294,0,0,1.05255,-28.9117,-12.1028)">
            <rect x="425.41" y="279.02" width="10.64" height="5.94" style="fill:rgb(208,27,30);"/>
        </g>
        <g transform="matrix(1.13294,0,0,1.05255,-28.9117,-12.1028)">
            <rect x="15.953" y="213.72" width="10.635" height="5.94" style="fill:rgb(208,27,30);"/>
        </g>
        <g transform="matrix(1.13294,0,0,1.05255,-28.9117,-12.1028)">
            <rect x="15.953" y="243.4" width="10.635" height="5.94" style="fill:rgb(208,27,30);"/>
        </g>
        <g transform="matrix(1.13294,0,0,1.05255,-28.9117,-12.1028)">
            <rect x="29.247" y="225.59" width="21.272" height="11.88" style="fill:rgb(208,27,30);"/>
        </g>
        <g transform="matrix(1.13294,0,0,1.05255,-28.9117,-12.1028)">
            <rect x="42.542" y="213.72" width="10.635" height="5.94" style="fill:rgb(208,27,30);"/>
        </g>
        <g transform="matrix(1.13294,0,0,1.05255,-28.9117,-12.1028)">
            <rect x="26.588" y="213.72" width="10.636" height="5.94" style="fill:rgb(208,27,30);"/>
        </g>
        <g transform="matrix(1.13294,0,0,1.05255,-28.9117,-12.1028)">
            <rect x="42.542" y="243.4" width="10.635" height="5.94" style="fill:rgb(208,27,30);"/>
        </g>
        <g transform="matrix(1.13294,0,0,1.05255,-28.9117,-12.1028)">
            <rect x="26.588" y="243.4" width="10.636" height="5.94" style="fill:rgb(208,27,30);"/>
        </g>
        <g transform="matrix(1.13294,0,0,1.05255,-28.9117,-12.1028)">
            <rect x="55.835" y="225.59" width="21.271" height="11.88" style="fill:rgb(208,27,30);"/>
        </g>
        <g transform="matrix(1.13294,0,0,1.05255,-28.9117,-12.1028)">
            <rect x="53.177" y="213.72" width="10.635" height="5.94" style="fill:rgb(208,27,30);"/>
        </g>
        <g transform="matrix(1.13294,0,0,1.05255,-28.9117,-12.1028)">
            <rect x="53.177" y="243.4" width="10.635" height="5.94" style="fill:rgb(208,27,30);"/>
        </g>
        <g transform="matrix(1.13294,0,0,1.05255,-28.9117,-12.1028)">
            <rect x="374.9" y="225.59" width="21.27" height="11.88" style="fill:rgb(208,27,30);"/>
        </g>
        <g transform="matrix(1.13294,0,0,1.05255,-28.9117,-12.1028)">
            <rect x="388.19" y="213.72" width="10.63" height="5.94" style="fill:rgb(208,27,30);"/>
        </g>
        <g transform="matrix(1.13294,0,0,1.05255,-28.9117,-12.1028)">
            <rect x="388.19" y="243.4" width="10.63" height="5.94" style="fill:rgb(208,27,30);"/>
        </g>
        <g transform="matrix(1.13294,0,0,1.05255,-28.9117,-12.1028)">
            <rect x="401.48" y="225.59" width="21.27" height="11.88" style="fill:rgb(208,27,30);"/>
        </g>
        <g transform="matrix(1.13294,0,0,1.05255,-28.9117,-12.1028)">
            <rect x="414.78" y="213.72" width="10.63" height="5.94" style="fill:rgb(208,27,30);"/>
        </g>
        <g transform="matrix(1.13294,0,0,1.05255,-28.9117,-12.1028)">
            <rect x="398.82" y="213.72" width="10.64" height="5.94" style="fill:rgb(208,27,30);"/>
        </g>
        <g transform="matrix(1.13294,0,0,1.05255,-28.9117,-12.1028)">
            <rect x="414.78" y="243.4" width="10.63" height="5.94" style="fill:rgb(208,27,30);"/>
        </g>
        <g transform="matrix(1.13294,0,0,1.05255,-28.9117,-12.1028)">
            <rect x="398.82" y="243.4" width="10.64" height="5.94" style="fill:rgb(208,27,30);"/>
        </g>
        <g transform="matrix(1.13294,0,0,1.05255,-28.9117,-12.1028)">
            <rect x="425.41" y="213.72" width="10.64" height="5.94" style="fill:rgb(208,27,30);"/>
        </g>
        <g transform="matrix(1.13294,0,0,1.05255,-28.9117,-12.1028)">
            <rect x="425.41" y="243.4" width="10.64" height="5.94" style="fill:rgb(208,27,30);"/>
        </g>
        <g transform="matrix(1.13294,0,0,1.05255,-28.9117,-12.1028)">
            <rect x="15.953" y="178.1" width="10.635" height="5.94" style="fill:rgb(208,27,30);"/>
        </g>
        <g transform="matrix(1.13294,0,0,1.05255,-28.9117,-12.1028)">
            <rect x="15.953" y="207.78" width="10.635" height="5.94" style="fill:rgb(208,27,30);"/>
        </g>
        <g transform="matrix(1.13294,0,0,1.05255,-28.9117,-12.1028)">
            <rect x="29.247" y="189.97" width="21.272" height="11.88" style="fill:rgb(208,27,30);"/>
        </g>
        <g transform="matrix(1.13294,0,0,1.05255,-28.9117,-12.1028)">
            <rect x="42.542" y="178.1" width="10.635" height="5.94" style="fill:rgb(208,27,30);"/>
        </g>
        <g transform="matrix(1.13294,0,0,1.05255,-28.9117,-12.1028)">
            <rect x="26.588" y="178.1" width="10.636" height="5.94" style="fill:rgb(208,27,30);"/>
        </g>
        <g transform="matrix(1.13294,0,0,1.05255,-28.9117,-12.1028)">
            <rect x="42.542" y="207.78" width="10.635" height="5.94" style="fill:rgb(208,27,30);"/>
        </g>
        <g transform="matrix(1.13294,0,0,1.05255,-28.9117,-12.1028)">
            <rect x="26.588" y="207.78" width="10.636" height="5.94" style="fill:rgb(208,27,30);"/>
        </g>
        <g transform="matrix(1.13294,0,0,1.05255,-28.9117,-12.1028)">
            <rect x="55.835" y="189.97" width="21.272" height="11.88" style="fill:rgb(208,27,30);"/>
        </g>
        <g transform="matrix(1.13294,0,0,1.05255,-28.9117,-12.1028)">
            <rect x="53.177" y="178.1" width="10.636" height="5.94" style="fill:rgb(208,27,30);"/>
        </g>
        <g transform="matrix(1.13294,0,0,1.05255,-28.9117,-12.1028)">
            <rect x="53.177" y="207.78" width="10.636" height="5.94" style="fill:rgb(208,27,30);"/>
        </g>
        <g transform="matrix(1.13294,0,0,1.05255,-28.9117,-12.1028)">
            <rect x="374.9" y="189.97" width="21.27" height="11.88" style="fill:rgb(208,27,30);"/>
        </g>
        <g transform="matrix(1.13294,0,0,1.05255,-28.9117,-12.1028)">
            <rect x="388.19" y="178.1" width="10.63" height="5.94" style="fill:rgb(208,27,30);"/>
        </g>
        <g transform="matrix(1.13294,0,0,1.05255,-28.9117,-12.1028)">
            <rect x="388.19" y="207.78" width="10.63" height="5.94" style="fill:rgb(208,27,30);"/>
        </g>
        <g transform="matrix(1.13294,0,0,1.05255,-28.9117,-12.1028)">
            <rect x="401.48" y="189.97" width="21.27" height="11.88" style="fill:rgb(208,27,30);"/>
        </g>
        <g transform="matrix(1.13294,0,0,1.05255,-28.9117,-12.1028)">
            <rect x="414.78" y="178.1" width="10.63" height="5.94" style="fill:rgb(208,27,30);"/>
        </g>
        <g transform="matrix(1.13294,0,0,1.05255,-28.9117,-12.1028)">
            <rect x="398.82" y="178.1" width="10.64" height="5.94" style="fill:rgb(208,27,30);"/>
        </g>
        <g transform="matrix(1.13294,0,0,1.05255,-28.9117,-12.1028)">
            <rect x="414.78" y="207.78" width="10.63" height="5.94" style="fill:rgb(208,27,30);"/>
        </g>
        <g transform="matrix(1.13294,0,0,1.05255,-28.9117,-12.1028)">
            <rect x="398.82" y="207.78" width="10.64" height="5.94" style="fill:rgb(208,27,30);"/>
        </g>
        <g transform="matrix(1.13294,0,0,1.05255,-28.9117,-12.1028)">
            <rect x="425.41" y="178.1" width="10.64" height="5.94" style="fill:rgb(208,27,30);"/>
        </g>
        <g transform="matrix(1.13294,0,0,1.05255,-28.9117,-12.1028)">
            <rect x="425.41" y="207.78" width="10.64" height="5.94" style="fill:rgb(208,27,30);"/>
        </g>
        <g transform="matrix(1.13294,0,0,1.05255,-28.9117,-12.1028)">
            <rect x="15.953" y="142.48" width="10.635" height="5.94" style="fill:rgb(208,27,30);"/>
        </g>
        <g transform="matrix(1.13294,0,0,1.05255,-28.9117,-12.1028)">
            <rect x="15.953" y="172.16" width="10.635" height="5.94" style="fill:rgb(208,27,30);"/>
        </g>
        <g transform="matrix(1.13294,0,0,1.05255,-28.9117,-12.1028)">
            <rect x="29.247" y="154.35" width="21.272" height="11.88" style="fill:rgb(208,27,30);"/>
        </g>
        <g transform="matrix(1.13294,0,0,1.05255,-28.9117,-12.1028)">
            <rect x="42.542" y="142.48" width="10.635" height="5.94" style="fill:rgb(208,27,30);"/>
        </g>
        <g transform="matrix(1.13294,0,0,1.05255,-28.9117,-12.1028)">
            <rect x="26.588" y="142.48" width="10.636" height="5.94" style="fill:rgb(208,27,30);"/>
        </g>
        <g transform="matrix(1.13294,0,0,1.05255,-28.9117,-12.1028)">
            <rect x="42.542" y="172.16" width="10.635" height="5.94" style="fill:rgb(208,27,30);"/>
        </g>
        <g transform="matrix(1.13294,0,0,1.05255,-28.9117,-12.1028)">
            <rect x="26.588" y="172.16" width="10.636" height="5.94" style="fill:rgb(208,27,30);"/>
        </g>
        <g transform="matrix(1.13294,0,0,1.05255,-28.9117,-12.1028)">
            <rect x="55.835" y="154.35" width="21.272" height="11.88" style="fill:rgb(208,27,30);"/>
        </g>
        <g transform="matrix(1.13294,0,0,1.05255,-28.9117,-12.1028)">
            <rect x="53.177" y="142.48" width="10.636" height="5.94" style="fill:rgb(208,27,30);"/>
        </g>
        <g transform="matrix(1.13294,0,0,1.05255,-28.9117,-12.1028)">
            <rect x="53.177" y="172.16" width="10.636" height="5.94" style="fill:rgb(208,27,30);"/>
        </g>
        <g transform="matrix(1.13294,0,0,1.05255,-28.9117,-12.1028)">
            <rect x="374.9" y="154.35" width="21.27" height="11.88" style="fill:rgb(208,27,30);"/>
        </g>
        <g transform="matrix(1.13294,0,0,1.05255,-28.9117,-12.1028)">
            <rect x="388.19" y="142.48" width="10.63" height="5.94" style="fill:rgb(208,27,30);"/>
        </g>
        <g transform="matrix(1.13294,0,0,1.05255,-28.9117,-12.1028)">
            <rect x="388.19" y="172.16" width="10.63" height="5.94" style="fill:rgb(208,27,30);"/>
        </g>
        <g transform="matrix(1.13294,0,0,1.05255,-28.9117,-12.1028)">
            <rect x="401.48" y="154.35" width="21.27" height="11.88" style="fill:rgb(208,27,30);"/>
        </g>
        <g transform="matrix(1.13294,0,0,1.05255,-28.9117,-12.1028)">
            <rect x="414.78" y="142.48" width="10.63" height="5.94" style="fill:rgb(208,27,30);"/>
        </g>
        <g transform="matrix(1.13294,0,0,1.05255,-28.9117,-12.1028)">
            <rect x="398.82" y="142.48" width="10.64" height="5.94" style="fill:rgb(208,27,30);"/>
        </g>
        <g transform="matrix(1.13294,0,0,1.05255,-28.9117,-12.1028)">
            <rect x="414.78" y="172.16" width="10.63" height="5.94" style="fill:rgb(208,27,30);"/>
        </g>
        <g transform="matrix(1.13294,0,0,1.05255,-28.9117,-12.1028)">
            <rect x="398.82" y="172.16" width="10.64" height="5.94" style="fill:rgb(208,27,30);"/>
        </g>
        <g transform="matrix(1.13294,0,0,1.05255,-28.9117,-12.1028)">
            <rect x="425.41" y="142.48" width="10.64" height="5.94" style="fill:rgb(208,27,30);"/>
        </g>
        <g transform="matrix(1.13294,0,0,1.05255,-28.9117,-12.1028)">
            <rect x="425.41" y="172.16" width="10.64" height="5.94" style="fill:rgb(208,27,30);"/>
        </g>
        <g transform="matrix(1.13294,0,0,1.05255,-28.9117,-12.1028)">
            <rect x="15.954" y="106.86" width="10.634" height="5.94" style="fill:rgb(208,27,30);"/>
        </g>
        <g transform="matrix(1.13294,0,0,1.05255,-28.9117,-12.1028)">
            <rect x="15.954" y="136.54" width="10.634" height="5.94" style="fill:rgb(208,27,30);"/>
        </g>
        <g transform="matrix(1.13294,0,0,1.05255,-28.9117,-12.1028)">
            <rect x="29.247" y="118.73" width="21.272" height="11.88" style="fill:rgb(208,27,30);"/>
        </g>
        <g transform="matrix(1.13294,0,0,1.05255,-28.9117,-12.1028)">
            <rect x="42.542" y="106.86" width="10.635" height="5.94" style="fill:rgb(208,27,30);"/>
        </g>
        <g transform="matrix(1.13294,0,0,1.05255,-28.9117,-12.1028)">
            <rect x="26.588" y="106.86" width="10.636" height="5.94" style="fill:rgb(208,27,30);"/>
        </g>
        <g transform="matrix(1.13294,0,0,1.05255,-28.9117,-12.1028)">
            <rect x="42.542" y="136.54" width="10.635" height="5.94" style="fill:rgb(208,27,30);"/>
        </g>
        <g transform="matrix(1.13294,0,0,1.05255,-28.9117,-12.1028)">
            <rect x="26.588" y="136.54" width="10.636" height="5.94" style="fill:rgb(208,27,30);"/>
        </g>
        <g transform="matrix(1.13294,0,0,1.05255,-28.9117,-12.1028)">
            <rect x="55.835" y="118.73" width="21.272" height="11.88" style="fill:rgb(208,27,30);"/>
        </g>
        <g transform="matrix(1.13294,0,0,1.05255,-28.9117,-12.1028)">
            <rect x="53.177" y="106.86" width="10.636" height="5.94" style="fill:rgb(208,27,30);"/>
        </g>
        <g transform="matrix(1.13294,0,0,1.05255,-28.9117,-12.1028)">
            <rect x="53.177" y="136.54" width="10.636" height="5.94" style="fill:rgb(208,27,30);"/>
        </g>
        <g transform="matrix(1.13294,0,0,1.05255,-28.9117,-12.1028)">
            <rect x="374.9" y="118.73" width="21.27" height="11.88" style="fill:rgb(208,27,30);"/>
        </g>
        <g transform="matrix(1.13294,0,0,1.05255,-28.9117,-12.1028)">
            <rect x="388.19" y="106.86" width="10.63" height="5.94" style="fill:rgb(208,27,30);"/>
        </g>
        <g transform="matrix(1.13294,0,0,1.05255,-28.9117,-12.1028)">
            <rect x="388.19" y="136.54" width="10.63" height="5.94" style="fill:rgb(208,27,30);"/>
        </g>
        <g transform="matrix(1.13294,0,0,1.05255,-28.9117,-12.1028)">
            <rect x="401.48" y="118.73" width="21.27" height="11.88" style="fill:rgb(208,27,30);"/>
        </g>
        <g transform="matrix(1.13294,0,0,1.05255,-28.9117,-12.1028)">
            <rect x="414.78" y="106.86" width="10.63" height="5.94" style="fill:rgb(208,27,30);"/>
        </g>
        <g transform="matrix(1.13294,0,0,1.05255,-28.9117,-12.1028)">
            <rect x="398.82" y="106.86" width="10.64" height="5.94" style="fill:rgb(208,27,30);"/>
        </g>
        <g transform="matrix(1.13294,0,0,1.05255,-28.9117,-12.1028)">
            <rect x="414.78" y="136.54" width="10.63" height="5.94" style="fill:rgb(208,27,30);"/>
        </g>
        <g transform="matrix(1.13294,0,0,1.05255,-28.9117,-12.1028)">
            <rect x="398.82" y="136.54" width="10.64" height="5.94" style="fill:rgb(208,27,30);"/>
        </g>
        <g transform="matrix(1.13294,0,0,1.05255,-28.9117,-12.1028)">
            <rect x="425.41" y="106.86" width="10.64" height="5.94" style="fill:rgb(208,27,30);"/>
        </g>
        <g transform="matrix(1.13294,0,0,1.05255,-28.9117,-12.1028)">
            <rect x="425.41" y="136.54" width="10.64" height="5.94" style="fill:rgb(208,27,30);"/>
        </g>
        <g transform="matrix(1.13294,0,0,1.05255,-28.9117,-12.1028)">
            <rect x="15.954" y="71.24" width="10.634" height="5.937" style="fill:rgb(208,27,30);"/>
        </g>
        <g transform="matrix(1.13294,0,0,1.05255,-28.9117,-12.1028)">
            <rect x="15.954" y="100.92" width="10.634" height="5.94" style="fill:rgb(208,27,30);"/>
        </g>
        <g transform="matrix(1.13294,0,0,1.05255,-28.9117,-12.1028)">
            <rect x="29.247" y="83.113" width="21.272" height="11.874" style="fill:rgb(208,27,30);"/>
        </g>
        <g transform="matrix(1.13294,0,0,1.05255,-28.9117,-12.1028)">
            <rect x="42.542" y="71.24" width="10.635" height="5.937" style="fill:rgb(208,27,30);"/>
        </g>
        <g transform="matrix(1.13294,0,0,1.05255,-28.9117,-12.1028)">
            <rect x="26.588" y="71.24" width="10.636" height="5.937" style="fill:rgb(208,27,30);"/>
        </g>
        <g transform="matrix(1.13294,0,0,1.05255,-28.9117,-12.1028)">
            <rect x="42.542" y="100.92" width="10.635" height="5.94" style="fill:rgb(208,27,30);"/>
        </g>
        <g transform="matrix(1.13294,0,0,1.05255,-28.9117,-12.1028)">
            <rect x="26.588" y="100.92" width="10.636" height="5.94" style="fill:rgb(208,27,30);"/>
        </g>
        <g transform="matrix(1.13294,0,0,1.05255,-28.9117,-12.1028)">
            <rect x="55.835" y="83.113" width="21.272" height="11.874" style="fill:rgb(208,27,30);"/>
        </g>
        <g transform="matrix(1.13294,0,0,1.05255,-28.9117,-12.1028)">
            <rect x="53.177" y="71.24" width="10.636" height="5.937" style="fill:rgb(208,27,30);"/>
        </g>
        <g transform="matrix(1.13294,0,0,1.05255,-28.9117,-12.1028)">
            <rect x="53.177" y="100.92" width="10.636" height="5.94" style="fill:rgb(208,27,30);"/>
        </g>
        <g transform="matrix(1.13294,0,0,1.05255,-28.9117,-12.1028)">
            <rect x="374.9" y="83.113" width="21.27" height="11.874" style="fill:rgb(208,27,30);"/>
        </g>
        <g transform="matrix(1.13294,0,0,1.05255,-28.9117,-12.1028)">
            <rect x="388.19" y="71.24" width="10.63" height="5.937" style="fill:rgb(208,27,30);"/>
        </g>
        <g transform="matrix(1.13294,0,0,1.05255,-28.9117,-12.1028)">
            <rect x="388.19" y="100.92" width="10.63" height="5.94" style="fill:rgb(208,27,30);"/>
        </g>
        <g transform="matrix(1.13294,0,0,1.05255,-28.9117,-12.1028)">
            <rect x="401.48" y="83.113" width="21.27" height="11.874" style="fill:rgb(208,27,30);"/>
        </g>
        <g transform="matrix(1.13294,0,0,1.05255,-28.9117,-12.1028)">
            <rect x="414.78" y="71.24" width="10.63" height="5.937" style="fill:rgb(208,27,30);"/>
        </g>
        <g transform="matrix(1.13294,0,0,1.05255,-28.9117,-12.1028)">
            <rect x="398.82" y="71.24" width="10.64" height="5.937" style="fill:rgb(208,27,30);"/>
        </g>
        <g transform="matrix(1.13294,0,0,1.05255,-28.9117,-12.1028)">
            <rect x="414.78" y="100.92" width="10.63" height="5.94" style="fill:rgb(208,27,30);"/>
        </g>
        <g transform="matrix(1.13294,0,0,1.05255,-28.9117,-12.1028)">
            <rect x="398.82" y="100.92" width="10.64" height="5.94" style="fill:rgb(208,27,30);"/>
        </g>
        <g transform="matrix(1.13294,0,0,1.05255,-28.9117,-12.1028)">
            <rect x="425.41" y="71.24" width="10.64" height="5.937" style="fill:rgb(208,27,30);"/>
        </g>
        <g transform="matrix(1.13294,0,0,1.05255,-28.9117,-12.1028)">
            <rect x="425.41" y="100.92" width="10.64" height="5.94" style="fill:rgb(208,27,30);"/>
        </g>
        <g transform="matrix(1.13294,0,0,1.05255,-28.9117,-12.1028)">
            <rect x="15.954" y="35.62" width="10.634" height="5.937" style="fill:rgb(208,27,30);"/>
        </g>
        <g transform="matrix(1.13294,0,0,1.05255,-28.9117,-12.1028)">
            <rect x="15.954" y="65.303" width="10.634" height="5.937" style="fill:rgb(208,27,30);"/>
        </g>
        <g transform="matrix(1.13294,0,0,1.05255,-28.9117,-12.1028)">
            <rect x="29.247" y="47.493" width="21.272" height="11.874" style="fill:rgb(208,27,30);"/>
        </g>
        <g transform="matrix(1.13294,0,0,1.05255,-28.9117,-12.1028)">
            <rect x="42.542" y="35.62" width="10.635" height="5.937" style="fill:rgb(208,27,30);"/>
        </g>
        <g transform="matrix(1.13294,0,0,1.05255,-28.9117,-12.1028)">
            <rect x="26.588" y="35.62" width="10.636" height="5.937" style="fill:rgb(208,27,30);"/>
        </g>
        <g transform="matrix(1.13294,0,0,1.05255,-28.9117,-12.1028)">
            <rect x="42.542" y="65.303" width="10.635" height="5.937" style="fill:rgb(208,27,30);"/>
        </g>
        <g transform="matrix(1.13294,0,0,1.05255,-28.9117,-12.1028)">
            <rect x="26.588" y="65.303" width="10.636" height="5.937" style="fill:rgb(208,27,30);"/>
        </g>
        <g transform="matrix(1.13294,0,0,1.05255,-28.9117,-12.1028)">
            <rect x="55.836" y="47.493" width="21.271" height="11.874" style="fill:rgb(208,27,30);"/>
        </g>
        <g transform="matrix(1.13294,0,0,1.05255,-28.9117,-12.1028)">
            <rect x="69.13" y="35.62" width="10.636" height="5.937" style="fill:rgb(208,27,30);"/>
        </g>
        <g transform="matrix(1.13294,0,0,1.05255,-28.9117,-12.1028)">
            <rect x="53.177" y="35.62" width="10.636" height="5.937" style="fill:rgb(208,27,30);"/>
        </g>
        <g transform="matrix(1.13294,0,0,1.05255,-28.9117,-12.1028)">
            <rect x="69.13" y="65.303" width="10.636" height="5.937" style="fill:rgb(208,27,30);"/>
        </g>
        <g transform="matrix(1.13294,0,0,1.05255,-28.9117,-12.1028)">
            <rect x="53.177" y="65.303" width="10.636" height="5.937" style="fill:rgb(208,27,30);"/>
        </g>
        <g transform="matrix(1.13294,0,0,1.05255,-28.9117,-12.1028)">
            <rect x="82.424" y="47.493" width="21.276" height="11.874" style="fill:rgb(208,27,30);"/>
        </g>
        <g transform="matrix(1.13294,0,0,1.05255,-28.9117,-12.1028)">
            <rect x="95.718" y="35.62" width="10.632" height="5.937" style="fill:rgb(208,27,30);"/>
        </g>
        <g transform="matrix(1.13294,0,0,1.05255,-28.9117,-12.1028)">
            <rect x="79.766" y="35.62" width="10.634" height="5.937" style="fill:rgb(208,27,30);"/>
        </g>
        <g transform="matrix(1.13294,0,0,1.05255,-28.9117,-12.1028)">
            <rect x="109.01" y="47.493" width="21.27" height="11.874" style="fill:rgb(208,27,30);"/>
        </g>
        <g transform="matrix(1.13294,0,0,1.05255,-28.9117,-12.1028)">
            <rect x="122.31" y="35.62" width="10.63" height="5.937" style="fill:rgb(208,27,30);"/>
        </g>
        <g transform="matrix(1.13294,0,0,1.05255,-28.9117,-12.1028)">
            <rect x="106.35" y="35.62" width="10.64" height="5.937" style="fill:rgb(208,27,30);"/>
        </g>
        <g transform="matrix(1.13294,0,0,1.05255,-28.9117,-12.1028)">
            <rect x="135.6" y="47.493" width="21.27" height="11.874" style="fill:rgb(208,27,30);"/>
        </g>
        <g transform="matrix(1.13294,0,0,1.05255,-28.9117,-12.1028)">
            <rect x="148.9" y="35.62" width="10.63" height="5.937" style="fill:rgb(208,27,30);"/>
        </g>
        <g transform="matrix(1.13294,0,0,1.05255,-28.9117,-12.1028)">
            <rect x="132.94" y="35.62" width="10.64" height="5.937" style="fill:rgb(208,27,30);"/>
        </g>
        <g transform="matrix(1.13294,0,0,1.05255,-28.9117,-12.1028)">
            <rect x="162.19" y="47.493" width="21.27" height="11.874" style="fill:rgb(208,27,30);"/>
        </g>
        <g transform="matrix(1.13294,0,0,1.05255,-28.9117,-12.1028)">
            <rect x="175.48" y="35.62" width="10.64" height="5.937" style="fill:rgb(208,27,30);"/>
        </g>
        <g transform="matrix(1.13294,0,0,1.05255,-28.9117,-12.1028)">
            <rect x="159.53" y="35.62" width="10.63" height="5.937" style="fill:rgb(208,27,30);"/>
        </g>
        <g transform="matrix(1.13294,0,0,1.05255,-28.9117,-12.1028)">
            <rect x="188.78" y="47.493" width="21.27" height="11.874" style="fill:rgb(208,27,30);"/>
        </g>
        <g transform="matrix(1.13294,0,0,1.05255,-28.9117,-12.1028)">
            <rect x="202.07" y="35.62" width="10.64" height="5.937" style="fill:rgb(208,27,30);"/>
        </g>
        <g transform="matrix(1.13294,0,0,1.05255,-28.9117,-12.1028)">
            <rect x="186.12" y="35.62" width="10.63" height="5.937" style="fill:rgb(208,27,30);"/>
        </g>
        <g transform="matrix(1.13294,0,0,1.05255,-28.9117,-12.1028)">
            <rect x="215.36" y="47.493" width="21.28" height="11.874" style="fill:rgb(208,27,30);"/>
        </g>
        <g transform="matrix(1.13294,0,0,1.05255,-28.9117,-12.1028)">
            <rect x="228.66" y="35.62" width="10.64" height="5.937" style="fill:rgb(208,27,30);"/>
        </g>
        <g transform="matrix(1.13294,0,0,1.05255,-28.9117,-12.1028)">
            <rect x="212.71" y="35.62" width="10.63" height="5.937" style="fill:rgb(208,27,30);"/>
        </g>
        <g transform="matrix(1.13294,0,0,1.05255,-28.9117,-12.1028)">
            <rect x="241.95" y="47.493" width="21.27" height="11.874" style="fill:rgb(208,27,30);"/>
        </g>
        <g transform="matrix(1.13294,0,0,1.05255,-28.9117,-12.1028)">
            <rect x="255.25" y="35.62" width="10.63" height="5.937" style="fill:rgb(208,27,30);"/>
        </g>
        <g transform="matrix(1.13294,0,0,1.05255,-28.9117,-12.1028)">
            <rect x="239.3" y="35.62" width="10.63" height="5.937" style="fill:rgb(208,27,30);"/>
        </g>
        <g transform="matrix(1.13294,0,0,1.05255,-28.9117,-12.1028)">
            <rect x="268.54" y="47.493" width="21.27" height="11.874" style="fill:rgb(208,27,30);"/>
        </g>
        <g transform="matrix(1.13294,0,0,1.05255,-28.9117,-12.1028)">
            <rect x="281.84" y="35.62" width="10.63" height="5.937" style="fill:rgb(208,27,30);"/>
        </g>
        <g transform="matrix(1.13294,0,0,1.05255,-28.9117,-12.1028)">
            <rect x="265.88" y="35.62" width="10.64" height="5.937" style="fill:rgb(208,27,30);"/>
        </g>
        <g transform="matrix(1.13294,0,0,1.05255,-28.9117,-12.1028)">
            <rect x="295.13" y="47.493" width="21.27" height="11.874" style="fill:rgb(208,27,30);"/>
        </g>
        <g transform="matrix(1.13294,0,0,1.05255,-28.9117,-12.1028)">
            <rect x="308.42" y="35.62" width="10.64" height="5.937" style="fill:rgb(208,27,30);"/>
        </g>
        <g transform="matrix(1.13294,0,0,1.05255,-28.9117,-12.1028)">
            <rect x="292.47" y="35.62" width="10.64" height="5.937" style="fill:rgb(208,27,30);"/>
        </g>
        <g transform="matrix(1.13294,0,0,1.05255,-28.9117,-12.1028)">
            <rect x="321.72" y="47.493" width="21.27" height="11.874" style="fill:rgb(208,27,30);"/>
        </g>
        <g transform="matrix(1.13294,0,0,1.05255,-28.9117,-12.1028)">
            <rect x="335.01" y="35.62" width="10.64" height="5.937" style="fill:rgb(208,27,30);"/>
        </g>
        <g transform="matrix(1.13294,0,0,1.05255,-28.9117,-12.1028)">
            <rect x="319.06" y="35.62" width="10.64" height="5.937" style="fill:rgb(208,27,30);"/>
        </g>
        <g transform="matrix(1.13294,0,0,1.05255,-28.9117,-12.1028)">
            <rect x="348.31" y="47.493" width="21.27" height="11.874" style="fill:rgb(208,27,30);"/>
        </g>
        <g transform="matrix(1.13294,0,0,1.05255,-28.9117,-12.1028)">
            <rect x="361.6" y="35.62" width="10.64" height="5.937" style="fill:rgb(208,27,30);"/>
        </g>
        <g transform="matrix(1.13294,0,0,1.05255,-28.9117,-12.1028)">
            <rect x="345.65" y="35.62" width="10.63" height="5.937" style="fill:rgb(208,27,30);"/>
        </g>
        <g transform="matrix(1.13294,0,0,1.05255,-28.9117,-12.1028)">
            <rect x="374.9" y="47.493" width="21.27" height="11.874" style="fill:rgb(208,27,30);"/>
        </g>
        <g transform="matrix(1.13294,0,0,1.05255,-28.9117,-12.1028)">
            <rect x="388.19" y="35.62" width="10.63" height="5.937" style="fill:rgb(208,27,30);"/>
        </g>
        <g transform="matrix(1.13294,0,0,1.05255,-28.9117,-12.1028)">
            <rect x="372.24" y="35.62" width="10.63" height="5.937" style="fill:rgb(208,27,30);"/>
        </g>
        <g transform="matrix(1.13294,0,0,1.05255,-28.9117,-12.1028)">
            <rect x="388.19" y="65.303" width="10.63" height="5.937" style="fill:rgb(208,27,30);"/>
        </g>
        <g transform="matrix(1.13294,0,0,1.05255,-28.9117,-12.1028)">
            <rect x="372.24" y="65.303" width="10.63" height="5.937" style="fill:rgb(208,27,30);"/>
        </g>
        <g transform="matrix(1.13294,0,0,1.05255,-28.9117,-12.1028)">
            <rect x="401.48" y="47.493" width="21.27" height="11.874" style="fill:rgb(208,27,30);"/>
        </g>
        <g transform="matrix(1.13294,0,0,1.05255,-28.9117,-12.1028)">
            <rect x="414.78" y="35.62" width="10.63" height="5.937" style="fill:rgb(208,27,30);"/>
        </g>
        <g transform="matrix(1.13294,0,0,1.05255,-28.9117,-12.1028)">
            <rect x="398.82" y="35.62" width="10.64" height="5.937" style="fill:rgb(208,27,30);"/>
        </g>
        <g transform="matrix(1.13294,0,0,1.05255,-28.9117,-12.1028)">
            <rect x="414.78" y="65.303" width="10.63" height="5.937" style="fill:rgb(208,27,30);"/>
        </g>
        <g transform="matrix(1.13294,0,0,1.05255,-28.9117,-12.1028)">
            <rect x="398.82" y="65.303" width="10.64" height="5.937" style="fill:rgb(208,27,30);"/>
        </g>
        <g transform="matrix(1.13294,0,0,1.05255,-28.9117,-12.1028)">
            <rect x="425.41" y="35.62" width="10.64" height="5.937" style="fill:rgb(208,27,30);"/>
        </g>
        <g transform="matrix(1.13294,0,0,1.05255,-28.9117,-12.1028)">
            <rect x="425.41" y="65.303" width="10.64" height="5.937" style="fill:rgb(208,27,30);"/>
        </g>
        <g transform="matrix(1.13294,0,0,1.05255,-28.9117,-12.1028)">
            <rect x="15.954" y="29.683" width="10.635" height="5.937" style="fill:rgb(208,27,30);"/>
        </g>
        <g transform="matrix(1.13294,0,0,1.05255,-28.9117,-12.1028)">
            <rect x="29.247" y="11.873" width="21.272" height="11.874" style="fill:rgb(208,27,30);"/>
        </g>
        <g transform="matrix(1.13294,0,0,1.05255,-28.9117,-12.1028)">
            <rect x="42.542" y="29.683" width="10.635" height="5.937" style="fill:rgb(208,27,30);"/>
        </g>
        <g transform="matrix(1.13294,0,0,1.05255,-28.9117,-12.1028)">
            <rect x="26.589" y="29.683" width="10.635" height="5.937" style="fill:rgb(208,27,30);"/>
        </g>
        <g transform="matrix(1.13294,0,0,1.05255,-28.9117,-12.1028)">
            <rect x="55.836" y="11.873" width="21.271" height="11.874" style="fill:rgb(208,27,30);"/>
        </g>
        <g transform="matrix(1.13294,0,0,1.05255,-28.9117,-12.1028)">
            <rect x="69.13" y="29.683" width="10.636" height="5.937" style="fill:rgb(208,27,30);"/>
        </g>
        <g transform="matrix(1.13294,0,0,1.05255,-28.9117,-12.1028)">
            <rect x="53.177" y="29.683" width="10.636" height="5.937" style="fill:rgb(208,27,30);"/>
        </g>
        <g transform="matrix(1.13294,0,0,1.05255,-28.9117,-12.1028)">
            <rect x="82.424" y="11.873" width="21.276" height="11.874" style="fill:rgb(208,27,30);"/>
        </g>
        <g transform="matrix(1.13294,0,0,1.05255,-28.9117,-12.1028)">
            <rect x="95.718" y="29.683" width="10.632" height="5.937" style="fill:rgb(208,27,30);"/>
        </g>
        <g transform="matrix(1.13294,0,0,1.05255,-28.9117,-12.1028)">
            <rect x="79.766" y="29.683" width="10.634" height="5.937" style="fill:rgb(208,27,30);"/>
        </g>
        <g transform="matrix(1.13294,0,0,1.05255,-28.9117,-12.1028)">
            <rect x="109.01" y="11.873" width="21.27" height="11.874" style="fill:rgb(208,27,30);"/>
        </g>
        <g transform="matrix(1.13294,0,0,1.05255,-28.9117,-12.1028)">
            <rect x="122.31" y="29.683" width="10.63" height="5.937" style="fill:rgb(208,27,30);"/>
        </g>
        <g transform="matrix(1.13294,0,0,1.05255,-28.9117,-12.1028)">
            <rect x="106.35" y="29.683" width="10.64" height="5.937" style="fill:rgb(208,27,30);"/>
        </g>
        <g transform="matrix(1.13294,0,0,1.05255,-28.9117,-12.1028)">
            <rect x="135.6" y="11.873" width="21.27" height="11.874" style="fill:rgb(208,27,30);"/>
        </g>
        <g transform="matrix(1.13294,0,0,1.05255,-28.9117,-12.1028)">
            <rect x="148.9" y="29.683" width="10.63" height="5.937" style="fill:rgb(208,27,30);"/>
        </g>
        <g transform="matrix(1.13294,0,0,1.05255,-28.9117,-12.1028)">
            <rect x="132.94" y="29.683" width="10.64" height="5.937" style="fill:rgb(208,27,30);"/>
        </g>
        <g transform="matrix(1.13294,0,0,1.05255,-28.9117,-12.1028)">
            <rect x="162.19" y="11.873" width="21.27" height="11.874" style="fill:rgb(208,27,30);"/>
        </g>
        <g transform="matrix(1.13294,0,0,1.05255,-28.9117,-12.1028)">
            <rect x="175.48" y="29.683" width="10.64" height="5.937" style="fill:rgb(208,27,30);"/>
        </g>
        <g transform="matrix(1.13294,0,0,1.05255,-28.9117,-12.1028)">
            <rect x="159.53" y="29.683" width="10.63" height="5.937" style="fill:rgb(208,27,30);"/>
        </g>
        <g transform="matrix(1.13294,0,0,1.05255,-28.9117,-12.1028)">
            <rect x="188.78" y="11.873" width="21.27" height="11.874" style="fill:rgb(208,27,30);"/>
        </g>
        <g transform="matrix(1.13294,0,0,1.05255,-28.9117,-12.1028)">
            <rect x="202.07" y="29.683" width="10.64" height="5.937" style="fill:rgb(208,27,30);"/>
        </g>
        <g transform="matrix(1.13294,0,0,1.05255,-28.9117,-12.1028)">
            <rect x="186.12" y="29.683" width="10.63" height="5.937" style="fill:rgb(208,27,30);"/>
        </g>
        <g transform="matrix(1.13294,0,0,1.05255,-28.9117,-12.1028)">
            <rect x="215.36" y="11.873" width="21.28" height="11.874" style="fill:rgb(208,27,30);"/>
        </g>
        <g transform="matrix(1.13294,0,0,1.05255,-28.9117,-12.1028)">
            <rect x="228.66" y="29.683" width="10.64" height="5.937" style="fill:rgb(208,27,30);"/>
        </g>
        <g transform="matrix(1.13294,0,0,1.05255,-28.9117,-12.1028)">
            <rect x="212.71" y="29.683" width="10.63" height="5.937" style="fill:rgb(208,27,30);"/>
        </g>
        <g transform="matrix(1.13294,0,0,1.05255,-28.9117,-12.1028)">
            <rect x="241.95" y="11.873" width="21.27" height="11.874" style="fill:rgb(208,27,30);"/>
        </g>
        <g transform="matrix(1.13294,0,0,1.05255,-28.9117,-12.1028)">
            <rect x="255.25" y="29.683" width="10.63" height="5.937" style="fill:rgb(208,27,30);"/>
        </g>
        <g transform="matrix(1.13294,0,0,1.05255,-28.9117,-12.1028)">
            <rect x="239.3" y="29.683" width="10.63" height="5.937" style="fill:rgb(208,27,30);"/>
        </g>
        <g transform="matrix(1.13294,0,0,1.05255,-28.9117,-12.1028)">
            <rect x="268.54" y="11.873" width="21.27" height="11.874" style="fill:rgb(208,27,30);"/>
        </g>
        <g transform="matrix(1.13294,0,0,1.05255,-28.9117,-12.1028)">
            <rect x="281.84" y="29.683" width="10.63" height="5.937" style="fill:rgb(208,27,30);"/>
        </g>
        <g transform="matrix(1.13294,0,0,1.05255,-28.9117,-12.1028)">
            <rect x="265.88" y="29.683" width="10.64" height="5.937" style="fill:rgb(208,27,30);"/>
        </g>
        <g transform="matrix(1.13294,0,0,1.05255,-28.9117,-12.1028)">
            <rect x="295.13" y="11.873" width="21.27" height="11.874" style="fill:rgb(208,27,30);"/>
        </g>
        <g transform="matrix(1.13294,0,0,1.05255,-28.9117,-12.1028)">
            <rect x="308.42" y="29.683" width="10.64" height="5.937" style="fill:rgb(208,27,30);"/>
        </g>
        <g transform="matrix(1.13294,0,0,1.05255,-28.9117,-12.1028)">
            <rect x="292.47" y="29.683" width="10.64" height="5.937" style="fill:rgb(208,27,30);"/>
        </g>
        <g transform="matrix(1.13294,0,0,1.05255,-28.9117,-12.1028)">
            <rect x="321.72" y="11.873" width="21.27" height="11.874" style="fill:rgb(208,27,30);"/>
        </g>
        <g transform="matrix(1.13294,0,0,1.05255,-28.9117,-12.1028)">
            <rect x="335.01" y="29.683" width="10.64" height="5.937" style="fill:rgb(208,27,30);"/>
        </g>
        <g transform="matrix(1.13294,0,0,1.05255,-28.9117,-12.1028)">
            <rect x="319.06" y="29.683" width="10.64" height="5.937" style="fill:rgb(208,27,30);"/>
        </g>
        <g transform="matrix(1.13294,0,0,1.05255,-28.9117,-12.1028)">
            <rect x="348.31" y="11.873" width="21.27" height="11.874" style="fill:rgb(208,27,30);"/>
        </g>
        <g transform="matrix(1.13294,0,0,1.05255,-28.9117,-12.1028)">
            <rect x="361.6" y="29.683" width="10.64" height="5.937" style="fill:rgb(208,27,30);"/>
        </g>
        <g transform="matrix(1.13294,0,0,1.05255,-28.9117,-12.1028)">
            <rect x="345.65" y="29.683" width="10.63" height="5.937" style="fill:rgb(208,27,30);"/>
        </g>
        <g transform="matrix(1.13294,0,0,1.05255,-28.9117,-12.1028)">
            <rect x="374.9" y="11.873" width="21.27" height="11.874" style="fill:rgb(208,27,30);"/>
        </g>
        <g transform="matrix(1.13294,0,0,1.05255,-28.9117,-12.1028)">
            <rect x="388.19" y="29.683" width="10.63" height="5.937" style="fill:rgb(208,27,30);"/>
        </g>
        <g transform="matrix(1.13294,0,0,1.05255,-28.9117,-12.1028)">
            <rect x="372.24" y="29.683" width="10.63" height="5.937" style="fill:rgb(208,27,30);"/>
        </g>
        <g transform="matrix(1.13294,0,0,1.05255,-28.9117,-12.1028)">
            <rect x="401.48" y="11.873" width="21.27" height="11.874" style="fill:rgb(208,27,30);"/>
        </g>
        <g transform="matrix(1.13294,0,0,1.05255,-28.9117,-12.1028)">
            <rect x="414.78" y="29.683" width="10.63" height="5.937" style="fill:rgb(208,27,30);"/>
        </g>
        <g transform="matrix(1.13294,0,0,1.05255,-28.9117,-12.1028)">
            <rect x="398.82" y="29.683" width="10.64" height="5.937" style="fill:rgb(208,27,30);"/>
        </g>
        <g transform="matrix(1.13294,0,0,1.05255,-28.9117,-12.1028)">
            <rect x="425.41" y="29.683" width="10.64" height="5.937" style="fill:rgb(208,27,30);"/>
        </g>
    </g>
    <g transform="matrix(1.00495,0,0,1.02425,0.0537013,-0.00955696)">
        <g transform="matrix(1.12735,0,0,1.02762,-28.8226,-11.8069)">
            <path d="M26.59,427.44L425.57,427.44L425.57,14.25L26.59,14.25L26.59,427.44ZM384.08,381.13L68.08,381.13L68.08,60.55L384.08,60.55L384.08,381.13Z" style="fill:none;fill-rule:nonzero;"/>
        </g>
        <g transform="matrix(1.12735,0,0,1.02762,-28.8226,-11.8069)">
            <path d="M68.08,381.13L384.08,381.13L384.08,60.55L68.08,60.55L68.08,381.13ZM217.85,81.93L217.85,359.77L194.686,359.77L194.686,81.93L217.846,81.93L217.846,81.926L217.85,81.93ZM230.62,359.76L230.62,81.93L255.016,81.93L255.016,359.77L230.616,359.77L230.616,359.76L230.62,359.76ZM293.57,81.926L293.57,359.77L267.78,359.77L267.78,81.93L293.57,81.93L293.57,81.926ZM306.34,359.76L306.34,81.93L329.599,81.93L329.599,359.77L306.339,359.77L306.339,359.76L306.34,359.76ZM181.92,81.926L181.92,359.77L156.76,359.77L156.76,81.93L181.92,81.93L181.92,81.926ZM143.99,81.93L143.99,359.77L122.627,359.77L122.627,81.93L143.987,81.93L143.987,81.926L143.99,81.93ZM109.86,81.926L109.86,359.77L87.234,359.77L87.234,81.93L109.86,81.93L109.86,81.926ZM342.36,359.76L342.36,81.93L364.923,81.93L364.923,359.77L342.363,359.77L342.363,359.76L342.36,359.76ZM305.89,81.37L305.89,358.71L296.315,358.71L296.315,81.37L305.885,81.37L305.885,81.367L305.89,81.37Z"/>
        </g>
        <g transform="matrix(1.12735,0,0,1.02762,-28.8226,-11.8069)">
            <path d="M68.08,381.13L384.08,381.13L384.08,60.55L68.08,60.55L68.08,381.13ZM217.85,81.93L217.85,359.77L194.686,359.77L194.686,81.93L217.846,81.93L217.846,81.926L217.85,81.93ZM230.62,359.76L230.62,81.93L255.016,81.93L255.016,359.77L230.616,359.77L230.616,359.76L230.62,359.76ZM293.57,81.926L293.57,359.77L267.78,359.77L267.78,81.93L293.57,81.93L293.57,81.926ZM306.33,359.77L306.33,81.93L329.59,81.93L329.59,359.77L306.33,359.77ZM181.92,81.926L181.92,359.77L156.76,359.77L156.76,81.93L181.92,81.93L181.92,81.926ZM143.99,81.93L143.99,359.77L122.627,359.77L122.627,81.93L143.987,81.93L143.987,81.926L143.99,81.93ZM109.86,81.926L109.86,359.77L87.234,359.77L87.234,81.93L109.86,81.93L109.86,81.926ZM342.36,359.76L342.36,81.93L364.923,81.93L364.923,359.77L342.363,359.77L342.363,359.76L342.36,359.76ZM305.89,81.37L305.89,358.71L296.315,358.71L296.315,81.37L305.885,81.37L305.885,81.367L305.89,81.37Z" style="fill:none;fill-rule:nonzero;"/>
        </g>
        <g transform="matrix(1.12735,0,0,1.02762,-28.8226,-11.8069)">
            <rect x="332.34" y="83.482" width="9.58" height="277.338" style="fill:none;fill-rule:nonzero;"/>
        </g>
        <g transform="matrix(1.12735,0,0,1.02762,-28.8226,-11.8069)">
            <rect x="257.45" y="81.367" width="9.57" height="277.333" style="fill:none;fill-rule:nonzero;"/>
        </g>
        <g transform="matrix(1.12735,0,0,1.02762,-28.8226,-11.8069)">
            <rect x="220.47" y="81.367" width="9.58" height="277.333" style="fill:none;fill-rule:nonzero;"/>
        </g>
        <g transform="matrix(1.12735,0,0,1.02762,-28.8226,-11.8069)">
            <rect x="184.44" y="81.367" width="9.58" height="277.333" style="fill:none;fill-rule:nonzero;"/>
        </g>
        <g transform="matrix(1.12735,0,0,1.02762,-28.8226,-11.8069)">
            <rect x="146.52" y="82.425" width="9.58" height="277.335" style="fill:none;fill-rule:nonzero;"/>
        </g>
        <g transform="matrix(1.12735,0,0,1.02762,-28.8226,-11.8069)">
            <rect x="112.39" y="81.367" width="9.57" height="277.333" style="fill:none;fill-rule:nonzero;"/>
        </g>
        <g transform="matrix(1.12735,0,0,1.02762,-28.8226,-11.8069)">
            <rect x="296.32" y="81.367" width="9.57" height="277.333" style="fill:rgb(2,0,0);fill-rule:nonzero;"/>
        </g>
    </g>
</svg>
