<?xml version="1.0" encoding="UTF-8" standalone="no"?>
<!DOCTYPE svg PUBLIC "-//W3C//DTD SVG 1.1//EN" "http://www.w3.org/Graphics/SVG/1.1/DTD/svg11.dtd">
<svg width="100%" height="100%" viewBox="0 0 823 842" version="1.1" xmlns="http://www.w3.org/2000/svg" xmlns:xlink="http://www.w3.org/1999/xlink" xml:space="preserve" xmlns:serif="http://www.serif.com/" style="fill-rule:evenodd;clip-rule:evenodd;stroke-linecap:square;stroke-miterlimit:10;">
    <g transform="matrix(3.94161,0,0,4.67986,-1208.22,-1548.83)">
        <path d="M395.026,420.621" style="fill:none;fill-rule:nonzero;stroke:black;stroke-width:1.25px;"/>
    </g>
    <g transform="matrix(3.94161,0,0,4.67986,-1208.22,-1548.83)">
        <path d="M404.776,419.871" style="fill:none;fill-rule:nonzero;stroke:black;stroke-width:1.25px;"/>
    </g>
    <g transform="matrix(3.94161,0,0,4.67986,-1208.22,-1548.83)">
        <path d="M341.026,359.871C339.797,368.694 328.17,416.397 334.401,420.082C357.109,433.513 379.818,446.942 402.526,460.373C401.661,434.428 400.797,408.483 399.932,382.538C399.152,359.153 361.314,363.512 341.026,359.871Z" style="fill:rgb(247,246,25);stroke:black;stroke-width:1.25px;"/>
    </g>
    <g transform="matrix(3.94161,0,0,4.67986,-1208.22,-1548.83)">
        <path d="M352.276,334.371C350.061,351.289 329.609,362.264 312.526,358.371C318.026,365.871 323.526,373.371 329.026,380.871C332.451,364.051 349.436,354.333 365.776,360.621C361.276,351.871 356.776,343.121 352.276,334.371Z" style="fill:rgb(29,14,130);stroke:black;stroke-width:1.25px;"/>
    </g>
    <g transform="matrix(3.94161,0,0,4.67986,-1208.22,-1548.83)">
        <path d="M404.026,349.371C403.912,354.871 403.526,360.374 403.276,365.871C396.061,369.65 391.012,372.177 380.776,377.121C385.263,382.055 392.936,388.153 398.776,391.371C397.747,375.92 405.49,368.194 420.524,367.371C415.3,361.67 410.218,353.962 404.026,349.371Z" style="fill:rgb(248,19,13);stroke:black;stroke-width:1.25px;"/>
    </g>
    <g transform="matrix(3.94161,0,0,4.67986,-1208.22,-1548.83)">
        <path d="M333.526,393.621C326.27,396.275 319.251,401.778 312.526,405.621C327.303,409.673 335.896,429.722 332.776,444.623C338.601,441.413 346.436,434.671 350.776,429.623C335.386,423.275 329.833,410.143 333.526,393.621Z" style="fill:rgb(248,19,13);stroke:black;stroke-width:1.25px;"/>
    </g>
    <g transform="matrix(3.94161,0,0,4.67986,-1208.22,-1548.83)">
        <path d="M365.026,398.121C376.507,396.12 388.703,410.561 374.026,416.121C358.573,421.974 356.073,406.618 365.026,398.121Z" style="fill:rgb(248,19,13);stroke:black;stroke-width:1.25px;"/>
    </g>
    <g transform="matrix(3.94161,0,0,4.67986,-1208.22,-1548.83)">
        <path d="M353.776,397.371C346.85,404.212 346.932,404.131 353.776,397.371Z" style="stroke:black;stroke-width:1.25px;"/>
    </g>
    <g transform="matrix(3.94161,0,0,4.67986,-1208.22,-1548.83)">
        <path d="M375.526,383.121C369.922,390.366 369.75,390.589 375.526,383.121Z" style="stroke:black;stroke-width:1.25px;"/>
    </g>
    <g transform="matrix(3.94161,0,0,4.67986,-1208.22,-1548.83)">
        <path d="M390.526,411.621C396.31,432.116 379.635,443.074 364.276,428.123C375.941,427.439 386.043,422.344 390.526,411.621Z" style="fill:white;stroke:black;stroke-width:1.25px;"/>
    </g>
    <g transform="matrix(3.94161,0,0,4.67986,-1208.22,-1548.83)">
        <path d="M401.776,458.873C451.935,551.739 502.955,446.145 494.778,385.371" style="fill:none;fill-rule:nonzero;stroke:black;stroke-width:1.25px;"/>
    </g>
    <g transform="matrix(3.94161,0,0,4.67986,-1208.22,-1548.83)">
        <path d="M403.276,452.873C397,457.662 394.809,461.387 386.776,467.873C391.459,470.871 399.291,473.67 404.776,474.623C401.233,462.435 405.566,454.215 417.524,449.873C413.02,446.168 405.812,441.934 400.276,440.123C401.276,444.373 402.276,448.623 403.276,452.873Z" style="fill:rgb(248,19,13);stroke:black;stroke-width:1.25px;"/>
    </g>
    <g transform="matrix(3.94161,0,0,4.67986,-1208.22,-1548.83)">
        <path d="M432.528,477.623C432.306,489.326 425.33,494.902 413.026,497.123C415.927,501.053 421.552,505.914 425.778,508.373C426.491,496.63 432.89,490.792 444.528,491.123C440.689,486.804 437.135,481.062 432.528,477.623Z" style="fill:rgb(29,14,130);stroke:black;stroke-width:1.25px;"/>
    </g>
    <g transform="matrix(3.94161,0,0,4.67986,-1208.22,-1548.83)">
        <path d="M455.028,474.623C466.724,481.61 468.757,491.784 464.028,505.373C469.706,504.579 477.874,501.596 482.778,498.623C471.264,491.579 468.451,481.546 475.278,470.123C468.768,471.569 461.122,471.985 455.028,474.623Z" style="fill:rgb(248,19,13);stroke:black;stroke-width:1.25px;"/>
    </g>
    <g transform="matrix(3.94161,0,0,4.67986,-1208.22,-1548.83)">
        <path d="M474.528,447.623C485.665,449.646 490.599,456.613 491.778,468.623C495.818,466.155 501.039,461.235 503.778,457.373C492.259,455.736 487.256,448.845 488.778,437.123C484.206,440.492 478.342,443.451 474.528,447.623Z" style="fill:rgb(247,246,25);stroke:black;stroke-width:1.25px;"/>
    </g>
    <g transform="matrix(3.94161,0,0,4.67986,-1208.22,-1548.83)">
        <path d="M481.278,417.621C491.338,411.323 500.047,413.1 508.278,422.121C509.714,417.584 510.258,410.362 509.778,405.621C500.01,411.417 491.672,409.668 485.028,400.371C483.826,405.898 481.367,411.991 481.278,417.621Z" style="fill:rgb(29,14,130);stroke:black;stroke-width:1.25px;"/>
    </g>
</svg>
