<?xml version="1.0" encoding="UTF-8" standalone="no"?>
<!DOCTYPE svg PUBLIC "-//W3C//DTD SVG 1.1//EN" "http://www.w3.org/Graphics/SVG/1.1/DTD/svg11.dtd">
<svg width="100%" height="100%" viewBox="0 0 823 842" version="1.1" xmlns="http://www.w3.org/2000/svg" xmlns:xlink="http://www.w3.org/1999/xlink" xml:space="preserve" xmlns:serif="http://www.serif.com/" style="fill-rule:evenodd;clip-rule:evenodd;stroke-linecap:square;stroke-miterlimit:10;">
    <g transform="matrix(1.82289,0,0,2.38273,-311.581,-585.036)">
        <path d="M444.801,312.665C384.6,298.837 319.11,360.651 273.049,389.165C296.521,399.691 287.506,414.662 297.799,428.915C309.253,444.775 331.501,444.953 331.549,469.415C348.397,463.008 400.899,472.085 402.049,491.165C411.296,484.754 419.52,485.613 425.301,494.915C436.973,461.337 448.644,427.759 460.316,394.181C475.227,351.282 471.568,351.1 444.801,312.665Z" style="fill:rgb(238,44,36);stroke:black;stroke-width:2px;"/>
    </g>
    <g transform="matrix(1.82289,0,0,2.38273,-311.581,-585.036)">
        <path d="M481.551,276.665C482.285,308.906 448.551,308.943 448.551,276.665C448.551,244.387 482.285,244.424 481.551,276.665Z" style="fill:rgb(254,213,150);stroke:black;stroke-width:2px;"/>
    </g>
    <g transform="matrix(1.82289,0,0,2.38273,-311.581,-585.036)">
        <path d="M455.301,299.915C450.464,305.51 453.666,310.784 444.801,312.665C458.8,316.626 474.078,317.959 488.301,314.165C478.065,303.839 469.677,300.576 455.301,299.915Z" style="fill:rgb(254,213,150);stroke:black;stroke-width:2px;"/>
    </g>
    <g transform="matrix(1.82289,0,0,2.38273,-311.581,-585.036)">
        <path d="M441.051,314.165C383.348,308.858 399.191,402.157 401.299,436.415C425.227,432.919 422.521,388.963 426.051,369.665C453.014,378.648 438.495,434.404 437.653,454.345C436.721,476.388 423.033,495.832 420.051,517.415C416.925,540.039 430.384,571.324 416.301,590.915L447.801,590.915C408.723,569.215 453.888,479.732 471.051,452.915C470.52,480.024 463.082,499.571 461.051,525.526C459.551,544.692 458.051,563.859 456.551,583.026C455.562,595.666 477.759,591.434 488.301,592.415C460.571,560.062 481.151,531.298 488.676,491.165C494.386,460.714 499.832,431.903 501.801,401.165C502.916,383.754 504.563,366.368 506.231,348.97C508.39,326.452 537.506,351.15 548.301,339.665C560.502,326.684 537.486,251.615 539.301,322.415C501.271,308.897 477.724,320.455 441.051,314.165Z" style="fill:rgb(158,43,32);stroke:black;stroke-width:2px;"/>
    </g>
    <g transform="matrix(1.82289,0,0,2.38273,-311.581,-585.036)">
        <path d="M405.049,434.915C400.175,473.206 439.951,422.458 405.049,434.915Z" style="fill:rgb(254,213,150);stroke:black;stroke-width:2px;"/>
    </g>
    <g transform="matrix(1.82289,0,0,2.38273,-311.581,-585.036)">
        <path d="M535.551,293.915C523.888,293.799 521.235,287.135 525.051,275.915C539.389,276.349 549.413,284.597 535.551,293.915Z" style="fill:rgb(254,213,150);stroke:black;stroke-width:2px;"/>
    </g>
</svg>
