<?xml version="1.0" encoding="UTF-8" standalone="no"?>
<!DOCTYPE svg PUBLIC "-//W3C//DTD SVG 1.1//EN" "http://www.w3.org/Graphics/SVG/1.1/DTD/svg11.dtd">
<svg width="100%" height="100%" viewBox="0 0 1021 691" version="1.1" xmlns="http://www.w3.org/2000/svg" xmlns:xlink="http://www.w3.org/1999/xlink" xml:space="preserve" xmlns:serif="http://www.serif.com/" style="fill-rule:evenodd;clip-rule:evenodd;stroke-linecap:round;stroke-linejoin:round;">
    <g transform="matrix(-1.15467,0.585804,0.808618,0.836498,888.775,-223.193)">
        <g id="Ebene-1" serif:id="Ebene 1">
            <g id="g3778">
                <path id="path3702" d="M547.62,106.12C545.83,106.13 544.02,106.27 542.19,106.56C517.58,109.47 451.06,136.27 399.12,168.56C396.03,168.97 392.9,169.41 389.75,169.94C340.41,179.81 302.79,202.86 299.03,223.44C292.24,227.14 285.88,231.03 279.94,235.06C276.18,168.45 267.8,122 258.06,122C246.15,122 236.27,191.45 234.41,282.34C229,292.82 226.12,303.74 226.12,314.94C226.12,326.19 229.04,337.14 234.5,347.66C236.52,437.04 246.29,504.97 258.06,504.97C267.74,504.97 276.09,459.06 279.88,393.06C294.46,402.96 311.69,411.92 331.06,419.72L331.06,420.16C330.74,420.15 330.42,420.12 330.09,420.12C310.72,420.12 295,435.84 295,455.22C295,474.6 310.72,490.34 330.09,490.34C349.47,490.34 365.22,474.6 365.22,455.22C365.22,447.65 362.8,440.64 358.72,434.91L361.28,430.38C368.95,432.74 376.87,434.95 385,436.97L402.22,467.34C392.53,475.09 386.28,486.98 386.28,500.34C386.28,523.68 405.22,542.63 428.56,542.62C451.9,542.62 470.84,523.68 470.84,500.34C470.84,480.2 456.74,463.37 437.88,459.12L437.69,447.09C440.44,447.48 443.21,447.84 446,448.19C513.64,506.68 630.87,564.31 664.56,570.5C707.96,578.26 712.77,487.38 696.25,423.88C703.51,421.22 710.49,418.39 717.19,415.44L727.78,425.09C726.83,427.21 726.28,429.56 726.28,432.03C726.28,441.38 733.87,448.94 743.22,448.94C752.57,448.94 760.16,441.38 760.16,432.03C760.16,422.68 752.57,415.09 743.22,415.09C741.57,415.09 739.98,415.34 738.47,415.78L735.34,406.69C748.95,399.54 761.03,391.76 771.31,383.41C794.69,398.09 816.7,408.73 825.78,410.12C855.34,417.52 847.95,314.06 825.78,301.12C821.43,298.64 815.12,295.89 807.62,293.22C804.31,283.02 798.64,273.16 790.84,263.78C800.59,260.79 808.84,257.28 814.41,253.94C825.48,251.17 834.7,248.25 840.56,245.69C866.43,234.6 875.67,138.55 840.56,144.09C832.01,145.7 814.48,151.93 794.16,160.84C786.05,148.82 777.27,140.49 769.31,140.19C768.42,140.15 767.52,140.2 766.66,140.38C752.47,143.92 713.31,173.2 694.22,203.5C669.67,194.68 642.12,187.68 612.47,182.88C602.16,144.58 577.66,106.05 547.62,106.12Z" style="fill:none;fill-rule:nonzero;stroke:black;stroke-width:5.23px;"/>
                <g id="g3676">
                    <path id="path3668" d="M709.49,408.42C718.47,405.88 727.73,400.7 731.66,395.99L744.01,431.8L739.02,435.37L709.49,408.42Z" style="fill:rgb(51,204,102);fill-rule:nonzero;stroke:black;stroke-width:5.23px;"/>
                    <g id="path3670" transform="matrix(0.25631,0,0,0.25631,757.07,438.33)">
                        <circle cx="-54.052" cy="-24.64" r="66.063" style="fill:rgb(204,204,204);stroke:black;stroke-width:20.41px;"/>
                    </g>
                    <g id="path3672" transform="matrix(0.25631,0,0,0.25631,757.07,438.33)">
                        <circle cx="-54.052" cy="-24.64" r="66.063" style="fill:rgb(26,26,26);stroke:black;stroke-width:20.41px;"/>
                    </g>
                    <g id="path3674" transform="matrix(0.10485,0,0,0.10485,751.2,437.52)">
                        <circle cx="-54.052" cy="-24.64" r="66.063" style="fill:rgb(204,204,204);"/>
                    </g>
                    <g id="path3662" transform="matrix(0.5314,0,0,0.5314,358.83,468.32)">
                        <circle cx="-54.052" cy="-24.64" r="66.063" style="fill:rgb(204,204,204);stroke:black;stroke-width:9.84px;"/>
                    </g>
                    <g id="path3664" transform="matrix(0.5314,0,0,0.5314,358.83,468.32)">
                        <circle cx="-54.052" cy="-24.64" r="66.063" style="fill:rgb(26,26,26);stroke:black;stroke-width:9.84px;"/>
                    </g>
                    <g id="path3666" transform="matrix(0.21739,0,0,0.21739,346.65,466.65)">
                        <circle cx="-54.052" cy="-24.64" r="66.063" style="fill:rgb(204,204,204);"/>
                    </g>
                    <path id="path3660" d="M383.17,391.56C363.91,392.34 342.44,388.1 331.7,381.35L330.43,459.86L342.5,463.69L383.17,391.56Z" style="fill:rgb(51,204,102);fill-rule:nonzero;stroke:black;stroke-width:5.23px;"/>
                    <path id="path3466" d="M689.07,251.24C716.78,288.19 799.92,266.02 818.4,251.24C835.02,238.31 794.38,134.85 766.66,140.39C744.49,145.93 661.35,214.29 689.07,251.24Z" style="fill:rgb(255,255,0);stroke:black;stroke-width:5.23px;"/>
                    <path id="path3468" d="M336.01,256.29C376.24,308.04 558.96,274.77 602.54,256.29C641.09,237.8 600.86,97.33 542.19,106.57C495.26,112.12 295.78,204.53 336.01,256.29Z" style="fill:rgb(255,255,0);stroke:black;stroke-width:5.23px;"/>
                    <path id="path3470" d="M519.09,452.62C679.83,452.62 811.01,389.81 811.01,314.06C811.01,238.31 679.83,175.49 519.09,175.49C358.36,175.49 227.18,238.31 227.18,314.06C227.18,389.81 358.36,452.62 519.09,452.62Z" style="fill:rgb(51,204,102);stroke:black;stroke-width:5.23px;"/>
                    <path id="path3472" d="M389.77,169.95C445.19,160.71 493.23,169.95 496.92,192.12C500.62,216.14 459.97,242 406.39,253.09C350.97,264.17 302.93,253.09 299.24,230.92C293.69,208.75 334.34,181.03 389.77,169.95Z" style="fill:rgb(153,255,255);stroke:black;stroke-width:5.23px;"/>
                    <path id="path3478" d="M696.46,301.12C705.7,262.33 799.92,286.34 825.79,301.12C847.96,314.06 855.35,417.52 825.79,410.13C801.77,406.43 687.22,338.07 696.46,301.12Z" style="fill:rgb(255,255,0);stroke:black;stroke-width:5.23px;"/>
                    <path id="path3480" d="M685.37,245.7C696.46,280.8 811.01,258.63 840.57,245.7C866.43,234.61 875.67,138.54 840.57,144.08C811.01,149.63 674.29,210.59 685.37,245.7Z" style="fill:rgb(255,255,0);stroke:black;stroke-width:5.23px;"/>
                    <g id="path3605" transform="matrix(0.090276,0,0,0.72085,224.52,71.142)">
                        <circle cx="371.584" cy="336.185" r="265.633" style="fill:rgb(204,204,204);fill-opacity:0.88;stroke:black;stroke-width:20.51px;"/>
                    </g>
                    <path id="path3615" d="M257.66,252.64C237.52,271.43 226.13,292.62 226.13,314.92C226.13,337.22 237.52,358.39 257.66,377.17L257.66,252.64Z" style="fill:rgb(51,204,102);stroke:black;stroke-width:5.23px;"/>
                    <path id="path3645" d="M350.66,187.37C365.08,182.82 378.24,183.07 380.06,188.33C381.96,194.03 372.11,202.02 358.25,206.95C343.9,211.95 330.67,211.24 328.84,205.99C326.53,200.82 336.31,192.37 350.66,187.37Z" style="fill:white;"/>
                    <path id="rect3657" d="M374.76,418.87C398.05,419.81 424.03,414.7 437.03,406.57L438.56,501.13L423.96,505.74L374.76,418.87Z" style="fill:rgb(51,204,102);fill-rule:nonzero;stroke:black;stroke-width:5.23px;"/>
                    <g id="path3651" transform="matrix(0.64,0,0,0.64,463.16,516.13)">
                        <circle cx="-54.052" cy="-24.64" r="66.063" style="fill:rgb(204,204,204);stroke:black;stroke-width:8.17px;"/>
                    </g>
                    <g id="path3653" transform="matrix(0.64,0,0,0.64,463.16,516.13)">
                        <circle cx="-54.052" cy="-24.64" r="66.063" style="fill:rgb(26,26,26);stroke:black;stroke-width:8.17px;"/>
                    </g>
                    <g id="path3655" transform="matrix(0.26182,0,0,0.26182,448.49,514.11)">
                        <circle cx="-54.052" cy="-24.64" r="66.063" style="fill:rgb(204,204,204);"/>
                    </g>
                    <path id="path3476" d="M398.03,367.18C418.15,296.95 612.6,341.31 664.56,367.18C709.82,391.21 726.58,581.59 664.56,570.5C614.27,561.26 377.92,437.42 398.03,367.18Z" style="fill:rgb(255,255,0);stroke:black;stroke-width:5.23px;"/>
                </g>
            </g>
        </g>
    </g>
</svg>
