<?xml version="1.0" encoding="UTF-8" standalone="no"?>
<!DOCTYPE svg PUBLIC "-//W3C//DTD SVG 1.1//EN" "http://www.w3.org/Graphics/SVG/1.1/DTD/svg11.dtd">
<svg width="100%" height="100%" viewBox="0 0 1100 800" version="1.1" xmlns="http://www.w3.org/2000/svg" xmlns:xlink="http://www.w3.org/1999/xlink" xml:space="preserve" xmlns:serif="http://www.serif.com/" style="fill-rule:evenodd;clip-rule:evenodd;">
    <g id="Layer-2" serif:id="Layer 2" transform="matrix(-1,0,0,1,1071.1,0)">
        <g>
            <path d="M381,531.4C241,524 122,502 72,465C22,428 34,404.91 39,383.93C44,362.95 125.44,311.33 125.44,311.33C156.33,267.33 187.95,220.22 204.62,198.01C221.28,175.81 250.28,141.06 299.67,150C401.05,170.94 673.75,258.14 754.33,295.33C787.7,310.73 817.9,255.67 851.03,226.2C887.89,193.42 915.84,209.26 915.84,209.26C915.84,209.26 1066.8,256 1031.8,270C996.84,284 967.84,358 967.84,358C967.84,358 1001,376 1000.6,400.36C992.3,464.27 872.15,472 872.15,472C872.15,472 873,473 872.15,472C794,538 627,556 381,531.4Z" style="fill:white;fill-rule:nonzero;"/>
            <path d="M381,531.4C241,524 122,502 72,465C22,428 34,404.91 39,383.93C44,362.95 125.44,311.33 125.44,311.33C156.33,267.33 187.95,220.22 204.62,198.01C221.28,175.81 250.28,141.06 299.67,150C401.05,170.94 673.75,258.14 754.33,295.33C787.7,310.73 817.9,255.67 851.03,226.2C887.89,193.42 915.84,209.26 915.84,209.26C915.84,209.26 1066.8,256 1031.8,270C996.84,284 967.84,358 967.84,358C967.84,358 1001,376 1000.6,400.36C992.3,464.27 872.15,472 872.15,472C872.15,472 873,473 872.15,472C794,538 627,556 381,531.4Z" style="fill:url(#_Linear1);fill-rule:nonzero;"/>
            <path d="M382.5,529.03L369.44,528.29L343.74,526.56L318.64,524.49L294.2,522.08L270.51,519.32L247.62,516.22L225.62,512.77L204.57,508.98L184.54,504.84L165.6,500.35L147.82,495.52L131.28,490.35L116.04,484.82L102.18,478.96L92.731,474.33L86.904,471.14L81.454,467.87L76.398,464.51L74.028,462.8L74.043,462.81L69.536,459.38L61.585,452.78L54.947,446.5L49.512,440.5L45.179,434.78L41.846,429.32L39.41,424.1L37.766,419.12L36.809,414.36L36.434,409.8L36.536,405.41L37.016,401.16L38.239,394.97L40.302,386.96L41.307,382.99L41.285,383.07L41.574,382.07L42.352,380.27L43.447,378.4L44.904,376.32L47.806,372.78L52.771,367.58L58.761,361.99L65.572,356.14L76.803,347.19L88.446,338.49L96.046,333.04L103.27,328L109.87,323.49L114.26,320.54L116.87,318.81L119.2,317.27L121.21,315.96L122.87,314.88L124.16,314.05L125.04,313.48L125.49,313.19L125.54,313.16C126.15,312.78 126.72,312.23 127.14,311.62L132.94,303.34L144.5,286.72L155.86,270.29L166.82,254.41L174.66,243.04L179.68,235.8L184.48,228.88L189.06,222.33L193.4,216.17L197.45,210.46L201.21,205.24L204.65,200.56L206.23,198.44L206.21,198.46L207.81,196.35L211.18,191.99L216.78,185.22L223.02,178.43L227.51,174.07L232.35,169.84L237.51,165.87L243.02,162.21L248.91,158.93L255.2,156.11L261.93,153.82L269.12,152.13L276.78,151.15L284.92,150.96L293.56,151.66L298.04,152.36L297.98,152.35L302.85,153.38L313.31,155.71L324.68,158.4L336.88,161.43L349.86,164.78L363.54,168.41L377.86,172.32L392.75,176.47L408.15,180.86L423.98,185.45L448.42,192.68L481.9,202.85L515.95,213.47L550.01,224.36L583.57,235.36L608.08,243.57L623.99,248.99L639.46,254.34L654.45,259.6L668.87,264.75L682.67,269.76L695.77,274.62L708.11,279.3L719.63,283.79L730.25,288.05L739.91,292.08L748.54,295.84L752.44,297.61C752.46,297.62 752.47,297.62 752.48,297.63L755.6,298.87L761.95,300.23L768.37,300.13L774.85,298.65L781.37,295.9L787.87,292.03L794.28,287.26L800.57,281.76L809.77,272.6L821.9,259.25L833.97,245.65L842.99,236L848.96,230.13L851.9,227.45L851.76,227.58L855.18,224.64L861.6,219.8L867.68,215.99L873.49,213.03L879.02,210.83L884.27,209.29L889.2,208.33L893.78,207.87L897.97,207.83L901.75,208.1L905.08,208.62L907.92,209.27L910.25,209.98L912.03,210.65L913.24,211.18L913.84,211.48L913.89,211.51C913.94,211.54 914,211.56 914.06,211.58L914.17,211.61L915.02,211.88L916.66,212.39L919.03,213.15L922.07,214.13L925.72,215.31L929.91,216.69L934.58,218.25L939.68,219.97L945.14,221.85L953.86,224.91L966.18,229.38L978.83,234.18L991.31,239.21L1003.1,244.34L1013.8,249.46L1020.7,253.21L1024.7,255.64L1028.1,257.99L1030.9,260.26L1033,262.4L1034.3,264.38L1034.8,266.1L1034.4,267.3L1033.9,267.42L1033.1,267.56L1032.3,267.88L1029,269.36L1022.1,273.54L1015.4,278.97L1008.9,285.32L1002.9,292.34L997.22,299.81L991.95,307.55L987.08,315.37L982.64,323.1L978.65,330.53L975.13,337.49L972.12,343.77L969.64,349.2L968.15,352.59L967.34,354.48L966.69,356.04L966.19,357.25L965.85,358.09L965.67,358.52L965.65,358.59C965.34,359.37 965.43,360 965.89,360.25L965.99,360.3L966.7,360.71L968.04,361.51L969.91,362.69L972.22,364.23L974.86,366.11L979.24,369.54L985.34,375.16L989.67,380.05L992.26,383.6L994.5,387.38L996.3,391.34L997.55,395.46L998.18,399.71L998.22,401.82L998.24,401.5L997.77,404.46L996.4,409.93L994.5,414.98L992.11,419.65L989.29,423.99L986.06,428.03L982.46,431.82L978.48,435.39L974.13,438.77L969.46,441.95L961.85,446.4L951.01,451.6L939.7,455.99L928.24,459.65L917,462.62L906.34,464.97L896.6,466.75L890.11,467.75L886.26,468.28L882.83,468.71L879.86,469.05L877.41,469.3L875.51,469.47L874.2,469.58L873.54,469.63L873.46,469.63C872.37,469.7 870.9,470.82 870.17,472.13C869.72,472.95 869.65,473.68 869.99,474.08L870.02,474.12L870.21,474.34L870.36,474.52L874.55,470.21L874.31,469.92C873.83,469.36 872.64,469.62 871.52,470.55L867.79,473.61L860.13,479.37L852,484.83L843.32,490.05L834.11,495.01L824.37,499.72L814.09,504.18L803.29,508.37L791.97,512.3L780.12,515.96L767.76,519.36L754.89,522.5L741.51,525.37L727.63,527.97L713.24,530.31L698.35,532.38L682.97,534.19L667.09,535.73L650.72,537.02L633.86,538.04L616.51,538.79L598.67,539.29L580.35,539.53L561.55,539.51L542.27,539.23L522.51,538.7L502.27,537.91L481.56,536.86L460.38,535.56L438.73,534.01L416.61,532.21L394.02,530.15L382.56,529.03C381.57,528.93 380.07,529.91 379.21,531.22C378.35,532.53 378.45,533.66 379.44,533.76L390.92,534.88L413.53,536.94L435.68,538.75L457.36,540.3L478.57,541.6L499.31,542.65L519.58,543.44L539.38,543.98L558.7,544.26L577.54,544.27L595.91,544.04L613.8,543.54L631.2,542.77L648.13,541.75L664.57,540.46L680.52,538.91L695.99,537.09L710.96,535L725.45,532.65L739.45,530.02L752.96,527.12L765.98,523.95L778.5,520.5L790.54,516.77L802.08,512.76L813.13,508.47L823.69,503.89L833.76,499.01L843.34,493.83L852.42,488.35L861.02,482.56L869.05,476.51L872.78,473.45L869.99,474.08L870.23,474.36L874.68,470.36L874.53,470.19L874.34,469.96L874.31,469.92L870.83,474.37L870.93,474.36L871.63,474.31L872.96,474.2L874.9,474.02L877.4,473.77L880.41,473.43L883.89,472.99L887.81,472.45L894.4,471.43L904.3,469.62L915.16,467.22L926.67,464.18L938.49,460.39L950.31,455.77L961.77,450.24L969.95,445.43L975.18,441.84L980.16,437.93L984.82,433.69L989.1,429.13L992.92,424.25L996.21,419.1L998.92,413.69L1001,408.03L1002.5,402.17L1002.9,399.21C1003,399.1 1003,399 1003,398.9L1002.9,396.47L1002.2,391.91L1000.9,387.56L998.98,383.44L996.65,379.54L993.98,375.88L989.54,370.87L983.35,365.18L978.91,361.71L976.23,359.8L973.89,358.24L971.98,357.04L970.62,356.22L969.88,355.8L969.79,355.75L970.03,357.41L970.05,357.37L970.53,356.17L971.01,355L971.65,353.48L972.43,351.66L973.88,348.36L976.3,343.07L979.24,336.93L982.66,330.16L986.53,322.95L990.8,315.5L995.44,308.02L1000.4,300.72L1005.6,293.8L1011,287.47L1016.6,281.92L1022.2,277.28L1028.2,273.6L1031.4,272.12L1033.6,271.08L1037.2,268.22L1039.1,265.02L1039.4,262.57L1038.7,260.37L1037.2,258.17L1035,255.91L1032.2,253.57L1028.7,251.17L1024.6,248.7L1017.6,244.91L1006.9,239.77L995.02,234.62L982.5,229.58L969.83,224.76L957.49,220.29L948.76,217.22L943.29,215.35L938.18,213.62L933.5,212.06L929.3,210.68L925.65,209.49L922.61,208.51L920.23,207.75L918.58,207.24L917.73,206.97L917.62,206.93L917.78,207L917.68,206.94L917,206.61L915.7,206.04L913.8,205.33L911.34,204.59L908.33,203.9L904.8,203.37L900.78,203.08L896.28,203.15L891.34,203.66L885.96,204.73L880.17,206.46L874,208.95L867.5,212.31L860.7,216.62L853.74,221.89L850.31,224.83C850.26,224.87 850.21,224.91 850.17,224.96L846.91,227.94L840.59,234.17L831.36,244.04L819.38,257.54L807.66,270.47L799.02,279.11L793.4,284.05L787.86,288.24L782.36,291.59L776.82,294.01L771.16,295.39L765.33,295.54L759.3,294.28L756.18,293.04L756.22,293.05L752.29,291.27L743.64,287.49L733.96,283.46L723.32,279.19L711.79,274.7L699.43,270.01L686.32,265.15L672.51,260.13L658.08,254.98L643.09,249.72L627.6,244.36L611.69,238.94L587.16,230.72L553.59,219.72L519.51,208.83L485.46,198.21L451.95,188.03L427.51,180.8L411.67,176.2L396.26,171.82L381.36,167.66L367.02,163.74L353.32,160.11L340.33,156.76L328.11,153.72L316.72,151.03L306.23,148.68L301.36,147.65C301.34,147.65 301.32,147.65 301.3,147.64L296.63,146.92L287.69,146.22L279.18,146.44L271.08,147.5L263.38,149.33L256.07,151.86L249.16,155L242.63,158.66L236.52,162.76L230.8,167.18L225.5,171.84L220.55,176.68L213.91,183.92L208.09,190.98L204.62,195.44L203.02,197.56C203.02,197.57 203.01,197.58 203,197.59L201.37,199.78L197.88,204.54L194.08,209.81L190,215.56L185.65,221.75L181.05,228.32L176.23,235.26L171.21,242.51L163.36,253.88L152.41,269.76L141.08,286.16L129.53,302.75L123.73,311.03L125.34,309.5L125.27,309.54L124.8,309.84L123.89,310.42L122.58,311.27L120.89,312.36L118.85,313.7L116.49,315.25L113.84,317.01L109.38,320.01L102.69,324.58L95.359,329.7L87.588,335.28L75.666,344.19L64.109,353.41L56.93,359.59L50.433,365.68L44.874,371.56L41.451,375.79L39.545,378.58L38.029,381.3L37.005,383.79L36.715,384.79C36.707,384.82 36.7,384.85 36.693,384.88L35.693,388.83L33.569,397.1L32.294,403.63L31.794,408.18L31.7,412.88L32.114,417.72L33.134,422.72L34.857,427.9L37.38,433.28L40.801,438.86L45.218,444.69L50.733,450.77L57.445,457.12L65.446,463.76L69.955,467.19C69.96,467.19 69.965,467.2 69.971,467.2L72.388,468.94L77.506,472.34L83.013,475.65L88.907,478.87L98.438,483.54L112.39,489.44L127.71,494.99L144.32,500.19L162.17,505.03L181.17,509.53L201.26,513.68L222.36,517.48L244.41,520.94L267.34,524.04L291.08,526.81L315.56,529.22L340.7,531.3L366.43,533.03L379.5,533.76C380.51,533.82 382,532.81 382.83,531.5C383.66,530.19 383.52,529.08 382.5,529.03" style="fill-rule:nonzero;"/>
        </g>
        <g>
            <path d="M253.24,349.92C254.78,350.42 301.45,262.22 310.55,239.64C319.66,217.05 309.42,187.06 280.96,181.09C224.3,169.19 205.57,198.03 204.62,198.01C203.67,198 127.69,309.91 127.69,309.91C127.69,309.91 193.32,304.6 253.24,349.92Z" style="fill:rgb(85,109,255);fill-rule:nonzero;"/>
            <path d="M253.24,349.92C254.78,350.42 301.45,262.22 310.55,239.64C319.66,217.05 309.42,187.06 280.96,181.09C224.3,169.19 205.57,198.03 204.62,198.01C203.67,198 127.69,309.91 127.69,309.91C127.69,309.91 193.32,304.6 253.24,349.92Z" style="fill-opacity:0;fill-rule:nonzero;stroke:rgb(21,21,21);stroke-width:4px;"/>
        </g>
        <path d="M33.333,394.65C16,521 407.003,530 407.003,530C407.003,530 672.693,530.7 736.773,525.33C800.843,519.97 872.153,472 872.153,472C872.153,472 339.813,411.19 340.913,411.59C342.003,412 72.003,399.17 72.003,399.17C35.49,390.9 33.336,394.65 33.336,394.65L33.333,394.65Z" style="fill:url(#_Linear2);fill-rule:nonzero;"/>
        <g>
            <path d="M51.178,435.97C40.77,435.97 32.333,422.31 32.333,405.47C32.333,388.63 40.77,374.98 51.178,374.98C61.585,374.98 75.219,393.74 75.219,410.58C75.219,427.42 61.585,435.97 51.178,435.97Z" style="fill:url(#_Linear3);fill-rule:nonzero;"/>
            <path d="M51.178,435.97C40.77,435.97 32.333,422.31 32.333,405.47C32.333,388.63 40.77,374.98 51.178,374.98C61.585,374.98 75.219,393.74 75.219,410.58C75.219,427.42 61.585,435.97 51.178,435.97Z" style="fill-opacity:0;fill-rule:nonzero;stroke:black;stroke-width:2px;"/>
        </g>
        <g>
            <g>
                <path d="M424.7,603.76C475.38,615.4 514.05,562.97 572.71,571.4L572.71,523.76C522.03,535.4 483.36,482.97 424.7,491.4" style="fill:white;fill-rule:nonzero;"/>
                <path d="M423.03,606.1L427.74,607.01L437.12,607.81L446.35,607.37L455.44,605.85L464.41,603.45L473.29,600.36L486.47,594.88L504.08,586.95L517.47,581.37L526.54,578.18L535.87,575.59L545.48,573.77L555.44,572.9L565.81,573.16L571.14,573.77C572.11,573.88 573.61,572.91 574.48,571.6C574.87,571.02 575.08,570.45 575.08,569.98L575.08,522.33C575.09,521.62 574.58,521.27 573.79,521.42L569.07,522.33L560.03,523.08L551.21,522.63L542.48,521.15L533.83,518.82L525.22,515.82L512.27,510.42L494.78,502.54L481.27,496.92L471.98,493.64L462.41,490.97L452.52,489.08L442.24,488.17L431.52,488.42L425.93,489.04C424.81,489.17 423.35,490.33 422.67,491.63C421.99,492.94 422.34,493.89 423.46,493.76L428.75,493.16L439.15,492.9L449.18,493.78L458.9,495.63L468.34,498.26L477.54,501.5L491,507.1L508.54,515L521.59,520.44L530.34,523.49L539.2,525.86L548.22,527.37L557.46,527.81L566.92,527L571.64,526.09L570.34,525.18L570.34,572.83L574.29,569.04L568.73,568.42L557.99,568.17L547.64,569.09L537.63,571.01L527.95,573.72L518.53,577.04L504.95,582.69L487.53,590.54L474.72,595.89L466.23,598.86L457.69,601.16L449.04,602.63L440.2,603.08L431.08,602.31L426.36,601.41C425.43,601.23 423.93,602.13 423.01,603.43C422.09,604.73 422.1,605.93 423.03,606.1" style="fill-rule:nonzero;"/>
            </g>
            <g>
                <path d="M424.7,603.76C404.86,603.76 388.77,578.69 388.77,547.78C388.77,516.86 404.86,491.8 424.7,491.8C444.54,491.8 460.62,516.86 460.62,547.78C460.62,578.69 444.54,603.76 424.7,603.76Z" style="fill:rgb(234,234,234);fill-rule:nonzero;"/>
                <path d="M426.18,601.38L424.33,601.31L420.86,600.76L417.51,599.67L414.25,598.09L411.12,596.02L408.14,593.49L405.34,590.53L402.72,587.16L400.33,583.42L398.17,579.34L396.26,574.93L394.62,570.23L393.28,565.28L392.25,560.09L391.55,554.7L391.19,549.14L391.14,546.33L391.14,546.38L391.19,543.5L391.55,537.93L392.26,532.59L393.28,527.47L394.61,522.61L396.21,518.04L398.06,513.8L400.12,509.93L402.36,506.46L404.74,503.43L407.24,500.85L409.82,498.71L412.52,496.98L415.38,495.64L418.44,494.71L421.7,494.22L423.33,494.17L423.22,494.17L425.06,494.24L428.53,494.8L431.88,495.88L435.14,497.47L438.27,499.54L441.25,502.07L444.05,505.03L446.67,508.39L449.06,512.13L451.22,516.22L453.13,520.62L454.76,525.32L456.11,530.28L457.14,535.46L457.84,540.85L458.2,546.41L458.25,549.22L458.25,549.18L458.2,552.06L457.84,557.62L457.13,562.97L456.11,568.09L454.78,572.95L453.18,577.52L451.34,581.75L449.27,585.62L447.03,589.09L444.65,592.12L442.16,594.7L439.57,596.84L436.87,598.57L434.01,599.91L430.95,600.85L427.69,601.33L426.06,601.38L426.12,601.38C425.07,601.38 423.58,602.44 422.8,603.76C422.01,605.06 422.22,606.13 423.27,606.13L423.33,606.13L425.4,606.03L429.38,605.37L433.33,604.08L437.22,602.15L440.97,599.63L444.49,596.6L447.73,593.15L450.67,589.34L453.3,585.21L455.63,580.79L457.66,576.09L459.37,571.14L460.77,565.96L461.84,560.57L462.57,554.98L462.94,549.26L462.99,546.38L462.99,546.33L462.94,543.38L462.57,537.65L461.84,532.11L460.77,526.78L459.39,521.7L457.7,516.88L455.74,512.35L453.51,508.14L451.03,504.29L448.32,500.81L445.4,497.74L442.27,495.1L438.96,492.92L435.46,491.24L431.8,490.09L428.02,489.5L426.18,489.43L426.06,489.43L423.99,489.52L420.01,490.18L416.06,491.48L412.17,493.41L408.42,495.92L404.9,498.95L401.66,502.4L398.72,506.22L396.09,510.35L393.76,514.77L391.74,519.46L390.02,524.41L388.62,529.59L387.55,534.99L386.82,540.57L386.45,546.29L386.4,549.18L386.4,549.22L386.45,552.17L386.82,557.9L387.55,563.44L388.62,568.77L390,573.86L391.68,578.68L393.65,583.2L395.88,587.41L398.36,591.26L401.07,594.74L403.99,597.82L407.12,600.45L410.44,602.63L413.93,604.31L417.59,605.47L421.36,606.05L423.22,606.13C424.24,606.17 425.73,605.14 426.55,603.83C427.37,602.52 427.2,601.42 426.18,601.38" style="fill-rule:nonzero;"/>
            </g>
            <g>
                <path d="M424.7,590.63C409.51,590.63 397.19,571.45 397.19,547.78C397.19,524.11 409.51,504.92 424.7,504.92C439.88,504.92 452.2,524.11 452.2,547.78C452.2,571.45 439.88,590.63 424.7,590.63Z" style="fill:url(#_Radial4);fill-rule:nonzero;"/>
                <path d="M426.18,588.26L424.76,588.21L422.14,587.78L419.61,586.96L417.15,585.76L414.77,584.19L412.51,582.26L410.38,580.01L408.39,577.45L405.71,573.06L402.8,566.33L400.76,558.78L399.7,550.56L399.56,546.31L399.56,546.4L399.7,542.02L400.79,533.83L402.81,526.45L405.62,520.03L408.08,516.09L409.78,513.95L411.6,512.08L413.47,510.54L415.41,509.31L417.48,508.35L419.72,507.68L422.13,507.33L423.33,507.29L423.22,507.29L424.63,507.35L427.25,507.77L429.78,508.59L432.24,509.79L434.62,511.36L436.88,513.29L439.02,515.54L441,518.1L443.68,522.5L446.59,529.22L448.63,536.78L449.7,545L449.83,549.25L449.83,549.15L449.68,553.53L448.6,561.72L446.58,569.11L443.77,575.52L441.31,579.46L439.61,581.6L437.79,583.48L435.92,585.01L433.98,586.24L431.91,587.2L429.67,587.88L427.26,588.23L426.06,588.26L426.12,588.26C425.07,588.26 423.58,589.32 422.8,590.63C422.01,591.94 422.22,593 423.27,593L423.33,593L424.96,592.93L428.1,592.4L431.23,591.36L434.32,589.82L437.32,587.8L440.12,585.38L442.69,582.63L445.06,579.54L448.06,574.55L451.17,567.3L453.32,559.32L454.43,550.79L454.57,546.4L454.57,546.31L454.42,541.8L453.29,533.29L451.16,525.47L448.15,518.54L445.37,514L443.28,511.33L441.03,508.96L438.62,506.93L436.06,505.25L433.36,503.95L430.52,503.06L427.59,502.61L426.18,502.55L426.06,502.55L424.43,502.63L421.29,503.15L418.16,504.19L415.06,505.73L412.07,507.75L409.27,510.17L406.7,512.92L404.33,516.02L401.32,521L398.22,528.25L396.07,536.23L394.96,544.77L394.82,549.15L394.82,549.25L394.97,553.76L396.1,562.27L398.22,570.08L401.24,577.02L404.02,581.55L406.1,584.23L408.36,586.59L410.77,588.63L413.33,590.3L416.03,591.6L418.88,592.5L421.8,592.95L423.22,593C424.24,593.04 425.73,592.02 426.55,590.71C427.37,589.4 427.2,588.3 426.18,588.26" style="fill-rule:nonzero;"/>
            </g>
            <g>
                <path d="M430.64,562.97C425.25,562.97 420.89,556.17 420.89,547.78C420.89,539.39 425.25,532.59 430.64,532.59C436.02,532.59 440.38,539.39 440.38,547.78C440.38,556.17 436.02,562.97 430.64,562.97Z" style="fill:rgb(255,0,0);fill-rule:nonzero;"/>
                <path d="M432.17,560.6L431.17,560.52L429.52,559.96L427.99,558.92L426.57,557.39L425.34,555.45L424.35,553.14L423.66,550.55L423.3,547.73L423.26,546.31L423.26,546.4L423.31,544.85L423.68,542.06L424.36,539.64L425.26,537.63L426.26,536.18L427.16,535.37L427.91,535.06L428.85,534.93L429.34,534.95L429.1,534.96L430.1,535.03L431.75,535.59L433.28,536.64L434.7,538.16L435.93,540.11L436.92,542.41L437.61,545.01L437.97,547.82L438.01,549.25L438.01,549.15L437.96,550.7L437.59,553.49L436.91,555.92L436.01,557.92L435.02,559.37L434.12,560.18L433.36,560.49L432.42,560.62L431.93,560.6C430.83,560.69 429.36,561.82 428.65,563.12C427.93,564.43 428.24,565.42 429.34,565.33L430.84,565.15L433.71,564.07L436.45,562.08L438.66,559.62L440.3,556.96L441.5,554.12L442.3,551.09L442.7,547.96L442.76,546.4L442.76,546.31L442.69,544.62L442.28,541.51L441.49,538.66L440.38,536.12L438.97,533.95L437.28,532.2L435.32,530.95L433.17,530.3L432.17,530.22C432.09,530.21 432.01,530.21 431.93,530.22L430.43,530.4L427.56,531.48L424.82,533.47L422.62,535.93L420.97,538.6L419.77,541.44L418.97,544.46L418.57,547.6L418.52,549.15L418.52,549.25L418.58,550.93L419,554.04L419.78,556.89L420.89,559.43L422.3,561.61L423.99,563.35L425.95,564.6L428.1,565.26L429.1,565.33C430.1,565.41 431.6,564.42 432.44,563.11C433.29,561.8 433.17,560.68 432.17,560.6" style="fill-rule:nonzero;"/>
            </g>
        </g>
        <g>
            <path d="M519.98,668.35C570.67,680 609.33,627.56 668,636L668,588.35C617.32,600 578.65,547.56 519.98,556" style="fill:white;fill-rule:nonzero;"/>
            <path d="M518.31,670.7L523.03,671.61L532.4,672.41L541.64,671.96L550.73,670.45L559.7,668.05L568.58,664.96L581.76,659.47L599.37,651.54L612.76,645.97L621.83,642.78L631.15,640.18L640.76,638.36L650.72,637.49L661.1,637.76L666.42,638.36C667.4,638.47 668.9,637.51 669.77,636.2C670.16,635.62 670.37,635.04 670.37,634.58L670.37,586.93C670.37,586.22 669.87,585.86 669.08,586.02L664.36,586.92L655.32,587.68L646.5,587.22L637.77,585.75L629.12,583.42L620.5,580.41L607.56,575.01L590.07,567.14L576.56,561.51L567.26,558.24L557.7,555.56L547.81,553.68L537.53,552.76L526.81,553.01L521.22,553.64C520.1,553.77 518.64,554.92 517.96,556.23C517.28,557.53 517.63,558.49 518.75,558.36L524.04,557.76L534.43,557.5L544.47,558.38L554.19,560.22L563.63,562.86L572.83,566.1L586.29,571.7L603.83,579.6L616.88,585.03L625.63,588.08L634.48,590.46L643.5,591.96L652.75,592.41L662.21,591.6L666.92,590.69L665.63,589.78L665.63,637.42L669.58,633.64L664.02,633.01L653.28,632.76L642.92,633.69L632.92,635.6L623.24,638.31L613.82,641.64L600.24,647.29L582.82,655.14L570,660.49L561.52,663.46L552.98,665.76L544.33,667.22L535.49,667.67L526.37,666.91L521.65,666C520.72,665.82 519.22,666.73 518.3,668.03C517.38,669.33 517.38,670.52 518.31,670.7" style="fill-rule:nonzero;"/>
        </g>
        <g>
            <path d="M519.98,668.35C500.14,668.35 484.06,643.29 484.06,612.37C484.06,581.46 500.14,556.4 519.98,556.4C539.82,556.4 555.91,581.46 555.91,612.37C555.91,643.29 539.82,668.35 519.98,668.35Z" style="fill:rgb(234,234,234);fill-rule:nonzero;"/>
            <path d="M521.46,665.98L519.61,665.91L516.14,665.35L512.79,664.27L509.54,662.68L506.41,660.61L503.43,658.08L500.62,655.12L498.01,651.76L495.61,648.02L493.45,643.93L491.55,639.52L489.91,634.83L488.57,629.87L487.54,624.69L486.83,619.3L486.47,613.74L486.43,610.93L486.43,610.98L486.48,608.1L486.84,602.53L487.54,597.18L488.57,592.06L489.9,587.2L491.5,582.64L493.34,578.4L495.4,574.53L497.65,571.06L500.03,568.03L502.52,565.45L505.1,563.31L507.8,561.58L510.66,560.24L513.72,559.3L516.99,558.82L518.62,558.77L518.5,558.77L520.35,558.84L523.82,559.4L527.17,560.48L530.42,562.06L533.55,564.13L536.53,566.66L539.34,569.62L541.95,572.99L544.35,576.73L546.51,580.82L548.42,585.22L550.05,589.92L551.39,594.87L552.43,600.06L553.13,605.45L553.49,611.01L553.53,613.82L553.53,613.77L553.49,616.65L553.12,622.22L552.42,627.56L551.39,632.68L550.07,637.54L548.47,642.11L546.62,646.35L544.56,650.22L542.32,653.69L539.93,656.72L537.44,659.3L534.86,661.44L532.16,663.17L529.3,664.51L526.24,665.44L522.98,665.93L521.34,665.98C520.27,666.02 518.79,667.12 518.04,668.43C517.29,669.74 517.55,670.76 518.62,670.72L520.68,670.63L524.66,669.97L528.62,668.67L532.51,666.74L536.25,664.23L539.78,661.2L543.02,657.75L545.96,653.93L548.59,649.8L550.92,645.38L552.94,640.69L554.66,635.74L556.06,630.56L557.13,625.16L557.86,619.58L558.23,613.86L558.28,610.98L558.28,610.93L558.23,607.98L557.85,602.25L557.12,596.71L556.06,591.38L554.67,586.29L552.99,581.47L551.03,576.94L548.8,572.74L546.32,568.89L543.61,565.41L540.68,562.34L537.56,559.7L534.24,557.52L530.75,555.84L527.08,554.68L523.31,554.1L521.46,554.02L521.34,554.02L519.28,554.12L515.3,554.78L511.34,556.08L507.46,558L503.71,560.52L500.19,563.55L496.94,567L494.01,570.81L491.38,574.94L489.05,579.36L487.02,584.06L485.3,589.01L483.9,594.19L482.83,599.58L482.1,605.17L481.73,610.89L481.69,613.77L481.69,613.82L481.74,616.77L482.11,622.5L482.84,628.04L483.91,633.37L485.29,638.46L486.97,643.28L488.94,647.8L491.17,652.01L493.64,655.86L496.35,659.34L499.28,662.41L502.4,665.05L505.72,667.23L509.22,668.91L512.88,670.06L516.65,670.65L518.5,670.72C519.52,670.76 521.02,669.73 521.84,668.42C522.65,667.12 522.48,666.02 521.46,665.98" style="fill-rule:nonzero;"/>
        </g>
        <g>
            <path d="M519.98,655.23C504.79,655.23 492.48,636.04 492.48,612.37C492.48,588.7 504.79,569.52 519.98,569.52C535.17,569.52 547.48,588.7 547.48,612.37C547.48,636.04 535.17,655.23 519.98,655.23Z" style="fill:url(#_Radial5);fill-rule:nonzero;"/>
            <path d="M521.46,652.86L520.05,652.8L517.42,652.38L514.9,651.56L512.43,650.36L510.06,648.78L507.8,646.86L505.66,644.61L503.67,642.05L500.99,637.66L498.08,630.93L496.05,623.37L494.98,615.16L494.85,610.9L494.85,611L494.99,606.62L496.07,598.43L498.09,591.04L500.91,584.63L503.36,580.69L505.07,578.55L506.89,576.67L508.76,575.14L510.7,573.91L512.77,572.95L515.01,572.27L517.42,571.92L518.62,571.89L518.5,571.89L519.92,571.94L522.54,572.37L525.07,573.19L527.53,574.39L529.9,575.96L532.17,577.88L534.3,580.14L536.29,582.7L538.97,587.09L541.88,593.82L543.92,601.38L544.98,609.59L545.11,613.84L545.11,613.75L544.97,618.13L543.89,626.32L541.87,633.7L539.06,640.12L536.6,644.06L534.89,646.2L533.08,648.07L531.21,649.61L529.26,650.84L527.2,651.8L524.96,652.47L522.54,652.82L521.34,652.86C520.27,652.9 518.79,654 518.04,655.31C517.29,656.62 517.55,657.64 518.62,657.6L520.25,657.52L523.38,657L526.52,655.96L529.61,654.42L532.6,652.4L535.41,649.98L537.98,647.23L540.35,644.13L543.35,639.15L546.46,631.9L548.6,623.92L549.71,615.38L549.86,611L549.86,610.9L549.7,606.39L548.58,597.88L546.45,590.07L543.44,583.13L540.66,578.6L538.57,575.92L536.32,573.56L533.91,571.52L531.35,569.85L528.64,568.55L525.8,567.66L522.88,567.2L521.46,567.15C521.42,567.14 521.38,567.14 521.34,567.15L519.71,567.22L516.58,567.75L513.45,568.78L510.35,570.33L507.36,572.35L504.55,574.77L501.98,577.52L499.61,580.62L496.61,585.6L493.5,592.85L491.36,600.83L490.25,609.36L490.11,613.75L490.11,613.84L490.26,618.35L491.38,626.86L493.51,634.68L496.53,641.61L499.31,646.15L501.39,648.82L503.64,651.19L506.06,653.22L508.62,654.9L511.32,656.2L514.16,657.09L517.08,657.54L518.5,657.6C519.52,657.64 521.02,656.61 521.84,655.3C522.65,653.99 522.48,652.9 521.46,652.86" style="fill-rule:nonzero;"/>
        </g>
        <g>
            <path d="M525.92,627.56C520.54,627.56 516.17,620.76 516.17,612.37C516.17,603.98 520.54,597.18 525.92,597.18C531.31,597.18 535.67,603.98 535.67,612.37C535.67,620.76 531.31,627.56 525.92,627.56Z" style="fill:rgb(255,0,0);fill-rule:nonzero;"/>
            <path d="M527.46,625.2L526.46,625.12L524.81,624.56L523.28,623.51L521.86,621.99L520.62,620.04L519.64,617.74L518.94,615.14L518.58,612.33L518.54,610.9L518.54,611L518.6,609.45L518.97,606.66L519.65,604.23L520.55,602.23L521.54,600.78L522.44,599.97L523.2,599.66L524.14,599.52L524.63,599.55L524.39,599.55L525.38,599.63L527.03,600.19L528.57,601.24L529.99,602.76L531.22,604.7L532.21,607.01L532.9,609.6L533.26,612.42L533.3,613.84L533.3,613.75L533.25,615.3L532.88,618.09L532.2,620.52L531.3,622.52L530.3,623.97L529.4,624.78L528.65,625.09L527.71,625.22L527.22,625.2C526.12,625.28 524.65,626.41 523.94,627.72C523.22,629.03 523.53,630.02 524.63,629.93L526.13,629.75L528.99,628.67L531.74,626.68L533.94,624.22L535.59,621.55L536.79,618.71L537.59,615.69L537.99,612.55L538.04,611L538.04,610.9L537.98,609.22L537.56,606.11L536.78,603.26L535.67,600.72L534.26,598.54L532.57,596.8L530.61,595.55L528.45,594.9L527.46,594.82C527.38,594.81 527.3,594.81 527.22,594.82L525.72,595L522.85,596.08L520.11,598.06L517.9,600.53L516.25,603.2L515.06,606.04L514.26,609.06L513.85,612.19L513.8,613.75L513.8,613.84L513.86,615.53L514.28,618.64L515.06,621.49L516.18,624.03L517.59,626.2L519.27,627.95L521.24,629.2L523.39,629.85L524.39,629.93C525.39,630.01 526.88,629.01 527.73,627.7C528.58,626.4 528.46,625.27 527.46,625.2" style="fill-rule:nonzero;"/>
        </g>
        <path d="M880.38,226.35C889.8,216.88 942.73,236 935.56,243.16C922.56,256.16 902.33,274 906.33,334.85C879.67,296.67 844.05,328.1 827.67,308.67C807.32,284.54 860.38,246.46 880.38,226.35Z" style="fill:url(#_Linear6);fill-rule:nonzero;"/>
        <path d="M929.31,436.62C919.31,438.84 854.97,429.87 744.91,421.07C683.06,416.06 621.54,407.5 560.36,397.2C517.19,389.94 474.21,381.37 431.66,371.08C374.42,357.04 329.13,341.58 326.13,319.99C320.79,289.18 352.79,241.12 398.33,237.79C404.5,237.69 410.66,238.98 416.68,240.22C433.47,243.68 450.05,248.22 466.57,252.78C484.52,257.74 502.4,262.93 520.26,268.2C575.27,284.41 630.03,301.41 684.95,317.9C705.17,323.97 725.39,330 745.72,335.68C755.36,338.38 765.08,341.3 774.9,343.31C780.1,344.38 785.3,345.42 790.51,346.42C828.27,353.68 862.51,362.82 900.43,369.19C911.42,371.04 924.68,373.67 935.67,375.53C977.5,383.5 941.5,435.5 929.31,436.62ZM420.68,339.34C425.2,339.8 430.04,340.44 434.22,338.26C445.61,330.6 461.71,284.83 452.74,274.69C443.77,264.54 403.95,250.39 387.92,256.66C371.88,262.94 351.74,309.26 356.58,315.93C361.3,320.44 371.28,324.41 377.3,326.77C389.64,331.62 402.17,335.6 415.12,338.43L420.68,339.34ZM526.08,361.09C540.41,355.99 553.84,318.88 547.18,305.74C540.52,292.6 502.35,280.18 484.98,288.88C467.61,297.59 455.72,339.06 466.09,346.65C476.46,354.23 511.74,366.19 526.08,361.09ZM614,382.25C627.16,377.57 639.5,343.48 633.38,331.41C627.27,319.35 592.2,307.94 576.25,315.93C560.3,323.93 549.38,362.02 558.9,368.99C568.43,375.95 600.83,386.93 614,382.25ZM700.8,398.35C713.09,393.97 724.62,362.13 718.91,350.85C713.19,339.58 680.43,328.92 665.53,336.39C650.62,343.86 640.43,379.45 649.32,385.96C658.22,392.46 688.5,402.72 700.8,398.35ZM783.94,408.12C794.66,404.31 804.7,376.57 799.72,366.75C794.74,356.93 766.2,347.64 753.22,354.15C740.24,360.65 731.35,391.66 739.1,397.33C746.86,403 773.23,411.93 783.94,408.12ZM856.72,416.94C866.04,413.62 874.78,389.48 870.45,380.93C866.12,372.39 841.28,364.31 829.98,369.97C818.68,375.63 810.95,402.61 817.7,407.55C824.44,412.48 847.4,420.26 856.72,416.94ZM923.4,425.36C931.09,422.62 938.31,402.69 934.73,395.64C931.15,388.58 910.65,381.91 901.33,386.58C892,391.26 885.62,413.53 891.19,417.6C896.75,421.67 915.7,428.09 923.4,425.36Z" style="fill:url(#_Linear7);fill-rule:nonzero;"/>
        <g>
            <g>
                <path d="M388.47,257.61C404.51,251.34 444.32,265.49 453.3,275.63C462.27,285.77 446.16,331.55 434.78,339.21C423.39,346.87 361.98,323.54 357.14,316.88C352.3,310.21 372.44,263.89 388.47,257.61Z" style="fill:rgb(85,109,255);fill-rule:nonzero;"/>
                <path d="M388.47,257.61C404.51,251.34 444.32,265.49 453.3,275.63C462.27,285.77 446.16,331.55 434.78,339.21C423.39,346.87 361.98,323.54 357.14,316.88C352.3,310.21 372.44,263.89 388.47,257.61Z" style="fill-opacity:0;fill-rule:nonzero;stroke:rgb(43,43,43);stroke-width:4px;"/>
            </g>
            <g>
                <path d="M388.47,257.61C404.51,251.34 444.32,265.49 453.3,275.63C462.27,285.77 446.16,331.55 434.78,339.21C423.39,346.87 361.98,323.54 357.14,316.88C352.3,310.21 372.44,263.89 388.47,257.61Z" style="fill:rgb(85,109,255);fill-rule:nonzero;"/>
                <path d="M388.47,257.61C404.51,251.34 444.32,265.49 453.3,275.63C462.27,285.77 446.16,331.55 434.78,339.21C423.39,346.87 361.98,323.54 357.14,316.88C352.3,310.21 372.44,263.89 388.47,257.61Z" style="fill-opacity:0;fill-rule:nonzero;stroke:rgb(43,43,43);stroke-width:4px;"/>
            </g>
        </g>
        <g>
            <g>
                <path d="M485.53,289.83C502.9,281.12 541.08,293.55 547.74,306.68C554.4,319.82 540.96,356.94 526.63,362.03C512.3,367.13 477.02,355.18 466.65,347.59C456.28,340.01 468.16,298.53 485.53,289.83Z" style="fill:rgb(85,109,255);fill-rule:nonzero;"/>
                <path d="M485.53,289.83C502.9,281.12 541.08,293.55 547.74,306.68C554.4,319.82 540.96,356.94 526.63,362.03C512.3,367.13 477.02,355.18 466.65,347.59C456.28,340.01 468.16,298.53 485.53,289.83Z" style="fill-opacity:0;fill-rule:nonzero;stroke:rgb(43,43,43);stroke-width:4px;"/>
            </g>
            <g>
                <path d="M485.53,289.83C502.9,281.12 541.08,293.55 547.74,306.68C554.4,319.82 540.96,356.94 526.63,362.03C512.3,367.13 477.02,355.18 466.65,347.59C456.28,340.01 468.16,298.53 485.53,289.83Z" style="fill:rgb(85,109,255);fill-rule:nonzero;"/>
                <path d="M485.53,289.83C502.9,281.12 541.08,293.55 547.74,306.68C554.4,319.82 540.96,356.94 526.63,362.03C512.3,367.13 477.02,355.18 466.65,347.59C456.28,340.01 468.16,298.53 485.53,289.83Z" style="fill-opacity:0;fill-rule:nonzero;stroke:rgb(43,43,43);stroke-width:4px;"/>
            </g>
        </g>
        <g>
            <g>
                <path d="M576.8,316.88C592.76,308.88 627.82,320.29 633.94,332.36C640.06,344.43 627.72,378.51 614.55,383.2C601.39,387.88 568.98,376.9 559.46,369.93C549.94,362.97 560.85,324.87 576.8,316.88Z" style="fill:rgb(85,109,255);fill-rule:nonzero;"/>
                <path d="M576.8,316.88C592.76,308.88 627.82,320.29 633.94,332.36C640.06,344.43 627.72,378.51 614.55,383.2C601.39,387.88 568.98,376.9 559.46,369.93C549.94,362.97 560.85,324.87 576.8,316.88Z" style="fill-opacity:0;fill-rule:nonzero;stroke:rgb(43,43,43);stroke-width:4px;"/>
            </g>
            <g>
                <path d="M576.8,316.88C592.76,308.88 627.82,320.29 633.94,332.36C640.06,344.43 627.72,378.51 614.55,383.2C601.39,387.88 568.98,376.9 559.46,369.93C549.94,362.97 560.85,324.87 576.8,316.88Z" style="fill:rgb(85,109,255);fill-rule:nonzero;"/>
                <path d="M576.8,316.88C592.76,308.88 627.82,320.29 633.94,332.36C640.06,344.43 627.72,378.51 614.55,383.2C601.39,387.88 568.98,376.9 559.46,369.93C549.94,362.97 560.85,324.87 576.8,316.88Z" style="fill-opacity:0;fill-rule:nonzero;stroke:rgb(43,43,43);stroke-width:4px;"/>
            </g>
        </g>
        <g>
            <g>
                <path d="M666.08,337.34C680.99,329.87 713.75,340.52 719.46,351.8C725.18,363.07 713.65,394.92 701.35,399.29C689.05,403.67 658.78,393.41 649.88,386.9C640.98,380.4 651.18,344.8 666.08,337.34Z" style="fill:rgb(85,109,255);fill-rule:nonzero;"/>
                <path d="M666.08,337.34C680.99,329.87 713.75,340.52 719.46,351.8C725.18,363.07 713.65,394.92 701.35,399.29C689.05,403.67 658.78,393.41 649.88,386.9C640.98,380.4 651.18,344.8 666.08,337.34Z" style="fill-opacity:0;fill-rule:nonzero;stroke:rgb(43,43,43);stroke-width:4px;"/>
            </g>
            <g>
                <path d="M666.08,337.34C680.99,329.87 713.75,340.52 719.46,351.8C725.18,363.07 713.65,394.92 701.35,399.29C689.05,403.67 658.78,393.41 649.88,386.9C640.98,380.4 651.18,344.8 666.08,337.34Z" style="fill:rgb(85,109,255);fill-rule:nonzero;"/>
                <path d="M666.08,337.34C680.99,329.87 713.75,340.52 719.46,351.8C725.18,363.07 713.65,394.92 701.35,399.29C689.05,403.67 658.78,393.41 649.88,386.9C640.98,380.4 651.18,344.8 666.08,337.34Z" style="fill-opacity:0;fill-rule:nonzero;stroke:rgb(43,43,43);stroke-width:4px;"/>
            </g>
        </g>
        <g>
            <g>
                <path d="M830.54,370.91C841.84,365.25 866.67,373.33 871,381.88C875.34,390.43 866.6,414.57 857.28,417.89C847.95,421.2 825,413.43 818.25,408.49C811.51,403.56 819.24,376.58 830.54,370.91Z" style="fill:rgb(85,109,255);fill-rule:nonzero;"/>
                <path d="M830.54,370.91C841.84,365.25 866.67,373.33 871,381.88C875.34,390.43 866.6,414.57 857.28,417.89C847.95,421.2 825,413.43 818.25,408.49C811.51,403.56 819.24,376.58 830.54,370.91Z" style="fill-opacity:0;fill-rule:nonzero;stroke:rgb(43,43,43);stroke-width:4px;"/>
            </g>
            <g>
                <path d="M830.54,370.91C841.84,365.25 866.67,373.33 871,381.88C875.34,390.43 866.6,414.57 857.28,417.89C847.95,421.2 825,413.43 818.25,408.49C811.51,403.56 819.24,376.58 830.54,370.91Z" style="fill:rgb(85,109,255);fill-rule:nonzero;"/>
                <path d="M830.54,370.91C841.84,365.25 866.67,373.33 871,381.88C875.34,390.43 866.6,414.57 857.28,417.89C847.95,421.2 825,413.43 818.25,408.49C811.51,403.56 819.24,376.58 830.54,370.91Z" style="fill-opacity:0;fill-rule:nonzero;stroke:rgb(43,43,43);stroke-width:4px;"/>
            </g>
        </g>
        <g>
            <g>
                <path d="M901.88,387.14C911.21,382.47 931.71,389.14 935.28,396.19C938.86,403.24 931.65,423.17 923.95,425.91C916.26,428.65 897.31,422.23 891.74,418.16C886.18,414.08 892.56,391.81 901.88,387.14Z" style="fill:rgb(85,109,255);fill-rule:nonzero;"/>
                <path d="M901.88,387.14C911.21,382.47 931.71,389.14 935.28,396.19C938.86,403.24 931.65,423.17 923.95,425.91C916.26,428.65 897.31,422.23 891.74,418.16C886.18,414.08 892.56,391.81 901.88,387.14Z" style="fill-opacity:0;fill-rule:nonzero;stroke:rgb(43,43,43);stroke-width:4px;"/>
            </g>
            <g>
                <path d="M901.88,387.14C911.21,382.47 931.71,389.14 935.28,396.19C938.86,403.24 931.65,423.17 923.95,425.91C916.26,428.65 897.31,422.23 891.74,418.16C886.18,414.08 892.56,391.81 901.88,387.14Z" style="fill:rgb(85,109,255);fill-rule:nonzero;"/>
                <path d="M901.88,387.14C911.21,382.47 931.71,389.14 935.28,396.19C938.86,403.24 931.65,423.17 923.95,425.91C916.26,428.65 897.31,422.23 891.74,418.16C886.18,414.08 892.56,391.81 901.88,387.14Z" style="fill-opacity:0;fill-rule:nonzero;stroke:rgb(43,43,43);stroke-width:4px;"/>
            </g>
        </g>
        <g>
            <g>
                <path d="M753.78,355.09C766.76,348.59 795.3,357.87 800.28,367.69C805.26,377.51 795.21,405.26 784.5,409.07C773.79,412.88 747.41,403.94 739.66,398.27C731.91,392.6 740.79,361.6 753.78,355.09Z" style="fill:rgb(85,109,255);fill-rule:nonzero;"/>
                <path d="M753.78,355.09C766.76,348.59 795.3,357.87 800.28,367.69C805.26,377.51 795.21,405.26 784.5,409.07C773.79,412.88 747.41,403.94 739.66,398.27C731.91,392.6 740.79,361.6 753.78,355.09Z" style="fill-opacity:0;fill-rule:nonzero;stroke:rgb(43,43,43);stroke-width:4px;"/>
            </g>
            <g>
                <path d="M753.78,355.09C766.76,348.59 795.3,357.87 800.28,367.69C805.26,377.51 795.21,405.26 784.5,409.07C773.79,412.88 747.41,403.94 739.66,398.27C731.91,392.6 740.79,361.6 753.78,355.09Z" style="fill:rgb(85,109,255);fill-rule:nonzero;"/>
                <path d="M753.78,355.09C766.76,348.59 795.3,357.87 800.28,367.69C805.26,377.51 795.21,405.26 784.5,409.07C773.79,412.88 747.41,403.94 739.66,398.27C731.91,392.6 740.79,361.6 753.78,355.09Z" style="fill-opacity:0;fill-rule:nonzero;stroke:rgb(43,43,43);stroke-width:4px;"/>
            </g>
        </g>
        <g>
            <path d="M340.91,412.59C345.31,412.59 719.28,663.34 719.28,663.34L919.31,633.14L905,623C905,623 848.83,615.11 847.31,615.11C844.52,615.11 702.31,453.33 702.31,453.33L340.91,412.59Z" style="fill:url(#_Linear8);fill-rule:nonzero;"/>
            <path d="M340.91,412.59C345.31,412.59 719.28,663.34 719.28,663.34L919.31,633.14L905,623C905,623 848.83,615.11 847.31,615.11C844.52,615.11 702.31,453.33 702.31,453.33L340.91,412.59Z" style="fill-opacity:0;fill-rule:nonzero;stroke:black;stroke-width:4px;stroke-linecap:round;stroke-linejoin:round;"/>
        </g>
        <g>
            <path d="M340.91,411.59C340.91,412.59 350.17,436.97 350.17,436.97L715,674L917,641L919.31,633.14L719.28,663.34C719.28,663.34 340.91,410.59 340.91,411.59Z" style="fill:rgb(170,170,170);fill-rule:nonzero;"/>
            <path d="M340.91,411.59C340.91,412.59 350.17,436.97 350.17,436.97L715,674L917,641L919.31,633.14L719.28,663.34C719.28,663.34 340.91,410.59 340.91,411.59Z" style="fill-opacity:0;fill-rule:nonzero;stroke:black;stroke-width:4px;stroke-linecap:round;stroke-linejoin:round;"/>
        </g>
        <path d="M719.28,663.34L715,674" style="fill:none;fill-rule:nonzero;stroke:black;stroke-width:4px;"/>
        <g>
            <g>
                <path d="M934.6,279.56C945.44,256.03 965.3,241.98 978.95,248.18C992.61,254.38 994.9,278.48 984.06,302.01C973.23,325.53 953.37,339.58 939.72,333.38C926.06,327.18 923.77,303.08 934.6,279.56Z" style="fill:rgb(255,97,0);fill-rule:nonzero;"/>
                <path d="M936.67,279.25L938.8,274.95L943.43,267.43L948.45,261.16L953.71,256.16L959.06,252.46L964.39,250.08L968.28,249.22L970.84,249.08L973.41,249.33L975.92,249.99L977.1,250.48L977.03,250.44L978.28,251.08L980.48,252.59L982.4,254.46L984.08,256.67L985.49,259.2L986.64,262.03L987.52,265.12L988.13,268.45L988.46,272L988.52,275.73L988.06,281.64L986.45,289.91L983.69,298.36L981.91,302.51L982,302.31L979.87,306.61L975.24,314.13L970.22,320.4L964.96,325.4L959.61,329.1L954.28,331.48L950.39,332.34L947.83,332.48L945.26,332.23L942.75,331.57L941.57,331.08L941.64,331.12L940.39,330.48L938.19,328.97L936.26,327.1L934.59,324.89L933.18,322.36L932.03,319.53L931.14,316.44L930.54,313.11L930.2,309.56L930.15,305.83L930.6,299.92L932.22,291.65L934.98,283.2L936.76,279.05C937.12,278.21 937.03,277.54 936.52,277.29C935.75,276.9 934.27,277.6 933.21,278.86C932.15,280.11 931.92,281.44 932.69,281.82L932.45,280.06L930.47,284.74L927.55,293.8L925.87,302.52L925.41,308.72L925.47,312.67L925.83,316.43L926.49,319.96L927.44,323.25L928.68,326.27L930.22,328.98L932.04,331.37L934.16,333.39L936.55,335.01L937.79,335.65C937.82,335.66 937.84,335.67 937.86,335.68L939.28,336.24L942.16,336.97L945.2,337.21L948.43,336.97L953.47,335.7L960.24,332.48L966.92,327.68L973.24,321.52L979,314.2L984,306L986.13,301.7C986.16,301.63 986.19,301.57 986.22,301.5L988.2,296.82L991.12,287.76L992.8,279.05L993.26,272.84L993.2,268.89L992.84,265.14L992.18,261.6L991.23,258.31L989.99,255.29L988.45,252.58L986.63,250.2L984.51,248.17L982.12,246.55L980.88,245.92C980.85,245.9 980.83,245.89 980.81,245.88L979.39,245.32L976.51,244.6L973.47,244.35L970.24,244.59L965.2,245.86L958.43,249.08L951.75,253.88L945.43,260.04L939.67,267.36L934.67,275.56L932.54,279.86C931.9,281.16 932.3,282.08 933.44,281.91C934.58,281.74 936.02,280.55 936.67,279.25" style="fill:rgb(68,0,0);fill-rule:nonzero;"/>
            </g>
            <g>
                <path d="M943.05,334.48L952.38,299.3L928.09,300.03L954.54,286.78L957.08,253.47L964.1,280.46L989.96,259.15L967.84,289.08L981.28,309.22L960.6,300.72L943.05,334.48Z" style="fill:rgb(255,0,0);fill-rule:nonzero;"/>
                <path d="M943.05,334.48L952.38,299.3L928.09,300.03L954.54,286.78L957.08,253.47L964.1,280.46L989.96,259.15L967.84,289.08L981.28,309.22L960.6,300.72L943.05,334.48Z" style="fill-opacity:0;fill-rule:nonzero;stroke:black;stroke-width:1.5px;"/>
            </g>
        </g>
        <path d="M965.51,371.25L967.81,372.73L971.9,375.73L975.35,378.79L978.2,381.91L980.49,385.07L982.24,388.27L983.47,391.48L984.24,394.69L984.56,399.53L983.62,405.88L981.35,411.99L978.01,417.87L973.77,423.5L968.81,428.86L963.3,433.88L957.45,438.45L951.48,442.48L945.64,445.86L940.16,448.49L935.29,450.27L933.25,450.8C932.04,451.12 930.66,452.4 930.15,453.67C929.64,454.94 930.21,455.72 931.41,455.4L933.98,454.71L939.46,452.66L945.52,449.73L951.94,445.98L958.52,441.51L965.04,436.36L971.28,430.61L977.01,424.34L981.94,417.63L985.8,410.64L988.32,403.53L989.3,396.48L988.91,391.26L988.07,387.79L986.74,384.37L984.89,381.01L982.49,377.71L979.53,374.48L975.97,371.34L971.8,368.28L969.49,366.8C968.78,366.35 967.32,366.98 966.22,368.2C965.11,369.43 964.8,370.8 965.51,371.25" style="fill:rgb(43,43,43);fill-rule:nonzero;"/>
        <path d="M949.51,371.25L951.82,372.73L955.96,375.69L959.5,378.68L962.49,381.7L964.95,384.73L966.91,387.77L968.98,392.34L970.25,398.35L970.03,404.17L968.59,409.73L966.18,414.99L962.99,419.95L959.2,424.61L954.97,428.94L950.48,432.88L945.93,436.34L941.56,439.24L937.58,441.49L934.26,443.01L933.02,443.44C931.77,443.88 930.45,445.24 930.06,446.48C929.68,447.71 930.39,448.34 931.64,447.9L933.45,447.24L937.4,445.39L941.94,442.79L946.89,439.48L952.05,435.52L957.22,430.93L962.18,425.79L966.67,420.15L970.44,414.12L973.21,407.83L974.77,401.42L974.94,394.97L973.54,388.56L971.35,383.78L969.3,380.6L966.74,377.46L963.65,374.35L960.01,371.29L955.8,368.28L953.49,366.8C952.78,366.35 951.31,366.98 950.21,368.21C949.11,369.44 948.8,370.8 949.51,371.25" style="fill:rgb(43,43,43);fill-rule:nonzero;"/>
    </g>
    <defs>
        <linearGradient id="_Linear1" x1="0" y1="0" x2="1" y2="0" gradientUnits="userSpaceOnUse" gradientTransform="matrix(357.97,-243.15,243.15,357.97,330.03,451.74)"><stop offset="0" style="stop-color:rgb(122,168,39);stop-opacity:1"/><stop offset="1" style="stop-color:rgb(163,168,39);stop-opacity:0"/></linearGradient>
        <linearGradient id="_Linear2" x1="0" y1="0" x2="1" y2="0" gradientUnits="userSpaceOnUse" gradientTransform="matrix(5.95362e-15,97.23,-97.23,5.95362e-15,430.23,408.08)"><stop offset="0" style="stop-color:rgb(64,64,64);stop-opacity:1"/><stop offset="1" style="stop-color:rgb(64,64,64);stop-opacity:1"/><stop offset="0" style="stop-color:rgb(163,168,39);stop-opacity:0"/><stop offset="1" style="stop-color:rgb(163,168,39);stop-opacity:0"/></linearGradient>
        <linearGradient id="_Linear3" x1="0" y1="0" x2="1" y2="0" gradientUnits="userSpaceOnUse" gradientTransform="matrix(21.443,-52.81,52.81,21.443,43.055,431.88)"><stop offset="0" style="stop-color:black;stop-opacity:1"/><stop offset="0.54" style="stop-color:rgb(43,43,43);stop-opacity:1"/><stop offset="1" style="stop-color:rgb(43,43,43);stop-opacity:1"/></linearGradient>
        <radialGradient id="_Radial4" cx="0" cy="0" r="1" gradientUnits="userSpaceOnUse" gradientTransform="matrix(27.503,0,0,27.503,424.7,547.78)"><stop offset="0" style="stop-color:black;stop-opacity:1"/><stop offset="1" style="stop-color:rgb(128,128,128);stop-opacity:1"/></radialGradient>
        <radialGradient id="_Radial5" cx="0" cy="0" r="1" gradientUnits="userSpaceOnUse" gradientTransform="matrix(27.503,0,0,27.503,519.98,612.37)"><stop offset="0" style="stop-color:black;stop-opacity:1"/><stop offset="1" style="stop-color:rgb(128,128,128);stop-opacity:1"/></radialGradient>
        <linearGradient id="_Linear6" x1="0" y1="0" x2="1" y2="0" gradientUnits="userSpaceOnUse" gradientTransform="matrix(117.63,0,0,117.63,827.1,274.32)"><stop offset="0" style="stop-color:rgb(255,134,38);stop-opacity:1"/><stop offset="1" style="stop-color:rgb(225,46,0);stop-opacity:1"/></linearGradient>
        <linearGradient id="_Linear7" x1="0" y1="0" x2="1" y2="0" gradientUnits="userSpaceOnUse" gradientTransform="matrix(654.86,0,0,654.86,347.84,328.43)"><stop offset="0" style="stop-color:rgb(225,46,0);stop-opacity:1"/><stop offset="1" style="stop-color:rgb(255,134,38);stop-opacity:1"/></linearGradient>
        <linearGradient id="_Linear8" x1="0" y1="0" x2="1" y2="0" gradientUnits="userSpaceOnUse" gradientTransform="matrix(291.92,-126.55,126.55,291.92,468.83,591.63)"><stop offset="0" style="stop-color:rgb(122,168,39);stop-opacity:1"/><stop offset="1" style="stop-color:white;stop-opacity:1"/></linearGradient>
    </defs>
</svg>
