<?xml version="1.0" encoding="utf-8"?>
<!DOCTYPE svg PUBLIC "-//W3C//DTD SVG 1.1//EN" "http://www.w3.org/Graphics/SVG/1.1/DTD/svg11.dtd">
<svg version="1.1" id="Layer_1" xmlns="http://www.w3.org/2000/svg" xmlns:xlink="http://www.w3.org/1999/xlink" x="0px" y="0px"
	 viewBox="0 0 1920 1322" enable-background="new 0 0 1920 1322" xml:space="preserve">
<g>
	<path fill="#FFFFFF" stroke="#FFFFFF" stroke-width="0.494" d="M725.44,387.49c2.95-1.71,7.29-1.13,9,2.04
		c3.43,6.89-5.21,16.06-12.2,12.3C716.96,398.09,720.23,389.67,725.44,387.49z"/>
	<path fill="#FFFFFF" stroke="#FFFFFF" stroke-width="0.494" d="M816.48,420.53c3.74-1.11,8.13,1.15,9.04,5.03
		c1.32,6.03-3.1,12.35-8.94,13.88c-3.99,1.52-8.93-1.26-9.59-5.49C806.01,427.94,810.66,421.85,816.48,420.53z"/>
	<path fill="#FFFFFF" stroke="#FFFFFF" stroke-width="0.494" d="M440.63,595.3c39.72-9.77,80.5-16.27,121.49-15.56
		c4.21,10.09,7.25,20.91,10.68,31.39c22.36,72.8,33.27,149.9,25.17,225.91c-5.5699,54.9901-21.15,108.9-45.45,158.53
		c-10.93,22.48-23.66,44.06-37.69,64.7401c-36.17-23.14-71.38-48.2101-102.35-78.0701c28.17-52.09,51.9-107.15,64.52-165.2
		c9.19-43.12,11.73-88.2599,2.33-131.57C472.7,653.18,459.03,622.57,440.63,595.3 M437.57,948.59c-4.3,3.41-7.11,8.58-8.97,13.62
		c-2.24,4.24-3.72,8.96-3.89,13.77c-0.26,1.84,0.78,3.38,1.96,4.69c23.11,24.55,51.87,42.7,80.31,60.3801
		c2.21,1.61,5.03,2.4099,7.71,1.5c4.73-1.76,8.11-5.8101,11.06-9.7301c2.67-4.0599,5.46-8.5399,5.14-13.6
		C501.33,995.71,471.46,972.59,441.84,949.15C440.66,948.04,438.89,947.12,437.57,948.59z"/>
	<path stroke="#000000" stroke-width="0.494" d="M602.27,74.21c9.98-2.85,21.75-2.19,30.13,4.46c9.3,7.34,13.49,19.08,16.31,30.18
		c2-1.13,3.03-3.76,4.98-5.16c9.17-8.74,23.62-10.27,35.01-5.32c5.73,2.65,10.04,7.86,12.13,13.77c2.43,6.3,2.9,13.13,3.03,19.82
		c-0.21,22.23-6.56,43.78-8.23,65.88c9.32,14.07,13.23,31.32,12.58,48.08c-0.5,16.77-6.7,33.94-19.23,45.48
		c1.3,30.09,5.15,60,9.5,89.79c7.64-9.22,16.23-17.77,26.22-24.44c18.39-12.45,41.59-18.88,63.64-14.33
		c4.5699-3.13,9.34-5.99,14.37-8.34c-7.35-8.96-13.94-19.99-13.07-32c0.54-8.86,6.9-15.6,12.78-21.59
		c13.26-13.87,30.19-24.74,49.11-28.78c16.5099-3.89,33.93-2.28,50.06,2.57c8.85,2.82,14.5699,11.21,16.8199,19.87
		c3.8701,14.97,2.59,30.66,0.65,45.81c13.06,2.19,26.19,4.26,38.92,8.01c1.98-8.84,6.28-17.93,14.33-22.73
		c4.68-3,10.35-3.46,15.71-4.25c16.79-2.51,34.29-1.1,50.22,4.92c18.79,7,34.49,20.86,45.49,37.45
		c4.15,6.35,4.5601,14.54,2.3101,21.64c-3.3401,10.73-10.3201,19.81-17.48,28.27c3.45,4.31,6.86,8.66,9.8799,13.28
		c11.53-12.95,25.8601-23.24,41.4501-30.73c21.37-10.5,44.59-16.23,67.08-23.74c20.1-6.65,40.15-15.58,55.38-30.69
		c16.2001-15.66,25.9601-36.79,31.47-58.37c0.77-2.64,1.16-5.4,2.2101-7.96c2.01-4.31,7.78-6.62,12.09-4.34
		c24.28,11.49,48.63,22.82,72.9,34.33c4.26,1.9,6.3099,7.27,4.5699,11.57c-4.6899,13.34-9.6699,26.6-15.5699,39.47
		c-8.55,18.53-18.7001,36.96-34.0701,50.76c22.76-10.54,40.01-30.04,52.7301-51.22c2.6699-5.34,10.75-6.38,14.7799-2.02
		c15.2201,14.36,30.4701,28.69,45.6001,43.16c6.58-6.02,14.0399-11.68,22.99-13.46c5.95-1.14,11.96,0.37,17.8099,1.47
		c18.36,3.92,36.15,13.67,46.92,29.41c5.6699,7.95,8.4,17.43,11.5699,26.55c4.29,12.19,8.09,24.56,11.9601,36.9
		c26.72-0.62,52.8999,5.39,78.83,11.08c17.54,4.27,35.23,8.69,51.61,16.48c9.52,4.8,19.22,10.9,24.4301,20.57
		c4.49,8.26,3.6,18.32,0.37,26.85c-2.55,5.93-8.3301,10-14.62,11.04c-17.8101,7.26-36.9401,10.25-55.8601,12.97
		c-19.74,2.71-39.5199,5.07-59.37,6.78c9.0901,50.35,13.9601,101.45,14.1801,152.6201c-0.53,51.6899-5.45,103.5699-17.89,153.83
		c70.5701,11.46,141.1901,22.98,211.05,38.26c24.1899,5.45,48.3099,11.5,71.5699,20.18c9.38,3.59,18.66,7.59,27.34,12.68
		c6.89,4.15,13.63,8.96,18.41,15.55c3.6901,5.12,5.87,11.78,4.23,18.06c-1.98,5.3199-7.0699,8.5699-11.83,11.18
		c-12.38,6.31-26.03,9.53-39.51,12.53c-24.51,5.16-49.41,8.06-74.29,10.66c-90.58,8.48-181.4299,13.71-272.2899,17.85
		c-21.28,33.7-46.65,64.8199-75.41,92.4199c-57.27,55.24-127.1801,96.15-201.08,124.89c-22.4901,8.8199-45.41,16.48-68.5701,23.29
		c-8.47,2.21-16.74,5.34-25.48,6.3099c-49.46,7.22-99.9,5.14-149.23-2.11c-85.52-12.67-168.28-39.9299-247.4301-74.22
		c-74.3199-32.48-145.7-71.67-213.16-116.7001c-42.78-28.6299-84-59.6599-122.78-93.5399c-67.69-3.79-135.23-9.97-202.55-17.89
		c-40.62-5.08-81.4-10.04-121.15-20.11c-13.12-3.54-26.29-7.33-38.47-13.47c-5.48-2.9-11.13-6.21-14.61-11.53
		c-1.99-2.95-2.51-6.91-0.83-10.12c3.23-6.32,9.57-10.16,15.53-13.57c16.24-8.7401,34-14.11,51.59-19.37
		c59.2-16.57,119.75-27.55,179.97-39.58c-21.68-33.54-39.25-70.63-45.45-110.38c-2.48-13.15,2.47-26.36,9.19-37.49
		c10.84-17.59,26.15-31.91,42.41-44.43c31.47-23.83,67.4-41.12,104.27-54.83c60.53-22.06,124.82-33.4,189.18-34.57
		c15.81-37.27,39.8-71.16,70.41-97.73c1.72-1.74,4.94-3.06,4-6.05c-3.1-38.34-1.85-76.99-7.28-115.14
		c-1.96-11-3.86-22.31-9.07-32.31c-14.85-1.85-28.79-9.38-38.59-20.68c-8.32-9.11-14.05-20.13-20.59-30.47
		c-17.75-8.91-37.73-12.79-54.79-23.2c-7.36-4.46-14.38-10.47-17.4-18.77c-2.72-7.85-1.2-16.49,2.05-23.94
		c2.53-6.01,6.03-11.83,11.22-15.91c-7.83-8.57-15.57-18.08-18.16-29.67c-1.87-8.83,0.62-18.19,6.39-25.09
		c5.56-6.98,13.06-13.15,22.11-14.57c4.02-0.77,8.08-0.05,12.05,0.63c0.46-8.65,6.06-16.29,13.45-20.49
		c9.39-5.41,20.78-9.13,31.59-6.19c6.39,1.48,11.96,5.36,16.58,9.91C588.79,82.67,594.67,76.29,602.27,74.21 M606.44,93.7l-1.5-0.3
		c-5.76,3.72-6.35,11.36-6.13,17.58c2.3,26.43,11.59,51.55,15.92,77.62c-0.48,1.41-0.95,2.82-1.41,4.24
		c-1.34-2.12-2.15-4.97-4.77-5.84c-11.64-23.5-17.55-49.63-31.44-72.04c-3.97-5.97-9-11.91-16.1-14.09c-6-1.6-12.52,0.08-17.49,3.65
		c-3.87,3.34-3.64,8.98-2.69,13.55c2.09,7.39,5.71,14.25,9.68,20.79c11.1,18.17,24.32,34.93,35.73,52.9
		c2.93,4.75,6.13,9.43,7.99,14.73l1.21,0.33c-0.26,0.41-0.78,1.22-1.04,1.63c-0.27-2.25-2.55-3.35-3.91-4.9
		c-22.99-22.22-38.97-50.87-63.75-71.36l-0.72,0.3c-0.6-0.43-1.81-1.29-2.42-1.72l0.15-0.32c-4.47-2.48-9.68-4.01-14.76-2.59
		c-4.95,2.09-9.05,6.69-9.57,12.17c-0.49,5.33,1.92,10.41,4.88,14.69c7.28,10.52,17.12,18.89,26.68,27.24
		c15.07,13.2,31.49,25.16,44.27,40.73c-18.38-6.6-32.23-21.53-50.14-29.12c-4.64-1.86-10.28-3.19-14.86-0.47
		c-5.36,3.61-8.14,10.84-6.41,17.09c4.22,9.41,14.84,13.23,23.67,17.04c12.93,5.3,26.51,9.06,38.98,15.47
		c1.81,1.04,3.86,1.92,5.16,3.64c5.3199,8.1,9.45,17.09,15.69,24.53c1.48,2.72,3.56,5.07,5.99,6.99
		c8.57,9.78,21.89,14.66,34.75,14.68c10.91,15.64,14.88,34.81,17.43,53.38c1.84,14.61,2.76,29.33,3.18,44.05
		c1.12,14.98,1.36,30.01,2.11,45.02c0.75,5.68,0.82,11.41,1.26,17.11c2.04-0.81,3.87-2.03,5.68-3.25
		c9.3-5.93,18.97-11.24,28.77-16.29c-5.9-31.42-12.35-62.8-16.22-94.56c-0.96-8.08-1.61-16.26-2.9-24.27
		c0.14-9.86-1.59-19.66-1.28-29.55c11.08-6.38,17.31-18.82,19.06-31.14c1.94-13.84-0.47-28.5-7.39-40.7
		c-1.55-3.18-5.05-5.51-5.09-9.3c0.8-13.46,3.08-26.77,5.4-40.04c0.17-1.67,0.69-3.41,0.24-5.08l0.46,0.06
		c0.14-0.74,0.42-2.21,0.56-2.95c0.36-3.56,1.25-7.09,1.08-10.68c1.15-6.38,1.71-13.29-0.21-19.55c-0.3-3.88-3.0699-8-7.12-8.71
		c-4.59-1.17-9.45,1.06-12.25,4.71c-3.8,4.96-5.56,11.13-6.72,17.18c-3.55,21.77-1.63,44.03,1.73,65.7
		c-4.85-4.03-9.76-7.98-14.66-11.92c-1.52-1.13-1.81-3.12-2.38-4.79c-6.29-24.96-6.16-51.09-13.17-75.89
		c-2.2401-6.94-5.4-14.97-12.78-17.78l-1.18,0.32l0.07-0.37C610.42,92.37,606.96,91.98,606.44,93.7 M1270.76,296.46
		c-5.35,11.2-12.08,21.81-20.6,30.87c-4.0901,4.41-8.5801,8.41-13.37,12.03c-11.36,8.42-24.16,14.59-37.3,19.69
		c-8.3099,3.22-16.89,5.64-25.3,8.56c-13.86,4.03-27.75,8.2-41.0399,13.87c-9.5701,3.74-18.6901,8.58-27.3101,14.15
		c-10.89,7.12-20.5599,16.12-28.37,26.53c-2.2,3.2-4.9,6.14-6.4199,9.74c3.6399,8.36,6.5399,17.06,7.96,26.1
		c1.16,10.19,2.0599,20.42,2.9,30.64c0.48-0.63,1.46-1.91,1.95-2.55c0.35,0.38,1.0601,1.15,1.42,1.53
		c-0.99,2.12-2.4501,4.03-3.11,6.3c-0.8501-1.54-1.67-3.1-2.75-4.46c-0.3-0.01-0.9-0.03-1.2001-0.04c-0.34-0.34-1.01-1.03-1.35-1.37
		c-5.4-0.33-10.84-0.16-16.15-1.37l-0.03,0.86c-16.84-1.58-33.7799-1.19-50.6699-0.99c-4.36-0.17-8.64,0.93-12.98,0.88
		c-20.4,0.11-40.66,2.67-61.04,3.19c-6.7,1.2-13.52,0.59-20.28,1.11c-0.31-1-0.62-1.98-0.91-2.96c2.84-5.53,5.19-11.36,6.8-17.36
		c3.81-4.96,2.97-11.88,5.28-17.55c-0.36,2.01-0.51,4.05-0.55,6.1c46.03-4.2,89.2599-22.77,129.71-44.19
		c-0.3101-1.48-0.78-2.93-1.8201-4.04c-3.64-4.35-7.02-8.94-11.26-12.74c-7.08,8.25-13.6,16.97-20.39,25.46
		c-1.51,1.57-3.25,3.71-5.71,2.96c-2.76-1.94-4.91-4.59-7.34-6.89c-8.73-9.07-18.73-17.43-30.63-21.93
		c-3.61-1.55-8.57-1.04-10.96-4.62c-0.34-10.38-1.82-20.67-2.87-30.99c-0.06-0.63-0.17-1.9-0.23-2.54l-0.53-0.18
		c-0.32-2.88,1.69-8.11-2.32-8.96c-17.79-5.67-36.13-9.77-54.69-11.7c-3.41-3.38-8.75-1.13-12.82-3.21
		c1.12-4.06,1.23-8.29,1.79-12.44c1.65-13,3.03-26.24,1.18-39.29c-0.92-4.24-1.86-9.91-6.65-11.39
		c-12.24-3.38-25.28-4.86-37.78-2.02c-15.85,3.02-29.99,12.1-41.03,23.65c-2.64,2.9-5.8,5.56-7.43,9.19
		c-1,5.36,1.95,10.3,4.69,14.65c5.92,8.71,13.69,15.99,21.76,22.7c-0.81,0.83-1.43,1.82-2.08,2.77
		c-13.65,3.77-27.25,9.27-38.19,18.46l-0.35-0.19c-0.86,0.64-1.71,1.28-2.55,1.93c-11.6-4.53-24.83-3.78-36.63-0.37
		c-1.57,0.35-3.06,0.96-4.06,2.28c6.38-0.73,12.93-1.23,19.25,0.23c8.21,1.72,15.73,6.25,21.21,12.58c6.1,7.5,9.37,17.2,9.02,26.87
		c0.5,8.26-1.66,16.34-4.5,24.02c6.92-9.64,15.41-17.98,24.86-25.13c1.56-0.93,3.12-1.87,4.67-2.84
		c17.03-11.39,38.3-16.69,58.65-13.42c-1.25,0.59-2.48,1.2-3.7,1.82c-6.6-1.19-13.38-0.8-19.99,0.05c-1.45,0.09-2.78,0.65-4.07,1.25
		c-3.87-0.55-7.56,1.35-11.04,2.78c7.22-0.14,14.57-1,21.7,0.67c16.75,2.81,30.88,16.1,35.39,32.39c3.47,12.32,2.67,25.68-1,37.88
		c-9.09,28.39-33.77,51.99-63.39,57.48c-12.73,2.22-26.45,0.42-37.42-6.72c-10.11-6.34-17.1-16.97-20.04-28.42
		c-0.06,0.75-0.18,2.25-0.25,3l-2.1,0.26c-0.4-2.84-0.36-5.71-0.31-8.55c-0.35-0.44-1.05-1.3-1.4-1.74
		c1.94-0.68,1.49-3.06,1.76-4.65c0.85-10.12,4.27-19.7,7.58-29.21c-4.6801,4.69-9.0601,9.8-14.72,13.37
		c-12.55,9.07-28.97,14.02-44.28,10.14c-11.2-2.7-20.83-10.81-25.35-21.41c-1.42-3.72-2.26-7.61-2.96-11.51
		c-0.73,4.76-0.91,9.72,0.53,14.37c2.24,10.11,7.55,19.61,15.64,26.17c0.51,1.31,0.99,2.66,1.65,3.92
		c-5.41,11.25-8.81,23.66-9.33,36.14c-0.79,6.9-0.79,13.97,0,20.88c1,19.03,6.64,37.79,15.28,54.74c-0.84,0.63-1.68,1.26-2.5,1.91
		c-2.83-0.62-5.72-1.94-8.61-0.86c-29.69-6.97-59.91-11.94-90.39-13.47c-11.28-1.54-22.71-0.63-34.04-1.33
		c-1.65-0.28-3.28,0.1-4.87,0.48c9.23,25.81,16.85,52.21,22.94,78.93c19.78,85.77,20.93,176.74-3.66,261.68
		c-13.42,47.46-34.62,92.56-61.29,133.9999c-2.51,4.3201-5.98,8.0701-8.1,12.6101c54.7401,36.6799,112.3101,69.13,171.82,97.4099
		c75.5,35.61,154.42,64.74,236.2,82.0701c22.34,4.39,44.79,8.65,67.49,10.59c4.99,1.77,10.33,1.51,15.51,2.34
		c1.52,0.24,3.02,0.1,4.51-0.4299c7.08,1.08,14.28,0.75,21.42,1c10.6499,1.09,21.45,1.1699,32.1,0.0399
		c12.7-0.0199,25.41-0.8199,37.98-2.7c11.3199-0.71,22.1899-4.15,33.03-7.23c19.76-5.92,39.46-12.1,58.7999-19.28
		c72.8201-26.58,142.8101-63.79,200.16-116.52c28.9-26.47,54.1901-56.84,75.12-89.99c1.28-1.19,1.6801-2.81,1.52-4.5
		c-7.91,1.42-15.99,1.19-23.98,1.23l-0.0801,0.74c-3.6499-0.35-7.2999-0.12-10.9399-0.07c-11.25-0.39-22.41,1.1-33.64,1.19
		c-12.41,0.35-24.87-0.07-37.22,1.09c-5.9301,0.1-11.89-0.3201-17.76,0.61c-14.6801,0.5-29.39,0.15-44.0601,0.74
		c-54.98,0.74-109.98,0.79-164.97,0.35c-22.35,0.1901-44.65-0.95-67-0.96c-13.6799-1.37-27.48-0.64-41.1799-1.7
		c-11.52,0.22-22.92-1.44-34.42-1.36c-4.4-1.11-8.98-0.3701-13.43-1c-3.62-0.55-7.27-0.79-10.91-0.84c-3.19-0.06-6.39-1.15-9.52-0.2
		c-5.16-1.2-10.53-0.28-15.68-1.46c-24.07-2.11-48.8-3.71-71.29-13.35c-12.49-5.05-23.38-13.71-31.64-24.29
		c-6.93-8.97-10.14-21.07-7.02-32.14c2.23-8.15,6.97-15.37,12.55-21.62c13.49-14.16,29.34-25.88,46.04-35.98
		c16.43-9.64,34.29-16.46,52.24-22.67c63.67-21.58,130.4-33.2,197.3-38.24c8.4299-0.17,16.89-0.74,25.27-1.26
		c14.45,0.12,28.9199,0.08,43.37,0.02c8.4199,0.5,16.89,1.01,25.35,1.32c7.96,1.2,16.0699,1.08,24,2.63
		c16.83,1.78,33.36,5.45,50,8.43c67.34,13.09,134.6899,26.28,202.55,36.4c4.0599,0.54,8.0399,1.96,12.1899,1.6299
		c11.63-41.65,18.13-84.66,20.58-127.79c0.14-17.32,2.25-34.68,0.3401-51.97c0.01-6.66-0.1001-13.33-0.3301-19.98
		c-2.1-38.58-6.9299-77.02-14.2899-114.95c-0.6001-3.6-1.04-7.29-2.6101-10.6201c-7.0699,1.4901-14.3199,1.03-21.46,1.78
		c-15.33,0.53-30.6699,0.56-46.01,0.52c-10.71-0.19-21.5699-0.09-32.02-2.78c-5.21-0.9-8.96-5.18-11.5699-9.48
		c-3.97-7.41-6.34-16.15-4.27-24.5c2.48-7.92,8.62-13.78,14.23-19.59c6.2101-6.3,13.13-12.25,21.48-15.5
		c10.3201-4.19,21.26-6.57,32.16-8.75c9.86-1.63,19.75-3.36,29.73-3.98c-3.9099-15.54-10.02-30.42-15.2899-45.52
		c-2.79-6.58-4.25-13.83-8.55-19.67c-9.71-14.37-27.01-21.99-43.86-23.57c-6.2-0.89-11.02,3.69-15.33,7.39
		c-8.26,8.24-15.16,17.73-21.6901,27.38c-21.79,32.71-40.49,67.33-60.4399,101.17c-18.9701,31.85-37.6901,64.17-61.75,92.52
		c-1.62,2.23-4.05,3.69-6.75,4.14c-9.1001,2.73-18.6801,2.14-28,3.35c-25.01,0.31-50.03-0.01-75.03-0.14
		c-16.65-1.09-33.37-0.6-50.05-0.68c-9.33,0.29-18.7-0.4-27.98,0.8c-6.99,0.06-13.97,0.18-20.95,0.34
		c-7.3201-0.08-14.5701,1.11-21.88,0.95c0.0699,3.95,2.39,7.29,3.62,10.93c9.6,25.78,14.1599,53.05,18.38,80.11
		c-0.02,4.82,0.34,9.66,1.27,14.41c1.2,16.6,3.0299,33.2401,1.7899,49.91c-0.88,6.64-0.87,13.44-2.74,19.93
		c-0.76,3.03-2.3099,5.83-2.75,8.95c-1.71,1.55-3.14,3.48-5.27,4.46c-2.3199-0.29-4.62,0.03-6.86,0.54
		c-0.01-0.53-0.02-1.6-0.03-2.13c4.17-0.92,6.5-5.02,7.79-8.76c4.13-12.21,3.4401-25.27,3.51-37.96c0.14-28.6-3.95-57.04-9.47-85.04
		c-4.23-19.37-8.84-38.97-17.88-56.74c0.4-0.62,1.1899-1.85,1.58-2.46c0.4401,0.76,0.9,1.54,1.36,2.32
		c4.12-8.35,8.49-16.57,12.79-24.83c3.0601-7.21,9.98-11.5,15.29-16.91c9.3199-8.6,18.8099-17.01,28.2999-25.42
		c6.2101-5.27,12.37-10.62,18.8401-15.55l0.1799,0.14c8.96-8.08,18.92-15.02,28.62-22.22c5.61-4.18,11.5-7.98,17.34-11.85
		c10.6801-6.62,21.4901-13.06,32.8-18.57c6.4301-3.16,13.02-6.01,19.77-8.41c12.36-4.61,25.3199-7.31,38.37-8.93
		c7.41-0.23,14.83-0.42,22.23,0.09c4.22,0.27,8.41,1.07,12.67,0.91l0.13,0.21c15.02,2.01,30.75,3.38,45.38-1.53
		c6.83-2.45,13.36-5.7,19.4199-9.68c10.3301-6.83,19.48-15.29,28.01-24.23c10.51-11.16,20.25-23.02,29.54-35.22
		c-19.39-18.3-38.76-36.62-58.17-54.9c-6.2899,10.48-13.39,20.52-21.78,29.44c-8.6,8.94-18.2599,16.95-29.23,22.81
		c-5.33,2.7-10.8099,5.1-16.45,7.07c-14.97,5.34-30.9401,6.91-46.6901,7.95c-7.6,0.18-15.2,0.33-22.7999,0.31
		c-1.72-0.01-3.4301,0.04-5.11,0.12c1.1599-0.31,2.1899-0.99,3.2899-1.53c-0.4299-0.49-1.2899-1.48-1.72-1.98
		c8.5-1.11,17.16-1.67,25.5-3.68c15.5-2.68,30.98-7.69,43.76-17.12c5.74-4.52,10.26-10.31,15.24-15.61l0.49,0.31
		c6.05-7.91,12.02-16,16.36-25c2.9501-4.48,4.9801-9.48,7.14-14.36c4.88-11.59,9.03-23.47,12.8-35.46
		c-24.12-11.19-48.1801-22.51-72.17-33.97C1279.46,273.38,1276.09,285.3,1270.76,296.46 M979.44,322.21
		c-3.87,1.26-5.39,5.43-6.67,8.9c-1.71,6.45-2.56,13.15-2.42,19.83c-0.24,12.49,1.07,25.08,4.51,37.11
		c15.94,5.8,31.65,15.02,40.75,29.79c3.25-1.18,5.34-4.15,7.98-6.24c4.5099-3.81,8.6299-8.04,12.91-12.1
		c2.64,0,2.6899-2.9,4.1801-4.38c8.49-9.19,17.0299-18.67,22.48-30.05c1.49-3.43,2.5499-7.98,0.11-11.22
		c-8.66-12.39-20.39-22.98-34.59-28.56C1013.11,319.02,995.71,318.98,979.44,322.21 M728.58,377.02c3.9-1.19,7.4-3.41,11.35-4.47
		c10.56-3.36,22.87-3.12,32.3,3.21c7.29,4.73,12.58,12.44,14.22,20.98c2.75,12.29-0.42,25.28-6.78,35.95
		c-7.75,13.22-20.53,23.72-35.45,27.65c-8.97,2.29-18.89,2.03-27.22-2.28c-10.81-5.31-17.6-17.13-17.95-29.03
		c-0.65-10.08,2.46-20,7.17-28.81c2.42-4.44,5.9301-8.13,8.9301-12.17c-12.78,12.13-19.91,30.41-17.92,48.01
		c1.29,10.89,7.18,21.46,16.72,27.17c9.5,6.11,21.57,6.6,32.32,4.14c25.94-6.87,46.54-31.43,47.78-58.39
		c0.45-11.36-3.36-23.31-12-31.02C767.53,364.57,744.12,366.39,728.58,377.02 M741.47,377.56c-3.8,0.74-6.62,5.69-4.22,9.06
		c3.64,3.65,9.78-1.03,9.28-5.52C746.61,378.59,743.74,376.78,741.47,377.56 M725.44,387.49c-5.21,2.18-8.48,10.6-3.2,14.34
		c6.99,3.76,15.63-5.41,12.2-12.3C732.73,386.36,728.39,385.78,725.44,387.49 M818.02,408.22c-0.97,0.58-1.79,1.33-2.48,2.23
		c4.89-1.99,9.34-4.96,14.43-6.5c14.42-5.02,31.91-4.03,43.9301,6.13c10.55,8.54,15.27,22.62,14.54,35.9
		c-1.92,30-25.4,57.19-54.76,63.59c-10.63,2.16-22.21,1.12-31.68-4.45c-10.96-6.18-18-18.1-19.36-30.46
		c-1.76-13.09,1.95-26.42,8.37-37.78c1.94-3.64,4.84-6.68,6.52-10.46c-13.22,14.81-20.0601,35.62-17.1801,55.38
		c1.85,11,7.5,21.6,16.4901,28.38c10.24,7.86,23.92,10.49,36.53,8.34c18.99-2.96,36-14.5,47.5-29.66
		c8.24-11.02,14.22-24.08,15.26-37.92c1.4-13.17-1.72-27.3-10.61-37.42c-7.3-8.72-18.34-13.88-29.6-14.75
		C842.67,397.59,829.42,401.61,818.02,408.22 M832.55,409.67c-4.39,1.39-7.78,7.97-3.62,11.4c4.95,3.07,11.45-2.77,10.31-8.07
		C838.83,410.05,835.14,408.33,832.55,409.67 M807.42,416.48c3-1.64,5.82-3.64,8.2-6.12C812.42,411.69,809.58,413.79,807.42,416.48
		 M799.87,423.79c1.99-2.01,4.02-3.98,6.05-5.96C803.71,419.61,801.67,421.6,799.87,423.79 M816.48,420.53
		c-5.82,1.32-10.47,7.41-9.49,13.42c0.66,4.23,5.6,7.01,9.59,5.49c5.84-1.53,10.26-7.85,8.94-13.88
		C824.61,421.68,820.22,419.42,816.48,420.53 M643.61,470.68c-17.42,12.67-32.82,28.2-44.85,46.11
		c-10.36,15.14-18.3,31.81-24.77,48.94c1.58,0.69,3.12,1.57,4.84,1.92c44.46,0.45,88.89,5.77,132.19,15.91
		c-4.8-11.42-7.87-23.51-9.71-35.74c-3.04-22.67-1.07-46.5,8.96-67.31c-3.57-3.07-6.85-6.48-9.54-10.35
		c-1.66-2.8-3.26-5.64-4.6-8.61c-2.6-6.21-3.96-12.92-4.16-19.64C675.34,450.59,658.73,459.5,643.61,470.68 M1232.9,486.11
		c-19.54,8.34-37.74,19.51-55.13,31.65c-32.17,22.68-61.6901,48.85-90.2001,75.92c-1.7799,1.6-2.7,3.86-3.72,5.96
		c64.6801-2.81,129.42-0.18,194.13-0.06c1.88-0.2,3.99,0.27,5.74-0.66c11.52-12.67,20.9-27.09,30.63-41.13
		c-14.8199-6.35-30.71-13.34-40.0599-27.17c-4.87-7.17-6.6801-16.41-4.4601-24.83c1.91-6.54,6.8401-11.68,12.25-15.57
		c10.3201-7.31,22.54-11.13,34.5601-14.58c-7.2001-0.79-14.4301-1.42-21.66-1.79C1273.65,472.74,1252.4,477.67,1232.9,486.11
		 M1480.4399,486.82c-14.6699,5.03-29.6399,11.65-40,23.62c-4.71,5.29-7.6899,12.56-6.3899,19.7c1.46,6.1,4.98,11.88,10.1499,15.53
		c8.3101,4.01,17.79,3.95,26.8201,4.65c14.29,0.11,28.62,0.45,42.88-0.61c5.61-0.16,11.25-0.08,16.8199-1.03
		c8.8101-0.55,17.67-0.81,26.4301-2.07c10.65-0.27,21.1699-2.16,31.7899-2.99c23.16-2.87,46.3701-5.66,69.1901-10.71
		c5.47-1.5,11.3199-2.37,16.17-5.54c0.8999-2.8,1.7999-5.86,0.6399-8.73c-2.6-8.38-11.1899-12.45-18.45-16.1
		c-20.24-8.94-42.1-13.34-63.61-18.05c-10.13-1.81-20.16-4.26-30.42-5.16c-6.73-1.38-13.63-0.89-20.4299-1.58
		C1521.23,477.78,1500.27,480.34,1480.4399,486.82 M1309.49,496.9c-7.27,2.49-14.79,4.89-21.0599,9.49
		c-2.66,2.07-5.3601,5.02-4.87,8.67c-0.26,6.64,4.6299,11.99,9.5299,15.82c9.86,7.14,21.61,10.87,33.1,14.47
		c1.4,0.33,3,0.7401,4.41,0.1c0.8201-0.98,1.3201-2.17,1.99-3.26c4.02-6.15,7.6801-12.51,11.63-18.71
		c5.24-9.12,10.99-17.95,16.2001-27.1c1.9199-3.61,4.7-6.82,5.72-10.86C1346.99,487.63,1327.97,491.39,1309.49,496.9 M440.63,595.3
		c18.4,27.27,32.07,57.88,38.7,90.17c9.4,43.3101,6.86,88.45-2.33,131.57c-12.62,58.05-36.35,113.11-64.52,165.2
		c30.97,29.86,66.18,54.9301,102.35,78.0701c14.03-20.6801,26.76-42.2601,37.69-64.7401c24.3-49.63,39.88-103.54,45.45-158.53
		c8.1-76.0099-2.81-153.11-25.17-225.91c-3.43-10.48-6.47-21.3-10.68-31.39C521.13,579.03,480.35,585.53,440.63,595.3
		 M396.05,606.55c-33.46,10.9-66.05,24.99-95.83,43.84c-17.97,11.43-35.04,24.62-48.92,40.86c-6.87,8.47-13.15,17.93-15.31,28.79
		c-1.14,7.69,0.92,15.33,2.43,22.82c6.51,29.54,19.09,57.44,34.44,83.4c18.8,31.83,41.88,60.92,66.7,88.23
		c10.87,11.12,21.22,22.77,32.78,33.2c10.45,10.53,21.72,20.17,32.69,30.13c0.53-0.09,1.58-0.27,2.11-0.35
		c3.54-7.8,7.89-15.21,11.62-22.93C443.44,905.01,463.93,852.78,473.15,798c5.08-31.15,6.57-63.13,1.64-94.4
		c-4.72-33.22-16.74-65.33-34.61-93.71c-2.58-4.46-6.32-8.38-7.41-13.56C420.37,599.1,408.15,602.68,396.05,606.55 M1019.43,860.43
		c-41.08,10.48-82.13,23.47-118.75,45.3c-12.98,8.2-25.79,17.51-34.68,30.23c-5.89,8.33-9.4,18.99-6.96,29.16
		c1.89,8.43,7.12,15.67,13.11,21.72c6.44,5.7599,13.16,11.75,21.64,14.24c22.78,6.93,46.66,8.61,70.22,11
		c5.33,0.45,10.7,0.38,15.99,1.3c16.66,0.53,33.24,2.22,49.91,2.4c14.99,1.25,30.12-0.03,45.08,1.61c13-0.06,26,0.36,39,0.26
		c24.33,0.7599,48.6801,0.44,73.03,0.56c17.62-0.94,35.28-0.31,52.9199-0.73c9.3501-0.29,18.7301,0.34,28.03-0.84
		c28.36,0.15,56.6801-1.09,85.03-1.34c3.65-0.08,7.26-0.83,10.9301-0.77c14.4199-0.01,28.8099-1.08,43.24-1.08
		c5.58-0.76,11.2-0.88,16.83-0.9c13.36-0.1,26.6899-1.05,40.05-1.29c8.58-1.19,17.2799-0.52,25.8999-1.4
		c8.3301-0.46,16.7201-0.01,25.02-1.18c12.99-0.52,26.02-0.79,38.97-2.05c6.6901-0.26,13.42-0.15,20.1001-0.83
		c5.7899-0.43,11.64-0.09,17.39-1.12c10.5199-0.61,21.0699-0.85,31.5499-2.04c10.01-0.29,20.03-0.76,29.99-1.87
		c29.05-1.57,58.02-4.12,87.01-6.55c35.4501-3.23,70.96-6.64,106.0801-12.68c8.8899-2.05,18.5399-3,26.2599-8.27
		c-0.0099-2.39,0.27-5.03-1.46-6.93c-5.85-7.65-15.22-11.27-23.72-15.11c-19.79-7.9-40.4501-13.31-61.08-18.47
		c-65.75-15.62-132.4601-26.57-199.05-37.77c-85.95-14.07-172.05-27.17-257.85-42.03c-22.3-4.13-44.5801-8.48-67.15-10.86
		c-4.91-0.71-9.91-0.36-14.76-1.38c-11.39-0.78-22.8101-1.1-34.1899-1.66c-9.3401,0.72-18.6901-0.43-28,0.07
		C1129.3199,840.16,1073.6801,847.41,1019.43,860.43 M265.77,860.9c-26.99,5.08-53.9,10.6-80.87,15.8199
		c-33.73,6.84-67.48,13.59-100.93,21.72c-14.49,3.76-29.11,7.27-43.07,12.74c-4.24,1.93-9.1,3.55-11.69,7.72
		c1.81,4.52,6.82,6.02,10.9,7.79c20.68,7.32,42.42,10.8,63.9,14.84c72.84,11.93,146.35,19.08,219.89,24.67
		c15.03,0.7,30.02,2.37,45.1,2.43c-2.37-2.18-4.63-4.47-7.02-6.61c-5.48-5.52-11.52-10.46-16.87-16.12
		c-9.49-10.27-19.54-20.01-28.63-30.65l-0.47,0.02c-14.59-16.99-28.46-34.59-41.59-52.73c-0.82-1.23-1.96-2.17-3.11-3.04
		C269.46,859.98,267.63,860.48,265.77,860.9z"/>
	<path stroke="#000000" stroke-width="0.494" d="M747.17,532.21c14.03-3.88,31.25,2.95,36.56,17.04c3.96,9.64,0.07,21.19-7.96,27.49
		c-11.69,9.76-30.44,9.45-41.73-0.79c-6.44-5.56-9.97-14.58-8.07-23C727.88,542.5,737.12,534.62,747.17,532.21 M745.18,538.14
		c-3.69,0.63-7.28,3.94-6.25,7.98c1.44,7.25,13.95,7.22,15.26-0.12C755.28,541.03,749.64,537.27,745.18,538.14z"/>
	<path fill="#AC4729" stroke="#AC4729" stroke-width="0.494" d="M606.44,93.7c0.52-1.72,3.98-1.33,5.32-0.45l-0.07,0.37
		C609.98,94.17,608.15,94.12,606.44,93.7z"/>
	<path fill="#CD3301" stroke="#CD3301" stroke-width="0.494" d="M598.81,110.98c-0.22-6.22,0.37-13.86,6.13-17.58l1.5,0.3
		c1.71,0.42,3.54,0.47,5.25-0.08l1.18-0.32c7.38,2.81,10.54,10.84,12.78,17.78c7.0099,24.8,6.88,50.93,13.17,75.89
		c0.57,1.67,0.86,3.66,2.38,4.79c4.9,3.94,9.81,7.89,14.66,11.92c-3.36-21.67-5.28-43.93-1.73-65.7c1.16-6.05,2.92-12.22,6.72-17.18
		c2.8-3.65,7.66-5.88,12.25-4.71c4.05,0.71,6.82,4.83,7.12,8.71c-0.83,6.49-0.6899,13.07,0.21,19.55c0.17,3.59-0.72,7.12-1.08,10.68
		c-0.25-0.66-0.7599-1.97-1.02-2.62c-0.76,1.77-0.58,3.71,0,5.51c0.45,1.67-0.07,3.41-0.24,5.08c-2.32,13.27-4.6,26.58-5.4,40.04
		c0.04,3.79,3.54,6.12,5.09,9.3c6.92,12.2,9.33,26.86,7.39,40.7c-1.75,12.32-7.98,24.76-19.06,31.14
		c-2.01,3.56-0.86,7.96-1.08,11.88c0.6,5.88-0.47,12.24,2.36,17.67c1.29,8.01,1.94,16.19,2.9,24.27
		c3.87,31.76,10.32,63.14,16.22,94.56c-9.8,5.05-19.47,10.36-28.77,16.29c-1.81,1.22-3.64,2.44-5.68,3.25
		c-0.44-5.7-0.51-11.43-1.26-17.11c-0.75-15.01-0.99-30.04-2.11-45.02c-0.42-14.72-1.34-29.44-3.18-44.05
		c-2.55-18.57-6.52-37.74-17.43-53.38c-12.86-0.02-26.18-4.9-34.75-14.68c-0.72-3.29-3.21-5.41-5.99-6.99
		c-6.2401-7.44-10.3701-16.43-15.69-24.53c-1.3-1.72-3.35-2.6-5.16-3.64c-12.47-6.41-26.05-10.17-38.98-15.47
		c-8.83-3.81-19.45-7.63-23.67-17.04c-1.73-6.25,1.05-13.48,6.41-17.09c4.58-2.72,10.22-1.39,14.86,0.47
		c17.91,7.59,31.76,22.52,50.14,29.12c-12.78-15.57-29.2-27.53-44.27-40.73c-9.56-8.35-19.4-16.72-26.68-27.24
		c-2.96-4.28-5.37-9.36-4.88-14.69c0.52-5.48,4.62-10.08,9.57-12.17c5.08-1.42,10.29,0.11,14.76,2.59l-0.15,0.32
		c-1.2599,1.64,1.17,2.84,2.42,1.72l0.72-0.3c24.78,20.49,40.76,49.14,63.75,71.36c1.36,1.55,3.64,2.65,3.91,4.9l0.21,0.87
		c-8.97,6.33-17.13,13.76-24.5,21.89c0.03,0.8,0.08,2.39,0.11,3.18c0.66-0.02,1.97-0.07,2.6201-0.1
		c5.4-5.46,10.6299-11.14,16.74-15.86c0.91,0.81,1.83,1.62,2.76,2.44c-5.8701,5.91-10.94,13.08-12.8,21.32
		c-1.61,7.39,2.08,14.84,7.33,19.89c10.01,10.03,25.45,14.76,39.23,10.87c4.02-0.95,5.9301-5.11,7.09-8.68
		c2.74-9.92,1.06-21.63-6.27-29.23c-2.94-3.18-7.01-4.87-10.97-6.38c4.7-1.61,9.42-3.16,14.14-4.72
		c5.1,11.36,8.48,23.48,10.69,35.72c6.91,2.21,14.15-1.13,19.24-5.76c6.84-6.3,11.72-15.48,10.76-24.99
		c0.03-4.62-2.42-8.82-5.73-11.89c-5.99-5.58-12.81-10.29-20.2-13.79c-6.39-3.19-13.79-2.09-20.52-0.78
		c-0.98-0.26-1.96-0.53-2.92-0.8c1.32-0.82,2.75-1.61,3.46-3.09c1.6-0.62,3.29-1.06,4.8-1.91c1.89-0.84,0.43-3.87-1.36-3.38
		c-4.31,0.59-8.28,2.55-12.3,4.1c-0.32-2.94-0.75-5.86-1.28-8.77C610.4,162.53,601.11,137.41,598.81,110.98z"/>
	<path fill="#CD3301" stroke="#CD3301" stroke-width="0.494" d="M543.52,104.52c4.97-3.57,11.49-5.25,17.49-3.65
		c7.1,2.18,12.13,8.12,16.1,14.09c13.89,22.41,19.8,48.54,31.44,72.04c1.78,3.77,3.92,7.35,6.04,10.93
		c-5.9901,2.78-11.81,5.95-17.32,9.6c-0.46-0.18-1.38-0.53-1.83-0.71l-1.21-0.33c-1.86-5.3-5.06-9.98-7.99-14.73
		c-11.41-17.97-24.63-34.73-35.73-52.9c-3.97-6.54-7.59-13.4-9.68-20.79C539.88,113.5,539.65,107.86,543.52,104.52z"/>
	<path fill="#CD3301" stroke="#CD3301" stroke-width="0.494" d="M853.02,271.25c12.5-2.84,25.54-1.36,37.78,2.02
		c4.79,1.48,5.73,7.15,6.65,11.39c1.85,13.05,0.47,26.29-1.18,39.29c-0.56,4.15-0.67,8.38-1.79,12.44
		c-15.45-1.52-31.08-0.49-46.45,1.56l0.3-1.99c1.03-1.94,1.58-4.37-0.12-6.12c-7.52-9.81-15.29-19.43-22.85-29.22
		c-1.18-1.43-2.27-3-3.82-4.03c-2.6-1.35-6.19,0.47-6.43,3.44c-0.39,1.89,0.78,3.53,1.87,4.94c7.96,10.06,15.83,20.19,23.79,30.25
		c1.3,1.89,3.55,2.58,5.79,2.36c-5.1,1.67-10.44,2.29-15.55,3.86c-8.07-6.71-15.84-13.99-21.76-22.7
		c-2.74-4.35-5.69-9.29-4.69-14.65c1.63-3.63,4.79-6.29,7.43-9.19C823.03,283.35,837.17,274.27,853.02,271.25z"/>
	<path fill="#CD3301" stroke="#CD3301" stroke-width="0.494" d="M1037.6801,607.66c3.6599-0.75,7.6799-2.44,11.33-0.78
		c4.85,2.7,7.85,7.62,10.51,12.32c9.04,17.77,13.65,37.37,17.88,56.74c5.52,28,9.61,56.44,9.47,85.04
		c-0.0699,12.69,0.62,25.75-3.51,37.96c-1.29,3.74-3.62,7.84-7.79,8.76c-9.0299,0.89-17.0499-4.34-24.3999-8.86
		c-10.1801-6.64-19.4801-14.51-28.5601-22.56c-28.07-25.6-53.62-53.85-77.94-83c-4.53-5.9301-9.78-11.36-13.72-17.71
		c8.8-4.15,15.39-11.76,19.95-20.2c8.04,2.58,15.87,6.1,22.94,10.76c30.53,21.94,53.6199,52.48,72.69,84.52
		c1.98,2.89,4.51-0.78,2.9-2.9901c-17.65-30.15-39.36-58.42-66.85-80.2599c4.21-14.59,9.65-29.37,20.01-40.8
		C1011.72,616.51,1024.62,610.7,1037.6801,607.66 M1084.2,726.17c-0.87,1.45-0.9099,4.31,0.37,5.36
		C1085.0699,730,1085.76,727.01,1084.2,726.17z"/>
	<path fill="#A74124" stroke="#A74124" stroke-width="0.494" d="M680.22,124.8c1.92,6.26,1.36,13.17,0.21,19.55
		C679.53,137.87,679.39,131.29,680.22,124.8z"/>
	<path fill="#B74625" stroke="#B74625" stroke-width="0.494" d="M526.02,132.49c-1.25,1.12-3.68-0.08-2.42-1.72
		C524.21,131.2,525.42,132.06,526.02,132.49z"/>
	<path fill="#B74420" stroke="#B74420" stroke-width="0.494" d="M678.33,157.92c-0.58-1.8-0.76-3.74,0-5.51
		c0.26,0.65,0.77,1.96,1.02,2.62c-0.14,0.74-0.42,2.21-0.56,2.95L678.33,157.92z"/>
	<path fill="#0B0000" stroke="#0B0000" stroke-width="0.494" d="M608.55,187c2.62,0.87,3.43,3.72,4.77,5.84
		c0.46-1.42,0.93-2.83,1.41-4.24c0.53,2.91,0.96,5.83,1.28,8.77c4.02-1.55,7.99-3.51,12.3-4.1c1.79-0.49,3.25,2.54,1.36,3.38
		c-1.51,0.85-3.2,1.29-4.8,1.91c-12.93,4.21-24.74,11.37-35.29,19.87c-6.11,4.72-11.34,10.4-16.74,15.86
		c-0.65,0.03-1.96,0.08-2.6201,0.1c-0.03-0.79-0.08-2.38-0.11-3.18c7.37-8.13,15.53-15.56,24.5-21.89c0.95-0.48,1.83-1.1,2.66-1.79
		c5.51-3.65,11.33-6.82,17.32-9.6C612.47,194.35,610.33,190.77,608.55,187z"/>
	<path fill="#C83511" stroke="#C83511" stroke-width="0.494" d="M589.58,218.43c10.55-8.5,22.36-15.66,35.29-19.87
		c-0.71,1.48-2.14,2.27-3.46,3.09c0.96,0.27,1.94,0.54,2.92,0.8c-12.01,3.32-23.04,9.78-31.99,18.42
		C591.41,220.05,590.49,219.24,589.58,218.43z"/>
	<path fill="#FF99CB" stroke="#FF99CB" stroke-width="0.494" d="M624.33,202.45c6.73-1.31,14.13-2.41,20.52,0.78
		c7.39,3.5,14.21,8.21,20.2,13.79c3.31,3.07,5.76,7.27,5.73,11.89c0.96,9.51-3.92,18.69-10.76,24.99
		c-5.09,4.63-12.33,7.97-19.24,5.76c-2.21-12.24-5.59-24.36-10.69-35.72c-4.72,1.56-9.44,3.11-14.14,4.72
		c3.96,1.51,8.03,3.2,10.97,6.38c7.33,7.6,9.01,19.31,6.27,29.23c-1.16,3.57-3.07,7.73-7.09,8.68
		c-13.78,3.89-29.22-0.84-39.23-10.87c-5.25-5.05-8.94-12.5-7.33-19.89c1.86-8.24,6.93-15.41,12.8-21.32
		C601.29,212.23,612.32,205.77,624.33,202.45z"/>
	<path fill="#FF99CB" stroke="#FF99CB" stroke-width="0.494" d="M1250.16,327.33c8.52-9.06,15.25-19.67,20.6-30.87
		c5.66,4.02,11.71,7.44,17.52,11.24c16.53,10.2,32.86,20.72,49.4199,30.89c-1.0199,2.19-1.96,4.42-2.87,6.66
		c-4.34,9-10.3099,17.09-16.36,25l-0.49-0.31C1295.41,355.67,1272.79,341.5,1250.16,327.33z"/>
	<path fill="#FF99CB" stroke="#FF99CB" stroke-width="0.494" d="M996.64,340.68c3.9-4.7,10.81-4.29,16.11-2.57
		c10,3.17,19.26,8.55,27.64,14.81c-2.25,13.4-10.9401,24.72-20.39,34.02c-1.99,2.43-3.79-1.42-5.8-1.92
		c-7.21-2.44-15.01-0.4-22.41-1.94c0.19-8.03-0.25-16.06,0.07-24.08C992.2,352.73,992.76,345.88,996.64,340.68z"/>
	<path fill="#FF99CB" stroke="#FF99CB" stroke-width="0.494" d="M1199.49,359.05c13.14-5.1,25.9401-11.27,37.3-19.69
		c14.95,10.73,30.2899,20.91,45.3999,31.41c6.79,5,14.3,9.07,20.55,14.78c-12.78,9.43-28.26,14.44-43.76,17.12
		c0.71-0.31,2.12-0.94,2.8201-1.25c-16.51-11.18-32.88-22.56-49.3401-33.81C1208.15,364.73,1204.01,361.59,1199.49,359.05z"/>
	<path fill="#FF99CB" stroke="#FF99CB" stroke-width="0.494" d="M1133.15,381.48c13.2899-5.67,27.1799-9.84,41.0399-13.87
		c10.7201,7.88,22.4,14.34,33.3501,21.87c5.96,4.22,7.86,11.93,7.75,18.88c-11.9701,1.33-23.87,3.46-35.4601,6.73
		c-2.5499-0.2-4.4399-2.06-6.49-3.36c-10.85-7.2-21.8199-14.23-32.6799-21.42C1137.33,388.16,1135.03,384.88,1133.15,381.48z"/>
	<path fill="#FF99CB" stroke="#FF99CB" stroke-width="0.494" d="M1322.96,394.41c10.9701-5.86,20.63-13.87,29.23-22.81
		c5.05,6.66,10.66,12.87,15.91,19.37c11.51,13.75,22.79,27.71,34.5,41.31c-8.53,8.94-17.6799,17.4-28.01,24.23
		C1357.36,435.83,1340.26,415.04,1322.96,394.41z"/>
	<path fill="#FF99CB" stroke="#FF99CB" stroke-width="0.494" d="M1077.47,422.16c7.8101-10.41,17.48-19.41,28.37-26.53
		c14.9701,10.24,30.2201,20.07,45.41,29.99c-12.04,5.99-23.3,13.5-33.58,22.16c-9.51-6.32-19.04-12.59-28.5701-18.86
		C1085.28,426.57,1081.86,423.41,1077.47,422.16z"/>
	<path fill="#FF99CB" stroke="#FF99CB" stroke-width="0.494" d="M1259.8199,409.43c15.75-1.04,31.7201-2.61,46.6901-7.95
		c2.86,1.78,4.4,4.93,6.4299,7.52c14.13,19.02,27.9901,38.25,42.2301,57.19c-14.63,4.91-30.36,3.54-45.38,1.53l-0.13-0.21
		c-3.89-6.68-8.99-12.54-13.4-18.86c-9.74-13.02-19.09-26.33-29.02-39.21C1264.76,409.44,1262.29,409.42,1259.8199,409.43z"/>
	<path fill="#FF99CB" stroke="#FF99CB" stroke-width="0.494" d="M1195.4301,414.38c11.95-2.79,24.23-4.03,36.48-4.52
		c1.6799-0.08,3.39-0.13,5.11-0.12c11.45,17.87,23.5599,35.31,35.15,53.09c0.97,1.21,1.87,3.3,3.7899,2.94
		c8.66-0.64,17.36-0.31,26.04-0.28c-9.0699,0.61-18.3101-0.99-27.24,1.02c-13.05,1.62-26.01,4.32-38.37,8.93
		C1222.5,455.25,1209.3,434.58,1195.4301,414.38z"/>
	<path fill="#FF99CB" stroke="#FF99CB" stroke-width="0.494" d="M1144.9399,433.72c7.5601-4.58,15.5701-8.42,23.92-11.32l-1.16,0.87
		c3.5801,1.87,7.27,3.88,9.65,7.27c13.11,17.76,26.17,35.54,39.27,53.31c-11.3099,5.51-22.12,11.95-32.8,18.57
		c-1.99-4.22-5.1899-7.65-7.86-11.42c-9.6699-13.32-19.58-26.47-29.1799-39.83C1143.15,446.04,1143.71,439.53,1144.9399,433.72z"/>
	<path fill="#FF99CB" stroke="#FF99CB" stroke-width="0.494" d="M1091.84,481.58c7.41-10.15,15.8401-19.59,25.3-27.88
		c4.54,6.12,9.53,11.88,14.2999,17.83c11.7001,14.23,23.1901,28.64,35.04,42.74c-9.7,7.2-19.66,14.14-28.62,22.22l-0.1799-0.14
		c-4.9701-3.72-8.2201-9.16-12.2401-13.8C1114.21,508.92,1103.22,495.08,1091.84,481.58z"/>
	<path fill="#FF99CB" stroke="#FF99CB" stroke-width="0.494" d="M703.21,518.11c0.52-12.48,3.92-24.89,9.33-36.14
		c5.03,4.03,11.2401,6.26,17.44,7.76c14.97,3.23,30.72-0.17,44.11-7.21c-0.05,2.84-0.09,5.71,0.31,8.55
		c1.39,15.09,7.95,29.97,19.55,39.97c11.6,10.4,27.58,15.03,42.99,14.16c26.13-1.26,50.28-15.79,66.76-35.61
		c2.23-2.44,3.76-5.5,6.28-7.65c8.86-4.09,19.17-4.86,28.6-2.36c16.07,3.93,29.47,15.11,39,28.31
		c-16.86,10.78-32.94,22.84-50.68,32.18c-0.38,0.19-1.13,0.57-1.5,0.76c-3.4-7.77-7.4301-15.64-14.31-20.91
		c1.99-3.11,4.9-6.06,8.85-6.14c7.48-0.84,13.77,3.87,20.16,6.77c3.01-1.37,0.71-4.36-0.3199-6.28
		c-5.65-9.6-13.42-18.96-24.25-22.73c-2.14-1.03-3.1201,1.76-3.19,3.42c-1.96,15.11-6.73,29.86-14.53,42.98
		c-14.75,24.89-37.19,44.86-62.79,58.11c-13.84,6.99-28.79,12.3-44.28,13.83c-4.8-1.44-9.82-0.58-14.73-0.92
		c-2.35-0.2-4.65,0.24-6.87,0.96c-14.12-1.54-28.77-6.77-38.25-17.82c-4.91-5.55-8.92-11.85-12.4-18.37
		c-8.64-16.95-14.28-35.71-15.28-54.74C704.39,532.11,704.46,524.98,703.21,518.11 M881.62,554.51
		c-18.87,20.77-41.9,39.05-69.28,46.82c-21.42,6.29-44.63,5.05-65.7-2.01c-3.44-1.03-6.72-2.59-10.23-3.36
		c-4.1299-2.41-8.67-4.01-12.93-6.16c0.86,2.82,2.42,5.33,4.15,7.7c5.68,8.72,14.71,14.75,24.15,18.79
		c19.3199,7.81,41.23,8.35,61.28,3.07c15.52-4.41,30.46-11.26,43.41-20.95c22.51-16.7599,38.33-41.73,45.64-68.67
		C895.34,538.03,888.98,546.7,881.62,554.51 M747.17,532.21c-10.05,2.41-19.29,10.29-21.2,20.74c-1.9,8.42,1.63,17.44,8.07,23
		c11.29,10.24,30.04,10.55,41.73,0.79c8.03-6.3,11.92-17.85,7.96-27.49C778.42,535.16,761.2,528.33,747.17,532.21z"/>
	<path fill="#FF99CB" stroke="#FF99CB" stroke-width="0.494" d="M1070.48,562.83c5.66-12.08,8.79-25.17,10.4-38.37
		c12.45,9.41,25.16,18.5,37.96,27.44c-9.49,8.41-18.98,16.8199-28.2999,25.42C1083.96,572.34,1077.3,567.47,1070.48,562.83z"/>
	<path fill="#FF99CB" stroke="#FF99CB" stroke-width="0.494" d="M855.8,607.89c3.13-2.44,6.21-4.95,9.27-7.48
		c8.45,11.29,15.75,23.6,26,33.41c6.31,6.02,14.85,10.87,23.88,9.46c4.83-1.03,7.71-5.6801,9.25-10.03
		c3.08-9.21,3.14-19.04,3.59-28.64c4.82,0.02,9.64-0.09,14.45-0.57c1.76,12.32,1.6,25.29-3.39,36.9
		c-4.5699,11.99-13.58,21.46-23,29.86c10.6-0.04,19.89-6.68,25.91-15.01c11.15-14.77,13.44-34.61,9.7-52.36
		c2.81-0.35,5.62-0.68,8.45-0.87c-0.8,15.61-2.39,31.49-8.33,46.1c-3.72,9.08-9.47,17.76-17.98,22.98
		c-9.72,5.98-22.36,7.26-32.9,2.7c-11.52-4.88-20.85-13.85-28.2-23.8C863.49,638.04,857.16,623.32,855.8,607.89z"/>
	<path fill="#A74225" stroke="#A74225" stroke-width="0.494" d="M595.44,206.82c0.45,0.18,1.37,0.53,1.83,0.71
		c-0.83,0.69-1.71,1.31-2.66,1.79l-0.21-0.87C594.66,208.04,595.18,207.23,595.44,206.82z"/>
	<path fill="#D44973" stroke="#D44973" stroke-width="0.494" d="M1270.76,296.46c5.33-11.16,8.7-23.08,11.84-35
		c23.99,11.46,48.05,22.78,72.17,33.97c-3.77,11.99-7.92,23.87-12.8,35.46c-2.1599,4.88-4.1899,9.88-7.14,14.36
		c0.91-2.24,1.8501-4.47,2.87-6.66c-16.5599-10.17-32.8899-20.69-49.4199-30.89C1282.47,303.9,1276.42,300.48,1270.76,296.46z"/>
	<path fill="#D44973" stroke="#D44973" stroke-width="0.494" d="M1236.79,339.36c4.7899-3.62,9.2799-7.62,13.37-12.03
		c22.63,14.17,45.25,28.34,67.8199,42.61c-4.98,5.3-9.5,11.09-15.24,15.61c-6.25-5.71-13.76-9.78-20.55-14.78
		C1267.08,360.27,1251.74,350.09,1236.79,339.36z"/>
	<path fill="#D44973" stroke="#D44973" stroke-width="0.494" d="M1352.1899,371.6c8.39-8.92,15.4901-18.96,21.78-29.44
		c19.41,18.28,38.78,36.6,58.17,54.9c-9.29,12.2-19.03,24.06-29.54,35.22c-11.71-13.6-22.99-27.56-34.5-41.31
		C1362.85,384.47,1357.24,378.26,1352.1899,371.6z"/>
	<path fill="#D44973" stroke="#D44973" stroke-width="0.494" d="M1174.1899,367.61c8.41-2.92,16.9901-5.34,25.3-8.56
		c4.52,2.54,8.66,5.68,12.97,8.56c16.4601,11.25,32.8301,22.63,49.3401,33.81c-0.7001,0.31-2.1101,0.94-2.8201,1.25
		c-8.34,2.01-17,2.57-25.5,3.68c-6.0699,0.69-12.12,1.48-18.1899,2.01c0.11-6.95-1.79-14.66-7.75-18.88
		C1196.59,381.95,1184.91,375.49,1174.1899,367.61z"/>
	<path fill="#D44973" stroke="#D44973" stroke-width="0.494" d="M1105.84,395.63c8.62-5.57,17.74-10.41,27.3101-14.15
		c1.88,3.4,4.1799,6.68,7.51,8.83c10.86,7.19,21.83,14.22,32.6799,21.42c2.05,1.3,3.9401,3.16,6.49,3.36
		c-9.84,2.56-19.4099,6.14-28.58,10.53C1136.0601,415.7,1120.8101,405.87,1105.84,395.63z"/>
	<path fill="#D44973" stroke="#D44973" stroke-width="0.494" d="M1306.51,401.48c5.64-1.97,11.12-4.37,16.45-7.07
		c17.3,20.63,34.4,41.42,51.63,62.1c-6.0599,3.98-12.59,7.23-19.4199,9.68c-14.24-18.94-28.1001-38.17-42.2301-57.19
		C1310.91,406.41,1309.37,403.26,1306.51,401.48z"/>
	<path fill="#D44973" stroke="#D44973" stroke-width="0.494" d="M1237.02,409.74c7.6,0.02,15.2-0.13,22.7999-0.31
		c2.4701-0.01,4.9401,0.01,7.42,0.01c9.9301,12.88,19.28,26.19,29.02,39.21c4.41,6.32,9.51,12.18,13.4,18.86
		c-4.26,0.16-8.4501-0.64-12.67-0.91c-7.4-0.51-14.8199-0.32-22.23-0.09c8.9299-2.01,18.17-0.41,27.24-1.02
		c-8.6801-0.03-17.38-0.36-26.04,0.28c-1.9199,0.36-2.8199-1.73-3.7899-2.94C1260.58,445.05,1248.47,427.61,1237.02,409.74z"/>
	<path fill="#D44973" stroke="#D44973" stroke-width="0.494" d="M1168.86,422.4c8.5601-3.55,17.54-5.98,26.5701-8.02
		c13.87,20.2,27.0699,40.87,40.96,61.06c-6.75,2.4-13.34,5.25-19.77,8.41c-13.1-17.77-26.16-35.55-39.27-53.31
		c-2.38-3.39-6.0699-5.4-9.65-7.27L1168.86,422.4z"/>
	<path fill="#D44973" stroke="#D44973" stroke-width="0.494" d="M1071.05,431.9c1.5199-3.6,4.22-6.54,6.4199-9.74
		c4.39,1.25,7.8101,4.41,11.63,6.76c9.53,6.27,19.0601,12.54,28.5701,18.86c-6.4701,5.41-12.4801,11.37-18.0801,17.67
		c-3.0699-1.63-6.1-3.32-9.22-4.82c-3.54-1.76-7.53-2.04-11.36-2.63C1077.59,448.96,1074.6899,440.26,1071.05,431.9z"/>
	<path fill="#D44973" stroke="#D44973" stroke-width="0.494" d="M1117.14,453.7c8.6-7.52,17.8199-14.4,27.7999-19.98
		c-1.23,5.81-1.7899,12.32,1.8401,17.45c9.6,13.36,19.51,26.51,29.1799,39.83c2.67,3.77,5.87,7.2,7.86,11.42
		c-5.84,3.87-11.73,7.67-17.34,11.85c-11.85-14.1-23.34-28.51-35.04-42.74C1126.67,465.58,1121.6801,459.82,1117.14,453.7z"/>
	<path fill="#D44973" stroke="#D44973" stroke-width="0.494" d="M1082.6899,494.9c3.04-4.44,5.9601-8.97,9.15-13.32
		c11.38,13.5,22.37,27.34,33.6,40.97c4.02,4.64,7.27,10.08,12.2401,13.8c-6.4701,4.9301-12.63,10.28-18.8401,15.55
		c-12.7999-8.94-25.51-18.03-37.96-27.44c0.95-6.43,1.01-12.96,1.1801-19.45C1082.21,501.64,1081.51,498.14,1082.6899,494.9z"/>
	<path fill="#D44973" stroke="#D44973" stroke-width="0.494" d="M1054.04,590.15c6.1699-8.66,11.87-17.7,16.4399-27.32
		c6.8201,4.64,13.48,9.51,20.0601,14.49c-5.3101,5.41-12.23,9.7-15.29,16.91c-4.3,8.26-8.67,16.48-12.79,24.83
		c-0.46-0.78-0.9199-1.56-1.36-2.32c-2.11-3.42-4.1699-7.07-7.48-9.46c-2.6801-1.6801-5.76-2.54-8.6-3.86
		C1047.55,598.68,1051.01,594.56,1054.04,590.15z"/>
	<path fill="#AD3F1F" stroke="#AD3F1F" stroke-width="0.494" d="M587.34,270.87c2.78,1.58,5.27,3.7,5.99,6.99
		C590.9,275.94,588.82,273.59,587.34,270.87z"/>
	<path fill="#BE401B" stroke="#BE401B" stroke-width="0.494" d="M665.03,296.06c0.22-3.92-0.9301-8.32,1.08-11.88
		c-0.31,9.89,1.42,19.69,1.28,29.55C664.56,308.3,665.63,301.94,665.03,296.06z"/>
	<path fill="#FEFDFB" stroke="#FEFDFB" stroke-width="0.494" d="M815.11,300.03c0.24-2.97,3.83-4.79,6.43-3.44
		c1.55,1.03,2.64,2.6,3.82,4.03c7.56,9.79,15.33,19.41,22.85,29.22c1.7,1.75,1.15,4.18,0.12,6.12c-0.25,0.36-0.75,1.09-1,1.45
		l-0.77,0.17c-2.24,0.22-4.49-0.47-5.79-2.36c-7.96-10.06-15.83-20.19-23.79-30.25C815.89,303.56,814.72,301.92,815.11,300.03z"/>
	<path fill="#CD3302" stroke="#CD3302" stroke-width="0.494" d="M979.44,322.21c16.27-3.23,33.67-3.19,49.2401,3.08
		c14.2,5.58,25.9299,16.17,34.59,28.56c2.4399,3.24,1.38,7.79-0.11,11.22c-5.4501,11.38-13.99,20.86-22.48,30.05
		c-1.4901,1.48-1.54,4.38-4.1801,4.38c-4.28,4.06-8.4,8.29-12.91,12.1c-2.64,2.09-4.73,5.06-7.98,6.24
		c-9.1-14.77-24.81-23.99-40.75-29.79c-3.44-12.03-4.75-24.62-4.51-37.11c-0.14-6.68,0.71-13.38,2.42-19.83
		C974.05,327.64,975.57,323.47,979.44,322.21 M980.1,330.25c-1.9,0.71-2.44,2.93-2.73,4.72c-2.63,13.34-2.86,27.17-0.76,40.6
		c0.32,3.4,4.55,5.29,7.37,3.33c0.67-0.12,1.99-0.35,2.66-0.47c0.62-7.32-1.27-15.02,1.11-22.07c-0.13,9.95-0.01,19.91-0.09,29.87
		c0.3,0.4,0.9,1.2,1.19,1.61c2.95,0.25,2.84-2.65,2.94-4.76c7.4,1.54,15.2-0.5,22.41,1.94c2.01,0.5,3.81,4.35,5.8,1.92
		c9.45-9.3,18.14-20.62,20.39-34.02c1.78,1.61,5.02,0.64,4.27-2.16c-8.0901-6.11-17.01-11.26-26.4301-15.05
		c-6.07-2.17-12.92-4.44-19.19-1.72c-5.36,1.89-8.32,7.29-9.62,12.52l-1.33-0.39c-0.7401,3.46-0.8,7.04-1.96,10.41
		c-0.05-3.35-0.12-6.7-0.43-10.04c-1.2,6.89-0.68,14.01-0.42,20.97c-0.07,0.42-0.22,1.25-0.29,1.66c-1.1-11.4-0.53-22.93,1.69-34.17
		C987.48,331.48,983.1,328.4,980.1,330.25 M971.54,355.94c-0.46,3.91-0.72,7.86-0.36,11.8
		C973.56,364.33,971.79,359.78,971.54,355.94 M1037.24,395.89c-1.03,0.17-2.41,2.6-0.71,2.68
		C1037.87,398.45,1039.77,395.18,1037.24,395.89z"/>
	<path fill="#FFFEFD" stroke="#FFFEFD" stroke-width="0.494" d="M980.1,330.25c3-1.85,7.38,1.23,6.58,4.7
		c-2.22,11.24-2.79,22.77-1.69,34.17c0.23,3.31,1.74,7.08-1.01,9.78c-2.82,1.96-7.05,0.07-7.37-3.33
		c-2.1-13.43-1.87-27.26,0.76-40.6C977.66,333.18,978.2,330.96,980.1,330.25z"/>
	<path fill="#FFFEFD" stroke="#FFFEFD" stroke-width="0.494" d="M842.12,347.1c2.5-0.23,5.33-1.66,7.66-0.08
		c3.4,1.76,2.6299,7.61-1.1801,8.33c-8.28,1.25-16.43,3.19-24.6,4.96c-4.53,0.22-6.37-6.64-2.21-8.57
		C828.37,349.49,835.3,348.42,842.12,347.1z"/>
	<path fill="#FFFEFD" stroke="#FFFEFD" stroke-width="0.494" d="M1237.15,639.17c12.9-0.64,25.88-0.09,38.8199-0.27
		c3.2101,0.2,6.78-0.6801,9.73,0.99c3.41,2.35,1.49,8.48-2.6899,8.24c-15.02,0.06-30.05,0.09-45.0701-0.02
		C1232.92,648.17,1232.14,639.99,1237.15,639.17z"/>
	<path fill="#0A0000" stroke="#0A0000" stroke-width="0.494" d="M999.04,333.99c6.27-2.72,13.12-0.45,19.19,1.72
		c9.42,3.79,18.34,8.94,26.4301,15.05c0.75,2.8-2.49,3.77-4.27,2.16c-8.38-6.26-17.64-11.64-27.64-14.81
		c-5.3-1.72-12.21-2.13-16.11,2.57c-3.88,5.2-4.44,12.05-4.78,18.32c-0.32,8.02,0.12,16.05-0.07,24.08
		c-0.1,2.11,0.01,5.01-2.94,4.76c-0.29-0.41-0.89-1.21-1.19-1.61c0.08-9.96-0.04-19.92,0.09-29.87c0.43-3.31,0.81-6.63,1.67-9.85
		C990.72,341.28,993.68,335.88,999.04,333.99z"/>
	<path fill="#1C0000" stroke="#1C0000" stroke-width="0.494" d="M847.33,337.41c0.25-0.36,0.75-1.09,1-1.45l-0.3,1.99
		c15.37-2.05,31-3.08,46.45-1.56c4.07,2.08,9.41-0.17,12.82,3.21c-26.13-2.53-52.85-2.1-78.37,4.61c0.65-0.95,1.27-1.94,2.08-2.77
		c5.11-1.57,10.45-2.19,15.55-3.86L847.33,337.41z"/>
	<path fill="#990100" stroke="#990100" stroke-width="0.494" d="M828.93,344.21c25.52-6.71,52.24-7.14,78.37-4.61
		c18.56,1.93,36.9,6.03,54.69,11.7c4.01,0.85,2,6.08,2.32,8.96c-27.55-10.3-56.82-16.61-86.32-16.25c-2.95,0.13-6.88-0.74-8.66,2.32
		c-2.06,3.12,1.04,7.46,4.66,6.82c30.95-0.67,61.78,5.75,90.49,17.13c2.09,7.76,1.25,15.96,3.46,23.69
		c2.39,3.58,7.35,3.07,10.96,4.62c11.9,4.5,21.9,12.86,30.63,21.93c2.43,2.3,4.58,4.95,7.34,6.89c2.46,0.75,4.2-1.39,5.71-2.96
		c6.79-8.49,13.31-17.21,20.39-25.46c4.24,3.8,7.62,8.39,11.26,12.74c1.04,1.11,1.51,2.56,1.8201,4.04
		c-40.4501,21.42-83.6801,39.99-129.71,44.19c0.04-2.05,0.19-4.09,0.55-6.1c0.88-4.22,0.27-8.53-0.23-12.74
		c-1.46-16.76-9.8799-33.31-23.93-42.92c-6.6-4.91-14.45-7.82-22.42-9.57c-20.35-3.27-41.62,2.03-58.65,13.42
		c-0.46,0.09-1.37,0.28-1.83,0.37c-2.1-9.01-4.73-18.22-10.76-25.48c-4.78-6.24-11.43-10.69-18.33-14.27
		C801.68,353.48,815.28,347.98,828.93,344.21 M842.12,347.1c-6.82,1.32-13.75,2.39-20.33,4.64c-4.16,1.93-2.32,8.79,2.21,8.57
		c8.17-1.77,16.32-3.71,24.6-4.96c3.81-0.72,4.58-6.57,1.1801-8.33C847.45,345.44,844.62,346.87,842.12,347.1z"/>
	<path fill="#990100" stroke="#990100" stroke-width="0.494" d="M997.04,487.43c4.34,0.05,8.62-1.05,12.98-0.88
		c16.89-0.2,33.83-0.59,50.6699,0.99c0.03,25.02-3.97,50.51-15.08,73.14c-12.39,25.23-33.76,44.93-57.59,59.26
		c7.27-1.7,13.86-5.4,20.68-8.34c15.22-7.0699,29.3-17.08,39.45-30.61c10.83-14.71,19.87-31.1,23.9399-49.04
		c3.3201-13.98,3-28.59,1.05-42.74c1.6799,0.08,3.37,0.15,5.08,0.21c0.3,0.01,0.9,0.03,1.2001,0.04
		c-0.04,6.47,0.09,12.96,0.0499,19.44c-0.9199,19.93-4.6,40.03-13.58,58.01c-3.5601,7.31-8.08,14.1201-13.08,20.53
		c-4.41,5.65-9.63,10.6-14.8101,15.52c-4.11,4.13-10.26,4.37-15.29,6.79c-9.47,3.76-17.61,10.1-24.38,17.61
		c-13.05,6.36-27.05,10.6-41.07,14.33c0.26-2.44,0.66-4.87,1.16-7.26c15.4-8.66,28.94-21.95,34.76-38.94
		c10.7-4.42,21.8-8.82,30.34-16.91c7.66-6.66,13.5699-15.81,14.83-26.02c0.74-7.94,0.51-16.11-2.12-23.7
		c-1.76-6.8-5.73-13.72-12.52-16.47c-8.35-2.73-17.2401-0.03-24.96,3.41c-6.33,2.77-12.05,6.69-18.26,9.71
		c-11.53-16.12-29.39-28.88-49.54-30.63c-6.06-0.8-11.99,1.13-17.91,2.07c0.88-1.75,1.78-3.49,2.68-5.22
		c6.76-0.52,13.58,0.09,20.28-1.11C956.38,490.1,976.64,487.54,997.04,487.43z"/>
	<path fill="#FFFDFD" stroke="#FFFDFD" stroke-width="0.494" d="M869.33,346.33c1.78-3.06,5.71-2.19,8.66-2.32
		c29.5-0.36,58.77,5.95,86.32,16.25l0.53,0.18c0.06,0.64,0.17,1.91,0.23,2.54c0.2,2.61,0.45,5.2,0.77,7.8l-1.36-0.5
		c-28.71-11.38-59.54-17.8-90.49-17.13C870.37,353.79,867.27,349.45,869.33,346.33z"/>
	<path fill="#BB4B2B" stroke="#BB4B2B" stroke-width="0.494" d="M988.09,346.12l1.33,0.39c-0.86,3.22-1.24,6.54-1.67,9.85
		c-2.38,7.05-0.49,14.75-1.11,22.07c-0.67,0.12-1.99,0.35-2.66,0.47c2.75-2.7,1.24-6.47,1.01-9.78c0.07-0.41,0.22-1.24,0.29-1.66
		c0.8199-3.58,0.7599-7.27,0.85-10.93C987.29,353.16,987.35,349.58,988.09,346.12z"/>
	<path fill="#A02309" stroke="#A02309" stroke-width="0.494" d="M985.28,367.46c-0.26-6.96-0.78-14.08,0.42-20.97
		c0.31,3.34,0.38,6.69,0.43,10.04C986.04,360.19,986.1,363.88,985.28,367.46z"/>
	<path fill="#C44621" stroke="#C44621" stroke-width="0.494" d="M971.54,355.94c0.25,3.84,2.02,8.39-0.36,11.8
		C970.82,363.8,971.08,359.85,971.54,355.94z"/>
	<path fill="#AB0001" stroke="#AB0001" stroke-width="0.494" d="M751.21,364.04c11.8-3.41,25.03-4.16,36.63,0.37
		c9.36,3.72,17.67,10.36,22.73,19.13c3.75,6.5,5.94,13.86,6.42,21.35c-9.45,7.15-17.94,15.49-24.86,25.13
		c2.84-7.68,5-15.76,4.5-24.02c0.35-9.67-2.92-19.37-9.02-26.87c-5.48-6.33-13-10.86-21.21-12.58c-6.32-1.46-12.87-0.96-19.25-0.23
		C748.15,365,749.64,364.39,751.21,364.04z"/>
	<path fill="#280000" stroke="#280000" stroke-width="0.494" d="M790.39,362.48l0.35,0.19c6.9,3.58,13.55,8.03,18.33,14.27
		c6.03,7.26,8.66,16.47,10.76,25.48c0.46-0.09,1.37-0.28,1.83-0.37c-1.55,0.97-3.11,1.91-4.67,2.84
		c-0.48-7.49-2.67-14.85-6.42-21.35c-5.06-8.77-13.37-15.41-22.73-19.13C788.68,363.76,789.53,363.12,790.39,362.48z"/>
	<path fill="#280000" stroke="#280000" stroke-width="0.494" d="M1060.6899,487.54l0.03-0.86c5.3101,1.21,10.75,1.04,16.15,1.37
		c0.34,0.34,1.01,1.03,1.35,1.37c-1.71-0.06-3.4-0.13-5.08-0.21c1.95,14.15,2.27,28.76-1.05,42.74
		c-4.0699,17.94-13.11,34.33-23.9399,49.04c-10.15,13.53-24.23,23.54-39.45,30.61c-6.82,2.94-13.41,6.64-20.68,8.34
		c23.83-14.33,45.2-34.03,57.59-59.26C1056.72,538.05,1060.72,512.56,1060.6899,487.54z"/>
	<path fill="#651C1D" stroke="#651C1D" stroke-width="0.494" d="M965.07,362.98c1.05,10.32,2.53,20.61,2.87,30.99
		c-2.21-7.73-1.37-15.93-3.46-23.69l1.36,0.5C965.52,368.18,965.27,365.59,965.07,362.98z"/>
	<path fill="#2E383A" stroke="#2E383A" stroke-width="0.494" d="M728.58,377.02c15.54-10.63,38.95-12.45,53.47,0.94
		c8.64,7.71,12.45,19.66,12,31.02c-1.24,26.96-21.84,51.52-47.78,58.39c-10.75,2.46-22.82,1.97-32.32-4.14
		c-9.54-5.71-15.43-16.28-16.72-27.17c-1.99-17.6,5.14-35.88,17.92-48.01c-3,4.04-6.51,7.73-8.9301,12.17
		c-4.71,8.81-7.8199,18.73-7.17,28.81c0.35,11.9,7.14,23.72,17.95,29.03c8.33,4.31,18.25,4.57,27.22,2.28
		c14.92-3.93,27.7-14.43,35.45-27.65c6.36-10.67,9.53-23.66,6.78-35.95c-1.64-8.54-6.93-16.25-14.22-20.98
		c-9.43-6.33-21.74-6.57-32.3-3.21C735.98,373.61,732.48,375.83,728.58,377.02z"/>
	<path fill="#2E383A" stroke="#2E383A" stroke-width="0.494" d="M818.02,408.22c11.4-6.61,24.65-10.63,37.9-9.45
		c11.26,0.87,22.3,6.03,29.6,14.75c8.89,10.12,12.01,24.25,10.61,37.42c-1.04,13.84-7.02,26.9-15.26,37.92
		c-11.5,15.16-28.51,26.7-47.5,29.66c-12.61,2.15-26.29-0.48-36.53-8.34C787.85,503.4,782.2,492.8,780.35,481.8
		c-2.88-19.76,3.96-40.57,17.1801-55.38c-1.6801,3.78-4.58,6.82-6.52,10.46c-6.42,11.36-10.13,24.69-8.37,37.78
		c1.36,12.36,8.4,24.28,19.36,30.46c9.47,5.57,21.05,6.61,31.68,4.45c29.36-6.4,52.84-33.59,54.76-63.59
		c0.73-13.28-3.99-27.36-14.54-35.9c-12.02-10.16-29.51-11.15-43.9301-6.13c-5.09,1.54-9.54,4.51-14.43,6.5
		C816.23,409.55,817.05,408.8,818.02,408.22z"/>
	<path fill="#2E383A" stroke="#2E383A" stroke-width="0.494" d="M807.42,416.48c2.16-2.69,5-4.79,8.2-6.12
		C813.24,412.84,810.42,414.84,807.42,416.48z"/>
	<path fill="#FEFEFE" stroke="#FEFEFE" stroke-width="0.494" d="M741.47,377.56c2.27-0.78,5.14,1.03,5.0601,3.54
		c0.5,4.49-5.64,9.17-9.28,5.52C734.85,383.25,737.67,378.3,741.47,377.56z"/>
	<path fill="#FEFEFE" stroke="#FEFEFE" stroke-width="0.494" d="M268.21,723.25c5.24-2.86,12.35,0.92,13.11,6.78
		c1.11,5.34-3.63,9.02-6.56,12.74c-3.24,3.69-6.07,9.28-11.79,8.94c-6.9,0.18-11.74-8.67-7.48-14.25
		C259.5,732.58,262.99,726.9,268.21,723.25z"/>
	<path fill="#AC0000" stroke="#AC0000" stroke-width="0.494" d="M1442.6801,390.76c4.3099-3.7,9.13-8.28,15.33-7.39
		c16.85,1.58,34.15,9.2,43.86,23.57c4.3,5.84,5.76,13.09,8.55,19.67c5.2699,15.1,11.38,29.98,15.2899,45.52
		c-9.98,0.62-19.87,2.35-29.73,3.98c-10.9,2.18-21.84,4.56-32.16,8.75c-8.35,3.25-15.2699,9.2-21.48,15.5
		c-5.61,5.81-11.75,11.67-14.23,19.59c-2.0699,8.35,0.3,17.09,4.27,24.5c2.61,4.3,6.36,8.58,11.5699,9.48
		c10.4501,2.69,21.3101,2.59,32.02,2.78c15.3401,0.04,30.6801,0.0099,46.01-0.52c7.14-0.75,14.39-0.29,21.46-1.78
		c1.5701,3.33,2.01,7.02,2.6101,10.6201c7.36,37.93,12.1899,76.37,14.2899,114.95c0.23,6.65,0.3401,13.32,0.3301,19.98
		c1.9099,17.29-0.2001,34.65-0.3401,51.97c-2.45,43.13-8.95,86.14-20.58,127.79c-4.15,0.33-8.13-1.09-12.1899-1.6299
		c-67.8601-10.1201-135.2101-23.31-202.55-36.4c-16.64-2.98-33.17-6.65-50-8.43c-7.9301-1.55-16.04-1.43-24-2.63
		c-8.46-0.31-16.9301-0.82-25.35-1.32c-2.4601-0.89-5.01-1.65-7.63-1.58c-9.67-0.09-19.3301-0.03-28.99-0.08
		c-2.39-0.17-4.66,0.58-6.75,1.64c-8.38,0.52-16.8401,1.09-25.27,1.26c-66.9,5.04-133.63,16.66-197.3,38.24
		c-17.95,6.21-35.81,13.03-52.24,22.67c-16.7,10.1-32.55,21.82-46.04,35.98c-5.58,6.25-10.32,13.47-12.55,21.62
		c-3.12,11.07,0.09,23.17,7.02,32.14c8.26,10.58,19.15,19.24,31.64,24.29c22.49,9.64,47.22,11.24,71.29,13.35
		c5.15,1.18,10.52,0.2599,15.68,1.46c11.02,2.85,22.57,2.27,33.86,2.04c11.5-0.08,22.9,1.58,34.42,1.36
		c13.7,1.06,27.5,0.33,41.1799,1.7c22.35,0.01,44.65,1.15,67,0.96c54.99,0.4401,109.99,0.39,164.97-0.35
		c14.67-0.59,29.38-0.24,44.0601-0.74c5.87-0.9301,11.83-0.51,17.76-0.61c5.2999,0.72,10.65,0.6,15.99,0.5299
		c-12.98,12.05-27.35,22.42-41.1,33.53c-14.16,9.91-28.3101,19.86-43.11,28.8101c-10.0801,5.5399-19.87,11.61-30.1801,16.72
		c-7.49,3.53-14.58,7.89-22.3199,10.87c-36.24,16.89-74.38,29.63-113.38,38.42c-22.99,5.22-46.3101,9.11-69.77,11.27
		c-27.8,3.7799-55.92,4.0399-83.94,3.8199c-14.92,0-29.82-0.71-44.71-1.37c-9.98-1.48-20.1-1.39-30.08-2.86
		c-23.16-2.67-46.24-6.0601-69.2-10.16c-13.27-2.77-26.7-4.85-39.78-8.45c-35.85-7.73-71.04-18.12-105.99-29.12
		c-6.79-3-14.1-4.4801-20.97-7.2301c-32.85-11.3099-65.08-24.34-97.02-37.99c-6.91-2.4199-13.16-6.34-20.05-8.8099
		c-7.1299-2.65-13.48-7.21-20.9-9.0701c1.86,3.26,5.49,4.7101,8.44,6.77c23.19,15.3401,46.36,30.79,70.6,44.4401
		c7.29,4.9099,15.23,8.71,22.85,13.0699c34.31,19.4,69.98,36.3,106.24,51.7001c36.35,15.23,73.64,28.23,111.63,38.74
		c42,11.52,84.74,20.59,128,25.8099c10.66,1.0801,21.31,2.3201,31.95,3.6c7.55,0.87,15.2101,0.3601,22.72,1.66
		c13.1001,0.8,26.2201,1.25,39.3401,1.55c10.7,1.0699,21.4099-0.0801,32.0699-1.05c40.41-4.8199,79.17-18.71,115.9-35.78
		c42.25-19.76,82.05-44.61,118.85-73.23c5.59-4,11.4301-7.73,16.1901-12.77c26.26-22.6499,51.49-46.98,71.49-75.47
		c3.97-4.9399,7.21-10.41,10.11-16.03c0.66-1.3099,0.74-2.7999,0.99-4.2c3.64-0.05,7.29-0.28,10.9399,0.07
		c6.15,0.76,12.3401-0.14,18.5,0.29c1.7401-0.17,2.9901,0.98,4.04,2.24c-20.9299,33.15-46.22,63.52-75.12,89.99
		c-57.35,52.73-127.34,89.9401-200.16,116.52c-19.34,7.1801-39.0399,13.36-58.7999,19.28c-10.8401,3.08-21.7101,6.52-33.03,7.23
		c-12.5699,1.88-25.28,2.6801-37.98,2.7c-10.65,1.13-21.4501,1.05-32.1-0.0399c-7.14-0.25-14.3401,0.08-21.42-1
		c-6.58-1.4401-13.3-2.01-20.02-1.91c-22.7-1.9399-45.15-6.2-67.49-10.59c-81.78-17.3301-160.7-46.4601-236.2-82.0701
		c-59.5099-28.2799-117.08-60.73-171.82-97.4099c2.1201-4.54,5.59-8.29,8.1-12.6101c26.67-41.4399,47.87-86.5399,61.29-133.9999
		c24.59-84.94,23.44-175.91,3.66-261.68c-6.09-26.72-13.71-53.12-22.94-78.93c1.59-0.38,3.22-0.76,4.87-0.48
		c11.33,0.7,22.76-0.21,34.04,1.33c30.48,1.53,60.7,6.5,90.39,13.47c2.36,0.67,4.73,1.25,7.13,1.81
		c6.7,12.66,16.42,24.2,29.54,30.49c19.49,9.57,42.24,8.33,62.9,3.75c4.48-0.78,8.93-3.25,13.54-1.91
		c12.08,2.86,24.48,4.27,36.87,4.73c7.65,14.5099,17.47,28.31,30.82,38.09c8.47,6.49,18.89,11.64,29.84,10.57
		c3.42-0.14,6.35-2.07,9.59-2.92c5.45,5.64,9.62,12.37,14.87,18.19c11.65,14.61,23.8,28.83,36.34,42.68
		c12.54,13.78,25.38,27.32,39.45,39.56c12.61,11.03,25.84,21.92,41.4299,28.45c7.17,2.67,15.62,5.11,22.76,1.02
		c2.13-0.98,3.5601-2.91,5.27-4.46c1.1801-1.05,2.53-2.12,2.78-3.8c1.58-6.28,2.79-12.67,3.8-19.0601
		c0.24-11.66,0.0499-23.33,0.0699-35c0.1-8.39-2.46-16.58-1.97-24.99c0.35-3.64-0.75-7.1-2.25-10.35
		c-4.2201-27.06-8.78-54.33-18.38-80.11c-1.23-3.64-3.55-6.98-3.62-10.93c7.3099,0.16,14.5599-1.03,21.88-0.95
		c6.98-0.16,13.96-0.28,20.95-0.34c9.28-1.2,18.65-0.51,27.98-0.8c16.6801,0.08,33.4-0.41,50.05,0.68c25,0.13,50.02,0.45,75.03,0.14
		c9.3199-1.21,18.8999-0.62,28-3.35c2.7-0.45,5.13-1.91,6.75-4.14c24.0599-28.35,42.7799-60.67,61.75-92.52
		c19.95-33.84,38.6499-68.46,60.4399-101.17C1427.52,408.49,1434.42,399,1442.6801,390.76 M1456.46,398.63
		c-2.1,1.82-5.0399,3.37-5.5699,6.34c-0.73,3.66,4.17,6.71,7.13,4.29c2.26-1.92,5.8099-3.85,5.35-7.32
		C1463.08,398.72,1459.08,397.01,1456.46,398.63 M1419.4301,438.3c-1.28,1.14-2.05,2.7-2.92,4.14
		c-26.96,45.56-51.05,93.14-67.51,143.57c-0.83,2-1.0601,4.66,0.83,6.18c2.17,2.38,6.5601,1.18,7.42-1.88
		c16.63-51.42,41.4-99.81,68.91-146.18C1428.73,440.17,1422.98,435.28,1419.4301,438.3 M603.2,599.32
		c-8.17,3.31-5.89,16.95,2.96,17.33c29.47,0.77,58.97,3.48,87.86,9.53c4.31,1.18,9.28-1.05,10.94-5.26c2.6-5-1.01-11.59-6.42-12.63
		c-29.78-6.2599-60.19-9.22-90.6-9.9C606.31,598.35,604.66,598.58,603.2,599.32 M1311.15,635.21c-3.3201,0.2-6.24,3.7-4.47,6.92
		c2.11,3.85,6.8899,2.15,10.1499,1.05c3.0701-0.97,3.92-5.46,1.4801-7.53C1316.35,633.63,1313.46,634.61,1311.15,635.21
		 M1237.15,639.17c-5.01,0.82-4.23,9,0.7899,8.94c15.02,0.11,30.05,0.08,45.0701,0.02c4.1799,0.24,6.1-5.89,2.6899-8.24
		c-2.95-1.67-6.5199-0.79-9.73-0.99C1263.03,639.08,1250.05,638.53,1237.15,639.17 M1167.72,1027.51c1.72,0.39,3.4601,0.7,5.25,0.71
		c24.3401,0.2101,48.6801,0.17,73.03,0.0901c6.08-0.4,12.27,0.47,18.28-0.8c-7.0801-0.54-14.1901-0.27-21.28-0.51
		C1217.91,1027.1801,1192.79,1026.53,1167.72,1027.51z"/>
	<path fill="#AC0000" stroke="#AC0000" stroke-width="0.494" d="M856.62,390.5c6.61-0.85,13.39-1.24,19.99-0.05
		c8.36,1.64,16.69,4.27,23.71,9.26c12.75,8.3,20.74,22.58,23.32,37.37c1.75,11.44,0.68,23.13-2.03,34.33
		c-1.61,6-3.96,11.83-6.8,17.36c-13.11,25.83-37.38,46.4-65.89,52.76c-5.27,0.85-10.58,1.72-15.92,1.87
		c-4.86-0.35-9.71-0.98-14.47-2.01c-15.44-3.68-29.15-14.45-35.96-28.84c-3.49-6.76-5.01-14.27-6.07-21.74
		c0.07-0.75,0.19-2.25,0.25-3c2.94,11.45,9.93,22.08,20.04,28.42c10.97,7.14,24.69,8.94,37.42,6.72
		c29.62-5.49,54.3-29.09,63.39-57.48c3.67-12.2,4.47-25.56,1-37.88c-4.5099-16.29-18.64-29.58-35.39-32.39
		c0.64-0.38,1.92-1.12,2.56-1.5c-4.44-0.47-8.96-0.52-13.22-1.95C853.84,391.15,855.17,390.59,856.62,390.5z"/>
	<path fill="#AC0000" stroke="#AC0000" stroke-width="0.494" d="M767.31,460.29c5.66-3.57,10.04-8.68,14.72-13.37
		c-3.3101,9.51-6.73,19.09-7.58,29.21c-0.27,1.59,0.18,3.97-1.76,4.65c-10.13,4.98-21.31,8.18-32.67,7.72
		c-10.55-0.03-20.93-3.85-29.13-10.45c-8.09-6.56-13.4-16.06-15.64-26.17c0.81-0.95,1.61-1.91,2.43-2.86
		c4.52,10.6,14.15,18.71,25.35,21.41C738.34,474.31,754.76,469.36,767.31,460.29z"/>
	<path fill="#AC0000" stroke="#AC0000" stroke-width="0.494" d="M1480.4399,486.82c19.8301-6.48,40.79-9.04,61.5901-9.07
		c6.7999,0.69,13.7,0.2,20.4299,1.58c10.26,0.9,20.29,3.35,30.42,5.16c21.51,4.71,43.37,9.11,63.61,18.05
		c7.26,3.65,15.85,7.72,18.45,16.1c1.16,2.87,0.26,5.93-0.6399,8.73c-4.8501,3.17-10.7001,4.04-16.17,5.54
		c-22.8199,5.05-46.03,7.84-69.1901,10.71c-10.62,0.83-21.1399,2.72-31.7899,2.99c-8.76,1.26-17.62,1.52-26.4301,2.07
		c-5.5699,0.95-11.21,0.87-16.8199,1.03c-14.26,1.06-28.59,0.72-42.88,0.61c-9.03-0.7-18.51-0.64-26.8201-4.65
		c-5.1699-3.65-8.6899-9.43-10.1499-15.53c-1.3-7.14,1.6799-14.41,6.3899-19.7C1450.8,498.47,1465.77,491.85,1480.4399,486.82
		 M1464.61,504.62c-8.98,3.87-17.95,9.91-21.54,19.42c-1.49,3.47-1.0199,7.59,1.28,10.61c2.89,4.71,8.76,5.79,13.78,6.8
		c24.6,0.97,49.27,1.34,73.88,0.27c12.0599,0.08,24-1.55,36.04-1.97c25.36-2.28,50.6399-5.5,75.9299-8.59
		c5.7001-0.94,11.5601-0.95,17.14-2.59c-1.34-1.38-3.39-1.21-5.1-1.51c-6.97-0.91-14-0.41-20.99-0.68
		c-15.37-0.03-30.72-0.97-46.0901-1.06c-14.1499-1.78-28.5099-0.71-42.6299-2.83c-19.4501-1.13-38.8401-4-57.6201-9.25
		c-6.48-1.82-12.6799-4.72-17.9099-8.99C1469,502.42,1466.51,503.9,1464.61,504.62 M1646.65,512.48
		c-1.9301,3.78,2.8199,8.29,6.4299,5.91c2.3301-1.9,5.7001-3.76,5.8201-7.14c-0.24-2.67-2.63-4.1-4.9601-4.72
		C1651.08,507.88,1648.5,509.93,1646.65,512.48z"/>
	<path fill="#AC0000" stroke="#AC0000" stroke-width="0.494" d="M1309.49,496.9c18.48-5.51,37.5-9.27,56.65-11.38
		c-1.02,4.04-3.8,7.25-5.72,10.86c-5.2101,9.15-10.9601,17.98-16.2001,27.1c-6.36,1.75-12.96,0.37-19.38-0.21
		c-7.0699-1.02-14.01-2.91-20.6599-5.51c-4.64-1.79-8.66-4.79-13.2101-6.76c0.3101,8.02,6.5,14.21,13.12,17.92
		c8.7201,5.98,18.75,9.41,28.5,13.27c-0.6699,1.09-1.1699,2.28-1.99,3.26c-1.41,0.64-3.01,0.23-4.41-0.1
		c-11.49-3.6-23.24-7.33-33.1-14.47c-4.9-3.83-9.7899-9.18-9.5299-15.82c-0.4901-3.65,2.21-6.6,4.87-8.67
		C1294.7,501.79,1302.22,499.39,1309.49,496.9 M1321.08,500.96c-3.4199,0.23-7.5299,2.98-5.89,6.86
		c1.4901,4.16,6.5,2.82,9.6901,1.76c3.77-0.68,4.75-6.13,1.61-8.18C1324.96,500.04,1322.84,500.6,1321.08,500.96z"/>
	<path fill="#AC0000" stroke="#AC0000" stroke-width="0.494" d="M1010.25,514.45c5.93-1.33,13.13-1.06,17.49,3.75
		c6.13,6.64,7.86,16.11,8.58,24.83c1.01,12.0699-4.0499,24.21-12.85,32.4399c-9.43,8.76-21.37,14.2-33.49,18.16
		c-11.27,3.9-23.11,5.87-34.92,7.21c-9.93,1.77-20.04,1.5-30.08,1.74c-18.57,0.18-37.17-1.54-55.34-5.39
		c3.1-2.72,6.21-5.51,9.78-7.6c4.57-0.3,9.09,0.83,13.66,0.9c11.29,0.38,22.61,0.44,33.91-0.13c13.78-1.04,27.41-3.66,40.79-7.08
		c-0.09-1.34-0.1801-2.6801-0.2401-4c-13.14,2.91-26.33,5.89-39.77,6.99c-9.24,0.51-18.49,0.47-27.73,0.38
		c-5.48-0.13-11.02,0.0699-16.39-1.17c4.61-4.38,8.62-9.42,11.34-15.19c11.3,1.13,22.17-2.94,32.08-7.94
		c19.35-9.84,36.52-23.3199,55-34.62C991.01,522.46,1000.05,516.88,1010.25,514.45z"/>
	<path fill="#AC0000" stroke="#AC0000" stroke-width="0.494" d="M396.05,606.55c12.1-3.87,24.32-7.45,36.72-10.22
		c1.09,5.18,4.83,9.1,7.41,13.56c17.87,28.38,29.89,60.49,34.61,93.71c4.93,31.27,3.44,63.25-1.64,94.4
		c-9.22,54.78-29.71,107.01-54.39,156.54c-3.73,7.72-8.08,15.13-11.62,22.93c-0.53,0.08-1.58,0.26-2.11,0.35
		c-10.97-9.96-22.24-19.6-32.69-30.13c-11.56-10.43-21.91-22.08-32.78-33.2c-24.82-27.31-47.9-56.4-66.7-88.23
		c-15.35-25.96-27.93-53.86-34.44-83.4c-1.51-7.49-3.57-15.13-2.43-22.82c2.16-10.86,8.44-20.32,15.31-28.79
		c13.88-16.24,30.95-29.43,48.92-40.86C330,631.54,362.59,617.45,396.05,606.55 M416.22,628.28
		c-49.75,17.6299-97.21,43.73-135.24,80.71c-4.59,4.31-2.8,12.76,3.07,14.93c4.11,1.95,8.71-0.17,11.49-3.36
		c36.04-34.44,80.78-58.65,127.54-75.18c4.71-1.37,7.55-6.74,6.08-11.41C427.75,628.64,421.11,625.78,416.22,628.28 M268.21,723.25
		c-5.22,3.65-8.71,9.33-12.72,14.21c-4.26,5.58,0.58,14.43,7.48,14.25c5.72,0.34,8.55-5.25,11.79-8.94
		c2.93-3.72,7.67-7.4,6.56-12.74C280.56,724.17,273.45,720.39,268.21,723.25z"/>
	<path fill="#AC0000" stroke="#AC0000" stroke-width="0.494" d="M1019.43,860.43c54.2501-13.02,109.89-20.27,165.6301-21.3
		c9.3099-0.5,18.6599,0.65,28-0.07c11.3799,0.56,22.7999,0.88,34.1899,1.66c4.85,1.02,9.85,0.67,14.76,1.38
		c22.5699,2.38,44.85,6.73,67.15,10.86c85.7999,14.86,171.9,27.96,257.85,42.03c66.59,11.2,133.3,22.15,199.05,37.77
		c20.6299,5.16,41.2899,10.57,61.08,18.47c8.5,3.84,17.87,7.46,23.72,15.11c1.73,1.9,1.4501,4.54,1.46,6.93
		c-7.72,5.27-17.37,6.22-26.2599,8.27c-35.1201,6.04-70.63,9.45-106.0801,12.68c-28.99,2.4301-57.96,4.98-87.01,6.55
		c-9.96,1.11-19.98,1.58-29.99,1.87c-10.48,1.19-21.03,1.43-31.5499,2.04c-5.75,1.03-11.6001,0.69-17.39,1.12
		c-6.6801,0.68-13.41,0.57-20.1001,0.83c-12.95,1.26-25.98,1.53-38.97,2.05c-8.2999,1.17-16.6899,0.72-25.02,1.18
		c-8.62,0.88-17.3199,0.21-25.8999,1.4c-13.3601,0.24-26.6901,1.19-40.05,1.29c-5.63,0.02-11.25,0.14-16.83,0.9
		c-14.4301,0-28.8201,1.07-43.24,1.08c-3.67-0.0601-7.28,0.6899-10.9301,0.77c-28.35,0.25-56.67,1.49-85.03,1.34
		c-9.2999,1.18-18.6799,0.55-28.03,0.84c-17.6399,0.42-35.2999-0.21-52.9199,0.73c-24.35-0.12-48.7001,0.2-73.03-0.56
		c-13,0.1-26-0.32-39-0.26c-14.96-1.64-30.09-0.36-45.08-1.61c-16.67-0.1801-33.2501-1.8701-49.91-2.4
		c-5.29-0.92-10.66-0.85-15.99-1.3c-23.56-2.39-47.44-4.07-70.22-11c-8.48-2.49-15.2-8.48-21.64-14.24
		c-5.9901-6.05-11.22-13.29-13.11-21.72c-2.44-10.17,1.07-20.83,6.96-29.16c8.89-12.72,21.7-22.03,34.68-30.23
		C937.3,883.9,978.35,870.91,1019.43,860.43 M933.06,909.11c-6.94,3.81-13.83,7.84-19.76,13.13c-6.54,5.85-14.2,10.47-19.76,17.37
		c-6.03,5.99-11.27,13.13-13.58,21.4c-0.87,5.36-1.3,11.88,2.79,16.1c5.09,6.18,12.64,10.02,20.35,11.8c7.08,2,14.3,3.42,21.62,4.22
		c24.41,2,48.78,4.42,73.26,5.52c11.65,0.99,23.33,1.87,35.03,2c10.4299,1.29,20.96,0.81,31.4299,1.68
		c13.8601,0,27.6801,1.13,41.54,1.19c26.67,0.74,53.34,1.2,80.02,1.24c24.98,0.92,50.02,0.11,75.02,0.45
		c3.97-0.08,7.9299-0.51,11.9199-0.46c32.04,0,64.0601-0.78,96.0901-1.19c8.6599-0.32,17.39,0.35,26-0.93
		c9.65-0.26,19.33,0.01,28.96-0.77c10.04-0.77,20.16,0.04,30.17-1.2c7.27-0.49,14.58-0.15,21.86-0.56
		c9.62-1.05,19.36-0.14,28.97-1.52c14.67-0.27,29.37-0.67,44-2.02c33.0701-0.86,65.99-3.72,99.03-5.17
		c11.95-1.42,24.04-1.21,35.98-2.72c25.37-1.72,50.74-3.39,76.03-6.11c10.4-0.25,20.62-2.48,31.02-2.86
		c8.2899-1.01,16.59-1.96,24.85-3.26c7.0499-0.96,14.7-1.33,20.78-5.43c-2.92-2.94-7.13-3.63-10.9701-4.54
		c-7.5599-1.27-15.11-2.6899-22.77-3.03c-18.2899-2.77-36.7899-3.39-55.1699-5.21c-6.97-0.88-14.03-0.4-20.9501-1.72
		c-17.3199-0.8-34.5699-2.61-51.9099-3.09c-10.4501-1.08-20.9601-1.43-31.4301-2.14c-13.78-1.58-27.6899-1.27-41.47-2.73
		c-8.27-0.64-16.55-0.92-24.83-1.25c-6.7001-0.93-13.4701-0.79-20.1801-1.5c-12.05-0.18-23.99-1.9-36.02-2.25
		c-3.6899-0.05-7.28-0.86-10.9399-1.03c-14.7101-0.39-29.37-1.62-44.05-2.5c-12.33-0.55-24.59-2.18-36.9299-2.48
		c-10.9401-1.59-22.03-1.29-33.03-2.19c-10.66-1.4-21.4401-1.3-32.1-2.55c-8.6101-1.01-17.3-0.94-25.87-2.15
		c-13.79-0.09-27.39-2.77-41.17-3.06c-10.27-1.25-20.62-1.59-30.88-2.95c-43.11-3.44-86.09-8.5-129.04-13.46
		c-7.21-1.59-14.65-1.38-21.87-2.82c-11.77-1.5-23.4399-3.64-35.15-5.51c-26.6399-4.3-53.25-9.13-79.28-16.35
		c-3.88-0.91-7.65-2.99-11.68-2.67C969.26,889.54,950.72,898.73,933.06,909.11z"/>
	<path fill="#AC0000" stroke="#AC0000" stroke-width="0.494" d="M265.77,860.9c1.86-0.42,3.69-0.92,5.54-1.4
		c1.15,0.87,2.29,1.81,3.11,3.04c13.13,18.14,27,35.7401,41.59,52.73c-13.36,0.32-26.7,1.3-40.07,1.32
		c-19.58,1.58-39.23,1.74-58.87,2.0699c-15.32,1.2-30.71,0.8-46.07,1.02c-25.03,0.12-50.06-0.05-75.09-0.29
		c-10.7-0.57-21.5-1.58-32.18-0.55c10.26,3.86,21.17,5.4,31.78,7.97c30.04,5.92,60.28,10.74,90.52,15.41
		c16.63,2.75,33.42,4.35,50.04,7.17c19.63,2.16,39.26,4.28,58.88,6.51c9.05,0.3199,17.99,1.8199,27.03,2.2599
		c7.69,0.32,15.31,1.54,23.01,1.63c5.67,0.45,11.64-0.08,16.99,2.23c2.39,2.14,4.65,4.43,7.02,6.61
		c-15.08-0.06-30.07-1.73-45.1-2.43c-73.54-5.59-147.05-12.74-219.89-24.67c-21.48-4.04-43.22-7.52-63.9-14.84
		c-4.08-1.77-9.09-3.27-10.9-7.79c2.59-4.17,7.45-5.79,11.69-7.72c13.96-5.47,28.58-8.98,43.07-12.74
		c33.45-8.13,67.2-14.88,100.93-21.72C211.87,871.5,238.78,865.98,265.77,860.9z"/>
	<path fill="#300000" stroke="#300000" stroke-width="0.494" d="M880.31,388.63c7.97,1.75,15.82,4.66,22.42,9.57
		c14.05,9.61,22.47,26.16,23.93,42.92c0.5,4.21,1.11,8.52,0.23,12.74c-2.31,5.67-1.47,12.59-5.28,17.55
		c2.71-11.2,3.78-22.89,2.03-34.33c-2.58-14.79-10.57-29.07-23.32-37.37c-7.02-4.99-15.35-7.62-23.71-9.26
		C877.83,389.83,879.06,389.22,880.31,388.63z"/>
	<path fill="#95120F" stroke="#95120F" stroke-width="0.494" d="M841.51,394.53c3.48-1.43,7.17-3.33,11.04-2.78
		c4.26,1.43,8.78,1.48,13.22,1.95c-0.64,0.38-1.92,1.12-2.56,1.5C856.08,393.53,848.73,394.39,841.51,394.53z"/>
	<path fill="#95120F" stroke="#95120F" stroke-width="0.494" d="M695.25,451.88c-1.44-4.65-1.26-9.61-0.53-14.37
		c0.7,3.9,1.54,7.79,2.96,11.51C696.86,449.97,696.06,450.93,695.25,451.88z"/>
	<path fill="#BB4526" stroke="#BB4526" stroke-width="0.494" d="M1037.24,395.89c2.53-0.71,0.63,2.56-0.71,2.68
		C1034.83,398.49,1036.21,396.06,1037.24,395.89z"/>
	<path fill="#FFFCFB" stroke="#FFFCFB" stroke-width="0.494" d="M1456.46,398.63c2.62-1.62,6.62,0.09,6.91,3.31
		c0.46,3.47-3.09,5.4-5.35,7.32c-2.96,2.42-7.86-0.63-7.13-4.29C1451.42,402,1454.36,400.45,1456.46,398.63z"/>
	<path fill="#0A0004" stroke="#0A0004" stroke-width="0.494" d="M1215.29,408.36c6.0699-0.53,12.12-1.32,18.1899-2.01
		c0.4301,0.5,1.29,1.49,1.72,1.98c-1.1,0.54-2.13,1.22-3.2899,1.53c-12.25,0.49-24.53,1.73-36.48,4.52
		c-9.03,2.04-18.01,4.47-26.5701,8.02c-8.35,2.9-16.36,6.74-23.92,11.32c-9.98,5.58-19.2,12.46-27.7999,19.98
		c-9.46,8.29-17.89,17.73-25.3,27.88c-3.1899,4.35-6.11,8.88-9.15,13.32l-0.5199-0.98c0.6599-2.27,2.12-4.18,3.11-6.3
		c-0.36-0.38-1.0701-1.15-1.42-1.53c5.23-6.89,10.42-13.81,15.73-20.64c5.6-6.3,11.61-12.26,18.0801-17.67
		c10.2799-8.66,21.5399-16.17,33.58-22.16c9.17-4.39,18.74-7.97,28.58-10.53C1191.42,411.82,1203.3199,409.69,1215.29,408.36z"/>
	<path fill="#FEFEFF" stroke="#FEFEFF" stroke-width="0.494" d="M832.55,409.67c2.59-1.34,6.28,0.38,6.69,3.33
		c1.14,5.3-5.36,11.14-10.31,8.07C824.77,417.64,828.16,411.06,832.55,409.67z"/>
	<path fill="#FDFBFB" stroke="#FDFBFB" stroke-width="0.494" d="M799.87,423.79c1.8-2.19,3.84-4.18,6.05-5.96
		C803.89,419.81,801.86,421.78,799.87,423.79z"/>
	<path fill="#FDFBFB" stroke="#FDFBFB" stroke-width="0.494" d="M1321.08,500.96c1.76-0.36,3.88-0.92,5.41,0.44
		c3.14,2.05,2.16,7.5-1.61,8.18c-3.1901,1.06-8.2,2.4-9.6901-1.76C1313.55,503.94,1317.66,501.19,1321.08,500.96z"/>
	<path fill="#FEFDFC" stroke="#FEFDFC" stroke-width="0.494" d="M1419.4301,438.3c3.5499-3.02,9.2999,1.87,6.73,5.83
		c-27.51,46.37-52.28,94.76-68.91,146.18c-0.86,3.06-5.25,4.26-7.42,1.88c-1.89-1.52-1.6599-4.18-0.83-6.18
		c16.46-50.43,40.55-98.01,67.51-143.57C1417.38,441,1418.15,439.44,1419.4301,438.3z"/>
	<path fill="#99FFFF" stroke="#99FFFF" stroke-width="0.494" d="M643.61,470.68c15.12-11.18,31.73-20.09,48.36-28.77
		c0.2,6.72,1.5601,13.43,4.16,19.64c-12.44,8.02-25.49,15.17-37.11,24.4c-24.48,17.68-45.6,40.31-60.24,66.8
		c-1.79,3.23-4.51,6.77-3.11,10.68c1.52,2.01,4.87,3.15,6.82,1.05c2.19-2.31,3.22-5.42,4.78-8.14
		c9.67-17.01,22.02-32.47,36.29-45.84c17.28-15.73,36.52-29.39,57.17-40.34c2.69,3.87,5.97,7.28,9.54,10.35
		c-10.03,20.81-12,44.64-8.96,67.31c1.84,12.23,4.91,24.32,9.71,35.74c-43.3-10.14-87.73-15.46-132.19-15.91
		c-1.72-0.35-3.26-1.23-4.84-1.92c6.47-17.13,14.41-33.8,24.77-48.94C610.79,498.88,626.19,483.35,643.61,470.68z"/>
	<path fill="#FE99CC" stroke="#FE99CC" stroke-width="0.494" d="M1079.01,458c3.83,0.59,7.8199,0.87,11.36,2.63
		c3.12,1.5,6.15,3.19,9.22,4.82c-5.3099,6.83-10.5,13.75-15.73,20.64c-0.49,0.64-1.47,1.92-1.95,2.55
		C1081.0699,478.42,1080.17,468.19,1079.01,458z"/>
	<path fill="#FDFFFE" stroke="#FDFFFE" stroke-width="0.494" d="M659.02,485.95c11.62-9.23,24.67-16.38,37.11-24.4
		c1.34,2.97,2.94,5.81,4.6,8.61c-20.65,10.95-39.89,24.61-57.17,40.34c-14.27,13.37-26.62,28.83-36.29,45.84
		c-1.56,2.72-2.59,5.83-4.78,8.14c-1.95,2.1-5.3,0.96-6.82-1.05c-1.4-3.91,1.32-7.45,3.11-10.68
		C613.42,526.26,634.54,503.63,659.02,485.95z"/>
	<path fill="#250000" stroke="#250000" stroke-width="0.494" d="M710.89,478.05c8.2,6.6,18.58,10.42,29.13,10.45
		c11.36,0.46,22.54-2.74,32.67-7.72c0.35,0.44,1.05,1.3,1.4,1.74c-13.39,7.04-29.14,10.44-44.11,7.21
		c-6.2-1.5-12.41-3.73-17.44-7.76C711.88,480.71,711.4,479.36,710.89,478.05z"/>
	<path fill="#250000" stroke="#250000" stroke-width="0.494" d="M998.75,515.8c7.72-3.44,16.61-6.14,24.96-3.41
		c6.79,2.75,10.7599,9.67,12.52,16.47c2.63,7.59,2.86,15.76,2.12,23.7c-1.26,10.21-7.1699,19.36-14.83,26.02
		c-8.54,8.09-19.64,12.49-30.34,16.91c-1.07-0.62-2.15-1.26-3.2-1.86c12.12-3.96,24.06-9.4,33.49-18.16
		c8.8-8.23,13.86-20.37,12.85-32.4399c-0.72-8.72-2.45-18.19-8.58-24.83c-4.36-4.81-11.56-5.08-17.49-3.75
		c-10.2,2.43-19.24,8.01-28.18,13.28c-0.54-0.75-1.05-1.49-1.58-2.22C986.7,522.49,992.42,518.57,998.75,515.8z"/>
	<path fill="#0E0000" stroke="#0E0000" stroke-width="0.494" d="M848.92,541.53c28.51-6.36,52.78-26.9301,65.89-52.76
		c0.29,0.98,0.6,1.96,0.91,2.96c-0.9,1.73-1.8,3.47-2.68,5.22c5.92-0.94,11.85-2.87,17.91-2.07c20.15,1.75,38.01,14.51,49.54,30.63
		c0.53,0.73,1.04,1.47,1.58,2.22c-18.48,11.3-35.65,24.78-55,34.62c-0.05-0.5699-0.13-1.71-0.17-2.28
		c17.74-9.34,33.8199-21.4,50.68-32.18c-9.53-13.2-22.93-24.38-39-28.31c-9.43-2.5-19.74-1.73-28.6,2.36
		c-2.52,2.15-4.05,5.21-6.28,7.65c-16.48,19.82-40.63,34.35-66.76,35.61c-15.41,0.87-31.39-3.76-42.99-14.16
		c-11.6-10-18.16-24.88-19.55-39.97l2.1-0.26c1.06,7.47,2.58,14.98,6.07,21.74c6.81,14.39,20.52,25.16,35.96,28.84
		c4.7599,1.03,9.61,1.66,14.47,2.01C838.34,543.25,843.65,542.38,848.92,541.53z"/>
	<path fill="#180000" stroke="#180000" stroke-width="0.494" d="M1079.42,489.46c1.08,1.36,1.8999,2.92,2.75,4.46l0.5199,0.98
		c-1.1799,3.24-0.48,6.74-0.6299,10.11c-0.17,6.49-0.2301,13.02-1.1801,19.45c-1.61,13.2-4.74,26.29-10.4,38.37
		c-4.5699,9.62-10.27,18.66-16.4399,27.32c-0.3101-0.6801-0.92-2.03-1.23-2.71c5-6.41,9.5199-13.22,13.08-20.53
		c8.98-17.98,12.66-38.08,13.58-58.01C1079.51,502.42,1079.38,495.93,1079.42,489.46z"/>
	<path fill="#780001" stroke="#780001" stroke-width="0.494" d="M1464.61,504.62c1.9-0.72,4.39-2.2,6.17-0.37
		c5.23,4.27,11.4299,7.17,17.9099,8.99c18.78,5.25,38.17,8.12,57.6201,9.25c14.12,2.12,28.48,1.05,42.6299,2.83
		c15.3701,0.09,30.7201,1.03,46.0901,1.06c6.99,0.27,14.02-0.23,20.99,0.68c1.71,0.3,3.76,0.13,5.1,1.51
		c-5.58,1.64-11.4399,1.65-17.14,2.59c-25.29,3.09-50.5699,6.31-75.9299,8.59c-12.04,0.42-23.9801,2.05-36.04,1.97
		c-24.61,1.07-49.28,0.7-73.88-0.27c-5.02-1.01-10.89-2.09-13.78-6.8c-2.2999-3.02-2.77-7.14-1.28-10.61
		C1446.66,514.53,1455.63,508.49,1464.61,504.62z"/>
	<path fill="#780001" stroke="#780001" stroke-width="0.494" d="M1290.97,511c4.55,1.97,8.5701,4.97,13.2101,6.76
		c6.6499,2.6,13.59,4.49,20.6599,5.51c6.42,0.58,13.02,1.96,19.38,0.21c-3.95,6.2-7.61,12.56-11.63,18.71
		c-9.75-3.86-19.7799-7.29-28.5-13.27C1297.47,525.21,1291.28,519.02,1290.97,511z"/>
	<path fill="#780001" stroke="#780001" stroke-width="0.494" d="M933.06,909.11c17.66-10.38,36.2-19.57,55.93-25.28
		c4.03-0.32,7.8,1.76,11.68,2.67c26.03,7.22,52.6401,12.05,79.28,16.35c11.7101,1.87,23.38,4.01,35.15,5.51
		c7.22,1.44,14.66,1.23,21.87,2.82c42.9501,4.96,85.9301,10.02,129.04,13.46c10.26,1.36,20.61,1.7,30.88,2.95
		c13.78,0.29,27.38,2.97,41.17,3.06c8.5699,1.21,17.2599,1.14,25.87,2.15c10.6599,1.25,21.4399,1.15,32.1,2.55
		c11,0.9,22.09,0.6,33.03,2.19c12.34,0.3,24.6,1.93,36.9299,2.48c14.6801,0.88,29.34,2.11,44.05,2.5
		c3.6599,0.17,7.25,0.98,10.9399,1.03c12.03,0.35,23.97,2.07,36.02,2.25c6.71,0.71,13.48,0.57,20.1801,1.5
		c8.2799,0.33,16.5599,0.61,24.83,1.25c13.78,1.46,27.6899,1.15,41.47,2.73c10.47,0.71,20.98,1.06,31.4301,2.14
		c17.34,0.48,34.59,2.29,51.9099,3.09c6.92,1.32,13.9801,0.84,20.9501,1.72c18.38,1.82,36.88,2.44,55.1699,5.21
		c7.66,0.34,15.2101,1.76,22.77,3.03c3.8401,0.91,8.05,1.6,10.9701,4.54c-6.0801,4.1-13.7301,4.47-20.78,5.43
		c-8.26,1.3-16.5601,2.25-24.85,3.26c-10.4,0.38-20.62,2.61-31.02,2.86c-25.29,2.72-50.66,4.39-76.03,6.11
		c-11.9399,1.51-24.03,1.3-35.98,2.72c-33.04,1.45-65.96,4.31-99.03,5.17c-14.63,1.35-29.33,1.75-44,2.02
		c-9.61,1.38-19.35,0.47-28.97,1.52c-7.28,0.41-14.59,0.07-21.86,0.56c-10.01,1.2401-20.13,0.4301-30.17,1.2
		c-9.63,0.78-19.3099,0.51-28.96,0.77c-8.61,1.28-17.3401,0.61-26,0.93c-32.03,0.41-64.05,1.19-96.0901,1.19
		c-3.99-0.05-7.95,0.38-11.9199,0.46c-25-0.34-50.04,0.47-75.02-0.45c-26.6801-0.04-53.35-0.5-80.02-1.24
		c-13.86-0.06-27.6799-1.19-41.54-1.19c-10.47-0.87-21-0.39-31.4299-1.68c-11.7-0.13-23.38-1.01-35.03-2
		c-24.48-1.1-48.85-3.52-73.26-5.52c-7.3199-0.8-14.54-2.22-21.62-4.22c-7.71-1.78-15.2599-5.62-20.35-11.8
		c-4.09-4.22-3.66-10.74-2.79-16.1c2.31-8.27,7.55-15.41,13.58-21.4c5.56-6.9,13.22-11.52,19.76-17.37
		C919.23,916.95,926.12,912.92,933.06,909.11z"/>
	<path fill="#780001" stroke="#780001" stroke-width="0.494" d="M275.94,916.59c13.37-0.02,26.71-1,40.07-1.32l0.47-0.02
		c9.09,10.64,19.14,20.38,28.63,30.65c5.35,5.66,11.39,10.6,16.87,16.12c-5.35-2.31-11.32-1.78-16.99-2.23
		c-7.7-0.09-15.32-1.31-23.01-1.63c-9.04-0.44-17.98-1.94-27.03-2.2599c-19.62-2.23-39.25-4.35-58.88-6.51
		c-16.62-2.82-33.41-4.42-50.04-7.17c-30.24-4.67-60.48-9.49-90.52-15.41c-10.61-2.57-21.52-4.11-31.78-7.97
		c10.68-1.03,21.48-0.02,32.18,0.55c25.03,0.24,50.06,0.41,75.09,0.29c15.36-0.22,30.75,0.18,46.07-1.02
		C236.71,918.33,256.36,918.17,275.94,916.59z"/>
	<path fill="#780001" stroke="#780001" stroke-width="0.494" d="M1414.99,1023.57c11.23-0.09,22.39-1.58,33.64-1.19
		c-0.25,1.4-0.33,2.89-0.99,4.2c-2.9,5.62-6.14,11.0901-10.11,16.03c-20,28.49-45.23,52.8201-71.49,75.47
		c-4.76,5.04-10.6001,8.77-16.1901,12.77c-36.7999,28.62-76.6,53.47-118.85,73.23c-36.73,17.0701-75.49,30.9601-115.9,35.78
		c-10.66,0.97-21.37,2.12-32.0699,1.05c-13.12-0.3-26.24-0.75-39.3401-1.55c-7.5099-1.2999-15.1699-0.79-22.72-1.66
		c-10.64-1.2799-21.29-2.5199-31.95-3.6c-43.26-5.22-86-14.2899-128-25.8099c-37.99-10.51-75.28-23.51-111.63-38.74
		c-36.26-15.4-71.93-32.3-106.24-51.7001c-7.62-4.36-15.56-8.16-22.85-13.0699c-24.24-13.65-47.41-29.1-70.6-44.4401
		c-2.95-2.0599-6.58-3.51-8.44-6.77c7.42,1.8601,13.77,6.42,20.9,9.0701c6.89,2.47,13.14,6.39,20.05,8.8099
		c31.94,13.65,64.17,26.6801,97.02,37.99c6.87,2.75,14.18,4.2301,20.97,7.2301c34.95,11,70.14,21.39,105.99,29.12
		c13.08,3.6,26.51,5.6799,39.78,8.45c22.96,4.1,46.04,7.49,69.2,10.16c9.98,1.47,20.1,1.38,30.08,2.86
		c14.89,0.66,29.79,1.37,44.71,1.37c28.02,0.22,56.14-0.04,83.94-3.8199c23.46-2.16,46.78-6.05,69.77-11.27
		c39-8.79,77.14-21.53,113.38-38.42c7.74-2.98,14.83-7.34,22.3199-10.87c10.3101-5.11,20.1-11.1801,30.1801-16.72
		c14.7999-8.9501,28.95-18.9,43.11-28.8101c13.75-11.11,28.12-21.48,41.1-33.53c-5.34,0.0701-10.6901,0.1901-15.99-0.5299
		C1390.12,1023.5,1402.58,1023.92,1414.99,1023.57z"/>
	<path fill="#FEFBFD" stroke="#FEFBFD" stroke-width="0.494" d="M1646.65,512.48c1.85-2.55,4.4299-4.6,7.2899-5.95
		c2.3301,0.62,4.7201,2.05,4.9601,4.72c-0.12,3.38-3.49,5.24-5.8201,7.14C1649.47,520.77,1644.72,516.26,1646.65,512.48z"/>
	<path fill="#020000" stroke="#020000" stroke-width="0.494" d="M912.34,514.96c0.0699-1.66,1.05-4.45,3.19-3.42
		c10.83,3.77,18.6,13.13,24.25,22.73c1.03,1.92,3.33,4.91,0.3199,6.28c-6.39-2.9-12.68-7.61-20.16-6.77
		c-3.95,0.08-6.86,3.03-8.85,6.14c6.8799,5.27,10.91,13.14,14.31,20.91c0.37-0.19,1.12-0.57,1.5-0.76c0.04,0.57,0.12,1.71,0.17,2.28
		c-9.91,5-20.78,9.07-32.08,7.94c-2.72,5.77-6.73,10.81-11.34,15.19c5.37,1.24,10.91,1.04,16.39,1.17
		c9.2401,0.09,18.4901,0.13,27.73-0.38c13.44-1.1,26.63-4.08,39.77-6.99c0.06,1.3199,0.15,2.66,0.2401,4
		c-13.38,3.42-27.01,6.04-40.79,7.08c-11.3,0.57-22.62,0.51-33.91,0.13c-4.57-0.07-9.09-1.2-13.66-0.9
		c-3.57,2.09-6.68,4.8799-9.78,7.6c18.17,3.85,36.77,5.57,55.34,5.39c10.04-0.24,20.15,0.03,30.08-1.74
		c11.81-1.34,23.65-3.31,34.92-7.21c1.05,0.6,2.13,1.24,3.2,1.86c-5.82,16.99-19.36,30.28-34.76,38.94c-0.5,2.39-0.9,4.82-1.16,7.26
		c14.02-3.73,28.02-7.97,41.07-14.33c6.77-7.51,14.91-13.85,24.38-17.61c5.03-2.42,11.18-2.66,15.29-6.79
		c5.1801-4.92,10.4-9.87,14.8101-15.52c0.3099,0.68,0.9199,2.03,1.23,2.71c-3.03,4.41-6.49,8.53-9.02,13.27
		c2.84,1.32,5.9199,2.18,8.6,3.86c3.3101,2.39,5.37,6.04,7.48,9.46c-0.39,0.61-1.1799,1.84-1.58,2.46
		c-2.66-4.7-5.66-9.62-10.51-12.32c-3.65-1.66-7.67,0.03-11.33,0.78c-13.0601,3.04-25.9601,8.85-35.09,18.94
		c-10.36,11.4301-15.8,26.21-20.01,40.8c27.49,21.84,49.2,50.11,66.85,80.2599c1.61,2.21-0.92,5.88-2.9,2.9901
		c-19.0701-32.04-42.16-62.58-72.69-84.52c-7.07-4.66-14.9-8.18-22.94-10.76c-4.56,8.44-11.15,16.05-19.95,20.2
		c3.94,6.35,9.19,11.78,13.72,17.71c24.32,29.15,49.87,57.4,77.94,83c9.08,8.05,18.38,15.92,28.5601,22.56
		c7.35,4.52,15.37,9.75,24.3999,8.86c0.01,0.53,0.02,1.6,0.03,2.13c2.24-0.51,4.54-0.83,6.86-0.54c-7.14,4.09-15.59,1.65-22.76-1.02
		c-15.59-6.53-28.8199-17.42-41.4299-28.45c-14.07-12.24-26.91-25.78-39.45-39.56c-12.54-13.85-24.69-28.07-36.34-42.68
		c-5.25-5.82-9.42-12.55-14.87-18.19c-3.24,0.85-6.17,2.78-9.59,2.92c-10.95,1.07-21.37-4.08-29.84-10.57
		c-13.35-9.78-23.17-23.58-30.82-38.09c-12.39-0.46-24.79-1.87-36.87-4.73c-4.61-1.34-9.06,1.13-13.54,1.91
		c-20.66,4.58-43.41,5.82-62.9-3.75c-13.12-6.29-22.84-17.83-29.54-30.49c-2.4-0.56-4.77-1.14-7.13-1.81
		c2.89-1.08,5.78,0.24,8.61,0.86c0.82-0.65,1.66-1.28,2.5-1.91c3.48,6.52,7.49,12.82,12.4,18.37c9.48,11.05,24.13,16.28,38.25,17.82
		c7.16,0.98,14.43,0.9,21.6-0.04c15.49-1.53,30.44-6.84,44.28-13.83c25.6-13.25,48.04-33.22,62.79-58.11
		C905.61,544.82,910.38,530.07,912.34,514.96 M961.9,602.21c-0.1,9.2599-0.98,18.52-2.79,27.6c12.36-8.08,22.89-19.37,28.56-33.13
		C979.25,599.27,970.56,600.76,961.9,602.21 M855.8,607.89c1.36,15.43,7.69,30.15,16.7,42.65c7.35,9.95,16.68,18.92,28.2,23.8
		c10.54,4.56,23.18,3.28,32.9-2.7c8.51-5.22,14.26-13.9,17.98-22.98c5.94-14.61,7.53-30.49,8.33-46.1
		c-2.83,0.19-5.64,0.52-8.45,0.87c-3.08,0.15-6.16,0.29-9.22,0.61c-4.81,0.48-9.63,0.59-14.45,0.57
		c-0.45,9.6-0.5099,19.43-3.59,28.64c-1.54,4.35-4.42,9-9.25,10.03c-9.03,1.41-17.57-3.44-23.88-9.46
		c-10.25-9.81-17.55-22.12-26-33.41C862.01,602.94,858.93,605.45,855.8,607.89 M958.85,646.84c-0.96,2.0699-1.85,4.17-2.69,6.29
		c8.8701,2.51,16.16,8.88,24.95,11.49c1.91-10.05,6.68-19.18,10.83-28.41C981.29,640.78,970.23,644.6,958.85,646.84z"/>
	<path fill="#FABBDF" stroke="#FABBDF" stroke-width="0.494" d="M703.21,518.11c1.25,6.87,1.18,14,0,20.88
		C702.42,532.08,702.42,525.01,703.21,518.11z"/>
	<path fill="#F438C2" stroke="#F438C2" stroke-width="0.494" d="M881.62,554.51c7.36-7.81,13.72-16.48,20.49-24.77
		c-7.31,26.94-23.13,51.91-45.64,68.67c-12.95,9.69-27.89,16.54-43.41,20.95c-20.05,5.28-41.96,4.74-61.28-3.07
		c-9.44-4.04-18.47-10.07-24.15-18.79c-0.22-1.4-0.38-2.77-0.54-4.15c2.96,1.31,6.1,2.1801,9.3199,2.61
		c3.51,0.77,6.79,2.33,10.23,3.36c21.07,7.06,44.28,8.3,65.7,2.01C839.72,593.56,862.75,575.28,881.62,554.51z"/>
	<path fill="#F438C2" stroke="#F438C2" stroke-width="0.494" d="M942.24,604.04c3.06-0.32,6.14-0.46,9.22-0.61
		c3.74,17.75,1.45,37.59-9.7,52.36c-6.02,8.33-15.31,14.97-25.91,15.01c9.42-8.4,18.4301-17.87,23-29.86
		C943.84,629.33,944,616.36,942.24,604.04z"/>
	<path fill="#FEFEFD" stroke="#FEFEFD" stroke-width="0.494" d="M745.18,538.14c4.46-0.87,10.1,2.89,9.01,7.86
		c-1.31,7.34-13.82,7.37-15.26,0.12C737.9,542.08,741.49,538.77,745.18,538.14z"/>
	<path fill="#E443B1" stroke="#E443B1" stroke-width="0.494" d="M723.48,589.8c4.26,2.15,8.8,3.75,12.93,6.16
		c-3.22-0.43-6.36-1.3-9.3199-2.61c0.16,1.38,0.3199,2.75,0.54,4.15C725.9,595.13,724.34,592.62,723.48,589.8z"/>
	<path fill="#FD99CB" stroke="#FD99CB" stroke-width="0.494" d="M961.9,602.21c8.66-1.45,17.35-2.94,25.77-5.53
		c-5.67,13.76-16.2,25.05-28.56,33.13C960.92,620.73,961.8,611.47,961.9,602.21z"/>
	<path fill="#FFFFFE" stroke="#FFFFFE" stroke-width="0.494" d="M603.2,599.32c1.46-0.74,3.11-0.97,4.74-0.93
		c30.41,0.68,60.82,3.64,90.6,9.9c5.41,1.04,9.02,7.63,6.42,12.63c-1.66,4.21-6.63,6.44-10.94,5.26
		c-28.89-6.05-58.39-8.76-87.86-9.53C597.31,616.27,595.03,602.63,603.2,599.32z"/>
	<path fill="#FFFEFE" stroke="#FFFEFE" stroke-width="0.494" d="M416.22,628.28c4.89-2.5,11.53,0.36,12.94,5.6899
		c1.47,4.67-1.37,10.04-6.08,11.41c-46.76,16.53-91.5,40.74-127.54,75.18c-2.78,3.19-7.38,5.31-11.49,3.36
		c-5.87-2.17-7.66-10.62-3.07-14.93C319.01,672.01,366.47,645.91,416.22,628.28z"/>
	<path fill="#FCB2E0" stroke="#FCB2E0" stroke-width="0.494" d="M769.14,629.92c2.22-0.72,4.52-1.16,6.87-0.96
		c4.91,0.34,9.93-0.52,14.73,0.92C783.57,630.82,776.3,630.9,769.14,629.92z"/>
	<path fill="#FEFDFA" stroke="#FEFDFA" stroke-width="0.494" d="M1311.15,635.21c2.3099-0.6,5.2-1.58,7.16,0.44
		c2.4399,2.0699,1.59,6.56-1.4801,7.53c-3.26,1.1-8.0399,2.8-10.1499-1.05C1304.91,638.91,1307.83,635.41,1311.15,635.21z"/>
	<path fill="#AC0001" stroke="#AC0001" stroke-width="0.494" d="M958.85,646.84c11.38-2.2401,22.44-6.06,33.09-10.63
		c-4.15,9.23-8.92,18.36-10.83,28.41c-8.79-2.61-16.08-8.98-24.95-11.49C957,651.01,957.89,648.91,958.85,646.84z"/>
	<path fill="#770E10" stroke="#770E10" stroke-width="0.494" d="M1090.16,711.63c1.5,3.25,2.6,6.71,2.25,10.35
		c-0.49,8.41,2.0699,16.6,1.97,24.99c-0.02,11.67,0.17,23.34-0.0699,35c-1.01,6.39-2.2201,12.78-3.8,19.0601
		c-0.25,1.68-1.6,2.75-2.78,3.8c0.4401-3.12,1.99-5.92,2.75-8.95c1.87-6.49,1.86-13.29,2.74-19.93
		c1.24-16.67-0.59-33.31-1.7899-49.91C1090.5,721.29,1090.14,716.45,1090.16,711.63z"/>
	<path fill="#C24924" stroke="#C24924" stroke-width="0.494" d="M1084.2,726.17c1.5601,0.84,0.87,3.83,0.37,5.36
		C1083.29,730.48,1083.33,727.62,1084.2,726.17z"/>
	<path fill="#901819" stroke="#901819" stroke-width="0.494" d="M1182.29,829.29c2.09-1.06,4.36-1.81,6.75-1.64
		c9.6599,0.05,19.3199-0.01,28.99,0.08c2.62-0.07,5.1699,0.69,7.63,1.58C1211.21,829.37,1196.74,829.41,1182.29,829.29z"/>
	<path fill="#67A5F0" stroke="#67A5F0" stroke-width="0.494" d="M437.57,948.59c1.32-1.47,3.09-0.55,4.27,0.56
		c29.62,23.44,59.49,46.56,89.05,70.0699c0.32,5.0601-2.47,9.54-5.14,13.6c-2.95,3.92-6.33,7.9701-11.06,9.7301
		c-2.68,0.9099-5.5,0.11-7.71-1.5c-28.44-17.6801-57.2-35.8301-80.31-60.3801c-0.38-3.53-0.9-7.24,0.39-10.65
		c0.93-2.51,1.75-5.1,1.54-7.81C430.46,957.17,433.27,952,437.57,948.59z"/>
	<path fill="#73A0D5" stroke="#73A0D5" stroke-width="0.494" d="M428.6,962.21c0.21,2.71-0.61,5.3-1.54,7.81
		c-1.29,3.41-0.77,7.12-0.39,10.65c-1.18-1.31-2.22-2.85-1.96-4.69C424.88,971.17,426.36,966.45,428.6,962.21z"/>
	<path fill="#7D1418" stroke="#7D1418" stroke-width="0.494" d="M974.52,1020.3c3.13-0.95,6.33,0.14,9.52,0.2
		c3.64,0.05,7.29,0.29,10.91,0.84c4.45,0.6299,9.03-0.11,13.43,1C997.09,1022.57,985.54,1023.15,974.52,1020.3z"/>
	<path fill="#910F12" stroke="#910F12" stroke-width="0.494" d="M1459.65,1021.71c7.99-0.04,16.0699,0.19,23.98-1.23
		c0.16,1.69-0.24,3.31-1.52,4.5c-1.0499-1.26-2.2999-2.41-4.04-2.24c-6.1599-0.43-12.35,0.47-18.5-0.29L1459.65,1021.71z"/>
	<path fill="#8D1112" stroke="#8D1112" stroke-width="0.494" d="M1167.72,1027.51c25.0701-0.98,50.1901-0.33,75.28-0.51
		c7.09,0.24,14.2-0.03,21.28,0.51c-6.01,1.27-12.2001,0.4-18.28,0.8c-24.35,0.08-48.6899,0.12-73.03-0.0901
		C1171.1801,1028.21,1169.4399,1027.9,1167.72,1027.51z"/>
	<path fill="#61060D" stroke="#61060D" stroke-width="0.494" d="M1003.48,1257.75c6.72-0.1,13.44,0.47,20.02,1.91
		c-1.49,0.5299-2.99,0.6699-4.51,0.4299C1013.81,1259.26,1008.47,1259.52,1003.48,1257.75z"/>
</g>
</svg>
