<?xml version="1.0" encoding="UTF-8" standalone="no"?>
<!-- Created with Inkscape (http://www.inkscape.org/) -->

<svg
   xmlns:dc="http://purl.org/dc/elements/1.1/"
   xmlns:cc="http://creativecommons.org/ns#"
   xmlns:rdf="http://www.w3.org/1999/02/22-rdf-syntax-ns#"
   xmlns:svg="http://www.w3.org/2000/svg"
   xmlns="http://www.w3.org/2000/svg"
   xmlns:xlink="http://www.w3.org/1999/xlink"
   xmlns:sodipodi="http://sodipodi.sourceforge.net/DTD/sodipodi-0.dtd"
   xmlns:inkscape="http://www.inkscape.org/namespaces/inkscape"
   width="498.31223"
   height="735.37555"
   id="svg4852"
   version="1.1"
   inkscape:version="0.48.4 r9939"
   sodipodi:docname="CipyFou.svg">
  <defs
     id="defs4854">
    <linearGradient
       inkscape:collect="always"
       xlink:href="#linearGradient3857"
       id="linearGradient4639"
       gradientUnits="userSpaceOnUse"
       x1="289.55499"
       y1="526.77795"
       x2="287.06577"
       y2="466.30676" />
    <linearGradient
       id="linearGradient3857">
      <stop
         style="stop-color:#0000ff;stop-opacity:1;"
         offset="0"
         id="stop3859" />
      <stop
         style="stop-color:#000000;stop-opacity:0;"
         offset="1"
         id="stop3861" />
    </linearGradient>
    <linearGradient
       inkscape:collect="always"
       xlink:href="#linearGradient3785"
       id="linearGradient4614"
       gradientUnits="userSpaceOnUse"
       x1="365.11295"
       y1="127.82292"
       x2="313.37445"
       y2="126.4492" />
    <linearGradient
       id="linearGradient3785">
      <stop
         style="stop-color:#ff9900;stop-opacity:1;"
         offset="0"
         id="stop3787" />
      <stop
         style="stop-color:#ffffff;stop-opacity:1;"
         offset="1"
         id="stop3789" />
    </linearGradient>
    <linearGradient
       id="linearGradient4674">
      <stop
         style="stop-color:#ff9900;stop-opacity:1;"
         offset="0"
         id="stop4676" />
      <stop
         style="stop-color:#ffffff;stop-opacity:1;"
         offset="1"
         id="stop4678" />
    </linearGradient>
    <linearGradient
       id="linearGradient3946">
      <stop
         style="stop-color:#9cdafb;stop-opacity:1;"
         offset="0"
         id="stop3948" />
      <stop
         style="stop-color:#1aa9f6;stop-opacity:1;"
         offset="1"
         id="stop3950" />
    </linearGradient>
    <linearGradient
       id="linearGradient3966">
      <stop
         style="stop-color:#9cdafb;stop-opacity:1;"
         offset="0"
         id="stop3968" />
      <stop
         style="stop-color:#ffffff;stop-opacity:1;"
         offset="1"
         id="stop3970" />
    </linearGradient>
    <linearGradient
       gradientTransform="translate(-18.927913,-77.854257)"
       inkscape:collect="always"
       xlink:href="#linearGradient4268"
       id="linearGradient4253"
       x1="472.21213"
       y1="630.61224"
       x2="495.25974"
       y2="679.35211"
       gradientUnits="userSpaceOnUse" />
    <linearGradient
       id="linearGradient4268">
      <stop
         style="stop-color:#ffffff;stop-opacity:1;"
         offset="0"
         id="stop4270" />
      <stop
         style="stop-color:#cecece;stop-opacity:1;"
         offset="1"
         id="stop4272" />
    </linearGradient>
    <linearGradient
       gradientTransform="translate(-18.927913,-77.854257)"
       inkscape:collect="always"
       xlink:href="#linearGradient4268"
       id="linearGradient4237"
       x1="325.8768"
       y1="662.81805"
       x2="313.24289"
       y2="698.4259"
       gradientUnits="userSpaceOnUse" />
    <linearGradient
       id="linearGradient4693">
      <stop
         style="stop-color:#ffffff;stop-opacity:1;"
         offset="0"
         id="stop4695" />
      <stop
         style="stop-color:#cecece;stop-opacity:1;"
         offset="1"
         id="stop4697" />
    </linearGradient>
    <linearGradient
       gradientTransform="translate(-18.927913,-77.854257)"
       inkscape:collect="always"
       xlink:href="#linearGradient4268"
       id="linearGradient4266"
       x1="438.09808"
       y1="546.71747"
       x2="468.85788"
       y2="554.04108"
       gradientUnits="userSpaceOnUse" />
    <linearGradient
       id="linearGradient4700">
      <stop
         style="stop-color:#ffffff;stop-opacity:1;"
         offset="0"
         id="stop4702" />
      <stop
         style="stop-color:#cecece;stop-opacity:1;"
         offset="1"
         id="stop4704" />
    </linearGradient>
    <linearGradient
       inkscape:collect="always"
       xlink:href="#linearGradient4268"
       id="linearGradient4245"
       x1="346.3103"
       y1="563.36682"
       x2="342.62241"
       y2="576.75128"
       gradientUnits="userSpaceOnUse"
       gradientTransform="translate(-18.927913,-78.106797)" />
    <linearGradient
       id="linearGradient4707">
      <stop
         style="stop-color:#ffffff;stop-opacity:1;"
         offset="0"
         id="stop4709" />
      <stop
         style="stop-color:#cecece;stop-opacity:1;"
         offset="1"
         id="stop4711" />
    </linearGradient>
    <linearGradient
       inkscape:collect="always"
       id="linearGradient4159">
      <stop
         style="stop-color:#ff0000;stop-opacity:1;"
         offset="0"
         id="stop4161" />
      <stop
         style="stop-color:#ff0000;stop-opacity:0;"
         offset="1"
         id="stop4163" />
    </linearGradient>
    <linearGradient
       inkscape:collect="always"
       id="linearGradient4183">
      <stop
         style="stop-color:#000000;stop-opacity:1;"
         offset="0"
         id="stop4185" />
      <stop
         style="stop-color:#000000;stop-opacity:0;"
         offset="1"
         id="stop4187" />
    </linearGradient>
    <linearGradient
       inkscape:collect="always"
       id="linearGradient4167">
      <stop
         style="stop-color:#ffff00;stop-opacity:1;"
         offset="0"
         id="stop4169" />
      <stop
         style="stop-color:#ffff00;stop-opacity:0;"
         offset="1"
         id="stop4171" />
    </linearGradient>
    <linearGradient
       id="linearGradient4726">
      <stop
         style="stop-color:#ff9900;stop-opacity:1;"
         offset="0"
         id="stop4728" />
      <stop
         style="stop-color:#ffffff;stop-opacity:1;"
         offset="1"
         id="stop4730" />
    </linearGradient>
    <linearGradient
       id="linearGradient4733">
      <stop
         style="stop-color:#ff9900;stop-opacity:1;"
         offset="0"
         id="stop4735" />
      <stop
         style="stop-color:#ffffff;stop-opacity:1;"
         offset="1"
         id="stop4737" />
    </linearGradient>
    <linearGradient
       inkscape:collect="always"
       xlink:href="#linearGradient3785"
       id="linearGradient4424"
       gradientUnits="userSpaceOnUse"
       x1="475.32288"
       y1="482.37473"
       x2="457.71649"
       y2="436.65485" />
    <linearGradient
       id="linearGradient4740">
      <stop
         style="stop-color:#ff9900;stop-opacity:1;"
         offset="0"
         id="stop4742" />
      <stop
         style="stop-color:#ffffff;stop-opacity:1;"
         offset="1"
         id="stop4744" />
    </linearGradient>
    <linearGradient
       inkscape:collect="always"
       xlink:href="#linearGradient3785"
       id="linearGradient4434"
       gradientUnits="userSpaceOnUse"
       x1="475.32288"
       y1="482.37473"
       x2="457.71649"
       y2="436.65485" />
    <linearGradient
       id="linearGradient4747">
      <stop
         style="stop-color:#ff9900;stop-opacity:1;"
         offset="0"
         id="stop4749" />
      <stop
         style="stop-color:#ffffff;stop-opacity:1;"
         offset="1"
         id="stop4751" />
    </linearGradient>
    <linearGradient
       id="linearGradient4754">
      <stop
         style="stop-color:#ff9900;stop-opacity:1;"
         offset="0"
         id="stop4756" />
      <stop
         style="stop-color:#ffffff;stop-opacity:1;"
         offset="1"
         id="stop4758" />
    </linearGradient>
    <linearGradient
       id="linearGradient4761">
      <stop
         style="stop-color:#ff9900;stop-opacity:1;"
         offset="0"
         id="stop4763" />
      <stop
         style="stop-color:#ffffff;stop-opacity:1;"
         offset="1"
         id="stop4765" />
    </linearGradient>
    <linearGradient
       id="linearGradient3933">
      <stop
         style="stop-color:#ff9900;stop-opacity:1;"
         offset="0"
         id="stop3935" />
      <stop
         style="stop-color:#8d5500;stop-opacity:1;"
         offset="1"
         id="stop3937" />
    </linearGradient>
    <linearGradient
       id="linearGradient3914">
      <stop
         style="stop-color:#3366ff;stop-opacity:1;"
         offset="0"
         id="stop3916" />
      <stop
         style="stop-color:#00279c;stop-opacity:1;"
         offset="1"
         id="stop3918" />
    </linearGradient>
    <linearGradient
       id="linearGradient3991">
      <stop
         style="stop-color:#3366ff;stop-opacity:1;"
         offset="0"
         id="stop3993" />
      <stop
         style="stop-color:#ffffff;stop-opacity:1;"
         offset="1"
         id="stop3995" />
    </linearGradient>
    <linearGradient
       inkscape:collect="always"
       xlink:href="#linearGradient4011"
       id="linearGradient4629"
       gradientUnits="userSpaceOnUse"
       gradientTransform="matrix(0.98902497,0.14774847,-0.14774847,0.98902497,-927.32336,-384.85845)"
       x1="343.07144"
       y1="796.06476"
       x2="419.02679"
       y2="771.06476" />
    <linearGradient
       id="linearGradient4011">
      <stop
         style="stop-color:#969696;stop-opacity:1;"
         offset="0"
         id="stop4013" />
      <stop
         style="stop-color:#5a5a5a;stop-opacity:1;"
         offset="1"
         id="stop4015" />
    </linearGradient>
    <linearGradient
       inkscape:collect="always"
       xlink:href="#linearGradient4011"
       id="linearGradient5178"
       gradientUnits="userSpaceOnUse"
       gradientTransform="matrix(0.95832109,0.09145387,-0.13430638,1.1515359,146.95775,-207.34262)"
       x1="343.07144"
       y1="796.06476"
       x2="419.02679"
       y2="771.06476" />
    <linearGradient
       inkscape:collect="always"
       xlink:href="#linearGradient3991"
       id="linearGradient5183"
       gradientUnits="userSpaceOnUse"
       gradientTransform="matrix(1.1076026,0.09948573,-0.14946204,1.2688538,97.522239,-300.87936)"
       x1="299.75"
       y1="756.40955"
       x2="273.39731"
       y2="644.98102" />
    <linearGradient
       inkscape:collect="always"
       xlink:href="#linearGradient3914"
       id="linearGradient5186"
       gradientUnits="userSpaceOnUse"
       gradientTransform="matrix(1.1076026,0.09948573,-0.14946204,1.2688538,97.522239,-300.87936)"
       x1="344.63815"
       y1="711.53577"
       x2="399.51013"
       y2="620.92725" />
    <linearGradient
       inkscape:collect="always"
       xlink:href="#linearGradient3933"
       id="linearGradient5191"
       gradientUnits="userSpaceOnUse"
       gradientTransform="matrix(1.0967548,0.0521609,-0.22189316,1.2507771,146.42659,-266.91919)"
       x1="375.05139"
       y1="587.9411"
       x2="385.1897"
       y2="521.77252" />
    <linearGradient
       inkscape:collect="always"
       xlink:href="#linearGradient3785"
       id="linearGradient5196"
       gradientUnits="userSpaceOnUse"
       x1="532.61163"
       y1="515.01868"
       x2="462.27725"
       y2="446.07578"
       gradientTransform="matrix(-0.87534182,0.72095192,0.76223833,0.78972122,257.67022,-250.10467)" />
    <linearGradient
       inkscape:collect="always"
       xlink:href="#linearGradient3785"
       id="linearGradient5201"
       gradientUnits="userSpaceOnUse"
       x1="532.61163"
       y1="515.01868"
       x2="462.27725"
       y2="446.07578"
       gradientTransform="matrix(1.0219731,0.66015922,-0.74473969,0.90590705,425.53122,-324.71711)" />
    <linearGradient
       inkscape:collect="always"
       xlink:href="#linearGradient3785"
       id="linearGradient5212"
       gradientUnits="userSpaceOnUse"
       x1="215.18896"
       y1="649.58069"
       x2="283.8331"
       y2="649.58069"
       gradientTransform="translate(-19.642203,-76.425687)" />
    <linearGradient
       inkscape:collect="always"
       xlink:href="#linearGradient3785"
       id="linearGradient5217"
       gradientUnits="userSpaceOnUse"
       x1="215.18896"
       y1="649.58069"
       x2="283.8331"
       y2="649.58069"
       gradientTransform="matrix(-0.96276164,0.02415009,0,1,792.27847,-112.25514)" />
    <linearGradient
       inkscape:collect="always"
       xlink:href="#linearGradient4167"
       id="linearGradient5222"
       gradientUnits="userSpaceOnUse"
       gradientTransform="matrix(1.1777817,0.26990886,-0.29198575,1.0887302,200.21998,-227.21205)"
       x1="402.37152"
       y1="915.92322"
       x2="384.4075"
       y2="806.28033" />
    <linearGradient
       inkscape:collect="always"
       xlink:href="#linearGradient4183"
       id="linearGradient5225"
       gradientUnits="userSpaceOnUse"
       x1="397.6665"
       y1="972.90173"
       x2="366.4501"
       y2="816.83032"
       gradientTransform="matrix(1.0848025,0.24860109,-0.26893513,1.0027811,218.72115,-148.0566)" />
    <linearGradient
       inkscape:collect="always"
       xlink:href="#linearGradient4159"
       id="linearGradient5228"
       gradientUnits="userSpaceOnUse"
       x1="377.17279"
       y1="987.5235"
       x2="372.08328"
       y2="827.16638"
       gradientTransform="matrix(1.0848025,0.24860109,-0.26893513,1.0027811,218.72115,-148.0566)" />
    <linearGradient
       inkscape:collect="always"
       xlink:href="#linearGradient3966"
       id="linearGradient5231"
       gradientUnits="userSpaceOnUse"
       gradientTransform="matrix(1.1107988,0.11504506,-0.12348498,1.2930002,72.871773,-305.22939)"
       x1="181.86549"
       y1="532.22729"
       x2="240.01822"
       y2="436.26279" />
    <linearGradient
       inkscape:collect="always"
       xlink:href="#linearGradient3946"
       id="linearGradient5234"
       gradientUnits="userSpaceOnUse"
       gradientTransform="matrix(1.1107988,0.11504506,-0.12348498,1.2930002,72.871773,-305.22939)"
       x1="363.65851"
       y1="474.67557"
       x2="475.70157"
       y2="435.2796" />
    <linearGradient
       inkscape:collect="always"
       xlink:href="#linearGradient3785"
       id="linearGradient5239"
       gradientUnits="userSpaceOnUse"
       x1="356.40964"
       y1="104.41735"
       x2="288.22116"
       y2="102.45306"
       gradientTransform="matrix(1.2313226,0.17737036,-0.17218821,1.2072676,-26.018913,67.827797)" />
  </defs>
  <sodipodi:namedview
     id="base"
     pagecolor="#ffffff"
     bordercolor="#666666"
     borderopacity="1.0"
     inkscape:pageopacity="0.0"
     inkscape:pageshadow="2"
     inkscape:zoom="0.98994949"
     inkscape:cx="237.91694"
     inkscape:cy="307.81771"
     inkscape:document-units="px"
     inkscape:current-layer="layer1"
     showgrid="false"
     inkscape:window-width="1871"
     inkscape:window-height="1056"
     inkscape:window-x="49"
     inkscape:window-y="24"
     inkscape:window-maximized="1"
     fit-margin-top="0"
     fit-margin-left="0"
     fit-margin-right="0"
     fit-margin-bottom="0" />
  <metadata
     id="metadata4857">
    <rdf:RDF>
      <cc:Work
         rdf:about="">
        <dc:format>image/svg+xml</dc:format>
        <dc:type
           rdf:resource="http://purl.org/dc/dcmitype/StillImage" />
        <dc:title></dc:title>
      </cc:Work>
    </rdf:RDF>
  </metadata>
  <g
     inkscape:label="Calque 1"
     inkscape:groupmode="layer"
     id="layer1"
     transform="translate(-141.25,-203.37257)">
    <path
       style="fill:#000000;fill-opacity:1;stroke:none"
       d="m 366.875,203.375 c -11.98692,0.12122 -23.48489,4.09713 -34.53125,8.28125 -15.10788,3.94118 -32.25098,11.83069 -37.59375,27.5625 -28.58327,12.19195 -54.49905,30.75516 -75.3125,53.84375 -35.8193,37.61162 -61.29356,84.10841 -78.1875,133.0625 8.37971,10.04254 19.22102,16.6082 31.0625,21.28125 -0.81627,2.64607 -1.36267,5.34031 -1.65625,7.90625 -5.51831,24.04107 -8.94382,48.68192 -13.65625,72.90625 -6.55348,10.00252 -9.15794,22.57568 -5.28125,34.25 6.19036,23.45665 35.38487,37.14828 57.34375,26.375 0.8079,0.53302 1.60939,1.07072 2.375,1.625 11.87256,6.86952 25.30631,11.96896 39.09375,13.84375 0.49887,0.98561 1.03789,1.96121 1.625,2.90625 5.73217,7.47816 15.53221,11.92203 25,10.71875 0.0591,0.0861 0.12801,0.16434 0.1875,0.25 7.86054,29.78212 15.62693,59.5939 22.21875,89.6875 8.85927,3.24534 17.9457,5.85797 27.1875,7.84375 2.64225,15.82418 4.94898,31.81246 7.5,47.6875 33.01388,14.42331 73.78551,15.79841 104.8125,-4.1875 7.70423,-4.57579 16.66703,-8.66203 21.9375,-15.9375 1.5669,-15.51453 3.19726,-31.02171 4.8125,-46.53125 0.45953,-0.25095 0.91753,-0.49502 1.375,-0.75 5.08917,-2.12304 9.78237,-5.97852 9.21875,-12.15625 5.7067,-29.6689 11.80812,-59.24492 17.875,-88.84375 1.32337,0.0114 2.95322,0.41397 3.96875,-0.53125 10.4484,-2.95619 19.88727,-9.61724 26.125,-18.4375 8.72124,-0.73885 17.42791,-3.29654 25.625,-5.75 4.17356,-1.61275 8.23879,-3.49 12.1875,-5.59375 12.70632,9.08892 29.56343,12.57152 44.46875,6.90625 26.75765,-8.38188 41.37084,-42.90881 27.6875,-67.75 -4.13953,-8.24099 -10.75054,-15.14476 -18.65625,-19.875 -9.98742,-31.68698 -16.55409,-64.59191 -29.78125,-95.125 -0.69618,-1.03416 -1.4869,-2.05158 -2.34375,-3 2.35284,-1.60087 15.44607,-9.15323 17.76412,-10.80965 C 557.67411,294.16603 518.21189,264.99211 468.78125,242.75 c -8.51415,-3.75184 -17.24758,-6.94914 -26.125,-9.625 -0.36184,-1.20097 -0.85778,-2.39709 -1.5,-3.5625 -8.16215,-15.24355 -26.61293,-19.34212 -42.25,-22.3125 -9.3256,-3.68645 -19.66033,-3.97444 -29.625,-3.84375 -0.80346,-0.0272 -1.60712,-0.0393 -2.40625,-0.0312 z m 180.5,210.59375 c 0.0806,0.34297 0.15657,0.69292 0.25,1.03125 3.7895,25.23383 6.07832,50.61311 9.3125,75.9375 -8.12244,8.04726 -13.63926,18.81875 -14.84375,30.125 -4.33372,0.24379 -8.68281,0.19202 -13.03125,0.125 -1.70433,-4.84375 -4.28556,-9.32262 -8.1875,-13.125 -2.21464,-2.54174 -5.22492,-4.03903 -8.28125,-5.21875 0.55766,-2.98941 1.0774,-5.97739 1.625,-8.96875 3.59083,-1.99231 7.1541,-3.99882 10.6875,-6.09375 7.45722,-24.61456 14.94989,-49.21659 22.46875,-73.8125 z M 212.90625,459.0625 c 6.01514,22.08859 11.98978,44.18577 18.09375,66.25 6.52795,3.76385 13.26599,7.02541 20.15625,9.875 -2.99395,4.65181 -4.66108,9.99675 -5.625,15.5625 -4.0704,0.0789 -8.10432,-0.0164 -12.0625,-0.53125 0.0542,-7.57203 -1.95131,-15.10859 -6.375,-21.5625 -3.86514,-6.1252 -9.38504,-11.16317 -15.75,-14.59375 0.30922,-18.35801 0.55796,-36.71345 1.5625,-55 z"
       id="path5250"
       inkscape:connector-curvature="0"
       sodipodi:nodetypes="cccccccccccccccccccccccccccccccccccccccsccccccccccccccccccc" />
    <path
       inkscape:connector-curvature="0"
       id="path4602"
       d="m 459.66145,689.53564 c -41.11948,23.57416 -88.13527,26.88975 -130.62947,15.11785 2.94822,18.6271 5.91192,37.24987 8.8364,55.88384 30.26308,12.18897 65.56456,14.90309 96.16663,-3.05473 8.00839,-4.19911 15.60154,-8.98372 22.97545,-14.64858 1.87007,-18.30849 3.74415,-36.61609 5.69473,-54.91838 -1.01458,0.53999 -2.02916,1.08 -3.04374,1.62 z"
       style="fill:#000000;fill-opacity:1;stroke:none" />
    <path
       style="fill:#969696;fill-opacity:1;stroke:none"
       d="m 458.03591,695.35398 c -39.08268,21.49899 -83.36911,25.26078 -124.05917,15.30484 l 7.31528,46.24822 c 0,0 29.51097,12.3029 58.72803,7.9332 26.86403,-4.0178 53.38525,-24.59118 53.38525,-24.59118 z"
       id="path4604"
       inkscape:connector-curvature="0"
       sodipodi:nodetypes="cccscc" />
    <path
       style="fill:url(#linearGradient5178);fill-opacity:1;stroke:none"
       d="m 458.03591,695.35398 c -26.66235,14.66669 -55.74053,21.07058 -84.45253,20.50361 1.89899,1.58104 3.49235,3.18338 4.61739,4.80696 7.40523,10.68686 7.9625,29.8687 7.9625,29.8687 0,0 3.18734,-33.37369 15.90533,-29.66496 12.71799,3.70874 14.79055,30.5203 14.79055,30.5203 0,0 3.24181,-30.87346 11.11372,-30.12222 7.87193,0.75123 13.15647,26.6166 13.15647,26.6166 l 0.83853,0.08 c 7.00997,-4.30697 11.43743,-7.71393 11.43743,-7.71393 l 4.63061,-44.89508 z"
       id="path4606"
       inkscape:connector-curvature="0" />
    <path
       inkscape:connector-curvature="0"
       id="path4592"
       d="m 508.42203,484.11698 c -47.51124,24.8735 -98.25115,41.77948 -149.61127,47.5556 -35.32167,2.98128 -70.65693,-1.93909 -103.04728,-15.78288 13.91521,62.80978 33.39202,126.12346 47.2418,188.95545 55.17009,18.76244 114.7185,15.68513 168.33436,-15.8579 8.54719,-46.4072 30.88498,-149.17704 40.93714,-206.88646 -1.28492,0.67207 -2.56983,1.34412 -3.85475,2.01619 z"
       style="fill:#000000;fill-opacity:1;stroke:none"
       sodipodi:nodetypes="ccccccc" />
    <path
       sodipodi:nodetypes="ccccscc"
       style="fill:#3366ff;fill-opacity:1;stroke:none"
       d="m 506.25162,490.77453 c -31.49761,16.53781 -64.5765,28.49093 -98.13026,36.94718 -48.3606,13.66924 -100.01482,13.8124 -145.93259,-3.85134 l 45.13953,177.84496 c 0,0 36.70207,14.71869 89.04396,7.11476 52.34187,-7.60394 70.80184,-23.36135 70.80184,-23.36135 z"
       id="path4594"
       inkscape:connector-curvature="0" />
    <path
       sodipodi:nodetypes="cccccc"
       style="fill:url(#linearGradient5186);fill-opacity:1;stroke:none"
       d="m 506.25162,490.77453 c -31.49761,16.53781 -64.5765,28.49093 -98.13026,36.94718 -17.36758,4.90898 -118.73774,10.90293 -136.53664,12.12468 102.93241,61.88594 180.63997,83.87232 193.60154,146.96881 0.66618,-0.53069 1.80895,-1.40031 1.80895,-1.40031 z"
       id="path4596"
       inkscape:connector-curvature="0" />
    <path
       style="fill:url(#linearGradient5183);fill-opacity:1;stroke:none"
       d="M 285.79194,571.11401 310.54465,697.755 c 14.81167,4.16011 30.13671,6.76514 45.61904,7.66388 l -8.7988,-129.53354 c -23.33594,0.86982 -39.20857,1.44632 -61.57295,-4.77133 z"
       id="path4598"
       inkscape:connector-curvature="0"
       sodipodi:nodetypes="ccccc" />
    <path
       inkscape:connector-curvature="0"
       id="path4584"
       d="m 545.57569,394.52362 c -98.19255,47.95886 -202.54315,62.04222 -302.05568,58.32008 -9.77732,-0.58874 -19.40708,-1.88625 -29.00534,-3.27296 6.64743,24.34638 13.20531,48.72363 19.9116,73.03989 50.69504,28.70659 114.53514,29.26544 174.36915,10.25297 38.41902,-11.02813 76.51323,-26.5515 112.72728,-47.76157 9.36601,-30.85719 18.74979,-61.71097 28.20446,-92.54888 -1.38382,0.65683 -2.76765,1.31364 -4.15147,1.97047 z"
       style="fill:#000000;fill-opacity:1;stroke:none" />
    <path
       style="fill:#ff9900;fill-opacity:1;stroke:none"
       d="m 542.63706,401.03636 c -78.42771,38.054 -162.1606,53.58222 -242.76789,57.07837 -26.28211,0.60214 -53.20997,1.30708 -78.81123,-2.48688 l 17.23039,63.21589 c 0,0 54.78247,34.46822 137.14105,17.36189 82.35857,-17.10631 142.60537,-54.35288 142.60537,-54.35288 l 24.60231,-80.81639 z"
       id="path4586"
       inkscape:connector-curvature="0" />
    <path
       style="fill:url(#linearGradient5191);fill-opacity:1;stroke:none"
       d="m 542.63706,401.03636 c -78.42771,38.054 -162.1606,53.58222 -242.76789,57.07837 -9.98156,0.22869 -20.05679,0.4534 -30.11659,0.45967 -2.24032,0.90397 -4.46152,1.81413 -6.74438,2.75373 128.09443,3.40874 216.16879,5.08436 255.04042,20.44645 l 24.58844,-80.73822 z"
       id="path4588"
       inkscape:connector-curvature="0" />
    <path
       inkscape:connector-curvature="0"
       id="path4458"
       d="m 184.32317,436.09578 c 8.57606,-5.97865 18.67898,1.98606 21.70318,9.41199 5.76593,10.26349 0.85557,22.19287 2.09721,33.25711 -0.45132,19.88504 -0.91702,39.69964 -1.26658,59.52638 -10.97438,8.53036 -23.88814,20.14344 -39.29344,17.43475 -6.8031,-1.3123 -12.77585,-8.4308 -8.8807,-14.74578 6.45138,-31.74935 10.43884,-63.9819 18.40955,-95.38521 1.52091,-3.634 3.76726,-7.1312 7.23078,-9.49924 z"
       style="fill:#000000;fill-opacity:1;stroke:none" />
    <path
       inkscape:connector-curvature="0"
       id="path4460"
       d="m 179.594,452.34627 -17.36899,94.85044 c 0,0 5.04025,7.48301 16.09249,3.92877 11.05226,-3.55425 23.91642,-14.68644 23.91642,-14.68644 l 1.85958,-84.40338 c 0,0 -5.84874,-14.69262 -13.69565,-13.77837 -7.84692,0.91426 -10.80385,14.08898 -10.80385,14.08898 z"
       style="fill:#ff9900;fill-opacity:1;stroke:none" />
    <path
       sodipodi:nodetypes="sscccss"
       inkscape:connector-curvature="0"
       id="path4462"
       d="m 189.70986,442.99932 c 4.60527,-1.97749 7.56444,5.00794 8.74115,8.03891 3.49478,9.00182 -0.52348,18.97801 0.40958,28.43166 -0.41458,18.34911 -0.82916,36.69821 -1.24374,55.04731 -8.18914,5.7049 -19.30825,13.30462 -30.34044,10.73724 9.19944,-40.20492 11.87176,-70.59118 18.60184,-97.01733 0.51142,-2.00813 1.7204,-4.33124 3.83161,-5.23779 z"
       style="fill:url(#linearGradient5196);fill-opacity:1;stroke:none" />
    <path
       style="fill:#000000;fill-opacity:1;stroke:none"
       d="m 575.25889,384.31147 c -9.90156,-5.33464 -20.02885,4.05838 -22.54396,12.1368 -5.19422,11.33379 1.34629,23.27396 1.13462,34.96374 2.52548,20.72437 5.05935,41.37361 7.46865,62.04788 12.76066,7.7455 27.93771,18.50531 44.34664,14.03973 7.23442,-2.09334 12.97475,-10.16377 8.10891,-16.34685 -10.23965,-32.48084 -17.85998,-65.72811 -29.70987,-97.68612 -2.01959,-3.63462 -4.81091,-7.0493 -8.80499,-9.15518 z"
       id="path4448"
       inkscape:connector-curvature="0" />
    <path
       style="fill:#ff9900;fill-opacity:1;stroke:none"
       d="m 582.04571,400.78481 28.52802,97.23799 c 0,0 -4.69296,8.35216 -17.02831,5.81308 -12.33535,-2.53909 -27.40943,-12.80182 -27.40943,-12.80182 L 555.4771,403.06217 c 0,0 4.83026,-15.96932 13.42334,-15.84762 8.59308,0.12171 13.14527,13.57026 13.14527,13.57026 z"
       id="path4450"
       inkscape:connector-curvature="0" />
    <path
       style="fill:url(#linearGradient5201);fill-opacity:1;stroke:none"
       d="m 570.13132,392.0951 c -5.19076,-1.57665 -7.68056,6.03473 -8.64468,9.3259 -2.86342,9.77463 2.51076,19.7692 2.46836,29.74376 2.32839,19.12379 4.65677,38.24758 6.98517,57.37138 9.45441,5.08976 22.27653,11.84772 33.96317,7.99418 -14.08227,-41.02185 -20.089,-72.48011 -30.08532,-99.37064 -0.75962,-2.04342 -2.30707,-4.34179 -4.6867,-5.06458 z"
       id="path4452"
       inkscape:connector-curvature="0"
       sodipodi:nodetypes="sscccss" />
    <path
       inkscape:connector-curvature="0"
       id="path4428"
       d="m 588.52084,481.13001 c -25.60244,0.61057 -46.56607,26.04238 -41.91551,51.24061 3.07066,24.82703 29.84812,42.98804 54.21638,36.60592 24.6516,-4.88892 40.82056,-32.97771 32.58382,-56.73341 -5.80402,-18.98649 -24.8457,-32.3088 -44.88469,-31.11312 z"
       style="fill:#000000;fill-opacity:1;stroke:none" />
    <path
       transform="matrix(1.1872061,0,0,1.182604,29.654365,-22.007454)"
       d="m 506.84404,463.06445 c 0,18.89859 -15.32033,34.21892 -34.21892,34.21892 -18.89858,0 -34.21892,-15.32033 -34.21892,-34.21892 0,-18.89858 15.32034,-34.21891 34.21892,-34.21891 18.89859,0 34.21892,15.32033 34.21892,34.21891 z"
       sodipodi:ry="34.218918"
       sodipodi:rx="34.218918"
       sodipodi:cy="463.06445"
       sodipodi:cx="472.62512"
       id="path4430"
       style="fill:#ff9900;fill-opacity:1;stroke:none"
       sodipodi:type="arc" />
    <path
       sodipodi:type="arc"
       style="fill:url(#linearGradient4434);fill-opacity:1;stroke:none"
       id="path4432"
       sodipodi:cx="472.62512"
       sodipodi:cy="463.06445"
       sodipodi:rx="34.218918"
       sodipodi:ry="34.218918"
       d="m 506.84404,463.06445 c 0,18.89859 -15.32033,34.21892 -34.21892,34.21892 -18.89858,0 -34.21892,-15.32033 -34.21892,-34.21892 0,-18.89858 15.32034,-34.21891 34.21892,-34.21891 18.89859,0 34.21892,15.32033 34.21892,34.21891 z"
       transform="matrix(1.0557811,0,0,1.0516884,91.769131,38.614885)" />
    <path
       inkscape:connector-curvature="0"
       id="path4416"
       d="m 189.8943,513.17278 c -21.56529,0.51629 -39.22324,22.02122 -35.30601,43.32863 2.58646,20.99353 25.14148,36.35032 45.6672,30.95366 20.76438,-4.13403 34.38372,-27.88568 27.4458,-47.9733 -4.88881,-16.05481 -20.92788,-27.32005 -37.80699,-26.30899 z"
       style="fill:#000000;fill-opacity:1;stroke:none" />
    <path
       transform="translate(-280.84661,87.72397)"
       d="m 506.84404,463.06445 c 0,18.89859 -15.32033,34.21892 -34.21892,34.21892 -18.89858,0 -34.21892,-15.32033 -34.21892,-34.21892 0,-18.89858 15.32034,-34.21891 34.21892,-34.21891 18.89859,0 34.21892,15.32033 34.21892,34.21891 z"
       sodipodi:ry="34.218918"
       sodipodi:rx="34.218918"
       sodipodi:cy="463.06445"
       sodipodi:cx="472.62512"
       id="path4418"
       style="fill:#ff9900;fill-opacity:1;stroke:none"
       sodipodi:type="arc" />
    <path
       sodipodi:type="arc"
       style="fill:url(#linearGradient4424);fill-opacity:1;stroke:none"
       id="path4420"
       sodipodi:cx="472.62512"
       sodipodi:cy="463.06445"
       sodipodi:rx="34.218918"
       sodipodi:ry="34.218918"
       d="m 506.84404,463.06445 c 0,18.89859 -15.32033,34.21892 -34.21892,34.21892 -18.89858,0 -34.21892,-15.32033 -34.21892,-34.21892 0,-18.89858 15.32034,-34.21891 34.21892,-34.21891 18.89859,0 34.21892,15.32033 34.21892,34.21891 z"
       transform="matrix(0.88929889,0,0,0.88929889,-228.52649,138.98571)" />
    <path
       style="fill:#000000;fill-opacity:1;stroke:none"
       d="m 205.7328,545.29306 c -8.83029,-1.08842 -18.97031,5.65235 -17.65625,15.3125 -0.11237,8.53391 6.43367,15.15443 13.68172,18.48644 15.12631,11.36864 32.88039,19.94714 52.06828,21.29481 6.0718,0.99555 12.41902,1.57838 18.40625,-0.15625 -0.83054,-15.35265 -1.62843,-30.70709 -2.40625,-46.0625 -16.6721,-0.63817 -34.33866,3.06657 -50.21875,-3.1875 -4.31326,-2.5424 -8.53055,-6.11229 -13.875,-5.6875 z"
       id="path4369"
       inkscape:connector-curvature="0" />
    <path
       style="fill:#ff9900;fill-opacity:1;stroke:none"
       d="m 266.02876,558.22729 c 0,0 -27.09953,0.92349 -37.81382,-0.50508 -10.71428,-1.42857 -16.42857,-7.14286 -16.42857,-7.14286 0,0 -7.85714,-3.21428 -15.35714,0.71429 -7.5,3.92857 -4.28572,18.21428 2.14285,21.07143 6.42858,2.85714 21.61592,17.31766 40.94452,21.42113 23.1784,4.92078 28.52502,3.27992 28.52502,3.27992 z"
       id="path4367"
       inkscape:connector-curvature="0"
       sodipodi:nodetypes="cscssscc" />
    <path
       style="fill:url(#linearGradient5212);fill-opacity:1;stroke:none"
       d="m 204.82655,553.19931 c -4.81099,-0.5559 -8.16287,0.34582 -8.37246,5.94337 -0.16809,4.48914 17.51058,13.32449 24.52633,16.01269 10.30512,3.94858 24.3727,11.05701 41.9889,11.95177 -0.43598,-5.34144 -0.25772,-23.8209 -2.67402,-24.84533 -20.80723,7.14673 -44.08185,-3.88 -55.46875,-9.0625 z"
       id="path4375"
       inkscape:connector-curvature="0"
       sodipodi:nodetypes="cssccc" />
    <path
       inkscape:connector-curvature="0"
       id="path4406"
       d="m 575.29607,514.90644 c 8.50146,-1.30168 18.26388,5.19421 16.99876,14.8861 0.10818,8.53119 -6.1941,15.3098 -13.17224,18.81685 -14.56303,11.73394 -31.65598,20.74121 -50.12934,22.55226 -5.8457,1.14219 -11.95656,1.87831 -17.72083,0.28827 0.79961,-15.37271 1.56779,-30.74642 2.31664,-46.12061 16.05126,-1.04081 33.05995,2.23728 48.34869,-4.40029 4.15264,-2.64657 8.21288,-6.3183 13.35832,-6.02258 z"
       style="fill:#000000;fill-opacity:1;stroke:none" />
    <path
       sodipodi:nodetypes="cscssscc"
       inkscape:connector-curvature="0"
       id="path4408"
       d="m 517.24543,529.29682 c 0,0 26.09039,0.26903 36.40569,-1.41829 10.3153,-1.68732 15.8168,-7.53961 15.8168,-7.53961 0,0 7.56455,-3.40403 14.78527,0.34341 7.22071,3.74745 4.12612,18.11078 -2.06306,21.12318 -6.18919,3.0124 -20.81098,17.83969 -39.41981,22.40995 -22.31528,5.48054 -27.4628,3.9688 -27.4628,3.9688 z"
       style="fill:#ff9900;fill-opacity:1;stroke:none" />
    <path
       sodipodi:nodetypes="cssccc"
       inkscape:connector-curvature="0"
       id="path4410"
       d="m 576.16857,522.7908 c 4.63183,-0.67209 7.8589,0.14869 8.06068,5.74117 0.16183,4.48509 -16.85851,13.74738 -23.61301,16.60501 -9.92137,4.19745 -23.4651,11.64561 -40.4253,12.9658 0.41974,-5.35197 0.24812,-23.82712 2.57444,-24.9099 20.03241,6.64423 42.44032,-4.94458 53.40319,-10.40208 z"
       style="fill:url(#linearGradient5217);fill-opacity:1;stroke:none" />
    <path
       sodipodi:nodetypes="sccssccs"
       inkscape:connector-curvature="0"
       id="path4554"
       d="m 329.83617,827.6699 c 0.63715,42.07954 45.72891,64.7781 45.72891,64.7781 -4.97775,41.33041 -27.15887,40.5481 -27.15887,40.5481 0,0 73.44868,-1.7155 106.87645,-55.88002 33.42778,-54.16453 0.67696,-100.10902 -14.27757,-114.82589 -14.95452,-14.71688 -31.12467,-21.64821 -31.12467,-21.64821 l -40.56047,15.70371 c 0,0 -40.12094,29.24466 -39.48378,71.32421 z"
       style="fill:url(#linearGradient5228);fill-opacity:1;stroke:none" />
    <path
       id="path4556"
       d="m 410.82895,734.29259 c -0.58836,-0.12419 -1.15875,-0.16741 -1.73674,-0.0986 -19.65319,9.03241 -43.6216,12.51208 -57.54763,29.55478 -21.39023,21.86612 -34.82816,53.70156 -25.27876,82.85251 6.71111,20.52494 22.86426,37.42466 42.03503,48.94978 -1.90554,12.07829 -5.91769,27.78234 -20.39862,31.51532 -4.83359,1.65914 -8.6498,4.81397 -12.4862,7.91575 17.59064,8.25583 37.06204,0.96448 54.64741,-3.17669 41.73846,-12.21261 77.4575,-44.84411 84.84839,-85.73277 8.17418,-42.40311 -16.03648,-87.35111 -56.51919,-108.18397 -2.3987,-0.99683 -5.01456,-3.05625 -7.56369,-3.59607 z m -0.94373,6.33651 c 0,0 16.15431,6.94813 31.10884,21.66501 14.95452,14.71688 47.71681,60.67375 14.28903,114.83828 -31.11601,50.41865 -96.84147,55.3728 -105.79276,55.81953 4.46335,-0.46175 21.75487,-4.57625 26.08043,-40.49147 0,0 -45.09948,-22.72008 -45.73664,-64.79962 -0.63715,-42.07954 39.49205,-71.31284 39.49205,-71.31284 l 40.55905,-15.71889 z"
       style="fill:url(#linearGradient5225);fill-opacity:1;stroke:none"
       inkscape:connector-curvature="0" />
    <path
       inkscape:connector-curvature="0"
       id="path4558"
       d="m 391.5381,761.6643 c 0,0 -32.71206,30.15137 -22.7708,56.65264 9.94127,26.50127 18.13103,25.73993 29.74805,43.91215 6.33574,9.91083 1.31686,25.07785 1.31686,25.07785 0,0 24.876,-10.35065 38.01122,-54.61924 13.13521,-44.26858 -7.0663,-72.53748 -10.18813,-72.66921 -3.12182,-0.13173 -36.1172,1.64581 -36.1172,1.64581 z"
       style="fill:url(#linearGradient5222);fill-opacity:1;stroke:none"
       sodipodi:nodetypes="csscssc" />
    <path
       inkscape:connector-curvature="0"
       style="fill:#000000;fill-opacity:1;stroke:none"
       d="m 335.19475,477.70586 c -12.22625,1.07204 -22.07182,8.83188 -34.82499,24.48924 0,0 -13.53213,3.08563 -19.98771,8.52403 -4.37311,4.35996 -6.87409,10.60937 -8.75254,16 -10.32074,-2.86497 -21.66332,11.51786 -23.9235,20.60067 -4.63597,17.83694 -0.32747,35.00573 4.86607,52.54464 4.01663,10.15219 16.05941,16.25262 26.43751,13.6875 10.69295,16.73077 30.06528,26.50418 49.8125,27.03125 18.17225,1.57375 37.2699,1.76579 54.5,-4.625 13.06141,-7.31633 7.72605,-31.55631 -7.75,-31.4375 -12.06633,-0.5645 -24.48018,1.00753 -36,-2.96875 -4.80034,-1.45217 -9.44449,-3.19437 -14.1875,-4.96875 17.48456,-0.71569 35.71738,-0.48208 52.1875,-6.84375 12.93875,-7.42516 11.74647,-30.61514 -3.46875,-34.53125 -17.32357,-4.80153 -35.27114,5.77237 -52.46875,-0.0937 -6.14785,-2.49277 -8.39413,-13.43461 -2.125,-16.8125 21.0104,-4.63842 42.84184,-5.46572 63.59375,-11.25 8.89317,-5.81646 7.01415,-18.56494 3.46875,-26.96875 -2.9294,-5.72828 -9.24916,-9.22591 -15.6875,-8.5625 -6.58464,0.80431 -13.0595,2.36321 -19.53125,3.9375 1.44484,-9.27723 -3.22144,-18.88677 -16.15859,-17.75238 z"
       id="path4268"
       sodipodi:nodetypes="scccccccccccccccccccs" />
    <path
       inkscape:connector-curvature="0"
       style="fill:#000000;fill-opacity:1;stroke:none"
       d="m 427.04084,458.23949 c -8.15935,-0.0994 -17.48451,6.00196 -15.5,15.03125 0.0355,2.21325 0.47117,5.21617 1.625,7.5625 -12.23214,1.45818 -26.11733,7.36732 -29.34375,20.46875 -3.51971,10.38525 3.00844,24.24358 14.875,24.4375 20.20697,2.50849 39.42956,-5.83178 58.1875,-11.625 7.47151,0.48293 10.53369,12.26978 3.71875,16.03125 -14.13504,13.95426 -35.78739,16.39999 -54.875,13.71875 -8.53155,-1.28815 -20.93752,-1.0217 -23.9375,8.9375 -4.06412,12.08628 0.70185,27.64933 12.34375,33.53125 13.82163,3.58716 28.40278,0.34671 42.21875,-1.90625 3.47006,-0.77237 7.1891,-1.71068 10.5,-2.65625 -17.46663,10.13519 -38.28925,12.03517 -56.65625,19.875 -7.96797,6.31089 -5.39401,18.64883 -1.3125,26.53125 3.7041,6.85051 11.76552,9.46853 19.15625,8.125 30.65559,-0.4161 63.81243,-12.57834 79.6875,-40.28125 1.91597,-1.64596 2.24593,-7.96565 4.8125,-4.78125 4.66064,0.87091 9.13715,-2.8158 13.4375,-4.34375 13.66256,-6.94769 25.39907,-22.73854 25.03125,-38.47321 -0.33746,-14.43594 0.0881,-30.50954 -13.04018,-39.64286 -2.85049,-1.98308 -10.90196,-2.4242 -12.49107,-4.85268 -1.64959,-11.65122 -5.72442,-25.99757 -17.90625,-30.40625 -5.56438,-1.58288 -8.94099,-2.08294 -18.06392,-1.34973 -5.41758,-4.49002 -25.63015,-14.27392 -40.84228,-13.83777 -0.52978,-0.0628 -1.08104,-0.0871 -1.625,-0.0937 z"
       id="path4297"
       sodipodi:nodetypes="ccccccccccccccccccsscccccc" />
    <path
       style="fill:url(#linearGradient4245);fill-opacity:1;stroke:none"
       d="m 334.60334,481.04945 c -6.78692,0.56957 -17.34128,11.13026 -25.15625,20.0625 3.14945,-0.49695 6.30707,-0.89216 9.40625,-1.21875 9.57718,0.49194 18.83699,-1.42191 28.0625,-3.625 1.8967,-6.11748 -1.26944,-14.28893 -11.1875,-15.21875 -0.35714,-0.0335 -0.74253,-0.0321 -1.125,0 z"
       id="path3445"
       inkscape:connector-curvature="0" />
    <path
       inkscape:connector-curvature="0"
       style="fill:url(#linearGradient4266);fill-opacity:1;stroke:none"
       d="m 428.75959,462.33324 c -15.68822,0.41983 -14.01785,8.71875 -12.34375,15.75 0.20065,0.84272 0.56098,1.63098 1.03125,2.375 15.46155,-1.44778 30.69965,-5.07216 46.125,-7.21875 -8.75595,-4.93442 -20.84981,-10.48287 -31.4375,-10.875 -1.20536,-0.0446 -2.32912,-0.0592 -3.375,-0.0312 z"
       id="path3447" />
    <path
       style="fill:url(#linearGradient4237);fill-opacity:1;stroke:none"
       d="m 272.8578,571.29364 c 0,0 -3.57142,-50.71428 15.35715,-59.28572 22.05129,-9.9855 36.44872,-7.35168 47.5,-8.92857 15.18543,-2.16678 33.57142,-10.35714 42.14285,-6.42857 8.57143,3.92857 10,23.57143 3.57143,26.78572 -6.42857,3.21428 -58.92857,8.57142 -65.35714,12.14285 -6.42857,3.57143 -5.61677,19.543 3.92857,23.21429 18.57143,7.14286 47.85715,-7.50001 58.21428,3.21429 7.35089,7.60438 5.35715,21.07142 -4.99999,25.35714 -10.35715,4.28571 -52.50001,6.07142 -64.28572,5.35714 -11.78572,-0.71429 17.14286,8.21429 17.14286,8.21429 0,0 15,7.14285 31.78571,7.5 16.78572,0.35714 20.35715,-1.42858 24.64286,2.85714 4.28571,4.28571 7.85714,17.14286 -2.5,21.78571 -10.35714,4.64286 -54.64286,7.85715 -76.07143,-2.5 -21.42857,-10.35714 -30.71428,-36.07143 -30.71428,-36.07143 l 2.67857,15.35714 c 0,0 -18.39286,3.21429 -21.96429,-20.35714 -3.57144,-23.57143 -1.96429,-44.64285 6.42857,-53.21428 5.47999,-5.59659 10.00001,-3.92858 10.00001,-3.92858 -2.67857,21.25 2.49999,38.92858 2.49999,38.92858 z"
       id="path3441"
       inkscape:connector-curvature="0"
       sodipodi:nodetypes="cssssssssscssssccsscc" />
    <path
       sodipodi:nodetypes="cssssssssccssccsscc"
       inkscape:connector-curvature="0"
       id="path3443"
       d="m 503.14373,529.33547 c 0,0 1.87247,-48.72314 -18.0371,-52.30405 -17.18559,-3.09097 -33.71864,3.25223 -52.30923,5.49871 -15.27308,1.84559 -26.43935,2.36885 -35.21837,7.21179 -13.46704,7.42909 -14.12931,27.89909 -1.58496,31.45557 6.71033,1.90246 25.01691,2.4338 56.054,-10.16303 12.65251,-5.1352 21.15822,12.05989 13.54773,19.75823 -32.73762,33.11548 -70.63806,7.38995 -79.02237,21.05988 -5.95071,9.7021 0.72304,30.15349 11.57986,31.53506 10.85682,1.38155 44.95276,-0.13192 70.31403,-15.24152 -21.7228,30.01017 -71.34752,29.85538 -77.97017,38.65481 -3.49373,5.50822 -0.35956,24.97223 10.68395,25.44164 24.12997,1.02565 50.56147,-5.37251 69.85509,-21.80421 19.2936,-16.43169 26.29826,-50.20828 26.29826,-50.20828 l -2.5938,26.879 c 0,0 27.32298,-7.00464 28.88459,-31.61698 1.04337,-16.44454 0.6379,-31.06391 -6.14312,-39.44232 -4.71541,-5.8262 -11.16224,-6.83815 -11.16224,-6.83815 1.11943,7.57306 0.43296,12.7919 -3.17615,20.12385 z"
       style="fill:url(#linearGradient4253);fill-opacity:1;stroke:none" />
    <path
       inkscape:connector-curvature="0"
       id="path4574"
       d="m 393.60949,228.10424 c -55.34445,-5.72874 -113.23891,12.45144 -157.06569,53.75572 -40.7748,37.10082 -71.39556,87.91721 -90.74574,143.37887 17.09485,18.87362 28.21568,23.76895 63.40901,31.20015 57.79847,10.12405 117.73961,4.35793 175.98905,-2.46908 70.53025,-9.93316 151.58927,-33.08908 212.65932,-77.16873 -1.27727,-4.43475 -2.87778,-7.49099 -7.4345,-13.52993 C 549.02297,284.72407 473.4649,233.48687 393.60949,228.10424 z"
       style="fill:#000000;fill-opacity:1;stroke:none"
       sodipodi:nodetypes="cccccccc" />
    <path
       inkscape:connector-curvature="0"
       id="path4576"
       d="m 151.09054,423.86277 c 0,0 59.47951,-188.28552 217.07862,-191.31322 157.59912,-3.02771 220.82792,138.02829 220.82792,138.02829 0,0 -84.14098,72.46195 -246.91937,82.50453 -162.77839,10.04256 -190.98717,-29.2196 -190.98717,-29.2196 z"
       style="fill:#9cdafb;fill-opacity:1;stroke:none" />
    <path
       inkscape:connector-curvature="0"
       id="path4578"
       d="m 396.61443,233.60026 c -9.12029,-0.86676 -18.58351,-1.257 -28.43345,-1.06777 -1.68523,0.0324 -3.36666,0.0985 -5.02949,0.1728 65.85097,31.1954 108.33145,93.87474 101.89696,161.2497 -1.35597,14.19828 -4.8142,27.75396 -10.06861,40.45682 88.62505,-24.73711 134.01313,-63.81478 134.01313,-63.81478 0,0 -55.57435,-123.99465 -192.37854,-136.99677 z"
       style="fill:url(#linearGradient5234);fill-opacity:1;stroke:none" />
    <path
       inkscape:connector-curvature="0"
       id="path4580"
       d="m 349.54309,254.43283 c -73.88726,-7.65248 -154.71886,69.66648 -183.52251,174.04544 20.71667,11.84453 44.85074,14.62479 67.83919,17.92127 3.7461,0.39059 7.50227,0.76656 11.25456,1.08402 0.35037,-3.54188 0.77997,-7.10745 1.2656,-10.6825 11.96788,-88.10622 61.76227,-158.6812 120.16062,-179.01638 -5.43789,-1.61859 -11.11082,-2.74218 -16.99746,-3.35185 z"
       style="fill:url(#linearGradient5231);fill-opacity:1;stroke:none" />
    <path
       id="path4562"
       d="m 386.82263,208.22873 c -1.01941,-0.15731 -2.03124,-0.28631 -3.04521,-0.40015 -15.02379,-1.01885 -31.95995,-0.88679 -45.28905,6.41292 -15.90906,3.88689 -36.06576,11.18775 -42.56379,27.09598 -3.89699,13.31588 12.39838,22.61318 24.02591,26.06188 32.32713,10.69495 68.79284,8.25526 99.62319,-5.20854 10.8592,-4.71032 27.76817,-13.93724 23.36598,-26.87155 -5.48721,-14.10336 -27.96003,-20.96408 -41.51791,-23.44746 -0.6372,-0.0601 -1.1628,2.9e-4 -1.62606,0.11228 -4.04352,-1.92276 -8.52017,-3.06836 -12.97306,-3.75536 z"
       style="fill:#000000;fill-opacity:1;stroke:none"
       inkscape:connector-curvature="0"
       sodipodi:nodetypes="cccccccccc" />
    <path
       transform="matrix(1.1759339,-0.01836609,-0.16725429,1.1726743,-10.138801,84.048271)"
       d="m 371.98867,127.18872 c 0,7.04339 -14.18968,12.75318 -31.69353,12.75318 -17.50386,0 -31.69354,-5.70979 -31.69354,-12.75318 0,-7.04338 14.18968,-12.75318 31.69354,-12.75318 17.50385,0 31.69353,5.7098 31.69353,12.75318 z"
       sodipodi:ry="12.753176"
       sodipodi:rx="31.693537"
       sodipodi:cy="127.18872"
       sodipodi:cx="340.29514"
       id="path4564"
       style="fill:#ff9900;fill-opacity:1;stroke:none"
       sodipodi:type="arc" />
    <path
       inkscape:connector-curvature="0"
       id="path4566"
       d="m 406.61802,217.81615 c 3.38556,2.53285 5.14338,5.51299 4.68032,8.75966 -1.3771,9.65529 -21.57311,17.84602 -45.09939,18.29893 -23.52627,0.4529 -41.4884,-7.01882 -40.1113,-16.67411 0.34043,-2.38689 1.82637,-4.70784 4.23225,-6.82128 -15.57397,5.31296 -26.14864,13.18245 -27.36897,21.73852 -2.14857,15.06434 25.53001,26.65113 61.8482,25.88863 36.3182,-0.7625 67.51887,-13.59489 69.66744,-28.65923 1.39711,-9.7956 -9.84132,-18.11343 -27.84855,-22.53112 z"
       style="fill:#ff9900;fill-opacity:1;stroke:none" />
    <path
       sodipodi:type="arc"
       style="fill:url(#linearGradient4614);fill-opacity:1;stroke:none"
       id="path4568"
       sodipodi:cx="340.29514"
       sodipodi:cy="127.18872"
       sodipodi:rx="31.693537"
       sodipodi:ry="12.753176"
       d="m 371.98867,127.18872 c 0,7.04339 -14.18968,12.75318 -31.69353,12.75318 -17.50386,0 -31.69354,-5.70979 -31.69354,-12.75318 0,-7.04338 14.18968,-12.75318 31.69354,-12.75318 17.50385,0 31.69353,5.7098 31.69353,12.75318 z"
       transform="matrix(0.96252715,-0.01503304,-0.13690123,0.9598591,58.621897,109.98174)" />
    <path
       inkscape:connector-curvature="0"
       id="path4570"
       d="m 416.19347,226.3954 c -2.16858,13.93083 -18.67319,18.42447 -30.65662,21.11093 -19.52052,3.95058 -42.09762,3.9848 -59.10643,-7.66716 -2.72345,-2.38277 -4.81348,-5.60536 -5.32451,-9.19897 -6.25171,3.05787 -16.10587,9.68834 -12.16699,17.57547 8.93922,12.18071 26.11628,13.41761 40.18698,15.3014 25.74491,1.99186 53.90246,-0.94872 75.27446,-15.91833 5.24062,-3.74041 7.45386,-12.16382 1.07251,-16.05494 -2.59357,-2.1392 -6.40463,-4.93268 -9.2794,-5.1484 z"
       style="fill:url(#linearGradient5239);fill-opacity:1;stroke:none" />
    <path
       transform="matrix(0.85986445,-0.10222886,0.12657413,1.0646368,85.293946,-135.81133)"
       d="m 304.46429,504.86218 c 0,18.54099 -7.71509,33.57143 -17.23214,33.57143 -9.51705,0 -17.23215,-15.03044 -17.23215,-33.57143 0,-18.54099 7.7151,-33.57143 17.23215,-33.57143 9.51705,0 17.23214,15.03044 17.23214,33.57143 z"
       sodipodi:ry="33.57143"
       sodipodi:rx="17.232143"
       sodipodi:cy="504.86218"
       sodipodi:cx="287.23215"
       id="path4633"
       style="fill:#000000;stroke:none"
       sodipodi:type="arc" />
    <path
       sodipodi:type="arc"
       style="fill:url(#linearGradient4639);fill-opacity:1;stroke:none"
       id="path4635"
       sodipodi:cx="287.23215"
       sodipodi:cy="504.86218"
       sodipodi:rx="17.232143"
       sodipodi:ry="33.57143"
       d="m 304.46429,504.86218 c 0,18.54099 -7.71509,33.57143 -17.23214,33.57143 -9.51705,0 -17.23215,-15.03044 -17.23215,-33.57143 0,-18.54099 7.7151,-33.57143 17.23215,-33.57143 9.51705,0 17.23214,15.03044 17.23214,33.57143 z"
       transform="matrix(0.75044374,-0.08921989,0.11046714,0.92915808,124.85491,-71.149859)" />
    <path
       transform="matrix(0.37483993,-0.04456454,0.05517735,0.46410615,254.77791,140.03667)"
       d="m 304.46429,504.86218 c 0,18.54099 -7.71509,33.57143 -17.23214,33.57143 -9.51705,0 -17.23215,-15.03044 -17.23215,-33.57143 0,-18.54099 7.7151,-33.57143 17.23215,-33.57143 9.51705,0 17.23214,15.03044 17.23214,33.57143 z"
       sodipodi:ry="33.57143"
       sodipodi:rx="17.232143"
       sodipodi:cy="504.86218"
       sodipodi:cx="287.23215"
       id="path4637"
       style="fill:#ffffff;stroke:none"
       sodipodi:type="arc" />
    <path
       sodipodi:type="arc"
       style="fill:#000000;stroke:none"
       id="path4643"
       sodipodi:cx="287.23215"
       sodipodi:cy="504.86218"
       sodipodi:rx="17.232143"
       sodipodi:ry="33.57143"
       d="m 304.46429,504.86218 c 0,18.54099 -7.71509,33.57143 -17.23214,33.57143 -9.51705,0 -17.23215,-15.03044 -17.23215,-33.57143 0,-18.54099 7.7151,-33.57143 17.23215,-33.57143 9.51705,0 17.23214,15.03044 17.23214,33.57143 z"
       transform="matrix(0.45354224,-0.03216771,0.04582707,0.5142204,200.22499,126.81933)" />
    <path
       sodipodi:type="arc"
       style="fill:#ffffff;stroke:none"
       id="path4647"
       sodipodi:cx="287.23215"
       sodipodi:cy="504.86218"
       sodipodi:rx="17.232143"
       sodipodi:ry="33.57143"
       d="m 304.46429,504.86218 c 0,18.54099 -7.71509,33.57143 -17.23214,33.57143 -9.51705,0 -17.23215,-15.03044 -17.23215,-33.57143 0,-18.54099 7.7151,-33.57143 17.23215,-33.57143 9.51705,0 17.23214,15.03044 17.23214,33.57143 z"
       transform="matrix(0.19771226,-0.01402284,0.01997735,0.22416364,283.88114,262.75162)" />
    <path
       sodipodi:nodetypes="cccsccc"
       inkscape:connector-curvature="0"
       id="path4651"
       d="m 453.90016,397.3142 c 0,0 38.00694,-36.4927 37.35706,-65.3636 -5.86524,-3.52291 -30.40764,-0.0984 -30.40764,-0.0984 0,0 25.0244,-23.20256 50.21631,-12.90251 19.93296,8.14987 15.84381,36.4213 15.84381,36.4213 0,0 -9.06425,-16.27294 -16.9024,-17.73227 -12.62155,45.14587 -56.10714,59.67551 -56.10714,59.67551 z"
       style="fill:#000000;stroke:none" />
    <path
       style="fill:#000000;stroke:none"
       d="m 248.57135,356.53673 c 3.4017,-6.14489 26.49672,-16.54259 26.49672,-16.54259 0,0 -33.1633,-6.0155 -50.13062,16.30444 -13.4253,17.66053 -2.88367,43.32224 -2.88367,43.32224 0,0 4.52069,-20.64586 10.65123,-26.11894 28.24157,35.26931 61.96932,50.77747 61.96932,50.77747 0,0 -39.91099,-36.73745 -46.10298,-67.74262 z"
       id="path4653"
       inkscape:connector-curvature="0"
       sodipodi:nodetypes="ccscccc" />
  </g>
</svg>
