<?xml version="1.0" encoding="UTF-8" standalone="no"?>
<!-- Created with Inkscape (http://www.inkscape.org/) -->
<svg xmlns:rdf="http://www.w3.org/1999/02/22-rdf-syntax-ns#" xmlns="http://www.w3.org/2000/svg" xmlns:cc="http://web.resource.org/cc/" xmlns:dc="http://purl.org/dc/elements/1.1/" xmlns:svg="http://www.w3.org/2000/svg" xmlns:inkscape="http://www.inkscape.org/namespaces/inkscape" xmlns:sodipodi="http://sodipodi.sourceforge.net/DTD/sodipodi-0.dtd" xmlns:ns1="http://sozi.baierouge.fr" xmlns:xlink="http://www.w3.org/1999/xlink" id="svg2" viewBox="0 0 720 720" version="1.1" inkscape:version="0.91 r13725">
  <g id="g3459">
    <path id="path3331" style="fill:#ff0000" d="m248.54 308.03 111.46-193.06 23.93-28.518-23.93-41.452-23.93 41.452-18.62 32.248-68.91 189.33z"/>
    <path id="path3335" style="fill:#ff8000" d="m259.26 289.46 143.29-170.76 28.52-23.936-16.37-44.978-30.77 36.666-23.93 28.518-100.74 174.49z"/>
    <path id="path3337" style="fill:#ffff00" d="m273.04 273.04 170.76-143.29 32.25-18.62-8.31-47.133-36.67 30.767-28.52 23.936-129.51 154.34z"/>
    <path id="path3339" style="fill:#80ff00" d="m289.46 259.26 193.05-111.46 34.987-12.734-6e-13 -47.865-41.452 23.932-32.244 18.616-154.34 129.51z"/>
    <path id="path3341" style="fill:#00ff00" d="m308.03 248.54 209.47-76.242 36.666-6.4653 8.3116-47.138-44.978 16.371-34.987 12.734l-174.48 100.75z"/>
    <path id="path3343" style="fill:#00ff80" d="m328.17 241.21 219.53-38.709 37.232 1e-13 16.371-44.978-47.138 8.3116-36.666 6.4653-189.33 68.91z"/>
    <path id="path3345" style="fill:#00ffff" d="m349.28 237.49 222.92-4e-13 36.666 6.4653 23.932-41.452-47.865 6e-13 -37.232 3e-13 -198.42 34.987z"/>
    <path id="path3347" style="fill:#0080ff" d="m370.72 237.49 219.53 38.709 34.987 12.734 30.767-36.666-47.138-8.3116-36.666-6.4653-201.48 6e-13z"/>
    <path id="path3349" style="fill:#0000ff" d="m391.83 241.21 209.47 76.242 32.244 18.616 36.666-30.767-44.978-16.371-34.987-12.734-198.42-34.987z"/>
    <path id="path3351" style="fill:#8000ff" d="m411.97 248.54 193.05 111.46 28.521 23.932 41.452-23.932-41.452-23.932-32.244-18.616-189.33-68.91z"/>
    <path id="path3353" style="fill:#ff00ff" d="m430.54 259.26 170.76 143.29 23.94 28.52 44.97-16.37-36.66-30.77-28.52-23.93-174.49-100.74z"/>
    <path id="path3355" style="fill:#ff0080" d="m446.96 273.04 143.29 170.76 18.616 32.244 47.138-8.3116l-30.77-36.66-23.94-28.52-154.34-129.51z"/>
    <path id="path3373" style="fill:#ff0000" d="m460.74 289.46 111.46 193.05 12.734 34.987 47.865-1e-13l-23.93-41.45-18.62-32.25-129.51-154.34z"/>
    <path id="path3375" style="fill:#ff8000" d="m471.46 308.03 76.242 209.47 6.4653 36.666 47.138 8.3116-16.371-44.978-12.734-34.987-100.74-174.49z"/>
    <path id="path3377" style="fill:#ffff00" d="m478.79 328.17 38.709 219.53v37.232l44.978 16.371-8.3116-47.138-6.4653-36.666-68.91-189.33z"/>
    <path id="path3379" style="fill:#80ff00" d="m482.51 349.28 4e-13 222.92-6.4653 36.666 41.452 23.932-5e-13 -47.865-3e-13 -37.232-34.987-198.42z"/>
    <path id="path3381" style="fill:#00ff00" d="m482.51 370.72-38.709 219.53-12.734 34.987 36.666 30.767 8.3116-47.138 6.4653-36.666-5e-13 -201.48z"/>
    <path id="path3383" style="fill:#00ff80" d="m478.79 391.83-76.242 209.47-18.616 32.244 30.767 36.666 16.371-44.978 12.734-34.987 34.987-198.42z"/>
    <path id="path3385" style="fill:#00ffff" d="m471.46 411.97-111.46 193.06-23.93 28.52 23.93 41.45l23.932-41.452 18.616-32.244 68.91-189.33z"/>
    <path id="path3387" style="fill:#0080ff" d="m460.74 430.54-143.29 170.76-28.521 23.932 16.371 44.978 30.767-36.666 23.932-28.521 100.74-174.49z"/>
    <path id="path3389" style="fill:#0000ff" d="m446.96 446.96-170.76 143.29-32.244 18.616 8.3116 47.138 36.666-30.767 28.521-23.932 129.51-154.34z"/>
    <path id="path3391" style="fill:#8000ff" d="m430.54 460.74-193.05 111.46-34.987 12.734 2e-13 47.865 41.452-23.932 32.244-18.616 154.34-129.51z"/>
    <path id="path3393" style="fill:#ff00ff" d="m411.97 471.46-209.47 76.242-36.666 6.4653-8.3116 47.138 44.978-16.371 34.987-12.734 174.49-100.74z"/>
    <path id="path3395" style="fill:#ff0080" d="m391.83 478.79-219.53 38.709-37.232 1e-13 -16.371 44.978 47.138-8.3116 36.666-6.4653 189.33-68.91z"/>
    <path id="path3399" style="fill:#ff0000" d="m370.72 482.51-222.92 3e-13 -36.666-6.4653-23.932 41.452 47.865-1e-13 37.232-8e-13 198.42-34.987z"/>
    <path id="path3401" style="fill:#ff8000" d="m349.28 482.51-219.53-38.71-34.986-12.73-30.767 36.67l47.138 8.3116 36.666 6.4653 201.48-4e-13z"/>
    <path id="path3403" style="fill:#ffff00" d="m328.17 478.79-209.47-76.24-32.248-18.62l-36.666 30.767 44.978 16.371 34.987 12.734 198.42 34.987z"/>
    <path id="path3405" style="fill:#80ff00" d="m308.03 471.46-193.06-111.46-28.518-23.93l-41.452 23.932 41.452 23.932 32.244 18.616 189.33 68.91z"/>
    <path id="path3407" style="fill:#00ff00" d="m289.46 460.74-170.76-143.29-23.936-28.52-44.978 16.37l36.666 30.767 28.521 23.932 174.49 100.74z"/>
    <path id="path3409" style="fill:#00ff80" d="m273.04 446.96-143.29-170.76-18.616-32.244-47.138 8.3116 30.767 36.666 23.932 28.521 154.34 129.51z"/>
    <path id="path3411" style="fill:#00ffff" d="m259.26 430.54-111.46-193.05-12.734-34.987-47.865 5e-13 23.932 41.452 18.616 32.244 129.51 154.34z"/>
    <path id="path3413" style="fill:#0080ff" d="m248.54 411.97-76.242-209.47-6.4653-36.666-47.138-8.3116 16.371 44.978 12.734 34.987 100.74 174.49z"/>
    <path id="path3415" style="fill:#0000ff" d="m241.21 391.83-38.709-219.53 9e-14 -37.232-44.978-16.371 8.3116 47.138 6.4653 36.666 68.91 189.33z"/>
    <path id="path3417" style="fill:#8000ff" d="m237.49 370.72-5e-13 -222.92 6.4653-36.666-41.452-23.932 6e-13 47.865 4e-13 37.232 34.987 198.42z"/>
    <path id="path3419" style="fill:#ff00ff" d="m237.49 349.28 38.709-219.53 12.734-34.987-36.666-30.767-8.3116 47.138-6.4653 36.666 3e-13 201.48z"/>
    <path id="path3421" style="fill:#ff0080" d="m241.21 328.17 76.24-209.47 18.62-32.248-30.77-36.666-16.37 44.978-12.73 34.986-34.99 198.42z"/>
  </g>
  <metadata>
    <rdf:RDF>
      <cc:Work>
        <dc:format>image/svg+xml</dc:format>
        <dc:type rdf:resource="http://purl.org/dc/dcmitype/StillImage"/>
        <cc:license rdf:resource="http://creativecommons.org/licenses/publicdomain/"/>
        <dc:publisher>
          <cc:Agent rdf:about="http://openclipart.org/">
            <dc:title>Openclipart</dc:title>
          </cc:Agent>
        </dc:publisher>
        <dc:title>12 color 36gram triangles</dc:title>
        <dc:date>2011-07-22T21:11:34</dc:date>
        <dc:description>12 color 36gram triangles</dc:description>
        <dc:source>https://openclipart.org/detail/151213/12-color-36gram-triangles-by-10binary</dc:source>
        <dc:creator>
          <cc:Agent>
            <dc:title>10binary</dc:title>
          </cc:Agent>
        </dc:creator>
        <dc:subject>
          <rdf:Bag>
            <rdf:li>12</rdf:li>
            <rdf:li>36gram</rdf:li>
            <rdf:li>color</rdf:li>
            <rdf:li>triangles</rdf:li>
          </rdf:Bag>
        </dc:subject>
      </cc:Work>
      <cc:License rdf:about="http://creativecommons.org/licenses/publicdomain/">
        <cc:permits rdf:resource="http://creativecommons.org/ns#Reproduction"/>
        <cc:permits rdf:resource="http://creativecommons.org/ns#Distribution"/>
        <cc:permits rdf:resource="http://creativecommons.org/ns#DerivativeWorks"/>
      </cc:License>
    </rdf:RDF>
  </metadata>
</svg>
