<?xml version="1.0" encoding="utf-8"?>

<!DOCTYPE svg PUBLIC "-//W3C//DTD SVG 1.1//EN" "http://www.w3.org/Graphics/SVG/1.1/DTD/svg11.dtd">
<svg version="1.1" id="Layer_1" xmlns="http://www.w3.org/2000/svg" xmlns:xlink="http://www.w3.org/1999/xlink" x="0px" y="0px"
	 viewBox="0 0 1690 1690" enable-background="new 0 0 1690 1690" xml:space="preserve">
<g>
	<path fill="#00FF9A" d="M1097.8999,284.6295l-90.9151,81.8596c0,0-15.4621,84.8217-8.9565,132.0605
		c7.0207,50.9206,17.98,104.7058,16.3857,160.6264c-1.624,56.0845-16.9238,112.9078-52.3049,151.1909
		c-32.9727,35.6038-84.3762,42.9767-122.8904,25.6279c-0.0002,0.0003-0.0004,0.0005-0.0006,0.0008
		c27.1429,11.1432,59.7454,14.2777,87.5044-1.2027c29.3461-16.3994,51.9766-46.6729,65.1725-81.1993
		c27.3567-71.7505,14.5944-153.2746,0.7244-226.8817c-6.5314-34.6615-12.9152-67.7582-12.996-99.378
		c-0.0649-30.0808,17.7304-86.4307,17.7304-86.4307l50.7839-168.0327L1097.8999,284.6295z"/>
	<path fill="#00F906" d="M1128.6504,353.6982c0,0-51.772,81.0764-60.2976,129.2564c-9.2733,52.5679-5.7712,111.3898-13.9481,172.416
		c-8.4147,62.6314-29.8619,126.3048-73.9932,167.239c-41.142,38.0809-102.4957,41.3361-141.1918,13.384
		c-0.0004,0.0004-0.0007,0.0009-0.001,0.0012c38.5143,17.3488,89.9177,9.976,122.8904-25.6279
		c35.3812-38.2831,50.6809-95.1064,52.3049-151.1909c1.5943-55.9206-9.365-109.7058-16.3857-160.6264
		c-6.5056-47.2388,8.9565-132.0605,8.9565-132.0605L1128.6504,353.6982z"/>
	<path fill="#46299B" d="M1178.4102,465.4616c0,0-47.2477,72.1371-59.5492,118.239
		c-13.2671,49.7518-23.9352,103.7557-47.0386,154.9669c-23.2299,51.4306-59.4368,98.3547-107.2432,120.417
		c-44.6533,20.5519-96.5096,8.5012-125.3587-23.0922c-0.0003,0.0004-0.0006,0.0008-0.0009,0.0012
		c38.6961,27.9521,100.0498,24.697,141.1918-13.384c44.1313-40.9341,65.5786-104.6075,73.9932-167.239
		c8.1769-61.0262,4.6748-119.8481,13.9481-172.416c8.5256-48.1799,60.2976-129.2564,60.2976-129.2564L1178.4102,465.4616z"/>
	<path fill="#00A193" d="M1325.5125,333.013l-120.1287,127.9965c0,0-41.108,42.4532-54.5735,69.343
		c-14.1488,28.2828-23.2716,60.7686-32.9318,94.7552c-20.5443,72.2793-45.5071,151.3656-102.3154,203.9524
		c-27.4351,25.3555-61.5292,42.7004-95.611,44.5542c-32.3079,1.7289-61.4617-15.0136-80.731-37.6227
		c-0.0002,0.0002-0.0004,0.0005-0.0006,0.0008c28.8491,31.5934,80.7054,43.6441,125.3587,23.0922
		c47.8064-22.0623,84.0133-68.9864,107.2432-120.417c23.1034-51.2112,33.7715-105.2151,47.0386-154.9669
		c12.3015-46.1019,59.5492-118.239,59.5492-118.239l25.4349-119.6646L1325.5125,333.013z"/>
	<polygon fill="#00B4D9" points="1325.5125,333.013 1203.8451,345.797 1178.4102,465.4616 1128.6504,353.6982 1006.9848,366.4891 
		1097.8999,284.6295 1048.1376,172.8705 1154.0828,234.038 1244.9978,152.1784 1219.5629,271.843 	"/>
	<path fill="#ACF100" d="M1344.203,486.1549l-119.6646,25.4349c0,0-56.3193,65.2854-74.5079,109.3804
		c-19.6279,47.6058-37.1779,99.8088-66.6891,147.6863c-29.6824,48.1074-71.6543,90.1222-122.0216,106.0221
		c-47.0809,14.8099-97.6895-3.3383-122.1017-38.6844c-0.0003,0.0001-0.0006,0.0003-0.0009,0.0004
		c17.7552,23.8828,46.0511,42.2903,78.4795,42.553c34.2004,0.2473,69.3604-14.9684,98.3685-38.592
		c60.0483-48.9819,89.959-126.3744,115.0731-197.2147c11.8062-33.3017,22.9913-65.1331,38.9363-92.4355
		c15.1732-25.9569,58.916-65.6893,58.916-65.6893l127.9965-120.1287L1344.203,486.1549z"/>
	<path fill="#008AA7" d="M1336.2993,561.3453c0,0-85.5317,44.0168-117.2971,81.114
		c-34.6481,40.5084-61.1761,93.1719-98.8208,142.0955c-38.7493,50.3232-89.2665,95.2817-148.4837,109.3589
		c-55.3832,13.1048-113.7111-13.1535-132.4781-57.9202c-0.0005,0.0002-0.001,0.0004-0.0015,0.0006
		c24.4122,35.3461,75.0208,53.4944,122.1017,38.6844c50.3673-15.8999,92.3392-57.9147,122.0216-106.0221
		c29.5112-47.8774,47.0612-100.0804,66.6891-147.6863c18.1886-44.095,74.5079-109.3804,74.5079-109.3804L1336.2993,561.3453z"/>
	<path fill="#00EBA9" d="M1323.5109,683.0152c0,0-40.03,13.9905-58.01,25.9738c-18.6123,12.4131-35.9459,28.1927-53.1958,45.2938
		c-36.5127,36.207-72.7207,77.7009-118.3033,110.8388c-45.9171,33.3507-100.8615,56.5903-153.9727,52.5841
		c-49.7468-3.8027-92.5757-39.0588-100.808-81.7128c-0.0005,0.0002-0.0009,0.0004-0.0014,0.0006
		c18.767,44.7667,77.0949,71.025,132.4781,57.9202c59.2172-14.0772,109.7344-59.0357,148.4837-109.3589
		c37.6447-48.9236,64.1727-101.5871,98.8208-142.0955c31.7654-37.0971,117.2971-81.114,117.2971-81.114L1323.5109,683.0152z"/>
	<path fill="#00188D" d="M1517.1295,641.8625l-168.0327,50.7838c0,0-56.9304,15.8115-82.1879,31.9739
		c-26.5361,16.9962-50.7855,40.3416-76.1559,64.8329c-54.0735,52.2014-115.0122,108.6792-190.8424,126.8298
		c-71.6533,17.071-151.2811-20.5558-160.6887-80.2905c-0.0003,0.0001-0.0006,0.0003-0.0009,0.0004
		c8.2323,42.654,51.0613,77.9102,100.808,81.7128c53.1111,4.0062,108.0555-19.2334,153.9727-52.5841
		c45.5826-33.1379,81.7906-74.6318,118.3033-110.8388c17.2499-17.1011,34.5835-32.8807,53.1958-45.2938
		c17.98-11.9833,58.01-25.9738,58.01-25.9738l81.8596-90.9151L1517.1295,641.8625z"/>
	<polygon fill="#B39A00" points="1517.1295,641.8625 1405.3705,592.1001 1323.5109,683.0152 1336.2993,561.3453 1224.5385,511.5898 
		1344.203,486.1549 1356.9871,364.4875 1418.1545,470.4327 1537.8191,444.9978 1455.9595,535.9129 	"/>
	<path fill="#0089CB" d="M1456.745,783.8325l-116.35-37.805c0,0-41.5211,8.5855-60.916,18.0602
		c-20.0724,9.8135-39.3075,23.1606-58.614,37.8503c-40.8796,31.1126-82.0818,67.6104-131.5043,94.7156
		c-49.8134,27.2917-107.2838,43.4984-159.6147,32.9608c-49.0421-9.9262-88.0582-50.1147-90.528-93.621
		c-0.0003-0.0001-0.0006-0.0001-0.001-0.0001c5.4755,60.3179,83.2277,102.6071,155.8746,89.9451
		c76.8497-13.4778,141.1794-66.051,198.4495-114.698c26.8627-22.8174,52.5497-44.5433,80.1218-59.7591
		c26.2469-14.4701,84.0746-26.5875,84.0746-26.5875l170.9125-40.0363L1456.745,783.8325z"/>
	<path fill="#00F32C" d="M1412.3051,844.9975c0,0-96.0476-5.1314-142.1256,10.4098
		c-50.2329,16.9745-99.4305,49.1639-156.291,73.0207c-58.6746,24.595-124.8528,39.2015-183.9864,22.8923
		c-55.4478-15.3538-97.7829-66.6967-90.6824-115.3267c-0.0005-0.0001-0.001-0.0001-0.0016-0.0001
		c2.4698,43.5063,41.4858,83.6948,90.528,93.621c52.3309,10.5375,109.8014-5.6691,159.6147-32.9608
		c49.4225-27.1052,90.6246-63.603,131.5043-94.7156c19.3065-14.6897,38.5416-28.0368,58.614-37.8503
		c19.3949-9.4747,60.916-18.0602,60.916-18.0602L1412.3051,844.9975z"/>
	<path fill="#AB8F00" d="M1340.395,943.9725c0,0-85.6592-7.44-131.4413,4.3329c-49.5461,12.7511-101.3949,30.7465-157.3427,37.2559
		c-56.4834,6.5477-115.9169,0.2758-161.0001-28.779c-42.2943-27.3163-66.1323-79.4774-51.3898-120.7886
		c-0.0005-0.0001-0.001-0.0001-0.0015-0.0002c-7.1005,48.6301,35.2346,99.973,90.6824,115.3267
		c59.1335,16.3093,125.3118,1.7027,183.9864-22.8923c56.8605-23.8568,106.0581-56.0462,156.291-73.0207
		c46.078-15.5412,142.1256-10.4098,142.1256-10.4098L1340.395,943.9725z"/>
	<path fill="#8BC300" d="M1528.65,1005.1425l-170.9125-40.0363c0,0-57.0763-15.2074-86.9149-14.3708
		c-31.2991,0.8912-63.8569,8.6756-97.8929,17.11c-72.7019,18.0187-153.2915,37.3343-228.7194,16.5688
		c-71.4804-19.758-127.3608-91.6425-104.9882-148.4206c-0.0004,0-0.0007-0.0001-0.001-0.0001
		c-14.7425,41.3112,9.0955,93.4723,51.3898,120.7886c45.0832,29.0547,104.5167,35.3267,161.0001,28.779
		c55.9478-6.5094,107.7965-24.5048,157.3427-37.2559c45.7821-11.7729,131.4413-4.3329,131.4413-4.3329l116.35-37.805
		L1528.65,1005.1425z"/>
	<polygon fill="#EF0038" points="1528.65,1005.1425 1456.745,906.1675 1340.395,943.9725 1412.3051,844.9975 1340.395,746.0275 
		1456.745,783.8325 1528.65,684.8575 1528.65,807.1925 1645,844.9975 1528.65,882.8025 	"/>
	<path fill="#F1007A" d="M1405.3705,1097.8999l-81.8596-90.9151c0,0-83.8671-18.7582-130.7029-13.0557
		c-50.6995,6.1831-104.3479,17.4078-160.6321,16.8331c-56.8505-0.6041-115.0322-14.1755-156.2811-48.5258
		c-38.7018-32.2933-56.5707-87.1035-36.6765-126.2438c-0.0002-0.0002-0.0005-0.0004-0.0007-0.0005
		c-25.8871,55.2975,25.9329,130.4489,96.114,154.5156c74.0379,25.3041,155.6201,11.0112,229.2726-2.3522
		c34.473-6.2534,67.438-11.9229,98.7009-10.7617c29.8118,1.1204,85.7916,19.9599,85.7916,19.9599l168.0327,50.7839
		L1405.3705,1097.8999z"/>
	<path fill="#0078B3" d="M1336.3018,1128.6504c0,0-80.3546-52.8317-127.6323-63.0665
		c-51.436-11.1027-109.8044-7.84-170.7726-15.0314c-63.0536-7.4575-127.866-26.6664-172.1973-69.2914
		c-41.6094-40.0883-56.7969-106.356-26.48-145.2675c-0.0004-0.0003-0.0009-0.0006-0.0013-0.0009
		c-19.8942,39.1403-2.0253,93.9504,36.6765,126.2438c41.249,34.3503,99.4307,47.9216,156.2811,48.5258
		c56.2842,0.5747,109.9326-10.65,160.6321-16.8331c46.8358-5.7025,130.7029,13.0557,130.7029,13.0557L1336.3018,1128.6504z"/>
	<path fill="#0D00EF" d="M1224.5385,1178.4102c0,0-69.5394-50.2864-114.6522-63.0978
		c-48.8575-13.8635-102.4861-23.812-154.2827-45.3765c-52.3766-21.8309-101.294-55.8333-127.2315-102.8348
		c-24.3195-44.1705-22.1176-102.2034,10.8488-131.1066c-0.0004-0.0003-0.0009-0.0006-0.0012-0.0009
		c-30.3169,38.9115-15.1295,105.1792,26.48,145.2675c44.3312,42.6251,109.1436,61.8339,172.1973,69.2914
		c60.9681,7.1914,119.3365,3.9287,170.7726,15.0314c47.2777,10.2349,127.6323,63.0665,127.6323,63.0665L1224.5385,1178.4102z"/>
	<path fill="#28EF00" d="M1356.9871,1325.5125l-127.9965-120.1287c0,0-41.5618-41.9424-67.4547-56.5165
		c-27.0956-15.2347-58.8917-24.9404-92.3287-34.5782c-71.5358-20.6151-150.8116-42.9641-206.9343-97.3345
		c-53.2461-51.6879-70.1156-142.217-23.0513-180.9596c-0.0002-0.0002-0.0005-0.0004-0.0007-0.0005
		c-32.9664,28.9033-35.1683,86.9362-10.8488,131.1066c25.9375,47.0016,74.8549,81.0039,127.2315,102.8348
		c51.7966,21.5645,105.4252,31.5129,154.2827,45.3765c45.1128,12.8114,114.6522,63.0978,114.6522,63.0978l119.6646,25.4349
		L1356.9871,1325.5125z"/>
	<polygon fill="#0600EB" points="1356.9871,1325.5125 1344.203,1203.8451 1224.5385,1178.4102 1336.3018,1128.6504 
		1323.5109,1006.9848 1405.3705,1097.8999 1517.1295,1048.1376 1455.962,1154.0828 1537.8215,1244.9978 1418.157,1219.5629 	"/>
	<path fill="#0002D9" d="M1203.8451,1344.203l-25.4349-119.6646c0,0-62.2621-59.006-105.2479-77.5256
		c-46.5564-20.0459-98.3913-36.7098-147.0021-64.5735c-49.1665-28.2083-93.4324-67.9489-113.425-117.7278
		c-18.7311-46.7677-9.7069-104.1268,26.4839-128.7194c-0.0001-0.0002-0.0002-0.0005-0.0004-0.0009
		c-49.2689,35.8036-37.7331,127.1614,12.2589,181.9684c52.6945,57.6532,130.3693,84.8303,200.3995,109.9084
		c32.729,11.7224,63.8116,23.4363,89.8354,40.3898c24.8761,16.222,63.6713,60.7327,63.6713,60.7327l120.1287,127.9965
		L1203.8451,1344.203z"/>
	<path fill="#F50600" d="M1128.6547,1336.2993c0,0-42.8951-86.0472-78.1635-118.8278
		c-38.2675-35.5231-90.1278-61.6425-139.3607-97.6521c-50.9791-37.3101-98.0751-85.2003-116.6063-143.6433
		c-17.3539-54.9179-0.1906-120.6933,44.6954-140.1826c-0.0002-0.0005-0.0004-0.0009-0.0006-0.0014
		c-36.1909,24.5926-45.215,81.9517-26.4839,128.7194c19.9927,49.7789,64.2585,89.5195,113.425,117.7278
		c48.6108,27.8636,100.4457,44.5276,147.0021,64.5735c42.9858,18.5197,105.2479,77.5256,105.2479,77.5256L1128.6547,1336.2993z"/>
	<path fill="#F92D81" d="M1006.9848,1323.5109c0,0-34.1806-78.5736-66.5223-112.061
		c-35.0242-36.2478-76.4152-71.1619-110.823-115.0455c-34.8057-44.4269-60.9854-97.4641-61.2923-150.866
		c-0.2404-50.0995,28.6382-100.037,70.873-109.5434c-0.0002-0.0005-0.0004-0.0009-0.0005-0.0014
		c-44.886,19.4893-62.0493,85.2647-44.6954,140.1826c18.5311,58.443,65.6272,106.3333,116.6063,143.6433
		c49.2329,36.0096,101.0932,62.129,139.3607,97.6521c35.2683,32.7805,78.1635,118.8278,78.1635,118.8278L1006.9848,1323.5109z"/>
	<path fill="#00D1CF" d="M1048.1376,1517.1295l-50.7839-168.0327c0,0-14.8286-57.1383-29.6118-82.7943
		c-15.4367-26.7612-37.8661-51.01-61.8592-75.8519c-51.3613-53.1713-109.0941-110.9954-131.855-185.314
		c-21.5403-70.583,6.0894-157.7637,65.1928-169.1408c-0.0001-0.0003-0.0002-0.0005-0.0004-0.0009
		c-42.2347,9.5064-71.1133,59.4438-70.873,109.5434c0.3069,53.4019,26.4866,106.4391,61.2923,150.866
		c34.4078,43.8837,75.7988,78.7977,110.823,115.0455c32.3417,33.4874,66.5223,112.061,66.5223,112.061l90.9151,81.8596
		L1048.1376,1517.1295z"/>
	<polygon fill="#00D503" points="1048.1376,1517.1295 1097.8999,1405.3705 1006.9848,1323.5109 1128.6547,1336.2993 
		1178.4102,1224.5385 1203.8451,1344.203 1325.5125,1356.9871 1219.5673,1418.1545 1245.0022,1537.8191 1154.087,1455.9595 	"/>
	<path fill="#00B9CB" d="M906.1675,1456.745l37.805-116.35c0,0-23.6343-82.3363-51.3459-119.6605
		c-30.007-40.3958-66.5477-80.2317-95.0867-128.0322c-28.8636-48.3868-48.1533-104.162-41.8415-157.077
		c5.9653-49.6096,40.6404-95.4583,83.5214-99.6333c0.0001-0.0003,0.0001-0.0006,0.0001-0.0009
		c-59.5543,7.7358-92.3649,92.9507-75.2213,164.6505c18.1343,75.5126,72.1095,136.7516,119.9753,193.0113
		c22.3602,26.2852,43.1879,51.8948,56.866,79.5759c13.101,26.5443,24.2664,84.5088,24.2664,84.5088l40.0363,170.9125
		L906.1675,1456.745z"/>
	<path fill="#007747" d="M845.0025,1412.3051c0,0,6.0103-95.9496-7.8434-141.9155
		c-15.0117-49.6918-46.7832-97.8757-71.6831-153.1123c-25.7722-57.2157-43.319-121.4549-31.3194-181.0871
		c11.3041-55.8948,57.2692-104.7515,105.063-100.1966c0.0001-0.0005,0.0001-0.001,0.0002-0.0015
		c-42.881,4.175-77.5561,50.0237-83.5214,99.6333c-6.3118,52.9149,12.9779,108.6901,41.8415,157.077
		c28.5391,47.8005,65.0798,87.6365,95.0867,128.0322c27.7116,37.3242,51.3459,119.6605,51.3459,119.6605L845.0025,1412.3051z"/>
	<path fill="#1700B9" d="M746.0275,1340.395c0,0,9.9622-85.0197-1.2878-129.9666c-12.1804-48.6132-30.7107-99.126-38.9699-153.899
		c-8.332-55.4011-5.1993-113.9069,20.2996-160.2141c23.8964-43.2998,72.5965-72.4643,113.15-60.3203
		c0.0001-0.0005,0.0001-0.001,0.0002-0.0015c-47.7938-4.5549-93.7589,44.3018-105.063,100.1966
		c-11.9996,59.6322,5.5472,123.8714,31.3194,181.0871c24.8999,55.2366,56.6714,103.4205,71.6831,153.1123
		c13.8536,45.9659,7.8434,141.9155,7.8434,141.9155L746.0275,1340.395z"/>
	<path fill="#EBCA00" d="M684.8575,1528.65l40.0363-170.9125c0,0,15.7746-56.8806,15.8851-86.4391
		c0.1005-30.7839-7.1685-62.8588-15.5746-96.1641c-17.9879-71.2444-39.5251-149.4059-23.0893-224.7347
		c15.6382-71.3362,81.2767-133.1321,137.1044-114.4037c0-0.0003,0.0001-0.0006,0.0001-0.0009
		c-40.5535-12.144-89.2536,17.0205-113.15,60.3203c-25.4989,46.3071-28.6316,104.813-20.2996,160.2141
		c8.2592,54.7731,26.7895,105.2859,38.9699,153.899c11.2501,44.9469,1.2878,129.9666,1.2878,129.9666l37.805,116.35
		L684.8575,1528.65z"/>
	<polygon fill="#E7003B" points="684.8575,1528.65 783.8325,1456.745 746.0275,1340.395 845.0025,1412.3051 943.9725,1340.395 
		906.1675,1456.745 1005.1425,1528.65 882.8075,1528.65 845.0025,1645 807.1975,1528.65 	"/>
	<path fill="#E3008C" d="M592.1001,1405.3705l90.9151-81.8596c0,0,20.7955-83.0226,15.3992-129.0107
		c-5.8473-49.7257-17.7488-102.1283-18.9452-157.4225c-1.188-55.9052,9.3526-113.3951,40.4502-155.9484
		c29.1053-39.7481,80.913-62.3453,119.3011-45.1369c0.0002-0.0002,0.0004-0.0005,0.0006-0.0008
		c-54.3539-22.1951-123.6229,35.2526-143.671,105.3654c-21.1015,74.0721-4.5297,153.366,8.9304,225.5593
		c6.2905,33.7537,11.5221,66.2123,9.4823,96.922c-1.9728,29.4904-21.3166,85.2587-21.3166,85.2587l-50.7838,168.0327
		L592.1001,1405.3705z"/>
	<path fill="#CD0062" d="M561.3497,1336.3018c0,0,53.1717-80.1111,64.0189-126.8344
		c11.6768-50.4448,8.0843-107.8231,13.8471-167.8213c5.9778-62.0503,22.4197-125.9852,61.9248-171.3696
		c36.9473-42.3627,100.0602-61.6277,138.0792-34.283c0.0003-0.0004,0.0006-0.0008,0.0009-0.0012
		c-38.3881-17.2084-90.1958,5.3888-119.3011,45.1369c-31.0976,42.5533-41.6382,100.0433-40.4502,155.9484
		c1.1964,55.2942,13.0979,107.6968,18.9452,157.4225c5.3964,45.9882-15.3992,129.0107-15.3992,129.0107L561.3497,1336.3018z"/>
	<path fill="#00AD4C" d="M511.5898,1224.5385c0,0,50.7865-68.8601,63.3114-113.4133
		c13.5176-48.129,22.5407-100.9548,42.5393-152.2796c20.209-51.8056,51.798-100.4959,96.4563-127.5186
		c41.6445-25.1448,97.4255-25.7734,125.3218,4.6678c0.0003-0.0004,0.0006-0.0008,0.001-0.0012
		c-38.0189-27.3448-101.1318-8.0797-138.0792,34.283c-39.5051,45.3845-55.947,109.3193-61.9248,171.3696
		c-5.7628,59.9982-2.1703,117.3765-13.8471,167.8213c-10.8472,46.7233-64.0189,126.8344-64.0189,126.8344L511.5898,1224.5385z"/>
	<path fill="#00D78C" d="M364.4875,1356.9871l120.1287-127.9965c0,0,42.0471-41.4413,56.7426-67.0907
		c15.2866-26.7101,24.8643-58.1283,34.0966-91.1434c19.7127-70.5142,39.8949-148.5568,91.291-205.1131
		c48.5404-53.3081,135.1216-73.309,172.4716-29.6478c0.0002-0.0002,0.0004-0.0005,0.0006-0.0008
		c-27.8963-30.4412-83.6773-29.8126-125.3218-4.6678c-44.6583,27.0226-76.2473,75.713-96.4563,127.5186
		c-19.9986,51.3248-29.0217,104.1506-42.5393,152.2796c-12.5249,44.5532-63.3114,113.4133-63.3114,113.4133l-25.4349,119.6646
		L364.4875,1356.9871z"/>
	<polygon fill="#FD0C00" points="364.4875,1356.9871 486.1549,1344.203 511.5898,1224.5385 561.3497,1336.3018 683.0152,1323.5109 
		592.1001,1405.3705 641.8625,1517.1295 535.9172,1455.962 445.0022,1537.8215 470.4371,1418.157 	"/>
	<path fill="#8B0074" d="M345.797,1203.8451l119.6646-25.4349c0,0,59.0894-61.8804,77.1942-104.4886
		c19.5388-46.0134,35.274-97.2155,61.7133-145.4739c26.694-48.6783,64.2734-92.7548,111.9382-113.6246
		c44.397-19.3887,99.5184-12.5814,122.9137,21.17c0.0003-0.0001,0.0006-0.0003,0.0009-0.0004
		c-34.2693-45.925-121.8197-31.6533-173.5943,18.3584c-54.8577,53.0948-79.9526,129.6594-104.0567,198.7797
		c-11.291,32.3701-22.8145,63.1306-39.7285,88.8484c-16.2571,24.694-60.833,63.4048-60.833,63.4048L333.013,1325.5125
		L345.797,1203.8451z"/>
	<path fill="#41B900" d="M353.7007,1128.6547c0,0,86.049-42.969,118.4783-78.3921c34.9859-38.2642,60.3722-89.7922,95.2882-138.7429
		c36.0365-50.4902,82.1277-97.1388,138.5486-116.0354c52.5051-17.5277,115.4186-1.7144,133.2037,40.5092
		c0.0005-0.0002,0.0009-0.0004,0.0014-0.0006c-23.3953-33.7514-78.5167-40.5587-122.9137-21.17
		c-47.6648,20.8699-85.2442,64.9463-111.9382,113.6246c-26.4393,48.2584-42.1745,99.4605-61.7133,145.4739
		c-18.1048,42.6083-77.1942,104.4886-77.1942,104.4886L353.7007,1128.6547z"/>
	<path fill="#BC1FD9" d="M366.4891,1006.9848c0,0,78.013-35.1852,111.0157-67.8093
		c35.5917-35.1993,69.811-76.4029,112.8056-110.5629c43.3048-34.3787,94.8798-60.1061,146.4534-60.4292
		c47.881-0.2538,94.7221,28.0017,102.4543,67.8108c0.0005-0.0002,0.001-0.0004,0.0015-0.0006
		c-17.785-42.2236-80.6986-58.0369-133.2037-40.5092c-56.421,18.8966-102.5121,65.5452-138.5486,116.0354
		c-34.916,48.9506-60.3024,100.4787-95.2882,138.7429c-32.4294,35.4231-118.4783,78.3921-118.4783,78.3921L366.4891,1006.9848z"/>
	<path fill="#008538" d="M172.8705,1048.1376l168.0327-50.7839c0,0,57.088-15.1031,82.4628-30.377
		c26.4397-15.9313,50.3071-38.5945,74.7731-62.7016c52.139-51.3804,108.8046-108.463,181.2925-130.8182
		c68.0917-20.9248,150.9249,6.8393,159.7856,62.5377c0.0003-0.0001,0.0006-0.0003,0.0009-0.0004
		c-7.7322-39.8091-54.5733-68.0646-102.4543-67.8108c-51.5737,0.3231-103.1486,26.0505-146.4534,60.4292
		c-42.9946,34.16-77.2139,75.3636-112.8056,110.5629c-33.0027,32.6241-111.0157,67.8093-111.0157,67.8093l-81.8596,90.9151
		L172.8705,1048.1376z"/>
	<polygon fill="#009329" points="172.8705,1048.1376 284.6295,1097.8999 366.4891,1006.9848 353.7007,1128.6547 465.4616,1178.4102 
		345.797,1203.8451 333.013,1325.5125 271.8455,1219.5673 152.1809,1245.0022 234.0405,1154.087 	"/>
	<path fill="#209D0A" d="M233.255,906.1675l116.35,37.805c0,0,81.8163-25.1545,118.7446-53.3509
		c39.8149-30.4142,79.0971-66.8571,126.1797-95.0897c47.3869-28.3894,101.8566-47.0363,152.8811-40.4467
		c47.3264,6.1587,89.4828,40.5222,91.8107,80.9085c0.0003,0,0.0006,0.0001,0.001,0.0001
		c-5.1648-56.0795-85.7076-89.3381-154.9363-72.9245c-73.7427,17.5621-133.9684,70.8785-189.2538,118.8816
		c-25.9491,22.5283-51.1929,43.6718-78.574,57.9628c-26.2715,13.6968-84.1955,25.1926-84.1955,25.1926L161.35,1005.1425
		L233.255,906.1675z"/>
	<path fill="#B93700" d="M277.695,845.0025c0,0,96.0525,5.4559,141.7775-9.7378c49.432-16.4586,97.2294-48.577,152.1177-73.2606
		c56.4719-25.3749,119.751-41.884,177.3234-28.9927c53.35,12.002,96.8351,58.1274,90.3059,102.9821
		c0.0005,0.0001,0.001,0.0001,0.0015,0.0002c-2.3279-40.3863-44.4843-74.7498-91.8107-80.9085
		c-51.0245-6.5896-105.4942,12.0573-152.8811,40.4467c-47.0826,28.2326-86.3647,64.6755-126.1797,95.0897
		c-36.9283,28.1964-118.7446,53.3509-118.7446,53.3509L277.695,845.0025z"/>
	<path fill="#006A8B" d="M349.605,746.0275c0,0,85.3754,7.1356,130.4574-4.9818c48.5715-13.066,99.0284-31.5129,153.434-39.0519
		c54.6411-7.5489,111.9548-3.0454,155.7609,23.3907c40.5357,24.517,63.5342,72.589,49.9608,110.6089
		c0.0005,0,0.001,0.0001,0.0016,0.0001c6.5292-44.8546-36.9559-90.98-90.3059-102.9821
		c-57.5724-12.8914-120.8515,3.6178-177.3234,28.9927c-54.8884,24.6836-102.6857,56.802-152.1177,73.2606
		c-45.725,15.1937-141.7775,9.7378-141.7775,9.7378L349.605,746.0275z"/>
	<path fill="#97B700" d="M161.35,684.8575l170.9125,40.0363c0,0,57.105,15.0869,86.8089,13.9994
		c31.025-1.1494,63.116-9.1694,96.5175-17.926c71.0331-18.6254,149.0308-38.9323,222.3573-20.697
		c68.5734,17.1279,121.8355,83.579,101.2709,135.7231c0.0004,0.0001,0.0007,0.0001,0.001,0.0001
		c13.5734-38.0199-9.425-86.0919-49.9608-110.6089c-43.806-26.4362-101.1198-30.9396-155.7609-23.3907
		c-54.4055,7.5391-104.8624,25.986-153.434,39.0519c-45.0821,12.1174-130.4574,4.9818-130.4574,4.9818l-116.35,37.805
		L161.35,684.8575z"/>
	<polygon fill="#6D005D" points="161.35,684.8575 233.255,783.8325 349.605,746.0275 277.695,845.0025 349.605,943.9725 
		233.255,906.1675 161.35,1005.1425 161.35,882.8075 45,845.0025 161.35,807.1975 	"/>
	<path fill="#F31400" d="M284.6295,592.1001l81.8596,90.9151c0,0,83.8559,17.7236,130.199,11.4414
		c49.9209-6.7773,102.4159-18.5122,157.3733-18.8052c55.1617-0.2713,111.3671,11.8741,151.1248,43.9965
		c36.7687,29.7676,52.3646,80.3292,34.0345,116.3465c0.0002,0.0002,0.0005,0.0004,0.0007,0.0005
		c23.801-50.7625-24.4874-120.5433-91.7448-142.1547c-71.9501-23.0377-151.145-7.8304-223.2571,6.2717
		c-33.9166,6.6313-66.4701,12.639-97.533,11.8882c-29.7305-0.7315-85.7835-19.3539-85.7835-19.3539l-168.0327-50.7838
		L284.6295,592.1001z"/>
	<path fill="#5900E7" d="M353.6982,561.3497c0,0,80.728,52.3492,128.2925,61.3876c51.5623,9.7675,109.3228,5.8191,169.3905,12.4376
		c61.6374,6.8117,124.4994,25.3318,166.6762,66.3086c38.9764,37.945,49.1472,98.671,21.1622,134.5101
		c0.0004,0.0003,0.0008,0.0006,0.0012,0.0009c18.33-36.0173,2.7342-86.5789-34.0345-116.3465
		c-39.7577-32.1224-95.9631-44.2678-151.1248-43.9965c-54.9575,0.293-107.4524,12.0279-157.3733,18.8052
		c-46.3431,6.2822-130.199-11.4414-130.199-11.4414L353.6982,561.3497z"/>
	<path fill="#00C788" d="M465.4616,511.5898c0,0,71.3207,47.7727,116.8267,59.7058
		c49.0016,12.8403,102.1797,22.4824,152.9644,43.9184c50.8969,21.5088,97.6981,55.183,121.0099,100.6459
		c21.529,42.09,13.6023,93.3338-17.0443,120.1328c0.0004,0.0002,0.0009,0.0005,0.0013,0.0009
		c27.985-35.8391,17.8143-96.5651-21.1622-134.5101c-42.1768-40.9767-105.0388-59.4969-166.6762-66.3086
		c-60.0677-6.6185-117.8282-2.6701-169.3905-12.4376c-47.5645-9.0385-128.2925-61.3876-128.2925-61.3876L465.4616,511.5898z"/>
	<path fill="#FB3200" d="M333.013,364.4875l127.9965,120.1287c0,0,42.2424,41.2943,68.8614,54.8294
		c27.8785,14.1609,59.9601,23.0986,93.5096,32.2943c71.2366,19.5238,149.0967,42.1426,202.2906,95.8937
		c49.6092,50.234,57.1891,132.5698,13.5466,168.3586c0.0002,0.0002,0.0005,0.0004,0.0007,0.0005
		c30.6466-26.799,38.5733-78.0428,17.0443-120.1328c-23.3118-45.4628-70.113-79.1371-121.0099-100.6459
		c-50.7847-21.436-103.9628-31.0781-152.9644-43.9184c-45.506-11.9332-116.8267-59.7058-116.8267-59.7058L345.797,486.1549
		L333.013,364.4875z"/>
	<polygon fill="#B1E700" points="333.013,364.4875 345.797,486.1549 465.4616,511.5898 353.6982,561.3497 366.4891,683.0152 
		284.6295,592.1001 172.8705,641.8625 234.038,535.9172 152.1784,445.0022 271.843,470.4371 	"/>
	<path fill="#EF003F" d="M486.1549,345.797l25.4349,119.6646c0,0,64.8122,56.3632,108.4986,74.0665
		c47.0406,19.0529,98.595,35.5876,146.1614,63.5902c47.6546,28.082,89.5794,67.79,106.5014,116.0399
		c15.6169,44.6729,0.2916,93.9274-33.5311,116.8367c0.0001,0.0003,0.0002,0.0005,0.0004,0.0009
		c45.7963-33.1383,44.059-115.545-2.1365-168.9711c-49.5443-57.1775-125.8389-84.8401-195.7486-108.8719
		c-32.9289-11.3203-64.4138-22.2626-91.3892-38.1304c-25.7483-15.1603-65.33-59.0129-65.33-59.0129L364.4875,333.013
		L486.1549,345.797z"/>
	<path fill="#00CDA7" d="M561.3453,353.7007c0,0,44.1509,85.4803,81.3636,116.8462
		c40.4607,34.0659,92.7647,59.8074,141.4131,96.2992c49.8398,37.4121,94.4088,86.0421,108.9573,143.2066
		c13.4081,52.9147-11.5612,107.6694-53.8598,125.9408c0.0002,0.0005,0.0004,0.0009,0.0005,0.0014
		c33.8226-22.9092,49.1479-72.1638,33.5311-116.8367c-16.922-48.2499-58.8468-87.9579-106.5014-116.0399
		c-47.5665-28.0026-99.1208-44.5373-146.1614-63.5902c-43.6864-17.7033-108.4986-74.0665-108.4986-74.0665L561.3453,353.7007z"/>
	<path fill="#A5FD00" d="M683.0152,366.4891c0,0,38.9084,76.7453,72.652,110.0345c36.341,35.8401,77.6261,71.3358,110.506,116.0006
		c32.9185,44.7584,55.7349,98.1909,51.8066,149.4246c-3.6896,47.485-38.4093,85.0351-78.7607,94.0432
		c0.0002,0.0005,0.0004,0.0009,0.0006,0.0014c42.2986-18.2714,67.2679-73.0261,53.8598-125.9408
		c-14.5485-57.1646-59.1175-105.7945-108.9573-143.2066c-48.6484-36.4918-100.9525-62.2332-141.4131-96.2992
		c-37.2126-31.366-81.3636-116.8462-81.3636-116.8462L683.0152,366.4891z"/>
	<path fill="#0046C5" d="M641.8625,172.8705l50.7838,168.0327c0,0,16.2922,56.7921,32.9146,81.7607
		c17.4545,26.1956,41.0067,50.0616,65.5895,75.049c52.1664,53.0243,107.9781,112.7682,125.7401,186.705
		c8.502,35.5155,7.0145,72.7299-7.6096,102.362c-13.799,27.8983-41.6877,43.8033-70.0623,49.2114
		c0.0001,0.0003,0.0002,0.0006,0.0004,0.0009c40.3514-9.0081,75.0712-46.5582,78.7607-94.0432
		c3.9283-51.2337-18.8881-104.6662-51.8066-149.4246c-32.8799-44.6649-74.165-80.1606-110.506-116.0006
		c-33.7435-33.2893-72.652-110.0345-72.652-110.0345l-90.9151-81.8596L641.8625,172.8705z"/>
	<polygon fill="#B811ED" points="641.8625,172.8705 592.1001,284.6295 683.0152,366.4891 561.3453,353.7007 511.5898,465.4616 
		486.1549,345.797 364.4875,333.013 470.4327,271.8455 444.9978,152.1809 535.9129,234.0405 	"/>
	<path fill="#F31200" d="M783.8325,233.255l-37.805,116.35c0,0,9.2925,41.3671,19.2256,60.5737
		c10.283,19.8686,23.9421,38.8688,38.8459,57.9596c31.4675,40.2977,67.8336,80.9511,94.5963,129.6383
		c26.7905,48.7886,42.3478,104.9121,31.5692,155.2777c-10.0457,46.7073-49.714,78.991-91.0452,82.9407
		c-0.0001,0.0003-0.0001,0.0006-0.0001,0.0009c28.7026-3.6745,57.6701-17.6044,73.3151-44.5815
		c16.5783-28.6445,20.5175-65.7329,14.3499-101.7681c-12.9001-75.0105-64.7849-138.3081-113.5058-194.5982
		c-22.9591-26.526-44.9709-51.8524-60.7614-79.1083c-15.0329-25.9723-27.7234-83.6773-27.7234-83.6773L684.8575,161.35
		L783.8325,233.255z"/>
	<path fill="#1EC900" d="M844.9975,277.695c0,0-4.2404,96.1068,12.5753,141.9851c18.3434,49.9644,50.8176,98.8354,74.3757,155.3552
		c24.1227,57.9318,37.6142,123.1255,20.3954,180.0787c-16.0313,52.8244-66.4605,85.4223-113.1243,80.8795
		c-0.0001,0.0005-0.0002,0.001-0.0002,0.0015c41.3312-3.9497,80.9995-36.2335,91.0452-82.9407
		c10.7787-50.3656-4.7787-106.4891-31.5692-155.2777c-26.7628-48.6872-63.1288-89.3406-94.5963-129.6383
		c-14.9039-19.0908-28.563-38.091-38.8459-57.9596c-9.9331-19.2067-19.2256-60.5737-19.2256-60.5737L844.9975,277.695z"/>
	<path fill="#9B0B93" d="M943.9725,349.605c0,0-4.3553,86.0881,8.2115,132.0505c13.5501,49.5289,31.3767,101.3659,37.0608,156.9277
		c5.6739,55.7064-2.0742,113.8887-32.0705,156.3169c-27.9374,39.43-77.6825,53.231-117.9545,41.0919
		c-0.0001,0.0005-0.0001,0.001-0.0002,0.0015c46.6638,4.5428,97.0931-28.0551,113.1243-80.8795
		c17.2188-56.9532,3.7273-122.147-20.3954-180.0787c-23.5581-56.5198-56.0323-105.3907-74.3757-155.3552
		c-16.8157-45.8783-12.5753-141.9851-12.5753-141.9851L943.9725,349.605z"/>
	<path fill="#475D00" d="M1005.1425,161.35l-40.0363,170.9125c0,0-14.1815,57.3653-12.2008,87.3764
		c2.0942,31.5418,10.5709,64.1521,19.2963,98.3096c18.5261,72.5262,36.4587,152.9949,13.7814,226.2662
		c-10.9406,35.249-31.5494,66.8558-59.7284,85.0585c-26.6462,17.1794-59.2811,16.0864-87.0348,6.7179
		c0,0.0003-0.0001,0.0006-0.0001,0.0009c40.272,12.139,90.0171-1.6619,117.9545-41.0919
		c29.9963-42.4282,37.7444-100.6105,32.0705-156.3169c-5.6841-55.5618-23.5107-107.3988-37.0608-156.9277
		c-12.5668-45.9623-8.2115-132.0505-8.2115-132.0505l-37.805-116.35L1005.1425,161.35z"/>
	<polygon fill="#B96F00" points="1005.1425,161.35 906.1675,233.255 943.9725,349.605 844.9975,277.695 746.0275,349.605 
		783.8325,233.255 684.8575,161.35 807.1925,161.35 844.9975,45 882.8025,161.35 	"/>
</g>
</svg>
