<?xml version="1.0" encoding="utf-8"?>

<!DOCTYPE svg PUBLIC "-//W3C//DTD SVG 1.1//EN" "http://www.w3.org/Graphics/SVG/1.1/DTD/svg11.dtd">
<svg version="1.1" id="Layer_1" xmlns="http://www.w3.org/2000/svg" xmlns:xlink="http://www.w3.org/1999/xlink" x="0px" y="0px"
	 viewBox="0 0 1623.078 1623.155" enable-background="new 0 0 1623.078 1623.155" xml:space="preserve">
<g>
	<g>
		<polygon fill="#23078D" points="895.784,713.848 708.353,804.362 792.738,810.263 928.465,716.115 749.189,596.199 
			943.409,502.404 764.133,382.49 958.353,288.695 779.077,168.781 973.297,74.988 880.198,14.425 879.081,30.397 940.617,72.711 
			746.396,166.514 925.672,286.429 731.452,380.225 910.728,500.138 716.508,593.934 		"/>
	</g>
	<g>
		<polygon fill="#C329B5" points="902.396,719.963 709.108,797.182 792.875,808.954 934.839,724.504 764.365,592.375 
			964.654,512.356 794.18,380.229 994.47,300.21 823.995,168.082 1024.285,88.066 935.637,21.156 933.409,37.011 991.843,83.515 
			791.552,163.541 962.027,295.67 761.737,375.689 932.212,507.816 731.922,587.835 		"/>
	</g>
	<g>
		<polygon fill="#65077D" points="908.566,726.524 710.362,790.072 793.104,807.659 940.613,733.317 779.77,589.618 
			985.154,523.766 824.312,380.068 1029.695,314.216 868.853,170.518 1074.236,104.669 990.472,31.738 987.143,47.399 
			1042.191,97.865 836.806,163.725 997.648,307.424 792.264,373.276 953.107,516.974 747.723,582.826 		"/>
	</g>
	<g>
		<polygon fill="#67A317" points="914.262,733.499 712.108,783.066 793.422,806.382 945.757,742.511 795.331,587.942 
			1004.808,536.578 854.381,382.01 1063.858,330.645 913.431,176.078 1122.907,124.716 1044.435,46.12 1040.021,61.51 
			1091.415,115.693 881.936,167.066 1032.363,321.635 822.886,373 973.313,527.567 763.836,578.932 		"/>
	</g>
	<g>
		<polygon fill="#23D9DB" points="919.459,740.855 714.339,776.2 793.829,805.131 950.248,752.042 810.97,587.357 1023.52,550.729 
			884.242,386.045 1096.792,349.418 957.513,184.734 1170.062,148.109 1097.263,64.23 1091.787,79.275 1139.276,136.912 
			926.724,173.547 1066.001,338.232 853.452,374.859 992.73,539.543 780.18,576.171 		"/>
	</g>
	<g>
		<polygon fill="#573715" points="924.129,748.555 717.044,769.505 794.321,803.912 954.063,761.863 826.613,587.863 
			1041.2,566.152 913.748,392.153 1128.335,370.442 1000.884,196.443 1215.47,174.734 1148.699,85.982 1142.187,100.608 
			1185.54,161.417 970.95,183.136 1098.401,357.135 883.814,378.847 1011.265,552.845 796.678,574.557 		"/>
	</g>
	<g>
		<polygon fill="#43017B" points="928.251,756.563 720.209,763.016 794.898,802.729 957.184,771.926 842.181,589.46 1057.76,582.77 
			942.757,400.305 1158.336,393.615 1043.332,211.15 1258.91,204.462 1198.493,111.268 1190.976,125.405 1229.982,189.09 
			1014.399,195.787 1129.402,378.253 913.823,384.943 1028.827,567.408 813.248,574.098 		"/>
	</g>
	<g>
		<polygon fill="#6505B5" points="931.804,764.838 723.819,756.764 795.556,801.59 959.595,782.182 857.601,592.138 
			1073.121,600.503 971.126,410.46 1186.646,418.824 1084.651,228.781 1300.17,237.148 1246.401,139.967 1237.917,153.545 
			1272.385,219.795 1056.861,211.437 1158.855,401.481 943.335,393.117 1045.33,583.16 829.809,574.795 		"/>
	</g>
	<g>
		<polygon fill="#8145D7" points="934.772,773.341 727.856,750.778 796.292,800.499 961.285,792.582 872.796,595.886 
			1087.208,619.264 998.718,422.569 1213.13,445.947 1124.64,249.252 1339.05,272.633 1292.191,171.937 1282.781,184.89 
			1312.543,253.384 1098.127,230.012 1186.616,426.708 972.204,403.33 1060.694,600.024 846.282,576.647 		"/>
	</g>
	<g>
		<polygon fill="#39272B" points="937.139,782.031 732.301,745.089 797.101,799.463 962.245,803.074 887.693,600.684 
			1099.951,638.962 1025.398,436.574 1237.657,474.851 1163.103,272.463 1375.36,310.743 1335.64,207.024 1325.348,219.289 
			1350.26,289.692 1137.996,251.42 1212.549,453.81 1000.29,415.532 1074.844,617.92 862.585,579.642 		"/>
	</g>
	<g>
		<polygon fill="#1FD34D" points="938.894,790.864 737.132,739.723 797.982,798.485 962.471,813.607 902.218,606.51 
			1111.29,659.501 1051.036,452.405 1260.108,505.396 1199.853,298.3 1408.923,351.293 1376.534,245.056 1365.412,256.573 
			1385.353,328.542 1176.276,275.557 1236.529,482.654 1027.457,429.663 1087.712,636.759 878.64,583.768 		"/>
	</g>
	<g>
		<polygon fill="#81F15D" points="940.029,799.798 742.326,734.708 798.928,797.571 961.962,824.131 916.302,613.335 
			1121.168,680.781 1075.507,469.987 1280.373,537.432 1234.712,326.638 1439.576,394.086 1414.677,285.848 1402.778,296.561 
			1417.65,369.746 1212.778,302.305 1258.438,513.101 1053.573,445.655 1099.234,656.45 894.368,589.004 		"/>
	</g>
	<g>
		<polygon fill="#17DDBD" points="940.537,808.79 747.857,730.067 799.936,796.726 960.72,834.593 929.876,621.126 
			1129.538,702.698 1098.692,489.232 1298.354,570.804 1267.509,357.338 1467.168,438.912 1449.88,329.202 1437.264,339.059 
			1446.994,413.103 1247.326,331.535 1278.17,545.002 1078.508,463.43 1109.354,676.896 909.692,595.324 		"/>
	</g>
	<g>
		<polygon fill="#2D8F55" points="940.417,817.795 753.697,725.823 801,795.952 958.751,844.943 942.873,629.845 1136.358,725.146 
			1120.478,510.048 1313.964,605.349 1298.084,390.251 1491.567,485.555 1481.974,374.905 1468.701,383.858 1473.242,458.4 
			1279.75,363.103 1295.629,578.202 1102.144,482.901 1118.023,697.999 924.538,602.697 		"/>
	</g>
	<g>
		<polygon fill="#5F7791" points="939.67,826.77 759.82,721.998 802.116,795.255 956.065,855.131 955.23,639.449 1141.596,748.015 
			1140.759,532.333 1327.126,640.899 1326.289,425.217 1512.653,533.785 1510.802,422.736 1496.936,430.741 1496.267,505.419 
			1309.894,396.857 1310.729,612.539 1124.363,503.973 1125.2,719.654 938.833,611.089 		"/>
	</g>
	<g>
		<polygon fill="#A7C713" points="938.298,835.671 766.195,718.608 803.277,794.638 952.675,865.107 966.887,649.891 
			1145.226,771.193 1159.437,555.979 1337.776,677.28 1351.986,462.066 1530.323,583.369 1536.223,472.461 1521.832,479.48 
			1515.956,553.929 1337.609,432.63 1323.397,647.846 1145.058,526.544 1130.848,741.758 952.509,620.456 		"/>
	</g>
	<g>
		<polygon fill="#D1A71D" points="936.308,844.455 772.791,715.671 804.479,794.103 948.597,874.821 977.787,661.122 
			1147.23,794.568 1176.419,580.869 1345.862,714.316 1375.051,500.617 1544.491,634.065 1558.113,523.839 1543.268,529.836 
			1532.212,603.694 1362.762,470.25 1333.572,683.95 1164.129,550.503 1134.94,764.202 965.497,630.756 		"/>
	</g>
	<g>
		<polygon fill="#BF1D2D" points="933.711,853.078 779.575,713.202 805.715,793.653 943.852,884.228 987.878,673.085 
			1147.599,818.026 1191.623,606.884 1351.345,751.825 1395.369,540.683 1555.088,685.625 1576.366,576.618 1561.139,581.565 
			1544.958,654.472 1385.229,509.533 1341.203,720.676 1181.482,575.734 1137.457,786.877 977.736,641.936 		"/>
	</g>
	<g>
		<polygon fill="#E57117" points="930.519,861.499 786.515,711.212 806.98,793.29 938.461,893.281 997.109,685.723 1146.33,841.453 
			1204.976,633.896 1354.198,789.626 1412.844,582.069 1562.063,737.799 1590.893,630.542 1575.358,634.415 1554.131,706.015 
			1404.901,550.287 1346.254,757.845 1197.032,602.115 1138.386,809.672 989.164,653.942 		"/>
	</g>
	<g>
		<polygon fill="#DD35A5" points="926.746,869.677 793.577,709.711 808.266,793.017 932.453,901.935 1005.436,698.974 
			1143.431,864.734 1216.412,661.774 1354.407,827.533 1427.389,624.573 1565.381,790.333 1601.623,685.348 1585.855,688.128 
			1559.685,758.073 1421.682,592.315 1348.699,795.276 1210.704,629.516 1137.723,832.476 999.728,666.717 		"/>
	</g>
	<g>
		<polygon fill="#0D95F9" points="922.413,877.572 800.727,708.706 809.569,792.833 925.855,910.15 1012.818,712.774 
			1138.914,887.756 1225.876,690.381 1351.972,865.363 1438.933,667.988 1565.027,842.97 1608.504,740.769 1592.581,742.442 
			1561.595,810.391 1435.491,635.41 1348.528,832.786 1222.432,657.804 1135.471,855.179 1009.374,680.197 		"/>
	</g>
	<g>
		<polygon fill="#9BAF35" points="917.539,885.146 807.929,708.203 810.881,792.742 918.701,917.884 1019.22,727.055 
			1132.803,910.407 1233.321,719.579 1346.904,902.931 1447.422,712.102 1561.001,895.454 1611.502,796.535 1595.501,797.093 
			1559.851,862.716 1446.26,679.364 1345.741,870.192 1232.158,686.841 1131.64,877.669 1018.057,694.317 		"/>
	</g>
	<g>
		<polygon fill="#33F981" points="912.149,892.361 815.149,708.203 812.197,792.742 911.024,925.1 1024.61,741.748 
			1125.126,932.577 1238.711,749.225 1339.227,940.053 1452.812,756.702 1553.325,947.53 1610.602,852.374 1594.601,851.815 
			1554.461,914.791 1453.937,723.962 1340.351,907.314 1239.834,716.485 1126.25,899.837 1025.734,709.009 		"/>
	</g>
	<g>
		<polygon fill="#63277D" points="906.269,899.182 822.351,708.706 813.509,792.833 902.863,931.763 1028.962,756.782 
			1115.922,954.157 1242.02,779.175 1328.98,976.55 1455.077,801.568 1542.034,998.943 1605.81,908.014 1589.887,906.341 
			1545.451,966.363 1458.483,768.987 1332.384,943.968 1245.424,746.593 1119.327,921.575 1032.367,724.2 		"/>
	</g>
	<g>
		<polygon fill="#7587EF" points="899.927,905.577 829.501,709.711 814.812,793.017 894.257,937.841 1032.255,772.082 
			1105.235,975.042 1243.231,809.283 1316.211,1012.243 1454.208,846.483 1527.185,1049.443 1597.148,963.185 1581.381,960.405 
			1532.866,1017.181 1459.878,814.219 1321.88,979.978 1248.901,777.018 1110.904,942.777 1037.924,739.817 		"/>
	</g>
	<g>
		<polygon fill="#D12759" points="893.155,911.513 836.563,711.212 816.099,793.29 885.248,943.303 1034.472,787.574 
			1093.116,995.131 1242.34,839.401 1300.984,1046.958 1450.208,891.229 1508.849,1098.785 1584.659,1017.617 1569.124,1013.744 
			1516.767,1066.997 1458.115,859.438 1308.89,1015.168 1250.246,807.611 1101.023,963.34 1042.378,755.784 		"/>
	</g>
	<g>
		<polygon fill="#27F521" points="885.985,916.963 843.503,713.202 817.363,793.653 875.879,948.124 1035.604,803.184 
			1079.627,1014.326 1239.349,869.385 1283.373,1080.527 1443.096,935.586 1487.116,1146.727 1568.403,1071.045 1553.176,1066.098 
			1497.232,1115.569 1453.201,904.425 1293.477,1049.365 1249.454,838.223 1089.731,983.164 1045.708,772.022 		"/>
	</g>
	<g>
		<polygon fill="#0DF101" points="878.452,921.899 850.288,715.671 818.6,794.103 866.198,952.28 1035.643,818.834 
			1064.83,1032.533 1234.275,899.086 1263.462,1112.785 1432.907,979.339 1462.091,1193.036 1548.46,1123.209 1533.615,1117.211 
			1474.356,1162.66 1445.161,948.959 1275.716,1082.404 1246.529,868.706 1077.084,1002.152 1047.897,788.453 		"/>
	</g>
	<g>
		<polygon fill="#B1E159" points="870.594,926.298 856.883,718.608 819.801,794.638 856.25,955.75 1034.591,834.449 
			1048.8,1049.663 1227.141,928.362 1241.35,1143.576 1419.691,1022.275 1433.897,1237.487 1524.926,1173.855 1510.536,1166.836 
			1448.251,1208.041 1434.035,992.823 1255.693,1114.124 1241.484,898.91 1063.144,1020.211 1048.934,804.997 		"/>
	</g>
	<g>
		<polygon fill="#C1E5BB" points="862.447,930.138 863.258,721.998 820.963,795.255 846.084,958.517 1032.453,849.953 
			1031.615,1065.634 1217.982,957.068 1217.144,1172.749 1403.512,1064.184 1402.671,1279.864 1497.917,1222.736 1484.052,1214.73 
			1419.044,1251.49 1419.875,1035.805 1233.507,1144.369 1234.344,928.688 1047.977,1037.254 1048.815,821.573 		"/>
	</g>
	<g>
		<polygon fill="#BF6DED" points="854.053,933.401 869.381,725.823 822.078,795.952 835.75,960.569 1029.237,865.269 
			1013.356,1080.366 1206.843,985.066 1190.962,1200.163 1384.449,1104.863 1368.565,1319.958 1467.564,1269.614 1454.291,1260.661 
			1386.878,1292.796 1402.752,1077.694 1209.264,1172.994 1225.145,957.897 1031.659,1053.197 1047.54,838.1 		"/>
	</g>
	<g>
		<polygon fill="#A5297B" points="845.451,936.069 875.222,730.067 823.143,796.726 825.297,961.895 1024.962,880.325 
			994.115,1093.79 1193.778,1012.218 1162.932,1225.684 1362.595,1144.112 1331.746,1357.576 1434.015,1314.26 1421.399,1304.403 
			1351.908,1331.757 1382.749,1118.287 1183.084,1199.857 1213.931,986.392 1014.268,1067.963 1045.115,854.498 		"/>
	</g>
	<g>
		<polygon fill="#2D49E7" points="836.685,938.132 880.753,734.708 824.151,797.571 814.778,962.489 1019.646,895.045 
			973.984,1105.838 1178.851,1038.393 1133.189,1249.187 1338.056,1181.742 1292.392,1392.534 1397.434,1356.457 1385.535,1345.744 
			1314.306,1368.184 1359.962,1157.385 1155.094,1224.829 1200.756,1014.035 995.89,1081.48 1041.552,870.687 		"/>
	</g>
	<g>
		<polygon fill="#CB3191" points="827.795,939.577 885.946,739.723 825.097,798.485 804.243,962.347 1013.317,909.358 
			953.062,1116.453 1162.134,1063.463 1101.879,1270.558 1310.952,1217.568 1250.695,1424.661 1357.998,1396 1346.875,1384.483 
			1274.254,1401.899 1334.504,1194.799 1125.43,1247.788 1185.686,1040.693 976.613,1093.683 1036.868,886.588 		"/>
	</g>
	<g>
		<polygon fill="#DB799B" points="818.827,940.4 890.777,745.089 825.977,799.463 793.744,961.471 1006.005,923.195 
			931.45,1125.582 1143.71,1087.306 1069.155,1289.693 1281.415,1251.417 1206.859,1453.802 1315.899,1432.695 1305.608,1420.43 
			1231.948,1432.739 1306.498,1230.345 1094.237,1268.621 1168.792,1066.234 956.532,1104.51 1031.087,902.123 		"/>
	</g>
	<g>
		<polygon fill="#5F6D71" points="809.823,940.594 895.222,750.778 826.787,800.499 783.331,959.864 997.745,936.489 
			909.254,1133.182 1123.667,1109.805 1035.176,1306.499 1249.589,1283.122 1161.096,1479.813 1271.344,1466.365 1261.933,1453.411 
			1187.594,1460.552 1276.08,1263.852 1061.667,1287.228 1150.158,1090.534 935.745,1113.911 1024.236,917.217 		"/>
	</g>
	<g>
		<polygon fill="#9B5F91" points="800.827,940.16 899.26,756.764 827.523,801.59 773.056,957.535 988.578,949.173 886.582,1139.215 
			1102.103,1130.852 1000.107,1320.893 1215.628,1312.53 1113.631,1502.569 1224.548,1496.844 1216.063,1483.266 1141.408,1485.203 
			1243.4,1295.155 1027.878,1303.517 1129.874,1113.475 914.353,1121.839 1016.349,931.797 		"/>
	</g>
	<g>
		<polygon fill="#3BCB03" points="791.884,939.1 902.87,763.016 828.18,802.729 762.968,954.495 978.548,961.188 863.544,1143.651 
			1079.124,1150.343 964.12,1332.807 1179.699,1339.498 1064.694,1521.959 1175.74,1523.984 1168.224,1509.848 1093.615,1506.573 
			1208.615,1324.102 993.035,1317.41 1108.039,1134.946 892.46,1128.255 1007.464,945.791 		"/>
	</g>
	<g>
		<polygon fill="#F9F123" points="783.036,937.418 906.035,769.505 828.757,803.912 753.117,950.759 967.705,972.473 
			840.253,1146.47 1054.841,1168.183 927.389,1342.18 1141.977,1363.893 1014.524,1537.888 1125.158,1547.655 1118.646,1533.028 
			1044.447,1524.557 1171.896,1350.552 957.308,1328.838 1084.76,1154.841 870.172,1133.128 997.624,959.131 		"/>
	</g>
	<g>
		<polygon fill="#2DE179" points="774.328,935.123 908.739,776.2 829.25,805.131 743.551,946.345 956.101,982.975 816.822,1147.657 
			1029.373,1184.286 890.094,1348.969 1102.644,1385.598 963.364,1550.278 1073.048,1567.738 1067.572,1552.693 994.145,1539.067 
			1133.421,1374.376 920.87,1337.746 1060.149,1173.064 847.599,1136.435 986.878,971.752 		"/>
	</g>
	<g>
		<polygon fill="#BBE903" points="765.8,932.227 910.97,783.066 829.656,806.382 734.315,941.274 943.793,992.642 793.366,1147.207 
			1002.843,1198.574 852.416,1353.14 1061.893,1404.506 911.465,1559.069 1019.664,1584.138 1015.25,1568.748 942.953,1550.032 
			1093.378,1395.459 883.9,1344.091 1034.328,1189.525 824.85,1138.159 975.278,983.593 		"/>
	</g>
	<g>
		<polygon fill="#51C105" points="757.496,928.742 912.717,790.072 829.975,807.659 725.456,935.571 930.841,1001.426 
			769.998,1145.122 975.382,1210.976 814.539,1354.672 1019.923,1420.526 859.08,1564.219 965.266,1596.774 961.937,1581.114 
			891.121,1557.401 1051.962,1413.697 846.578,1347.842 1007.421,1204.146 802.037,1138.292 962.88,994.596 		"/>
	</g>
	<g>
		<polygon fill="#6F3557" points="749.454,924.687 913.971,797.182 830.203,808.954 717.017,929.264 917.307,1009.286 
			746.832,1141.412 947.122,1221.432 776.647,1353.558 976.937,1433.578 806.462,1565.702 910.118,1605.585 907.89,1589.73 
			838.901,1561.135 1009.375,1429.001 809.085,1348.979 979.559,1216.853 779.269,1136.833 949.744,1004.707 		"/>
	</g>
	<g>
		<polygon fill="#C125E5" points="741.715,920.08 914.725,804.362 830.341,810.263 709.037,922.384 903.258,1016.182 
			723.982,1136.094 918.202,1229.891 738.926,1349.804 933.146,1443.601 753.869,1563.51 854.491,1610.527 853.374,1594.556 
			786.548,1561.218 965.824,1441.297 771.603,1347.499 950.88,1227.587 756.659,1133.79 935.936,1013.877 		"/>
	</g>
	<g>
		<polygon fill="#091DD9" points="734.317,914.945 914.977,811.577 830.386,811.577 701.558,914.964 888.762,1022.082 
			701.558,1129.196 888.762,1236.313 701.558,1343.428 888.762,1450.544 701.558,1557.656 798.655,1611.578 798.655,1595.567 
			734.317,1557.648 921.521,1450.526 734.317,1343.408 921.521,1236.293 734.317,1129.177 921.521,1022.062 		"/>
	</g>
	<g>
		<polygon fill="#93B335" points="727.294,909.307 914.725,818.793 830.341,812.892 694.614,907.04 873.89,1026.956 
			679.67,1120.751 858.946,1240.665 664.726,1334.46 844.002,1454.374 649.782,1548.167 742.881,1608.73 743.998,1592.758 
			682.461,1550.444 876.682,1456.641 697.406,1336.726 891.626,1242.93 712.35,1123.016 906.57,1029.221 		"/>
	</g>
	<g>
		<polygon fill="#315F6D" points="720.682,903.192 913.971,825.973 830.203,814.201 688.239,898.651 858.714,1030.78 
			658.424,1110.799 828.899,1242.926 628.609,1322.945 799.083,1455.073 598.794,1535.089 687.442,1601.999 689.67,1586.144 
			631.235,1539.64 831.526,1459.614 661.052,1327.485 861.341,1247.466 690.867,1115.339 891.157,1035.32 		"/>
	</g>
	<g>
		<polygon fill="#DB5539" points="714.513,896.631 912.717,833.083 829.975,815.496 682.466,889.838 843.308,1033.537 
			637.924,1099.389 798.767,1243.087 593.383,1308.939 754.226,1452.636 548.843,1518.486 632.607,1591.417 635.936,1575.756 
			580.887,1525.29 786.273,1459.43 625.43,1315.731 830.814,1249.879 669.972,1106.181 875.355,1040.329 		"/>
	</g>
	<g>
		<polygon fill="#1703F5" points="708.816,889.656 910.97,840.089 829.656,816.772 677.321,880.644 827.748,1035.213 
			618.271,1086.577 768.698,1241.145 559.22,1292.51 709.647,1447.077 500.171,1498.439 578.644,1577.035 583.057,1561.645 
			531.663,1507.461 741.142,1456.089 590.716,1301.52 800.193,1250.155 649.766,1095.588 859.243,1044.223 		"/>
	</g>
	<g>
		<polygon fill="#9DE703" points="703.62,882.3 908.739,846.955 829.25,818.024 672.83,871.113 812.108,1035.798 599.558,1072.426 
			738.837,1237.11 526.287,1273.737 665.565,1438.421 453.017,1475.046 525.816,1558.925 531.292,1543.88 483.802,1486.243 
			696.355,1449.608 557.077,1284.923 769.627,1248.296 630.348,1083.612 842.898,1046.984 		"/>
	</g>
	<g>
		<polygon fill="#5DFBA3" points="698.949,874.6 906.035,853.649 828.757,819.243 669.015,861.292 796.466,1035.292 
			581.879,1057.003 709.33,1231.002 494.743,1252.713 622.195,1426.712 407.609,1448.421 474.379,1537.173 480.891,1522.547 
			437.539,1461.738 652.129,1440.019 524.678,1266.019 739.265,1244.308 611.814,1070.31 826.401,1048.598 		"/>
	</g>
	<g>
		<polygon fill="#731DBF" points="694.827,866.592 902.87,860.139 828.18,820.426 665.894,851.229 780.897,1033.695 
			565.318,1040.385 680.322,1222.85 464.743,1229.54 579.746,1412.005 364.169,1418.692 424.586,1511.887 432.102,1497.75 
			393.097,1434.065 608.679,1427.368 493.677,1244.902 709.255,1238.212 594.252,1055.747 809.831,1049.057 		"/>
	</g>
	<g>
		<polygon fill="#AB2FB3" points="691.274,858.317 899.26,866.391 827.523,821.565 663.483,840.973 765.478,1031.017 
			549.957,1022.652 651.952,1212.695 436.432,1204.331 538.427,1394.374 322.908,1386.007 376.677,1483.188 385.161,1469.61 
			350.693,1403.36 566.218,1411.718 464.224,1221.673 679.744,1230.038 577.749,1039.995 793.269,1048.36 		"/>
	</g>
	<g>
		<polygon fill="#718DF3" points="688.307,849.814 895.222,872.377 826.787,822.656 661.793,830.573 750.282,1027.269 
			535.871,1003.891 624.361,1200.586 409.949,1177.208 498.439,1373.903 284.028,1350.522 330.887,1451.218 340.298,1438.265 
			310.535,1369.771 524.952,1393.143 436.463,1196.447 650.875,1219.825 562.385,1023.13 776.797,1046.508 		"/>
	</g>
	<g>
		<polygon fill="#1FBF59" points="685.94,841.124 890.777,878.066 825.977,823.692 660.833,820.081 735.386,1022.471 
			523.127,984.193 597.681,1186.581 385.422,1148.304 459.975,1350.692 247.719,1312.412 287.439,1416.131 297.73,1403.866 
			272.818,1333.463 485.082,1371.735 410.529,1169.345 622.788,1207.623 548.234,1005.235 760.493,1043.513 		"/>
	</g>
	<g>
		<polygon fill="#B7C1C1" points="684.185,832.291 885.946,883.432 825.097,824.67 660.607,809.548 720.86,1016.645 
			511.789,963.654 572.043,1170.75 362.971,1117.759 423.225,1324.855 214.156,1271.862 246.544,1378.099 257.666,1366.582 
			237.726,1294.613 446.803,1347.598 386.55,1140.501 595.621,1193.492 535.367,986.396 744.439,1039.387 		"/>
	</g>
	<g>
		<polygon fill="#3B83B7" points="683.05,823.357 880.753,888.447 824.151,825.584 661.116,799.024 706.776,1009.82 501.91,942.374 
			547.572,1153.168 342.706,1085.723 388.367,1296.517 183.503,1229.069 208.402,1337.307 220.3,1326.594 205.428,1253.409 
			410.3,1320.849 364.64,1110.054 569.506,1177.5 523.845,966.705 728.711,1034.151 		"/>
	</g>
	<g>
		<polygon fill="#E36B3B" points="682.541,814.365 875.222,893.088 823.143,826.429 662.358,788.562 693.203,1002.029 
			493.541,920.457 524.386,1133.923 324.724,1052.35 355.57,1265.817 155.91,1184.243 173.198,1293.953 185.815,1284.096 
			176.084,1210.052 375.753,1291.62 344.908,1078.153 544.57,1159.725 513.725,946.259 713.387,1027.831 		"/>
	</g>
	<g>
		<polygon fill="#ED4B47" points="682.661,805.36 869.381,897.331 822.078,827.203 664.327,778.212 680.206,993.31 486.72,898.009 
			502.6,1113.107 309.115,1017.805 324.994,1232.903 131.511,1137.6 141.104,1248.25 154.378,1239.297 149.836,1164.755 
			343.328,1260.052 327.45,1044.953 520.935,1140.254 505.055,925.156 698.541,1020.458 		"/>
	</g>
	<g>
		<polygon fill="#BF3F4F" points="683.409,796.385 863.258,901.157 820.963,827.9 667.013,768.024 667.849,983.706 481.483,875.14 
			482.319,1090.822 295.953,982.256 296.789,1197.938 110.426,1089.37 112.277,1200.419 126.142,1192.414 126.812,1117.736 
			313.185,1226.298 312.349,1010.616 498.716,1119.182 497.879,903.5 684.245,1012.066 		"/>
	</g>
	<g>
		<polygon fill="#351579" points="684.781,787.484 856.883,904.547 819.801,828.517 670.404,758.048 656.192,973.264 
			477.853,851.962 463.642,1067.176 285.303,945.875 271.092,1161.089 92.756,1039.786 86.856,1150.694 101.246,1143.675 
			107.123,1069.226 285.469,1190.525 299.681,975.309 478.02,1096.611 492.231,881.397 670.57,1002.698 		"/>
	</g>
	<g>
		<polygon fill="#850DF1" points="686.77,778.7 850.288,907.483 818.6,829.052 674.481,748.334 645.291,962.033 475.848,828.586 
			446.66,1042.286 277.217,908.839 248.028,1122.538 78.588,989.09 64.965,1099.316 79.81,1093.319 90.866,1019.461 
			260.317,1152.905 289.507,939.205 458.95,1072.652 488.138,858.953 657.581,992.399 		"/>
	</g>
	<g>
		<polygon fill="#5D2983" points="689.367,770.077 843.503,909.953 817.363,829.502 679.227,738.927 635.201,950.07 475.48,805.128 
			431.455,1016.271 271.734,871.33 227.709,1082.472 67.99,937.53 46.712,1046.537 61.94,1041.589 78.121,968.683 237.85,1113.622 
			281.875,902.479 441.597,1047.42 485.621,836.278 645.343,981.219 		"/>
	</g>
	<g>
		<polygon fill="#D35D49" points="692.56,761.656 836.563,911.943 816.099,829.865 684.617,729.874 625.97,937.432 476.748,781.702 
			418.102,989.259 268.88,833.529 210.235,1041.086 61.016,885.356 32.186,992.613 47.721,988.74 68.948,917.14 218.178,1072.868 
			276.825,865.31 426.046,1021.04 484.692,813.483 633.914,969.213 		"/>
	</g>
	<g>
		<polygon fill="#DDA92B" points="696.332,753.478 829.501,913.444 814.812,830.138 690.626,721.22 617.643,924.181 
			479.648,758.421 406.666,961.381 268.671,795.622 195.69,998.582 57.697,832.822 21.456,937.807 37.223,935.027 63.393,865.082 
			201.396,1030.84 274.379,827.879 412.374,993.639 485.355,790.679 623.351,956.438 		"/>
	</g>
	<g>
		<polygon fill="#015B73" points="700.666,745.583 822.351,914.449 813.509,830.321 697.223,713.005 610.26,910.381 
			484.164,735.399 397.203,932.774 271.106,757.792 184.145,955.167 58.052,780.185 14.575,882.386 30.498,880.713 61.483,812.764 
			187.588,987.745 274.55,790.369 400.646,965.351 487.608,767.976 613.704,942.958 		"/>
	</g>
	<g>
		<polygon fill="#7B53B1" points="705.539,738.009 815.149,914.952 812.197,830.413 704.378,705.271 603.858,896.099 
			490.276,712.748 389.758,903.576 276.175,720.224 175.657,911.053 62.077,727.701 11.577,826.62 27.578,826.062 63.228,760.439 
			176.819,943.791 277.338,752.963 390.921,936.314 491.438,745.486 605.021,928.838 		"/>
	</g>
	<g>
		<polygon fill="#7B2D29" points="710.929,730.794 807.929,914.952 810.881,830.413 712.054,698.055 598.468,881.407 
			497.952,690.578 384.368,873.93 283.851,683.102 170.267,866.453 69.754,675.625 12.476,770.781 28.477,771.34 68.618,708.364 
			169.142,899.193 282.728,715.841 383.244,906.67 496.828,723.318 597.345,914.146 		"/>
	</g>
	<g>
		<polygon fill="#4D7D5D" points="716.81,723.973 800.727,914.449 809.569,830.321 720.216,691.392 594.116,866.373 
			507.157,668.998 381.059,843.98 294.099,646.605 168.001,821.587 81.044,624.212 17.269,715.141 33.192,716.814 77.627,656.792 
			164.595,854.168 290.694,679.187 377.654,876.562 503.752,701.58 590.712,898.955 		"/>
	</g>
	<g>
		<polygon fill="#B7870B" points="723.151,717.578 793.577,913.444 808.266,830.138 728.822,685.314 590.824,851.073 
			517.844,648.113 379.847,813.872 306.867,610.912 168.871,776.672 95.894,573.712 25.93,659.97 41.698,662.75 90.212,605.974 
			163.2,808.936 301.198,643.177 374.178,846.137 512.174,680.378 585.155,883.338 		"/>
	</g>
	<g>
		<polygon fill="#8B6511" points="729.924,711.642 786.515,911.943 806.98,829.865 737.831,679.851 588.606,835.581 
			529.962,628.024 380.739,783.753 322.094,576.197 172.871,731.926 114.229,524.37 38.42,605.538 53.955,609.411 106.312,556.158 
			164.964,763.717 314.188,607.987 372.833,815.544 522.056,659.814 580.7,867.371 		"/>
	</g>
	<g>
		<polygon fill="#D51B23" points="737.094,706.192 779.575,909.953 805.715,829.502 747.199,675.031 587.475,819.971 
			543.452,608.829 383.729,753.77 339.706,542.628 179.983,687.569 135.963,476.428 54.676,552.11 69.903,557.057 125.847,507.586 
			169.877,718.73 329.602,573.79 373.625,784.932 533.347,639.991 577.371,851.133 		"/>
	</g>
	<g>
		<polygon fill="#0501C3" points="744.626,701.256 772.791,907.483 804.479,829.052 756.881,670.875 587.435,804.321 
			558.248,590.622 388.804,724.068 359.616,510.37 190.172,643.816 160.987,430.118 74.619,499.946 89.464,505.944 148.722,460.495 
			177.917,674.196 347.363,540.751 376.55,754.449 545.994,621.003 575.182,834.702 		"/>
	</g>
	<g>
		<polygon fill="#0DA19D" points="752.485,696.857 766.195,904.547 803.277,828.517 766.829,667.405 588.487,788.706 
			574.278,573.492 395.938,694.793 381.728,479.579 203.388,600.88 189.181,385.667 98.152,449.3 112.543,456.319 174.827,415.114 
			189.044,630.332 367.385,509.031 381.595,724.245 559.935,602.944 574.144,818.158 		"/>
	</g>
	<g>
		<polygon fill="#2F0F27" points="760.631,693.017 759.82,901.157 802.116,827.9 776.995,664.638 590.626,773.202 591.464,557.521 
			405.097,666.087 405.934,450.406 219.567,558.971 220.407,343.291 125.161,400.419 139.027,408.424 204.034,371.665 
			203.203,587.35 389.572,478.786 388.734,694.466 575.101,585.901 574.264,801.582 		"/>
	</g>
	<g>
		<polygon fill="#2B2385" points="769.026,689.754 753.697,897.331 801,827.203 787.329,662.586 593.841,757.885 609.722,542.788 
			416.236,638.089 432.116,422.992 238.63,518.292 254.513,303.197 155.514,353.541 168.788,362.494 236.201,330.359 
			220.326,545.461 413.814,450.161 397.933,665.258 591.42,569.958 575.539,785.055 		"/>
	</g>
	<g>
		<polygon fill="#B763AD" points="777.627,687.086 747.857,893.088 799.936,826.429 797.781,661.26 598.117,742.83 628.964,529.365 
			429.3,610.937 460.147,397.471 260.484,479.043 291.333,265.579 189.063,308.895 201.68,318.752 271.17,291.398 240.33,504.868 
			439.994,423.298 409.147,636.763 608.81,555.192 577.964,768.657 		"/>
	</g>
	<g>
		<polygon fill="#D571CD" points="786.394,685.023 742.326,888.447 798.928,825.584 808.3,660.666 603.432,728.11 649.094,517.317 
			444.228,584.762 489.89,373.968 285.023,441.413 330.687,230.621 225.645,266.698 237.543,277.411 308.772,254.971 
			263.116,465.77 467.984,398.326 422.322,609.119 627.189,541.674 581.527,752.468 		"/>
	</g>
	<g>
		<polygon fill="#3FA9C5" points="795.283,683.577 737.132,883.432 797.982,824.67 818.835,660.808 609.761,713.797 
			670.017,506.702 460.944,559.692 521.199,352.597 312.127,405.587 372.384,198.494 265.081,227.155 276.203,238.672 
			348.824,221.256 288.574,428.356 497.648,375.367 437.393,582.462 646.465,529.472 586.211,736.567 		"/>
	</g>
	<g>
		<polygon fill="#7997A3" points="804.252,682.755 732.301,878.066 797.101,823.692 829.335,661.684 617.074,699.96 
			691.629,497.573 479.369,535.849 553.923,333.462 341.664,371.738 416.22,169.353 307.179,190.46 317.471,202.725 391.13,190.416 
			316.581,392.81 528.841,354.534 454.287,556.921 666.546,518.644 591.992,721.032 		"/>
	</g>
	<g>
		<polygon fill="#8D992B" points="813.255,682.561 727.856,872.377 796.292,822.656 839.747,663.291 625.334,686.666 
			713.825,489.973 499.412,513.35 587.903,316.656 373.49,340.033 461.982,143.342 351.735,156.79 361.146,169.743 435.484,162.603 
			346.998,359.303 561.412,335.927 472.921,532.621 687.333,509.244 598.843,705.938 		"/>
	</g>
	<g>
		<polygon fill="#A31FA9" points="822.251,682.995 723.819,866.391 795.556,821.565 850.022,665.62 634.501,673.982 736.497,483.94 
			520.975,492.303 622.971,302.262 407.45,310.625 509.448,120.586 398.531,126.311 407.015,139.889 481.67,137.952 379.679,328 
			595.201,319.638 493.205,509.68 708.726,501.316 606.73,691.358 		"/>
	</g>
	<g>
		<polygon fill="#B7B311" points="831.194,684.055 720.209,860.139 794.898,820.426 860.11,668.66 644.53,661.967 759.534,479.503 
			543.955,472.812 658.959,290.348 443.379,283.657 558.385,101.196 447.338,99.17 454.855,113.307 529.464,116.582 
			414.463,299.053 630.044,305.745 515.039,488.209 730.619,494.9 615.615,677.364 		"/>
	</g>
	<g>
		<polygon fill="#B11F05" points="840.042,685.737 717.044,853.649 794.321,819.243 869.961,672.396 655.373,650.682 
			782.825,476.685 568.238,454.972 695.689,280.975 481.102,259.262 608.555,85.267 497.921,75.5 504.433,90.127 578.631,98.598 
			451.182,272.603 665.771,294.317 538.319,468.314 752.906,490.027 625.454,664.024 		"/>
	</g>
	<g>
		<polygon fill="#BBF393" points="848.751,688.032 714.339,846.955 793.829,818.024 879.528,676.81 666.977,640.18 806.256,475.497 
			593.706,438.869 732.985,274.186 520.434,237.557 659.714,72.877 550.031,55.417 555.507,70.462 628.933,84.088 489.657,248.779 
			702.208,285.409 562.929,450.091 775.479,486.72 636.201,651.403 		"/>
	</g>
	<g>
		<polygon fill="#FD179F" points="857.278,690.928 712.108,840.089 793.422,816.772 888.763,681.881 679.285,630.513 
			829.713,475.948 620.235,424.581 770.663,270.015 561.185,218.649 711.613,64.086 603.415,39.017 607.828,54.407 680.125,73.123 
			529.7,227.696 739.178,279.064 588.751,433.63 798.228,484.996 647.801,639.562 		"/>
	</g>
	<g>
		<polygon fill="#97DD31" points="865.583,694.413 710.362,833.083 793.104,815.496 897.622,687.584 692.238,621.729 
			853.081,478.033 647.697,412.179 808.54,268.483 603.156,202.629 763.999,58.936 657.813,26.381 661.142,42.041 731.957,65.754 
			571.116,209.458 776.501,275.313 615.658,419.009 821.042,484.863 660.199,628.559 		"/>
	</g>
	<g>
		<polygon fill="#D961B3" points="873.624,698.468 709.108,825.973 792.875,814.201 906.062,693.891 705.772,613.869 
			876.246,481.743 675.956,401.723 846.431,269.597 646.141,189.577 816.616,57.453 712.96,17.57 715.188,33.425 784.177,62.02 
			613.704,194.154 813.994,274.176 643.519,406.302 843.809,486.322 673.334,618.448 		"/>
	</g>
	<g>
		<polygon fill="#EDF799" points="881.363,703.075 708.353,818.793 792.738,812.892 914.041,700.771 719.821,606.973 
			899.097,487.06 704.877,393.264 884.153,273.351 689.933,179.554 869.209,59.645 768.587,12.627 769.704,28.599 836.53,61.937 
			657.255,181.858 851.475,275.656 672.199,395.568 866.419,489.365 687.143,609.278 		"/>
	</g>
	<g>
		<polygon fill="#9FDBDD" points="888.762,708.21 708.101,811.577 792.692,811.577 921.521,708.191 734.317,601.073 
			921.521,493.959 734.317,386.842 921.521,279.727 734.317,172.611 921.521,65.499 824.424,11.577 824.424,27.588 888.762,65.507 
			701.558,172.629 888.762,279.747 701.558,386.862 888.762,493.978 701.558,601.093 		"/>
	</g>
</g>
</svg>
