<?xml version="1.0" encoding="UTF-8" standalone="no"?>
<!DOCTYPE svg PUBLIC "-//W3C//DTD SVG 1.1//EN" "http://www.w3.org/Graphics/SVG/1.1/DTD/svg11.dtd">
<svg width="100%" height="100%" viewBox="0 0 700 700" version="1.1" xmlns="http://www.w3.org/2000/svg" xmlns:xlink="http://www.w3.org/1999/xlink" xml:space="preserve" xmlns:serif="http://www.serif.com/" style="fill-rule:evenodd;clip-rule:evenodd;stroke-linejoin:round;stroke-miterlimit:2;">
    <g id="_1.-réteg" serif:id="1. réteg" transform="matrix(1,0,0,1,0,-352.362)">
        <g id="g9320">
            <g id="g9316">
                <path id="path3061" d="M645.442,754.456C642.415,771.623 637.87,788.588 631.908,804.968C625.946,821.348 618.523,837.266 609.808,852.362C601.092,867.458 591.018,881.845 579.813,895.198C568.609,908.551 556.189,920.971 542.836,932.175C529.483,943.38 515.096,953.454 500,962.17C484.904,970.885 468.986,978.308 452.606,984.27C436.226,990.232 419.261,994.777 402.094,997.804C384.928,1000.83 367.431,1002.36 350,1002.36C332.569,1002.36 315.072,1000.83 297.906,997.804C280.739,994.777 263.774,990.232 247.394,984.27C231.014,978.308 215.096,970.885 200,962.17C184.904,953.454 170.517,943.38 157.164,932.175C143.811,920.971 131.391,908.551 120.187,895.198C108.982,881.845 98.908,867.458 90.192,852.362C81.477,837.266 74.054,821.348 68.092,804.968C62.13,788.588 57.585,771.623 54.558,754.456C51.531,737.29 50,719.793 50,702.362L126.393,702.362C126.393,687.15 127.729,671.881 130.37,656.9C133.012,641.92 136.979,627.114 142.182,612.82C147.385,598.526 153.862,584.634 161.468,571.46C169.074,558.287 177.866,545.731 187.643,534.078C197.421,522.425 208.26,511.587 219.913,501.809C231.565,492.031 244.121,483.239 257.295,475.634C270.469,468.028 284.36,461.55 298.655,456.347C312.949,451.145 327.754,447.177 342.735,444.536C357.716,441.894 372.985,440.559 388.197,440.559C403.408,440.559 418.678,441.894 433.658,444.536C448.639,447.177 463.444,451.145 477.739,456.347C492.033,461.55 505.924,468.028 519.098,475.634C532.272,483.239 544.828,492.031 556.481,501.809C568.133,511.587 578.972,522.425 588.75,534.078C598.528,545.731 607.319,558.287 614.925,571.46C622.531,584.634 629.009,598.526 634.211,612.82C639.414,627.114 643.381,641.92 646.023,656.9C648.664,671.881 650,687.15 650,702.362C650,719.793 648.469,737.29 645.442,754.456ZM419.744,690.064C419.03,686.012 417.957,682.007 416.549,678.14C415.142,674.273 413.39,670.515 411.332,666.952C409.275,663.388 406.897,659.992 404.252,656.84C401.607,653.687 398.675,650.755 395.522,648.11C392.37,645.465 388.974,643.087 385.41,641.03C381.847,638.972 378.089,637.22 374.222,635.813C370.355,634.405 366.35,633.332 362.298,632.618C358.245,631.903 354.115,631.542 350,631.542C345.885,631.542 341.755,631.903 337.702,632.618C333.65,633.332 329.645,634.405 325.778,635.813C321.911,637.22 318.153,638.972 314.59,641.03C311.026,643.087 307.63,645.465 304.478,648.11C301.325,650.755 298.393,653.687 295.748,656.84C293.103,659.992 290.725,663.388 288.668,666.952C286.61,670.515 284.858,674.273 283.451,678.14C282.043,682.007 280.97,686.012 280.256,690.064C279.541,694.117 279.18,698.247 279.18,702.362L202.786,702.362C202.786,708.696 203.342,715.055 204.442,721.293C205.542,727.531 207.194,733.696 209.36,739.648C211.527,745.6 214.224,751.385 217.391,756.871C220.559,762.356 224.219,767.585 228.291,772.437C232.363,777.289 236.876,781.802 241.728,785.874C246.581,789.946 251.809,793.607 257.295,796.774C262.78,799.941 268.565,802.638 274.517,804.805C280.469,806.971 286.634,808.623 292.872,809.723C299.111,810.823 305.469,811.379 311.803,811.379C318.137,811.379 324.496,810.823 330.734,809.723C336.972,808.623 343.137,806.971 349.089,804.805C355.042,802.638 360.826,799.941 366.312,796.774C371.797,793.607 377.026,789.946 381.878,785.874C386.73,781.802 391.244,777.289 395.315,772.437C399.387,767.585 403.048,762.356 406.215,756.871C409.382,751.385 412.079,745.6 414.246,739.648C416.412,733.696 418.064,727.531 419.164,721.293C420.264,715.055 420.82,708.696 420.82,702.362C420.82,698.247 420.459,694.117 419.744,690.064Z" style="fill:url(#_Radial1);fill-rule:nonzero;"/>
                <path id="path9029" d="M647.183,670.166C645.312,659.557 642.503,649.071 638.818,638.948C635.134,628.825 630.546,618.987 625.16,609.657C619.773,600.327 613.547,591.435 606.622,583.183C599.697,574.93 592.022,567.254 583.769,560.33C575.517,553.405 566.625,547.179 557.295,541.792C547.965,536.406 538.127,531.818 528.004,528.133C517.88,524.449 507.395,521.639 496.786,519.769C486.177,517.898 475.363,516.952 464.59,516.952C453.817,516.952 443.003,517.898 432.394,519.769C421.784,521.639 411.299,524.449 401.176,528.133C391.052,531.818 381.214,536.406 371.885,541.792C362.555,547.179 353.663,553.405 345.41,560.33C337.158,567.254 329.482,574.93 322.557,583.183C315.633,591.435 309.406,600.327 304.02,609.657C298.633,618.987 294.046,628.825 290.361,638.948C286.677,649.071 283.867,659.557 281.996,670.166C280.126,680.775 279.18,691.589 279.18,702.362C279.18,706.477 279.541,710.607 280.256,714.66C280.97,718.712 282.043,722.717 283.451,726.584C284.858,730.451 286.61,734.209 288.668,737.772C290.725,741.336 293.103,744.732 295.748,747.885C298.393,751.037 301.325,753.969 304.478,756.614C307.63,759.259 311.026,761.637 314.59,763.694C318.153,765.752 321.911,767.504 325.778,768.911C329.645,770.319 333.65,771.392 337.702,772.107C341.755,772.821 345.885,773.182 350,773.182C354.115,773.182 358.245,772.821 362.298,772.107C366.35,771.392 370.355,770.319 374.222,768.911C378.089,767.504 381.847,765.752 385.41,763.694C388.974,761.637 392.37,759.259 395.522,756.614C398.675,753.969 401.607,751.037 404.252,747.885C406.897,744.732 409.275,741.336 411.332,737.772C413.39,734.209 415.142,730.451 416.549,726.584C417.957,722.717 419.03,718.712 419.744,714.66C420.459,710.607 420.82,706.477 420.82,702.362C420.82,713.135 419.874,723.949 418.004,734.558C416.133,745.168 413.323,755.653 409.639,765.776C405.954,775.899 401.367,785.737 395.98,795.067C390.594,804.397 384.367,813.289 377.443,821.541C370.518,829.794 362.842,837.47 354.59,844.394C346.337,851.319 337.445,857.545 328.115,862.932C318.786,868.319 308.948,872.906 298.824,876.591C288.701,880.275 278.216,883.085 267.606,884.955C256.997,886.826 246.183,887.772 235.41,887.772C224.637,887.772 213.823,886.826 203.214,884.955C192.605,883.085 182.12,880.275 171.996,876.591C161.873,872.906 152.035,868.319 142.705,862.932C133.375,857.545 124.483,851.319 116.231,844.394C107.978,837.47 100.303,829.794 93.378,821.541C86.453,813.289 80.227,804.397 74.84,795.067C69.454,785.737 64.866,775.899 61.182,765.776C57.497,755.653 54.688,745.168 52.817,734.558C50.946,723.949 50,713.135 50,702.362C50,684.931 51.531,667.434 54.558,650.268C57.585,633.101 62.13,616.136 68.092,599.756C74.054,583.376 81.477,567.458 90.192,552.362C98.908,537.266 108.982,522.879 120.187,509.526C131.391,496.173 143.811,483.753 157.164,472.549C170.517,461.344 184.904,451.27 200,442.554C215.096,433.839 231.014,426.416 247.394,420.454C263.774,414.492 280.739,409.947 297.906,406.92C315.072,403.893 332.569,402.362 350,402.362C367.431,402.362 384.928,403.893 402.094,406.92C419.261,409.947 436.226,414.492 452.606,420.454C468.986,426.416 484.904,433.839 500,442.554C515.096,451.27 529.483,461.344 542.836,472.549C556.189,483.753 568.609,496.173 579.813,509.526C591.018,522.879 601.092,537.266 609.808,552.362C618.523,567.458 625.946,583.376 631.908,599.756C637.87,616.136 642.415,633.101 645.442,650.268C648.469,667.434 650,684.931 650,702.362C650,691.589 649.054,680.775 647.183,670.166Z" style="fill:url(#_Radial2);fill-rule:nonzero;"/>
            </g>
        </g>
    </g>
    <defs>
        <radialGradient id="_Radial1" cx="0" cy="0" r="1" gradientUnits="userSpaceOnUse" gradientTransform="matrix(300,0,0,286.18,350,716.182)"><stop offset="0" style="stop-color:rgb(20,23,24);stop-opacity:1"/><stop offset="0.26" style="stop-color:rgb(57,110,168);stop-opacity:1"/><stop offset="0.66" style="stop-color:rgb(10,36,74);stop-opacity:1"/><stop offset="0.85" style="stop-color:rgb(17,24,29);stop-opacity:1"/><stop offset="1" style="stop-color:rgb(12,14,18);stop-opacity:1"/></radialGradient>
        <radialGradient id="_Radial2" cx="0" cy="0" r="1" gradientUnits="userSpaceOnUse" gradientTransform="matrix(344.89,0,0,297.227,416.549,678.14)"><stop offset="0" style="stop-color:rgb(168,181,183);stop-opacity:1"/><stop offset="0.34" style="stop-color:rgb(214,221,222);stop-opacity:1"/><stop offset="0.45" style="stop-color:rgb(240,251,253);stop-opacity:1"/><stop offset="0.85" style="stop-color:rgb(196,216,220);stop-opacity:1"/><stop offset="1" style="stop-color:rgb(230,234,238);stop-opacity:1"/></radialGradient>
    </defs>
</svg>
