<?xml version="1.0" encoding="UTF-8" standalone="no"?>
<!-- Created with Inkscape (http://www.inkscape.org/) -->
<svg xmlns:rdf="http://www.w3.org/1999/02/22-rdf-syntax-ns#" xmlns="http://www.w3.org/2000/svg" xmlns:cc="http://web.resource.org/cc/" xmlns:dc="http://purl.org/dc/elements/1.1/" xmlns:svg="http://www.w3.org/2000/svg" xmlns:inkscape="http://www.inkscape.org/namespaces/inkscape" xmlns:sodipodi="http://sodipodi.sourceforge.net/DTD/sodipodi-0.dtd" xmlns:ns1="http://sozi.baierouge.fr" xmlns:xlink="http://www.w3.org/1999/xlink" id="svg2" viewBox="0 0 720 720" version="1.1" inkscape:version="0.91 r13725">
  <g id="layer1" transform="translate(0 -332.36)">
    <path id="path3759" style="fill:#ff0000" d="m379.23 322.21a78.232 78.232 0 1 1 -156.46 0 78.232 78.232 0 1 1 156.46 0z" transform="matrix(4.6017 0 0 4.6017 -1025.1 -790.35)"/>
    <path id="path3761" style="fill:#ff8000" d="m379.23 322.21a78.232 78.232 0 1 1 -156.46 0 78.232 78.232 0 1 1 156.46 0z" transform="matrix(4.2182 0 0 4.2182 -909.66 -666.79)"/>
    <path id="path3763" style="fill:#ffff00" d="m379.23 322.21a78.232 78.232 0 1 1 -156.46 0 78.232 78.232 0 1 1 156.46 0z" transform="matrix(3.6814 0 0 3.6814 -748.07 -493.81)"/>
    <path id="path3765" style="fill:#ffff00" d="m379.23 322.21a78.232 78.232 0 1 1 -156.46 0 78.232 78.232 0 1 1 156.46 0z" transform="matrix(3.8347 0 0 3.8347 -794.24 -543.23)"/>
    <path id="path3767" style="fill:#80ff00" d="m379.23 322.21a78.232 78.232 0 1 1 -156.46 0 78.232 78.232 0 1 1 156.46 0z" transform="matrix(3.4513 0 0 3.4513 -678.81 -419.67)"/>
    <path id="path3769" style="fill:#00ff00" d="m379.23 322.21a78.232 78.232 0 1 1 -156.46 0 78.232 78.232 0 1 1 156.46 0z" transform="matrix(3.0678 0 0 3.0678 -563.39 -296.11)"/>
    <path id="path3771" style="fill:#00ff80" d="m379.23 322.21a78.232 78.232 0 1 1 -156.46 0 78.232 78.232 0 1 1 156.46 0z" transform="matrix(2.6843 0 0 2.6843 -447.97 -172.55)"/>
    <path id="path3773" style="fill:#00ffff" d="m379.23 322.21a78.232 78.232 0 1 1 -156.46 0 78.232 78.232 0 1 1 156.46 0z" transform="matrix(2.3008 0 0 2.3008 -332.54 -48.994)"/>
    <path id="path3775" style="fill:#0080ff" d="m379.23 322.21a78.232 78.232 0 1 1 -156.46 0 78.232 78.232 0 1 1 156.46 0z" transform="matrix(1.9174 0 0 1.9174 -217.12 74.566)"/>
    <path id="path3777" style="fill:#0000ff" d="m379.23 322.21a78.232 78.232 0 1 1 -156.46 0 78.232 78.232 0 1 1 156.46 0z" transform="matrix(1.5339 0 0 1.5339 -101.69 198.12)"/>
    <path id="path3779" style="fill:#8000ff" d="m379.23 322.21a78.232 78.232 0 1 1 -156.46 0 78.232 78.232 0 1 1 156.46 0z" transform="matrix(1.1504 0 0 1.1504 13.729 321.68)"/>
    <path id="path3781" style="fill:#ff00ff" d="m379.23 322.21a78.232 78.232 0 1 1 -156.46 0 78.232 78.232 0 1 1 156.46 0z" transform="matrix(.76695 0 0 .76695 129.15 445.24)"/>
    <path id="path3783" style="fill:#ff0080" d="m379.23 322.21a78.232 78.232 0 1 1 -156.46 0 78.232 78.232 0 1 1 156.46 0z" transform="matrix(.38347 0 0 .38347 244.58 568.8)"/>
  </g>
  <metadata>
    <rdf:RDF>
      <cc:Work>
        <dc:format>image/svg+xml</dc:format>
        <dc:type rdf:resource="http://purl.org/dc/dcmitype/StillImage"/>
        <cc:license rdf:resource="http://creativecommons.org/licenses/publicdomain/"/>
        <dc:publisher>
          <cc:Agent rdf:about="http://openclipart.org/">
            <dc:title>Openclipart</dc:title>
          </cc:Agent>
        </dc:publisher>
        <dc:title>12 color rainbow circles</dc:title>
        <dc:date>2011-06-25T04:10:15</dc:date>
        <dc:description>12 color rainbow circles</dc:description>
        <dc:source>https://openclipart.org/detail/147061/12-color-rainbow-circles-by-10binary</dc:source>
        <dc:creator>
          <cc:Agent>
            <dc:title>10binary</dc:title>
          </cc:Agent>
        </dc:creator>
        <dc:subject>
          <rdf:Bag>
            <rdf:li>12</rdf:li>
            <rdf:li>circles</rdf:li>
            <rdf:li>color</rdf:li>
            <rdf:li>rainbow</rdf:li>
          </rdf:Bag>
        </dc:subject>
      </cc:Work>
      <cc:License rdf:about="http://creativecommons.org/licenses/publicdomain/">
        <cc:permits rdf:resource="http://creativecommons.org/ns#Reproduction"/>
        <cc:permits rdf:resource="http://creativecommons.org/ns#Distribution"/>
        <cc:permits rdf:resource="http://creativecommons.org/ns#DerivativeWorks"/>
      </cc:License>
    </rdf:RDF>
  </metadata>
</svg>
