<?xml version="1.0" encoding="UTF-8" standalone="no"?>
<!-- Created with Inkscape (http://www.inkscape.org/) -->

<svg
   xmlns:dc="http://purl.org/dc/elements/1.1/"
   xmlns:cc="http://creativecommons.org/ns#"
   xmlns:rdf="http://www.w3.org/1999/02/22-rdf-syntax-ns#"
   xmlns:svg="http://www.w3.org/2000/svg"
   xmlns="http://www.w3.org/2000/svg"
   xmlns:sodipodi="http://sodipodi.sourceforge.net/DTD/sodipodi-0.dtd"
   xmlns:inkscape="http://www.inkscape.org/namespaces/inkscape"
   width="500"
   height="500"
   viewBox="0 0 499.9999 500"
   id="svg2"
   version="1.1"
   inkscape:version="0.91 r13725"
   sodipodi:docname="HUE 16 x 3 color wheel.svg">
  <title
     id="title4283">Color wheel 16 x 3</title>
  <defs
     id="defs4" />
  <sodipodi:namedview
     id="base"
     pagecolor="#ffffff"
     bordercolor="#666666"
     borderopacity="1.0"
     inkscape:pageopacity="0.0"
     inkscape:pageshadow="2"
     inkscape:zoom="0.35"
     inkscape:cx="375"
     inkscape:cy="520"
     inkscape:document-units="px"
     inkscape:current-layer="g4256"
     showgrid="false"
     inkscape:snap-object-midpoints="true"
     fit-margin-top="0"
     fit-margin-left="0"
     fit-margin-right="0"
     fit-margin-bottom="0"
     units="px"
     showguides="false" />
  <metadata
     id="metadata7">
    <rdf:RDF>
      <cc:Work
         rdf:about="">
        <dc:format>image/svg+xml</dc:format>
        <dc:type
           rdf:resource="http://purl.org/dc/dcmitype/StillImage" />
        <dc:title>Color wheel 16 x 3</dc:title>
        <dc:date>2016-01-25</dc:date>
        <dc:creator>
          <cc:Agent>
            <dc:title>krzysiu.net</dc:title>
          </cc:Agent>
        </dc:creator>
        <dc:publisher>
          <cc:Agent>
            <dc:title>OpenClipart.org</dc:title>
          </cc:Agent>
        </dc:publisher>
        <dc:subject>
          <rdf:Bag>
            <rdf:li>wheel</rdf:li>
            <rdf:li>color</rdf:li>
            <rdf:li>hue</rdf:li>
            <rdf:li>palette</rdf:li>
          </rdf:Bag>
        </dc:subject>
        <dc:description>Color wheel - 16 colors, H - different, S - 1.0, L - 0.21, 0.5, 0.78</dc:description>
        <cc:license
           rdf:resource="http://creativecommons.org/publicdomain/zero/1.0/" />
      </cc:Work>
      <cc:License
         rdf:about="http://creativecommons.org/publicdomain/zero/1.0/">
        <cc:permits
           rdf:resource="http://creativecommons.org/ns#Reproduction" />
        <cc:permits
           rdf:resource="http://creativecommons.org/ns#Distribution" />
        <cc:permits
           rdf:resource="http://creativecommons.org/ns#DerivativeWorks" />
      </cc:License>
    </rdf:RDF>
  </metadata>
  <g
     inkscape:label="Layer 1"
     inkscape:groupmode="layer"
     id="layer1"
     transform="translate(-119.7118,62.29805)">
    <g
       id="g4197">
      <g
         id="g4256"
         transform="matrix(0.5524249,1.333612,-1.333672,0.5524,560.4805,-348.9834)"
         style="stroke:#000000;stroke-width:0.6927494">
        <path
           style="opacity:1;fill:#ff00c0;fill-opacity:1;stroke:none;stroke-width:1;stroke-linecap:butt;stroke-linejoin:round;stroke-miterlimit:4;stroke-dasharray:none;stroke-dashoffset:198.3999939;stroke-opacity:1"
           d="m 176.5042,76.30899 c -10.4553,3.50918 -20.0344,9.45615 -29.4154,15.21336 -10.9236,7.19371 -21.6632,15.20625 -30.4241,24.83965 13.6939,14.2147 27.8306,28.1756 41.9419,42.041 3.1168,-0.2607 5.0354,-4.1731 7.6772,-5.7324 9.9989,-8.8275 21.7024,-15.2294 33.6789,-20.9584 0.232,-3.9585 -3.1171,-8.1854 -4.2613,-12.2409 -6.0727,-14.2519 -11.5692,-28.84883 -18.0811,-42.85818 -0.3151,-0.24415 -0.7253,-0.32329 -1.1161,-0.30413 z"
           id="path4361"
           inkscape:connector-curvature="0"
           transform="matrix(0.2650976,-0.6400025,0.6400313,0.2651096,66.64085,358.0962)" />
        <path
           style="opacity:1;fill:#ff91e4;fill-opacity:1;stroke:none;stroke-width:1;stroke-linecap:butt;stroke-linejoin:round;stroke-miterlimit:4;stroke-dasharray:none;stroke-dashoffset:198.3999939;stroke-opacity:1"
           d="m 153.5494,20.64911 c -10.3064,3.52934 -19.8274,9.24714 -29.4082,14.41856 -18.285,10.5902 -35.71716,23.34249 -50.03094,38.81665 13.45694,14.03129 27.53144,27.62378 41.22494,41.48718 3.5841,-0.895 6.2871,-5.1373 9.5165,-7.3977 15.4374,-13.5062 33.0505,-24.42573 51.813,-32.68044 0.2873,-3.94175 -3.1203,-8.19196 -4.2568,-12.2458 -5.9614,-13.99259 -11.4424,-28.28573 -17.7117,-42.09014 -0.3228,-0.25176 -0.745,-0.33685 -1.1468,-0.30831 z"
           id="path4363"
           inkscape:connector-curvature="0"
           transform="matrix(0.2650976,-0.6400025,0.6400313,0.2651096,66.64085,358.0962)" />
        <path
           style="opacity:1;fill:#ff6000;fill-opacity:1;stroke:none;stroke-width:1;stroke-linecap:butt;stroke-linejoin:round;stroke-miterlimit:4;stroke-dasharray:none;stroke-dashoffset:198.3999939;stroke-opacity:1"
           d="m 323.3792,76.18761 c -3.8468,4.8503 -5.443,11.34528 -8.23,16.8799 -5.1772,12.72669 -11.0349,25.38019 -15.6009,38.22609 13.4894,6.5727 26.6426,14.2472 37.6542,24.6609 1.6132,1.7399 4.2005,3.9188 5.8015,0.7423 12.9792,-12.979 26.547,-25.4629 38.6495,-39.2648 2.3098,-3.2251 -2.9738,-5.205 -4.5606,-7.3033 -15.9188,-13.96166 -33.7611,-26.06515 -53.443,-33.98712 l -0.2707,0.046 z"
           id="path4407"
           inkscape:connector-curvature="0"
           transform="matrix(0.2650976,-0.6400025,0.6400313,0.2651096,66.64085,358.0962)" />
        <path
           style="opacity:1;fill:#ffba91;fill-opacity:1;stroke:none;stroke-width:1;stroke-linecap:butt;stroke-linejoin:round;stroke-miterlimit:4;stroke-dasharray:none;stroke-dashoffset:198.3999939;stroke-opacity:1"
           d="m 345.7118,20.10363 c -4.6511,8.69344 -7.8187,18.43619 -11.8763,27.53131 -3.4853,8.84883 -7.5404,17.55834 -10.6237,26.52003 4.4431,4.31801 10.9562,6.20754 16.2548,9.3885 16.1912,8.2907 30.6169,19.54673 43.8889,31.92013 3.7525,-1.2628 6.3837,-6.0036 9.6987,-8.6026 10.4773,-10.73933 21.6405,-20.92859 31.4857,-32.22333 0.5513,-3.726 -4.2755,-5.6878 -6.1705,-8.27707 C 397.0974,46.99014 372.441,31.4 346.0313,20.07433 l -0.3195,0.0293 z"
           id="path4409"
           inkscape:connector-curvature="0"
           transform="matrix(0.2650976,-0.6400025,0.6400313,0.2651096,66.64085,358.0962)" />
        <path
           style="opacity:1;fill:#ff9191;fill-opacity:1;stroke:none;stroke-width:1;stroke-linecap:butt;stroke-linejoin:round;stroke-miterlimit:4;stroke-dasharray:none;stroke-dashoffset:198.3999939;stroke-opacity:1"
           d="M 250.0659,0.6505046 C 249.62,20.24027 250.0023,39.97732 249.8748,59.62372 c 3.304,1.97629 8.4592,0.87296 12.4693,1.66155 20.3179,1.26004 40.232,6.28441 59.308,13.40818 3.1819,-3.25756 3.9048,-8.80553 6.1503,-12.92425 5.4918,-13.68738 11.7085,-27.19418 16.7138,-41.01406 -1.5477,-3.23688 -6.3516,-3.12738 -9.1448,-4.80609 C 308.3045,5.926924 279.4778,1.452514 250.7188,0.3714868 l -0.6529,0.2790178 z"
           id="path4411"
           inkscape:connector-curvature="0"
           transform="matrix(0.2650976,-0.6400025,0.6400313,0.2651096,66.64085,358.0962)" />
        <path
           style="opacity:1;fill:#ff0000;fill-opacity:1;stroke:none;stroke-width:1;stroke-linecap:butt;stroke-linejoin:round;stroke-miterlimit:4;stroke-dasharray:none;stroke-dashoffset:198.3999939;stroke-opacity:1"
           d="m 250.0659,61.02718 c -0.4455,19.76499 -0.063,39.67752 -0.1911,59.49912 3.2363,1.9474 8.2705,1.0049 12.1686,1.9083 11.7533,1.2104 23.3398,3.6567 34.3897,7.8448 3.8794,2.2895 3.7723,-4.3198 5.3228,-6.3251 7.0785,-15.8296 13.4584,-31.95968 20.1655,-47.94805 -2.0056,-2.70669 -6.9182,-2.92695 -10.1493,-4.52567 -19.7842,-6.78827 -40.8967,-10.41797 -61.7062,-10.4534 z"
           id="path4413"
           inkscape:connector-curvature="0"
           transform="matrix(0.2650976,-0.6400025,0.6400313,0.2651096,66.64085,358.0962)"
           sodipodi:nodetypes="cccccccc" />
        <path
           style="opacity:1;fill:#ff91ba;fill-opacity:1;stroke:none;stroke-width:1;stroke-linecap:butt;stroke-linejoin:round;stroke-miterlimit:4;stroke-dasharray:none;stroke-dashoffset:198.3999939;stroke-opacity:1"
           d="M 246.2084,0.5584287 C 215.8441,1.515433 185.4229,7.244375 157.2841,18.83525 c -3.0251,0.72411 -2.1367,3.72757 -0.7224,5.67663 7.1114,16.65795 13.783,33.81012 21.0712,50.20529 18.0419,-6.085 36.3553,-11.69437 55.4489,-13.11577 5.5614,-0.70985 11.392,-0.38349 16.8279,-1.43778 0.3157,-19.56275 0.045,-39.21243 0.1352,-58.808595 -0.4274,-1.5580032 -2.708,-0.4753743 -3.8365,-0.7965963 z"
           id="path4417"
           inkscape:connector-curvature="0"
           transform="matrix(0.2650976,-0.6400025,0.6400313,0.2651096,66.64085,358.0962)" />
        <path
           style="opacity:1;fill:#ff0060;fill-opacity:1;stroke:none;stroke-width:1;stroke-linecap:butt;stroke-linejoin:round;stroke-miterlimit:4;stroke-dasharray:none;stroke-dashoffset:198.3999939;stroke-opacity:1"
           d="m 245.7802,60.86674 c -20.359,0.82558 -40.6186,4.32766 -59.8118,11.27044 -2.4017,1.29908 -8.2784,1.36804 -6.9307,5.45808 6.2424,17.1953 13.4485,34.07464 21.0324,50.72544 0.3748,3.5927 3.0728,2.9015 4.9386,1.43 14.2401,-5.1797 29.2188,-7.4625 44.3025,-8.4333 1.7131,-3.582 0.2445,-8.7539 0.7337,-12.9409 -0.211,-15.8773 0.4213,-31.95138 -0.3138,-47.70646 -1.2569,-0.35731 -2.6564,0.18917 -3.9509,0.1967 z"
           id="path4415"
           inkscape:connector-curvature="0"
           transform="matrix(0.2650976,-0.6400025,0.6400313,0.2651096,66.64085,358.0962)"
           sodipodi:nodetypes="ccccccccc" />
        <path
           style="opacity:1;fill:#370070;fill-opacity:1;stroke:none;stroke-width:1;stroke-linecap:butt;stroke-linejoin:round;stroke-miterlimit:4;stroke-dasharray:none;stroke-dashoffset:198.3999939;stroke-opacity:1"
           d="m 131.2545,201.1918 c -3.0583,1.2421 -2.1525,6.8304 -3.4472,9.4978 -3.807,12.6673 -5.7878,25.9666 -6.2445,39.0764 17.3576,0.5721 34.9323,0.081 52.3731,0.2456 2.1516,-4.2607 1.3235,-9.9964 2.7716,-14.7795 0.5838,-4.6223 2.864,-9.021 3.237,-13.6692 -12.9743,-6.2451 -26.6975,-11.4095 -40.0725,-16.9615 -2.5279,-0.8425 -5.9193,-3.2594 -8.6175,-3.4096 z"
           id="path4323"
           inkscape:connector-curvature="0"
           transform="matrix(0.2650976,-0.6400025,0.6400313,0.2651096,66.64085,358.0962)"
           sodipodi:nodetypes="cccccccc" />
        <path
           style="opacity:1;fill:#620070;fill-opacity:1;stroke:none;stroke-width:1;stroke-linecap:butt;stroke-linejoin:round;stroke-miterlimit:4;stroke-dasharray:none;stroke-dashoffset:198.3999939;stroke-opacity:1"
           d="m 158.435,160.2278 c -10.8448,11.5457 -20.7525,24.9561 -26.3987,39.829 0.2761,2.8011 4.9899,2.3669 6.8822,3.8689 13.6057,5.612 27.0948,11.7446 40.9102,16.7164 3.4822,-2.6194 4.2672,-7.6927 7.0927,-10.9514 2.6155,-4.5121 6.4419,-8.2792 9.4489,-12.4093 -12.0309,-12.5276 -24.5577,-24.6908 -36.7787,-37.0787 l -0.6725,-0.2274 z"
           id="path4325"
           inkscape:connector-curvature="0"
           transform="matrix(0.2650976,-0.6400025,0.6400313,0.2651096,66.64085,358.0962)"
           sodipodi:nodetypes="ccccccccc" />
        <path
           style="opacity:1;fill:#700054;fill-opacity:1;stroke:none;stroke-width:1;stroke-linecap:butt;stroke-linejoin:round;stroke-miterlimit:4;stroke-dasharray:none;stroke-dashoffset:198.3999939;stroke-opacity:1"
           d="m 200.105,132.1153 c -15.0141,6.3739 -29.2573,15.4684 -40.4841,27.2531 11.9812,12.5144 24.4384,24.7634 36.8708,36.9001 3.0905,-0.1926 4.9627,-4.0423 7.6897,-5.4617 4.9473,-3.8657 10.5387,-6.7799 16.0435,-9.7978 0.4019,-3.4976 -2.5475,-6.9271 -3.4085,-10.3744 -5.4156,-12.7836 -10.1609,-26.0116 -16.1757,-38.4523 -0.1663,-0.075 -0.3567,-0.094 -0.5357,-0.067 z"
           id="path4327"
           inkscape:connector-curvature="0"
           transform="matrix(0.2650976,-0.6400025,0.6400313,0.2651096,66.64085,358.0962)" />
        <path
           style="opacity:1;fill:#70002a;fill-opacity:1;stroke:none;stroke-width:1;stroke-linecap:butt;stroke-linejoin:round;stroke-miterlimit:4;stroke-dasharray:none;stroke-dashoffset:198.3999939;stroke-opacity:1"
           d="m 241.1638,122.2214 c -13.1244,1.1175 -27.2115,3.3248 -39.1557,9.04 -2.3075,2.0664 1.9493,5.3438 2.1631,7.7094 5.7785,13.531 10.4746,27.6249 17.3916,40.618 2.2571,1.9018 5.322,-1.5594 7.9484,-1.4943 6.6468,-1.983 13.7333,-2.2029 20.418,-3.5712 0.2698,-17.2879 0.038,-34.6445 0.1158,-51.9587 -1.7964,-1.7997 -6.3168,0.025 -8.8812,-0.3432 z"
           id="path4329"
           inkscape:connector-curvature="0"
           transform="matrix(0.2650976,-0.6400025,0.6400313,0.2651096,66.64085,358.0962)"
           sodipodi:nodetypes="cccccccc" />
        <path
           style="opacity:1;fill:#700000;fill-opacity:1;stroke:none;stroke-width:1;stroke-linecap:butt;stroke-linejoin:round;stroke-miterlimit:4;stroke-dasharray:none;stroke-dashoffset:198.3999939;stroke-opacity:1"
           d="m 250.0673,122.0456 c -0.4486,17.2819 -0.063,34.7131 -0.1925,52.0522 3.1855,1.9454 8.1071,1.0334 11.9517,2.1512 5.5991,0.465 10.7951,3.0531 16.2444,3.8421 3.3052,-4.2769 4.5621,-10.1817 7.0134,-15.0749 4.3562,-11.0314 9.6501,-21.8745 13.2038,-33.1678 -3.6314,-3.0713 -9.4574,-3.431 -13.8849,-5.1279 -11.1153,-3.1999 -22.8653,-4.928 -34.3359,-4.6749 z"
           id="path4331"
           inkscape:connector-curvature="0"
           transform="matrix(0.2650976,-0.6400025,0.6400313,0.2651096,66.64085,358.0962)"
           sodipodi:nodetypes="cccccccc" />
        <path
           style="opacity:1;fill:#702a00;fill-opacity:1;stroke:none;stroke-width:1;stroke-linecap:butt;stroke-linejoin:round;stroke-miterlimit:4;stroke-dasharray:none;stroke-dashoffset:198.3999939;stroke-opacity:1"
           d="m 299.5065,132.146 c -3.1104,4.074 -4.2439,9.8979 -6.654,14.5672 -4.5806,11.0955 -9.2588,22.1545 -13.6557,33.3235 1.2313,2.8333 5.5943,3.2859 7.8529,5.152 5.6828,2.9934 10.4721,7.3018 15.526,11.1831 3.9133,-2.0185 6.6682,-6.3229 10.1257,-9.1769 9.125,-9.3044 18.867,-18.2594 27.4859,-27.8934 -11.2045,-11.7934 -25.4563,-20.6334 -40.3042,-27.1429 l -0.1646,-0.018 -0.212,0.01 z"
           id="path4333"
           inkscape:connector-curvature="0"
           transform="matrix(0.2650976,-0.6400025,0.6400313,0.2651096,66.64085,358.0962)" />
        <path
           style="opacity:1;fill:#705400;fill-opacity:1;stroke:none;stroke-width:1;stroke-linecap:butt;stroke-linejoin:round;stroke-miterlimit:4;stroke-dasharray:none;stroke-dashoffset:198.3999939;stroke-opacity:1"
           d="m 339.9878,160.172 c -12.1779,12.0693 -24.3561,24.1382 -36.5346,36.2067 0.7127,3.3107 4.7148,5.7343 6.4802,8.9356 3.8121,4.6831 5.9789,10.3768 9.4377,15.2344 5.6115,-0.94 11.0055,-4.3431 16.5139,-6.1868 10.5087,-4.5458 21.4122,-8.4732 31.6307,-13.5314 -0.8379,-5.2178 -4.3682,-9.9174 -6.564,-14.7469 -5.5891,-9.5343 -12.2816,-18.8175 -20.4868,-26.139 l -0.4771,0.2274 z"
           id="path4335"
           inkscape:connector-curvature="0"
           transform="matrix(0.2650976,-0.6400025,0.6400313,0.2651096,66.64085,358.0962)" />
        <path
           style="opacity:1;fill:#627000;fill-opacity:1;stroke:none;stroke-width:1;stroke-linecap:butt;stroke-linejoin:round;stroke-miterlimit:4;stroke-dasharray:none;stroke-dashoffset:198.3999939;stroke-opacity:1"
           d="m 367.1767,201.7973 c -15.672,6.2282 -31.2735,12.6521 -46.7857,19.2675 -1.0506,3.1113 1.4014,6.698 1.7915,9.9574 1.8357,6.0839 1.8054,12.8615 3.432,18.7559 17.0558,0.544 34.4969,0.077 51.7003,0.2335 1.6928,-2.7595 0.095,-7.1963 0.2804,-10.6711 -1.0605,-12.7339 -3.8128,-25.6021 -9.3122,-37.1568 -0.263,-0.315 -0.6957,-0.5181 -1.1063,-0.3864 z"
           id="path4337"
           inkscape:connector-curvature="0"
           transform="matrix(0.2650976,-0.6400025,0.6400313,0.2651096,66.64085,358.0962)" />
        <path
           style="opacity:1;fill:#377000;fill-opacity:1;stroke:none;stroke-width:1;stroke-linecap:butt;stroke-linejoin:round;stroke-miterlimit:4;stroke-dasharray:none;stroke-dashoffset:198.3999939;stroke-opacity:1"
           d="m 325.1831,250.1552 c -0.9419,9.3816 -2.2341,18.8792 -5.7952,27.7693 2.6053,2.9824 7.9855,3.6063 11.654,5.6768 12.2466,4.8799 24.3142,10.6116 36.7249,14.8645 3.3769,-3.848 3.9969,-9.6027 5.7199,-14.3624 2.7981,-11.078 5.1627,-22.7227 4.1015,-34.0988 -17.2029,-0.3808 -34.5215,-0.054 -51.769,-0.1632 l -0.6361,0.3138 z"
           id="path4339"
           inkscape:connector-curvature="0"
           transform="matrix(0.2650976,-0.6400025,0.6400313,0.2651096,66.64085,358.0962)" />
        <path
           style="opacity:1;fill:#0d7000;fill-opacity:1;stroke:none;stroke-width:1;stroke-linecap:butt;stroke-linejoin:round;stroke-miterlimit:4;stroke-dasharray:none;stroke-dashoffset:198.3999939;stroke-opacity:1"
           d="m 320.0547,279.3907 c -3.6118,2.5289 -4.3016,7.7583 -7.2028,11.0324 -2.6761,4.5928 -6.5397,8.4452 -9.6554,12.5851 12.1975,12.4579 24.4607,25.033 37.2475,36.9238 3.1706,-0.6214 4.7149,-4.672 7.0187,-6.7522 8.1784,-10.1537 15.6814,-21.2177 20.4199,-33.3831 -2.7868,-2.831 -7.8148,-3.4714 -11.4152,-5.4786 -12.1399,-4.9361 -24.1707,-10.3759 -36.4127,-14.9274 z"
           id="path4341"
           inkscape:connector-curvature="0"
           transform="matrix(0.2650976,-0.6400025,0.6400313,0.2651096,66.64085,358.0962)" />
        <path
           style="opacity:1;fill:#00701d;fill-opacity:1;stroke:none;stroke-width:1;stroke-linecap:butt;stroke-linejoin:round;stroke-miterlimit:4;stroke-dasharray:none;stroke-dashoffset:198.3999939;stroke-opacity:1"
           d="m 301.9465,303.6541 c -6.2906,6.6609 -14.2197,11.1554 -22.288,15.3042 -0.9188,2.8196 2.1288,5.8215 2.6297,8.6678 5.5339,13.1561 10.3655,26.7014 16.5863,39.5199 2.3857,2.0497 5.4205,-1.6277 7.8154,-2.2035 12.2213,-6.2632 23.8195,-14.2032 33.496,-23.8372 -12.0333,-12.7127 -24.8072,-24.9159 -37.1247,-37.433 l -0.6725,-0.2274 -0.4422,0.2092 z"
           id="path4343"
           inkscape:connector-curvature="0"
           transform="matrix(0.2650976,-0.6400025,0.6400313,0.2651096,66.64085,358.0962)" />
        <path
           style="opacity:1;fill:#007047;fill-opacity:1;stroke:none;stroke-width:1;stroke-linecap:butt;stroke-linejoin:round;stroke-miterlimit:4;stroke-dasharray:none;stroke-dashoffset:198.3999939;stroke-opacity:1"
           d="m 276.8014,320.1692 c -8.7203,2.7176 -17.8642,4.2049 -26.8011,5.2455 -0.013,17.2384 -0.6293,34.6098 0.4367,51.8443 0.8982,2.8377 5.0914,0.4609 7.2154,0.8776 13.7113,-1.4529 27.7474,-3.5992 40.24,-9.6666 1.4767,-2.4028 -2.0411,-5.3389 -2.2884,-7.8725 -5.7654,-13.099 -10.3494,-26.7908 -17.0267,-39.4531 -0.4104,-0.5593 -1.0355,-1.0763 -1.7759,-0.9752 z"
           id="path4345"
           inkscape:connector-curvature="0"
           transform="matrix(0.2650976,-0.6400025,0.6400313,0.2651096,66.64085,358.0962)" />
        <path
           style="opacity:1;fill:#006f70;fill-opacity:1;stroke:none;stroke-width:1;stroke-linecap:butt;stroke-linejoin:round;stroke-miterlimit:4;stroke-dasharray:none;stroke-dashoffset:198.3999939;stroke-opacity:1"
           d="m 222.7249,320.1566 c -3.6046,2.0336 -4.0238,7.2247 -6.0588,10.5678 -5.0003,12.3004 -10.81,25.0165 -15.2874,37.4485 2.4038,3.2875 7.7218,2.8058 11.2555,4.4214 12.0375,3.5297 24.7446,6.0262 37.2266,5.6999 0.4293,-17.4185 0.061,-34.9764 0.1842,-52.4484 -3.0984,-1.9516 -7.9115,-0.8316 -11.6699,-2.0075 -5.3094,-0.8693 -10.4464,-2.4414 -15.6502,-3.6817 z"
           id="path4347"
           inkscape:connector-curvature="0"
           transform="matrix(0.2650976,-0.6400025,0.6400313,0.2651096,66.64085,358.0962)"
           sodipodi:nodetypes="cccccccc" />
        <path
           style="opacity:1;fill:#004770;fill-opacity:1;stroke:none;stroke-width:1;stroke-linecap:butt;stroke-linejoin:round;stroke-miterlimit:4;stroke-dasharray:none;stroke-dashoffset:198.3999939;stroke-opacity:1"
           d="m 196.2252,303.6109 c -12.0722,12.2922 -24.6546,24.1328 -36.2751,36.8429 0.6757,3.1498 4.6825,4.7094 6.755,7.0354 9.8752,8.3182 21.5928,15.6643 33.462,20.7304 2.7873,-1.8477 2.5508,-6.6785 4.3527,-9.4926 5.4684,-13.0328 11.6727,-25.9092 16.0972,-39.2944 -5.4072,-3.6242 -11.8271,-6.0974 -16.8499,-10.4325 -2.5841,-1.4962 -4.7151,-5.2229 -7.5419,-5.3892 z"
           id="path4349"
           inkscape:connector-curvature="0"
           transform="matrix(0.2650976,-0.6400025,0.6400313,0.2651096,66.64085,358.0962)"
           sodipodi:nodetypes="cccccccc" />
        <path
           style="opacity:1;fill:#001d70;fill-opacity:1;stroke:none;stroke-width:1;stroke-linecap:butt;stroke-linejoin:round;stroke-miterlimit:4;stroke-dasharray:none;stroke-dashoffset:198.3999939;stroke-opacity:1"
           d="m 180.1984,279.314 c -16.0982,6.4033 -32.3148,12.795 -48.0482,19.9665 0.2909,4.4927 3.8313,8.4458 5.6026,12.56 5.6852,10.2314 12.5637,20.0419 21.0352,28.1153 3.8458,-1.6879 6.4357,-6.0075 9.7793,-8.6541 9.2931,-9.4252 19.1671,-18.5381 27.9341,-28.313 -6.2008,-7.0317 -11.5185,-14.7262 -15.4589,-23.2827 -0.371,0.4115 -0.5273,-0.4755 -0.8441,-0.392 z"
           id="path4351"
           inkscape:connector-curvature="0"
           transform="matrix(0.2650976,-0.6400025,0.6400313,0.2651096,66.64085,358.0962)" />
        <path
           style="opacity:1;fill:#0d0070;fill-opacity:1;stroke:none;stroke-width:1;stroke-linecap:butt;stroke-linejoin:round;stroke-miterlimit:4;stroke-dasharray:none;stroke-dashoffset:198.3999939;stroke-opacity:1"
           d="m 121.5028,250.1552 c 0.7408,16.2158 3.092,32.9678 9.7615,48.0413 2.8816,0.7313 5.9987,-2.2141 8.9313,-2.8204 13.4095,-5.6865 27.2673,-10.7921 40.3363,-16.9787 -3.7331,-9.0488 -4.7465,-18.9213 -6.0561,-28.4333 -17.411,-0.2862 -34.897,-0.041 -52.3368,-0.1227 l -0.6362,0.3138 z"
           id="path4353"
           inkscape:connector-curvature="0"
           transform="matrix(0.2650976,-0.6400025,0.6400313,0.2651096,66.64085,358.0962)" />
        <path
           style="opacity:1;fill:#1e00ff;fill-opacity:1;stroke:none;stroke-width:1;stroke-linecap:butt;stroke-linejoin:round;stroke-miterlimit:4;stroke-dasharray:none;stroke-dashoffset:198.3999939;stroke-opacity:1"
           d="m 60.75228,250.1552 c -0.14687,23.6798 4.96378,47.365 13.35101,69.4978 1.53264,5.259 7.54845,-1.1056 11.05851,-1.4424 15.0187,-6.251 30.113,-12.3308 45.0729,-18.7166 1.0146,-2.908 -1.7027,-6.22 -2.1987,-9.2006 -4.3183,-12.8348 -5.8869,-26.2575 -6.8331,-39.7224 -3.5879,-1.7042 -8.752,-0.2427 -12.9395,-0.7296 -15.80956,0.2111 -31.82487,-0.4212 -47.51112,0.3138 z"
           id="path4355"
           inkscape:connector-curvature="0"
           transform="matrix(0.2650976,-0.6400025,0.6400313,0.2651096,66.64085,358.0962)" />
        <path
           style="opacity:1;fill:#7e00ff;fill-opacity:1;stroke:none;stroke-width:1;stroke-linecap:butt;stroke-linejoin:round;stroke-miterlimit:4;stroke-dasharray:none;stroke-dashoffset:198.3999939;stroke-opacity:1"
           d="m 75.50387,178.6188 c -3.16528,3.7401 -3.82879,9.6427 -5.68677,14.1669 -5.8063,18.3903 -8.97406,37.8504 -9.10806,57.0319 19.82262,0.4521 39.79586,0.064 59.67636,0.1939 1.9993,-3.4155 1.0451,-8.6199 1.9132,-12.7469 0.9057,-12.0806 5.2865,-23.8961 8.468,-35.4755 0.1111,-3.032 -5.3261,-2.3611 -7.1667,-3.9171 -15.8943,-6.4038 -31.43768,-14.1182 -47.78213,-19.2755 l -0.12556,0 -0.59283,-0.5552 z"
           id="path4357"
           inkscape:connector-curvature="0"
           transform="matrix(0.2650976,-0.6400025,0.6400313,0.2651096,66.64085,358.0962)"
           sodipodi:nodetypes="ccccccccccc" />
        <path
           style="opacity:1;fill:#de00ff;fill-opacity:1;stroke:none;stroke-width:1;stroke-linecap:butt;stroke-linejoin:round;stroke-miterlimit:4;stroke-dasharray:none;stroke-dashoffset:198.3999939;stroke-opacity:1"
           d="m 115.3338,117.1391 c -16.38336,16.9408 -30.17529,36.9097 -39.27969,58.661 -1.00796,3.49 4.65273,3.2784 6.51576,4.7543 15.79984,6.5296 32.34033,13.9939 48.41683,19.7362 4.1754,-3.1405 4.6012,-9.3622 7.4696,-13.6302 5.3691,-9.7541 12.2501,-18.5905 19.8392,-26.6837 -1.2625,-3.7502 -6.015,-6.3736 -8.6187,-9.6839 -11.3454,-11.0407 -22.2322,-22.8219 -33.8631,-33.4021 z"
           id="path4359"
           inkscape:connector-curvature="0"
           transform="matrix(0.2650976,-0.6400025,0.6400313,0.2651096,66.64085,358.0962)"
           sodipodi:nodetypes="ccccccccc" />
        <path
           style="opacity:1;fill:#f191ff;fill-opacity:1;stroke:none;stroke-width:1;stroke-linecap:butt;stroke-linejoin:round;stroke-miterlimit:4;stroke-dasharray:none;stroke-dashoffset:198.3999939;stroke-opacity:1"
           d="M 73.00257,74.74091 C 51.33822,96.10899 34.28059,121.9647 21.76621,149.637 c -3.76543,4.553 0.42748,6.5582 4.64639,7.7018 15.85478,6.5903 31.65316,13.3246 47.59443,19.7012 2.65933,-1.12 3.03645,-5.2561 4.75055,-7.4865 9.19189,-19.4558 21.79152,-36.9893 36.27622,-52.8441 -1.2967,-3.7467 -6.0156,-6.3676 -8.6254,-9.6759 C 95.36544,96.28949 84.77991,84.80847 73.45178,74.52327 l -0.44921,0.21764 z"
           id="path4365"
           inkscape:connector-curvature="0"
           transform="matrix(0.2650976,-0.6400025,0.6400313,0.2651096,66.64085,358.0962)" />
        <path
           style="opacity:1;fill:#c791ff;fill-opacity:1;stroke:none;stroke-width:1;stroke-linecap:butt;stroke-linejoin:round;stroke-miterlimit:4;stroke-dasharray:none;stroke-dashoffset:198.3999939;stroke-opacity:1"
           d="M 19.58878,155.1385 C 7.002614,184.7544 1.147891,217.045 0.3686343,249.1745 c 3.3974807,1.93 8.7809387,0.2965 12.9422457,0.837 15.73667,-0.212 31.6708,0.4225 47.28515,-0.3138 0.18982,-24.3132 5.14954,-48.6727 14.12949,-71.264 -2.52943,-3.0221 -7.99655,-3.6062 -11.65593,-5.6809 -14.50018,-5.7853 -28.88124,-12.3942 -43.48081,-17.6143 z"
           id="path4367"
           inkscape:connector-curvature="0"
           transform="matrix(0.2650976,-0.6400025,0.6400313,0.2651096,66.64085,358.0962)" />
        <path
           style="opacity:1;fill:#9e91ff;fill-opacity:1;stroke:none;stroke-width:1;stroke-linecap:butt;stroke-linejoin:round;stroke-miterlimit:4;stroke-dasharray:none;stroke-dashoffset:198.3999939;stroke-opacity:1"
           d="m 0.5304646,250.1552 c 0.2269385,31.9706 6.2816684,64.2086 18.6328154,93.764 2.31221,2.5368 5.70069,-1.4805 8.30842,-1.7436 15.40442,-6.5493 31.1478,-12.5921 46.25074,-19.685 -0.66785,-7.6024 -4.47465,-14.754 -6.17212,-22.2283 -4.67254,-16.1843 -6.58534,-32.8752 -7.01148,-49.6592 -3.53336,-1.7724 -8.76195,-0.2582 -12.94225,-0.7617 -15.662,0.2084 -31.52723,-0.4176 -47.0661254,0.3138 z"
           id="path4369"
           inkscape:connector-curvature="0"
           transform="matrix(0.2650976,-0.6400025,0.6400313,0.2651096,66.64085,358.0962)" />
        <path
           style="opacity:1;fill:#91adff;fill-opacity:1;stroke:none;stroke-width:1;stroke-linecap:butt;stroke-linejoin:round;stroke-miterlimit:4;stroke-dasharray:none;stroke-dashoffset:198.3999939;stroke-opacity:1"
           d="m 74.16049,322.9775 c -17.73605,7.5529 -35.83793,14.5405 -53.36217,22.4163 -0.8465,3.711 2.56655,7.1928 3.56586,10.6581 11.99646,25.8044 28.73461,49.4077 48.73883,69.5874 3.18971,-0.8883 5.07655,-4.7556 7.77353,-6.6824 C 92.51194,407.2367 104.7,395.7974 115.7872,383.7044 99.31894,367.1805 86.37719,347.3413 76.58906,326.1841 c -0.79843,-0.9394 -0.87299,-3.3233 -2.42857,-3.2066 z"
           id="path4371"
           inkscape:connector-curvature="0"
           transform="matrix(0.2650976,-0.6400025,0.6400313,0.2651096,66.64085,358.0962)" />
        <path
           style="opacity:1;fill:#91d7ff;fill-opacity:1;stroke:none;stroke-width:1;stroke-linecap:butt;stroke-linejoin:round;stroke-miterlimit:4;stroke-dasharray:none;stroke-dashoffset:198.3999939;stroke-opacity:1"
           d="m 115.5388,384.5721 c -13.834,13.7678 -27.66774,27.5359 -41.50108,41.3044 0.79387,3.2593 5.22946,5.3377 7.56381,8.0585 21.09287,19.303 45.68277,34.4837 71.77767,46.0319 2.617,-1.2323 2.6385,-5.4034 4.2556,-7.6837 6.3652,-15.5684 13.6221,-30.8701 18.7118,-46.9061 -0.98,-2.6288 -5.3103,-2.6323 -7.3819,-4.4191 -19.2508,-9.1733 -37.104,-21.3796 -52.3126,-36.4026 l -0.6794,-0.2065 -0.4339,0.2232 z"
           id="path4373"
           inkscape:connector-curvature="0"
           transform="matrix(0.2650976,-0.6400025,0.6400313,0.2651096,66.64085,358.0962)" />
        <path
           style="opacity:1;fill:#00a2ff;fill-opacity:1;stroke:none;stroke-width:1;stroke-linecap:butt;stroke-linejoin:round;stroke-miterlimit:4;stroke-dasharray:none;stroke-dashoffset:198.3999939;stroke-opacity:1"
           d="m 158.3234,341.5434 c -13.6608,14.0429 -28.2536,27.2999 -41.0951,42.0786 1.6306,4.0266 6.2817,6.3997 9.2429,9.5451 14.8654,12.8952 31.9398,23.2641 50.04,30.9028 2.7886,-1.9417 3.1309,-6.5225 4.9592,-9.4185 6.2563,-15.0495 13.1394,-29.9512 18.5341,-45.2969 -2.7408,-3.3691 -7.7408,-3.7679 -11.2075,-6.3155 -10.9136,-5.8679 -20.5507,-14.0178 -30.069,-21.7133 l -0.4046,0.2177 z"
           id="path4375"
           inkscape:connector-curvature="0"
           transform="matrix(0.2650976,-0.6400025,0.6400313,0.2651096,66.64085,358.0962)" />
        <path
           style="opacity:1;fill:#0042ff;fill-opacity:1;stroke:none;stroke-width:1;stroke-linecap:butt;stroke-linejoin:round;stroke-miterlimit:4;stroke-dasharray:none;stroke-dashoffset:198.3999939;stroke-opacity:1"
           d="m 130.7397,299.8051 c -14.9141,4.5398 -29.1079,12.1354 -43.61128,17.8437 -3.4921,1.8893 -8.10019,2.551 -10.95063,5.1906 1.45632,7.5371 6.2704,14.0885 9.7297,20.8673 8.24313,14.5188 18.35811,28.1746 30.18241,39.8373 14.2931,-13.6377 28.0993,-27.9768 42.2056,-41.8835 -1.0275,-3.8689 -5.4656,-6.9158 -7.8069,-10.4617 -7.7574,-9.2464 -13.5614,-19.9074 -18.9034,-30.6083 -0.281,-0.1662 -0.5283,-0.8122 -0.8455,-0.7854 z"
           id="path4377"
           inkscape:connector-curvature="0"
           transform="matrix(0.2650976,-0.6400025,0.6400313,0.2651096,66.64085,358.0962)"
           sodipodi:nodetypes="ccccccccc" />
        <path
           style="opacity:1;fill:#00fcff;fill-opacity:1;stroke:none;stroke-width:1;stroke-linecap:butt;stroke-linejoin:round;stroke-miterlimit:4;stroke-dasharray:none;stroke-dashoffset:198.3999939;stroke-opacity:1"
           d="m 201.4568,369.6251 c -2.731,1.847 -2.8886,6.3302 -4.6721,9.0793 -6.1437,15.0918 -12.9212,30.0423 -18.3148,45.3738 3.6316,3.5536 9.4359,4.1728 14.0569,6.0938 18.2971,5.8448 37.5021,8.8634 56.6993,9.1253 1.8926,-3.4305 0.2868,-8.7765 0.8188,-12.9423 -0.2109,-15.9015 0.421,-31.9997 -0.3138,-47.779 -16.0779,-0.084 -31.9874,-3.8638 -47.1959,-8.849 -0.3553,-0.063 -0.7161,-0.1222 -1.0784,-0.1019 z"
           id="path4379"
           inkscape:connector-curvature="0"
           transform="matrix(0.2650976,-0.6400025,0.6400313,0.2651096,66.64085,358.0962)" />
        <path
           style="opacity:1;fill:#91feff;fill-opacity:1;stroke:none;stroke-width:1;stroke-linecap:butt;stroke-linejoin:round;stroke-miterlimit:4;stroke-dasharray:none;stroke-dashoffset:198.3999939;stroke-opacity:1"
           d="m 178.8871,426.0258 c -3.5081,2.2982 -4.0682,7.4401 -6.1524,10.897 -5.8998,14.2068 -12.1738,28.3747 -17.5558,42.726 2.0143,2.9473 6.6328,2.8893 9.5842,4.5659 27.0455,9.6165 55.7021,15.3053 84.4713,15.0825 1.875,-3.4458 0.2828,-8.7743 0.8105,-12.9422 -0.2095,-15.5903 0.4191,-31.3761 -0.3138,-46.8443 -20.4455,-0.6868 -40.9617,-3.37 -60.3486,-10.3174 -3.4793,-1.0713 -6.9129,-2.5188 -10.4954,-3.1675 z"
           id="path4381"
           inkscape:connector-curvature="0"
           transform="matrix(0.2650976,-0.6400025,0.6400313,0.2651096,66.64085,358.0962)" />
        <path
           style="opacity:1;fill:#91ffd7;fill-opacity:1;stroke:none;stroke-width:1;stroke-linecap:butt;stroke-linejoin:round;stroke-miterlimit:4;stroke-dasharray:none;stroke-dashoffset:198.3999939;stroke-opacity:1"
           d="m 321.7177,425.8528 c -16.2026,4.7621 -32.3032,10.4867 -49.1992,12.0815 -7.4354,1.0755 -15.1498,0.6915 -22.5014,1.7578 -0.3316,19.6329 -0.047,39.36 -0.1423,59.029 3.2046,1.7666 8.2043,-0.031 12.1113,0.3073 27.5831,-1.4814 55.1882,-7.055 80.6342,-17.9329 3.9874,-1.5098 -0.1366,-5.6685 -0.5762,-8.2118 -6.4022,-15.5611 -12.7234,-31.161 -19.4099,-46.6012 -0.1805,-0.354 -0.5661,-0.4742 -0.9165,-0.4297 z"
           id="path4383"
           inkscape:connector-curvature="0"
           transform="matrix(0.2650976,-0.6400025,0.6400313,0.2651096,66.64085,358.0962)" />
        <path
           style="opacity:1;fill:#00ffa2;fill-opacity:1;stroke:none;stroke-width:1;stroke-linecap:butt;stroke-linejoin:round;stroke-miterlimit:4;stroke-dasharray:none;stroke-dashoffset:198.3999939;stroke-opacity:1"
           d="m 297.9747,369.5735 c -9.2393,2.633 -18.3886,5.7962 -27.9473,7.1437 -6.5871,1.3387 -13.3992,1.5494 -19.9894,2.0095 -0.3806,19.9048 -0.054,39.9252 -0.1632,59.8744 2.821,1.7369 7.3837,-0.035 10.911,0.2288 20.5574,-1.4117 41.0606,-5.8772 60.1074,-13.6426 1.6694,-2.5138 -1.6203,-5.467 -1.9849,-8.0658 -6.5592,-15.8011 -12.6425,-31.9064 -19.9041,-47.3555 -0.3009,-0.2052 -0.6796,-0.2194 -1.0295,-0.1925 z"
           id="path4385"
           inkscape:connector-curvature="0"
           transform="matrix(0.2650976,-0.6400025,0.6400313,0.2651096,66.64085,358.0962)" />
        <path
           style="opacity:1;fill:#00ff42;fill-opacity:1;stroke:none;stroke-width:1;stroke-linecap:butt;stroke-linejoin:round;stroke-miterlimit:4;stroke-dasharray:none;stroke-dashoffset:198.3999939;stroke-opacity:1"
           d="m 340.0715,342.0065 c -4.8401,3.3054 -8.6594,7.9315 -13.7319,11.0463 -8.1316,5.8946 -16.7484,11.1708 -25.8119,15.3223 -1.8042,2.3045 1.6305,5.3299 1.8872,7.8086 6.6212,15.8837 12.6636,32.116 19.8915,47.688 3.3344,0.8662 6.4396,-2.612 9.5304,-3.4821 18.833,-9.2934 36.7887,-21.2249 51.1783,-36.4871 -13.7714,-14.126 -27.6697,-28.3559 -42.2154,-41.7537 -0.2095,-0.1398 -0.4806,-0.1938 -0.7282,-0.1423 z"
           id="path4387"
           inkscape:connector-curvature="0"
           transform="matrix(0.2650976,-0.6400025,0.6400313,0.2651096,66.64085,358.0962)" />
        <path
           style="opacity:1;fill:#91ffad;fill-opacity:1;stroke:none;stroke-width:1;stroke-linecap:butt;stroke-linejoin:round;stroke-miterlimit:4;stroke-dasharray:none;stroke-dashoffset:198.3999939;stroke-opacity:1"
           d="m 383.0932,384.8037 c -17.153,16.7902 -38.6863,29.9895 -60.4366,39.9038 -0.3226,4.2618 3.772,8.1747 4.8941,12.2572 5.8798,13.8999 10.9382,28.2353 17.9309,41.6169 2.1605,2.5301 5.4241,-1.5419 7.8583,-1.8579 26.8722,-12.146 51.611,-29.338 72.4082,-50.0771 -13.5314,-14.1613 -27.7501,-27.8435 -41.5458,-41.8206 l -0.6738,-0.2274 z"
           id="path4389"
           inkscape:connector-curvature="0"
           transform="matrix(0.2650976,-0.6400025,0.6400313,0.2651096,66.64085,358.0962)"
           sodipodi:nodetypes="ccccccccc" />
        <path
           style="opacity:1;fill:#9eff91;fill-opacity:1;stroke:none;stroke-width:1;stroke-linecap:butt;stroke-linejoin:round;stroke-miterlimit:4;stroke-dasharray:none;stroke-dashoffset:198.3999939;stroke-opacity:1"
           d="m 425.0533,323.0054 c -8.962,18.1429 -18.7894,36.1632 -32.3735,51.3435 -2.6507,3.3304 -6.1325,6.1315 -8.4105,9.6414 13.6784,14.0339 27.5408,28.0469 41.716,41.6225 3.2305,-0.7639 4.9295,-4.9196 7.4888,-6.974 19.2456,-21.2984 35.4932,-45.6677 46.0658,-72.4107 -0.824,-2.6486 -5.375,-2.3798 -7.4322,-4.0079 -15.7057,-6.2877 -31.2668,-13.4415 -47.0544,-19.2148 z"
           id="path4391"
           inkscape:connector-curvature="0"
           transform="matrix(0.2650976,-0.6400025,0.6400313,0.2651096,66.64085,358.0962)" />
        <path
           style="opacity:1;fill:#1eff00;fill-opacity:1;stroke:none;stroke-width:1;stroke-linecap:butt;stroke-linejoin:round;stroke-miterlimit:4;stroke-dasharray:none;stroke-dashoffset:198.3999939;stroke-opacity:1"
           d="m 368.9442,299.9223 c -4.191,5.9721 -6.5107,13.2613 -10.8523,19.248 -4.8087,7.9282 -11.2183,14.7396 -16.7732,21.9783 13.761,14.0189 27.6101,28.1005 41.8917,41.6239 3.3296,-0.7328 5.1943,-4.783 7.7559,-6.9318 13.5652,-15.1225 24.4046,-32.6976 32.4799,-51.3021 1.4629,-3.7508 -4.545,-3.5416 -6.4395,-5.1209 -15.7936,-6.5847 -31.5644,-13.2356 -47.4709,-19.5401 l -0.5916,0.045 z"
           id="path4393"
           inkscape:connector-curvature="0"
           transform="matrix(0.2650976,-0.6400025,0.6400313,0.2651096,66.64085,358.0962)" />
        <path
           style="opacity:1;fill:#c7ff91;fill-opacity:1;stroke:none;stroke-width:1;stroke-linecap:butt;stroke-linejoin:round;stroke-miterlimit:4;stroke-dasharray:none;stroke-dashoffset:198.3999939;stroke-opacity:1"
           d="m 439.3237,250.1552 c -0.3375,24.3481 -5.1092,48.8517 -14.195,71.4984 2.5352,3.0212 7.9866,3.6255 11.6428,5.7082 14.2392,5.8321 28.3569,12.0832 42.7043,17.5814 2.9565,-2.764 3.4338,-7.6042 5.1513,-11.2432 9.5959,-26.7616 14.5519,-55.3572 14.6352,-83.6689 -19.7002,-0.4422 -39.5463,-0.063 -59.3024,-0.1897 l -0.6362,0.3138 z"
           id="path4395"
           inkscape:connector-curvature="0"
           transform="matrix(0.2650976,-0.6400025,0.6400313,0.2651096,66.64085,358.0962)" />
        <path
           style="opacity:1;fill:#7eff00;fill-opacity:1;stroke:none;stroke-width:1;stroke-linecap:butt;stroke-linejoin:round;stroke-miterlimit:4;stroke-dasharray:none;stroke-dashoffset:198.3999939;stroke-opacity:1"
           d="m 378.855,250.1552 c -1.1858,14.9 -3.2634,29.8787 -8.3756,44.029 -0.8035,2.375 -2.4888,5.9956 1.4978,6.3198 17.4439,7.0398 34.613,14.997 52.4135,21.0324 2.9097,-3.1686 3.2717,-8.2804 4.9933,-12.2265 6.1267,-18.8057 9.4171,-38.7165 9.7109,-58.386 -5.3803,-1.7534 -11.5013,-0.5841 -17.1331,-1.0489 -14.344,0.1338 -28.8874,-0.4342 -43.1068,0.2802 z"
           id="path4397"
           inkscape:connector-curvature="0"
           transform="matrix(0.2650976,-0.6400025,0.6400313,0.2651096,66.64085,358.0962)" />
        <path
           style="opacity:1;fill:#f1ff91;fill-opacity:1;stroke:none;stroke-width:1;stroke-linecap:butt;stroke-linejoin:round;stroke-miterlimit:4;stroke-dasharray:none;stroke-dashoffset:198.3999939;stroke-opacity:1"
           d="m 479.2958,155.126 c -17.908,7.4247 -35.8158,14.8498 -53.7235,22.2753 -0.5696,3.422 2.493,7.2316 3.2255,10.872 6.2508,19.5999 10.5652,40.2238 10.3627,60.9403 3.4676,1.8487 8.7713,0.2762 12.9422,0.7979 15.7344,-0.212 31.6662,0.4225 47.2782,-0.3138 -0.4186,-32.1263 -6.4276,-64.494 -19.0471,-94.1588 l -0.5483,-0.452 -0.4897,0.039 z"
           id="path4399"
           inkscape:connector-curvature="0"
           transform="matrix(0.2650976,-0.6400025,0.6400313,0.2651096,66.64085,358.0962)" />
        <path
           style="opacity:1;fill:#deff00;fill-opacity:1;stroke:none;stroke-width:1;stroke-linecap:butt;stroke-linejoin:round;stroke-miterlimit:4;stroke-dasharray:none;stroke-dashoffset:198.3999939;stroke-opacity:1"
           d="m 423.8996,178.9025 c -18.1969,6.6162 -36.2456,13.8174 -53.8923,21.7773 -1.0856,3.4098 1.5521,7.2077 2.2112,10.625 3.9888,12.2772 5.4477,25.1682 6.4495,37.9813 3.5953,1.6954 8.7509,0.2406 12.9395,0.7254 15.8503,-0.2113 31.8975,0.4215 47.6255,-0.3138 -0.4858,-23.6278 -4.8968,-47.4322 -13.7179,-69.4378 -0.3268,-0.5957 -0.7578,-1.5908 -1.6155,-1.3574 z"
           id="path4401"
           inkscape:connector-curvature="0"
           transform="matrix(0.2650976,-0.6400025,0.6400313,0.2651096,66.64085,358.0962)" />
        <path
           style="opacity:1;fill:#ffe491;fill-opacity:1;stroke:none;stroke-width:1;stroke-linecap:butt;stroke-linejoin:round;stroke-miterlimit:4;stroke-dasharray:none;stroke-dashoffset:198.3999939;stroke-opacity:1"
           d="m 425.4649,74.28192 c -13.6743,13.71735 -27.349,27.43438 -41.024,41.15098 0.8749,3.5371 5.1062,6.1646 7.3555,9.347 13.643,15.5773 24.4674,33.3196 32.9821,52.1066 4.4738,-0.2545 8.7253,-3.4541 13.1072,-4.7683 13.65,-5.8086 27.6044,-11.1217 41.0265,-17.3424 1.0215,-3.6767 -2.5638,-7.1884 -3.5372,-10.5869 -12.3856,-25.8673 -28.5292,-50.49181 -49.4316,-70.13717 l -0.4785,0.23019 z"
           id="path4403"
           inkscape:connector-curvature="0"
           transform="matrix(0.2650976,-0.6400025,0.6400313,0.2651096,66.64085,358.0962)" />
        <path
           style="opacity:1;fill:#ffc000;fill-opacity:1;stroke:none;stroke-width:1;stroke-linecap:butt;stroke-linejoin:round;stroke-miterlimit:4;stroke-dasharray:none;stroke-dashoffset:198.3999939;stroke-opacity:1"
           d="m 383.6359,117.2507 c -14.7233,12.735 -27.9076,27.2629 -41.887,40.8349 -1.3672,2.8721 3.6429,5.103 5.0538,7.6837 8.7551,10.0846 15.4945,21.6459 21.3352,33.5503 2.6992,2.3114 6.1421,-1.6525 9.0006,-2.0126 15.5071,-6.5702 31.3541,-12.633 46.5547,-19.762 0.2587,-4.334 -3.17,-8.1955 -4.7327,-12.1025 -9.3605,-17.4614 -20.4065,-34.3584 -34.7149,-48.143 l -0.5455,-0.064 -0.064,0.015 z"
           id="path4405"
           inkscape:connector-curvature="0"
           transform="matrix(0.2650976,-0.6400025,0.6400313,0.2651096,66.64085,358.0962)" />
        <g
           id="g4309"
           style="stroke-width:1.039124">
          <path
             id="path4287"
             d="m 381.8377,264.4432 a 88.89342,88.89342 0 0 1 -88.8935,88.8934 88.89342,88.89342 0 0 1 -88.8934,-88.8934 88.89342,88.89342 0 0 1 88.8934,-88.8934 88.89342,88.89342 0 0 1 88.8935,88.8934 z"
             style="opacity:1;fill:none;fill-opacity:1;stroke:#000000;stroke-width:1.039124;stroke-linecap:butt;stroke-linejoin:round;stroke-miterlimit:4;stroke-dasharray:none;stroke-dashoffset:198.3999939;stroke-opacity:1" />
          <path
             id="circle4138"
             d="M 465.6803,264.4432 A 172.7361,172.7361 0 0 1 292.9442,437.1793 172.7361,172.7361 0 0 1 120.2081,264.4432 172.7361,172.7361 0 0 1 292.9442,91.70711 172.7361,172.7361 0 0 1 465.6803,264.4432 Z"
             style="opacity:1;fill:none;fill-opacity:1;stroke:#000000;stroke-width:1.039124;stroke-linecap:butt;stroke-linejoin:round;stroke-miterlimit:4;stroke-dasharray:none;stroke-dashoffset:198.3999939;stroke-opacity:1" />
          <path
             sodipodi:nodetypes="cccc"
             style="fill:none;fill-rule:evenodd;stroke:#000000;stroke-width:1.039124;stroke-linecap:butt;stroke-linejoin:miter;stroke-opacity:1"
             d="m 226.7827,424.171 c 15.4494,-37.2981 30.8988,-74.5963 46.3482,-111.8944 m 39.6345,-95.6861 c 15.4468,-37.2918 30.8935,-74.5835 46.3403,-111.8752"
             id="path4189"
             inkscape:connector-curvature="0" />
          <path
             inkscape:connector-curvature="0"
             style="opacity:1;fill:none;fill-opacity:1;stroke:#000000;stroke-width:1.039124;stroke-linecap:butt;stroke-linejoin:round;stroke-miterlimit:4;stroke-dasharray:none;stroke-dashoffset:198.3999939;stroke-opacity:1"
             d="m 344.7501,264.4432 a 51.80578,51.80578 0 0 1 -51.8058,51.8058 51.80578,51.80578 0 0 1 -51.8058,-51.8058 51.80578,51.80578 0 0 1 51.8058,-51.8058 51.80578,51.80578 0 0 1 51.8058,51.8058 z"
             id="path4289" />
          <path
             id="path4291"
             d="M 424.0003,264.4433 A 131.0561,131.0561 0 0 1 292.9443,395.4994 131.0561,131.0561 0 0 1 161.8881,264.4433 131.0561,131.0561 0 0 1 292.9443,133.3871 131.0561,131.0561 0 0 1 424.0003,264.4433 Z"
             style="opacity:1;fill:none;fill-opacity:1;stroke:#000000;stroke-width:1.039124;stroke-linecap:butt;stroke-linejoin:round;stroke-miterlimit:4;stroke-dasharray:none;stroke-dashoffset:198.3999939;stroke-opacity:1"
             inkscape:connector-curvature="0" />
          <path
             inkscape:connector-curvature="0"
             id="path4295"
             d="m 133.2092,198.2787 c 37.2997,15.4501 74.5996,30.9002 111.8994,46.3503 m 95.6904,39.6362 c 37.2935,15.4475 74.5869,30.8949 111.8802,46.3424"
             style="fill:none;fill-rule:evenodd;stroke:#000000;stroke-width:1.039124;stroke-linecap:butt;stroke-linejoin:miter;stroke-opacity:1"
             sodipodi:nodetypes="cccc" />
          <path
             inkscape:connector-curvature="0"
             id="path4297"
             d="m 133.2112,330.6024 c 37.2993,-15.4488 74.5987,-30.8978 111.898,-46.3466 m 95.6892,-39.6332 c 37.293,-15.4463 74.5858,-30.8926 111.8788,-46.3387"
             style="fill:none;fill-rule:evenodd;stroke:#000000;stroke-width:1.039124;stroke-linecap:butt;stroke-linejoin:miter;stroke-opacity:1"
             sodipodi:nodetypes="cccc" />
          <path
             sodipodi:nodetypes="cccc"
             style="fill:none;fill-rule:evenodd;stroke:#000000;stroke-width:1.039124;stroke-linecap:butt;stroke-linejoin:miter;stroke-opacity:1"
             d="m 226.7777,104.7132 c 15.4505,37.2986 30.9011,74.5972 46.3517,111.8959 m 39.6376,95.6873 c 15.4479,37.2923 30.8959,74.5845 46.3437,111.8767"
             id="path4299"
             inkscape:connector-curvature="0" />
          <path
             inkscape:connector-curvature="0"
             id="path4301"
             d="m 170.691,386.6924 c 28.5474,-28.5465 57.0948,-57.093 85.6422,-85.6395 m 73.2366,-73.2342 c 28.5426,-28.5417 57.0851,-57.0833 85.6276,-85.6248"
             style="fill:none;fill-rule:evenodd;stroke:#000000;stroke-width:1.039124;stroke-linecap:butt;stroke-linejoin:miter;stroke-opacity:1"
             sodipodi:nodetypes="cccc" />
          <path
             sodipodi:nodetypes="cccc"
             style="fill:none;fill-rule:evenodd;stroke:#000000;stroke-width:1.039124;stroke-linecap:butt;stroke-linejoin:miter;stroke-opacity:1"
             d="m 170.6872,142.19 c 28.5482,28.5473 57.0966,57.0948 85.6449,85.6422 m 73.2389,73.2366 c 28.5435,28.5425 57.0869,57.085 85.6302,85.6275"
             id="path4303"
             inkscape:connector-curvature="0" />
          <path
             sodipodi:nodetypes="cccc"
             style="fill:none;fill-rule:evenodd;stroke:#000000;stroke-width:1.039124;stroke-linecap:butt;stroke-linejoin:miter;stroke-opacity:1"
             d="m 120.0494,264.4403 c 40.3727,7e-4 80.7455,0 121.1182,0 m 103.5739,0 c 40.366,6e-4 80.7317,0 121.0975,0"
             id="path4305"
             inkscape:connector-curvature="0" />
          <path
             inkscape:connector-curvature="0"
             id="path4307"
             d="m 292.9415,91.55385 c 5e-4,40.37145 0,80.74285 0,121.11445 m 0,103.5705 c 6e-4,40.3646 0,80.7292 0,121.0937"
             style="fill:none;fill-rule:evenodd;stroke:#000000;stroke-width:1.039124;stroke-linecap:butt;stroke-linejoin:miter;stroke-opacity:1"
             sodipodi:nodetypes="cccc" />
        </g>
      </g>
    </g>
  </g>
</svg>
