<?xml version="1.0" encoding="UTF-8" standalone="no"?>
<!-- Created with Inkscape (http://www.inkscape.org/) -->
<svg xmlns:rdf="http://www.w3.org/1999/02/22-rdf-syntax-ns#" xmlns="http://www.w3.org/2000/svg" xmlns:cc="http://web.resource.org/cc/" xmlns:xlink="http://www.w3.org/1999/xlink" xmlns:dc="http://purl.org/dc/elements/1.1/" xmlns:svg="http://www.w3.org/2000/svg" xmlns:inkscape="http://www.inkscape.org/namespaces/inkscape" xmlns:sodipodi="http://sodipodi.sourceforge.net/DTD/sodipodi-0.dtd" xmlns:ns1="http://sozi.baierouge.fr" id="svg2" viewBox="0 0 720 720" version="1.1" inkscape:version="0.91 r13725">
  <rect id="rect2823" style="fill:#ff0000" height="48" width="48" y="288" x="336"/>
  <rect id="rect2825" style="fill:#ff8000" height="48" width="48" y="288" x="384"/>
  <rect id="rect2827" style="fill:#ffff00" height="48" width="48" y="336" x="384"/>
  <rect id="rect2829" style="fill:#80ff00" height="48" width="48" y="384" x="384"/>
  <rect id="rect2831" style="fill:#00ff00" height="48" width="48" y="384" x="336"/>
  <rect id="rect2833" style="fill:#00ff80" height="48" width="48" y="384" x="288"/>
  <rect id="rect2835" style="fill:#00ffff" height="48" width="48" y="384" x="240"/>
  <rect id="rect2837" style="fill:#0080ff" height="48" width="48" y="336" x="240"/>
  <rect id="rect2839" style="fill:#0000ff" height="48" width="48" y="288" x="240"/>
  <rect id="rect2841" style="fill:#8000ff" height="48" width="48" y="240" x="240"/>
  <rect id="rect2843" style="fill:#ff00ff" height="48" width="48" y="192" x="240"/>
  <rect id="rect2845" style="fill:#ff0080" height="48" width="48" y="192" x="288"/>
  <rect id="rect2847" style="fill:#ff0000" height="48" width="48" y="192" x="336"/>
  <rect id="rect2849" style="fill:#ff8000" height="48" width="48" y="192" x="384"/>
  <rect id="rect2851" style="fill:#ffff00" height="48" width="48" y="192" x="432"/>
  <rect id="rect2853" style="fill:#80ff00" height="48" width="48" y="192" x="480"/>
  <rect id="rect2855" style="fill:#00ff00" height="48" width="48" y="240" x="480"/>
  <rect id="rect2857" style="fill:#00ff80" height="48" width="48" y="288" x="480"/>
  <rect id="rect2859" style="fill:#00ffff" height="48" width="48" y="336" x="480"/>
  <rect id="rect2861" style="fill:#0080ff" height="48" width="48" y="384" x="480"/>
  <rect id="rect2863" style="fill:#0000ff" height="48" width="48" y="432" x="480"/>
  <rect id="rect2865" style="fill:#8000ff" height="48" width="48" y="480" x="480"/>
  <rect id="rect2867" style="fill:#ff00ff" height="48" width="48" y="480" x="432"/>
  <rect id="rect2869" style="fill:#ff0080" height="48" width="48" y="480" x="384"/>
  <rect id="rect2871" style="fill:#ff0000" height="48" width="48" y="480" x="336"/>
  <rect id="rect2873" style="fill:#ff8000" height="48" width="48" y="480" x="288"/>
  <rect id="rect2875" style="fill:#ffff00" height="48" width="48" y="480" x="240"/>
  <rect id="rect2877" style="fill:#80ff00" height="48" width="48" y="480" x="192"/>
  <rect id="rect2879" style="fill:#00ff00" height="48" width="48" y="480" x="144"/>
  <rect id="rect2881" style="fill:#00ff80" height="48" width="48" y="432" x="144"/>
  <rect id="rect2883" style="fill:#00ffff" height="48" width="48" y="384" x="144"/>
  <rect id="rect2885" style="fill:#0080ff" height="48" width="48" y="336" x="144"/>
  <rect id="rect2887" style="fill:#0000ff" height="48" width="48" y="288" x="144"/>
  <rect id="rect2889" style="fill:#8000ff" height="48" width="48" y="240" x="144"/>
  <rect id="rect2891" style="fill:#ff00ff" height="48" width="48" y="192" x="144"/>
  <rect id="rect2893" style="fill:#ff0080" height="48" width="48" y="144" x="144"/>
  <rect id="rect2971" style="fill:#ff0000" height="48" width="48" y="96" x="144"/>
  <rect id="rect2973" style="fill:#ff8000" height="48" width="48" y="96" x="192"/>
  <rect id="rect2975" style="fill:#ffff00" height="48" width="48" y="96" x="240"/>
  <rect id="rect2977" style="fill:#80ff00" height="48" width="48" y="96" x="288"/>
  <rect id="rect2979" style="fill:#00ffff" transform="scale(-1)" height="48" width="48" y="-144" x="-480"/>
  <rect id="rect2981" style="fill:#0080ff" transform="scale(-1)" height="48" width="48" y="-144" x="-528"/>
  <rect id="rect2983" style="fill:#0000ff" transform="scale(-1)" height="48" width="48" y="-144" x="-576"/>
  <rect id="rect2985" style="fill:#8000ff" transform="scale(-1)" height="48" width="48" y="-144" x="-624"/>
  <rect id="rect2997" style="fill:#ff00ff" height="48" width="48" y="144" x="576"/>
  <rect id="rect2999" style="fill:#ff0080" height="48" width="48" y="192" x="576"/>
  <rect id="rect3001" style="fill:#00ff00" height="48" width="48" y="96" x="336"/>
  <rect id="rect3003" style="fill:#00ff80" height="48" width="48" y="96" x="384"/>
  <rect id="rect3005" style="fill:#ff0000" height="48" width="48" y="240" x="576"/>
  <rect id="rect3007" style="fill:#ff8000" height="48" width="48" y="288" x="576"/>
  <rect id="rect3009" style="fill:#ffff00" height="48" width="48" y="336" x="576"/>
  <rect id="rect3011" style="fill:#80ff00" height="48" width="48" y="384" x="576"/>
  <rect id="rect3013" style="fill:#00ff00" height="48" width="48" y="432" x="576"/>
  <rect id="rect3015" style="fill:#00ff80" height="48" width="48" y="480" x="576"/>
  <rect id="rect3017" style="fill:#00ffff" height="48" width="48" y="528" x="576"/>
  <rect id="rect3019" style="fill:#0080ff" height="48" width="48" y="576" x="576"/>
  <rect id="rect3021" style="fill:#0000ff" height="48" width="48" y="576" x="528"/>
  <rect id="rect3023" style="fill:#8000ff" height="48" width="48" y="576" x="480"/>
  <rect id="rect3025" style="fill:#ff00ff" height="48" width="48" y="576" x="432"/>
  <rect id="rect3027" style="fill:#ff0080" height="48" width="48" y="576" x="384"/>
  <rect id="rect3029" style="fill:#ff0000" height="48" width="48" y="576" x="336"/>
  <rect id="rect3031" style="fill:#ff8000" height="48" width="48" y="576" x="288"/>
  <rect id="rect3033" style="fill:#ffff00" height="48" width="48" y="576" x="240"/>
  <rect id="rect3035" style="fill:#80ff00" height="48" width="48" y="576" x="192"/>
  <rect id="rect3037" style="fill:#00ff00" height="48" width="48" y="576" x="144"/>
  <rect id="rect3039" style="fill:#00ff80" height="48" width="48" y="576" x="96"/>
  <rect id="rect3041" style="fill:#00ffff" height="48" width="48" y="576" x="48"/>
  <rect id="rect3043" style="fill:#0080ff" height="48" width="48" y="528" x="48"/>
  <rect id="rect3045" style="fill:#0000ff" height="48" width="48" y="480" x="48"/>
  <rect id="rect3047" style="fill:#8000ff" height="48" width="48" y="432" x="48"/>
  <rect id="rect3049" style="fill:#ff00ff" height="48" width="48" y="384" x="48"/>
  <rect id="rect3051" style="fill:#ff0080" height="48" width="48" y="336" x="48"/>
  <rect id="rect3053" style="fill:#ff0000" height="48" width="48" y="288" x="48"/>
  <rect id="rect3055" style="fill:#ff8000" height="48" width="48" y="240" x="48"/>
  <rect id="rect3057" style="fill:#ffff00" height="48" width="48" y="192" x="48"/>
  <rect id="rect3059" style="fill:#80ff00" height="48" width="48" y="144" x="48"/>
  <rect id="rect3061" style="fill:#00ff00" height="48" width="48" y="96" x="48"/>
  <rect id="rect3063" style="fill:#00ff80" height="48" width="48" y="48" x="48"/>
  <rect id="rect3065" style="fill:#0080ff" transform="scale(-1)" height="48" width="48" y="-48" x="-144"/>
  <rect id="rect3067" style="fill:#00ffff" transform="scale(-1)" height="48" width="48" y="-48" x="-96"/>
  <rect id="rect3069" style="fill:#0000ff" transform="scale(-1)" height="48" width="48" y="-48" x="-192"/>
  <rect id="rect3071" style="fill:#8000ff" transform="scale(-1)" height="48" width="48" y="-48" x="-240"/>
  <rect id="rect3073" style="fill:#ff00ff" height="48" width="48" y="0" x="240"/>
  <rect id="rect3075" style="fill:#ff0080" height="48" width="48" y="0" x="288"/>
  <rect id="rect3077" style="fill:#ff0000" height="48" width="48" y="0" x="336"/>
  <rect id="rect3079" style="fill:#ff8000" height="48" width="48" y="0" x="384"/>
  <rect id="rect3081" style="fill:#ffff00" height="48" width="48" y="0" x="432"/>
  <rect id="rect3083" style="fill:#80ff00" height="48" width="48" y="0" x="480"/>
  <rect id="rect3085" style="fill:#00ffff" transform="scale(-1)" height="48" width="48" y="-48" x="-672"/>
  <rect id="rect3087" style="fill:#0080ff" transform="scale(-1)" height="48" width="48" y="-48" x="-720"/>
  <rect id="rect3089" style="fill:#0000ff" transform="scale(-1)" height="48" width="48" y="-96" x="-720"/>
  <rect id="rect3091" style="fill:#8000ff" transform="scale(-1)" height="48" width="48" y="-144" x="-720"/>
  <rect id="rect3093" style="fill:#00ff00" height="48" width="48" y="0" x="528"/>
  <rect id="rect3095" style="fill:#00ff80" height="48" width="48" y="0" x="576"/>
  <rect id="rect3097" style="fill:#ff00ff" height="48" width="48" y="144" x="672"/>
  <rect id="rect3099" style="fill:#ff0080" height="48" width="48" y="192" x="672"/>
  <rect id="rect3101" style="fill:#ff0000" height="48" width="48" y="240" x="672"/>
  <rect id="rect3103" style="fill:#ff8000" height="48" width="48" y="288" x="672"/>
  <rect id="rect3105" style="fill:#ffff00" height="48" width="48" y="336" x="672"/>
  <rect id="rect3107" style="fill:#80ff00" height="48" width="48" y="384" x="672"/>
  <rect id="rect3109" style="fill:#00ff00" height="48" width="48" y="432" x="672"/>
  <rect id="rect3111" style="fill:#00ff80" height="48" width="48" y="480" x="672"/>
  <rect id="rect3113" style="fill:#00ffff" height="48" width="48" y="528" x="672"/>
  <rect id="rect3115" style="fill:#0080ff" height="48" width="48" y="576" x="672"/>
  <rect id="rect3117" style="fill:#0000ff" height="48" width="48" y="624" x="672"/>
  <rect id="rect3119" style="fill:#8000ff" height="48" width="48" y="672" x="672"/>
  <rect id="rect3121" style="fill:#ff00ff" height="48" width="48" y="672" x="624"/>
  <rect id="rect3123" style="fill:#ff0080" height="48" width="48" y="672" x="576"/>
  <rect id="rect3125" style="fill:#ff0000" height="48" width="48" y="672" x="528"/>
  <rect id="rect3127" style="fill:#ff8000" height="48" width="48" y="672" x="480"/>
  <rect id="rect3129" style="fill:#ffff00" height="48" width="48" y="672" x="432"/>
  <rect id="rect3131" style="fill:#80ff00" height="48" width="48" y="672" x="384"/>
  <rect id="rect3133" style="fill:#00ff00" height="48" width="48" y="672" x="336"/>
  <rect id="rect3135" style="fill:#00ff80" height="48" width="48" y="672" x="288"/>
  <rect id="rect3137" style="fill:#00ffff" height="48" width="48" y="672" x="240"/>
  <rect id="rect3139" style="fill:#0080ff" height="48" width="48" y="672" x="192"/>
  <rect id="rect3141" style="fill:#0000ff" height="48" width="48" y="672" x="144"/>
  <rect id="rect3143" style="fill:#8000ff" height="48" width="48" y="672" x="96"/>
  <rect id="rect3145" style="fill:#ff00ff" height="48" width="48" y="672" x="48"/>
  <rect id="rect3147" style="fill:#ff0080" height="48" width="48" y="672" x="0"/>
  <metadata>
    <rdf:RDF>
      <cc:Work>
        <dc:format>image/svg+xml</dc:format>
        <dc:type rdf:resource="http://purl.org/dc/dcmitype/StillImage"/>
        <cc:license rdf:resource="http://creativecommons.org/licenses/publicdomain/"/>
        <dc:publisher>
          <cc:Agent rdf:about="http://openclipart.org/">
            <dc:title>Openclipart</dc:title>
          </cc:Agent>
        </dc:publisher>
        <dc:title>120 square spiral 12 color</dc:title>
        <dc:date>2011-07-07T21:36:05</dc:date>
        <dc:description>120 square spiral 12 color</dc:description>
        <dc:source>https://openclipart.org/detail/148663/120-square-spiral-12-color-by-10binary</dc:source>
        <dc:creator>
          <cc:Agent>
            <dc:title>10binary</dc:title>
          </cc:Agent>
        </dc:creator>
        <dc:subject>
          <rdf:Bag>
            <rdf:li>12</rdf:li>
            <rdf:li>120</rdf:li>
            <rdf:li>color</rdf:li>
            <rdf:li>spiral</rdf:li>
            <rdf:li>square</rdf:li>
          </rdf:Bag>
        </dc:subject>
      </cc:Work>
      <cc:License rdf:about="http://creativecommons.org/licenses/publicdomain/">
        <cc:permits rdf:resource="http://creativecommons.org/ns#Reproduction"/>
        <cc:permits rdf:resource="http://creativecommons.org/ns#Distribution"/>
        <cc:permits rdf:resource="http://creativecommons.org/ns#DerivativeWorks"/>
      </cc:License>
    </rdf:RDF>
  </metadata>
</svg>
