<?xml version="1.0" encoding="UTF-8" standalone="no"?>
<!DOCTYPE svg PUBLIC "-//W3C//DTD SVG 1.1//EN" "http://www.w3.org/Graphics/SVG/1.1/DTD/svg11.dtd">
<svg width="100%" height="100%" viewBox="0 0 451 364" version="1.1" xmlns="http://www.w3.org/2000/svg" xmlns:xlink="http://www.w3.org/1999/xlink" xml:space="preserve" xmlns:serif="http://www.serif.com/" style="fill-rule:evenodd;clip-rule:evenodd;stroke-linecap:round;stroke-linejoin:round;">
    <g id="Layer_1">
        <g transform="matrix(1,0,0,1.00264,0,-0.967856)">
            <path d="M-0.601,366.156L-0.601,-3.004L15.588,-3.004L15.588,247.211L373.721,247.211L373.721,0.827L452.847,0.827L452.847,366.156L-0.601,366.156Z" style="fill:rgb(13,16,181);"/>
        </g>
        <g>
            <rect id="path12811" x="6.08" y="1.658" width="373.742" height="244.61" style="fill-opacity:0;stroke:rgb(26,25,25);stroke-width:3.19px;"/>
            <path id="path12809" d="M6.08,1.658L379.822,1.658L379.822,246.268L6.08,246.268L6.08,1.658ZM369.71,8.414L16.192,8.414L16.192,231.514L369.71,231.514L369.71,8.414Z" style="fill:rgb(243,182,116);fill-rule:nonzero;"/>
            <path id="path12817" d="M384.806,250.015L3.299,250.015L1.597,239.344L387.071,239.344L384.806,250.015" style="fill:rgb(131,101,63);fill-rule:nonzero;"/>
            <path id="path12819" d="M384.806,250.015L3.299,250.015L1.597,239.344L387.071,239.344L384.806,250.015Z" style="fill-opacity:0;fill-rule:nonzero;stroke:rgb(26,25,25);stroke-width:3.19px;"/>
            <rect id="path12821" x="63.526" y="215.08" width="41.333" height="20.667" style="fill:rgb(221,191,160);"/>
            <rect id="path12823" x="63.526" y="215.08" width="41.333" height="20.667" style="fill-opacity:0;stroke:rgb(26,25,25);stroke-width:2.5px;"/>
            <rect id="path12825" x="81.189" y="214.13" width="6.943" height="18.667" style="fill:rgb(235,139,45);"/>
            <rect id="path12827" x="81.189" y="214.13" width="6.943" height="18.667" style="fill-opacity:0;stroke:rgb(26,25,25);stroke-width:2.5px;"/>
        </g>
    </g>
</svg>
