<?xml version="1.0" encoding="UTF-8" standalone="no"?>
<!DOCTYPE svg PUBLIC "-//W3C//DTD SVG 1.1//EN" "http://www.w3.org/Graphics/SVG/1.1/DTD/svg11.dtd">
<svg width="100%" height="100%" viewBox="0 0 306 347" version="1.1" xmlns="http://www.w3.org/2000/svg" xmlns:xlink="http://www.w3.org/1999/xlink" xml:space="preserve" xmlns:serif="http://www.serif.com/" style="fill-rule:evenodd;clip-rule:evenodd;stroke-linecap:round;stroke-linejoin:round;">
    <g id="Layer_1" transform="matrix(1,0,0,1,-144.993,-17.2726)">
        <g>
            <path id="path12831" d="M310.192,134.747C310.192,134.747 294.192,141.08 287.192,150.414C280.192,159.747 267.859,178.414 267.859,178.414L249.192,159.747L246.859,160.747L243.192,156.414C243.192,156.414 239.193,157.08 232.526,171.414C225.859,185.747 224.526,190.08 224.526,190.08L229.192,195.08L227.859,201.08C227.859,201.08 248.192,225.747 258.859,231.747C269.526,237.747 273.526,232.08 273.526,232.08C273.526,232.08 270.192,256.747 271.859,271.414C273.526,286.08 274.526,297.414 274.526,297.414C274.526,297.414 359.525,302.413 383.192,301.08C406.859,299.747 425.526,297.747 425.526,297.747L422.859,253.747C422.859,253.747 442.192,231.08 446.192,222.414C450.192,213.747 449.859,218.08 447.859,212.747C445.859,207.414 436.858,167.414 417.192,147.747C397.526,128.08 384.192,126.414 384.192,126.414C384.192,126.414 367.86,140.747 333.526,140.747C327.526,142.747 318.526,141.747 313.526,138.747C308.526,135.747 310.192,134.747 310.192,134.747" style="fill:rgb(255,255,254);fill-rule:nonzero;"/>
            <path id="path12833" d="M450.101,349.318C450.101,357.428 403.29,364 345.549,364C287.805,364 240.995,357.428 240.995,349.318C240.995,341.211 287.805,334.638 345.549,334.638C403.29,334.638 450.101,341.211 450.101,349.318" style="fill:rgb(215,216,214);fill-rule:nonzero;"/>
            <path id="path12835" d="M280.582,344.672C280.582,344.672 280.136,347.037 281.641,350.629C283.146,354.221 289.395,357.916 304.497,354.68C319.6,351.445 330.325,349.303 335.938,345.863C341.55,342.426 344.646,345.656 346.287,342.924C347.928,340.189 347.651,334.644 347.651,334.644L280.582,344.672" style="fill:rgb(37,29,19);fill-rule:nonzero;"/>
            <path id="path12837" d="M280.582,344.672C280.582,344.672 280.136,347.037 281.641,350.629C283.146,354.221 289.395,357.916 304.497,354.68C319.6,351.445 330.325,349.303 335.938,345.863C341.55,342.426 344.646,345.656 346.287,342.924C347.928,340.189 347.651,334.644 347.651,334.644L280.582,344.672Z" style="fill-opacity:0;fill-rule:nonzero;stroke:rgb(26,25,25);stroke-width:2.97px;"/>
            <path id="path12839" d="M306.742,323.876C306.742,323.876 307.474,326.659 302.687,328.534C297.899,330.409 281.124,330.456 280.289,339.92C279.766,345.84 280.787,347.828 288.404,348.797C295.9,349.748 302.252,348.699 309.403,347.271C327.129,343.728 331.673,341.814 334.904,338.722C338.136,335.626 345.202,338.151 346.027,336.589C346.852,335.022 347.4,327.913 347.4,327.913L344.776,321.134L306.742,323.876" style="fill:rgb(73,46,37);fill-rule:nonzero;"/>
            <path id="path12841" d="M306.742,323.876C306.742,323.876 307.474,326.659 302.687,328.534C297.899,330.409 281.124,330.456 280.289,339.92C279.766,345.84 280.787,347.828 288.404,348.797C295.9,349.748 302.252,348.699 309.403,347.271C327.129,343.728 331.673,341.814 334.904,338.722C338.136,335.626 345.202,338.151 346.027,336.589C346.852,335.022 347.4,327.913 347.4,327.913L344.776,321.134L306.742,323.876Z" style="fill-opacity:0;fill-rule:nonzero;stroke:rgb(26,25,25);stroke-width:2.97px;"/>
            <path id="path12843" d="M348.334,339.603C348.334,339.603 348.191,346.326 350.125,348.346C352.06,350.365 357.597,350.484 359.959,350.93C362.323,351.377 363.759,358.133 386.693,358.627C409.626,359.123 414.801,357.65 416.028,355.699C417.258,353.748 417.051,345.039 417.051,345.039L357.085,337.419L348.334,339.603" style="fill:rgb(37,29,19);fill-rule:nonzero;"/>
            <path id="path12845" d="M348.334,339.603C348.334,339.603 348.191,346.326 350.125,348.346C352.06,350.365 357.597,350.484 359.959,350.93C362.323,351.377 363.759,358.133 386.693,358.627C409.626,359.123 414.801,357.65 416.028,355.699C417.258,353.748 417.051,345.039 417.051,345.039L357.085,337.419L348.334,339.603Z" style="fill-opacity:0;fill-rule:nonzero;stroke:rgb(26,25,25);stroke-width:2.97px;"/>
            <path id="path12847" d="M346.58,329.282C346.58,329.282 347.167,338.788 348.31,340.791C349.453,342.793 360.156,341.836 361.687,344.242C363.216,346.65 364.316,350.629 372.998,351.607C381.68,352.586 416.021,356.096 416.577,348.59C417.134,341.086 418.397,337.552 405.409,334.505C392.422,331.454 387.525,329.173 387.525,329.173L346.58,329.282" style="fill:rgb(73,46,37);fill-rule:nonzero;"/>
            <path id="path12849" d="M346.58,329.282C346.58,329.282 347.167,338.788 348.31,340.791C349.453,342.793 360.156,341.836 361.687,344.242C363.216,346.65 364.316,350.629 372.998,351.607C381.68,352.586 416.021,356.096 416.577,348.59C417.134,341.086 418.397,337.552 405.409,334.505C392.422,331.454 387.525,329.173 387.525,329.173L346.58,329.282Z" style="fill-opacity:0;fill-rule:nonzero;stroke:rgb(26,25,25);stroke-width:2.97px;"/>
            <path id="path12863" d="M228.348,180.17C228.348,180.17 217.226,182.306 215.092,171.183C212.957,160.061 216.894,135.492 220.293,131.737C225.561,125.916 226.325,127.12 228.142,134.675C229.732,141.3 241.544,141.784 242.439,150.411C243.094,156.729 243.093,156.754 238.203,163.374C233.313,169.993 228.348,180.17 228.348,180.17" style="fill:rgb(249,216,181);fill-rule:nonzero;"/>
            <path id="path12865" d="M228.348,180.17C228.348,180.17 217.226,182.306 215.092,171.183C212.957,160.061 216.894,135.492 220.293,131.737C225.561,125.916 226.325,127.12 228.142,134.675C229.732,141.3 241.544,141.784 242.439,150.411C243.094,156.729 243.093,156.754 238.203,163.374C233.313,169.993 228.348,180.17 228.348,180.17Z" style="fill:rgb(206,169,146);fill-opacity:0;fill-rule:nonzero;stroke:rgb(26,25,25);stroke-width:2.97px;"/>
            <path id="path12869" d="M372.229,130.263C372.229,130.263 337.25,156.408 321.352,178.218C305.454,200.029 300.05,212.176 300.05,212.176C300.05,212.176 292.457,197.377 300.205,168.269C307.951,139.164 315.524,136.557 315.524,136.557M311.234,133.696C311.234,133.696 293.614,143.601 287.318,160.476C295.192,162.228 295.554,163.818 295.554,163.818C295.554,163.818 286.417,165.599 285.138,169.923C283.856,174.247 281.676,183.693 289.277,198.1C296.878,212.502 300.05,212.176 300.05,212.176C300.05,212.176 334.643,185.627 348.256,178.008C361.141,170.796 349.284,166.953 345.769,164.9C342.252,162.846 363.956,165.291 363.956,165.291L378.252,126.04M329.32,138.832L340.378,158.058L329.32,138.832ZM305.668,153.355L329.32,138.832" style="fill-opacity:0;fill-rule:nonzero;stroke:rgb(26,25,25);stroke-width:2.97px;"/>
            <path id="path12871" d="M314.469,148.798L315.863,157.531L322.552,159.256L336.569,151.251L329.295,140.019L314.469,148.798" style="fill:rgb(204,30,57);fill-rule:nonzero;stroke:black;stroke-width:2px;stroke-linecap:butt;stroke-miterlimit:2;"/>
            <path id="path12875" d="M315.638,186.402L322.552,159.256L315.863,157.531C315.863,157.531 298.479,174.957 297.5,183.639C296.522,192.322 300.05,212.176 300.05,212.176L315.638,186.402" style="fill:rgb(204,30,57);fill-rule:nonzero;"/>
            <path id="path12877" d="M315.638,186.402L322.552,159.256L315.863,157.531C315.863,157.531 298.479,174.957 297.5,183.639C296.522,192.322 300.05,212.176 300.05,212.176L315.638,186.402Z" style="fill:rgb(149,127,182);fill-opacity:0;fill-rule:nonzero;stroke:rgb(26,25,25);stroke-width:2.97px;"/>
            <path id="path12879" d="M365.21,235.732C365.21,235.732 378.447,245.51 392.143,252.529C405.838,259.551 415.704,260.555 415.704,260.555L411.521,271.144C411.521,271.144 404.773,272.186 387.193,261.918C369.614,251.65 361.034,245.928 361.034,245.928L365.21,235.732" style="fill:rgb(255,255,254);fill-rule:nonzero;"/>
            <path id="path12881" d="M365.21,235.732C365.21,235.732 378.447,245.51 392.143,252.529C405.838,259.551 415.704,260.555 415.704,260.555L411.521,271.144C411.521,271.144 404.773,272.186 387.193,261.918C369.614,251.65 361.034,245.928 361.034,245.928L365.21,235.732ZM380.659,124.51C380.659,124.51 405.428,131.784 419.035,149.523C440.521,177.529 447.661,209.422 448.703,216.17C449.744,222.916 421.342,255.928 421.342,255.928C421.342,255.928 393.724,252.566 372.377,233.514C384.975,217.961 388.907,209.936 388.907,209.936C388.907,209.936 382.53,202.875 391.238,202.668C399.947,202.459 396,201.978 396,201.978C396,201.978 371.074,202.232 380.788,173.564M279.261,185.619C279.261,185.619 268.061,228.102 274.289,297.066C319.616,304.768 425.967,298.357 425.967,298.357L423.344,254.785M375.859,237.148L372.611,241.033M410.894,254.32L406.46,258.18M355.294,255.297C355.294,255.297 348.954,274.148 364.935,285.172M303.939,233.621C303.878,236.461 301.527,238.711 298.688,238.65C295.85,238.59 293.598,236.238 293.659,233.4C293.721,230.561 296.071,228.309 298.91,228.371C301.748,228.432 304.001,230.783 303.939,233.621ZM303.317,262.486C303.257,265.324 300.905,267.576 298.066,267.514C295.229,267.453 292.977,265.103 293.037,262.264C293.099,259.424 295.45,257.174 298.289,257.234C301.126,257.295 303.379,259.646 303.317,262.486ZM311.234,133.696C311.234,133.696 294.29,139.859 278.388,161.867C270.513,172.765 267.14,179.029 267.14,179.029L248.99,158.463C248.99,158.463 230.636,184.178 227.51,200.723C242.935,219.252 259.554,237.412 272.729,231.762M267.14,179.029C267.14,179.029 271.558,175.959 271.8,183.086" style="fill-opacity:0;fill-rule:nonzero;stroke:rgb(26,25,25);stroke-width:2.97px;"/>
            <path id="path12883" d="M246.921,160.347L243.094,156.729C243.094,156.729 232.558,168.396 227.128,181.728C223.762,189.99 224.946,191.174 224.946,191.174L228.428,194.809C228.428,194.809 233.822,183.059 238.756,174.461C243.688,165.866 246.921,160.347 246.921,160.347" style="fill:rgb(255,255,254);fill-rule:nonzero;"/>
            <path id="path12885" d="M246.921,160.347L243.094,156.729C243.094,156.729 232.558,168.396 227.128,181.728C223.762,189.99 224.946,191.174 224.946,191.174L228.428,194.809C228.428,194.809 233.822,183.059 238.756,174.461C243.688,165.866 246.921,160.347 246.921,160.347Z" style="fill-opacity:0;fill-rule:nonzero;stroke:rgb(26,25,25);stroke-width:2.97px;"/>
            <path id="path12891" d="M213.229,165.802C213.229,165.802 212.285,172.902 218.646,171.457C225.006,170.013 229.88,164.183 225.605,160.53C221.333,156.879 217.319,159.562 217.319,159.562L213.229,165.802" style="fill:rgb(249,216,181);fill-rule:nonzero;"/>
            <path id="path12893" d="M213.229,165.802C213.229,165.802 212.285,172.902 218.646,171.457C225.006,170.013 229.88,164.183 225.605,160.53C221.333,156.879 217.319,159.562 217.319,159.562L213.229,165.802Z" style="fill:rgb(206,169,146);fill-opacity:0;fill-rule:nonzero;stroke:rgb(26,25,25);stroke-width:2.97px;"/>
            <path id="path12895" d="M206.721,155.773C206.721,155.773 207.669,166.87 220.036,161.994C232.404,157.118 225.785,152.228 219.828,153.286C213.871,154.345 206.721,155.773 206.721,155.773" style="fill:rgb(249,216,181);fill-rule:nonzero;"/>
            <path id="path12897" d="M206.721,155.773C206.721,155.773 207.669,166.87 220.036,161.994C232.404,157.118 225.785,152.228 219.828,153.286C213.871,154.345 206.721,155.773 206.721,155.773Z" style="fill:rgb(206,169,146);fill-opacity:0;fill-rule:nonzero;stroke:rgb(26,25,25);stroke-width:2.97px;"/>
            <path id="path12899" d="M198.859,135.034C198.859,135.034 207.584,134.035 210.283,137.257C212.982,140.481 214.118,142.878 205.791,143.886C197.462,144.893 194.711,144.041 194.4,140.081C194.09,136.118 198.859,135.034 198.859,135.034" style="fill:rgb(249,216,181);fill-rule:nonzero;"/>
            <path id="path12901" d="M198.859,135.034C198.859,135.034 207.584,134.035 210.283,137.257C212.982,140.481 214.118,142.878 205.791,143.886C197.462,144.893 194.711,144.041 194.4,140.081C194.09,136.118 198.859,135.034 198.859,135.034Z" style="fill:rgb(206,169,146);fill-opacity:0;fill-rule:nonzero;stroke:rgb(26,25,25);stroke-width:2.97px;"/>
            <path id="path12903" d="M210.123,144.77C210.123,144.77 222.809,143.46 221.091,149.753C220.431,152.172 215.494,156.037 207.537,154.604C200.051,153.256 199.388,147.307 203.788,145.029C208.188,142.75 210.123,144.77 210.123,144.77" style="fill:rgb(249,216,181);fill-rule:nonzero;"/>
            <path id="path12905" d="M210.123,144.77C210.123,144.77 222.809,143.46 221.091,149.753C220.431,152.172 215.494,156.037 207.537,154.604C200.051,153.256 199.388,147.307 203.788,145.029C208.188,142.75 210.123,144.77 210.123,144.77ZM241.47,158.697C241.47,158.697 244.803,150.857 240.16,146.01C235.518,141.164 233.521,141.912 229.285,136.677C225.045,131.444 229.102,126.785 224.314,128.659C219.528,130.534 219.038,134.874 221.273,141.251L225.556,144.509C225.556,144.509 221.053,151.533 229.605,158.442" style="fill:rgb(206,169,146);fill-opacity:0;fill-rule:nonzero;stroke:rgb(26,25,25);stroke-width:2.97px;"/>
            <path id="path12907" d="M340.072,300.857C340.072,300.857 342.591,321.679 343.675,326.45L344.758,331.22C344.758,331.22 377.959,332.528 387.486,330.952L397.015,329.376L399.424,300.156C399.424,300.156 390.321,300.357 370.931,300.73C357.039,300.998 350.361,300.684 350.361,300.684L340.072,300.857" style="fill:rgb(119,119,118);fill-rule:nonzero;"/>
            <path id="path12909" d="M340.072,300.857C340.072,300.857 342.591,321.679 343.675,326.45L344.758,331.22C344.758,331.22 377.959,332.528 387.486,330.952L397.015,329.376L399.424,300.156C399.424,300.156 390.321,300.357 370.931,300.73C357.039,300.998 350.361,300.684 350.361,300.684L340.072,300.857Z" style="fill-opacity:0;fill-rule:nonzero;stroke:rgb(26,25,25);stroke-width:2.97px;"/>
            <path id="path12911" d="M343.97,321.905C343.97,321.905 356.193,323.751 374.811,322.571C393.428,321.392 397.391,321.079 397.391,321.079" style="fill:rgb(119,119,118);fill-rule:nonzero;"/>
            <path id="path12913" d="M343.97,321.905C343.97,321.905 356.193,323.751 374.811,322.571C393.428,321.392 397.391,321.079 397.391,321.079" style="fill-opacity:0;fill-rule:nonzero;stroke:rgb(26,25,25);stroke-width:2.97px;"/>
            <path id="path12915" d="M293.027,299.447C293.027,299.447 298.388,326.067 299.549,327.278C300.709,328.491 333.502,330.384 343.834,328.231C341.423,311.567 340.072,300.857 340.072,300.857L293.027,299.447" style="fill:rgb(119,119,118);fill-rule:nonzero;"/>
            <path id="path12917" d="M293.027,299.447C293.027,299.447 298.388,326.067 299.549,327.278C300.709,328.491 333.502,330.384 343.834,328.231C341.423,311.567 340.072,300.857 340.072,300.857L293.027,299.447Z" style="fill-opacity:0;fill-rule:nonzero;stroke:rgb(26,25,25);stroke-width:2.97px;"/>
            <path id="path12919" d="M298.55,318.554C298.55,318.554 305.255,319.491 324.621,320.304C341.259,321.003 342.843,319.114 342.843,319.114" style="fill:rgb(119,119,118);fill-rule:nonzero;"/>
            <path id="path12921" d="M298.55,318.554C298.55,318.554 305.255,319.491 324.621,320.304C341.259,321.003 342.843,319.114 342.843,319.114" style="fill-opacity:0;fill-rule:nonzero;stroke:rgb(26,25,25);stroke-width:2.97px;"/>
            <path id="path12923" d="M285.34,73.307C285.34,73.307 273.956,78.401 274.47,68.326C274.983,58.25 279.109,59.525 279.109,59.525C279.109,59.525 265.5,57.747 271.062,47.484C276.623,37.219 283.567,45.38 283.567,45.38C283.567,45.38 276.164,30.98 288.953,29.475C301.744,27.97 299.393,40.677 299.393,40.677L285.34,73.307" style="fill:rgb(227,228,226);fill-rule:nonzero;"/>
            <path id="path12925" d="M285.34,73.307C285.34,73.307 273.956,78.401 274.47,68.326C274.983,58.25 279.109,59.525 279.109,59.525C279.109,59.525 265.5,57.747 271.062,47.484C276.623,37.219 283.567,45.38 283.567,45.38C283.567,45.38 276.164,30.98 288.953,29.475C301.744,27.97 299.393,40.677 299.393,40.677L285.34,73.307Z" style="fill:rgb(90,91,94);fill-opacity:0;fill-rule:nonzero;stroke:rgb(26,25,25);stroke-width:2.97px;"/>
            <path id="path12927" d="M405.305,82.269C404.564,116.581 374.853,141.692 339.067,140.921C303.281,140.151 281.26,119.707 281.52,85.389C281.839,42.969 307.396,18.003 343.18,18.775C378.967,19.545 406.043,47.957 405.305,82.269" style="fill:rgb(249,216,181);fill-rule:nonzero;"/>
            <path id="path12929" d="M405.305,82.269C404.564,116.581 374.853,141.692 339.067,140.921C303.281,140.151 281.26,119.707 281.52,85.389C281.839,42.969 307.396,18.003 343.18,18.775C378.967,19.545 406.043,47.957 405.305,82.269Z" style="fill:rgb(206,169,146);fill-opacity:0;fill-rule:nonzero;stroke:rgb(26,25,25);stroke-width:2.97px;"/>
            <path id="path12931" d="M315.054,66.183C315.011,68.17 313.365,69.747 311.377,69.706C309.389,69.663 307.813,68.016 307.854,66.029C307.897,64.04 309.543,62.463 311.532,62.506C313.52,62.548 315.097,64.195 315.054,66.183" style="fill:rgb(26,25,25);fill-rule:nonzero;"/>
            <path id="path12933" d="M315.054,66.183C315.011,68.17 313.365,69.747 311.377,69.706C309.389,69.663 307.813,68.016 307.854,66.029C307.897,64.04 309.543,62.463 311.532,62.506C313.52,62.548 315.097,64.195 315.054,66.183Z" style="fill-opacity:0;fill-rule:nonzero;stroke:rgb(26,25,25);stroke-width:0.59px;stroke-linecap:butt;stroke-linejoin:miter;"/>
            <path id="path12935" d="M355.656,68.245C355.613,70.232 353.966,71.809 351.979,71.766C349.99,71.724 348.415,70.077 348.457,68.089C348.5,66.101 350.146,64.524 352.134,64.567C354.121,64.61 355.698,66.256 355.656,68.245" style="fill:rgb(26,25,25);fill-rule:nonzero;"/>
            <path id="path12937" d="M355.656,68.245C355.613,70.232 353.966,71.809 351.979,71.766C349.99,71.724 348.415,70.077 348.457,68.089C348.5,66.101 350.146,64.524 352.134,64.567C354.121,64.61 355.698,66.256 355.656,68.245Z" style="fill-opacity:0;fill-rule:nonzero;stroke:rgb(26,25,25);stroke-width:0.59px;stroke-linecap:butt;stroke-linejoin:miter;"/>
            <path id="path12939" d="M316.679,50.839C306.44,44.092 299.415,53.435 299.415,53.435C299.415,53.435 299.538,39.79 309.198,39.998C316.612,40.158 316.679,50.839 316.679,50.839" style="fill:rgb(255,255,254);fill-rule:nonzero;"/>
            <path id="path12941" d="M316.679,50.839C306.44,44.092 299.415,53.435 299.415,53.435C299.415,53.435 299.538,39.79 309.198,39.998C316.612,40.158 316.679,50.839 316.679,50.839Z" style="fill:rgb(90,91,94);fill-opacity:0;fill-rule:nonzero;stroke:rgb(26,25,25);stroke-width:2.97px;"/>
            <path id="path12943" d="M361.078,55.653C353.609,44.218 340.402,51.351 340.402,51.351C340.402,51.351 340.072,39.179 351.341,39.422C362.608,39.664 361.078,55.653 361.078,55.653" style="fill:rgb(255,255,254);fill-rule:nonzero;"/>
            <path id="path12945" d="M361.078,55.653C353.609,44.218 340.402,51.351 340.402,51.351C340.402,51.351 340.072,39.179 351.341,39.422C362.608,39.664 361.078,55.653 361.078,55.653Z" style="fill:rgb(90,91,94);fill-opacity:0;fill-rule:nonzero;stroke:rgb(26,25,25);stroke-width:2.97px;"/>
            <path id="path12947" d="M349.206,83.434C349.095,88.593 344.822,92.685 339.663,92.575C334.504,92.463 330.412,88.191 330.523,83.032C330.634,77.872 334.906,73.781 340.065,73.892C345.225,74.003 349.316,78.276 349.206,83.434" style="fill:rgb(255,255,254);fill-rule:nonzero;"/>
            <path id="path12949" d="M349.206,83.434C349.095,88.593 344.822,92.685 339.663,92.575C334.504,92.463 330.412,88.191 330.523,83.032C330.634,77.872 334.906,73.781 340.065,73.892C345.225,74.003 349.316,78.276 349.206,83.434Z" style="fill-opacity:0;fill-rule:nonzero;stroke:rgb(26,25,25);stroke-width:2.97px;"/>
            <path id="path12951" d="M313.361,80.882C313.25,86.04 308.978,90.133 303.819,90.022C298.66,89.911 294.567,85.639 294.679,80.48C294.79,75.321 299.063,71.229 304.222,71.339C309.381,71.451 313.473,75.723 313.361,80.882" style="fill:rgb(255,255,254);fill-rule:nonzero;"/>
            <path id="path12953" d="M313.361,80.882C313.25,86.04 308.978,90.133 303.819,90.022C298.66,89.911 294.567,85.639 294.679,80.48C294.79,75.321 299.063,71.229 304.222,71.339C309.381,71.451 313.473,75.723 313.361,80.882ZM314.312,78.084C314.312,78.084 321.015,69.921 330.597,79.621" style="fill-opacity:0;fill-rule:nonzero;stroke:rgb(26,25,25);stroke-width:2.97px;"/>
            <path id="path12955" d="M301.435,97.388C301.435,97.388 286.086,98.465 290.769,110.509C294.142,119.185 303.772,112.866 303.772,112.866C303.772,112.866 303.846,123.599 314.257,121.993C319.317,121.211 321.205,116.208 321.205,116.208C321.205,116.208 324.24,124.999 332.024,123.562C340.661,121.968 342.008,114.58 342.008,114.58C342.008,114.58 351.466,124.129 356.766,118.162C361.934,112.338 360.526,107.19 356.182,103.908C345.671,95.967 332.585,97.465 332.585,97.465" style="fill:rgb(227,228,226);fill-rule:nonzero;"/>
            <path id="path12957" d="M301.435,97.388C301.435,97.388 286.086,98.465 290.769,110.509C294.142,119.185 303.772,112.866 303.772,112.866C303.772,112.866 303.846,123.599 314.257,121.993C319.317,121.211 321.205,116.208 321.205,116.208C321.205,116.208 324.24,124.999 332.024,123.562C340.661,121.968 342.008,114.58 342.008,114.58C342.008,114.58 351.466,124.129 356.766,118.162C361.934,112.338 360.526,107.19 356.182,103.908C345.671,95.967 332.585,97.465 332.585,97.465" style="fill:rgb(90,91,94);fill-opacity:0;fill-rule:nonzero;stroke:rgb(26,25,25);stroke-width:2.97px;"/>
            <path id="path12959" d="M393.305,88.389C393.305,88.389 399.207,76.055 409.201,80.424C419.194,84.793 413.957,99.788 408.632,106.817C402.22,115.283 391.758,118.915 389.047,106.989" style="fill:rgb(249,216,181);fill-rule:nonzero;"/>
            <path id="path12961" d="M393.305,88.389C393.305,88.389 399.207,76.055 409.201,80.424C419.194,84.793 413.957,99.788 408.632,106.817C402.22,115.283 391.758,118.915 389.047,106.989" style="fill:rgb(206,169,146);fill-opacity:0;fill-rule:nonzero;stroke:rgb(26,25,25);stroke-width:2.97px;"/>
            <path id="path12963" d="M314.854,80.469C314.854,80.469 299.931,84.598 302.647,96.227C305.363,107.857 340.801,101.796 329.426,92.651" style="fill:rgb(249,216,181);fill-rule:nonzero;"/>
            <path id="path12965" d="M314.854,80.469C314.854,80.469 299.931,84.598 302.647,96.227C305.363,107.857 340.801,101.796 329.426,92.651" style="fill:rgb(206,169,146);fill-opacity:0;fill-rule:nonzero;stroke:rgb(26,25,25);stroke-width:2.97px;"/>
            <path id="path12967" d="M393.027,87.493C393.027,87.493 386.277,84.084 387.591,78.179C388.905,72.273 393.134,68.804 393.134,68.804C393.134,68.804 384.281,66.537 384.764,57.944C385.245,49.35 390.003,48.859 390.003,48.859C390.003,48.859 381.112,48.371 382.73,42.175C384.346,35.98 391.735,37.326 391.735,37.326C391.735,37.326 392.475,30.517 402.848,31.039C413.22,31.558 416.885,40.538 412.546,49.047C419.779,43.864 428.649,45.241 430.012,50.908C431.373,56.574 425.921,61.796 425.921,61.796C425.921,61.796 437.396,66.198 434.554,74.147C430.871,84.452 422.887,78.642 422.887,78.642C422.887,78.642 430.922,91.276 420.434,96.094C412.394,99.788 413.923,95.361 413.923,95.361C413.923,95.361 416.898,81.184 407.132,80.083C398.857,79.152 393.027,87.493 393.027,87.493" style="fill:rgb(227,228,226);fill-rule:nonzero;"/>
            <path id="path12969" d="M393.027,87.493C393.027,87.493 386.277,84.084 387.591,78.179C388.905,72.273 393.134,68.804 393.134,68.804C393.134,68.804 384.281,66.537 384.764,57.944C385.245,49.35 390.003,48.859 390.003,48.859C390.003,48.859 381.112,48.371 382.73,42.175C384.346,35.98 391.735,37.326 391.735,37.326C391.735,37.326 392.475,30.517 402.848,31.039C413.22,31.558 416.885,40.538 412.546,49.047C419.779,43.864 428.649,45.241 430.012,50.908C431.373,56.574 425.921,61.796 425.921,61.796C425.921,61.796 437.396,66.198 434.554,74.147C430.871,84.452 422.887,78.642 422.887,78.642C422.887,78.642 430.922,91.276 420.434,96.094C412.394,99.788 413.923,95.361 413.923,95.361C413.923,95.361 416.898,81.184 407.132,80.083C398.857,79.152 393.027,87.493 393.027,87.493Z" style="fill:rgb(90,91,94);fill-opacity:0;fill-rule:nonzero;stroke:rgb(26,25,25);stroke-width:2.97px;"/>
            <path id="path12971" d="M306.973,129.549C306.973,129.549 313.371,148.734 336.424,139.677" style="fill:rgb(249,216,181);fill-rule:nonzero;"/>
            <path id="path12973" d="M306.973,129.549C306.973,129.549 313.371,148.734 336.424,139.677M406.649,93.325C406.649,93.325 401.542,91.631 398.234,98.286" style="fill:rgb(206,169,146);fill-opacity:0;fill-rule:nonzero;stroke:rgb(26,25,25);stroke-width:2.97px;"/>
        </g>
        <g>
            <path id="path12851" d="M150.466,46.456C150.466,46.456 144.315,41.095 146.747,38.378C149.179,35.662 153.251,44.408 153.251,44.408L150.466,46.456" style="fill:rgb(216,35,42);fill-rule:nonzero;"/>
            <path id="path12853" d="M150.466,46.456C150.466,46.456 144.315,41.095 146.747,38.378C149.179,35.662 153.251,44.408 153.251,44.408L150.466,46.456Z" style="fill-opacity:0;fill-rule:nonzero;stroke:rgb(26,25,25);stroke-width:2.37px;"/>
            <path id="path12855" d="M170.64,69.242C170.64,69.242 154.68,46.546 153.251,44.408C152.608,43.446 150.18,45.772 150.466,46.456C151.267,48.371 168.459,72.569 168.459,72.569L170.64,69.242" style="fill:rgb(148,149,148);fill-rule:nonzero;"/>
            <path id="path12857" d="M170.64,69.242C170.64,69.242 154.68,46.546 153.251,44.408C152.608,43.446 150.18,45.772 150.466,46.456C151.267,48.371 168.459,72.569 168.459,72.569L170.64,69.242Z" style="fill-opacity:0;fill-rule:nonzero;stroke:rgb(26,25,25);stroke-width:2.37px;"/>
            <path id="path12859" d="M192.487,99.698C192.487,99.698 171.723,70.167 169.861,67.383C169.025,66.131 165.864,69.159 166.237,70.048C167.281,72.54 189.65,104.026 189.65,104.026L192.487,99.698" style="fill:rgb(148,149,148);fill-rule:nonzero;"/>
            <path id="path12887" d="M225.907,146.495C225.907,146.495 195.97,103.918 193.288,99.905C192.083,98.101 187.524,102.464 188.061,103.748C189.567,107.341 221.817,152.736 221.817,152.736L225.907,146.495" style="fill:rgb(148,149,148);fill-rule:nonzero;"/>
            <path id="path12889" d="M225.907,146.495C225.907,146.495 195.97,103.918 193.288,99.905C192.083,98.101 187.524,102.464 188.061,103.748C189.567,107.341 221.817,152.736 221.817,152.736L225.907,146.495Z" style="fill-opacity:0;fill-rule:nonzero;stroke:rgb(26,25,25);stroke-width:2.37px;"/>
            <path id="path12861" d="M192.487,99.698C192.487,99.698 171.723,70.167 169.861,67.383C169.025,66.131 165.864,69.159 166.237,70.048C167.281,72.54 189.65,104.026 189.65,104.026L192.487,99.698Z" style="fill-opacity:0;fill-rule:nonzero;stroke:rgb(26,25,25);stroke-width:2.37px;"/>
        </g>
    </g>
</svg>
