<!--?xml version="1.0" encoding="UTF-8" standalone="no"?-->
<!-- Created with Inkscape (http://www.inkscape.org/) -->
<svg xmlns:inkscape="http://www.inkscape.org/namespaces/inkscape" xmlns:rdf="http://www.w3.org/1999/02/22-rdf-syntax-ns#" xmlns="http://www.w3.org/2000/svg" xmlns:sodipodi="http://sodipodi.sourceforge.net/DTD/sodipodi-0.dtd" xmlns:ns1="http://sozi.baierouge.fr" xmlns:cc="http://creativecommons.org/ns#" xmlns:xlink="http://www.w3.org/1999/xlink" xmlns:dc="http://purl.org/dc/elements/1.1/" id="svg2" sodipodi:docname="roze olifantje.svg" inkscape:export-filename="/Users/ronald/Desktop/kaartje martine/1298047210.png" viewBox="0 0 686.52 992.77" inkscape:export-xdpi="225.75983" version="1.1" inkscape:export-ydpi="225.75983" inkscape:version="0.48.2 r9819" style="">
  <defs id="defs4">
    <linearGradient id="linearGradient3826">
      <stop id="stop3828" style="stop-color:#ffd6d6" offset="0"></stop>
      <stop id="stop3830" style="stop-color:#ffadad" offset="1"></stop>
    </linearGradient>
    <linearGradient id="linearGradient3785">
      <stop id="stop3787" style="stop-color:#ffbcbc" offset="0"></stop>
      <stop id="stop3789" style="stop-color:#ffa5a5;stop-opacity:0" offset="1"></stop>
    </linearGradient>
    <linearGradient id="linearGradient3047" y2="208.72" xlink:href="#linearGradient3826" gradientUnits="userSpaceOnUse" x2="724.88" y1="208.72" x1="495.12" inkscape:collect="always"></linearGradient>
    <linearGradient id="linearGradient3049" y2="210.99" xlink:href="#linearGradient3826" gradientUnits="userSpaceOnUse" x2="277.65" y1="210.99" x1="47.183" inkscape:collect="always"></linearGradient>
    <radialGradient id="radialGradient3051" xlink:href="#linearGradient3826" gradientUnits="userSpaceOnUse" cy="645.22" cx="320.72" gradientTransform="matrix(2.6576 0 0 2.9387 -463.37 -1226.6)" r="95.251" inkscape:collect="always"></radialGradient>
    <radialGradient id="radialGradient3053" xlink:href="#linearGradient3826" gradientUnits="userSpaceOnUse" cy="618.22" cx="609.31" gradientTransform="matrix(1 0 0 1.8475 0 -523.91)" r="83.461" inkscape:collect="always"></radialGradient>
    <linearGradient id="linearGradient3055" y2="605.95" xlink:href="#linearGradient3785" gradientUnits="userSpaceOnUse" x2="-17.987" y1="553.43" x1="-131.43" inkscape:collect="always"></linearGradient>
    <radialGradient id="radialGradient3057" xlink:href="#linearGradient3826" gradientUnits="userSpaceOnUse" cy="355.93" cx="399.86" gradientTransform="matrix(1 0 0 1.2936 0 -104.52)" r="205.68" inkscape:collect="always"></radialGradient>
    <radialGradient id="radialGradient3059" xlink:href="#linearGradient3826" gradientUnits="userSpaceOnUse" cy="625.91" cx="161.66" gradientTransform="matrix(1 0 0 1.8475 0 -530.44)" r="83.461" inkscape:collect="always"></radialGradient>
  </defs>
  <sodipodi:namedview id="base" bordercolor="#666666" inkscape:pageshadow="2" inkscape:window-y="0" fit-margin-left="0" pagecolor="#ffffff" inkscape:window-height="1002" inkscape:window-maximized="1" inkscape:zoom="0.74499066" inkscape:window-x="0" showgrid="false" borderopacity="1.0" inkscape:current-layer="layer1" inkscape:cx="329.24802" inkscape:cy="506.62128" fit-margin-top="0" fit-margin-right="0" fit-margin-bottom="0" inkscape:window-width="1680" inkscape:pageopacity="0.0" inkscape:document-units="px"></sodipodi:namedview>
  <g id="layer1" inkscape:label="Layer 1" inkscape:groupmode="layer" transform="translate(-42.799 -40.031)">
    <g id="g3025">
      <path id="path3636" inkscape:connector-curvature="0" sodipodi:nodetypes="ccc" style="stroke:#000000;stroke-width:10;fill:url(#linearGradient3047)" d="m495.75 137.16c197.3-327.49 367.7 331.18 59.351 223.2l-59.35-223.2z" class="ClgoNHZx_0"></path>
      <path id="path3640" style="stroke:#000000;stroke-width:10;fill:url(#linearGradient3049)" inkscape:connector-curvature="0" d="m168.57 47.401c-136.38-8.271-201.28 400.82 47.47 315.61l60.99-222.75c-38.07-64.218-75.36-90.852-108.46-92.859z" class="ClgoNHZx_1"></path>
      <path id="path3659" sodipodi:nodetypes="ccc" style="stroke:#000000;stroke-width:10;fill:#de6c72" inkscape:connector-curvature="0" d="m510.82 171.26c135.48-229.54 252.49 232.14 40.75 156.45l-40.75-156.45z" class="ClgoNHZx_2"></path>
      <path id="path3661" inkscape:connector-curvature="0" sodipodi:nodetypes="ccc" style="stroke:#000000;stroke-width:10;fill:#de6c72" d="m256.98 174.89c-135.48-229.55-252.49 232.13-40.75 156.45l40.754-156.45z" class="ClgoNHZx_3"></path>
      <path id="path3663" style="color:#000000;stroke:#000000;stroke-width:10;fill:url(#radialGradient3051)" inkscape:connector-curvature="0" d="m389.44 390.22c-58.59-0.15-117.5 22.13-165.35 67.78l-16.4 17.12c-90.98 103.83-95.29 267.3-9.94 376.82 91.06 116.83 250.49 129.86 356.09 29.12 105.61-100.73 117.4-277.11 26.35-393.94-49.8-63.89-120.05-96.72-190.75-96.9z" class="ClgoNHZx_4"></path>
      <path id="path3737" sodipodi:nodetypes="cccscs" style="stroke:#000000;stroke-width:10;fill:url(#radialGradient3053)" inkscape:connector-curvature="0" d="m561.27 465.27c122.31 45.896 149.03 133.43 120.38 228.45-47.021 90.654-114.12 98.021-132.15 44.388-21.753-76.506 19.286-65.1 35.487-100.99 19.386-42.945-58.511-124.87-58.511-124.87s16.242-53.935 34.787-46.977z" class="ClgoNHZx_5"></path>
      <path id="path3665" sodipodi:rx="95" sodipodi:ry="118.57143" style="color:#000000;stroke:#000000;stroke-width:5.5068;fill:#de6c72" sodipodi:type="arc" d="m258.68 555.42c39.736-42.763 99.722-37.225 133.98 12.37 34.262 49.595 29.825 124.47-9.9107 167.23-39.736 42.763-99.722 37.225-133.98-12.37-32.116-46.489-30.495-115.89 3.7369-159.96" sodipodi:open="true" transform="matrix(1.6714 0 0 1.973 -145.18 -648.23)" sodipodi:cy="645.2193" sodipodi:cx="320.71429" sodipodi:end="10.19464" sodipodi:start="4.0008258" class="ClgoNHZx_6"></path>
      <path id="path3791" sodipodi:rx="45.714287" sodipodi:ry="43.92857" style="color:#000000;fill:url(#linearGradient3055)" sodipodi:type="arc" d="m-115.57 520.16c19.121-15.843 47.987-13.791 64.474 4.5828s14.352 46.112-4.7691 61.955-47.987 13.791-64.474-4.5828c-15.454-17.223-14.674-42.933 1.7982-59.262" sodipodi:open="true" transform="matrix(.19190 .60698 .52356 -.22248 276.29 666.94)" sodipodi:cy="553.43359" sodipodi:cx="-85.714287" sodipodi:end="10.19464" sodipodi:start="4.0008258" class="ClgoNHZx_7"></path>
      <path id="path2832" style="stroke:#000000;stroke-width:10;fill:url(#radialGradient3057)" inkscape:connector-curvature="0" d="m388.33 90.473c-44.82-0.118-89.92 17.727-126.53 54.197l-12.53 13.648c-69.61 82.95-72.892 213.57-7.5837 301.06 19.554 26.197 43.184 45.842 68.913 58.8 79.551 125.83 198.32 117.82 256.94 74.352 19.963-14.802 34.865-52.633 36.187-71.258 7.9176-111.51-25.781-85.877-38.99-56.022-16.798 65.91-60.539 83.33-68.913 33.566 6.2984-4.9078 12.404-10.236 18.3-16.108 80.79-80.48 89.78-221.45 20.11-314.79-38.11-51.04-91.81-77.304-145.91-77.447z" class="ClgoNHZx_8"></path>
      <path id="path2820" sodipodi:rx="5.0507627" sodipodi:ry="10.101525" style="opacity:.86058;color:#000000;stroke:#000000;stroke-width:.48299;fill:#000000" sodipodi:type="arc" d="m262.37 461.85c2.1126-3.6431 5.3018-3.1713 7.1234 1.0538 1.8216 4.2252 1.5857 10.604-0.52691 14.247-2.1126 3.6431-5.3018 3.1713-7.1234-1.0538-1.7075-3.9605-1.6213-9.8727 0.19867-13.628" sodipodi:open="true" transform="matrix(2.6378 0 0 2.5392 -381.78 -929.07)" sodipodi:cy="469.50415" sodipodi:cx="265.6701" sodipodi:end="10.19464" sodipodi:start="4.0008258" class="ClgoNHZx_9"></path>
      <path id="path2826" sodipodi:rx="5.0507627" sodipodi:ry="10.101525" style="opacity:.86058;color:#000000;stroke:#000000;stroke-width:.48299;fill:#000000" sodipodi:type="arc" d="m262.37 461.85c2.1126-3.6431 5.3018-3.1713 7.1234 1.0538 1.8216 4.2252 1.5857 10.604-0.52691 14.247-2.1126 3.6431-5.3018 3.1713-7.1234-1.0538-1.7075-3.9605-1.6213-9.8727 0.19867-13.628" sodipodi:open="true" transform="matrix(2.6378 0 0 2.5392 -243.87 -929.07)" sodipodi:cy="469.50415" sodipodi:cx="265.6701" sodipodi:end="10.19464" sodipodi:start="4.0008258" class="ClgoNHZx_10"></path>
      <path id="path3703" style="color:#000000;stroke:#000000;stroke-width:10;fill:#ffaaaa" inkscape:connector-curvature="0" d="m565.84 757.53c-53.95 0.12497-112.15 35.749-142.88 92.094l-5.7812 11.594c-30.779 68.002-9.546 137.17 48.938 159.44 62.391 23.753 144.22-14.324 182.78-85.031 38.558-70.707 19.234-147.28-43.156-171.03-12.673-4.8248-26.154-7.0944-39.906-7.0625z" class="ClgoNHZx_11"></path>
      <path id="path3705" style="color:#000000;stroke:#000000;stroke-width:10;fill:#de6c72" inkscape:connector-curvature="0" d="m557.22 793.81c-48.593 0.10488-101.01 29.983-128.69 77.25l-5.2188 9.7188c-27.723 57.046-8.5821 115.07 44.094 133.75 56.195 19.926 129.9-11.997 164.62-71.312 34.729-59.316 17.32-123.57-38.875-143.5-11.415-4.0474-23.551-5.933-35.938-5.9062z" class="ClgoNHZx_12"></path>
      <path id="path3729" style="color:#000000;stroke:#000000;stroke-width:10;fill:#ffaaaa" inkscape:connector-curvature="0" d="m192.78 739.34c-20.719 0.17792-40.822 6.4751-58.188 19.5-52.925 39.695-60.407 126.88-16.688 194.75l7.4688 10.688c45.246 60.042 117.92 77.553 167.53 40.344 52.925-39.695 60.376-126.88 16.656-194.75-29.374-45.598-74.357-70.896-116.78-70.531z" class="ClgoNHZx_13"></path>
      <path id="path3705-6" d="m196.31 778.19c-2.8037 0.002-5.61 0.13743-8.4062 0.375-59.654 5.0681-93.917 62.657-76.531 128.66 17.386 65.999 79.846 115.41 139.5 110.34 55.918-4.7507 90.147-55.926 78.906-117.97-17.11-62.73-82-119.84-133.47-121.41z" sodipodi:nodetypes="cssscc" style="color:#000000;stroke:#000000;stroke-width:10;fill:#de6c72" inkscape:connector-curvature="0" class="ClgoNHZx_14"></path>
      <path id="path3733" inkscape:connector-curvature="0" sodipodi:nodetypes="cccscs" style="stroke:#000000;stroke-width:10;fill:url(#radialGradient3059)" d="m209.71 472.96c-122.31 45.9-149.02 133.43-120.38 228.46 47.02 90.65 114.12 98.02 132.15 44.39 21.75-76.51-19.29-65.1-35.49-100.99-19.386-42.945 58.511-124.87 58.511-124.87s-16.242-53.935-34.787-46.977z" class="ClgoNHZx_15"></path>
      <path id="path3775" sodipodi:rx="45.714287" sodipodi:ry="43.92857" style="color:#000000;fill:url(#linearGradient3055)" sodipodi:type="arc" d="m-115.57 520.16c19.121-15.843 47.987-13.791 64.474 4.5828s14.352 46.112-4.7691 61.955-47.987 13.791-64.474-4.5828c-15.454-17.223-14.674-42.933 1.7982-59.262" sodipodi:open="true" transform="matrix(-.23551 .65536 -.64254 -.24021 558.05 689.59)" sodipodi:cy="553.43359" sodipodi:cx="-85.714287" sodipodi:end="10.19464" sodipodi:start="4.0008258" class="ClgoNHZx_16"></path>
      <path id="path3795" sodipodi:rx="45.714287" sodipodi:ry="43.92857" style="color:#000000;fill:url(#linearGradient3055)" sodipodi:type="arc" d="m-115.57 520.16c19.121-15.843 47.987-13.791 64.474 4.5828s14.352 46.112-4.7691 61.955-47.987 13.791-64.474-4.5828c-15.454-17.223-14.674-42.933 1.7982-59.262" sodipodi:open="true" transform="matrix(-.19138 .52969 -.52214 -.19415 497.53 656.85)" sodipodi:cy="553.43359" sodipodi:cx="-85.714287" sodipodi:end="10.19464" sodipodi:start="4.0008258" class="ClgoNHZx_17"></path>
      <path id="path3940" sodipodi:rx="13.637059" sodipodi:ry="13.637059" style="color:#000000;fill:#ffbdbb" sodipodi:type="arc" d="m242.12 511.2c5.704-4.9182 14.315-4.2813 19.233 1.4227 4.9182 5.704 4.2813 14.315-1.4227 19.233-5.704 4.9182-14.315 4.2813-19.233-1.4227-4.6102-5.3467-4.3775-13.328 0.53641-18.397" sodipodi:open="true" transform="matrix(2.6378 0 0 2.5392 -385.09 -919.63)" sodipodi:cy="521.52704" sodipodi:cx="251.0229" sodipodi:end="10.19464" sodipodi:start="4.0008258" class="ClgoNHZx_18"></path>
      <path id="path3942" sodipodi:rx="13.637059" sodipodi:ry="13.637059" style="color:#000000;fill:#ffbdbb" sodipodi:type="arc" d="m242.12 511.2c5.704-4.9182 14.315-4.2813 19.233 1.4227 4.9182 5.704 4.2813 14.315-1.4227 19.233-5.704 4.9182-14.315 4.2813-19.233-1.4227-4.6102-5.3467-4.3775-13.328 0.53641-18.397" sodipodi:open="true" transform="matrix(2.6378 0 0 2.5392 -158.72 -919.63)" sodipodi:cy="521.52704" sodipodi:cx="251.0229" sodipodi:end="10.19464" sodipodi:start="4.0008258" class="ClgoNHZx_19"></path>
    </g>
  </g>
  <metadata>
    <rdf:rdf>
      <cc:work>
        <dc:format>image/svg+xml</dc:format>
        <dc:type rdf:resource="http://purl.org/dc/dcmitype/StillImage"></dc:type>
        <cc:license rdf:resource="http://creativecommons.org/licenses/publicdomain/"></cc:license>
        <dc:publisher>
          <cc:agent rdf:about="http://openclipart.org/">
            <dc:title>Openclipart</dc:title>
          </cc:agent>
        </dc:publisher>
      </cc:work>
      <cc:license rdf:about="http://creativecommons.org/licenses/publicdomain/">
        <cc:permits rdf:resource="http://creativecommons.org/ns#Reproduction"></cc:permits>
        <cc:permits rdf:resource="http://creativecommons.org/ns#Distribution"></cc:permits>
        <cc:permits rdf:resource="http://creativecommons.org/ns#DerivativeWorks"></cc:permits>
      </cc:license>
    </rdf:rdf>
  </metadata>
<style data-made-with="vivus-instant">.ClgoNHZx_0{stroke-dasharray:886 888;stroke-dashoffset:887;animation:ClgoNHZx_draw 2500ms linear 0ms forwards;}.ClgoNHZx_1{stroke-dasharray:886 888;stroke-dashoffset:887;animation:ClgoNHZx_draw 2500ms linear 0ms forwards;}.ClgoNHZx_2{stroke-dasharray:617 619;stroke-dashoffset:618;animation:ClgoNHZx_draw 2500ms linear 0ms forwards;}.ClgoNHZx_3{stroke-dasharray:617 619;stroke-dashoffset:618;animation:ClgoNHZx_draw 2500ms linear 0ms forwards;}.ClgoNHZx_4{stroke-dasharray:1672 1674;stroke-dashoffset:1673;animation:ClgoNHZx_draw 2500ms linear 0ms forwards;}.ClgoNHZx_5{stroke-dasharray:797 799;stroke-dashoffset:798;animation:ClgoNHZx_draw 2500ms linear 0ms forwards;}.ClgoNHZx_6{stroke-dasharray:664 666;stroke-dashoffset:665;animation:ClgoNHZx_draw 2500ms linear 0ms forwards;}.ClgoNHZx_7{stroke-dasharray:278 280;stroke-dashoffset:279;animation:ClgoNHZx_draw 2500ms linear 0ms forwards;}.ClgoNHZx_8{stroke-dasharray:1743 1745;stroke-dashoffset:1744;animation:ClgoNHZx_draw 2500ms linear 0ms forwards;}.ClgoNHZx_9{stroke-dasharray:49 51;stroke-dashoffset:50;animation:ClgoNHZx_draw 2500ms linear 0ms forwards;}.ClgoNHZx_10{stroke-dasharray:49 51;stroke-dashoffset:50;animation:ClgoNHZx_draw 2500ms linear 0ms forwards;}.ClgoNHZx_11{stroke-dasharray:839 841;stroke-dashoffset:840;animation:ClgoNHZx_draw 2500ms linear 0ms forwards;}.ClgoNHZx_12{stroke-dasharray:730 732;stroke-dashoffset:731;animation:ClgoNHZx_draw 2500ms linear 0ms forwards;}.ClgoNHZx_13{stroke-dasharray:838 840;stroke-dashoffset:839;animation:ClgoNHZx_draw 2500ms linear 0ms forwards;}.ClgoNHZx_14{stroke-dasharray:725 727;stroke-dashoffset:726;animation:ClgoNHZx_draw 2500ms linear 0ms forwards;}.ClgoNHZx_15{stroke-dasharray:797 799;stroke-dashoffset:798;animation:ClgoNHZx_draw 2500ms linear 0ms forwards;}.ClgoNHZx_16{stroke-dasharray:278 280;stroke-dashoffset:279;animation:ClgoNHZx_draw 2500ms linear 0ms forwards;}.ClgoNHZx_17{stroke-dasharray:278 280;stroke-dashoffset:279;animation:ClgoNHZx_draw 2500ms linear 0ms forwards;}.ClgoNHZx_18{stroke-dasharray:85 87;stroke-dashoffset:86;animation:ClgoNHZx_draw 2500ms linear 0ms forwards;}.ClgoNHZx_19{stroke-dasharray:85 87;stroke-dashoffset:86;animation:ClgoNHZx_draw 2500ms linear 0ms forwards;}@keyframes ClgoNHZx_draw{100%{stroke-dashoffset:0;}}@keyframes ClgoNHZx_fade{0%{stroke-opacity:1;}94.02985074626866%{stroke-opacity:1;}100%{stroke-opacity:0;}}</style></svg>
