<?xml version="1.0" encoding="UTF-8" standalone="no"?>
<!DOCTYPE svg PUBLIC "-//W3C//DTD SVG 1.1//EN" "http://www.w3.org/Graphics/SVG/1.1/DTD/svg11.dtd">
<svg width="100%" height="100%" viewBox="0 0 823 842" version="1.1" xmlns="http://www.w3.org/2000/svg" xmlns:xlink="http://www.w3.org/1999/xlink" xml:space="preserve" xmlns:serif="http://www.serif.com/" style="fill-rule:evenodd;clip-rule:evenodd;stroke-linejoin:round;stroke-miterlimit:2;">
    <g transform="matrix(0.556331,0,0,0.551738,184.578,190.324)">
        <path d="M10.562,1162.59C49.977,1153.28 83.284,1102 113.808,1078.14C137.325,1059.76 161.444,1042.31 188.004,1028.57C200.644,1022.02 213.15,1015.04 226.452,1009.88C247.641,1001.67 250.157,998.265 264.36,1011.39C284.199,1029.73 295.909,1062.39 314.904,1083.11C335.105,1105.14 358.144,1124.56 384.887,1138.19C391.648,1141.63 428.759,1163.68 432.192,1147.26C432.715,1144.76 367.007,1105.38 359.399,1099.09C313.653,1061.27 284.347,1013.99 261.768,959.771C243.308,915.443 234.105,863.591 207.12,823.476C200.03,812.936 172.016,775.324 156.143,781.14C138.018,787.782 178.845,817.901 185.088,826.499C208.988,859.416 235.182,922.228 240.383,962.362C242.313,977.256 248.561,969.797 239.52,981.37C234.968,987.196 214.973,991.124 207.875,994.329C187.784,1003.4 169.031,1014.19 150.527,1026.08C103.665,1056.2 62.958,1094.35 21.142,1130.84C11.007,1010.55 39.18,862.962 113.16,766.775C137.142,735.593 158.707,716.582 191.785,738.371C211.932,751.642 230.794,766.998 250.753,780.6C265.579,790.704 381.42,847.885 381.325,851.014C380.385,881.916 363.032,910.375 362.209,940.981C361.446,969.345 381.403,987.396 393.637,1012.8C404.443,1035.24 434.022,1154.33 456.17,1157.63C476.976,1160.73 531.935,1014.62 543.431,994.764C560.42,965.422 582.814,941.182 574.969,909.442C570.255,890.372 558.536,872.289 557.473,852.204C555.842,821.406 578.41,823.212 608.016,807.276C641.354,789.333 672.769,768.001 705.865,749.603C736.513,732.566 777.59,710.918 813.651,710.938C852.414,710.959 861.763,761.919 866.787,797.124C875.199,856.074 872.168,912.467 860.737,970.571C855.949,994.908 859.921,1010.01 836.544,1006.64C816.583,1003.78 793.097,980.497 773.26,973.055C752.403,965.231 731.536,961.308 710.187,956.098C684.376,949.8 683.699,953.399 693.989,926.401C709.036,886.922 727.384,848.753 743.343,809.652C750.565,791.957 761.866,779.318 772.397,763.86C777.675,756.112 794.722,748.041 781.467,739.237C771.11,732.357 759.154,746.137 753.064,753.168C701.66,812.514 683.122,901.994 648.952,971.546C625.425,1019.44 595.015,1065.87 553.591,1100.17C546.691,1105.89 478.218,1142.15 480.794,1148.34C493.664,1179.27 597.971,1090.24 607.046,1077.28C626.114,1050.03 641.976,1021.05 660.073,993.254C678.842,964.431 702.236,968.787 734.809,979.645C761.023,988.383 784.871,1002.06 809.979,1013.34C834.995,1024.58 861.168,1041.66 876.073,1017.23C893.332,988.944 895.836,926.047 897.351,892.813C899.553,844.515 895.077,786.709 876.289,741.829C820.782,609.23 630.645,780.601 551.428,812.893C544.416,782.516 539.045,783.363 560.932,769.262C571.936,762.173 586.757,759.37 598.409,752.845C620.704,740.36 639.95,720.236 656.188,700.789C675.267,677.94 690.278,652.437 702.196,625.19C711.648,603.58 746.959,611.466 761.165,587.173C765.217,580.244 763.165,566.204 770.019,560.819C775.772,556.299 801.052,557.918 809.441,555.745C836.031,548.857 850.856,531.535 862.468,507.684C868.517,495.261 869.225,483.386 880.614,478.524C890.617,474.253 914.16,480.393 925.538,480.036C950.414,479.256 975.388,475.744 998.763,466.86C1041.7,450.542 1079.47,416.42 1091.21,370.739C1094.58,357.65 1088.21,312.65 1094.56,309.288C1110.69,300.749 1122.85,288.691 1132.04,273.108C1149.14,244.101 1147.94,213.649 1138.62,182.28C1130.26,154.094 1086.8,96.578 1099.42,77.628C1127.58,35.369 1100,-9.536 1071.34,-43.008C1039.59,-80.091 992.137,-112.491 941.201,-110.616C916.068,-109.691 892.229,-97.02 870.894,-105.971C851.587,-114.071 841.178,-131.342 817.111,-129.948C796.742,-128.768 779.278,-108.59 763.972,-119.147C746.678,-131.076 732.81,-176.76 718.286,-194.749C682.971,-238.49 641.518,-271.176 589.766,-293.352C506.497,-329.034 419.711,-325.78 336.939,-289.896C288.169,-268.753 241.137,-239.322 206.259,-198.636C195.028,-185.535 186.216,-160.874 169.971,-156.948C157.339,-153.896 136.457,-167.235 120.291,-163.643C97.649,-158.613 89.554,-139.964 65.319,-145.498C34.671,-152.497 3.265,-153.52 -27.67,-147.658C-57.786,-141.951 -86.335,-130.2 -111.693,-112.991C-137.02,-95.804 -148.457,-68.791 -170.877,-50.459C-193.027,-32.348 -223.939,-27.203 -246.261,-4.882C-267.795,16.652 -284.282,44.805 -298.102,71.797C-317.748,110.172 -328.844,154.198 -324.885,197.51C-323.821,209.153 -322.754,221.533 -317.756,232.285C-312.283,244.058 -298.44,249.584 -293.565,258.42C-284.697,274.492 -292.873,304.461 -292.485,325.813C-291.563,376.501 -280.584,436.862 -241.294,472.694C-220.291,491.849 -193.008,501.562 -164.83,502.394C-153.966,502.715 -144.483,495.606 -134.591,495.159C-117.192,494.372 -120.338,494.329 -105.862,512.436C-85.432,537.993 -60.895,566.595 -24.647,564.495C-11.911,563.757 2.096,551.017 13.154,551.1C28.648,551.216 31.162,562.894 45.338,577.022C84.457,616.01 116.437,613.672 163.707,600.348C188.527,593.352 182.768,590.917 192.867,618.924C199.705,637.888 205.805,656.397 216.41,673.789C237.668,708.653 269.822,735.406 305.619,754.357C323.307,763.721 342.184,770.909 361.346,776.603C392.713,785.924 387.213,789.051 384.028,826.716C328.706,813.103 282.474,780.233 237.039,747.335C220.482,735.347 188.999,705.663 168.245,703.812C146.501,701.873 118.945,728.995 105.604,743.126C54.445,797.32 30.368,877.622 14.883,948.647C7.439,982.778 -25.723,1143.53 10.562,1162.59Z"/>
    </g>
    <g transform="matrix(0.556331,0,0,0.551738,184.578,190.324)">
        <path d="M460.705,1116.8C475.366,1084.84 488.032,1052.81 503.906,1021.33C521.554,986.327 564.288,938.574 549.805,901.883C538.224,872.542 539.984,814.982 522.697,791.29C512.295,777.033 464.764,788.247 441.48,787.511C425.883,787.018 410.802,779.877 408.865,797.338C406.95,814.596 405.807,831.925 403.896,849.179C400.505,879.802 382.003,913.818 383.052,943.354C384.147,974.175 413.487,1005.7 426.363,1033.42C435.686,1053.5 444.759,1107.08 460.705,1116.8Z" style="fill:rgb(255,229,198);"/>
    </g>
    <g transform="matrix(0.556331,0,0,0.551738,184.578,190.324)">
        <path d="M439.969,767.097C576.977,777.56 667.564,683.33 700.248,556.066C721.992,471.399 723.04,378.458 693.34,295.572C686.273,275.849 673.517,258.536 678.434,241.14C683.36,223.713 705.209,202.757 714.507,186.491C736.787,147.511 754.378,105.212 762.891,60.994C794.787,-104.695 665.123,-283.293 496.131,-300.805C402.967,-310.459 298.45,-266.637 233.041,-201.229C138.153,-106.341 128.977,59.426 178.393,177.527C186.075,195.885 195.707,213.713 207.446,229.798C215.212,240.44 229.268,269.573 233.114,244.728C238.135,212.292 243.618,209.999 221.161,192.646C210.677,184.545 202.814,173.943 196.32,162.515C171.622,119.05 175.295,61.661 191.351,15.851C211.221,-40.839 261.189,-98.239 324.949,-100.465C410.543,-103.453 431.215,16.056 426.363,79.787C441.627,80.076 456.89,80.364 472.154,80.652C472.775,27.027 460.053,-42.699 500.771,-85.021C536.488,-122.145 585.727,-122.147 629.727,-99.386C678.924,-73.937 699.348,-22.618 705,29.89C711.113,86.679 692.417,123.285 674.326,173.099C661.5,208.416 680.805,244.798 654.023,284.554C626.468,325.458 580.12,336.531 534.146,346.115C447.992,364.075 266.229,380.995 231.529,270.515C134.215,448.439 195.306,772.589 439.969,767.097Z" style="fill:rgb(255,229,198);"/>
    </g>
    <g transform="matrix(0.556331,0,0,0.551738,184.578,190.324)">
        <path d="M432.41,685.449C508.598,688.101 583.512,665.239 635.015,606.394C679.649,555.399 710.536,454.927 700.464,386.076C691.093,322.023 641.786,312.467 595.057,349.463C547.74,386.925 522.654,431.368 458.328,440.831C429.025,445.142 397.577,443.212 371.712,427.547C346.733,412.419 334.609,384.379 310.908,368.255C254.608,329.955 234.067,404.503 232.283,445.366C227.461,555.844 286.769,665.096 402.385,682.427C412.358,683.921 422.331,685.046 432.41,685.449Z"/>
    </g>
    <g transform="matrix(0.556331,0,0,0.551738,184.578,190.324)">
        <path d="M443.859,666.011C563.12,666.512 643.339,590.419 669.791,477.011C676.412,448.623 697.553,352.131 650.566,343.738C622.737,338.767 599.537,380.135 583.503,395.579C560.603,417.636 533.478,438.487 503.473,450.012C453.453,469.224 388.134,468.811 346.01,432.299C318.906,408.805 279.504,341.287 258.098,405.731C221.278,516.577 295.923,644.746 408.217,662.555C420.018,664.426 431.913,665.649 443.859,666.011Z" style="fill:rgb(51,204,51);"/>
    </g>
    <g transform="matrix(0.556331,0,0,0.551738,184.578,190.324)">
        <path d="M114.672,591.707C137.603,594.521 158.563,572.868 177.746,575.723C170.474,544.937 166.663,512.83 165.757,481.223C164.803,447.942 151.263,452.599 121.585,454.224C77.026,456.663 27.439,446.901 -9.526,421.498C-115.679,348.55 -78.455,159.643 41.557,118.668C69.701,109.059 104.956,104.211 133.682,113.051C124.06,47.597 126.962,-21.317 145.344,-85.021C151.014,-104.67 178.847,-141.017 151.07,-145.393C130.95,-148.563 120.867,-142.912 103.225,-136.429C93.326,-132.792 94.836,-130.346 82.274,-128.22C68.988,-125.972 52.182,-130.495 38.642,-130.92C10.209,-131.812 -18.863,-131.734 -46.679,-124.98C-99.647,-112.118 -117.438,-80.773 -149.925,-43.765C-164.067,-27.656 -183.203,-26.129 -204.466,-14.064C-236.782,4.273 -255.642,35.539 -273.261,67.043C-293.779,103.731 -308.615,146.543 -306.31,189.299C-304.98,213.958 -299.756,226.657 -283.414,243.299C-277.375,249.448 -260.664,245.424 -263.65,259.932C-266.917,275.803 -269.596,291.943 -270.886,308.1C-274.58,354.353 -266.951,413.978 -235.245,450.661C-212.35,477.149 -172.442,491.078 -139.557,474.636C-98.704,454.209 -104.167,487.017 -76.702,515.999C-42.691,551.888 -18.235,546.785 19.31,522.48C38.014,510.373 48.428,548.157 59.81,560.172C74.564,575.749 93.512,587.098 114.672,591.707Z" style="fill:rgb(0,204,255);"/>
    </g>
    <g transform="matrix(0.556331,0,0,0.551738,184.578,190.324)">
        <path d="M719.473,590.41C756.459,589.951 733.868,555.284 747.551,541.164C758.108,530.271 787.603,540.151 802.418,535.764C843.043,523.734 842.558,467.026 868.945,458.868C890.366,452.245 922.752,461.422 945.949,458.221C970.798,454.791 995.753,449.382 1017.12,435.54C1038.28,421.837 1055.94,400.116 1066.15,377.112C1071.41,365.286 1074.36,352.477 1074.36,339.528C1074.36,326.556 1061.76,307.966 1067.88,296.434C1075.32,282.433 1104.89,277.91 1115.19,258.312C1124.3,240.971 1124.74,220.172 1122.31,201.18C1119.69,180.706 1112.35,161.16 1104.28,142.32C1097.27,125.99 1067.68,101.903 1067.02,85.837C1066,61.113 1102.08,48.136 1086.89,16.824C1072.14,-13.585 1050.7,-40.641 1024.03,-61.476C993.271,-85.505 962.421,-92.294 924.027,-86.533C907.128,-83.997 890.319,-80.643 873.267,-79.297C865.253,-78.664 856.52,-94.643 849.938,-99.818C832.262,-113.714 813.604,-111.876 794.86,-100.575C780.861,-92.135 775.349,-97.69 780.493,-80.054C783.53,-69.641 786.359,-59.27 788.485,-48.626C796.756,-7.209 795.687,36.291 786.217,77.409C898.251,66.263 969.954,137.531 967.875,248.913C965.716,364.592 882.037,428.587 772.178,444.393C750.295,447.541 749.436,444.327 741.287,463.62C735.101,478.265 736.623,499.541 734.379,515.243C731.391,536.152 715.436,573.308 719.473,590.41Z" style="fill:rgb(0,204,255);"/>
    </g>
    <g transform="matrix(0.556331,0,0,0.551738,184.578,190.324)">
        <path d="M427.658,582.417C499.348,591.171 560.15,541.049 601.318,488.243C607.295,480.577 623.384,464.893 624.65,455.194C628.193,428.04 610.087,440.132 598.297,454.87C579.615,478.224 560.437,501.815 537.814,521.507C485.939,566.661 413.579,584.256 356.16,536.841C337.687,521.587 325.51,472.055 307.994,463.187C277.505,447.75 299.956,493.244 304.969,502.714C330.604,551.151 374.109,577.152 427.658,582.417Z"/>
    </g>
    <g transform="matrix(0.556331,0,0,0.551738,184.578,190.324)">
        <path d="M108.625,435.968C158.841,434.438 165.608,441.209 169.753,395.578C171.786,373.201 176.566,350.321 182.281,328.618C188.795,303.88 212.564,271.826 197.842,250.674C172.431,214.165 154.945,200.885 109.49,203.986C82.78,205.808 60.571,214.425 40.477,232.607C18.019,252.929 2.702,240.368 21.578,217.164C46.966,185.954 94.577,184.206 130.873,183.684C139.637,183.558 148.594,184.649 157.225,186.059C147.601,153.935 150.219,131.733 116.186,126.875C98.64,124.371 78.721,127.495 61.754,132.059C11.671,145.529 -21.186,188.407 -36.959,236.387C-75.748,354.384 -6.639,426.08 108.625,435.968Z" style="fill:rgb(255,229,198);"/>
    </g>
    <g transform="matrix(0.556331,0,0,0.551738,184.578,190.324)">
        <path d="M744.527,425.386C876.5,424.664 979.086,320.545 938.93,186.49C927.044,146.811 898.991,113.415 858.575,101.603C841.003,96.468 815.43,92.112 797.233,96.851C772.713,103.236 771.987,116.204 765.698,141.562C820.596,130.06 870.579,157.381 893.567,206.794C898.302,216.973 913.779,247.819 904.802,256.042C884.439,274.695 874.369,222.137 870.024,213.058C853.143,177.792 798.811,139.751 757.706,165.538C741.832,175.496 728.522,211.678 716.667,228.718C697.692,255.99 707.164,262.003 718.612,291.466C735.832,335.787 734.085,382.792 744.527,425.386Z" style="fill:rgb(255,229,198);"/>
    </g>
    <g transform="matrix(0.556331,0,0,0.551738,184.578,190.324)">
        <path d="M404.762,336.828C466.962,339.184 549.498,337.964 602.836,301.402C650.188,268.944 664.196,208.328 625.084,163.81C546.847,74.76 393.989,89.499 308.209,156.466C269.692,186.535 233.743,246.597 269.977,292.114C299.75,329.517 361.199,333.192 404.762,336.828Z" style="fill:rgb(255,0,0);"/>
    </g>
    <g transform="matrix(0.556331,0,0,0.551738,184.578,190.324)">
        <path d="M248.594,184.115C278.601,162.273 299.344,134.579 334.778,116.291C349.258,108.817 394.85,99.418 403.466,87.779C411.792,76.532 403.783,39.505 401.739,25.355C396.547,-10.586 384.313,-61.508 346.01,-75.733C306.267,-90.493 267.2,-59.864 244.059,-31.022C203.486,19.546 169.626,148.442 248.594,184.115Z" style="fill:white;"/>
    </g>
    <g transform="matrix(0.556331,0,0,0.551738,184.578,190.324)">
        <path d="M654.891,160.572C702.9,98.31 693.9,-43.347 618.387,-80.055C585.144,-96.215 539.038,-97.826 513.194,-67.741C494.847,-46.384 493.696,-15.197 493,11.855C492.272,40.114 485.115,73.585 507.147,86.482C528.934,99.235 562.867,96.751 586.852,108.945C584.241,94.903 588.572,59.41 604.559,84.539C609.746,92.691 601.555,105.827 603.914,112.402C609.547,128.097 640.078,149.309 654.891,160.572Z" style="fill:white;"/>
    </g>
    <g transform="matrix(0.556331,0,0,0.551738,184.578,190.324)">
        <path d="M309.074,121.259C325.976,120.717 318.056,86.207 309.289,83.458C288.948,77.082 300.318,113.676 309.074,121.259Z"/>
    </g>
    <g transform="matrix(0.556331,0,0,0.551738,184.578,190.324)">
        <path d="M227.855,97.066C302.039,33.682 195.266,85.359 227.855,97.066Z"/>
    </g>
    <g transform="matrix(0.556331,0,0,0.551738,184.578,190.324)">
        <path d="M296.113,64.882C309.946,66.109 318.345,61.42 316.416,48.898C267.369,65.16 307.264,33.288 300.002,27.73C284.559,15.911 255.222,60.787 296.113,64.882Z"/>
    </g>
    <g transform="matrix(0.556331,0,0,0.551738,184.578,190.324)">
        <path d="M651.867,63.156C695.834,45.644 550.988,28.212 651.867,63.156Z"/>
    </g>
    <g transform="matrix(0.556331,0,0,0.551738,184.578,190.324)">
        <path d="M586.852,52.14C607.493,45.629 590.114,40.404 590.954,34.425C589.368,45.723 583.02,11.776 593.116,18.659C566.187,0.298 554.868,54.964 586.852,52.14Z"/>
    </g>
    <g transform="matrix(0.556331,0,0,0.551738,184.578,190.324)">
        <path d="M525.504,39.179C540.484,36.075 538.166,28.141 524.426,22.331C499.168,11.652 500.118,36.43 525.504,39.179Z"/>
    </g>
    <g transform="matrix(0.556331,0,0,0.551738,184.578,190.324)">
        <path d="M358.105,34.425C362.876,33.459 411.772,24.635 385.537,14.122C373.992,9.497 329.702,28.81 358.105,34.425Z"/>
    </g>
    <g transform="matrix(0.556331,0,0,0.551738,184.578,190.324)">
        <path d="M296.113,2.675C309.258,1.163 314.329,-31.233 299.57,-34.694C282.672,-38.656 292.854,-3.082 296.113,2.675Z"/>
    </g>
    <g transform="matrix(0.556331,0,0,0.551738,184.578,190.324)">
        <path d="M590.092,-6.614C593.845,-13.234 593.594,-53.368 577.776,-40.526C567.206,-31.945 582.004,-7.356 590.092,-6.614Z"/>
    </g>
    <g transform="matrix(0.556331,0,0,0.551738,184.578,190.324)">
        <path d="M223.32,-77.678C246.632,-78.162 265.798,-108.879 288.552,-117.205C307.241,-124.044 326.37,-122.952 345.9,-121.093C367.756,-119.013 386.031,-78.618 396.121,-113.748C400.849,-130.208 384.92,-165.129 380.137,-181.141C372.627,-206.281 371.252,-220.574 341.905,-220.022C318.796,-219.587 293.912,-205.665 276.243,-191.942C259.488,-178.93 184.748,-90.759 223.32,-77.678Z"/>
    </g>
    <g transform="matrix(0.556331,0,0,0.551738,184.578,190.324)">
        <path d="M662.449,-89.774C699.718,-87.056 625.491,-182.034 615.577,-191.941C593.409,-214.095 563.855,-229.747 532.201,-231.253C500.485,-232.762 505.736,-190.339 500.041,-164.903C484.091,-93.673 525.716,-140.217 566.326,-140.748C585.498,-140.998 604.164,-135.574 620.326,-125.412C635.806,-115.68 646.165,-95.002 662.449,-89.774Z"/>
    </g>
    <g transform="matrix(0.556331,0,0,0.551738,184.578,190.324)">
        <path d="M245.352,-117.852C283.145,-143.822 323.419,-147.093 367.176,-135.997C360.28,-161.515 362.845,-208.359 329.161,-197.126C317.714,-193.309 305.898,-187.152 296.113,-180.064C274.731,-164.573 256.312,-137.849 245.352,-117.852Z" style="fill:rgb(255,0,255);"/>
    </g>
    <g transform="matrix(0.556331,0,0,0.551738,184.578,190.324)">
        <path d="M621.844,-146.583C608.889,-166.506 591.269,-182.603 570,-193.237C524.564,-215.955 527.041,-201.184 520.318,-154.141C553.995,-162.772 590.438,-162.578 621.844,-146.583Z" style="fill:rgb(255,0,255);"/>
    </g>
</svg>
