<?xml version="1.0" encoding="UTF-8" standalone="no"?>
<!DOCTYPE svg PUBLIC "-//W3C//DTD SVG 1.1//EN" "http://www.w3.org/Graphics/SVG/1.1/DTD/svg11.dtd">
<svg width="100%" height="100%" viewBox="0 0 823 842" version="1.1" xmlns="http://www.w3.org/2000/svg" xmlns:xlink="http://www.w3.org/1999/xlink" xml:space="preserve" xmlns:serif="http://www.serif.com/" style="fill-rule:evenodd;clip-rule:evenodd;stroke-linecap:square;stroke-miterlimit:10;">
    <g transform="matrix(5.31242,-0.280819,0.306979,5.41242,-1895.3,-1752.2)">
        <path d="M396.875,390.019C336.648,391.381 332.98,477.74 389.375,493.519C379.415,459.344 382.432,422.444 396.875,390.019Z" style="fill:rgb(248,19,13);stroke:black;stroke-width:1.25px;"/>
    </g>
    <g transform="matrix(5.32038,0,0,5.42053,-1771.3,-1881.01)">
        <path d="M476.375,457.519C471.327,419.508 449.287,391.322 411.125,383.269C412.836,383.903 414.586,384.403 416.375,384.769C415.802,384.897 406.373,388.466 405.125,389.269C421.567,420.532 435.855,456.205 435.875,492.019C452.858,485.32 467.585,473.709 476.375,457.519Z" style="fill:rgb(32,15,117);stroke:black;stroke-width:1.25px;"/>
    </g>
    <g transform="matrix(5.58773,0,0,5.42885,-1879.27,-1863.81)">
        <path d="M396.875,390.769C383.663,419.187 364.708,501.593 413.75,496.144C440.885,493.129 438.432,484.997 431.902,458.88C427.557,441.497 416.589,386.882 396.875,390.769Z" style="fill:rgb(39,154,48);stroke:black;stroke-width:1.25px;"/>
    </g>
    <g transform="matrix(5.32038,0,0,5.42053,-1778.4,-1866.21)">
        <path d="M402.125,390.019C434.437,358.237 473.348,434.727 476.375,457.519C485.584,438.704 494.679,390.546 469.625,378.019C449.646,368.03 410.522,362.521 402.125,390.019Z" style="fill:rgb(247,246,25);stroke:black;stroke-width:1.25px;"/>
    </g>
    <g transform="matrix(5.07464,-0.549037,0.626168,5.394,-1931.7,-1646.78)">
        <path d="M402.875,388.519C361.09,399.186 346.85,418.551 348.875,465.019C336.366,447.497 327.003,409.708 341.375,390.019C352.488,374.794 401.684,364.156 402.875,388.519Z" style="fill:rgb(247,246,25);stroke:black;stroke-width:1.25px;"/>
    </g>
    <g transform="matrix(5.32038,0,0,5.42053,-1762.66,-1860.56)">
        <path d="M378.875,353.269C362.231,361.114 348.47,374.875 340.625,391.519C355.851,377.561 376.25,372.351 396.125,378.769C392.753,368.541 387.274,360 378.875,353.269Z" style="fill:rgb(32,15,117);stroke:black;stroke-width:1.25px;"/>
    </g>
    <g transform="matrix(5.31819,0.147228,-0.160943,5.4183,-1702.73,-1924.19)">
        <path d="M423.125,348.019C408.883,354.31 402.98,369.787 402.875,384.769C421.064,364.162 450.378,367.182 472.625,379.519C461.082,362.995 443.311,350.764 423.125,348.019Z" style="fill:rgb(248,19,13);stroke:black;stroke-width:1.25px;"/>
    </g>
    <g transform="matrix(5.32038,0,0,5.42053,-1762.66,-1860.56)">
        <path d="M423.125,348.019C408.264,345.213 392.769,347.576 378.875,353.269C390.014,362.195 393.316,374.764 402.875,384.769C402.98,369.787 408.883,354.31 423.125,348.019Z" style="fill:rgb(39,154,48);stroke:black;stroke-width:1.25px;"/>
    </g>
    <g transform="matrix(5.32038,0,0,5.42053,-1762.66,-1860.56)">
        <path d="M378.875,388.519C389.368,407.259 428.396,396.491 420.875,374.269C413.177,351.522 376.238,367.714 378.875,388.519Z" style="fill:rgb(32,15,117);stroke:black;stroke-width:1.25px;"/>
    </g>
</svg>
