<?xml version="1.0" encoding="UTF-8" standalone="no"?>
<!DOCTYPE svg PUBLIC "-//W3C//DTD SVG 1.1//EN" "http://www.w3.org/Graphics/SVG/1.1/DTD/svg11.dtd">
<svg width="100%" height="100%" viewBox="0 0 823 842" version="1.1" xmlns="http://www.w3.org/2000/svg" xmlns:xlink="http://www.w3.org/1999/xlink" xml:space="preserve" xmlns:serif="http://www.serif.com/" style="fill-rule:evenodd;clip-rule:evenodd;stroke-linecap:square;stroke-miterlimit:10;">
    <g transform="matrix(2.09052,0,0,1.99928,-262.453,-439.688)">
        <path d="M294.067,460.82C247.348,449.09 200.629,437.359 153.911,425.629L153.911,499.907C153.911,506.302 149.18,566.141 154.169,568.521C200.802,590.766 247.434,613.012 294.067,635.257L294.067,460.82Z" style="fill:rgb(255,192,128);stroke:rgb(2,0,0);stroke-width:2.44px;"/>
    </g>
    <g transform="matrix(2.09052,0,0,1.99928,-262.453,-439.688)">
        <path d="M294.067,462.328C247.348,450.599 200.629,438.87 153.911,427.14L153.911,501.416C153.911,507.811 149.181,567.648 154.169,570.028C200.802,592.273 247.434,614.519 294.067,636.764L294.067,462.328" style="fill:none;fill-rule:nonzero;stroke:rgb(2,0,0);stroke-width:2.44px;"/>
    </g>
    <g transform="matrix(2.09052,0,0,1.99928,-262.453,-439.688)">
        <path d="M293.331,636.765C337.505,614.188 381.679,591.611 425.852,569.034C431.057,566.374 426.11,507.48 426.11,500.894L426.11,427.14C408.265,431.869 293.331,453.206 293.331,466.217L293.331,636.765Z" style="fill:rgb(255,192,128);stroke:rgb(2,0,0);stroke-width:2.44px;"/>
    </g>
    <g transform="matrix(2.09052,0,0,1.99928,-262.453,-439.688)">
        <path d="M293.331,636.765C337.505,614.188 381.679,591.611 425.852,569.034C431.057,566.374 426.11,507.48 426.11,500.894L426.11,427.14C408.265,431.869 293.331,453.206 293.331,466.217L293.331,636.765" style="fill:none;fill-rule:nonzero;stroke:rgb(2,0,0);stroke-width:2.44px;"/>
    </g>
    <g transform="matrix(2.09052,0,0,1.99928,-262.453,-439.688)">
        <path d="M308.083,469.871C343.491,459.649 378.899,449.427 414.308,439.205L414.308,560.509C414.308,565.514 368.749,583.927 363.765,586.451C345.205,595.849 326.644,605.248 308.084,614.646C308.083,566.387 308.083,518.129 308.083,469.871Z" style="fill:rgb(0,128,255);stroke:rgb(2,0,0);stroke-width:2.44px;"/>
    </g>
    <g transform="matrix(2.09052,0,0,1.99928,-262.453,-439.688)">
        <path d="M308.083,469.871C343.491,459.649 378.899,449.427 414.308,439.205L414.308,560.509C414.308,565.514 368.749,583.927 363.765,586.451C345.205,595.849 326.644,605.248 308.084,614.646C308.083,566.387 308.083,518.129 308.083,469.871" style="fill:none;fill-rule:nonzero;stroke:rgb(2,0,0);stroke-width:2.44px;"/>
    </g>
    <g transform="matrix(2.09052,0,0,1.99928,-262.453,-439.688)">
        <path d="M279.313,471.375L279.313,613.137C260.502,604.675 241.692,596.214 222.881,587.752C211.294,582.54 173.482,573.219 166.449,562.367C159.438,551.55 166.156,513.703 166.08,501.037C165.957,480.594 165.834,460.15 165.711,439.707C203.579,450.262 241.446,460.819 279.313,471.375Z" style="fill:rgb(0,128,255);stroke:rgb(2,0,0);stroke-width:2.44px;"/>
    </g>
    <g transform="matrix(2.09052,0,0,1.99928,-262.453,-439.688)">
        <path d="M279.313,471.375L279.313,613.137C260.502,604.675 241.692,596.214 222.881,587.752C211.294,582.54 173.482,573.219 166.449,562.367C159.438,551.55 166.156,513.703 166.08,501.037C165.957,480.594 165.834,460.15 165.711,439.707C203.579,450.262 241.446,460.819 279.313,471.375" style="fill:none;fill-rule:nonzero;stroke:rgb(2,0,0);stroke-width:2.44px;"/>
    </g>
    <g transform="matrix(2.09052,0,0,1.99928,-262.453,-439.688)">
        <path d="M337.591,479.421C336.653,476.475 326.605,470.893 326.527,477.407C326.435,484.996 335.087,485.078 337.591,479.421Z" style="fill:rgb(255,255,0);stroke:rgb(2,0,0);stroke-width:2.44px;"/>
    </g>
    <g transform="matrix(2.09052,0,0,1.99928,-262.453,-439.688)">
        <path d="M337.591,479.421C336.653,476.475 326.605,470.893 326.527,477.407C326.435,484.996 335.087,485.078 337.591,479.421" style="fill:none;fill-rule:nonzero;stroke:rgb(2,0,0);stroke-width:2.44px;"/>
    </g>
    <g transform="matrix(2.09052,0,0,1.99928,-262.453,-439.688)">
        <path d="M332.427,484.449C315.041,490.711 314.99,511.473 323.575,524.664C337.866,511.015 360.799,505.359 380.376,507.572C369.591,490.854 353.368,478.728 332.427,484.449Z" style="fill:rgb(255,255,0);stroke:rgb(2,0,0);stroke-width:2.44px;"/>
    </g>
    <g transform="matrix(2.09052,0,0,1.99928,-262.453,-439.688)">
        <path d="M332.427,484.449C315.041,490.711 314.99,511.473 323.575,524.664C337.866,511.015 360.799,505.359 380.376,507.572C369.591,490.854 353.368,478.728 332.427,484.449" style="fill:none;fill-rule:nonzero;stroke:rgb(2,0,0);stroke-width:2.44px;"/>
    </g>
    <g transform="matrix(2.09052,0,0,1.99928,-262.453,-439.688)">
        <path d="M381.114,507.572C365.654,505.833 329.19,510.084 324.313,526.674C332.264,519.403 342.375,514.697 352.712,512.347C360.29,510.624 377.93,510.104 381.114,507.572Z" style="fill:white;stroke:rgb(2,0,0);stroke-width:2.44px;"/>
    </g>
    <g transform="matrix(2.09052,0,0,1.99928,-262.453,-439.688)">
        <path d="M381.114,507.572C365.654,505.833 329.19,510.084 324.313,526.674C332.264,519.403 342.375,514.697 352.712,512.347C360.29,510.624 377.93,510.104 381.114,507.572" style="fill:none;fill-rule:nonzero;stroke:rgb(2,0,0);stroke-width:2.44px;"/>
    </g>
    <g transform="matrix(2.09052,0,0,1.99928,-262.453,-439.688)">
        <path d="M384.804,514.609C364.422,512.877 341.043,517.131 326.527,532.707C317.41,517.283 378.476,497.302 384.804,514.609Z" style="fill:rgb(255,255,0);stroke:rgb(2,0,0);stroke-width:2.44px;"/>
    </g>
    <g transform="matrix(2.09052,0,0,1.99928,-262.453,-439.688)">
        <path d="M384.804,514.609C364.422,512.877 341.043,517.131 326.527,532.707C317.41,517.283 378.476,497.302 384.804,514.609" style="fill:none;fill-rule:nonzero;stroke:rgb(2,0,0);stroke-width:2.44px;"/>
    </g>
    <g transform="matrix(2.09052,0,0,1.99928,-262.453,-439.688)">
        <path d="M387.015,516.619C368.617,511.384 340.974,521.132 328.74,535.219C328.248,534.382 327.757,533.544 327.265,532.707C338.815,520.569 371.994,505.731 387.015,516.619Z" style="fill:white;stroke:rgb(2,0,0);stroke-width:2.44px;"/>
    </g>
    <g transform="matrix(2.09052,0,0,1.99928,-262.453,-439.688)">
        <path d="M387.015,516.619C368.617,511.384 340.974,521.132 328.74,535.219C328.248,534.382 327.757,533.544 327.265,532.707C338.815,520.569 371.994,505.731 387.015,516.619" style="fill:none;fill-rule:nonzero;stroke:rgb(2,0,0);stroke-width:2.44px;"/>
    </g>
    <g transform="matrix(2.09052,0,0,1.99928,-262.453,-439.688)">
        <path d="M368.573,553.82C373.554,552.705 406.413,544.461 405.458,538.238C404.487,531.918 380.061,538.299 375.58,539.995C363.821,544.447 347.011,546.328 337.223,554.323C324.279,564.896 339.177,561.311 349.394,559.851C346.329,562.026 335.47,565.177 330.214,562.367C321.639,557.782 326.471,558.494 327.265,548.793C328.939,528.342 343.856,521.318 364.146,517.625C377.15,515.258 405.041,519.733 409.515,534.968C412.443,544.94 369.486,557.02 368.573,553.82Z" style="fill:rgb(255,255,0);stroke:rgb(2,0,0);stroke-width:2.44px;"/>
    </g>
    <g transform="matrix(2.09052,0,0,1.99928,-262.453,-439.688)">
        <path d="M368.573,553.82C373.554,552.705 406.413,544.461 405.458,538.238C404.487,531.918 380.061,538.299 375.58,539.995C363.821,544.447 347.011,546.328 337.223,554.323C324.279,564.896 339.177,561.311 349.394,559.851C346.329,562.026 335.47,565.177 330.214,562.367C321.639,557.782 326.471,558.494 327.265,548.793C328.939,528.342 343.856,521.318 364.146,517.625C377.15,515.258 405.041,519.733 409.515,534.968C412.443,544.94 369.486,557.02 368.573,553.82" style="fill:none;fill-rule:nonzero;stroke:rgb(2,0,0);stroke-width:2.44px;"/>
    </g>
    <g transform="matrix(2.09052,0,0,1.99928,-262.453,-439.688)">
        <path d="M350.132,560.857C354.423,566.25 363.348,567.459 368.573,562.116C375.699,554.83 360.486,549.269 357.509,545.775C356.771,546.111 356.034,546.447 355.296,546.783C356.279,547.956 357.262,549.128 358.245,550.301C352.191,551.218 349.295,554.75 350.132,560.857Z" style="fill:white;stroke:rgb(2,0,0);stroke-width:2.44px;"/>
    </g>
    <g transform="matrix(2.09052,0,0,1.99928,-262.453,-439.688)">
        <path d="M350.132,560.857C354.423,566.25 363.348,567.459 368.573,562.116C375.699,554.83 360.486,549.269 357.509,545.775C356.771,546.111 356.034,546.447 355.296,546.783C356.279,547.956 357.262,549.128 358.245,550.301C352.191,551.218 349.295,554.75 350.132,560.857" style="fill:none;fill-rule:nonzero;stroke:rgb(2,0,0);stroke-width:2.44px;"/>
    </g>
    <g transform="matrix(2.09052,0,0,1.99928,-262.453,-439.688)">
        <path d="M369.312,553.316C375.296,551.851 412.638,540.658 403.244,534.714C394.823,529.386 364.572,542.793 356.771,545.775C360.047,549.619 364.451,552.44 369.312,553.316Z" style="fill:rgb(0,0,255);stroke:rgb(2,0,0);stroke-width:2.44px;"/>
    </g>
    <g transform="matrix(2.09052,0,0,1.99928,-262.453,-439.688)">
        <path d="M369.312,553.316C375.296,551.851 412.638,540.658 403.244,534.714C394.823,529.386 364.572,542.793 356.771,545.775C360.047,549.619 364.451,552.44 369.312,553.316" style="fill:none;fill-rule:nonzero;stroke:rgb(2,0,0);stroke-width:2.44px;"/>
    </g>
    <g transform="matrix(2.09052,0,0,1.99928,-262.453,-439.688)">
        <path d="M349.394,559.851C342.603,561.172 336.077,562.682 330.214,559.851C335.504,554.655 351.601,542.971 356.771,550.802C350.591,551.867 350.877,554.92 349.394,559.851Z" style="fill:rgb(0,0,255);stroke:rgb(2,0,0);stroke-width:2.44px;"/>
    </g>
    <g transform="matrix(2.09052,0,0,1.99928,-262.453,-439.688)">
        <path d="M349.394,559.851C342.603,561.172 336.077,562.682 330.214,559.851C335.504,554.655 351.601,542.971 356.771,550.802C350.591,551.867 350.877,554.92 349.394,559.851" style="fill:none;fill-rule:nonzero;stroke:rgb(2,0,0);stroke-width:2.44px;"/>
    </g>
    <g transform="matrix(2.09052,0,0,1.99928,-262.453,-439.688)">
        <path d="M245.38,477.912C261.228,458.063 252.198,500.809 245.38,477.912Z" style="fill:rgb(255,255,0);stroke:rgb(2,0,0);stroke-width:2.44px;"/>
    </g>
    <g transform="matrix(2.09052,0,0,1.99928,-262.453,-439.688)">
        <path d="M245.38,477.912C261.228,458.063 252.198,500.809 245.38,477.912" style="fill:none;fill-rule:nonzero;stroke:rgb(2,0,0);stroke-width:2.44px;"/>
    </g>
    <g transform="matrix(2.09052,0,0,1.99928,-262.453,-439.688)">
        <path d="M251.282,483.945C268.903,491.35 266.631,509.86 260.134,524.16C244.371,511.805 223.86,503.949 203.333,506.566C209.745,487.513 233.231,479.151 251.282,483.945Z" style="fill:rgb(255,255,0);stroke:rgb(2,0,0);stroke-width:2.44px;"/>
    </g>
    <g transform="matrix(2.09052,0,0,1.99928,-262.453,-439.688)">
        <path d="M251.282,483.945C268.903,491.35 266.631,509.86 260.134,524.16C244.371,511.805 223.86,503.949 203.333,506.566C209.745,487.513 233.231,479.151 251.282,483.945" style="fill:none;fill-rule:nonzero;stroke:rgb(2,0,0);stroke-width:2.44px;"/>
    </g>
    <g transform="matrix(2.09052,0,0,1.99928,-262.453,-439.688)">
        <path d="M203.333,506.062C223.852,503.446 244.382,511.295 260.134,523.66C259.888,524.329 259.643,524.999 259.398,525.668C250.287,518.605 203.077,505.008 203.333,506.062Z" style="fill:white;stroke:rgb(2,0,0);stroke-width:2.44px;"/>
    </g>
    <g transform="matrix(2.09052,0,0,1.99928,-262.453,-439.688)">
        <path d="M203.333,506.062C223.852,503.446 244.382,511.295 260.134,523.66C259.888,524.329 259.643,524.999 259.398,525.668C250.287,518.605 203.077,505.008 203.333,506.062" style="fill:none;fill-rule:nonzero;stroke:rgb(2,0,0);stroke-width:2.44px;"/>
    </g>
    <g transform="matrix(2.09052,0,0,1.99928,-262.453,-439.688)">
        <path d="M197.433,513.605C218.474,511.345 240.768,517.24 256.447,531.701C265.777,519.078 206.684,495.402 197.433,513.605Z" style="fill:rgb(255,255,0);stroke:rgb(2,0,0);stroke-width:2.44px;"/>
    </g>
    <g transform="matrix(2.09052,0,0,1.99928,-262.453,-439.688)">
        <path d="M197.433,513.605C218.474,511.345 240.768,517.24 256.447,531.701C265.777,519.078 206.684,495.402 197.433,513.605" style="fill:none;fill-rule:nonzero;stroke:rgb(2,0,0);stroke-width:2.44px;"/>
    </g>
    <g transform="matrix(2.09052,0,0,1.99928,-262.453,-439.688)">
        <path d="M195.958,515.613C213.866,510.886 243.776,520.139 255.71,534.215C253.833,517.887 207.71,507.635 195.958,515.613Z" style="fill:white;stroke:rgb(2,0,0);stroke-width:2.44px;"/>
    </g>
    <g transform="matrix(2.09052,0,0,1.99928,-262.453,-439.688)">
        <path d="M195.958,515.613C213.866,510.886 243.776,520.139 255.71,534.215C253.833,517.887 207.71,507.635 195.958,515.613" style="fill:none;fill-rule:nonzero;stroke:rgb(2,0,0);stroke-width:2.44px;"/>
    </g>
    <g transform="matrix(2.09052,0,0,1.99928,-262.453,-439.688)">
        <path d="M213.661,552.816C209.799,551.869 175.582,543.291 176.778,537.23C178.069,530.688 199.349,537.505 204.071,538.738C215.992,541.848 233.035,544.958 243.169,552.312C257.415,562.651 246.176,561.799 233.579,558.847C233.333,559.517 233.087,560.187 232.841,560.857C237.257,561.501 248.978,564.17 252.759,561.863C260.674,557.033 255.32,556.686 254.972,548.289C254.132,528.01 241.751,521.589 221.408,517.626C213.576,516.101 203.775,513.101 195.959,516.117C194.611,516.637 174.063,530.565 173.828,531.197C168.92,544.435 206.039,553.094 215.137,555.83C215.494,553.597 214.379,554.385 213.661,552.816Z" style="fill:rgb(255,255,0);stroke:rgb(2,0,0);stroke-width:2.44px;"/>
    </g>
    <g transform="matrix(2.09052,0,0,1.99928,-262.453,-439.688)">
        <path d="M213.661,552.816C209.799,551.869 175.582,543.291 176.778,537.23C178.069,530.688 199.349,537.505 204.071,538.738C215.992,541.848 233.035,544.958 243.169,552.312C257.415,562.651 246.176,561.799 233.579,558.847C233.333,559.517 233.087,560.187 232.841,560.857C237.257,561.501 248.978,564.17 252.759,561.863C260.674,557.033 255.32,556.686 254.972,548.289C254.132,528.01 241.751,521.589 221.408,517.626C213.576,516.101 203.775,513.101 195.959,516.117C194.611,516.637 174.063,530.565 173.828,531.197C168.92,544.435 206.039,553.094 215.137,555.83C215.494,553.597 214.379,554.385 213.661,552.816" style="fill:none;fill-rule:nonzero;stroke:rgb(2,0,0);stroke-width:2.44px;"/>
    </g>
    <g transform="matrix(2.09052,0,0,1.99928,-262.453,-439.688)">
        <path d="M233.579,560.857C230.374,565.394 219.403,568.069 215.874,561.361C211.403,552.863 224.577,548.714 229.153,546.279C227.479,553.292 236.019,551.804 233.579,560.857Z" style="fill:white;stroke:rgb(2,0,0);stroke-width:2.44px;"/>
    </g>
    <g transform="matrix(2.09052,0,0,1.99928,-262.453,-439.688)">
        <path d="M233.579,560.857C230.374,565.394 219.403,568.069 215.874,561.361C211.403,552.863 224.577,548.714 229.153,546.279C227.479,553.292 236.019,551.804 233.579,560.857" style="fill:none;fill-rule:nonzero;stroke:rgb(2,0,0);stroke-width:2.44px;"/>
    </g>
    <g transform="matrix(2.09052,0,0,1.99928,-262.453,-439.688)">
        <path d="M214.399,552.816C209.061,551.302 171.02,540.117 181.204,534.214C189.671,529.306 219.856,542.379 227.677,545.775C223.091,549.17 219.009,552.334 214.399,552.816Z" style="fill:rgb(0,0,255);stroke:rgb(2,0,0);stroke-width:2.44px;"/>
    </g>
    <g transform="matrix(2.09052,0,0,1.99928,-262.453,-439.688)">
        <path d="M214.399,552.816C209.061,551.302 171.02,540.117 181.204,534.214C189.671,529.306 219.856,542.379 227.677,545.775C223.091,549.17 219.009,552.334 214.399,552.816" style="fill:none;fill-rule:nonzero;stroke:rgb(2,0,0);stroke-width:2.44px;"/>
    </g>
    <g transform="matrix(2.09052,0,0,1.99928,-262.453,-439.688)">
        <path d="M234.317,558.847C272.235,567.642 234.22,541.272 226.202,549.796C232.334,551.259 232.03,554.249 234.317,558.847Z" style="fill:rgb(0,0,255);stroke:rgb(2,0,0);stroke-width:2.44px;"/>
    </g>
    <g transform="matrix(2.09052,0,0,1.99928,-262.453,-439.688)">
        <path d="M234.317,558.847C272.235,567.642 234.22,541.272 226.202,549.796C232.334,551.259 232.03,554.249 234.317,558.847" style="fill:none;fill-rule:nonzero;stroke:rgb(2,0,0);stroke-width:2.44px;"/>
    </g>
    <g transform="matrix(2.09052,0,0,1.99928,-262.453,-439.688)">
        <path d="M291.854,457.802C250.502,447.739 209.2,437.519 167.926,427.14C188.58,424.291 209.235,421.442 229.889,418.593C230.036,417.664 229.791,416.826 229.153,416.079C204.072,419.598 178.991,423.117 153.911,426.636C200.285,438.34 246.658,450.044 293.031,461.747C307.279,465.344 340.263,449.386 354.194,445.694C378.166,439.341 402.138,432.988 426.111,426.635C411.485,424.027 354.713,405.715 345.705,415.073C367.59,419.095 389.475,423.117 411.359,427.139C371.503,437.284 331.669,447.5 291.854,457.802Z" style="fill:rgb(255,192,128);stroke:rgb(2,0,0);stroke-width:2.44px;"/>
    </g>
    <g transform="matrix(2.09052,0,0,1.99928,-262.453,-439.688)">
        <path d="M291.854,457.802C250.502,447.739 209.2,437.519 167.926,427.14C188.58,424.291 209.235,421.442 229.889,418.593C230.036,417.664 229.791,416.826 229.153,416.079C204.072,419.598 178.991,423.117 153.911,426.636C200.285,438.34 246.658,450.044 293.031,461.747C307.279,465.344 340.263,449.386 354.194,445.694C378.166,439.341 402.138,432.988 426.111,426.635C411.485,424.027 354.713,405.715 345.705,415.073C367.59,419.095 389.475,423.117 411.359,427.139C371.503,437.284 331.669,447.5 291.854,457.802" style="fill:none;fill-rule:nonzero;stroke:rgb(2,0,0);stroke-width:2.44px;"/>
    </g>
    <g transform="matrix(2.09052,0,0,1.99928,-262.453,-439.688)">
        <path d="M346.442,415.074C368.081,419.096 389.719,423.118 411.358,427.14C403.304,429.215 349.772,447.961 347.18,439.706C345.05,432.922 359.166,433.128 358.983,427.14C358.831,422.17 348.713,419.564 346.442,415.074Z" style="fill:rgb(0,0,255);stroke:rgb(2,0,0);stroke-width:2.44px;"/>
    </g>
    <g transform="matrix(2.09052,0,0,1.99928,-262.453,-439.688)">
        <path d="M346.442,415.074C368.081,419.096 389.719,423.118 411.358,427.14C403.304,429.215 349.772,447.961 347.18,439.706C345.05,432.922 359.166,433.128 358.983,427.14C358.831,422.17 348.713,419.564 346.442,415.074" style="fill:none;fill-rule:nonzero;stroke:rgb(2,0,0);stroke-width:2.44px;"/>
    </g>
    <g transform="matrix(2.09052,0,0,1.99928,-262.453,-439.688)">
        <path d="M229.153,439.707C229.169,440.89 229.874,441.984 229.889,443.225C209.235,438.031 188.58,432.835 167.926,427.641C188.58,424.96 209.235,422.279 229.889,419.598C222.524,430.814 212.617,430.266 229.153,439.707Z" style="fill:rgb(0,0,255);stroke:rgb(2,0,0);stroke-width:2.44px;"/>
    </g>
    <g transform="matrix(2.09052,0,0,1.99928,-262.453,-439.688)">
        <path d="M229.153,439.707C229.169,440.89 229.874,441.984 229.889,443.225C209.235,438.031 188.58,432.835 167.926,427.641C188.58,424.96 209.235,422.279 229.889,419.598C222.524,430.814 212.617,430.266 229.153,439.707" style="fill:none;fill-rule:nonzero;stroke:rgb(2,0,0);stroke-width:2.44px;"/>
    </g>
    <g transform="matrix(2.09052,0,0,1.99928,-262.453,-439.688)">
        <path d="M291.118,457.802C310.543,452.776 329.968,447.748 349.393,442.722C346.511,435.714 348.013,442.402 349.393,434.177C317.672,445.163 258.203,451.49 226.94,436.691C231.736,451.875 276.715,454.255 291.118,457.802Z" style="fill:rgb(255,255,0);stroke:rgb(2,0,0);stroke-width:2.44px;"/>
    </g>
    <g transform="matrix(2.09052,0,0,1.99928,-262.453,-439.688)">
        <path d="M291.118,457.802C310.543,452.776 329.968,447.748 349.393,442.722C346.511,435.714 348.013,442.402 349.393,434.177C317.672,445.163 258.203,451.49 226.94,436.691C231.736,451.875 276.715,454.255 291.118,457.802" style="fill:none;fill-rule:nonzero;stroke:rgb(2,0,0);stroke-width:2.44px;"/>
    </g>
    <g transform="matrix(2.09052,0,0,1.99928,-262.453,-439.688)">
        <path d="M344.968,435.683C312.123,443.523 277.596,444.864 244.115,440.524C239.553,439.933 218.168,437.627 218.087,430.156C217.998,421.907 235.363,425.238 227.677,414.57C266.697,422.455 310.177,422.365 348.657,411.554C339.304,421.499 375.206,428.526 344.968,435.683Z" style="fill:rgb(255,255,0);stroke:rgb(2,0,0);stroke-width:2.44px;"/>
    </g>
    <g transform="matrix(2.09052,0,0,1.99928,-262.453,-439.688)">
        <path d="M344.968,435.683C312.123,443.523 277.596,444.864 244.115,440.524C239.553,439.933 218.168,437.627 218.087,430.156C217.998,421.907 235.363,425.238 227.677,414.57C266.697,422.455 310.177,422.365 348.657,411.554C339.304,421.499 375.206,428.526 344.968,435.683" style="fill:none;fill-rule:nonzero;stroke:rgb(2,0,0);stroke-width:2.44px;"/>
    </g>
    <g transform="matrix(2.09052,0,0,1.99928,-262.453,-439.688)">
        <path d="M349.394,411.554C374.87,405.854 336.69,396.926 349.394,387.425C311.678,399.271 264.441,401.191 226.203,390.945C234.974,400.093 219.971,398.783 218.457,407.03C216.688,416.664 245.171,418.028 250.547,418.593C282.177,421.92 319.009,421.79 349.394,411.554Z" style="fill:rgb(255,255,0);stroke:rgb(2,0,0);stroke-width:2.44px;stroke-linecap:butt;stroke-linejoin:round;stroke-miterlimit:2;"/>
    </g>
    <g transform="matrix(2.09052,0,0,1.99928,-262.453,-439.688)">
        <path d="M349.394,411.554C374.87,405.854 336.69,396.926 349.394,387.425C311.678,399.271 264.441,401.191 226.203,390.945C234.974,400.093 219.971,398.783 218.457,407.03C216.688,416.664 245.171,418.028 250.547,418.593C282.177,421.92 319.009,421.79 349.394,411.554" style="fill:none;fill-rule:nonzero;stroke:rgb(2,0,0);stroke-width:2.44px;"/>
    </g>
    <g transform="matrix(2.09052,0,0,1.99928,-262.453,-439.688)">
        <path d="M350.868,365.808C311.98,379.467 264.677,378.957 224.727,370.333C228.644,382.841 206.496,380.499 226.202,390.944C242.049,399.344 270.163,396.269 287.429,395.971C307.327,395.628 328.159,394.159 347.099,387.702C368.495,380.41 345.42,377.517 350.868,365.808Z" style="fill:rgb(255,255,0);stroke:rgb(2,0,0);stroke-width:2.44px;stroke-linecap:butt;stroke-linejoin:round;stroke-miterlimit:2;"/>
    </g>
    <g transform="matrix(2.09052,0,0,1.99928,-262.453,-439.688)">
        <path d="M350.868,365.808C311.98,379.467 264.677,378.957 224.727,370.333C228.644,382.841 206.496,380.499 226.202,390.944C242.049,399.344 270.163,396.269 287.429,395.971C307.327,395.628 328.159,394.159 347.099,387.702C368.495,380.41 345.42,377.517 350.868,365.808" style="fill:none;fill-rule:nonzero;stroke:rgb(2,0,0);stroke-width:2.44px;"/>
    </g>
    <g transform="matrix(2.09052,0,0,1.99928,-262.453,-439.688)">
        <path d="M339.804,347.208C340.28,353.429 340.619,359.644 339.804,365.808C331.139,355.675 333.274,349.774 318.483,351.528C307.884,352.785 312.239,363.6 308.084,371.841C303.791,356.446 299.745,355.255 284.849,355.503C266.949,355.801 269.145,358.906 261.612,374.355C258.443,361.156 260.582,355.203 246.776,352.851C235.6,350.947 235.866,361.091 229.891,367.82C228.965,360.902 233.22,349.004 224.729,349.218C224.024,359.013 202.14,366.997 226.122,371.357C247.161,375.182 269.403,376.892 290.751,375.36C305.471,374.303 338.415,377.117 350.134,365.808C363.759,352.659 340.977,358.344 346.445,346.203C344.229,346.538 342.017,346.873 339.804,347.208Z" style="fill:rgb(255,255,0);stroke:rgb(2,0,0);stroke-width:2.44px;stroke-linecap:butt;stroke-linejoin:round;stroke-miterlimit:2;"/>
    </g>
    <g transform="matrix(2.09052,0,0,1.99928,-262.453,-439.688)">
        <path d="M339.804,347.208C340.28,353.429 340.619,359.644 339.804,365.808C331.139,355.675 333.274,349.774 318.483,351.528C307.884,352.785 312.239,363.6 308.084,371.841C303.791,356.446 299.745,355.255 284.849,355.503C266.949,355.801 269.145,358.906 261.612,374.355C258.443,361.156 260.582,355.203 246.776,352.851C235.6,350.947 235.866,361.091 229.891,367.82C228.965,360.902 233.22,349.004 224.729,349.218C224.024,359.013 202.14,366.997 226.122,371.357C247.161,375.182 269.403,376.892 290.751,375.36C305.471,374.303 338.415,377.117 350.134,365.808C363.759,352.659 340.977,358.344 346.445,346.203C344.229,346.538 342.017,346.873 339.804,347.208" style="fill:none;fill-rule:nonzero;stroke:rgb(2,0,0);stroke-width:2.44px;"/>
    </g>
    <g transform="matrix(2.09052,0,0,1.99928,-262.453,-439.688)">
        <path d="M215.874,345.199C223.004,338.174 230.628,334.228 240.218,331.625C229.67,341.715 233.807,356.9 215.874,345.199Z" style="fill:rgb(255,255,0);stroke:rgb(2,0,0);stroke-width:2.44px;stroke-linecap:butt;stroke-linejoin:round;stroke-miterlimit:2;"/>
    </g>
    <g transform="matrix(2.09052,0,0,1.99928,-262.453,-439.688)">
        <path d="M215.874,345.199C223.004,338.174 230.628,334.228 240.218,331.625C229.67,341.715 233.807,356.9 215.874,345.199" style="fill:none;fill-rule:nonzero;stroke:rgb(2,0,0);stroke-width:2.44px;"/>
    </g>
    <g transform="matrix(2.09052,0,0,1.99928,-262.453,-439.688)">
        <path d="M328.001,329.111C337.502,332.978 336.989,352.647 347.918,345.197C360.752,336.448 337.295,328.22 328.001,329.111Z" style="fill:rgb(255,255,0);stroke:rgb(2,0,0);stroke-width:2.44px;stroke-linecap:butt;stroke-linejoin:round;stroke-miterlimit:2;"/>
    </g>
    <g transform="matrix(2.09052,0,0,1.99928,-262.453,-439.688)">
        <path d="M328.001,329.111C337.502,332.978 336.989,352.647 347.918,345.197C360.752,336.448 337.295,328.22 328.001,329.111" style="fill:none;fill-rule:nonzero;stroke:rgb(2,0,0);stroke-width:2.44px;"/>
    </g>
    <g transform="matrix(2.09052,0,0,1.99928,-262.453,-439.688)">
        <path d="M311.772,350.728C311.246,345.868 311.585,341.79 309.559,337.156C317.808,338.551 323.491,345.143 329.475,350.728C323.023,351.492 316.097,353.37 311.772,350.728Z" style="fill:rgb(255,255,0);stroke:rgb(2,0,0);stroke-width:2.44px;stroke-linecap:butt;stroke-linejoin:round;stroke-miterlimit:2;"/>
    </g>
    <g transform="matrix(2.09052,0,0,1.99928,-262.453,-439.688)">
        <path d="M311.772,350.728C311.246,345.868 311.585,341.79 309.559,337.156C317.808,338.551 323.491,345.143 329.475,350.728C323.023,351.492 316.097,353.37 311.772,350.728" style="fill:none;fill-rule:nonzero;stroke:rgb(2,0,0);stroke-width:2.44px;"/>
    </g>
    <g transform="matrix(2.09052,0,0,1.99928,-262.453,-439.688)">
        <path d="M249.808,353.242C252.207,354.023 255.383,353.587 257.921,353.744C256.732,348.446 257.115,342.885 258.659,337.658C251.305,339.951 245.405,345.567 240.956,351.734C243.779,352.215 246.961,353.359 249.808,353.242Z" style="fill:rgb(255,255,0);stroke:rgb(2,0,0);stroke-width:2.44px;stroke-linecap:butt;stroke-linejoin:round;stroke-miterlimit:2;"/>
    </g>
    <g transform="matrix(2.09052,0,0,1.99928,-262.453,-439.688)">
        <path d="M249.808,353.242C252.207,354.023 255.383,353.587 257.921,353.744C256.732,348.446 257.115,342.885 258.659,337.658C251.305,339.951 245.405,345.567 240.956,351.734C243.779,352.215 246.961,353.359 249.808,353.242" style="fill:none;fill-rule:nonzero;stroke:rgb(2,0,0);stroke-width:2.44px;"/>
    </g>
    <g transform="matrix(2.09052,0,0,1.99928,-262.453,-439.688)">
        <path d="M270.462,355.755C275.626,350.56 280.79,345.366 285.954,340.171C290.871,345.198 295.788,350.224 300.706,355.251C290.625,355.419 280.543,355.587 270.462,355.755Z" style="fill:rgb(255,255,0);stroke:rgb(2,0,0);stroke-width:2.44px;stroke-linecap:butt;stroke-linejoin:round;stroke-miterlimit:2;"/>
    </g>
    <g transform="matrix(2.09052,0,0,1.99928,-262.453,-439.688)">
        <path d="M270.462,355.755C275.626,350.56 280.79,345.366 285.954,340.171C290.871,345.198 295.788,350.224 300.706,355.251C290.625,355.419 280.543,355.587 270.462,355.755" style="fill:none;fill-rule:nonzero;stroke:rgb(2,0,0);stroke-width:2.44px;"/>
    </g>
    <g transform="matrix(2.09052,0,0,1.99928,-262.453,-439.688)">
        <path d="M153.911,319.56C160.625,307.328 137.015,300.522 131.778,311.015C124.921,324.755 147.398,327.514 153.911,319.56Z" style="fill:rgb(255,255,0);stroke:rgb(2,0,0);stroke-width:2.44px;stroke-linecap:butt;stroke-linejoin:round;stroke-miterlimit:2;"/>
    </g>
    <g transform="matrix(2.09052,0,0,1.99928,-262.453,-439.688)">
        <path d="M153.911,319.56C160.625,307.328 137.015,300.522 131.778,311.015C124.921,324.755 147.398,327.514 153.911,319.56" style="fill:none;fill-rule:nonzero;stroke:rgb(2,0,0);stroke-width:2.44px;"/>
    </g>
    <g transform="matrix(2.09052,0,0,1.99928,-262.453,-439.688)">
        <path d="M215.874,344.695C212.695,347.344 209.158,348.925 206.284,352.236C207.528,345.759 209.496,339.258 212.186,333.132C198.843,328.115 180.775,316.713 166.45,316.544C151.666,316.37 150.06,323.899 158.335,333.132C168.896,344.916 195.659,352.295 209.873,359.592C218.783,364.167 234.41,347.337 215.874,344.695Z" style="fill:rgb(128,0,128);stroke:rgb(2,0,0);stroke-width:2.44px;stroke-linecap:butt;stroke-linejoin:round;stroke-miterlimit:2;"/>
    </g>
    <g transform="matrix(2.09052,0,0,1.99928,-262.453,-439.688)">
        <path d="M215.874,344.695C212.695,347.344 209.158,348.925 206.284,352.236C207.528,345.759 209.496,339.258 212.186,333.132C198.843,328.115 180.775,316.713 166.45,316.544C151.666,316.37 150.06,323.899 158.335,333.132C168.896,344.916 195.659,352.295 209.873,359.592C218.783,364.167 234.41,347.337 215.874,344.695" style="fill:none;fill-rule:nonzero;stroke:rgb(2,0,0);stroke-width:2.44px;"/>
    </g>
    <g transform="matrix(2.09052,0,0,1.99928,-262.453,-439.688)">
        <path d="M341.28,317.046C352.423,323.361 358.443,334.21 361.934,346.202C352.507,338.955 340.675,328.071 328,329.11C340.292,335.823 342.074,353.218 339.803,365.807C332.19,354.735 324.158,339.381 309.559,337.155C313.964,348.086 313.309,361.05 308.821,371.841C302.507,358.892 295.274,350.451 285.216,340.171C274.775,351.199 267.225,359.721 262.349,374.355C258.643,363.712 253.353,349.043 258.66,338.16C244.574,342.555 237.868,357.286 230.629,368.322C226.908,356.847 230.829,339.696 239.483,331.123C227.187,334.118 214.427,343.161 206.286,352.738C208.462,337.708 215.065,328.321 226.942,319.056C219.664,322.473 212.174,325.538 205.549,330.117C213.373,322.386 230.239,312.986 241.695,314.533C255.52,316.399 266.768,327.019 282.267,327.101C312.92,327.264 331.512,300.044 359.722,323.581C353.544,321.491 347.402,319.294 341.28,317.046Z" style="fill:rgb(0,255,0);stroke:rgb(2,0,0);stroke-width:2.44px;stroke-linecap:butt;stroke-linejoin:round;stroke-miterlimit:2;"/>
    </g>
    <g transform="matrix(2.09052,0,0,1.99928,-262.453,-439.688)">
        <path d="M341.28,317.046C352.423,323.361 358.443,334.21 361.934,346.202C352.507,338.955 340.675,328.071 328,329.11C340.292,335.823 342.074,353.218 339.803,365.807C332.19,354.735 324.158,339.381 309.559,337.155C313.964,348.086 313.309,361.05 308.821,371.841C302.507,358.892 295.274,350.451 285.216,340.171C274.775,351.199 267.225,359.721 262.349,374.355C258.643,363.712 253.353,349.043 258.66,338.16C244.574,342.555 237.868,357.286 230.629,368.322C226.908,356.847 230.829,339.696 239.483,331.123C227.187,334.118 214.427,343.161 206.286,352.738C208.462,337.708 215.065,328.321 226.942,319.056C219.664,322.473 212.174,325.538 205.549,330.117C213.373,322.386 230.239,312.986 241.695,314.533C255.52,316.399 266.768,327.019 282.267,327.101C312.92,327.264 331.512,300.044 359.722,323.581C353.544,321.491 347.402,319.294 341.28,317.046" style="fill:none;fill-rule:nonzero;stroke:rgb(2,0,0);stroke-width:2.44px;"/>
    </g>
    <g transform="matrix(2.09052,0,0,1.99928,-262.453,-439.688)">
        <path d="M355.296,329.111C366.721,323.967 390.124,306.642 403.243,309.004C421.935,312.369 411.896,324.57 401.714,330.795C387.094,339.732 365.848,361.076 349.763,354.499C340.408,350.674 353.191,333.139 361.935,346.204C360.957,340.236 357.408,334.777 355.296,329.111Z" style="fill:rgb(128,0,128);stroke:rgb(2,0,0);stroke-width:2.44px;stroke-linecap:butt;stroke-linejoin:round;stroke-miterlimit:2;"/>
    </g>
    <g transform="matrix(2.09052,0,0,1.99928,-262.453,-439.688)">
        <path d="M355.296,329.111C366.721,323.967 390.124,306.642 403.243,309.004C421.935,312.369 411.896,324.57 401.714,330.795C387.094,339.732 365.848,361.076 349.763,354.499C340.408,350.674 353.191,333.139 361.935,346.204C360.957,340.236 357.408,334.777 355.296,329.111" style="fill:none;fill-rule:nonzero;stroke:rgb(2,0,0);stroke-width:2.44px;"/>
    </g>
    <g transform="matrix(2.09052,0,0,1.99928,-262.453,-439.688)">
        <path d="M416.524,315.539C427.712,321.949 443.288,306.73 430.537,300.207C416.458,293.004 400.604,310.491 416.524,315.539Z" style="fill:rgb(255,255,0);stroke:rgb(2,0,0);stroke-width:2.44px;stroke-linecap:butt;stroke-linejoin:round;stroke-miterlimit:2;"/>
    </g>
    <g transform="matrix(2.09052,0,0,1.99928,-262.453,-439.688)">
        <path d="M416.524,315.539C427.712,321.949 443.288,306.73 430.537,300.207C416.458,293.004 400.604,310.491 416.524,315.539" style="fill:none;fill-rule:nonzero;stroke:rgb(2,0,0);stroke-width:2.44px;"/>
    </g>
    <g transform="matrix(2.09052,0,0,1.99928,-262.453,-439.688)">
        <path d="M311.772,243.15C287.501,231.059 259.388,239.638 238.632,253.781C214.093,270.501 224.851,306.515 248.605,317.718C273.674,329.54 309.168,330.52 330.214,309.506C352.598,287.156 339.406,253.296 311.772,243.15Z" style="fill:white;stroke:rgb(2,0,0);stroke-width:2.44px;stroke-linecap:butt;stroke-linejoin:round;stroke-miterlimit:2;"/>
    </g>
    <g transform="matrix(2.09052,0,0,1.99928,-262.453,-439.688)">
        <path d="M311.772,243.15C287.501,231.059 259.388,239.638 238.632,253.781C214.093,270.501 224.851,306.515 248.605,317.718C273.674,329.54 309.168,330.52 330.214,309.506C352.598,287.156 339.406,253.296 311.772,243.15" style="fill:none;fill-rule:nonzero;stroke:rgb(2,0,0);stroke-width:2.44px;"/>
    </g>
    <g transform="matrix(2.09052,0,0,1.99928,-262.453,-439.688)">
        <path d="M313.985,256.218C310.885,261.311 304.38,258.372 297.756,257.728C298.002,256.723 298.248,255.718 298.494,254.712C303.659,255.214 308.822,255.716 313.985,256.218Z" style="fill:rgb(191,0,0);stroke:rgb(2,0,0);stroke-width:2.44px;stroke-linecap:butt;stroke-linejoin:round;stroke-miterlimit:2;"/>
    </g>
    <g transform="matrix(2.09052,0,0,1.99928,-262.453,-439.688)">
        <path d="M313.985,256.218C310.885,261.311 304.38,258.372 297.756,257.728C298.002,256.723 298.248,255.718 298.494,254.712C303.659,255.214 308.822,255.716 313.985,256.218" style="fill:none;fill-rule:nonzero;stroke:rgb(2,0,0);stroke-width:2.44px;"/>
    </g>
    <g transform="matrix(2.09052,0,0,1.99928,-262.453,-439.688)">
        <path d="M266.036,259.236C260.38,260.074 254.725,260.912 249.069,261.75L249.069,259.236C256.127,257.923 262.341,254.629 266.036,259.236Z" style="fill:rgb(191,0,0);stroke:rgb(2,0,0);stroke-width:2.44px;stroke-linecap:butt;stroke-linejoin:round;stroke-miterlimit:2;"/>
    </g>
    <g transform="matrix(2.09052,0,0,1.99928,-262.453,-439.688)">
        <path d="M266.036,259.236C260.38,260.074 254.725,260.912 249.069,261.75L249.069,259.236C256.127,257.923 262.341,254.629 266.036,259.236" style="fill:none;fill-rule:nonzero;stroke:rgb(2,0,0);stroke-width:2.44px;"/>
    </g>
    <g transform="matrix(2.09052,0,0,1.99928,-262.453,-439.688)">
        <path d="M320.624,284.873C318.494,271.85 331.266,272.811 333.534,283.616C335.995,295.342 320.503,297.339 320.624,284.873Z" style="fill:rgb(128,0,128);stroke:rgb(2,0,0);stroke-width:2.44px;stroke-linecap:butt;stroke-linejoin:round;stroke-miterlimit:2;"/>
    </g>
    <g transform="matrix(2.09052,0,0,1.99928,-262.453,-439.688)">
        <path d="M320.624,284.873C318.494,271.85 331.266,272.811 333.534,283.616C335.995,295.342 320.503,297.339 320.624,284.873" style="fill:none;fill-rule:nonzero;stroke:rgb(2,0,0);stroke-width:2.44px;"/>
    </g>
    <g transform="matrix(2.09052,0,0,1.99928,-262.453,-439.688)">
        <path d="M321.362,288.394C309.521,303.117 247.576,318.946 246.118,287.386C267.098,304.531 303.532,312.944 320.624,284.37C320.87,285.712 321.116,287.053 321.362,288.394Z" style="fill:rgb(255,128,128);stroke:rgb(2,0,0);stroke-width:2.44px;stroke-linecap:butt;stroke-linejoin:round;stroke-miterlimit:2;"/>
    </g>
    <g transform="matrix(2.09052,0,0,1.99928,-262.453,-439.688)">
        <path d="M321.362,288.394C309.521,303.117 247.576,318.946 246.118,287.386C267.098,304.531 303.532,312.944 320.624,284.37C320.87,285.712 321.116,287.053 321.362,288.394" style="fill:none;fill-rule:nonzero;stroke:rgb(2,0,0);stroke-width:2.44px;"/>
    </g>
    <g transform="matrix(2.09052,0,0,1.99928,-262.453,-439.688)">
        <path d="M245.38,292.414C245.803,284.832 241.245,269.888 234.318,281.355C229.138,289.928 240.944,304.408 245.38,292.414Z" style="fill:rgb(128,0,128);stroke:rgb(2,0,0);stroke-width:2.44px;stroke-linecap:butt;stroke-linejoin:round;stroke-miterlimit:2;"/>
    </g>
    <g transform="matrix(2.09052,0,0,1.99928,-262.453,-439.688)">
        <path d="M245.38,292.414C245.803,284.832 241.245,269.888 234.318,281.355C229.138,289.928 240.944,304.408 245.38,292.414" style="fill:none;fill-rule:nonzero;stroke:rgb(2,0,0);stroke-width:2.44px;"/>
    </g>
    <g transform="matrix(2.09052,0,0,1.99928,-262.453,-439.688)">
        <path d="M311.036,275.322C321.694,271.559 314.587,258.839 304.395,262.252C292.609,266.198 300.308,278.997 311.036,275.322Z" style="fill:rgb(128,255,255);stroke:rgb(2,0,0);stroke-width:2.44px;stroke-linecap:butt;stroke-linejoin:round;stroke-miterlimit:2;"/>
    </g>
    <g transform="matrix(2.09052,0,0,1.99928,-262.453,-439.688)">
        <path d="M311.036,275.322C321.694,271.559 314.587,258.839 304.395,262.252C292.609,266.198 300.308,278.997 311.036,275.322" style="fill:none;fill-rule:nonzero;stroke:rgb(2,0,0);stroke-width:2.44px;"/>
    </g>
    <g transform="matrix(2.09052,0,0,1.99928,-262.453,-439.688)">
        <path d="M257.185,278.339C244.923,277.382 248.472,261.548 260.134,263.761C272.308,266.071 268.026,278.671 257.185,278.339Z" style="fill:rgb(128,255,255);stroke:rgb(2,0,0);stroke-width:2.44px;stroke-linecap:butt;stroke-linejoin:round;stroke-miterlimit:2;"/>
    </g>
    <g transform="matrix(2.09052,0,0,1.99928,-262.453,-439.688)">
        <path d="M257.185,278.339C244.923,277.382 248.472,261.548 260.134,263.761C272.308,266.071 268.026,278.671 257.185,278.339" style="fill:none;fill-rule:nonzero;stroke:rgb(2,0,0);stroke-width:2.44px;"/>
    </g>
    <g transform="matrix(2.09052,0,0,1.99928,-262.453,-439.688)">
        <path d="M263.823,268.789C261.021,272.644 260.426,273.461 263.823,268.789C261.388,268.789 261.4,268.872 263.823,268.789Z" style="stroke:rgb(2,0,0);stroke-width:2.44px;stroke-linecap:butt;stroke-linejoin:round;stroke-miterlimit:2;"/>
    </g>
    <g transform="matrix(2.09052,0,0,1.99928,-262.453,-439.688)">
        <path d="M263.823,268.789C261.021,272.644 260.426,273.461 263.823,268.789C261.388,268.789 261.4,268.872 263.823,268.789" style="fill:none;fill-rule:nonzero;stroke:rgb(2,0,0);stroke-width:2.44px;"/>
    </g>
    <g transform="matrix(2.09052,0,0,1.99928,-262.453,-439.688)">
        <path d="M256.446,277.333C256.114,272.228 255.036,269.235 261.61,268.788C261.005,273.627 262.498,273.441 263.823,268.788C273.924,273.714 262.761,279.656 256.446,277.333Z" style="fill:rgb(0,0,255);stroke:rgb(2,0,0);stroke-width:2.44px;stroke-linecap:butt;stroke-linejoin:round;stroke-miterlimit:2;"/>
    </g>
    <g transform="matrix(2.09052,0,0,1.99928,-262.453,-439.688)">
        <path d="M256.446,277.333C256.114,272.228 255.036,269.235 261.61,268.788C261.005,273.627 262.498,273.441 263.823,268.788C273.924,273.714 262.761,279.656 256.446,277.333" style="fill:none;fill-rule:nonzero;stroke:rgb(2,0,0);stroke-width:2.44px;"/>
    </g>
    <g transform="matrix(2.09052,0,0,1.99928,-262.453,-439.688)">
        <path d="M305.872,267.279C301.333,271.58 303.708,272.443 305.872,267.279Z" style="stroke:rgb(2,0,0);stroke-width:2.44px;stroke-linecap:butt;stroke-linejoin:round;stroke-miterlimit:2;"/>
    </g>
    <g transform="matrix(2.09052,0,0,1.99928,-262.453,-439.688)">
        <path d="M305.872,267.279C301.333,271.58 303.708,272.443 305.872,267.279" style="fill:none;fill-rule:nonzero;stroke:rgb(2,0,0);stroke-width:2.44px;"/>
    </g>
    <g transform="matrix(2.09052,0,0,1.99928,-262.453,-439.688)">
        <path d="M308.821,276.328C309.142,272.356 309.935,269.892 305.872,268.285C302.995,272.282 301.914,272.673 302.183,267.279C293.291,271.703 301,278.085 308.821,276.328Z" style="fill:rgb(0,0,255);stroke:rgb(2,0,0);stroke-width:2.44px;stroke-linecap:butt;stroke-linejoin:round;stroke-miterlimit:2;"/>
    </g>
    <g transform="matrix(2.09052,0,0,1.99928,-262.453,-439.688)">
        <path d="M308.821,276.328C309.142,272.356 309.935,269.892 305.872,268.285C302.995,272.282 301.914,272.673 302.183,267.279C293.291,271.703 301,278.085 308.821,276.328" style="fill:none;fill-rule:nonzero;stroke:rgb(2,0,0);stroke-width:2.44px;"/>
    </g>
    <g transform="matrix(2.09052,0,0,1.99928,-262.453,-439.688)">
        <path d="M296.282,276.83C293.472,267.594 274.726,262.767 270.462,274.318C265.04,289.007 293.915,292.352 296.282,276.83Z" style="fill:rgb(255,0,0);stroke:rgb(2,0,0);stroke-width:2.44px;stroke-linecap:butt;stroke-linejoin:round;stroke-miterlimit:2;"/>
    </g>
    <g transform="matrix(2.09052,0,0,1.99928,-262.453,-439.688)">
        <path d="M296.282,276.83C293.472,267.594 274.726,262.767 270.462,274.318C265.04,289.007 293.915,292.352 296.282,276.83" style="fill:none;fill-rule:nonzero;stroke:rgb(2,0,0);stroke-width:2.44px;"/>
    </g>
    <g transform="matrix(2.09052,0,0,1.99928,-262.453,-439.688)">
        <path d="M167.188,243.652C160.558,268.109 147.55,224.939 167.188,243.652Z" style="fill:rgb(255,255,0);stroke:rgb(2,0,0);stroke-width:2.44px;stroke-linecap:butt;stroke-linejoin:round;stroke-miterlimit:2;"/>
    </g>
    <g transform="matrix(2.09052,0,0,1.99928,-262.453,-439.688)">
        <path d="M167.188,243.652C160.558,268.109 147.55,224.939 167.188,243.652" style="fill:none;fill-rule:nonzero;stroke:rgb(2,0,0);stroke-width:2.44px;"/>
    </g>
    <g transform="matrix(2.09052,0,0,1.99928,-262.453,-439.688)">
        <path d="M167.188,244.156C165.79,243.201 165.067,242.085 163.499,241.64C182.848,220.814 225.937,241.52 249.069,247.171C239.518,253.679 232.054,259.662 226.94,270.294C212.893,261.663 182.996,232.048 167.188,244.156Z" style="fill:rgb(0,128,255);stroke:rgb(2,0,0);stroke-width:2.44px;stroke-linecap:butt;stroke-linejoin:round;stroke-miterlimit:2;"/>
    </g>
    <g transform="matrix(2.09052,0,0,1.99928,-262.453,-439.688)">
        <path d="M167.188,244.156C165.79,243.201 165.067,242.085 163.499,241.64C182.848,220.814 225.937,241.52 249.069,247.171C239.518,253.679 232.054,259.662 226.94,270.294C212.893,261.663 182.996,232.048 167.188,244.156" style="fill:none;fill-rule:nonzero;stroke:rgb(2,0,0);stroke-width:2.44px;"/>
    </g>
    <g transform="matrix(2.09052,0,0,1.99928,-262.453,-439.688)">
        <path d="M301.444,234.101C304.036,229.749 314.902,227.769 313.985,235.609C313.103,243.159 302.421,239.875 301.444,234.101Z" style="fill:rgb(255,255,0);stroke:rgb(2,0,0);stroke-width:2.44px;stroke-linecap:butt;stroke-linejoin:round;stroke-miterlimit:2;"/>
    </g>
    <g transform="matrix(2.09052,0,0,1.99928,-262.453,-439.688)">
        <path d="M301.444,234.101C304.036,229.749 314.902,227.769 313.985,235.609C313.103,243.159 302.421,239.875 301.444,234.101" style="fill:none;fill-rule:nonzero;stroke:rgb(2,0,0);stroke-width:2.44px;"/>
    </g>
    <g transform="matrix(2.09052,0,0,1.99928,-262.453,-439.688)">
        <path d="M301.444,234.605C303.204,225.425 289.183,225.052 281.528,225.052C271.409,225.052 265.128,234.48 260.133,242.144C271.933,237.845 286.268,237.265 298.494,240.132C297.826,238.782 297.654,236.19 297.017,234.605L301.444,234.605Z" style="fill:rgb(255,0,0);stroke:rgb(2,0,0);stroke-width:2.44px;stroke-linecap:butt;stroke-linejoin:round;stroke-miterlimit:2;"/>
    </g>
    <g transform="matrix(2.09052,0,0,1.99928,-262.453,-439.688)">
        <path d="M301.444,234.605C303.204,225.425 289.183,225.052 281.528,225.052C271.409,225.052 265.128,234.48 260.133,242.144C271.933,237.845 286.268,237.265 298.494,240.132C297.826,238.782 297.654,236.19 297.017,234.605L301.444,234.605" style="fill:none;fill-rule:nonzero;stroke:rgb(2,0,0);stroke-width:2.44px;"/>
    </g>
    <g transform="matrix(2.09052,0,0,1.99928,-262.453,-439.688)">
        <path d="M296.282,234.101C295.024,232.207 293.664,230.812 291.854,229.578" style="fill:none;fill-rule:nonzero;stroke:rgb(2,0,0);stroke-width:2.44px;"/>
    </g>
    <g transform="matrix(2.09052,0,0,1.99928,-262.453,-439.688)">
        <path d="M391.442,235.107C390.732,241.701 395.347,244.67 401.767,241.39C409.435,237.473 397.397,231.049 391.442,235.107Z" style="fill:rgb(255,255,0);stroke:rgb(2,0,0);stroke-width:2.44px;stroke-linecap:butt;stroke-linejoin:round;stroke-miterlimit:2;"/>
    </g>
    <g transform="matrix(2.09052,0,0,1.99928,-262.453,-439.688)">
        <path d="M391.442,235.107C390.732,241.701 395.347,244.67 401.767,241.39C409.435,237.473 397.397,231.049 391.442,235.107" style="fill:none;fill-rule:nonzero;stroke:rgb(2,0,0);stroke-width:2.44px;"/>
    </g>
    <g transform="matrix(2.09052,0,0,1.99928,-262.453,-439.688)">
        <path d="M378.899,232.593C366.175,242.496 353.095,251.901 340.074,261.408C335.153,265.001 319.119,247.137 311.772,243.651C334.661,237.027 372.922,215.644 394.391,233.094C388.517,239.022 382.41,231.785 374.475,232.088C375.95,232.257 377.425,232.425 378.899,232.593Z" style="fill:rgb(255,128,0);stroke:rgb(2,0,0);stroke-width:2.44px;stroke-linecap:butt;stroke-linejoin:round;stroke-miterlimit:2;"/>
    </g>
    <g transform="matrix(2.09052,0,0,1.99928,-262.453,-439.688)">
        <path d="M378.899,232.593C366.175,242.496 353.095,251.901 340.074,261.408C335.153,265.001 319.119,247.137 311.772,243.651C334.661,237.027 372.922,215.644 394.391,233.094C388.517,239.022 382.41,231.785 374.475,232.088C375.95,232.257 377.425,232.425 378.899,232.593" style="fill:none;fill-rule:nonzero;stroke:rgb(2,0,0);stroke-width:2.44px;"/>
    </g>
    <g transform="matrix(2.09052,0,0,1.99928,-262.453,-439.688)">
        <path d="M429.802,427.14C457.587,390.442 485.372,353.744 513.157,317.046C502.601,315.272 478.529,357.385 471.657,366.463C456.475,386.521 441.293,406.579 426.11,426.636C427.341,426.804 428.571,426.972 429.802,427.14Z" style="fill:rgb(255,192,128);stroke:rgb(2,0,0);stroke-width:2.44px;stroke-linecap:butt;stroke-linejoin:round;stroke-miterlimit:2;"/>
    </g>
    <g transform="matrix(2.09052,0,0,1.99928,-262.453,-439.688)">
        <path d="M429.802,427.14C457.587,390.442 485.372,353.744 513.157,317.046C502.601,315.272 478.529,357.385 471.657,366.463C456.475,386.521 441.293,406.579 426.11,426.636C427.341,426.804 428.571,426.972 429.802,427.14" style="fill:none;fill-rule:nonzero;stroke:rgb(2,0,0);stroke-width:2.44px;"/>
    </g>
    <g transform="matrix(2.09052,0,0,1.99928,-262.453,-439.688)">
        <path d="M349.394,365.808C360.497,354.042 418.203,331.372 412.835,314.533C424.025,320.813 430.558,311.884 441.39,312.386C464.084,313.437 486.778,314.488 509.472,315.539C484.977,347.898 460.481,380.257 435.986,412.616C425.428,426.563 427.072,426.939 409.725,423.845C388.631,420.084 367.537,416.322 346.443,412.56C372.742,403.305 341.462,399.997 344.599,391.447C346.577,386.057 355.298,386.689 356.033,380.386C356.74,374.315 346.234,375.203 349.394,365.808Z" style="fill:rgb(0,128,255);stroke:rgb(2,0,0);stroke-width:2.44px;stroke-linecap:butt;stroke-linejoin:round;stroke-miterlimit:2;"/>
    </g>
    <g transform="matrix(2.09052,0,0,1.99928,-262.453,-439.688)">
        <path d="M349.394,365.808C360.497,354.042 418.203,331.372 412.835,314.533C424.025,320.813 430.558,311.884 441.39,312.386C464.084,313.437 486.778,314.488 509.472,315.539C484.977,347.898 460.481,380.257 435.986,412.616C425.428,426.563 427.072,426.939 409.725,423.845C388.631,420.084 367.537,416.322 346.443,412.56C372.742,403.305 341.462,399.997 344.599,391.447C346.577,386.057 355.298,386.689 356.033,380.386C356.74,374.315 346.234,375.203 349.394,365.808" style="fill:none;fill-rule:nonzero;stroke:rgb(2,0,0);stroke-width:2.44px;"/>
    </g>
    <g transform="matrix(2.09052,0,0,1.99928,-262.453,-439.688)">
        <path d="M350.868,325.089C354.542,324.366 354.458,320.375 359.722,324.083C358.247,323.078 356.771,322.073 355.296,321.067C368.618,306.797 377.106,310.38 396.605,311.014C386.699,315.396 357.739,334.921 350.868,325.089Z" style="fill:rgb(0,128,255);stroke:rgb(2,0,0);stroke-width:2.44px;stroke-linecap:butt;stroke-linejoin:round;stroke-miterlimit:2;"/>
    </g>
    <g transform="matrix(2.09052,0,0,1.99928,-262.453,-439.688)">
        <path d="M350.868,325.089C354.542,324.366 354.458,320.375 359.722,324.083C358.247,323.078 356.771,322.073 355.296,321.067C368.618,306.797 377.106,310.38 396.605,311.014C386.699,315.396 357.739,334.921 350.868,325.089" style="fill:none;fill-rule:nonzero;stroke:rgb(2,0,0);stroke-width:2.44px;"/>
    </g>
</svg>
