<?xml version="1.0" encoding="UTF-8" standalone="no"?>
<!DOCTYPE svg PUBLIC "-//W3C//DTD SVG 1.1//EN" "http://www.w3.org/Graphics/SVG/1.1/DTD/svg11.dtd">
<svg width="100%" height="100%" viewBox="0 0 240 124" version="1.1" xmlns="http://www.w3.org/2000/svg" xmlns:xlink="http://www.w3.org/1999/xlink" xml:space="preserve" xmlns:serif="http://www.serif.com/" style="fill-rule:evenodd;clip-rule:evenodd;stroke-linejoin:round;stroke-miterlimit:2;">
    <g id="layer1" transform="matrix(-1,0,0,1,240.001,-928.36)">
        <g id="g2980">
            <path id="rect6969" d="M164.45,978.94L170.652,978.94C171.981,978.94 173.051,980.01 173.051,981.339L173.051,1021.54C173.051,1022.87 171.981,1023.94 170.652,1023.94L164.45,1023.94C163.121,1023.94 162.051,1022.87 162.051,1021.54L162.051,981.339C162.051,980.01 163.121,978.94 164.45,978.94Z" style="fill:rgb(214,150,0);fill-rule:nonzero;"/>
            <path id="rect6969-1" d="M166.04,979.94L169.064,979.94C170.393,979.94 171.463,981.01 171.463,982.339L171.463,1020.54C171.463,1021.87 170.393,1022.94 169.064,1022.94L166.04,1022.94C164.711,1022.94 163.641,1021.87 163.641,1020.54L163.641,982.339C163.641,981.01 164.711,979.94 166.04,979.94Z" style="fill:rgb(255,213,67);fill-rule:nonzero;"/>
            <path id="rect6969-1-4-0" d="M166.05,979.94C164.721,979.94 163.644,981.017 163.644,982.346L163.644,1020.53C163.644,1021.61 164.354,1022.51 165.331,1022.82C164.957,1022.39 164.706,1021.83 164.706,1021.22L164.706,983.034C164.706,981.705 165.784,980.628 167.113,980.628L170.144,980.628C170.398,980.628 170.633,980.68 170.862,980.753C170.423,980.254 169.77,979.94 169.05,979.94L166.05,979.94L166.05,979.94Z" style="fill:rgb(255,231,145);fill-rule:nonzero;"/>
            <path id="rect6969-4" d="M209.04,978.94L215.242,978.94C216.571,978.94 217.641,980.01 217.641,981.339L217.641,1021.54C217.641,1022.87 216.571,1023.94 215.242,1023.94L209.04,1023.94C207.711,1023.94 206.641,1022.87 206.641,1021.54L206.641,981.339C206.641,980.01 207.711,978.94 209.04,978.94Z" style="fill:rgb(214,150,0);fill-rule:nonzero;"/>
            <path id="rect6969-1-9" d="M210.63,979.94L213.654,979.94C214.983,979.94 216.053,981.01 216.053,982.339L216.053,1020.54C216.053,1021.87 214.983,1022.94 213.654,1022.94L210.63,1022.94C209.301,1022.94 208.231,1021.87 208.231,1020.54L208.231,982.339C208.231,981.01 209.301,979.94 210.63,979.94Z" style="fill:rgb(255,213,67);fill-rule:nonzero;"/>
            <path id="rect6969-1-4-0-7" d="M210.63,979.94C209.301,979.94 208.224,981.017 208.224,982.346L208.224,1020.53C208.224,1021.61 208.934,1022.51 209.911,1022.82C209.537,1022.39 209.286,1021.83 209.286,1021.22L209.286,983.034C209.286,981.705 210.363,980.628 211.693,980.628L214.724,980.628C214.978,980.628 215.213,980.68 215.442,980.753C215.003,980.254 214.35,979.94 213.63,979.94L210.63,979.94L210.63,979.94Z" style="fill:rgb(255,231,145);fill-rule:nonzero;"/>
            <path id="rect6562-63" d="M146.45,1008.9L232.652,1008.9C233.981,1008.9 235.051,1009.97 235.051,1011.3L235.051,1016.5C235.051,1017.83 233.981,1018.9 232.652,1018.9L146.45,1018.9C145.121,1018.9 144.051,1017.83 144.051,1016.5L144.051,1011.3C144.051,1009.97 145.121,1008.9 146.45,1008.9Z" style="fill:rgb(92,53,102);fill-rule:nonzero;"/>
            <path id="path7072" d="M146.47,1010C145.721,1010 145.158,1010.55 145.158,1011.28L145.158,1016.5C145.158,1017.23 145.738,1017.81 146.47,1017.81L232.658,1017.81C233.39,1017.81 233.971,1017.23 233.971,1016.5L233.971,1011.28C233.971,1010.55 233.407,1010 232.658,1010L146.47,1010Z" style="fill:rgb(117,80,123);fill-rule:nonzero;"/>
            <path id="rect6562-63-2" d="M146.45,998.94L232.652,998.94C233.981,998.94 235.051,1000.01 235.051,1001.34L235.051,1006.54C235.051,1007.87 233.981,1008.94 232.652,1008.94L146.45,1008.94C145.121,1008.94 144.051,1007.87 144.051,1006.54L144.051,1001.34C144.051,1000.01 145.121,998.94 146.45,998.94Z" style="fill:rgb(206,92,0);fill-rule:nonzero;"/>
            <path id="path7072-9" d="M146.38,999.94C145.63,999.94 145.065,1000.5 145.065,1001.25L145.065,1006.6C145.065,1007.34 145.647,1007.94 146.38,1007.94L232.712,1007.94C233.445,1007.94 234.027,1007.34 234.027,1006.6L234.027,1001.25C234.027,1000.5 233.462,999.94 232.712,999.94L146.38,999.94Z" style="fill:rgb(245,121,0);fill-rule:nonzero;"/>
            <path id="rect6562-63-5" d="M146.45,988.94L232.673,988.94C234.002,988.94 235.072,990.01 235.072,991.339L235.072,996.541C235.072,997.87 234.002,998.94 232.673,998.94L146.45,998.94C145.121,998.94 144.051,997.87 144.051,996.541L144.051,991.339C144.051,990.01 145.121,988.94 146.45,988.94Z" style="fill:rgb(78,154,6);fill-rule:nonzero;"/>
            <path id="path7072-98" d="M146.39,989.94C145.64,989.94 145.075,990.5 145.075,991.246L145.075,996.564C145.075,997.309 145.657,997.901 146.39,997.901L232.758,997.901C233.491,997.901 234.073,997.309 234.073,996.564L234.073,991.246C234.073,990.5 233.508,989.94 232.758,989.94L146.39,989.94Z" style="fill:rgb(115,210,22);fill-rule:nonzero;"/>
            <path id="rect3649-4" d="M129.05,1026.9L234.05,1026.9C236.05,1026.9 236.05,1031.9 234.05,1031.9L129.05,1031.9L129.05,1026.9Z" style="fill:rgb(90,81,72);fill-rule:nonzero;"/>
            <path id="rect4566" d="M8.05,946.94L29.05,946.94L28.05,981.94L18.05,986.94L8.05,946.94Z" style="fill:rgb(214,150,0);fill-rule:nonzero;"/>
            <path id="path4619" d="M10.3,948.7L19.238,984.388L26.331,980.857L27.238,948.701L10.3,948.701L10.3,948.7Z" style="fill:rgb(255,213,67);fill-rule:nonzero;"/>
            <rect id="rect3649" x="18.05" y="1026.9" width="105" height="5" style="fill:rgb(90,81,72);fill-rule:nonzero;"/>
            <path id="rect3536" d="M18.05,1026.9L28.05,1026.9L25.05,1048.9L0.05,1048.9L18.05,1026.9Z" style="fill:rgb(90,81,72);fill-rule:nonzero;"/>
            <path id="rect3536-2-2-1-6-8" d="M27.05,1026.9L24.05,1045.9L17.05,1047.9L24.05,1026.9L27.05,1026.9Z" style="fill:rgb(141,124,106);fill-rule:nonzero;"/>
            <g id="g3532" transform="matrix(0.86872,0,0,1.6709,16.542,-449.69)">
                <g id="path3167-4-2" transform="matrix(0.3797,0,0,0.23939,-30.376,838)">
                    <path d="M80,131C80,144.807 68.807,156 55,156C41.193,156 30,144.807 30,131C30,117.193 41.193,106 55,106C68.807,106 80,117.193 80,131Z" style="fill:rgb(214,150,0);fill-rule:nonzero;"/>
                </g>
                <g id="path3260-7" transform="matrix(0.3797,0,0,0.23939,-30.376,838)">
                    <path d="M55,109.84C43.27,109.84 33.844,119.267 33.844,130.996C33.844,142.726 43.271,152.152 55,152.152C66.73,152.152 76.156,142.725 76.156,130.996C76.156,119.266 66.729,109.84 55,109.84Z" style="fill:rgb(255,213,67);fill-rule:nonzero;"/>
                </g>
            </g>
            <path id="path3260-1-4-6" d="M2.144,1003.8C1.337,999.779 3.921,995.896 7.943,995.088C8.37,995.003 8.801,994.97 9.222,994.959C4.914,996.018 2.181,1000.26 3.063,1004.65C3.305,1005.85 3.803,1006.92 4.471,1007.86C3.324,1006.83 2.473,1005.44 2.144,1003.8L2.144,1003.8Z" style="fill:rgb(255,231,145);fill-rule:nonzero;"/>
            <path id="rect3112" d="M53.05,941.94C53.05,941.94 99.329,927.389 113.05,941.94C118.05,971.94 118.05,981.94 113.05,1026.94L63.05,1026.94L53.05,941.94Z" style="fill:rgb(164,0,0);fill-rule:nonzero;"/>
            <path id="rect4811" d="M13.408,953.34L16.317,953.063L20.058,981.743L19.227,982.505L13.408,953.341L13.408,953.34Z" style="fill:rgb(255,231,145);fill-rule:nonzero;"/>
            <path id="rect3118" d="M13.05,986.94C14.995,984.727 17.435,982.894 20.227,981.382C22.785,979.996 25.639,978.88 28.681,977.989C31.518,977.158 34.517,976.522 37.592,976.045C40.572,975.583 43.622,975.27 46.663,975.073C49.741,974.874 52.808,974.794 55.783,974.799C58.963,974.804 62.037,974.906 64.903,975.063C68.279,975.248 71.367,975.509 74,975.778C79.524,976.342 83.05,976.94 83.05,976.94L83.05,1026.94L18.051,1026.94C18.051,1026.94 15.7,1024.06 13.237,1019.63C11.958,1017.33 10.65,1014.61 9.624,1011.66C8.687,1008.96 7.986,1006.07 7.76,1003.12C7.539,1000.24 7.772,997.308 8.683,994.458C9.515,991.851 10.915,989.311 13.051,986.94" style="fill:rgb(164,0,0);fill-rule:nonzero;"/>
            <path id="path3382" d="M90.7,938.64C87.73,938.673 84.709,938.881 81.748,939.2C78.684,939.531 75.683,939.982 72.869,940.483C69.635,941.06 66.646,941.702 64.087,942.307C59.262,943.447 55.961,944.451 55.421,944.616L56.324,952.237L57.227,959.858L58.131,967.479L59.034,975.101C59.097,975.702 58.548,976.292 57.941,976.278C55.272,976.222 52.329,976.265 49.311,976.414C46.456,976.555 43.532,976.79 40.71,977.125C37.69,977.483 34.786,977.955 32.202,978.547C30.038,979.11 27.839,979.866 25.736,980.762C23.567,981.685 21.5,982.757 19.677,983.917C17.525,985.286 15.712,986.778 14.472,988.296C12.856,990.189 11.701,991.892 10.904,993.576C9.963,995.562 9.519,997.522 9.402,999.735C9.293,1001.78 9.493,1003.87 9.907,1005.93C10.318,1007.98 10.94,1009.99 11.679,1011.9C12.672,1014.47 13.839,1016.8 14.953,1018.77C16.999,1022.38 18.865,1024.76 19.147,1025.12C19.147,1025.12 22.842,1025.1 28.108,1025.06C30.783,1025.05 33.863,1025.03 37.07,1025.01C40.021,1024.99 43.08,1024.97 46.031,1024.95C49.238,1024.93 52.317,1024.91 54.991,1024.9C60.258,1024.87 63.953,1024.84 63.953,1024.84L111.559,1024.84C111.909,1021.69 112.234,1018.72 112.532,1015.91C112.869,1012.74 113.172,1009.77 113.442,1006.98C113.75,1003.78 114.015,1000.82 114.236,998.028C114.491,994.827 114.688,991.861 114.827,989.064C114.986,985.888 115.071,982.928 115.082,980.085C115.094,976.996 115.019,974.046 114.857,971.106C114.694,968.155 114.443,965.215 114.105,962.156C113.791,959.323 113.402,956.388 112.937,953.249C112.526,950.475 112.057,947.541 111.528,944.377C109.91,942.742 107.77,941.507 105.262,940.61C103.105,939.839 100.677,939.318 98.072,939.006C95.733,938.725 93.253,938.614 90.701,938.642L90.701,938.642" style="fill:rgb(239,41,42);fill-rule:nonzero;"/>
            <path id="path3419" d="M86.55,945.6C75.435,946.099 64.112,950.006 64.112,950.006C63.626,950.184 63.325,950.68 63.393,951.194L66.362,978.163C66.413,978.64 66.767,979.033 67.237,979.131C67.707,979.23 75.144,980.637 83.862,982.163C88.221,982.925 92.786,983.714 96.674,984.288C100.562,984.861 103.726,985.225 105.518,985.225C106.115,985.217 106.603,984.728 106.612,984.131C106.612,979.234 107.322,972.187 107.393,965.725C107.429,962.494 107.324,959.422 106.862,956.757C106.4,954.091 105.603,951.81 104.08,950.288C99.948,946.155 93.216,945.301 86.549,945.6L86.55,945.6Z" style="fill:rgb(164,0,0);fill-rule:nonzero;"/>
            <path id="path3165" d="M76.712,930.04C62.275,932.95 48.509,940.263 40.764,950.884C39.728,952.304 39.685,953.823 39.796,955.316C39.852,956.063 39.934,956.769 40.415,957.538C40.656,957.923 41.057,958.384 41.68,958.611C42.304,958.838 43.054,958.746 43.557,958.507C72.063,944.954 76.329,944.477 116.622,944.57C117.181,944.571 117.833,944.366 118.282,943.988C118.731,943.611 118.966,943.143 119.103,942.723C119.376,941.882 119.32,941.12 119.193,940.382C118.94,938.906 118.506,937.47 117.071,936.423C106.383,928.63 91.15,927.13 76.712,930.04L76.712,930.04Z" style="fill:rgb(164,0,0);fill-rule:nonzero;"/>
            <path id="path3167" d="M113.05,1026.9C113.05,1040.71 101.857,1051.9 88.05,1051.9C74.243,1051.9 63.05,1040.71 63.05,1026.9C63.05,1013.09 74.243,1001.9 88.05,1001.9C101.857,1001.9 113.05,1013.09 113.05,1026.9Z" style="fill:rgb(214,150,0);fill-rule:nonzero;"/>
            <path id="path3167-4" d="M60.55,1034.4C60.55,1044.07 52.715,1051.9 43.05,1051.9C33.385,1051.9 25.55,1044.07 25.55,1034.4C25.55,1024.74 33.385,1016.9 43.05,1016.9C52.715,1016.9 60.55,1024.74 60.55,1034.4Z" style="fill:rgb(214,150,0);fill-rule:nonzero;"/>
            <path id="path3236" d="M88.05,1005.6C76.224,1005.6 66.706,1015.12 66.706,1026.94C66.706,1038.77 76.224,1048.29 88.05,1048.29C99.876,1048.29 109.394,1038.77 109.394,1026.94C109.394,1015.12 99.876,1005.6 88.05,1005.6Z" style="fill:rgb(255,213,67);fill-rule:nonzero;"/>
            <path id="path3260" d="M43.05,1019.6C34.839,1019.6 28.241,1026.2 28.241,1034.41C28.241,1042.62 34.84,1049.22 43.05,1049.22C51.261,1049.22 57.859,1042.62 57.859,1034.41C57.859,1026.2 51.26,1019.6 43.05,1019.6Z" style="fill:rgb(255,213,67);fill-rule:nonzero;"/>
            <path id="path3423" d="M86.675,947.23C76.376,947.692 65.97,951.156 65.019,951.48L67.925,977.73C68.243,977.791 75.653,979.208 84.175,980.699C88.526,981.46 93.06,982.222 96.925,982.793C100.544,983.327 103.472,983.655 105.113,983.699C105.15,978.694 105.795,971.964 105.863,965.793C105.898,962.616 105.766,959.609 105.331,957.105C104.897,954.602 104.157,952.618 103.019,951.48C99.426,947.887 93.149,946.94 86.675,947.23L86.675,947.23Z" style="fill:rgb(115,159,208);fill-rule:nonzero;"/>
            <path id="path3236-8" d="M88.05,1009.4C78.296,1009.4 70.55,1017.14 70.55,1026.9C70.55,1036.65 78.296,1044.4 88.05,1044.4C97.804,1044.4 105.55,1036.65 105.55,1026.9C105.55,1017.14 97.804,1009.4 88.05,1009.4Z" style="fill:rgb(141,124,106);fill-rule:nonzero;"/>
            <path id="path3260-1-3-8-1" d="M89.124,1011.7C96.82,1011.7 103.007,1017.89 103.007,1025.58C103.007,1026.4 102.907,1027.21 102.773,1027.99C102.416,1019.67 95.627,1013.08 87.22,1013.08C84.921,1013.08 82.765,1013.6 80.805,1014.48C83.121,1012.75 85.994,1011.7 89.123,1011.7L89.124,1011.7Z" style="fill:rgb(168,146,122);fill-rule:nonzero;"/>
            <path id="path3260-2" d="M43.05,1028.1C39.437,1028.1 36.75,1030.79 36.75,1034.4C36.75,1038.01 39.437,1040.7 43.05,1040.7C46.663,1040.7 49.35,1038.01 49.35,1034.4C49.35,1030.79 46.663,1028.1 43.05,1028.1Z" style="fill:rgb(141,124,106);fill-rule:nonzero;"/>
            <path id="path3260-1-4-2" d="M43.606,1043.3C47.708,1043.3 51.006,1040 51.006,1035.9C51.006,1035.46 50.952,1035.04 50.881,1034.62C50.691,1039.05 47.072,1042.57 42.591,1042.57C41.366,1042.57 40.217,1042.29 39.173,1041.82C40.407,1042.74 41.938,1043.3 43.606,1043.3L43.606,1043.3Z" style="fill:rgb(255,231,145);fill-rule:nonzero;"/>
            <path id="rect3354" d="M45.133,1035.4L83.411,1015.01L84.904,1017.35L46.626,1037.75L45.133,1035.4L45.133,1035.4Z" style="fill:rgb(49,44,41);fill-rule:nonzero;"/>
            <path id="path3260-1-3-8-3-9" d="M88.616,1017.3C93.731,1017.3 97.843,1021.41 97.843,1026.53C97.843,1027.07 97.777,1027.61 97.688,1028.12C97.451,1022.6 92.939,1018.22 87.351,1018.22C85.823,1018.22 84.39,1018.56 83.087,1019.15C84.626,1018 86.536,1017.3 88.616,1017.3L88.616,1017.3Z" style="fill:rgb(168,146,122);fill-rule:nonzero;"/>
            <path id="path3330" d="M90.956,1012.9C92.328,1015.55 89.805,1019.58 85.32,1021.9C80.835,1024.22 76.087,1023.96 74.715,1021.31C73.343,1018.66 75.866,1014.63 80.351,1012.31C84.836,1009.98 89.584,1010.25 90.956,1012.9Z" style="fill:rgb(90,81,72);fill-rule:nonzero;"/>
            <path id="path3330-4" d="M47.089,1035.9C47.661,1036.96 46.674,1038.6 44.885,1039.57C43.095,1040.54 41.18,1040.46 40.608,1039.41C40.035,1038.35 41.022,1036.71 42.812,1035.74C44.602,1034.77 46.517,1034.84 47.089,1035.9Z" style="fill:rgb(90,81,72);fill-rule:nonzero;"/>
            <path id="rect3115" d="M42.183,951.93C56.946,931.685 95.772,923.073 116.016,937.836C117.363,938.818 118.291,942.803 116.625,942.799C76.314,942.706 71.351,943.315 42.792,956.893C41.287,957.608 41.201,953.277 42.183,951.93L42.183,951.93Z" style="fill:rgb(239,41,42);fill-rule:nonzero;"/>
            <path id="rect3536-2" d="M20.05,1026.9L22.05,1026.9L8.05,1046.9L2.05,1047.9L20.05,1026.9Z" style="fill:rgb(141,124,106);fill-rule:nonzero;"/>
            <path id="rect3536-2-2-1-6" d="M22.05,1026.9L24.05,1026.91L16.05,1045.9L10.05,1047.9L22.05,1026.9L22.05,1026.9Z" style="fill:rgb(141,124,106);fill-rule:nonzero;"/>
            <path id="rect3651" d="M123.05,1024.9L131.05,1024.9C132.712,1024.9 134.05,1026.24 134.05,1027.9L134.05,1030.9C134.05,1032.56 132.712,1033.9 131.05,1033.9L123.05,1033.9C121.388,1033.9 120.05,1032.56 120.05,1030.9L120.05,1027.9C120.05,1026.24 121.388,1024.9 123.05,1024.9Z" style="fill:rgb(141,124,106);fill-rule:nonzero;"/>
            <path id="rect3699" d="M78.144,948.22C75.669,948.651 73.39,949.164 71.425,949.658L74.425,978.939C75.716,979.176 77.382,979.472 78.925,979.751L78.144,948.22L78.144,948.22Z" style="fill:rgb(151,184,220);fill-rule:nonzero;"/>
            <path id="rect3699-1" d="M80.362,947.84C79.94,947.901 79.526,947.961 79.112,948.028L79.956,979.934C80.264,979.989 80.516,980.033 80.831,980.09L80.362,947.84L80.362,947.84Z" style="fill:rgb(151,184,220);fill-rule:nonzero;"/>
            <path id="rect4571" d="M6.571,944.57L29.655,942.23C30.977,942.095 32.149,943.052 32.283,944.374L32.808,949.55C32.942,950.872 31.986,952.044 30.663,952.179L7.579,954.519C6.257,954.653 5.085,953.697 4.951,952.374L4.426,947.199C4.292,945.877 5.248,944.704 6.571,944.57Z" style="fill:rgb(214,150,0);fill-rule:nonzero;"/>
            <path id="path4595" d="M6.726,946.04C6.167,946.097 5.83,946.501 5.884,947.036L6.411,952.228C6.465,952.764 6.903,953.121 7.438,953.066L30.507,950.727C31.043,950.673 31.4,950.236 31.345,949.7L30.819,944.508C30.765,943.972 30.353,943.644 29.795,943.701L6.726,946.04L6.726,946.04Z" style="fill:rgb(255,231,145);fill-rule:nonzero;"/>
            <path id="path4621" d="M46.445,983.45C47.482,986.804 41.824,991.533 33.806,994.012C25.788,996.491 18.448,995.782 17.411,992.428C16.374,989.074 22.033,984.345 30.05,981.866C38.068,979.387 45.408,980.096 46.445,983.45Z" style="fill:rgb(244,110,111);fill-rule:nonzero;"/>
            <path id="path4621-9" d="M62.16,939.77C61.067,938.374 65.956,935.751 73.081,933.912C80.206,932.073 86.868,931.714 87.962,933.11C89.056,934.505 84.166,937.128 77.041,938.967C69.916,940.807 63.254,941.166 62.16,939.77Z" style="fill:rgb(244,110,111);fill-rule:nonzero;"/>
            <path id="path3236-8-4" d="M88.05,1023.7C85.997,1023.7 84.8,1024.9 84.8,1026.95C84.8,1029 85.997,1030.2 88.05,1030.2C90.103,1030.2 91.3,1029 91.3,1026.95C91.3,1024.9 90.103,1023.7 88.05,1023.7Z" style="fill:rgb(49,44,41);fill-rule:nonzero;"/>
            <path id="path3260-2-1" d="M43.05,1033.4C42.471,1033.4 42.04,1033.83 42.04,1034.41C42.04,1034.99 42.471,1035.42 43.05,1035.42C43.629,1035.42 44.06,1034.99 44.06,1034.41C44.06,1033.83 43.629,1033.4 43.05,1033.4Z" style="fill:rgb(49,44,41);fill-rule:nonzero;"/>
            <path id="rect4735" d="M25.053,951.26L29.178,950.854L28.459,943.823L24.334,944.229L25.053,951.26Z" style="fill:rgb(255,213,67);fill-rule:nonzero;"/>
            <path id="rect4735-2" d="M23.459,951.42L24.428,951.326L23.803,944.295L22.834,944.389L23.459,951.42Z" style="fill:rgb(255,213,67);fill-rule:nonzero;"/>
            <path id="path3260-1" d="M41.219,1022.6C35.691,1022.6 31.246,1027.05 31.246,1032.57C31.246,1033.16 31.318,1033.74 31.415,1034.3C31.67,1028.32 36.547,1023.59 42.587,1023.59C44.238,1023.59 45.787,1023.96 47.194,1024.6C45.531,1023.36 43.467,1022.6 41.219,1022.6L41.219,1022.6Z" style="fill:rgb(255,231,145);fill-rule:nonzero;"/>
            <path id="path3260-1-3" d="M43.678,1046.8C49.206,1046.8 53.651,1042.36 53.651,1036.83C53.651,1036.24 53.579,1035.66 53.482,1035.1C53.227,1041.08 48.35,1045.81 42.31,1045.81C40.659,1045.81 39.11,1045.44 37.703,1044.8C39.366,1046.05 41.43,1046.8 43.678,1046.8L43.678,1046.8Z" style="fill:rgb(255,231,145);fill-rule:nonzero;"/>
            <path id="path3260-1-3-8" d="M87.778,1041.8C80.082,1041.8 73.895,1035.61 73.895,1027.92C73.895,1027.1 73.995,1026.29 74.129,1025.52C74.486,1033.83 81.275,1040.42 89.682,1040.42C91.981,1040.42 94.137,1039.9 96.097,1039.02C93.781,1040.75 90.908,1041.8 87.779,1041.8L87.778,1041.8Z" style="fill:rgb(168,146,122);fill-rule:nonzero;"/>
            <path id="path3260-1-4" d="M42.066,1025.7C37.964,1025.7 34.666,1029 34.666,1033.1C34.666,1033.54 34.72,1033.96 34.791,1034.38C34.981,1029.95 38.6,1026.43 43.081,1026.43C44.306,1026.43 45.455,1026.71 46.499,1027.18C45.265,1026.26 43.734,1025.7 42.066,1025.7L42.066,1025.7Z" style="fill:rgb(255,231,145);fill-rule:nonzero;"/>
            <path id="path3260-1-3-8-3" d="M88.305,1036.6C83.19,1036.6 79.078,1032.49 79.078,1027.37C79.078,1026.83 79.144,1026.29 79.233,1025.78C79.47,1031.3 83.982,1035.68 89.57,1035.68C91.098,1035.68 92.531,1035.34 93.834,1034.75C92.295,1035.9 90.385,1036.6 88.305,1036.6L88.305,1036.6Z" style="fill:rgb(168,146,122);fill-rule:nonzero;"/>
            <path id="path5092" d="M58.288,980.26C60.234,985.421 61.477,991.522 61.775,998.099C62.094,1005.15 61.266,1011.76 59.57,1017.32C62.544,1012.99 64.279,1006.04 63.927,998.264C63.591,990.843 61.4,984.356 58.288,980.261L58.288,980.26Z" style="fill:rgb(204,0,1);fill-rule:nonzero;"/>
            <path id="rect6562" d="M141.45,1018.9L236.652,1018.9C241.051,1018.9 241.051,1026.9 236.652,1026.9L141.45,1026.9C137.051,1026.9 137.051,1018.9 141.45,1018.9Z" style="fill:rgb(164,0,0);fill-rule:nonzero;"/>
            <path id="path7329" d="M141.05,1019.9C138.05,1019.9 138.05,1025.9 141.05,1025.9L237.05,1025.9C240.05,1025.9 240.05,1019.9 237.05,1019.9L141.05,1019.9Z" style="fill:rgb(239,41,42);fill-rule:nonzero;"/>
            <path id="path3167-4-0" d="M184.92,1034.6C184.92,1044.27 177.085,1052.1 167.42,1052.1C157.755,1052.1 149.92,1044.27 149.92,1034.6C149.92,1024.93 157.755,1017.1 167.42,1017.1C177.085,1017.1 184.92,1024.93 184.92,1034.6Z" style="fill:rgb(214,150,0);fill-rule:nonzero;"/>
            <path id="path3260-28" d="M167.42,1019.8C159.209,1019.8 152.611,1026.4 152.611,1034.61C152.611,1042.82 159.21,1049.42 167.42,1049.42C175.631,1049.42 182.229,1042.82 182.229,1034.61C182.229,1026.4 175.63,1019.8 167.42,1019.8Z" style="fill:rgb(255,213,67);fill-rule:nonzero;"/>
            <path id="path3260-2-6" d="M167.42,1028.3C163.807,1028.3 161.12,1030.99 161.12,1034.6C161.12,1038.21 163.807,1040.9 167.42,1040.9C171.033,1040.9 173.72,1038.21 173.72,1034.6C173.72,1030.99 171.033,1028.3 167.42,1028.3Z" style="fill:rgb(141,124,106);fill-rule:nonzero;"/>
            <path id="path3260-1-4-2-0" d="M167.98,1043.5C172.082,1043.5 175.38,1040.2 175.38,1036.1C175.38,1035.66 175.326,1035.24 175.255,1034.82C175.065,1039.25 171.446,1042.77 166.965,1042.77C165.74,1042.77 164.591,1042.49 163.547,1042.02C164.781,1042.94 166.312,1043.5 167.98,1043.5L167.98,1043.5Z" style="fill:rgb(255,231,145);fill-rule:nonzero;"/>
            <path id="path3260-2-1-8" d="M167.42,1033.5C166.841,1033.5 166.41,1033.93 166.41,1034.51C166.41,1035.09 166.841,1035.52 167.42,1035.52C167.999,1035.52 168.43,1035.09 168.43,1034.51C168.43,1033.93 167.999,1033.5 167.42,1033.5Z" style="fill:rgb(49,44,41);fill-rule:nonzero;"/>
            <path id="path3260-1-6" d="M165.59,1022.7C160.062,1022.7 155.617,1027.14 155.617,1032.67C155.617,1033.26 155.689,1033.84 155.786,1034.4C156.041,1028.42 160.918,1023.69 166.958,1023.69C168.609,1023.69 170.158,1024.06 171.565,1024.7C169.902,1023.46 167.838,1022.7 165.59,1022.7L165.59,1022.7Z" style="fill:rgb(255,231,145);fill-rule:nonzero;"/>
            <path id="path3260-1-3-5" d="M168.05,1046.9C173.578,1046.9 178.023,1042.45 178.023,1036.93C178.023,1036.34 177.951,1035.76 177.854,1035.2C177.599,1041.18 172.722,1045.91 166.682,1045.91C165.031,1045.91 163.482,1045.54 162.075,1044.9C163.738,1046.14 165.802,1046.9 168.05,1046.9L168.05,1046.9Z" style="fill:rgb(255,231,145);fill-rule:nonzero;"/>
            <path id="path3260-1-4-0" d="M166.44,1025.8C162.338,1025.8 159.04,1029.1 159.04,1033.2C159.04,1033.64 159.094,1034.07 159.165,1034.48C159.355,1030.05 162.974,1026.53 167.455,1026.53C168.68,1026.53 169.829,1026.81 170.873,1027.28C169.639,1026.36 168.108,1025.8 166.44,1025.8L166.44,1025.8Z" style="fill:rgb(255,231,145);fill-rule:nonzero;"/>
            <path id="path3167-4-0-0" d="M229.92,1034.6C229.92,1044.27 222.085,1052.1 212.42,1052.1C202.755,1052.1 194.92,1044.27 194.92,1034.6C194.92,1024.93 202.755,1017.1 212.42,1017.1C222.085,1017.1 229.92,1024.93 229.92,1034.6Z" style="fill:rgb(214,150,0);fill-rule:nonzero;"/>
            <path id="path3260-28-0" d="M212.42,1019.8C204.209,1019.8 197.611,1026.4 197.611,1034.61C197.611,1042.82 204.21,1049.42 212.42,1049.42C220.631,1049.42 227.229,1042.82 227.229,1034.61C227.229,1026.4 220.63,1019.8 212.42,1019.8Z" style="fill:rgb(255,213,67);fill-rule:nonzero;"/>
            <path id="path3260-2-6-6" d="M212.42,1028.3C208.807,1028.3 206.12,1030.99 206.12,1034.6C206.12,1038.21 208.807,1040.9 212.42,1040.9C216.033,1040.9 218.72,1038.21 218.72,1034.6C218.72,1030.99 216.033,1028.3 212.42,1028.3Z" style="fill:rgb(141,124,106);fill-rule:nonzero;"/>
            <path id="path3260-1-4-2-0-1" d="M212.98,1043.5C217.082,1043.5 220.38,1040.2 220.38,1036.1C220.38,1035.66 220.326,1035.24 220.255,1034.82C220.065,1039.25 216.446,1042.77 211.965,1042.77C210.74,1042.77 209.591,1042.49 208.547,1042.02C209.781,1042.94 211.312,1043.5 212.98,1043.5L212.98,1043.5Z" style="fill:rgb(255,231,145);fill-rule:nonzero;"/>
            <path id="path3260-2-1-8-3" d="M212.42,1033.5C211.841,1033.5 211.41,1033.93 211.41,1034.51C211.41,1035.09 211.841,1035.52 212.42,1035.52C212.999,1035.52 213.43,1035.09 213.43,1034.51C213.43,1033.93 212.999,1033.5 212.42,1033.5Z" style="fill:rgb(49,44,41);fill-rule:nonzero;"/>
            <path id="path3260-1-6-8" d="M210.59,1022.7C205.062,1022.7 200.617,1027.14 200.617,1032.67C200.617,1033.26 200.689,1033.84 200.786,1034.4C201.041,1028.42 205.918,1023.69 211.958,1023.69C213.609,1023.69 215.158,1024.06 216.565,1024.7C214.902,1023.46 212.838,1022.7 210.59,1022.7L210.59,1022.7Z" style="fill:rgb(255,231,145);fill-rule:nonzero;"/>
            <path id="path3260-1-3-5-9" d="M213.05,1046.9C218.578,1046.9 223.023,1042.45 223.023,1036.93C223.023,1036.34 222.951,1035.76 222.854,1035.2C222.599,1041.18 217.722,1045.91 211.682,1045.91C210.031,1045.91 208.482,1045.54 207.075,1044.9C208.738,1046.14 210.802,1046.9 213.05,1046.9L213.05,1046.9Z" style="fill:rgb(255,231,145);fill-rule:nonzero;"/>
            <path id="path3260-1-4-0-3" d="M211.44,1025.8C207.338,1025.8 204.04,1029.1 204.04,1033.2C204.04,1033.64 204.094,1034.07 204.165,1034.48C204.355,1030.05 207.974,1026.53 212.455,1026.53C213.68,1026.53 214.829,1026.81 215.873,1027.28C214.639,1026.36 213.108,1025.8 211.44,1025.8L211.44,1025.8Z" style="fill:rgb(255,231,145);fill-rule:nonzero;"/>
        </g>
    </g>
</svg>
