<?xml version="1.0" encoding="UTF-8" standalone="no"?>
<!DOCTYPE svg PUBLIC "-//W3C//DTD SVG 1.1//EN" "http://www.w3.org/Graphics/SVG/1.1/DTD/svg11.dtd">
<svg width="100%" height="100%" viewBox="0 0 500 842" version="1.1" xmlns="http://www.w3.org/2000/svg" xmlns:xlink="http://www.w3.org/1999/xlink" xml:space="preserve" xmlns:serif="http://www.serif.com/" style="fill-rule:evenodd;clip-rule:evenodd;stroke-linecap:square;stroke-miterlimit:10;">
    <g transform="matrix(3.12552,0,0,2.3496,-1044.13,-578.989)">
        <path d="M439.25,487.171C441.969,481.169 448.542,475.814 452.75,470.671C471.235,483.57 459.187,510.951 436.25,508.921C437.202,502.017 436.82,493.659 439.25,487.171Z" style="fill:rgb(236,0,140);stroke:black;stroke-width:2px;"/>
    </g>
    <g transform="matrix(3.12552,0,0,2.3496,-1044.13,-578.989)">
        <path d="M381.5,257.669C390.887,240.172 406.715,257.367 420.25,264.586C428.943,269.223 455.503,252.467 464.75,248.669C475.774,265.425 457.936,268.533 445.25,275.669C452.43,277.561 458.421,283.885 465.5,286.169C452.387,316.896 442.021,284.273 423.5,284.669C405.585,285.051 392.235,319.844 378.5,291.419C387.75,285.169 397,278.919 406.25,272.669C398,267.669 389.75,262.669 381.5,257.669Z" style="fill:rgb(138,92,49);stroke:black;stroke-width:2px;"/>
    </g>
    <g transform="matrix(3.12552,0,0,2.3496,-1044.13,-578.989)">
        <path d="M437,492.421C435.823,533.476 378.025,533.543 377.75,492.421C377.471,450.609 436.479,450.499 437,492.421Z" style="fill:rgb(234,182,73);stroke:black;stroke-width:2px;"/>
    </g>
    <g transform="matrix(3.12552,0,0,2.3496,-1044.13,-578.989)">
        <path d="M392,522.421C421.082,535.375 428.043,502.909 457.25,512.671C436.953,528.786 462.035,545.305 445.25,555.796C435.76,561.728 426.655,565.921 415.25,565.921C383.574,565.921 371.502,548.428 392,522.421Z" style="fill:rgb(236,0,140);stroke:black;stroke-width:2px;"/>
    </g>
    <g transform="matrix(3.12552,0,0,2.3496,-1044.13,-578.989)">
        <path d="M443,505.171C450.749,487.668 478.594,485.983 467.75,508.921L475.25,508.921C464.608,517.413 447.586,513.121 443,505.171Z" style="fill:rgb(234,182,73);stroke:black;stroke-width:2px;"/>
    </g>
    <g transform="matrix(3.12552,0,0,2.3496,-1044.13,-578.989)">
        <path d="M380.75,556.921C354.364,565.178 367.93,576.815 378.5,592.921C402.456,576.95 409.433,563.152 434.75,577.921C467.336,596.929 476.715,554.467 454.25,549.421C449.705,548.4 427.021,564.449 418.25,565.546C405.113,567.189 391.989,563.856 380.75,556.921Z" style="fill:rgb(0,174,239);stroke:black;stroke-width:2px;"/>
    </g>
    <g transform="matrix(3.12552,0,0,2.3496,-1044.13,-578.989)">
        <path d="M337.25,527.671" style="fill:none;fill-rule:nonzero;stroke:black;stroke-width:2px;"/>
    </g>
    <g transform="matrix(3.12552,0,0,2.3496,-1044.13,-578.989)">
        <path d="M360.5,569.671C331.721,553.502 354.916,600.83 377,595.171C371.5,586.671 366,578.171 360.5,569.671Z" style="fill:rgb(109,111,113);stroke:black;stroke-width:2px;"/>
    </g>
    <g transform="matrix(3.12552,0,0,2.3496,-1044.13,-578.989)">
        <path d="M454.25,587.671C461.764,576.686 470.219,562.915 483.5,563.671C480.562,578.155 470.259,591.774 454.25,587.671Z" style="fill:rgb(109,111,113);stroke:black;stroke-width:2px;"/>
    </g>
    <g transform="matrix(3.12552,0,0,2.3496,-1044.13,-578.989)">
        <path d="M456.5,472.171C455.08,464.62 457.083,447.865 468.5,454.921C480.215,462.162 470.574,484.94 456.5,472.171Z" style="fill:rgb(234,182,73);stroke:black;stroke-width:2px;"/>
    </g>
    <g transform="matrix(3.12552,0,0,2.3496,-1044.13,-578.989)">
        <path d="M384.5,299.669L362.75,568.921" style="fill:none;fill-rule:nonzero;stroke:black;stroke-width:2px;"/>
    </g>
    <g transform="matrix(3.12552,0,0,2.3496,-1044.13,-578.989)">
        <path d="M396.5,301.919L396.5,459.421" style="fill:none;fill-rule:nonzero;stroke:black;stroke-width:2px;"/>
    </g>
    <g transform="matrix(3.12552,0,0,2.3496,-1044.13,-578.989)">
        <path d="M447.5,299.669L446.75,497.671" style="fill:none;fill-rule:nonzero;stroke:black;stroke-width:2px;"/>
    </g>
    <g transform="matrix(3.12552,0,0,2.3496,-1044.13,-578.989)">
        <path d="M465.5,286.169L472.25,565.171" style="fill:none;fill-rule:nonzero;stroke:black;stroke-width:2px;"/>
    </g>
    <g transform="matrix(3.12552,0,0,2.3496,-1044.13,-578.989)">
        <path d="M456.5,298.169L460.25,454.171" style="fill:none;fill-rule:nonzero;stroke:black;stroke-width:2px;"/>
    </g>
</svg>
