<?xml version="1.0" encoding="UTF-8" standalone="no"?>
<!DOCTYPE svg PUBLIC "-//W3C//DTD SVG 1.1//EN" "http://www.w3.org/Graphics/SVG/1.1/DTD/svg11.dtd">
<svg width="100%" height="100%" viewBox="0 0 823 842" version="1.1" xmlns="http://www.w3.org/2000/svg" xmlns:xlink="http://www.w3.org/1999/xlink" xml:space="preserve" xmlns:serif="http://www.serif.com/" style="fill-rule:evenodd;clip-rule:evenodd;stroke-linecap:square;stroke-miterlimit:10;">
    <g transform="matrix(5.76221,0,0,5.23861,-1950.22,-1784.61)">
        <path d="M429.875,412.765C438.36,419.942 494.11,438.599 458.375,452.515C427.887,464.387 393.084,403.281 429.875,412.765Z" style="fill:rgb(114,66,17);stroke:black;stroke-width:1.25px;"/>
    </g>
    <g transform="matrix(5.76221,0,0,5.23861,-1950.22,-1784.61)">
        <path d="M455.375,448.015C492.185,442.035 427.661,418.924 455.375,448.015Z" style="fill:rgb(244,192,215);stroke:black;stroke-width:1.25px;"/>
    </g>
    <g transform="matrix(5.76221,0,0,5.23861,-1950.22,-1784.61)">
        <path d="M453.125,467.515C466.329,434.555 495.77,478.905 462.125,493.015C421.53,510.04 389.918,445.919 453.125,467.515Z" style="fill:rgb(114,66,17);stroke:black;stroke-width:1.25px;"/>
    </g>
    <g transform="matrix(5.76221,0,0,5.23861,-1950.22,-1784.61)">
        <path d="M372.125,440.515C364.418,482.563 401.025,518.481 426.125,468.265C455.746,409.002 383.036,368.088 372.125,440.515Z" style="fill:rgb(114,66,17);stroke:black;stroke-width:1.25px;"/>
    </g>
    <g transform="matrix(5.76221,0,0,5.23861,-1950.22,-1784.61)">
        <path d="M414.127,474.265C432.354,437.308 456.386,500.515 418.251,500.515C367.432,500.515 350.752,450.728 414.127,474.265Z" style="fill:rgb(114,66,17);stroke:black;stroke-width:1.25px;"/>
    </g>
    <g transform="matrix(5.76221,0,0,5.23861,-1950.22,-1784.61)">
        <path d="M438.125,473.515C425.59,460.632 415.519,482.94 423.875,493.015C434.664,506.024 440.623,481.775 438.125,473.515Z" style="fill:rgb(244,192,215);stroke:black;stroke-width:1.25px;"/>
    </g>
    <g transform="matrix(5.76221,0,0,5.23861,-1950.22,-1784.61)">
        <path d="M390.875,431.515C379.262,440.39 373.254,449.886 363.5,459.64C354.319,468.821 335.125,459.764 341.75,446.515C348.911,432.194 364.346,416.358 379.625,411.265C394.092,406.443 397.187,422.101 390.875,431.515Z" style="fill:rgb(114,66,17);stroke:black;stroke-width:1.25px;"/>
    </g>
    <g transform="matrix(5.76221,0,0,5.23861,-1950.22,-1784.61)">
        <path d="M414.877,346.015C404.86,357.986 418.214,379.657 432.875,367.765C446.928,356.366 429.435,337.832 414.877,346.015Z" style="fill:rgb(114,66,17);stroke:black;stroke-width:1.25px;"/>
    </g>
    <g transform="matrix(5.76221,0,0,5.23861,-1950.22,-1784.61)">
        <path d="M366.125,355.015C367.083,371.34 392.523,378.332 394.625,359.515C396.685,341.07 372.197,340.726 366.125,355.015Z" style="fill:rgb(114,66,17);stroke:black;stroke-width:1.25px;"/>
    </g>
    <g transform="matrix(5.76221,0,0,5.23861,-1950.22,-1784.61)">
        <path d="M372.875,375.265C366.79,413.989 430.7,424.614 436.625,385.765C442.53,347.046 380.608,337.035 372.875,375.265Z" style="fill:rgb(114,66,17);stroke:black;stroke-width:1.25px;"/>
    </g>
    <g transform="matrix(5.76221,0,0,5.23861,-1950.22,-1784.61)">
        <path d="M402.875,380.515C415.822,389.932 417.828,374.76 402.875,380.515Z" style="fill:rgb(244,192,215);stroke:black;stroke-width:1.25px;"/>
    </g>
    <g transform="matrix(5.76221,0,0,5.23861,-1950.22,-1784.61)">
        <path d="M422.375,389.515C412.801,396.52 401.736,395.934 393.125,388.015C402.875,388.515 412.625,389.015 422.375,389.515Z" style="fill:rgb(114,66,17);"/>
    </g>
    <g transform="matrix(5.76221,0,0,5.23861,-1950.22,-1784.61)">
        <path d="M422.375,389.515C412.801,396.52 401.736,395.934 393.125,388.015" style="fill:none;fill-rule:nonzero;stroke:black;stroke-width:1.25px;"/>
    </g>
    <g transform="matrix(5.76221,0,0,5.23861,-1950.22,-1784.61)">
        <path d="M408.877,386.515L408.877,394.765L408.877,386.515Z" style="fill:rgb(114,66,17);"/>
    </g>
    <g transform="matrix(5.76221,0,0,5.23861,-1950.22,-1784.61)">
        <path d="M408.877,386.515L408.877,394.765" style="fill:none;fill-rule:nonzero;stroke:black;stroke-width:1.25px;"/>
    </g>
    <g transform="matrix(5.76221,0,0,5.23861,-1950.22,-1784.61)">
        <path d="M418.625,375.265C422.296,375.853 422.572,375.896 418.625,375.265Z" style="fill:rgb(114,66,17);stroke:black;stroke-width:1.25px;"/>
    </g>
    <g transform="matrix(5.76221,0,0,5.23861,-1950.22,-1784.61)">
        <path d="M419.375,376.015C421.022,376.015 421.022,376.015 419.375,376.015Z" style="fill:rgb(114,66,17);stroke:black;stroke-width:1.25px;"/>
    </g>
    <g transform="matrix(5.76221,0,0,5.23861,-1950.22,-1784.61)">
        <path d="M419.375,376.015C421.022,376.015 421.022,376.015 419.375,376.015Z" style="fill:rgb(114,66,17);stroke:black;stroke-width:1.25px;"/>
    </g>
    <g transform="matrix(5.76221,0,0,5.23861,-1950.22,-1784.61)">
        <path d="M418.625,375.265C422.296,375.853 422.572,375.896 418.625,375.265Z" style="fill:rgb(114,66,17);stroke:black;stroke-width:1.25px;"/>
    </g>
    <g transform="matrix(5.76221,0,0,5.23861,-1950.22,-1784.61)">
        <path d="M418.625,375.265C423.03,375.197 422.272,375.209 418.625,375.265Z" style="fill:rgb(114,66,17);stroke:black;stroke-width:1.25px;"/>
    </g>
    <g transform="matrix(5.76221,0,0,5.23861,-1950.22,-1784.61)">
        <path d="M420.875,376.015C420.233,376.361 419.231,376.902 420.875,376.015Z" style="fill:rgb(114,66,17);stroke:black;stroke-width:1.25px;"/>
    </g>
    <g transform="matrix(5.76221,0,0,5.23861,-1950.22,-1784.61)">
        <path d="M418.625,375.265C421.826,375.979 422.318,376.088 418.625,375.265Z" style="fill:rgb(114,66,17);stroke:black;stroke-width:1.25px;"/>
    </g>
    <g transform="matrix(5.76221,0,0,5.23861,-1950.22,-1784.61)">
        <path d="M419.375,375.265C421.945,376.412 421.232,376.094 419.375,375.265Z" style="fill:rgb(114,66,17);stroke:black;stroke-width:1.25px;"/>
    </g>
    <g transform="matrix(5.76221,0,0,5.23861,-1950.22,-1784.61)">
        <path d="M419.375,375.265C422.361,376.268 421.141,375.858 419.375,375.265Z" style="fill:rgb(114,66,17);stroke:black;stroke-width:1.25px;"/>
    </g>
    <g transform="matrix(5.76221,0,0,5.23861,-1950.22,-1784.61)">
        <path d="M419.375,375.265C422.046,376.719 420.32,375.78 419.375,375.265Z" style="fill:rgb(114,66,17);stroke:black;stroke-width:1.25px;"/>
    </g>
    <g transform="matrix(5.76221,0,0,5.23861,-1950.22,-1784.61)">
        <path d="M419.375,376.015C420.611,375.793 421.779,375.583 419.375,376.015Z" style="fill:rgb(114,66,17);stroke:black;stroke-width:1.25px;"/>
    </g>
    <g transform="matrix(5.76221,0,0,5.23861,-1950.22,-1784.61)">
        <path d="M419.375,376.015C421.022,376.015 421.022,376.015 419.375,376.015Z" style="fill:rgb(114,66,17);stroke:black;stroke-width:1.25px;"/>
    </g>
    <g transform="matrix(5.76221,0,0,5.23861,-1950.22,-1784.61)">
        <path d="M419.375,376.015C421.022,376.015 421.022,376.015 419.375,376.015Z" style="fill:rgb(114,66,17);stroke:black;stroke-width:1.25px;"/>
    </g>
    <g transform="matrix(5.76221,0,0,5.23861,-1950.22,-1784.61)">
        <path d="M419.375,376.015C421.022,376.015 421.022,376.015 419.375,376.015Z" style="fill:rgb(114,66,17);stroke:black;stroke-width:1.25px;"/>
    </g>
    <g transform="matrix(5.76221,0,0,5.23861,-1950.22,-1784.61)">
        <path d="M418.625,375.265C422.296,375.853 422.572,375.896 418.625,375.265Z" style="fill:rgb(114,66,17);stroke:black;stroke-width:1.25px;"/>
    </g>
    <g transform="matrix(5.76221,0,0,5.23861,-1950.22,-1784.61)">
        <path d="M418.625,375.265C423.03,375.197 422.272,375.209 418.625,375.265Z" style="fill:rgb(114,66,17);stroke:black;stroke-width:1.25px;"/>
    </g>
    <g transform="matrix(5.76221,0,0,5.23861,-1950.22,-1784.61)">
        <path d="M420.875,376.015C420.233,376.361 419.231,376.902 420.875,376.015Z" style="fill:rgb(114,66,17);stroke:black;stroke-width:1.25px;"/>
    </g>
    <g transform="matrix(5.76221,0,0,5.23861,-1950.22,-1784.61)">
        <path d="M418.625,375.265C421.826,375.979 422.318,376.088 418.625,375.265Z" style="fill:rgb(114,66,17);stroke:black;stroke-width:1.25px;"/>
    </g>
    <g transform="matrix(5.76221,0,0,5.23861,-1950.22,-1784.61)">
        <path d="M419.375,375.265C421.945,376.412 421.232,376.094 419.375,375.265Z" style="fill:rgb(114,66,17);stroke:black;stroke-width:1.25px;"/>
    </g>
    <g transform="matrix(5.76221,0,0,5.23861,-1950.22,-1784.61)">
        <path d="M419.375,375.265C422.361,376.268 421.141,375.858 419.375,375.265Z" style="fill:rgb(114,66,17);stroke:black;stroke-width:1.25px;"/>
    </g>
    <g transform="matrix(5.76221,0,0,5.23861,-1950.22,-1784.61)">
        <path d="M419.375,375.265C422.046,376.719 420.32,375.78 419.375,375.265Z" style="fill:rgb(114,66,17);stroke:black;stroke-width:1.25px;"/>
    </g>
    <g transform="matrix(5.76221,0,0,5.23861,-1950.22,-1784.61)">
        <path d="M419.375,376.015C420.611,375.793 421.779,375.583 419.375,376.015Z" style="fill:rgb(114,66,17);stroke:black;stroke-width:1.25px;"/>
    </g>
    <g transform="matrix(5.76221,0,0,5.23861,-1950.22,-1784.61)">
        <path d="M419.375,376.015C421.022,376.015 421.022,376.015 419.375,376.015Z" style="fill:rgb(114,66,17);stroke:black;stroke-width:1.25px;"/>
    </g>
    <g transform="matrix(5.76221,0,0,5.23861,-1950.22,-1784.61)">
        <path d="M419.375,376.015C421.022,376.015 421.022,376.015 419.375,376.015Z" style="fill:rgb(114,66,17);stroke:black;stroke-width:1.25px;"/>
    </g>
    <g transform="matrix(5.76221,0,0,5.23861,-1950.22,-1784.61)">
        <path d="M419.375,376.015C420.017,375.669 421.019,375.128 419.375,376.015Z" style="fill:rgb(114,66,17);stroke:black;stroke-width:1.25px;"/>
    </g>
    <g transform="matrix(5.76221,0,0,5.23861,-1950.22,-1784.61)">
        <path d="M418.625,375.265C421.279,375.723 423.138,376.043 418.625,375.265Z" style="fill:rgb(114,66,17);stroke:black;stroke-width:1.25px;"/>
    </g>
    <g transform="matrix(5.76221,0,0,5.23861,-1950.22,-1784.61)">
        <path d="M419.375,375.265C422.54,375.736 421.663,375.606 419.375,375.265Z" style="fill:rgb(114,66,17);stroke:black;stroke-width:1.25px;"/>
    </g>
    <g transform="matrix(5.76221,0,0,5.23861,-1950.22,-1784.61)">
        <path d="M420.875,376.015C419.875,376.015 419.875,376.015 420.875,376.015Z" style="fill:rgb(114,66,17);stroke:black;stroke-width:1.25px;"/>
    </g>
    <g transform="matrix(5.76221,0,0,5.23861,-1950.22,-1784.61)">
        <path d="M419.375,375.265C422.68,376.581 420.576,375.743 419.375,375.265Z" style="fill:rgb(114,66,17);stroke:black;stroke-width:1.25px;"/>
    </g>
    <g transform="matrix(5.76221,0,0,5.23861,-1950.22,-1784.61)">
        <path d="M419.375,375.265C422.349,377.034 420.158,375.731 419.375,375.265Z" style="fill:rgb(114,66,17);stroke:black;stroke-width:1.25px;"/>
    </g>
    <g transform="matrix(5.76221,0,0,5.23861,-1950.22,-1784.61)">
        <path d="M419.375,375.265C422.71,376.783 420.113,375.602 419.375,375.265Z" style="fill:rgb(114,66,17);stroke:black;stroke-width:1.25px;"/>
    </g>
    <g transform="matrix(5.76221,0,0,5.23861,-1950.22,-1784.61)">
        <path d="M419.375,375.265C420.852,376.236 421.247,376.496 419.375,375.265Z" style="fill:rgb(114,66,17);stroke:black;stroke-width:1.25px;"/>
    </g>
    <g transform="matrix(5.76221,0,0,5.23861,-1950.22,-1784.61)">
        <path d="M419.375,376.015C421.022,376.015 421.022,376.015 419.375,376.015Z" style="fill:rgb(114,66,17);stroke:black;stroke-width:1.25px;"/>
    </g>
    <g transform="matrix(5.76221,0,0,5.23861,-1950.22,-1784.61)">
        <path d="M419.375,376.015C421.022,376.015 421.022,376.015 419.375,376.015Z" style="fill:rgb(114,66,17);stroke:black;stroke-width:1.25px;"/>
    </g>
    <g transform="matrix(5.76221,0,0,5.23861,-1950.22,-1784.61)">
        <path d="M419.375,376.015C421.232,375.566 420.818,375.667 419.375,376.015Z" style="fill:rgb(114,66,17);stroke:black;stroke-width:1.25px;"/>
    </g>
    <g transform="matrix(5.76221,0,0,5.23861,-1950.22,-1784.61)">
        <path d="M419.375,376.015C420.375,376.015 420.375,376.015 419.375,376.015Z" style="fill:rgb(114,66,17);stroke:black;stroke-width:1.25px;"/>
    </g>
    <g transform="matrix(5.76221,0,0,5.23861,-1950.22,-1784.61)">
        <path d="M418.625,375.265C422.501,375.992 421.757,375.853 418.625,375.265Z" style="fill:rgb(114,66,17);stroke:black;stroke-width:1.25px;"/>
    </g>
    <g transform="matrix(5.76221,0,0,5.23861,-1950.22,-1784.61)">
        <path d="M419.375,375.265C422.633,376.42 420.324,375.602 419.375,375.265Z" style="fill:rgb(114,66,17);stroke:black;stroke-width:1.25px;"/>
    </g>
    <g transform="matrix(5.76221,0,0,5.23861,-1950.22,-1784.61)">
        <path d="M419.375,375.265C422.568,376.923 419.604,375.384 419.375,375.265Z" style="fill:rgb(114,66,17);stroke:black;stroke-width:1.25px;"/>
    </g>
    <g transform="matrix(5.76221,0,0,5.23861,-1950.22,-1784.61)">
        <path d="M419.375,375.265C421.947,376.871 420.408,375.91 419.375,375.265Z" style="fill:rgb(114,66,17);stroke:black;stroke-width:1.25px;"/>
    </g>
    <g transform="matrix(5.76221,0,0,5.23861,-1950.22,-1784.61)">
        <path d="M419.375,375.265C421.285,376.711 421.121,376.587 419.375,375.265Z" style="fill:rgb(114,66,17);stroke:black;stroke-width:1.25px;"/>
    </g>
    <g transform="matrix(5.76221,0,0,5.23861,-1950.22,-1784.61)">
        <path d="M419.375,376.015C421.232,375.566 420.818,375.667 419.375,376.015Z" style="fill:rgb(114,66,17);stroke:black;stroke-width:1.25px;"/>
    </g>
    <g transform="matrix(5.76221,0,0,5.23861,-1950.22,-1784.61)">
        <path d="M419.375,376.015C421.232,375.566 420.818,375.667 419.375,376.015Z" style="fill:rgb(114,66,17);stroke:black;stroke-width:1.25px;"/>
    </g>
    <g transform="matrix(5.76221,0,0,5.23861,-1950.22,-1784.61)">
        <path d="M419.375,376.015C421.232,375.566 420.818,375.667 419.375,376.015Z" style="fill:rgb(114,66,17);stroke:black;stroke-width:1.25px;"/>
    </g>
    <g transform="matrix(5.76221,0,0,5.23861,-1950.22,-1784.61)">
        <path d="M419.375,376.015C420.375,376.015 420.375,376.015 419.375,376.015Z" style="fill:rgb(114,66,17);stroke:black;stroke-width:1.25px;"/>
    </g>
    <g transform="matrix(5.76221,0,0,5.23861,-1950.22,-1784.61)">
        <path d="M419.375,376.015C420.375,376.015 420.375,376.015 419.375,376.015Z" style="fill:rgb(114,66,17);stroke:black;stroke-width:1.25px;"/>
    </g>
    <g transform="matrix(5.76221,0,0,5.23861,-1950.22,-1784.61)">
        <path d="M419.375,375.265C420.702,376.215 421.154,376.539 419.375,375.265Z" style="fill:rgb(114,66,17);stroke:black;stroke-width:1.25px;"/>
    </g>
    <g transform="matrix(5.76221,0,0,5.23861,-1950.22,-1784.61)">
        <path d="M419.375,375.265C421.231,376.239 420.804,376.015 419.375,375.265Z" style="fill:rgb(114,66,17);stroke:black;stroke-width:1.25px;"/>
    </g>
    <g transform="matrix(5.76221,0,0,5.23861,-1950.22,-1784.61)">
        <path d="M419.375,376.015C421.232,375.566 420.818,375.667 419.375,376.015Z" style="fill:rgb(114,66,17);stroke:black;stroke-width:1.25px;"/>
    </g>
    <g transform="matrix(5.76221,0,0,5.23861,-1950.22,-1784.61)">
        <path d="M419.375,376.015C421.232,375.566 420.818,375.667 419.375,376.015Z" style="fill:rgb(114,66,17);stroke:black;stroke-width:1.25px;"/>
    </g>
    <g transform="matrix(5.76221,0,0,5.23861,-1950.22,-1784.61)">
        <path d="M419.375,376.015C420.017,375.669 421.019,375.128 419.375,376.015Z" style="fill:rgb(114,66,17);stroke:black;stroke-width:1.25px;"/>
    </g>
    <g transform="matrix(5.76221,0,0,5.23861,-1950.22,-1784.61)">
        <path d="M419.375,376.015C420.017,375.669 421.019,375.128 419.375,376.015Z" style="fill:rgb(114,66,17);stroke:black;stroke-width:1.25px;"/>
    </g>
    <g transform="matrix(5.76221,0,0,5.23861,-1950.22,-1784.61)">
        <path d="M419.375,376.015C420.017,375.669 421.019,375.128 419.375,376.015Z" style="fill:rgb(114,66,17);stroke:black;stroke-width:1.25px;"/>
    </g>
    <g transform="matrix(5.76221,0,0,5.23861,-1950.22,-1784.61)">
        <path d="M419.375,376.015C420.375,376.015 420.375,376.015 419.375,376.015Z" style="fill:rgb(114,66,17);stroke:black;stroke-width:1.25px;"/>
    </g>
    <g transform="matrix(5.76221,0,0,5.23861,-1950.22,-1784.61)">
        <path d="M393.875,375.265C397.613,376.292 398.106,376.428 393.875,375.265Z" style="fill:rgb(114,66,17);stroke:black;stroke-width:1.25px;"/>
    </g>
    <g transform="matrix(5.76221,0,0,5.23861,-1950.22,-1784.61)">
        <path d="M394.625,376.765C396.483,376.316 396.068,376.417 394.625,376.765Z" style="fill:rgb(114,66,17);stroke:black;stroke-width:1.25px;"/>
    </g>
    <g transform="matrix(5.76221,0,0,5.23861,-1950.22,-1784.61)">
        <path d="M394.625,376.015C396.481,376.989 396.054,376.765 394.625,376.015Z" style="fill:rgb(114,66,17);stroke:black;stroke-width:1.25px;"/>
    </g>
    <g transform="matrix(5.76221,0,0,5.23861,-1950.22,-1784.61)">
        <path d="M393.875,376.015C397.352,375.601 398.513,375.462 393.875,376.015Z" style="fill:rgb(114,66,17);stroke:black;stroke-width:1.25px;"/>
    </g>
    <g transform="matrix(5.76221,0,0,5.23861,-1950.22,-1784.61)">
        <path d="M393.875,375.265C398.183,376.821 397.592,376.607 393.875,375.265Z" style="fill:rgb(114,66,17);stroke:black;stroke-width:1.25px;"/>
    </g>
    <g transform="matrix(5.76221,0,0,5.23861,-1950.22,-1784.61)">
        <path d="M396.125,376.765C394.481,375.878 395.483,376.419 396.125,376.765Z" style="fill:rgb(114,66,17);stroke:black;stroke-width:1.25px;"/>
    </g>
    <g transform="matrix(5.76221,0,0,5.23861,-1950.22,-1784.61)">
        <path d="M393.875,376.015C397.081,376.121 397.869,376.146 393.875,376.015Z" style="fill:rgb(114,66,17);stroke:black;stroke-width:1.25px;"/>
    </g>
    <g transform="matrix(5.76221,0,0,5.23861,-1950.22,-1784.61)">
        <path d="M393.875,376.015C397.544,376.373 397.459,376.365 393.875,376.015Z" style="fill:rgb(114,66,17);stroke:black;stroke-width:1.25px;"/>
    </g>
    <g transform="matrix(5.76221,0,0,5.23861,-1950.22,-1784.61)">
        <path d="M394.625,376.015C396.288,376.113 397.729,376.199 394.625,376.015Z" style="fill:rgb(114,66,17);stroke:black;stroke-width:1.25px;"/>
    </g>
    <g transform="matrix(5.76221,0,0,5.23861,-1950.22,-1784.61)">
        <path d="M394.625,376.015C396.142,376.48 396.413,376.564 394.625,376.015Z" style="fill:rgb(114,66,17);stroke:black;stroke-width:1.25px;"/>
    </g>
    <g transform="matrix(5.76221,0,0,5.23861,-1950.22,-1784.61)">
        <path d="M394.625,376.015C396.276,376.412 396.29,376.415 394.625,376.015Z" style="fill:rgb(114,66,17);stroke:black;stroke-width:1.25px;"/>
    </g>
    <g transform="matrix(5.76221,0,0,5.23861,-1950.22,-1784.61)">
        <path d="M394.625,376.015C396.481,376.989 396.054,376.765 394.625,376.015Z" style="fill:rgb(114,66,17);stroke:black;stroke-width:1.25px;"/>
    </g>
    <g transform="matrix(5.76221,0,0,5.23861,-1950.22,-1784.61)">
        <path d="M394.625,376.765C396.483,376.316 396.068,376.417 394.625,376.765Z" style="fill:rgb(114,66,17);stroke:black;stroke-width:1.25px;"/>
    </g>
    <g transform="matrix(5.76221,0,0,5.23861,-1950.22,-1784.61)">
        <path d="M394.625,376.015C396.481,376.989 396.054,376.765 394.625,376.015Z" style="fill:rgb(114,66,17);stroke:black;stroke-width:1.25px;"/>
    </g>
    <g transform="matrix(5.76221,0,0,5.23861,-1950.22,-1784.61)">
        <path d="M393.875,376.015C397.352,375.601 398.513,375.462 393.875,376.015Z" style="fill:rgb(114,66,17);stroke:black;stroke-width:1.25px;"/>
    </g>
    <g transform="matrix(5.76221,0,0,5.23861,-1950.22,-1784.61)">
        <path d="M393.875,375.265C398.183,376.821 397.592,376.607 393.875,375.265Z" style="fill:rgb(114,66,17);stroke:black;stroke-width:1.25px;"/>
    </g>
    <g transform="matrix(5.76221,0,0,5.23861,-1950.22,-1784.61)">
        <path d="M396.125,376.765C394.481,375.878 395.483,376.419 396.125,376.765Z" style="fill:rgb(114,66,17);stroke:black;stroke-width:1.25px;"/>
    </g>
    <g transform="matrix(5.76221,0,0,5.23861,-1950.22,-1784.61)">
        <path d="M393.875,376.015C397.081,376.121 397.869,376.146 393.875,376.015Z" style="fill:rgb(114,66,17);stroke:black;stroke-width:1.25px;"/>
    </g>
    <g transform="matrix(5.76221,0,0,5.23861,-1950.22,-1784.61)">
        <path d="M393.875,376.015C397.544,376.373 397.459,376.365 393.875,376.015Z" style="fill:rgb(114,66,17);stroke:black;stroke-width:1.25px;"/>
    </g>
    <g transform="matrix(5.76221,0,0,5.23861,-1950.22,-1784.61)">
        <path d="M394.625,376.015C396.288,376.113 397.729,376.199 394.625,376.015Z" style="fill:rgb(114,66,17);stroke:black;stroke-width:1.25px;"/>
    </g>
    <g transform="matrix(5.76221,0,0,5.23861,-1950.22,-1784.61)">
        <path d="M394.625,376.015C396.142,376.48 396.413,376.564 394.625,376.015Z" style="fill:rgb(114,66,17);stroke:black;stroke-width:1.25px;"/>
    </g>
    <g transform="matrix(5.76221,0,0,5.23861,-1950.22,-1784.61)">
        <path d="M394.625,376.015C396.276,376.412 396.29,376.415 394.625,376.015Z" style="fill:rgb(114,66,17);stroke:black;stroke-width:1.25px;"/>
    </g>
    <g transform="matrix(5.76221,0,0,5.23861,-1950.22,-1784.61)">
        <path d="M394.625,376.015C396.481,376.989 396.054,376.765 394.625,376.015Z" style="fill:rgb(114,66,17);stroke:black;stroke-width:1.25px;"/>
    </g>
    <g transform="matrix(5.76221,0,0,5.23861,-1950.22,-1784.61)">
        <path d="M394.625,376.765C396.483,376.316 396.068,376.417 394.625,376.765Z" style="fill:rgb(114,66,17);stroke:black;stroke-width:1.25px;"/>
    </g>
    <g transform="matrix(5.76221,0,0,5.23861,-1950.22,-1784.61)">
        <path d="M394.625,376.015C396.269,376.902 395.267,376.361 394.625,376.015Z" style="fill:rgb(114,66,17);stroke:black;stroke-width:1.25px;"/>
    </g>
    <g transform="matrix(5.76221,0,0,5.23861,-1950.22,-1784.61)">
        <path d="M393.875,376.015C396.873,375.947 397.733,375.928 393.875,376.015Z" style="fill:rgb(114,66,17);stroke:black;stroke-width:1.25px;"/>
    </g>
    <g transform="matrix(5.76221,0,0,5.23861,-1950.22,-1784.61)">
        <path d="M393.875,376.015C397.549,375.756 397.425,375.764 393.875,376.015Z" style="fill:rgb(114,66,17);stroke:black;stroke-width:1.25px;"/>
    </g>
    <g transform="matrix(5.76221,0,0,5.23861,-1950.22,-1784.61)">
        <path d="M396.125,376.765C394.481,375.878 395.483,376.419 396.125,376.765Z" style="fill:rgb(114,66,17);stroke:black;stroke-width:1.25px;"/>
    </g>
    <g transform="matrix(5.76221,0,0,5.23861,-1950.22,-1784.61)">
        <path d="M394.625,376.015C397.217,376.482 396.782,376.404 394.625,376.015Z" style="fill:rgb(114,66,17);stroke:black;stroke-width:1.25px;"/>
    </g>
    <g transform="matrix(5.76221,0,0,5.23861,-1950.22,-1784.61)">
        <path d="M394.625,376.015C397.883,377.17 395.575,376.352 394.625,376.015Z" style="fill:rgb(114,66,17);stroke:black;stroke-width:1.25px;"/>
    </g>
    <g transform="matrix(5.76221,0,0,5.23861,-1950.22,-1784.61)">
        <path d="M394.625,376.015C396.756,376.266 396.604,376.248 394.625,376.015Z" style="fill:rgb(114,66,17);stroke:black;stroke-width:1.25px;"/>
    </g>
    <g transform="matrix(5.76221,0,0,5.23861,-1950.22,-1784.61)">
        <path d="M394.625,376.015C396.142,376.48 396.413,376.564 394.625,376.015Z" style="fill:rgb(114,66,17);stroke:black;stroke-width:1.25px;"/>
    </g>
    <g transform="matrix(5.76221,0,0,5.23861,-1950.22,-1784.61)">
        <path d="M394.625,376.015C397.196,376.751 395.321,376.214 394.625,376.015Z" style="fill:rgb(114,66,17);stroke:black;stroke-width:1.25px;"/>
    </g>
    <g transform="matrix(5.76221,0,0,5.23861,-1950.22,-1784.61)">
        <path d="M394.625,376.015C396.481,376.989 396.054,376.765 394.625,376.015Z" style="fill:rgb(114,66,17);stroke:black;stroke-width:1.25px;"/>
    </g>
    <g transform="matrix(5.76221,0,0,5.23861,-1950.22,-1784.61)">
        <path d="M394.625,376.765C395.267,376.419 396.269,375.878 394.625,376.765Z" style="fill:rgb(114,66,17);stroke:black;stroke-width:1.25px;"/>
    </g>
    <g transform="matrix(5.76221,0,0,5.23861,-1950.22,-1784.61)">
        <path d="M394.625,376.015C396.269,376.902 395.267,376.361 394.625,376.015Z" style="fill:rgb(114,66,17);stroke:black;stroke-width:1.25px;"/>
    </g>
    <g transform="matrix(5.76221,0,0,5.23861,-1950.22,-1784.61)">
        <path d="M393.875,376.015C397.443,376.241 396.806,376.201 393.875,376.015Z" style="fill:rgb(114,66,17);stroke:black;stroke-width:1.25px;"/>
    </g>
    <g transform="matrix(5.76221,0,0,5.23861,-1950.22,-1784.61)">
        <path d="M394.625,376.015C396.676,376.015 396.676,376.015 394.625,376.015Z" style="fill:rgb(114,66,17);stroke:black;stroke-width:1.25px;"/>
    </g>
    <g transform="matrix(5.76221,0,0,5.23861,-1950.22,-1784.61)">
        <path d="M395.375,376.765C395.375,375.765 395.375,375.765 395.375,376.765Z" style="fill:rgb(114,66,17);stroke:black;stroke-width:1.25px;"/>
    </g>
    <g transform="matrix(5.76221,0,0,5.23861,-1950.22,-1784.61)">
        <path d="M394.625,376.015C396.573,376.277 396.145,376.22 394.625,376.015Z" style="fill:rgb(114,66,17);stroke:black;stroke-width:1.25px;"/>
    </g>
    <g transform="matrix(5.76221,0,0,5.23861,-1950.22,-1784.61)">
        <path d="M394.625,376.015C397.177,376.905 395.24,376.229 394.625,376.015Z" style="fill:rgb(114,66,17);stroke:black;stroke-width:1.25px;"/>
    </g>
    <g transform="matrix(5.76221,0,0,5.23861,-1950.22,-1784.61)">
        <path d="M394.625,376.015C396.744,376.387 395.528,376.174 394.625,376.015Z" style="fill:rgb(114,66,17);stroke:black;stroke-width:1.25px;"/>
    </g>
    <g transform="matrix(5.76221,0,0,5.23861,-1950.22,-1784.61)">
        <path d="M394.625,376.015C396.272,376.015 396.272,376.015 394.625,376.015Z" style="fill:rgb(114,66,17);stroke:black;stroke-width:1.25px;"/>
    </g>
    <g transform="matrix(5.76221,0,0,5.23861,-1950.22,-1784.61)">
        <path d="M394.625,376.015C396.481,376.989 396.054,376.765 394.625,376.015Z" style="fill:rgb(114,66,17);stroke:black;stroke-width:1.25px;"/>
    </g>
    <g transform="matrix(5.76221,0,0,5.23861,-1950.22,-1784.61)">
        <path d="M394.625,376.015C396.481,376.989 396.054,376.765 394.625,376.015Z" style="fill:rgb(114,66,17);stroke:black;stroke-width:1.25px;"/>
    </g>
    <g transform="matrix(5.76221,0,0,5.23861,-1950.22,-1784.61)">
        <path d="M394.625,376.765C395.267,376.419 396.269,375.878 394.625,376.765Z" style="fill:rgb(114,66,17);stroke:black;stroke-width:1.25px;"/>
    </g>
    <g transform="matrix(5.76221,0,0,5.23861,-1950.22,-1784.61)">
        <path d="M394.625,376.015C396.269,376.902 395.267,376.361 394.625,376.015Z" style="fill:rgb(114,66,17);stroke:black;stroke-width:1.25px;"/>
    </g>
    <g transform="matrix(5.76221,0,0,5.23861,-1950.22,-1784.61)">
        <path d="M394.625,376.015C395.898,376.015 395.898,376.015 394.625,376.015Z" style="fill:rgb(114,66,17);stroke:black;stroke-width:1.25px;"/>
    </g>
    <g transform="matrix(5.76221,0,0,5.23861,-1950.22,-1784.61)">
        <path d="M394.625,376.015C396.272,376.015 396.272,376.015 394.625,376.015Z" style="fill:rgb(114,66,17);stroke:black;stroke-width:1.25px;"/>
    </g>
    <g transform="matrix(5.76221,0,0,5.23861,-1950.22,-1784.61)">
        <path d="M395.375,376.765C395.375,375.765 395.375,375.765 395.375,376.765Z" style="fill:rgb(114,66,17);stroke:black;stroke-width:1.25px;"/>
    </g>
    <g transform="matrix(5.76221,0,0,5.23861,-1950.22,-1784.61)">
        <path d="M394.625,376.015C396.068,376.364 396.483,376.464 394.625,376.015Z" style="fill:rgb(114,66,17);stroke:black;stroke-width:1.25px;"/>
    </g>
    <g transform="matrix(5.76221,0,0,5.23861,-1950.22,-1784.61)">
        <path d="M394.625,376.015C396.068,376.364 396.483,376.464 394.625,376.015Z" style="fill:rgb(114,66,17);stroke:black;stroke-width:1.25px;"/>
    </g>
    <g transform="matrix(5.76221,0,0,5.23861,-1950.22,-1784.61)">
        <path d="M394.625,376.015C396.269,376.902 395.267,376.361 394.625,376.015Z" style="fill:rgb(114,66,17);stroke:black;stroke-width:1.25px;"/>
    </g>
    <g transform="matrix(5.76221,0,0,5.23861,-1950.22,-1784.61)">
        <path d="M394.625,376.015C396.269,376.902 395.267,376.361 394.625,376.015Z" style="fill:rgb(114,66,17);stroke:black;stroke-width:1.25px;"/>
    </g>
    <g transform="matrix(5.76221,0,0,5.23861,-1950.22,-1784.61)">
        <path d="M394.625,376.015C396.269,376.902 395.267,376.361 394.625,376.015Z" style="fill:rgb(114,66,17);stroke:black;stroke-width:1.25px;"/>
    </g>
    <g transform="matrix(5.76221,0,0,5.23861,-1950.22,-1784.61)">
        <path d="M394.625,376.015C396.269,376.902 395.267,376.361 394.625,376.015Z" style="fill:rgb(114,66,17);stroke:black;stroke-width:1.25px;"/>
    </g>
    <g transform="matrix(5.76221,0,0,5.23861,-1950.22,-1784.61)">
        <path d="M478.625,470.515C474.678,452.63 463.625,460.375 463.625,475.39C463.625,495.802 478.396,486.26 478.625,470.515Z" style="fill:rgb(244,192,215);stroke:black;stroke-width:1.25px;"/>
    </g>
    <g transform="matrix(5.76221,0,0,5.23861,-1950.22,-1784.61)">
        <path d="M454.625,466.765C453.802,472.53 453.802,472.53 454.625,466.765Z" style="fill:rgb(114,66,17);"/>
    </g>
    <g transform="matrix(5.76221,0,0,5.23861,-1950.22,-1784.61)">
        <path d="M454.625,466.765C454.375,468.515 454.125,470.265 453.875,472.015" style="fill:none;fill-rule:nonzero;stroke:black;stroke-width:1.25px;"/>
    </g>
    <g transform="matrix(5.76221,0,0,5.23861,-1950.22,-1784.61)">
        <path d="M415.627,473.515C413.905,478.381 413.843,478.557 415.627,473.515Z" style="fill:rgb(114,66,17);"/>
    </g>
    <g transform="matrix(5.76221,0,0,5.23861,-1950.22,-1784.61)">
        <path d="M415.627,473.515C414.802,474.895 414.302,476.395 414.127,478.015" style="fill:none;fill-rule:nonzero;stroke:black;stroke-width:1.25px;"/>
    </g>
</svg>
